<?xml version="1.0" standalone="no"?>
<!DOCTYPE svg PUBLIC "-//W3C//DTD SVG 1.1//EN" "http://www.w3.org/Graphics/SVG/1.1/DTD/svg11.dtd" >
<svg xmlns="http://www.w3.org/2000/svg">
<metadata></metadata>
<defs>
<font id="wreatheitalic" horiz-adv-x="281" >
<font-face units-per-em="1000" ascent="800" descent="-200" />
<missing-glyph horiz-adv-x="240" />
<glyph unicode=" " horiz-adv-x="240" d="M0 132l4 -4z" />
<glyph unicode="!" horiz-adv-x="167" d="M90 206q26 4 28 -26q3 -33 -20 -53q-7 -7 -16 -9q-27 -6 -30 24q-3 32 19 54q9 8 19 10zM230 761l4 -4zM102 331l49 289l22 120l57 21q4 -16 0 -36.5t-13.5 -48.5t-11.5 -36q-9 -33 -29.5 -96t-34 -115t-16.5 -98h-23z" />
<glyph unicode="&#x22;" horiz-adv-x="448" d="M371 464q0 18 2 36.5t6.5 44.5t5.5 36q2 13 4.5 40.5t5.5 41.5q7 56 35 76q15 13 37 9.5t29 -22.5q4 -10 4.5 -20t-3.5 -21.5t-6.5 -18t-9.5 -18.5q-59 -120 -64 -129q-2 -3 -8.5 -16t-10 -18.5t-11 -12.5t-16.5 -8zM156 464q2 21 8 60t8 57q1 5 4 35.5t5 46.5 q10 57 34 76q17 14 40.5 9.5t29.5 -26.5q7 -27 -5 -61.5t-43 -86t-33 -55.5q-1 -3 -6 -13.5t-8 -15l-8 -12t-11.5 -10.5t-14.5 -4z" />
<glyph unicode="#" horiz-adv-x="667" d="M230 374h239l43 211h-172l-64 -4l-17 -54zM285 851h43q-17 -130 -51 -219h176l64 6l13 45l25 121l14 43l40 4l-47 -219h114v-47h-121l-43 -211h164v-47h-176l-43 -218h-43l43 218h-172l-63 -6l-18 -60l-32 -152h-43l43 218h-110v47h122l43 211h-165v47h176z" />
<glyph unicode="$" horiz-adv-x="479" d="M297 499l43 219q-41 -1 -70 -17.5t-40.5 -42.5t-10 -55t22 -57.5t55.5 -46.5zM297 413l-51 -265q36 0 61.5 4.5t47.5 20.5q35 26 44.5 62t-2.5 70t-39 64t-61 44zM355 788h20l-12 -50q37 -3 69.5 -19t71.5 -44l-43 -70l-16 4q15 78 -82 109l-51 -234q47 -20 81 -58.5 t48 -82.5t1 -91.5t-55 -83.5q-37 -30 -90 -38q-2 0 -22 -0.5t-27 -5.5q-9 -6 -12 -18t-3 -22.5t-6 -19.5t-20 -10l16 78q-64 9 -118 63l-6 6t-8.5 9t-7 8t-6.5 10t-2 10q-1 14 15.5 42.5t18.5 35.5l16 -4q-9 -51 21.5 -94.5t80.5 -65.5q7 30 39 187q1 6 6 24.5t7.5 32.5 t0.5 25q-1 9 -7.5 16t-19.5 16t-15 10q-36 29 -57 67q-31 61 -10 107t70.5 73t106.5 28z" />
<glyph unicode="%" horiz-adv-x="792" d="M641 450q-30 -7 -52 -34t-32 -63.5t-14.5 -70.5t-3.5 -64q1 -35 19 -61.5t51 -18.5q28 7 50 34.5t33.5 64t17 71.5t5.5 62q-1 37 -20 62.5t-54 17.5zM629 466q57 9 94.5 -24t41.5 -91q4 -47 -11 -96t-50 -88t-83 -46q-56 -8 -91.5 27.5t-40.5 92.5q-4 46 10 94.5t49 86 t81 44.5zM277 778q-30 -7 -52 -33t-33 -62t-15.5 -69t-4.5 -64q0 -35 18.5 -63t51.5 -22q29 5 52 32.5t35 64.5t17.5 73t5.5 63q-1 37 -20.5 62.5t-54.5 17.5zM156 120q54 81 122 167t156.5 190.5t131.5 158.5q9 11 31.5 43.5t39.5 55t42 42t48 19.5q-20 -29 -44 -59.5 t-55 -67t-47 -57.5l-265 -332q-8 -10 -31 -43t-39.5 -55t-42 -42t-47.5 -20zM262 794q58 11 97 -22.5t43 -92.5q3 -46 -11.5 -94.5t-48.5 -87t-80 -47.5q-57 -10 -96 25.5t-44 94.5q-5 45 10 93t49.5 85.5t80.5 45.5z" />
<glyph unicode="&#x26;" horiz-adv-x="719" d="M246 519q-7 7 -24 21.5t-25.5 23.5t-15.5 25.5t-4 34.5q4 27 29 53.5t58 42t68 18.5t58 -18q7 -6 12.5 -13.5t6 -16t-10.5 -13.5q-10 -4 -19.5 0.5t-19.5 14.5t-15 12q-27 14 -74 -4q-35 -13 -44 -48.5t14 -62.5q13 -15 31.5 -26t33 -16.5t39.5 -12.5l-8 -27 q-80 0 -125 -23q-42 -21 -63 -64t-15 -91t36 -84q44 -53 122 -73.5t143 3.5q34 13 63 43.5t40 68.5t-11 75q-7 11 -26.5 12.5t-40.5 -4.5t-39 -17t-22 -22q-4 -14 4.5 -41.5t-4.5 -44.5q-28 11 -33.5 40.5t7.5 59t34 45.5q29 21 75.5 27t85.5 2t81 3q27 5 46.5 21t0.5 37 q4 7 12.5 14t17.5 9t15 -9q7 -15 -0.5 -37t-21.5 -36q-17 -18 -45.5 -28.5t-48.5 -13t-55 -4.5q-7 -1 -10 -1q15 -77 -2 -121q-19 -48 -60 -80t-92 -43t-104 -7t-101.5 27t-78.5 60q-32 40 -38 92.5t12 98.5t58.5 79.5t92.5 38.5z" />
<glyph unicode="'" horiz-adv-x="229" d="M148 464q1 13 15 117q9 70 11 82q10 54 30 73q17 16 42 12.5t33 -26.5q1 -4 1.5 -8t1 -7.5t-0.5 -8t-1 -7t-2 -8t-2.5 -7t-3 -7.5t-3 -7t-3.5 -7.5l-3 -6.5l-65 -129q-2 -4 -6.5 -14.5t-7.5 -15.5t-8 -12t-12 -10t-16 -3z" />
<glyph unicode="(" horiz-adv-x="313" d="M234 -153q-2 3 -18.5 24.5t-20 26t-17 23t-18 26t-15 24.5t-15.5 27.5t-12 26t-12 30t-9 30.5q-14 57 -15.5 119.5t9.5 125t32.5 123.5t55 115.5t75 99.5t95 78.5t112.5 49.5q-5 -26 -34 -47.5t-68 -42t-54 -35.5q-139 -132 -178 -312q-43 -192 19 -329q25 -56 57 -97 q4 -6 11 -14t11 -13t9 -12.5t6.5 -14t1.5 -15t-4 -17.5h-4z" />
<glyph unicode=")" horiz-adv-x="313" d="M113 796q73 -51 124 -176q57 -151 25.5 -319t-132.5 -294q-48 -58 -111 -104.5t-124 -55.5q6 25 32.5 45t63.5 39t52 33q135 124 180 297q51 195 -16 355q-9 23 -35 57t-43.5 64.5t-15.5 58.5z" />
<glyph unicode="*" horiz-adv-x="354" d="M242 661q-23 -6 -35 -23t-10.5 -36.5t10.5 -36.5t28 -26t42 -2.5t35 23t10.5 36t-10 37t-28 26t-42.5 2.5zM215 425l4 -4zM125 726q9 -3 32 -18t43.5 -23.5t33.5 -1.5q10 5 19.5 21.5t15 32.5t16 27.5t24.5 8.5l3 -114q10 -1 42 1.5t55 -0.5t29 -16q-28 -9 -59.5 -28.5 t-32.5 -38.5q-1 -11 6 -25.5t13.5 -23.5t21 -26t15.5 -18l-7 -12q-10 3 -33 17.5t-43.5 23t-33.5 2.5t-22 -21.5t-13 -30.5t-14 -27.5t-25 -14.5q4 19 6 42.5t-5 48.5t-25 29q-10 2 -34.5 -1.5t-43.5 -2.5t-27 13l98 62q-5 11 -21.5 35t-27 45t-6.5 34z" />
<glyph unicode="+" horiz-adv-x="667" d="M352 687h46v-258h258v-47h-258v-254h-46v254h-258v47h258v258z" />
<glyph unicode="," horiz-adv-x="177" d="M90 187q36 -26 40 -69.5t-16.5 -83.5t-56.5 -72t-73 -37q3 11 11 18.5t21 14t19 11.5q17 15 30.5 38.5t18.5 48t-7 44.5t-42 24z" />
<glyph unicode="-" horiz-adv-x="354" d="M348 370l4 -4zM51 249q13 41 38 61t54 21.5t64.5 2t69.5 1.5q13 2 34.5 19.5t40.5 11.5l-49 -82h-49l-129 3z" />
<glyph unicode="." horiz-adv-x="188" d="M98 206q26 4 28 -26q2 -33 -20 -53q-7 -7 -16 -9q-27 -6 -30 24q-3 32 19 54q9 8 19 10z" />
<glyph unicode="/" horiz-adv-x="531" d="M90 -16q9 32 26.5 68t42.5 81t35 65q26 52 75 147.5t88 173.5t71 148q20 42 71 145q2 4 6.5 13.5t6.5 13l6 10.5t7.5 9.5t9 6t12.5 4.5t15 1q-42 -103 -98.5 -216.5t-130 -251.5t-109.5 -211q-53 -106 -73 -149q-1 -2 -5 -11.5t-5 -11.5t-5 -9t-6.5 -9.5l-7 -7t-9 -5.5 t-10.5 -2.5t-13 -1.5z" />
<glyph unicode="0" horiz-adv-x="480" d="M328 724q-33 -7 -56.5 -32.5t-44.5 -63.5q-39 -71 -59 -164.5t-20 -183.5q0 -26 6 -51t18 -47.5t34.5 -34t51.5 -6.5q23 4 43 22t31 35t24 43q39 78 61.5 170t23.5 178q1 27 -5.5 52t-19 46.5t-35.5 32t-53 4.5zM316 743q39 8 71 -4.5t52 -39t32.5 -58t17.5 -68.5 q13 -85 -11.5 -181t-74.5 -170q-60 -88 -133 -100q-39 -6 -71 7.5t-53.5 41.5t-34.5 60.5t-19 68.5q-9 58 1.5 129t37 137.5t75.5 116.5t110 60z" />
<glyph unicode="1" horiz-adv-x="480" d="M199 726l4 -4zM203 726q2 6 5.5 9.5t9.5 4.5t9.5 1.5t12 0t10.5 -0.5q27 0 76 2t65 2q-11 -76 -49 -219t-49 -210q-2 -10 -8.5 -32t-12 -39t-8.5 -38.5t3 -30.5q7 -16 31.5 -20.5t50 -8.5t34.5 -19l-203 -4q82 253 144 574z" />
<glyph unicode="2" horiz-adv-x="480" d="M137 589q24 107 105 143q36 18 74 13.5t69.5 -21.5t53 -49t25.5 -70q4 -34 -5 -67t-29 -64t-39 -53.5t-47 -50.5l-203 -203l265 13l47 15l-40 -63l-104 -4l-254 -8q4 16 23.5 34.5t46 38.5t35.5 29q8 8 43 42t49 48.5t42.5 47t43 54.5t30.5 53t23 60q21 84 -16 140 q-38 53 -93.5 48.5t-91.5 -56.5q-23 -33 -34 -78z" />
<glyph unicode="3" horiz-adv-x="480" d="M195 628q7 51 57 85t103 32q49 -2 75.5 -37.5t14.5 -83.5q-4 -21 -22 -47q-9 -12 -20.5 -25.5t-19.5 -21t-24.5 -22t-22.5 -20.5q33 -5 56.5 -23.5t33.5 -44t11.5 -56.5t-10.5 -60q-24 -68 -84 -117.5t-132 -62.5q-30 -3 -59 -3t-55 16t-35 46q24 3 50.5 -15.5 t35.5 -21.5q59 -21 141 35q26 19 51 51t40 69t6.5 73t-46.5 57q-13 7 -29 10t-26.5 2t-30 -3.5t-27.5 -2.5q5 13 14.5 21t27.5 16t24 11q60 36 86 81q13 22 14 48t-8.5 47t-32 33t-51.5 7q-21 -3 -38.5 -15t-36.5 -31t-31 -27z" />
<glyph unicode="4" horiz-adv-x="480" d="M74 362l4 -3zM398 687l-15 -12q-49 -38 -76 -60t-67.5 -59t-68.5 -74t-46 -77l148 4l50 3l25 64l40 153zM78 362q13 46 43 92t72.5 88t79.5 73t82 65q8 6 26.5 21t30 23.5t28.5 17.5t33 11l-86 -344l90 4q-2 -11 -5.5 -19.5t-11 -13.5t-12.5 -8t-16.5 -4.5t-17 -1.5 h-20.5h-19l-41 -171l-18 -65l-58 -14q9 108 62 250z" />
<glyph unicode="5" horiz-adv-x="480" d="M477 757l3 -4zM211 554l48 137l24 48l96 -5l98 19q-16 -43 -33.5 -54.5t-49 -7.5t-55.5 10t-49 -7q-7 -4 -13.5 -15t-9.5 -21t-7.5 -25.5t-5.5 -20.5q98 -28 143 -82q51 -65 38 -141t-62 -142t-111 -100q-80 -44 -164 -27q-15 3 -22 5t-17.5 8t-15.5 15q155 -36 257 63 q33 31 56 76t27.5 95t-23.5 90q-43 60 -149 82zM207 554l4 -4z" />
<glyph unicode="6" horiz-adv-x="480" d="M457 745v-4l31 -3zM285 466q-47 -7 -79 -43t-43 -81t-6 -93q5 -49 37 -82.5t79 -25.5q34 6 59.5 31.5t39 61t19 72t3.5 68.5q-3 47 -33 73t-76 19zM195 441q46 38 103 44t102 -26.5t55 -96.5q6 -38 -5.5 -79t-35 -74t-57 -56.5t-69.5 -32t-73.5 4.5t-68.5 50 q-22 28 -34 63q-24 75 -4 159t65.5 158.5t103.5 123.5q78 66 153 66q47 0 58 -15q-71 0 -136 -43t-105.5 -108.5t-51.5 -137.5z" />
<glyph unicode="7" horiz-adv-x="480" d="M148 632q2 5 8.5 23t12.5 32.5t14 31t17.5 24.5t18.5 6l-4 -15l301 7q-23 -53 -96 -198.5t-101 -230.5q-1 -2 -2 -6q-6 -17 -9 -27t-7.5 -29t-4.5 -32t2 -27.5t11 -24.5t23 -14q-7 -12 -18.5 -20t-23 -11t-22 3.5t-15.5 23.5q-9 26 8 82q65 222 200 453q-54 10 -121 11 t-121 -9q-13 -3 -24.5 -17.5t-22 -26t-24.5 -9.5z" />
<glyph unicode="8" horiz-adv-x="480" d="M320 499q46 25 67 51q22 26 30 55q7 25 4 50q-6 58 -59 68q-49 10 -92 -24q-44 -35 -34 -87q4 -21 22 -46q6 -9 14.5 -18.5t15 -16l17 -17zM273 452q-5 0 -11.5 -2.5t-15 -8t-12.5 -8.5t-13 -10.5t-10 -7.5q-29 -23 -48.5 -59.5t-24 -74.5t4 -71.5t39.5 -53.5t80 -16 q60 4 94 49t31 102t-40 99q-3 3 -11 12.5t-15 17t-15.5 16t-17 13t-15.5 3.5zM262 464q-48 47 -63 82t-10 70q7 51 47 87t92 42q62 6 99.5 -35t21.5 -101q-8 -29 -28 -55q-10 -14 -24 -25.5t-33 -24.5t-28 -20q41 -20 66.5 -54.5t32.5 -73t-1.5 -79.5t-30 -74.5t-57.5 -56 t-80 -26.5q-58 -4 -102.5 24t-59 74.5t3.5 104.5q16 47 59.5 84.5t94.5 56.5z" />
<glyph unicode="9" horiz-adv-x="480" d="M301 724q-34 -7 -59 -32.5t-37 -61t-17 -70.5t-4 -69q1 -45 30.5 -72.5t74.5 -19.5q46 9 77.5 46t42 83.5t3.5 91.5q-7 50 -35.5 81.5t-75.5 22.5zM86 128l31 -8zM383 425q-39 -31 -71 -39q-63 -18 -112 8.5t-68 80.5t-4 114q14 52 53 91.5t85.5 55.5t96 0t81.5 -69 q51 -87 11 -226q-15 -51 -38 -99t-57.5 -92t-75 -75t-92 -44t-106.5 -3q4 6 13 8t17 1t17 0q42 6 78 29q61 39 106 110t66 149z" />
<glyph unicode=":" horiz-adv-x="188" d="M86 206q26 4 28 -26q3 -33 -19 -53q-8 -7 -17 -9q-27 -6 -30 24q-3 32 19 54q9 8 19 10zM144 453q25 6 29 -23q4 -33 -18 -55q-8 -8 -18 -11q-29 -6 -30 25q-2 32 21 54q8 8 16 10z" />
<glyph unicode=";" horiz-adv-x="188" d="M20 -36l7 -12zM74 187q33 -11 47.5 -36.5t10.5 -55.5t-17.5 -60t-37.5 -52.5t-50 -30.5l-7 16q31 21 50.5 52t14.5 63.5t-46 48.5zM35 132l4 -4zM144 453q25 6 29 -23q4 -33 -18 -55q-8 -8 -18 -11q-29 -6 -30 25q-2 32 21 54q8 8 16 10z" />
<glyph unicode="&#x3c;" horiz-adv-x="667" d="M652 663q5 -11 5 -21t-3.5 -17.5t-10.5 -14t-15.5 -11t-19.5 -9t-20 -8t-20 -7t-17 -6.5q-16 -7 -167 -66t-224 -98q132 -51 379 -157q7 -3 35.5 -12t49.5 -18.5t28 -20.5q3 -5 4 -11.5t1 -12t-0.5 -14t-0.5 -11.5q-86 29 -241 98.5t-196 86.5l-27 9t-35.5 13t-31.5 15.5 t-24 22.5t-2 27q1 5 6 9.5t9.5 6t12 4.5t10.5 4l101 43q46 20 132 52.5t156 62t126 61.5z" />
<glyph unicode="=" horiz-adv-x="667" d="M98 312h558v-47h-558v47zM98 554h558v-47h-558v47z" />
<glyph unicode="&#x3e;" horiz-adv-x="667" d="M94 152l4 -4zM98 663q64 -25 130 -53t162 -70t130 -56l101 -43q2 -1 7.5 -3.5t8.5 -4t7.5 -4t7 -5.5t3.5 -7q4 -14 -3.5 -26t-24 -21t-31.5 -15t-35 -13t-26 -9l-277 -117q-15 -6 -49 -22t-60.5 -26.5t-50.5 -15.5q0 3 -0.5 10.5t-0.5 12.5t1 11.5t4 9.5q8 12 29 22 t51.5 19.5t36.5 11.5q285 114 375 156q-58 20 -121 46t-140.5 60t-117.5 51q-6 2 -35.5 11.5t-50 19.5t-27.5 21q-4 6 -5 13.5t0 21t1 14.5z" />
<glyph unicode="?" horiz-adv-x="323" d="M86 206q26 4 28 -26q3 -33 -19 -53q-8 -7 -17 -9q-27 -6 -30 24q-3 32 19 54q9 8 19 10zM156 632q1 38 24.5 59.5t54.5 22.5t62.5 -14.5t48.5 -44.5q26 -47 4.5 -124t-69.5 -103q-19 -11 -67 -22t-69 -26q-13 -9 -32 -49t-35 -43q0 114 94 152q13 5 42.5 12.5t50 17 t35.5 25.5q23 26 24 62t-19 65.5t-55 35.5q-22 4 -52 -10t-42 -16z" />
<glyph unicode="@" horiz-adv-x="979" d="M578 603q-36 -9 -69 -40t-56.5 -73.5t-39 -83.5t-24.5 -79q-6 -20 -4 -42.5t8 -41.5t24 -29.5t44 -5.5q49 9 92.5 56t68.5 102t33 106q5 21 3 46t-7.5 46.5t-24.5 33t-48 5.5zM1000 218q-10 -57 -50 -113.5t-91 -98.5q-63 -51 -141 -77t-156 -26.5t-154.5 23.5t-138 68.5 t-106.5 113.5t-60 153q-25 140 19 275t151 223q66 54 154.5 83.5t177.5 29t170.5 -41.5t128.5 -120q60 -105 52 -227t-75 -222q-33 -48 -79.5 -78.5t-102.5 -37.5q-66 -8 -91 23q-13 16 -14 37.5t2.5 46.5t1.5 40q-13 -27 -40.5 -57.5t-62.5 -53t-70 -33t-66.5 4.5t-48.5 57 q-14 45 -10 89.5t25.5 91.5t47.5 85.5t57 69.5q18 19 44.5 38t59 32.5t61 16t52.5 -15t33 -55.5h4q2 17 7.5 29t11.5 18.5t20 10.5t23.5 5t30.5 3q-48 -150 -91 -320q-1 -3 -8 -27t-8.5 -34.5t1 -27.5t13.5 -27q45 -39 140 57q64 66 88.5 163t3.5 189q-17 78 -70.5 135 t-123 81.5t-148.5 23t-148 -32.5q-103 -45 -173 -137.5t-95 -206.5q-29 -129 6.5 -253t136.5 -200q63 -48 144 -68t162 -8.5t154.5 45.5t129 96.5t78.5 141.5h31z" />
<glyph unicode="A" horiz-adv-x="552" d="M320 128v-4h125zM-4 128l4 -4zM398 632l-144 -234q48 -12 141 0l11 234h-8zM0 128q3 10 14 14t26 5.5t22 5.5q7 3 13 8.5t10 9.5t10.5 13t8.5 11.5t8.5 14t7.5 12.5q23 39 74 126.5t90.5 152.5t78.5 123q5 8 20 33t26 42.5t28 34.5t32 19q0 -215 -12 -391q-1 -6 -7 -54.5 t-5.5 -80t10.5 -52.5q7 -14 17.5 -20t24.5 -4t23.5 4.5t25.5 9.5q3 2 5 2q-1 -36 -55 -42q-29 -4 -95 -1t-96 0l4 24q30 1 48 15.5t24.5 40.5t8.5 50.5t2 58t3 49.5q-4 1 -36 4.5t-50 4.5t-42 -3t-34 -15q-15 -15 -27.5 -37.5t-27.5 -57.5t-19 -44q0 -1 -4.5 -9t-6 -11 t-5 -12t-2.5 -11.5t2 -10.5q6 -16 52 -16v-20z" />
<glyph unicode="B" horiz-adv-x="500" d="M293 710l-51 -226q9 -1 33 -2t36.5 -1t31.5 2t34 9.5t29 19.5q33 31 32.5 87.5t-36.5 85.5q-14 11 -34.5 17t-35.5 7t-39 1zM234 452q-2 -32 -17.5 -82t-26.5 -96.5t-6 -82.5q5 -34 44.5 -42t80 2.5t62.5 24.5q43 29 56.5 77t-3.5 96t-57 78q-49 36 -133 25zM129 738 q19 0 89 3.5t118 0.5t86 -18q54 -22 74 -75t-12 -103q-6 -9 -14 -17.5t-14.5 -14.5t-18 -13.5t-17 -10.5t-19.5 -11.5t-18 -10.5q48 -20 79.5 -62.5t39 -89t-14.5 -92.5t-73 -73q-26 -14 -59 -20t-51.5 -6t-64 3t-55.5 4q-33 1 -92 -1.5t-80 -2.5v24q1 0 11 -0.5t13 0 t12 0.5t13.5 1.5t11 3t11.5 4.5t9 7q9 9 15.5 23t9.5 25.5t7 30.5t5 26q13 51 33.5 146t27.5 123q2 8 7.5 26t10 35t8.5 35.5t3.5 34t-5.5 25.5q-4 6 -12 10t-18.5 5.5t-19 1.5t-20.5 -0.5t-16 -0.5v24z" />
<glyph unicode="C" horiz-adv-x="615" d="M594 257q-2 -3 -17 -43t-28 -52q-4 -4 -9.5 -7.5t-13 -7t-12.5 -5.5t-14.5 -5t-14 -4.5t-15.5 -4t-13.5 -3t-14.5 -3l-12 -2.5q-50 -12 -102 -5t-96.5 26t-79.5 57.5t-50 89.5q-27 89 5 196q26 83 91 148.5t152 96.5t173 18q48 -8 95.5 -24.5t60.5 -44.5q7 -14 -2 -55 t-9 -46l-23 -4q-1 48 -24.5 82.5t-60.5 50t-81 15.5t-84 -17q-92 -36 -152 -117.5t-73 -181.5q-11 -79 27 -154t112 -101q52 -15 101.5 -2.5t93.5 45.5q8 7 25 29.5t32.5 33t32.5 1.5z" />
<glyph unicode="D" horiz-adv-x="667" d="M297 710q-8 -57 -21.5 -119.5t-35 -145.5t-29.5 -118q-2 -8 -7 -26t-9 -33.5t-7.5 -33.5t-2.5 -33.5t6 -25.5q7 -11 24.5 -17t27 -6h30.5q50 -1 77.5 1t68 12.5t69.5 32.5q67 50 98.5 135t14.5 174t-81 143q-43 37 -97 48.5t-126 11.5zM90 714l4 -4zM94 738q28 0 88.5 2 t99.5 1.5t91 -4.5t96 -17t82 -35q67 -40 101 -110.5t31.5 -143.5t-39 -143.5t-101.5 -110.5q-54 -33 -119.5 -43t-153.5 -10h-270v28q4 0 21.5 -1t26 -0.5t21 4t20.5 10.5t14 16.5t10.5 22.5t6.5 22t5.5 25.5t4.5 21.5l56 257q19 85 24 122q1 1 2.5 10.5t1.5 13.5t-1 10.5 t-4 11.5q-7 9 -23.5 13t-30 4.5t-35.5 -0.5t-26 -1v24z" />
<glyph unicode="E" horiz-adv-x="469" d="M20 128v-4h378l-121 8zM102 718q0 11 7.5 17t20 7.5t23.5 1.5t26 -1.5t20 -1.5h317l-12 -97h-16l-17 60l-53 10h-117l-55 -230q9 0 30.5 -1t35.5 -1.5t32.5 2t30.5 9t19 21t14.5 25t25.5 11.5l-39 -156h-20q0 4 1.5 14t1.5 18t-3 14q-6 11 -25.5 15.5t-37.5 4t-43 -2 t-31 -1.5l-70 -297q17 0 50 -2t56 -3t53 2t51 11t39.5 27t27.5 47q11 -6 12 -24t-6 -37.5t-18.5 -35.5t-22.5 -18q-21 -4 -65.5 1t-55.5 5q-96 0 -289 -8l-4 24q1 0 14.5 0.5t18 0.5t16 1.5t17.5 3.5t14 5.5t13 8.5q14 13 22 33.5t14 54.5t7 40q9 34 23.5 102.5t28 122.5 t31.5 99h-8q0 2 3 12t4.5 14.5t3.5 14t2 15.5t-1 13.5t-4 11.5q-6 10 -22 14.5t-30 4.5t-35.5 -1t-25.5 -1z" />
<glyph unicode="F" horiz-adv-x="469" d="M125 714q3 11 11.5 17t20.5 7.5t22.5 1.5t25.5 -1t22 -1h312l-16 -86h-23q0 14 -3.5 24.5t-11.5 17t-14.5 10.5t-20.5 5l-21 1.5t-24 0t-22 -0.5h-12.5h-13.5t-12.5 -0.5t-13.5 -2t-11 -4t-11 -6.5q-4 -4 -8 -9.5t-6.5 -13t-4 -12.5t-3.5 -14.5t-3 -11.5 q-22 -77 -38 -152l129 5l59 38q-3 -10 -9.5 -36t-11.5 -44t-16 -35.5t-26 -21.5q11 42 -6 54t-64 12q-3 0 -14 1t-17.5 0.5t-15 -3t-12.5 -7.5q-6 -9 -10.5 -24t-7.5 -34t-5 -27q-6 -24 -21 -96t-26 -111l113 -3q-3 -10 -8 -15.5t-13.5 -7t-14.5 -2t-17.5 0t-16.5 0.5h-207 q6 17 25.5 22.5t41 11.5t30.5 25q10 18 16.5 41t13 55t9.5 44q6 26 19.5 76t23.5 90t17 77q3 15 7.5 45t7.5 44q0 2 1.5 9t2.5 11t1 9.5t-2 8.5q-3 6 -11.5 10t-22.5 5.5t-22.5 2t-24.5 0z" />
<glyph unicode="G" horiz-adv-x="615" d="M598 214q-3 -8 -7 -15t-11.5 -13.5t-12 -10.5t-16.5 -10l-15 -7.5t-17 -7.5t-15 -7q-53 -23 -111 -29t-116 8.5t-101 50.5q-50 41 -72 106.5t-15.5 132.5t33.5 131t71 107q56 57 136.5 83.5t162.5 18.5q132 -12 171 -55q9 -15 7.5 -40t-14 -50t-27.5 -26 q-1 54 -31.5 89.5t-75 47.5t-95 6.5t-91.5 -27.5q-53 -28 -93 -78t-60 -108.5t-19 -122.5t25 -119q21 -46 73 -84.5t110 -48t107 26.5q14 11 25.5 60.5t-1.5 60.5q-5 3 -13 4.5t-15 1t-18.5 -2.5t-17 -3t-17 -4t-12.5 -3q3 9 7 15t11 9t12 4t16.5 2.5t16.5 1.5 q14 3 71.5 12.5t88.5 13.5q-4 -16 -13 -22q-3 -3 -10 -6.5t-12 -7t-8 -8.5q-18 -24 -19 -56q-2 -31 27 -21z" />
<glyph unicode="H" horiz-adv-x="688" d="M227 738v-4h121zM133 718q2 8 6 12.5t11 6t12.5 2t15.5 0t13 -0.5h192l-4 -20q-55 0 -74 -17q-6 -5 -10.5 -11.5t-7.5 -15.5t-4.5 -14t-4 -17.5t-3.5 -14.5q-6 -26 -18 -80t-19 -80q40 0 119.5 -2t119.5 -2q4 0 26 -2t37.5 -1t24.5 7q4 3 7.5 10t4.5 13t2.5 15.5 t2.5 12.5q12 47 27 133q1 1 3 11.5t2.5 14t-0.5 11t-5 12.5q-4 7 -10.5 11t-15.5 5t-15.5 1.5t-18 0t-14.5 -0.5q1 8 5.5 12.5t11.5 6t12.5 2t15.5 0t14 -0.5h176v-20q-24 0 -42 -7.5t-28 -17t-18 -30t-11.5 -33.5t-8.5 -41q-10 -47 -31.5 -134.5t-36.5 -159t-20 -136.5 l90 -11l-4 -20h-246q3 14 21 20.5t38.5 14.5t28.5 24q20 40 36 124.5t28 117.5l-238 8l-89 -4l-22 -71l-41 -210l90 -8q-9 -15 -31.5 -17t-39.5 3q-21 3 -47.5 3t-41.5 -1t-50.5 -4t-43.5 -4q5 18 24 23t39 11t29 25q17 40 31.5 92.5t22 91.5t19 102.5t17.5 92.5q2 9 8 30 t10.5 36t7 36t-3.5 30q-3 7 -9 12t-12 7.5t-16.5 3.5t-15.5 1h-17h-13z" />
<glyph unicode="I" horiz-adv-x="313" d="M141 714q1 9 4.5 14.5t11 7.5t12 2.5t16 0t14.5 -0.5h188v-24h-11h-11.5t-11 -0.5t-12 -1.5t-10 -2.5t-10.5 -4t-8.5 -6.5t-7.5 -9q-9 -14 -14.5 -33.5t-10.5 -47t-7 -36.5l-65 -265q-1 -5 -6 -23t-7.5 -29.5t-5 -28t-2 -29.5t5.5 -23q9 -20 27.5 -25t37 0t37.5 5.5 t29 -7.5q-21 -12 -46 -16.5t-39.5 -5t-48.5 2t-45 3.5q-24 1 -66.5 -1.5t-58.5 -2.5l3 24q2 0 11 -0.5t12.5 0t11.5 0.5t12.5 1.5t10.5 3t11 4.5t9 7q11 11 18 27.5t13 47.5t6 34l65 265q2 9 7.5 27t9.5 33t7.5 32.5t3 33t-5.5 26.5q-3 5 -9 9t-12.5 6t-17 3.5t-16.5 1.5 h-17h-12zM137 714l4 -4z" />
<glyph unicode="J" horiz-adv-x="271" d="M117 738h238l-3 -20q-17 -1 -23.5 -2t-18.5 -5.5t-19 -12.5q-11 -12 -16.5 -27.5t-10.5 -42.5t-6 -31l-53 -231q-1 -8 -7.5 -28.5t-10.5 -34.5t-6.5 -34t3.5 -28q-7 -23 -20.5 -82.5t-23.5 -92.5t-32.5 -76.5t-52.5 -72.5q-25 -22 -61.5 -42.5t-59.5 -13.5q-22 7 -43 52 q12 1 40 -12t46 -5q12 5 23.5 14.5t19.5 18t16 24.5l12.5 25t10.5 29.5t8 27.5t7.5 29t6.5 25q24 99 81 356q4 15 11 53.5t14 66t16 51.5q-7 11 -6 21.5t4 27.5t0 25q-2 9 -8.5 14.5t-18 7.5t-19 2.5t-22 0t-16.5 -0.5v24z" />
<glyph unicode="K" horiz-adv-x="635" d="M504 741v-3h137zM70 128v-4h102zM523 128v-4h98zM453 741l188 -3v-16q-42 -8 -79.5 -31t-68 -53t-60 -60.5t-66 -59t-74.5 -42.5q57 -98 171 -227q22 -25 29.5 -33.5t27 -27t33 -25t35 -13t44.5 -6.5v-20l-94 4h-51l-71 74l-113 133l-70 94q-1 -38 -19 -107t-22 -96 q-14 -99 73 -71q-1 -11 -6 -17.5t-15.5 -9.5t-17.5 -3.5t-20 -0.5h-203l4 20q23 0 34 0.5t29.5 6t27.5 16.5t15.5 29t9.5 32t7.5 37t6.5 31l58 262q2 9 11 38t13.5 51.5t0.5 39.5q-7 28 -76 31v20h203v-16q-23 -5 -40 -25t-27 -52t-16 -59.5t-11 -64.5t-8 -49q14 10 52 37 t57.5 41t47.5 38.5t49 47.5l5 5q8 9 12.5 14t11.5 13.5t9.5 13.5t5.5 12t1 11t-6.5 8.5t-14 6.5t-23.5 2v19z" />
<glyph unicode="L" horiz-adv-x="458" d="M74 128v-4h160q-18 8 -46 9t-64.5 -2t-49.5 -3zM141 738h246l-4 -20q-65 -1 -80 -17q-11 -12 -17 -30.5t-11.5 -50t-6.5 -35.5q-6 -28 -21.5 -87t-25.5 -105.5t-15 -88.5q-1 -10 -6.5 -33t-10 -41.5t-3.5 -38.5t11 -30q3 -3 7.5 -5.5t8 -4t9.5 -3t9 -1.5t10.5 -1t8.5 -1 q100 -12 152 25q8 6 22.5 21.5t27.5 24t28 6.5l-56 -95l-119 -3h-297q3 16 23 20.5t43 9t31 21.5q9 17 14.5 38t11 50.5t7.5 40.5l57 258q2 7 6.5 22.5t8 29t6.5 29t2.5 29t-4.5 22.5q-4 8 -15 13t-19 6.5t-25 3t-18 1.5z" />
<glyph unicode="M" horiz-adv-x="698" d="M102 738q78 0 125 -7h12t16.5 -1t11.5 -4q10 -8 16 -29.5t10 -52.5t5 -35q7 -35 24.5 -105t29 -125.5t15.5 -105.5q14 13 25 31.5t25 48.5t18 37l115 219q3 6 17 38.5t26.5 54.5t26.5 31q12 9 37.5 10t59 -2t41.5 -3l-4 -20q-63 -3 -79 -24q-8 -10 -12.5 -25.5t-6 -28 t-3 -32t-2.5 -27.5q-3 -29 -9.5 -81t-11.5 -95t-11 -82q-1 -6 -10 -109q-1 -3 -2 -11t-1.5 -13t0.5 -11.5t3 -11.5q16 -28 90 -8q0 -14 -8.5 -21t-17 -8t-25.5 -2q-165 -4 -179 -4v24q18 1 31 8.5t20 16t12.5 24.5t7.5 26.5t4 30.5q1 7 2 11q10 70 24 198t20 173h-4 q-6 -20 -17 -42.5t-26.5 -49.5t-22.5 -41q-11 -23 -37 -77t-46.5 -93.5t-40.5 -75.5q-5 -8 -15.5 -37.5t-22.5 -50.5t-26 -25l-105 461h-4q-5 -60 -31.5 -169t-32.5 -156q-1 -7 -6 -25t-8 -32t-4.5 -31t4.5 -24q4 -8 16 -12t32 -6t22 -2l-12 -24l-191 4v24q3 0 17.5 -0.5 t21 -0.5t17 3t17.5 8q9 7 16 21t10 24t7.5 30t5.5 24q11 40 21 83.5t22.5 105.5t16.5 84q2 9 7 27t9 33.5t7 33t2 33t-7 26.5q-7 14 -27.5 21.5t-35 8.5t-37.5 1v20z" />
<glyph unicode="N" horiz-adv-x="625" d="M602 738v-4h54zM86 738l109 -4l49 -4l25 -43l52 -102l183 -347q3 65 36.5 184.5t40.5 162.5q1 9 9 36t10.5 41.5t-1.5 35.5q-2 5 -5.5 8.5t-9 5.5t-9.5 3.5t-12 2t-11 0.5h-11.5h-9.5l4 20h184v-20q-17 -1 -30.5 -5t-23 -8.5t-18 -15.5t-13 -16.5t-10 -22.5t-7.5 -23 t-7 -27t-6 -27q-5 -18 -22 -86t-24.5 -98.5t-20 -85t-20.5 -99t-13 -88.5q-13 2 -25.5 17.5t-20 31t-17 39t-12.5 30.5l-131 250q-6 11 -21.5 37.5t-26 47t-16.5 40.5h-4q-3 -46 -13 -94t-29.5 -122.5t-23.5 -92.5q-2 -7 -6.5 -22.5t-8 -27.5t-7 -29t-3 -27.5t3.5 -22.5 q2 -6 6 -10t10 -6.5t10.5 -4t13 -2t12.5 -1t13 0t11 0.5q-3 -8 -7.5 -12.5t-12 -6t-11.5 -2t-14.5 0t-13.5 0.5q-27 0 -80 -2t-80 -2l4 20q62 0 88 31q10 12 16 27.5t11 39t8 31.5q25 91 57 250q2 8 8.5 31.5t10 39.5t6 39t-3.5 31q-24 54 -119 54v20z" />
<glyph unicode="O" horiz-adv-x="667" d="M406 724q-62 -9 -112 -47.5t-79.5 -93t-42.5 -117.5t-7 -123q5 -56 30.5 -103.5t72 -76.5t103.5 -22q62 8 112.5 48t79.5 96.5t42 121t8 123.5q-6 57 -31 103t-71.5 72.5t-104.5 18.5zM402 748q63 9 118.5 -12.5t92 -63.5t55.5 -98.5t15 -117.5q-8 -125 -94.5 -222.5 t-209.5 -112.5q-70 -8 -129.5 16.5t-96.5 71.5t-53 110t-5 129q20 114 107 198.5t200 101.5z" />
<glyph unicode="P" horiz-adv-x="500" d="M121 722q2 10 13 15.5t27.5 6.5t32 0.5t33 -2t23.5 -1.5q34 0 59.5 -1t60 -5.5t60 -14.5t50 -26t39.5 -41.5t19 -59.5q9 -68 -38.5 -120.5t-116.5 -64.5q-17 -2 -44 -3t-50 9t-19 31q1 -1 10.5 -3t11.5 -2.5t10 -2t11 -2t10 -1t11 -0.5t10 0.5t11.5 1.5t11.5 3 q34 10 59 35.5t35 56.5t5 65.5t-27 62.5q-46 58 -138 59l-50 -207l-75 -352q37 -6 68.5 -6t67.5 10q-2 -36 -62 -39q-42 -2 -121.5 1t-105.5 3v20q55 2 72 24q9 12 16.5 31.5t11 34.5t8 40.5t6.5 33.5q5 25 29 117.5t31 143.5q2 10 7.5 30t9 35.5t5.5 35t-5 28.5 q-4 8 -12 12.5t-20 6t-20.5 2t-22.5 0t-18 -0.5z" />
<glyph unicode="Q" horiz-adv-x="667" d="M359 136q-8 -17 -24.5 -19t-33.5 3q-82 12 -137 67q-39 39 -57.5 95.5t-16 113.5t21.5 111q19 53 59.5 102.5t94 84t111 50.5t117.5 2.5t108 -59.5q29 -30 47 -63q24 -47 31 -97q9 -61 -5 -129q-17 -79 -74 -157q-23 -30 -52 -59t-53.5 -49t-63 -44.5t-61 -37.5 t-68 -38.5t-65.5 -36.5q22 -3 61.5 -16.5t55.5 -17.5q119 -27 235 -4q32 7 84 32t64 29l8 -15q-16 -9 -58 -34.5t-67 -35.5q-67 -27 -134.5 -29.5t-128.5 15t-128 53.5q-8 4 -62 -7q-57 -11 -59 10q-1 8 4 20q7 19 23.5 22t41 -2t33.5 -5q10 2 21.5 5.5t26 11.5t22 12.5 t24.5 16t19 12.5q123 78 196 178t91 233q7 50 -3 100t-41 92.5t-79 59.5q-65 21 -119 5.5t-95.5 -59.5t-68 -101.5t-37.5 -119.5t-4 -114q12 -80 64.5 -133.5t130.5 -53.5z" />
<glyph unicode="R" horiz-adv-x="531" d="M238 448q40 0 75.5 13t60 37.5t34 59t-1.5 78.5q-8 27 -45 56.5t-62 13.5q-6 -4 -9.5 -16t-6 -30t-3.5 -20q-3 -18 -18.5 -86t-23.5 -106zM129 718q2 10 12 15.5t25 6.5t28.5 0.5t29.5 -2t22 -1.5q126 0 184 -45q36 -28 46.5 -70.5t-7 -83t-55.5 -64.5t-102 -37 q47 -108 145 -258q7 -10 37.5 -31.5t32.5 -35.5q-91 0 -125 24q-9 6 -17 17.5t-12.5 21t-11.5 25t-10 22.5q-6 12 -51 88.5t-58 118.5h-8q-10 -39 -25.5 -112.5t-18.5 -86.5q-1 -3 -4.5 -15.5t-5 -21t-1.5 -18.5t4 -16q5 -6 17 -9.5t21.5 -3.5t25 1t19.5 1v-20h-258l4 20 q62 0 81 19q9 10 16 27t10 30t7 34.5t6 29.5l65 262q5 20 11.5 59t8.5 50q1 2 2.5 8.5t2 10t1 9t-0.5 10t-3 8.5q-4 4 -12 7.5t-20.5 4.5t-20.5 1.5t-22 0t-15 -0.5z" />
<glyph unicode="S" horiz-adv-x="375" d="M395 616q-16 79 -86 104q-42 14 -79 -13t-42 -71q-3 -32 7 -63.5t28.5 -56t40.5 -51.5t42.5 -50.5t35 -53t17.5 -59t-10 -68.5q-15 -42 -51.5 -70t-78 -40t-86.5 -12q-82 0 -95 36q-5 13 0.5 32.5t20.5 18.5q15 0 41 -25.5t37 -29.5q49 -18 100 20t59 89q4 31 -5.5 62 t-28 55t-40.5 50.5t-42.5 49.5t-35 52.5t-17 58.5t11.5 67q12 31 48.5 58.5t79 40t85 2.5t63.5 -47q5 -16 4.5 -26.5t-4.5 -31.5t-5 -28h-15z" />
<glyph unicode="T" horiz-adv-x="531" d="M109 659q1 2 2 11.5t1.5 15t2.5 15t4 16t5 12.5t7 8q11 9 36 10t58.5 -2.5t40.5 -3.5h371q-1 -4 -3 -17.5t-4 -22t-6 -19t-10.5 -16.5t-15.5 -7q-1 23 -14 37t-37 17.5t-44 4t-50 -1.5t-39 -2q-6 -73 -43.5 -212.5t-43.5 -166.5q-1 -8 -11 -45t-13.5 -62t0.5 -45 q5 -26 38 -31t65 2t51 17q5 -16 -8 -27t-29.5 -15t-32.5 -5q-42 -2 -90 -2t-106 1t-89 1q1 12 7 17.5t14 6t18 0.5t19 1q44 6 61 46q11 26 19.5 57.5t17 73.5t13.5 60q3 13 19.5 77t22.5 90t15 74t12 87l-156 -3z" />
<glyph unicode="U" horiz-adv-x="646" d="M141 738h230q-3 -14 -19 -19.5t-36 -9.5t-29 -15q-13 -16 -20.5 -41t-13.5 -60.5t-8 -46.5q-30 -119 -38 -180q-12 -84 13 -132q19 -38 58 -63t81.5 -27.5t81.5 22.5q31 23 54.5 58t38 80.5t24 84t19.5 91t16 78.5q2 8 9.5 32t11.5 39.5t7 39.5t-3 32q-1 5 -5 8t-9.5 4.5 l-11 3t-13 1.5h-12h-11.5h-9v20h187v-20q-3 0 -14 -1.5t-16.5 -2t-13.5 -3t-14 -6.5q-16 -10 -27.5 -32t-16 -41t-10.5 -49t-9 -41q-5 -22 -12.5 -60.5t-13.5 -68.5t-16.5 -69t-21.5 -68.5t-29 -60t-39.5 -50.5t-52.5 -33.5t-69 -15.5q-48 -1 -86 11q-43 14 -66 31 q-21 16 -35.5 36.5t-22.5 40.5t-10.5 47.5t-2 48t6 52t9.5 49t12 50t10 45.5l29 132q0 1 2.5 9t3 11t1.5 9.5t-0.5 11t-4.5 7.5q-6 6 -15.5 8.5t-16 3t-20.5 0t-16 -0.5z" />
<glyph unicode="V" horiz-adv-x="563" d="M191 738v-4h98zM117 738h231v-16q-14 0 -23.5 -1t-22 -3.5t-21.5 -9.5t-14 -17q-7 -14 -10.5 -37t-3.5 -38.5t0.5 -45t0.5 -36.5q0 -50 -2 -150t-2 -150h4q7 19 20 38t32.5 44t26.5 35l153 222q1 3 25.5 34.5t37 55t10.5 38.5q-2 7 -8 11t-16 5.5t-18 1.5t-19 -0.5 t-14 -0.5v20q96 -13 192 0q-2 -12 -12 -18t-25 -10t-22 -8q-8 -5 -15 -11t-14.5 -15.5t-11 -14t-11.5 -17.5t-10 -16l-270 -390q-4 -5 -26 -42.5t-41 -58.5t-38 -25q0 74 4 219.5t4 218.5q0 12 4.5 47.5t4.5 64t-10 43.5q-4 7 -13.5 10.5t-17.5 3.5t-22 -0.5t-17 -0.5v20z " />
<glyph unicode="W" horiz-adv-x="771" d="M445 741v-3h141q-17 6 -41 7t-56.5 -1.5t-43.5 -2.5zM754 741v-3h101zM121 741h219l-4 -19q-16 0 -28.5 -3t-20 -10t-12.5 -12.5t-7.5 -18l-4 -20t-2.5 -24.5t-2 -25q-5 -40 -7 -89.5t-2.5 -79t0 -94t0.5 -81.5h4q6 19 16.5 39t26.5 45.5t22 36.5l117 211l6 9 q10 18 15 27.5t12 25.5t6.5 25t-4.5 19t-17.5 14.5t-35.5 4.5l4 19h187v-19q-16 -1 -28 -8.5t-18 -15.5t-9.5 -23.5t-4.5 -25.5t-2 -29v-8q-12 -276 -12 -351q13 11 24.5 28.5t24 43t18.5 33.5q11 20 44 72t54 91t36 76q2 5 23 42t20 55q-1 7 -4.5 11.5t-12 6.5t-13 2.5 t-15.5 0l-11 -0.5l19 18l137 1v-19q-21 -1 -38 -10.5t-31.5 -27.5t-23.5 -32.5t-21.5 -39.5t-18.5 -35l-198 -336q-5 -8 -21 -41.5t-31 -55.5t-31 -32l19 524h-4q-26 -62 -59.5 -124.5t-88.5 -155t-70 -118.5q-3 -5 -20 -42.5t-33 -59t-33 -24.5q0 76 7.5 227t7.5 227 q0 3 3.5 41.5t1 64.5t-13.5 36q-4 4 -9.5 6.5t-13.5 3.5t-12 2t-14.5 1.5t-11.5 0.5v19z" />
<glyph unicode="X" horiz-adv-x="656" d="M0 152l4 -4zM117 738h145h97l-4 -20q-2 0 -13.5 0.5t-18 0.5t-15 -3t-12.5 -8q-2 -3 -2.5 -8t2 -11.5t4.5 -10.5t5.5 -10.5t4.5 -8.5q6 -13 20.5 -40.5t25 -49.5t19.5 -42l95 128q1 2 7.5 10.5t10 13.5t6 13t0.5 13q-1 5 -5 8t-11 4t-11 1.5t-12.5 0t-9.5 -0.5l4 20h196 q-3 -13 -22 -20t-45 -12.5t-35 -11.5q-39 -27 -81.5 -80.5t-67.5 -102.5q-7 -14 0.5 -36t27.5 -55.5l20 -33.5l82 -168q2 -4 7 -15.5t9 -18.5t10.5 -15t12.5 -11q7 -3 14 -4t16.5 0.5t14.5 2t17 4.5l13.5 4.5t13.5 5.5q0 -11 -4.5 -19t-15 -12t-17 -5.5t-21.5 -4.5 q-29 -4 -62 -4.5t-76 1t-61 1.5v20l8 -0.5t10.5 0t10 1t10.5 1.5t8 3.5t8 6t5 7.5q1 10 1.5 15.5t-3 16.5t-6 16.5t-7.5 16t-7 13.5q-13 30 -46 93.5t-47 98.5h-4q-16 -33 -40.5 -66.5t-59 -75.5t-49.5 -61q-2 -3 -9.5 -11.5t-12.5 -15t-11.5 -16.5t-7 -16t1.5 -14 q6 -10 20.5 -13t27 -0.5t31.5 7t23 4.5q-1 -4 -2 -7t-3.5 -5.5t-4 -4.5t-5 -3.5t-5 -2t-6.5 -1.5t-6.5 -1.5t-7.5 -1t-7 -0.5q-21 -3 -42 -4t-56.5 -0.5t-42.5 0.5q-3 0 -13 -0.5t-15.5 -0.5t-12.5 2t-11 6.5t-6 12.5q29 0 56.5 11.5t48 26.5t45 43t38 47t36.5 52.5t32 45.5 q4 6 22.5 26.5t29.5 37.5t12 30q0 12 -7 28t-19.5 36t-15.5 26q-5 11 -16.5 39t-20.5 48t-25 40.5t-33 27.5q-31 13 -66 9z" />
<glyph unicode="Y" horiz-adv-x="510" d="M113 738h211q-5 -15 -19.5 -19.5t-28.5 -8t-19 -16.5q-2 -15 -1.5 -21.5t6 -23.5t6.5 -21q2 -7 9 -41t10.5 -49t11.5 -39.5t17 -42.5q20 38 75.5 103t64.5 77q1 2 10.5 13.5t15.5 19.5t10.5 19t1.5 17q-1 5 -5.5 8t-12 4t-12 1.5t-13.5 0t-10 -0.5v20h168v-20 q-13 0 -25 -3t-23.5 -10t-19.5 -12.5t-19 -17.5t-16 -18t-16.5 -21t-15.5 -20q-12 -15 -47 -55t-57.5 -70.5t-38.5 -61.5q-6 -13 -11.5 -30t-8.5 -29t-7.5 -32.5t-7.5 -29.5q-23 -98 -25 -106q0 -1 -1.5 -7.5t-2 -9.5t-0.5 -8t1 -9t4 -7q9 -12 26 -14.5t46 1t31 4.5 q-2 -9 -7 -14.5t-14 -7.5t-15 -2.5t-18.5 0t-15.5 0.5q-36 0 -107.5 -2t-107.5 -2l4 20q4 0 16 -0.5t18 0t16 1.5t17.5 4t13.5 8q5 4 9 9t6.5 9.5t5 12l3.5 10.5t3.5 12.5t2.5 11.5q4 12 15 47.5t17 58.5t10.5 53t2.5 52q-3 26 -17.5 75t-16.5 58t-7.5 33t-8.5 35.5 t-10.5 29.5t-16.5 27t-24.5 17t-35.5 10v20z" />
<glyph unicode="Z" horiz-adv-x="531" d="M102 648l49 89l107 4h289l-131 -175l-295 -411q25 0 78 -0.5t84.5 -0.5t76.5 2.5t81 8.5q19 3 50.5 23.5t51.5 21.5q-2 -4 -8 -18.5t-10.5 -24t-12 -20.5t-14.5 -15q-12 -8 -36 -9t-55.5 2t-39.5 3h-351q18 37 45.5 75t67 86.5t55.5 69.5l257 355q-24 0 -77.5 4 t-96.5 3.5t-76 -8.5q-18 -5 -42.5 -34.5t-46.5 -30.5z" />
<glyph unicode="[" horiz-adv-x="354" d="M246 800h199l-4 -27h-171l-68 -332l-116 -559h172l-4 -27h-203q28 110 69.5 321t48.5 245q8 37 28 117.5t32.5 143t16.5 118.5z" />
<glyph unicode="\" horiz-adv-x="531" d="M66 870q4 0 12 0.5t13.5 0.5t12.5 -1t11 -4q6 -4 11.5 -13.5t11.5 -23.5t7 -17l65 -129l240 -485q8 -14 36 -62t44 -85t17 -67q-3 0 -11.5 -0.5t-14 -1t-12 1t-10.5 4.5q-7 4 -12.5 13.5t-11.5 23.5t-7 17l-65 129l-240 481q-7 14 -36.5 63t-45 86.5t-15.5 68.5z" />
<glyph unicode="]" horiz-adv-x="354" d="M152 800h200l-63 -305l-133 -640h-199l4 27h121l48 6l18 68l35 168l133 649h-168z" />
<glyph unicode="^" horiz-adv-x="458" d="M51 386q4 14 12.5 29t20 33.5t16.5 27.5l117 195l14 28t25 42.5t22 17.5q6 1 14 -5.5t15.5 -18t13.5 -22.5t12 -23t8 -15l119 -195q4 -7 18 -28t22 -36t12 -30l-53 6l-57 92l-121 207h-4l-121 -207l-57 -92z" />
<glyph unicode="_" horiz-adv-x="500" d="M0 54h500v-51h-500v51z" />
<glyph unicode="`" horiz-adv-x="333" d="M207 710l61 -4l27 -47l49 -109q-8 0 -14.5 2t-10.5 3.5t-9.5 7.5t-7 8t-8 11t-7.5 11q-7 10 -26.5 35t-32.5 44t-21 38z" />
<glyph unicode="a" horiz-adv-x="344" d="M277 448q-79 0 -118 -43.5t-56 -127.5q0 -3 -3.5 -16.5t-5 -22t-2.5 -21t1.5 -21.5t7.5 -15q2 -2 5 -3t6 -1t5.5 1t6 3t6 4t5.5 5t5 4.5t5 4.5l3 3q6 6 21.5 20.5t24 23t20 21.5t19 26t12.5 27q7 21 16.5 64.5t15.5 63.5zM234 269q-2 -3 -42 -51t-63 -70q-33 -31 -55 -26 q-21 5 -29 27t-4.5 52t9 53t12.5 42q20 57 55 104.5t82 69.5q10 5 22 8.5t21 6t25 5.5t22 3.5t25.5 3t21.5 2.5q-3 -13 -53 -242q-1 -3 -5 -18t-6.5 -25.5t-2.5 -23t4 -17.5q5 -4 9.5 -4.5t11 4t11.5 9t11 11t9.5 10.5t6.5 7l16 -8q-7 -12 -22 -29.5t-35 -33.5t-37.5 -17.5 t-29.5 18.5q-6 12 -6.5 30.5t2 32.5t8 36.5t6.5 29.5z" />
<glyph unicode="b" horiz-adv-x="323" d="M223 442q-99 -19 -120 -193q-3 -19 0 -39.5t15.5 -37.5t33.5 -15q38 5 67 40.5t41.5 78t12.5 79.5q0 13 -2 27.5t-7 30t-15.5 24t-25.5 5.5zM90 777l4 -4zM94 788l117 16q0 -60 -15 -129.5t-38.5 -153t-32.5 -127.5q15 10 37.5 33.5t44 41t43.5 24.5q21 6 36.5 -5t23 -32 t11 -41t3.5 -37q0 -58 -35 -116t-86 -99q-1 -1 -6.5 -6t-7 -6t-7.5 -5.5l-8 -6t-8.5 -5.5t-8.5 -4.5t-8.5 -4t-9 -3t-9 -1.5t-9.5 0q-26 3 -42.5 20.5t-21 40.5t-5.5 49t4 46q12 77 52.5 243.5t51.5 256.5h-66v11z" />
<glyph unicode="c" horiz-adv-x="250" d="M223 195q-42 -34 -67 -49q-57 -34 -90.5 -12.5t-22.5 88.5q7 38 17.5 74.5t28.5 77.5t45.5 71.5t60.5 41.5q23 7 59 -3q45 -13 14 -42q-11 -6 -18.5 -5.5t-22 4t-20.5 3.5q-48 1 -72 -58q-28 -69 -37 -164q-4 -47 19 -56q8 -1 13.5 -1.5t14.5 3t15 6.5t14.5 9t13.5 9.5 t12.5 9.5t10.5 8l12 -12v-3z" />
<glyph unicode="d" horiz-adv-x="354" d="M277 452q-147 0 -168 -175q0 -1 -2 -11.5t-2 -15t-1 -15t-0.5 -17t1 -14.5t3.5 -13.5t7 -9.5q21 -18 77 38l3 3q41 40 58.5 98t23.5 132zM266 773q10 27 122 27h7l-33 -176l-57 -293l-21 -113l4 -45l71 22q-20 -29 -51 -54.5t-54 -17.5q-19 7 -23 32t0 45.5t11 40.5 q-3 -2 -45 -42t-68 -56q-36 -23 -51 -20q-50 13 -16 150q11 45 30 83.5t46.5 70.5t66 50t84.5 18l51 278h-74z" />
<glyph unicode="e" horiz-adv-x="250" d="M113 323q9 4 17.5 9t22.5 13t24.5 15.5t22 18t16.5 20t7 20.5t-7 21q-11 13 -30.5 12.5t-31.5 -12.5q-5 -6 -10 -13t-8.5 -17t-6 -16t-5.5 -19t-4 -17t-3.5 -18.5t-3.5 -16.5zM234 206q-5 -4 -31.5 -24.5t-42.5 -31.5t-40 -21t-42 -8q-17 3 -26.5 15.5t-11 31.5t-1 34.5 t3.5 31.5q6 37 16.5 74t28.5 80t47 72t64 34q37 6 58 -18.5t5 -58.5q-22 -44 -102 -91q-5 -3 -17 -8.5t-20.5 -11t-13.5 -11.5q-8 -10 -13 -29.5t-6 -39.5t7 -36t24 -18q17 -1 34.5 6.5t41 23.5t30.5 20z" />
<glyph unicode="f" horiz-adv-x="240" d="M51 476q2 0 20.5 -1.5t30 0t17.5 7.5q10 9 16.5 42.5t8.5 37.5q34 89 102 130q47 28 86 21q13 -2 21 -12t3 -22q-6 -16 -28.5 -19.5t-50.5 -3.5t-39 -6q-59 -33 -62 -170h109l-4 -28h-113q0 -22 -3 -45.5t-9 -57t-8 -45.5q-1 -7 -3 -23q-7 -56 -12.5 -87t-17.5 -79.5 t-31 -86.5t-46 -68q-76 -86 -163 -96q-59 -8 -68 18q-4 13 5.5 21.5t23.5 9.5q16 2 47.5 4t47.5 4t38.5 13.5t40.5 33.5q36 44 55 109.5t22.5 123.5t11.5 131.5t22 119.5l-74 4z" />
<glyph unicode="g" d="M152 446q-21 -6 -34 -41.5t-12.5 -70t4.5 -57.5q6 -20 19.5 -35.5t30.5 -12.5q42 8 66 71q27 66 7 115t-81 31zM31 52q-47 -8 -58 -49.5t23 -73.5q47 -45 141 -27q22 4 42 18.5t28 34.5t-13 43q-12 12 -32 19.5t-46.5 13t-37.5 9.5q-3 1 -14 5.5t-18 6t-15 0.5zM121 206 q-40 17 -56 51t-9 71t27.5 72t49.5 58q63 49 105 32q34 -13 46 -47t4.5 -72t-25 -73.5t-37.5 -54.5q-8 -7 -16 -13t-18.5 -12.5t-17 -10t-20 -10.5t-17.5 -9q-63 -34 -61 -68q0 -12 10.5 -20.5t19 -11t23.5 -6.5q3 0 8 -2q22 -5 33.5 -8.5t29 -10.5t29.5 -17.5t21 -24.5 q18 -37 3 -70.5t-50 -49.5q-37 -18 -83.5 -26.5t-95.5 -2t-79 32.5q-26 23 -27.5 52.5t15 54.5t43.5 43t55 20q-2 12 -2 22t1 18.5t5 16.5t7.5 14t10.5 13t12 11.5t14.5 11t15 10l16.5 10.5q7 4 10 6z" />
<glyph unicode="h" horiz-adv-x="323" d="M141 386l4 -4zM102 765q8 25 115 27h6q-1 -73 -37.5 -209t-40.5 -197h3q12 25 32.5 49.5t45 41.5t49.5 10.5t41 -42.5q18 -34 14 -81.5t-16.5 -87.5t-31.5 -78q-28 -55 -59 -71q-19 -11 -38.5 -1t-9.5 33q4 11 14 17.5t24.5 11.5t20.5 9q28 19 45 64q30 85 -2 141 q-7 12 -17 21.5t-23 13.5t-26 -6q-30 -22 -52.5 -58t-36 -84t-20 -82.5t-12.5 -82.5h-51l133 633z" />
<glyph unicode="i" horiz-adv-x="208" d="M164 585q5 22 8 32t10.5 23t19 18t28.5 5q-2 -7 -6.5 -25t-7 -23.5t-9 -14.5t-17 -12t-26.5 -3zM59 402q6 6 20 22t23 24q63 59 81 37q6 -6 5.5 -19t-3 -23t-8 -26.5t-5.5 -18.5q-5 -20 -20 -70.5t-23 -88.5t-8 -72l63 55h4l11 -12q-12 -17 -39 -43l-3 -3 q-51 -52 -74 -39q-5 3 -8 7t-4 9.5t-1.5 11t0 13t1 12t2 11.5t1.5 9q5 29 13 63t13.5 57t16.5 64.5t16 58.5q-8 -5 -22.5 -19t-27 -21.5t-24.5 -2.5v4z" />
<glyph unicode="j" horiz-adv-x="198" d="M176 585q6 40 18 59t44 19q0 -2 -3 -15t-4 -15.5t-4 -12.5t-5 -12.5t-7 -9t-10 -8t-12.5 -3.5t-16.5 -2zM172 585l4 -4zM47 374q26 45 65 79.5t83 37.5q4 -24 0 -51.5t-14 -65.5t-13 -51q-5 -22 -12 -63.5t-12.5 -71t-14.5 -69.5t-20 -71t-26.5 -63.5t-37.5 -58.5 t-49 -45q-24 -17 -48 -12.5t-31.5 24t5.5 48.5q4 -4 12 -12.5t15.5 -14t15.5 -6.5q14 -3 27 5t21.5 19.5t17 31t12 29.5t8.5 26q61 196 90 422q-7 -4 -40.5 -34.5t-53.5 -32.5z" />
<glyph unicode="k" horiz-adv-x="333" d="M43 124l4 -4zM145 347q35 -8 70 2.5t52 37.5t-1 69q-36 -12 -68 -42t-53 -67zM113 769l4 -4zM117 784l117 12q-2 -60 -16 -129.5t-35.5 -152.5t-30.5 -128q3 2 12 11.5t12.5 12.5t11.5 11.5t12.5 12t12.5 10.5t13.5 11t13 9.5t14.5 9.5q32 21 46 17q21 -5 24.5 -31.5 t-3.5 -53t-17 -40.5q-12 -18 -36 -27t-41 -10.5t-47 -1.5l90 -152l50 -59l-76 8l-32 55l-75 141h-4l-28 -141l-14 -51l-44 -4l31 160l70 336l28 149h-59v15z" />
<glyph unicode="l" horiz-adv-x="198" d="M230 804l4 -4zM113 788l117 16q4 -12 4 -26.5t-2.5 -31t-5 -29.5t-7 -31t-6.5 -27l-65 -320q-2 -9 -7.5 -26.5t-10 -34.5t-8 -35t-3.5 -34t6 -25q9 -16 41.5 4t48.5 38h4q-1 -9 -4 -17t-10 -16t-12 -13.5t-16.5 -13.5t-16 -11t-17 -11t-14.5 -9q-16 -13 -33.5 -11 t-23.5 24q-3 12 -3.5 26.5t2 30.5t5.5 29.5t7.5 31t6.5 26.5l65 317l22 113q1 1 3 10t2.5 13.5t-0.5 11t-5 9.5q-6 6 -17.5 7.5t-30 0.5t-20.5 -1z" />
<glyph unicode="m" horiz-adv-x="573" d="M27 382q78 77 82 82q29 26 43 25q37 -3 6 -110q-1 -3 -2 -5q4 3 19 15.5t20 16.5t18.5 14.5t21 15.5t19 13t22 14t21.5 12l5 2.5l7 3.5l7 3.5t7.5 3t7 2t7.5 1t6.5 -1t6.5 -2.5t5 -5q7 -8 8.5 -22.5t-1.5 -27.5t-7 -30t-4 -24q33 29 70 55q20 15 47 31q47 29 67 14.5 t8 -69.5l-32 -152q0 -5 -4 -20.5t-4.5 -20.5t-1.5 -20.5t2 -20.5l58 39q-7 -23 -27 -46.5t-43 -37.5q-12 -8 -26.5 -6.5t-18.5 16.5q-2 6 -2.5 13t0.5 15.5t2 13.5t3.5 15t3.5 13l29 141q1 3 4.5 18t6 25.5t2 22.5t-6.5 17q-18 17 -91 -43q-20 -17 -36 -43.5t-25 -49 t-17.5 -61t-11 -56t-7.5 -57.5h-47q3 27 26 129l16 82q1 5 5.5 22t7.5 30t3 27.5t-6 20.5q-11 12 -44 -8q-66 -39 -95 -80q-24 -33 -37.5 -111t-20.5 -96q-2 -6 -5.5 -10t-10 -5t-11 -1.5t-13 0t-10.5 0.5q2 10 10.5 42t12 46t10.5 43.5t10.5 48t8 43.5t7 47t3.5 43l-86 -71 l-8 12v4z" />
<glyph unicode="n" horiz-adv-x="396" d="M51 405q5 6 18.5 19.5l21 21t19.5 18t23 16.5q28 18 39 5q9 -9 9 -29t-5.5 -39.5t-12 -42t-7.5 -31.5q6 6 31 33t40 41q21 20 46 38q3 2 11 8t13.5 9.5t14.5 8.5t15.5 7t14 1.5t13 -4.5t9 -11.5t4.5 -13.5t0 -17t-2 -16t-3.5 -16.5t-2.5 -12.5q-4 -24 -16 -73t-19 -88 t-9 -74l59 51h4l8 -8v-4q-5 -5 -20 -21.5t-23 -25.5q-18 -17 -36.5 -25.5t-31.5 1t-10 40.5q3 28 10 59.5t16.5 69.5t13.5 59q11 55 0 68q-5 6 -11.5 7t-14 -2t-14 -6.5t-15 -11.5t-13 -12t-12 -12l-7.5 -8q-16 -16 -29 -34.5t-21.5 -30.5t-18 -37.5t-13 -33.5t-11 -41 t-8 -37t-9.5 -44h-50q3 11 16.5 59t19 70t15 60.5t14 70t5.5 61.5l-70 -55l-8 12v3z" />
<glyph unicode="o" horiz-adv-x="313" d="M164 446q-25 -7 -43 -52q-36 -83 -8 -172q10 -30 32 -47.5t50 -9.5q24 6 46 53q20 42 24 87t-11 89q-12 28 -37 44t-53 8zM195 489q42 10 72 -22.5t38 -76.5q11 -56 -10 -117.5t-61 -105.5q-1 -1 -8.5 -9.5t-11 -11.5t-10 -9.5t-12.5 -9.5t-12 -5q-34 -9 -62.5 8.5 t-43.5 46t-20 61.5q-8 45 7 99t51.5 98t82.5 54z" />
<glyph unicode="p" horiz-adv-x="333" d="M238 442q-22 -3 -39 -14.5t-27 -24.5t-17.5 -36t-10.5 -38t-7 -42t-7 -38q-3 -17 -4.5 -27t-1.5 -26t5 -24.5t16.5 -15t30.5 -4.5q29 2 51 25.5t33.5 59t17 65.5t7.5 60q1 14 0 27t-5.5 26.5t-15 21t-26.5 5.5zM164 425l4 -4zM31 382q28 63 94 109q40 29 51 14 q5 -6 5 -17.5t-2.5 -21.5t-6 -22.5t-4.5 -18.5q4 2 42 32.5t60 31.5q23 2 39 -20t21.5 -47.5t5.5 -47.5q-1 -44 -18 -93t-47 -90.5t-72 -58.5t-94 4q-2 -24 -7.5 -51.5t-14.5 -61.5t-13 -51q-12 -54 -1 -70q7 -10 23 -14.5t24 -5t29 -0.5v-16h-196v16q19 2 32 9.5t20.5 16 t13 23t7.5 26t5 31t6 31.5q8 38 31.5 130.5t37.5 162.5t19 133z" />
<glyph unicode="q" horiz-adv-x="323" d="M266 445q-79 -7 -117 -48.5t-53 -123.5q0 -2 -2.5 -13.5t-3.5 -17.5t-2 -18t-0.5 -19.5t2.5 -15t7 -12.5q4 -4 9.5 -5t12.5 1.5t13 5.5t13.5 9t12 9.5t11 9t7.5 6.5q3 3 12.5 10.5t15 12t12 12t11.5 13.5q28 45 39 184zM223 234q-41 -39 -71 -62q-1 -1 -7 -6t-9.5 -8 t-10 -7.5t-11 -7.5t-11 -7t-12 -6t-11.5 -3.5t-11.5 -1.5t-9.5 2q-41 15 -16 126q17 68 54.5 123.5t93.5 87.5q16 9 38.5 17.5t50 12.5t38.5 -9q6 -6 7 -19t-2.5 -29t-7 -31t-8 -30.5t-5.5 -20.5l-75 -360q-1 -8 -5.5 -25t-7 -27t-3 -23.5t3.5 -21.5t14.5 -14t28.5 -6 q-3 -7 -8.5 -10.5t-10.5 -3.5t-14.5 1t-13.5 1h-141v12q1 0 12 0.5t15 0.5t13 1.5t14.5 3t11.5 4.5t10 7q9 10 14.5 26.5t9 42.5t4.5 31z" />
<glyph unicode="r" horiz-adv-x="302" d="M176 335v-12h4zM172 495q21 -16 24 -42t-6.5 -67t-9.5 -51h4q11 40 37 82.5t56 63.5q14 7 31 7.5t28.5 -10.5t4.5 -30q-5 -16 -22.5 -21t-39 -9t-32.5 -16q-45 -52 -74.5 -127t-35.5 -147h-47q3 41 22 116.5t23 98.5q0 2 2.5 11.5t4 17t2.5 17t-1.5 16t-7.5 8.5 q-6 3 -15.5 -1.5t-20 -14t-19 -18.5t-18 -19.5t-11.5 -12.5h-4l-8 8v4z" />
<glyph unicode="s" horiz-adv-x="250" d="M59 210q9 -31 31.5 -44t47.5 -3t40 39q13 26 -20 67q-6 8 -22.5 25t-25.5 28t-17 29t-7 35q2 40 34 67t75 38q61 14 67 -15q3 -15 -3.5 -29.5t-20.5 -13.5q-8 0 -23.5 4t-28 6.5t-25.5 2t-22 -9.5t-12 -27q-2 -10 4 -23t12.5 -21t20 -22t15.5 -16q25 -27 35.5 -56 t3.5 -59.5t-34 -56.5q-21 -18 -51 -28q-44 -14 -81 7q-38 22 -13 56q7 10 20 20z" />
<glyph unicode="t" horiz-adv-x="219" d="M152 573l51 8l-23 -101h74q-3 -11 -9 -17.5t-15.5 -9t-17 -2.5t-21 0.5t-19.5 0.5l-55 -285l67 63l19 -8q-23 -31 -43 -51q-49 -49 -76 -45q-20 3 -18 41q1 10 5 31q9 47 29.5 132.5t28.5 121.5h-51l4 24q62 5 70 97z" />
<glyph unicode="u" horiz-adv-x="406" d="M27 362q11 25 46 67q20 23 32 34q14 11 27.5 18.5t26.5 9t19.5 -9t4.5 -33.5q-3 -33 -18 -96t-17 -75q-1 -1 -2.5 -9t-2.5 -14.5t-2.5 -16t-1.5 -16.5t0.5 -13.5t4 -9.5t8.5 -1q8 2 16.5 9t13.5 12.5t14 17t11 13.5q63 76 108 160q4 8 10 21.5t10.5 21.5t11.5 17 t16.5 14.5t23.5 7.5q0 -34 -6.5 -69.5t-20.5 -88.5t-18 -68q0 -3 -3 -14t-5 -19.5t-4 -19.5t-1.5 -19t3.5 -12q15 -21 63 41l15 -4q-9 -24 -32.5 -47.5t-49.5 -39.5q-14 -10 -29.5 -6t-19.5 23q-1 15 -0.5 21.5t4.5 23t5 21.5q21 121 32 164h-4q-47 -110 -152 -215 q-5 -5 -10 -9.5t-14 -12t-17 -12t-16.5 -7.5t-15.5 -0.5t-11 10.5q-3 7 -4 16t0.5 20t2.5 18.5t4 19.5l4 16q3 19 16 65.5t19 83t3 66.5z" />
<glyph unicode="v" horiz-adv-x="344" d="M39 398q1 1 11.5 20.5t17.5 29.5t19 24.5t24.5 19.5t25.5 1q8 -3 14 -13.5t8 -18.5t4.5 -25t2.5 -19q4 -20 15.5 -71.5t17.5 -89.5t8 -73q41 28 72 77t33 95q1 12 -7.5 34.5t-16.5 39.5t-5 34t22 24q16 6 26.5 -6t13 -32.5t3.5 -40.5t-2 -30q-15 -103 -104 -203 q-2 -2 -8 -8.5t-8 -9t-8 -8.5t-9.5 -8.5t-9 -7t-10 -6.5t-10 -4t-11.5 -3q-3 23 -40 246q-1 3 -2.5 18t-3 25.5t-6 21t-11.5 12.5q-7 1 -13.5 -2.5t-13 -11.5t-11 -15t-10 -16t-6.5 -12l-12 8v4z" />
<glyph unicode="w" horiz-adv-x="563" d="M51 374q-9 7 -8.5 21t9.5 31.5t21.5 33t27 25.5t24.5 8q7 -1 13 -7t9.5 -16t5.5 -18t4 -19.5t3 -15.5q5 -24 14.5 -73.5t18.5 -88.5t22 -72l111 176l-12 89l34 47h4l78 -308q9 19 52.5 77t52.5 98q5 21 -1 33.5t-17.5 24.5t-14.5 25q0 4 -0.5 6.5t2 8t3.5 8t5 8t5.5 7.5 t5 6.5t4.5 5.5h4q25 -20 36 -45t7.5 -52t-11 -51.5t-26.5 -54t-32 -47.5t-33 -43q-3 -3 -17 -21.5t-21.5 -27t-21 -19t-25.5 -14.5l-47 211q-45 -72 -106 -156q-2 -3 -9 -13t-11 -15t-10.5 -11.5t-13 -10.5t-14.5 -5q-5 35 -13.5 73.5t-20 85t-16.5 72.5q-1 3 -3 17.5t-4 25 t-7 21.5t-12 14t-14.5 -2t-15.5 -17.5t-11 -18.5t-8 -17z" />
<glyph unicode="x" horiz-adv-x="469" d="M168 495q26 -15 46 -40.5t40.5 -60t34.5 -51.5q22 47 62 94t79 53q20 4 35.5 -9.5t15.5 -31t-16 -32.5q-17 27 -40 25t-48.5 -24.5t-44.5 -47t-27 -42.5l-1.5 -9t2 -9t4.5 -9t5.5 -9t4.5 -8q2 -3 15.5 -27.5t21 -37t22 -27.5t27.5 -18q10 -2 20 1.5t22 12t17 10.5l8 -15 q-4 -3 -24.5 -21t-36.5 -28.5t-29 -9.5q-15 0 -42 31q-50 58 -71 118q-21 -17 -45 -50t-48.5 -59.5t-55.5 -37.5q-43 -15 -74.5 9t-11.5 67q6 -4 15.5 -12.5t18 -14.5t17.5 -9q17 -5 34.5 0t36 21.5t26.5 25t25 28.5q1 1 14.5 15.5t20 24.5t5.5 19q0 32 -69 109 q-20 22 -31 23q-7 0 -16 -5.5t-15.5 -11.5t-15.5 -16t-11 -13h-4l-12 8q4 7 9 14.5t9.5 13.5t12 14t11.5 12t13.5 13t12 11.5t14 12t12.5 10.5z" />
<glyph unicode="y" horiz-adv-x="354" d="M47 347q-9 7 -9.5 20t4 25.5t13.5 27.5t16.5 25t15.5 19q23 27 38 24q6 -1 12.5 -6.5t10.5 -11t9 -15.5t7 -16t6 -17t5 -13q16 -46 30 -134.5t25 -126.5q9 27 34 73.5t40 88t12 80.5q-2 23 -16 32q-2 2 -9 3.5t-11.5 4t-5.5 7.5q-1 14 17 33t33 19q12 0 18 -15t6 -37.5 t-1.5 -38.5t-3.5 -28q-26 -150 -155 -324q-44 -59 -84.5 -101.5t-87.5 -65.5q-37 -17 -74 -5q-39 12 -15 46q4 6 11 13h3q20 -16 41 -19t41 6t36 21t35 31q82 81 92 152q2 12 2 25t-1.5 28t-3.5 26t-6.5 28t-6.5 25.5t-7.5 27.5t-7.5 24q-1 2 -5.5 20.5t-8 30t-10 27.5 t-14 25.5t-16.5 11.5q-16 5 -31.5 -23.5t-22.5 -52.5z" />
<glyph unicode="z" horiz-adv-x="344" d="M98 183l4 -4zM125 374q-24 25 31 82q25 26 56 31.5t56.5 -1.5t57.5 -6.5t57 15.5q4 -13 -2 -27t-13.5 -22t-23.5 -22.5t-20 -18.5l-222 -222q26 5 76.5 -7t75.5 -8q29 5 70 46h4l12 -16q-9 -7 -33 -29t-42.5 -33t-41.5 -15q-25 -3 -70.5 8.5t-66.5 10.5 q-14 -1 -40.5 -10.5t-41.5 -9.5l105 110l203 203q-18 0 -45.5 5.5t-44.5 8.5t-38 -5t-39 -33q-11 -16 -20 -35z" />
<glyph unicode="{" horiz-adv-x="510" d="M148 335q33 7 51 17q30 15 44.5 38t15 50.5t-3.5 54t-9 59t-4 55.5q5 67 57.5 114.5t122.5 56.5q-2 -11 -10.5 -17.5t-23.5 -12t-21 -9.5q-39 -21 -55 -66q-3 -10 -3 -23t1 -21t4.5 -24.5t4.5 -21.5q0 -3 2 -11q5 -31 7 -47.5t1.5 -42t-8 -46t-23.5 -40.5 q-18 -23 -44 -40q-33 -23 -66 -31v-4q33 -8 66 -30q25 -17 44 -40q20 -25 27 -56.5t5 -56.5t-9 -63q-1 -5 -5 -23.5t-5.5 -27.5t-1.5 -24t3 -26q15 -46 59 -69q5 -3 19.5 -8.5t22 -11.5t9.5 -17q-70 9 -122.5 56.5t-57.5 115.5q-1 23 4 55.5t9 59t3.5 54t-15 50.5t-44.5 38 q-19 10 -51 17v19z" />
<glyph unicode="|" horiz-adv-x="531" d="M277 878h51v-1000h-51v1000z" />
<glyph unicode="}" horiz-adv-x="510" d="M148 780q73 -14 124.5 -58.5t58.5 -112.5q3 -27 -4 -69.5t-11.5 -72.5t7.5 -62.5t48 -52.5q17 -10 51 -17v-19q-34 -8 -51 -17q-35 -20 -47.5 -51.5t-8.5 -60t11 -70.5t6 -67q-3 -70 -57.5 -120t-126.5 -60v20q27 4 47 15q37 20 50.5 53.5t9.5 64t-11 75t-6 69.5 q3 55 46 99t99 57v4q-56 14 -99 58t-46 99q-1 24 6 69t11 75.5t-9.5 64t-50.5 52.5q-22 12 -47 16v19z" />
<glyph unicode="~" horiz-adv-x="667" d="M105 335q0 37 14 67q13 32 34.5 50.5t48 22.5t54 1t60 -14t58.5 -22t57 -25t49 -20q59 -22 103.5 0t57.5 85h23q-1 -35 -13.5 -66.5t-33 -50t-46.5 -23t-52 -3t-58.5 12.5t-56.5 20.5t-56 23.5t-47 20q-50 19 -78 19q-24 -1 -44 -15t-33 -36q-3 -6 -8.5 -20.5t-12 -20 t-20.5 -6.5z" />
<glyph unicode="&#xa0;" horiz-adv-x="240" d="M0 132l4 -4z" />
<glyph unicode="&#xa1;" horiz-adv-x="167" d="M-16 -134q12 55 44.5 162.5t43.5 162.5q1 4 3.5 21t5.5 27.5t7.5 24.5t12 22.5t16.5 9.5q-2 -49 -23 -141t-26 -132q0 -6 -1.5 -42t-6 -59.5t-13.5 -37.5q-9 -13 -63 -18zM137 504q28 10 32 -21q5 -32 -16 -55q-7 -9 -16 -12q-28 -8 -32 24q-4 33 18 55q6 6 14 9z" />
<glyph unicode="&#xa2;" horiz-adv-x="292" d="M160 327l102 285q-19 0 -35 -7t-26.5 -16.5t-20 -27.5t-14.5 -30.5t-10.5 -37t-7 -34.5t-5.5 -34q-1 -3 -3 -14.5t-2.5 -16.5l-1.5 -15t0.5 -16t3.5 -13.5t7.5 -13t12.5 -9.5zM312 745l20 -7l-31 -83q23 -6 36 -26q13 -19 -14 -29q-9 -1 -13.5 -1t-14.5 2.5l-14 3.5 q-8 -55 -50.5 -160.5t-46.5 -117.5l86 43h3l12 -15l-114 -68l-58 -151l-19 4l54 148q-45 0 -57 26t-5 76q9 63 34 123.5t65 102.5q15 17 47.5 28.5t43.5 18.5q9 6 15.5 20.5t13 36t7.5 25.5z" />
<glyph unicode="&#xa3;" horiz-adv-x="490" d="M105 460q14 -5 34 -8t41.5 -1t31.5 12q8 8 12.5 23.5t7 39t2.5 28.5q20 102 78 145q32 24 70 37.5t71 6.5q10 -1 37 -15t45 -10l4 -12q-3 -2 -15 -13t-21.5 -17.5t-18.5 -6.5q-12 0 -24.5 8.5t-22 19t-24 17t-30.5 2.5q-25 -6 -43 -26.5t-28 -53.5t-16 -60t-11 -65.5 t-8 -50.5l203 12q0 -11 -3 -17.5t-10 -9.5t-12 -3.5t-16.5 -0.5t-16.5 -1q-107 -7 -152 -7q-4 -76 -32 -136.5t-82 -117.5q24 1 64 -2t70.5 -4.5t64.5 1.5t62.5 17.5t47.5 42.5l15 -8v-4q-4 -6 -18.5 -25t-23.5 -30.5t-23.5 -24t-27.5 -16.5q-8 -3 -24.5 -2.5t-26.5 2 t-26.5 4.5t-24.5 4q-132 18 -195 -22h-4l-8 12l87 106l46 203l-117 -4z" />
<glyph unicode="&#xa4;" horiz-adv-x="729" d="M402 654q-39 -6 -74 -29q-39 -25 -59.5 -63t-21.5 -77.5t13.5 -79t41.5 -68.5t68 -43.5t87 -7.5q38 6 68 23.5t47 42t27.5 54.5t9 61t-9 61t-26 55t-42.5 43.5t-57.5 26t-71.5 1.5zM219 714l66 -56l59 28l101 16l86 -24l43 -20l63 56h4l31 -35q-1 -1 -9.5 -7.5 t-12.5 -9.5t-12 -10t-12.5 -11.5t-8.5 -10.5t-5 -11q-1 -8 5 -19.5t15 -24t11 -17.5q21 -46 17 -110q-3 -43 -26 -86q-2 -3 -8.5 -11.5t-10.5 -16t-3 -12.5q4 -22 60 -61l-31 -35h-4q-4 3 -17 19t-24.5 25.5t-21.5 11.5q-6 1 -12.5 -2t-15 -9t-11.5 -7q-35 -19 -74 -25 q-61 -9 -113 14q-6 2 -19 10.5t-24.5 14t-19.5 4.5q-10 -2 -21 -11.5t-24.5 -25.5t-16.5 -19h-4l-31 35l9 6.5t13 9.5t12 10t12 12t8 11t5 11q1 6 -3.5 13.5t-11 16t-8.5 11.5q-27 48 -29 90q-2 63 21 110q2 4 11 16t15 22.5t5 17.5q-1 9 -12.5 20.5t-27.5 24t-19 16.5v4z " />
<glyph unicode="&#xa5;" horiz-adv-x="521" d="M74 312l4 -4zM121 738h207q-1 -14 -10 -19.5t-19.5 -6t-20.5 -5.5t-13 -16v-22t5 -23.5t6 -21.5q4 -18 22.5 -77t21.5 -91h4q15 29 38.5 59.5t55.5 66.5t46 54q1 2 8.5 10.5t12 14.5t10 15t7.5 16.5t0 12.5t-6.5 8.5t-12 4t-13.5 1t-14.5 0t-10.5 -0.5l4 20h168v-20 q-20 0 -36 -5.5t-31.5 -19.5t-23.5 -23t-25 -30q-16 -19 -46 -58t-55 -69.5t-48 -56.5h164q-7 -21 -28.5 -27.5t-47 -2.5t-52.5 5t-43 -4q-11 -5 -18 -21t-12 -39t-6 -28h187l-13 -25l-53 -2h-129q-3 -22 -12 -60.5t-11 -49.5q0 -1 -1 -6t-1.5 -7t-1 -6.5t0 -7t1 -6 t2.5 -6.5l4 -6q11 -9 27.5 -11t43 1.5t30.5 4.5q-3 -9 -8 -14.5t-13.5 -7.5t-14.5 -2.5t-18.5 0t-16.5 0.5q-35 0 -107 -2t-107 -2q2 14 12.5 19.5t23 5t27 2t22.5 9.5q36 33 47 152h-152q1 19 20 26t43.5 3.5t49.5 -4t39 3.5q9 5 15 21t10 38.5t7 28.5h-172l4 27h156 l-44 164l-28 81l-57 17v20z" />
<glyph unicode="&#xa6;" horiz-adv-x="531" d="M277 304h51v-352h-51v352zM277 804h51v-352h-51v352z" />
<glyph unicode="&#xa7;" horiz-adv-x="396" d="M176 530q-17 -12 -28.5 -28t-18 -30.5t-7 -35t0 -34.5t8 -37.5t11.5 -35.5t16.5 -37l17 -34t18.5 -34t17 -29q7 -13 18.5 -37t16.5 -34q18 13 30.5 28t17 33.5t7 34.5t-2.5 38t-9 36.5t-14.5 38.5t-16.5 36t-18.5 36t-15.5 32q-5 9 -14.5 29.5t-17.5 36t-16 27.5z M277 798q16 3 43 -0.5t50.5 -16.5t21.5 -32q-1 -18 -10.5 -23t-23 0.5t-27 13.5t-27 16.5t-19.5 10.5q-35 8 -60 -22t-29 -66q-4 -41 7.5 -84t32.5 -82.5t43 -77.5t41.5 -81.5t25.5 -80.5q11 -70 -36 -125q-4 -5 -17.5 -14.5t-22.5 -18.5t-9 -18q-1 -14 5.5 -41.5t6.5 -40.5 q-1 -59 -38.5 -107t-93.5 -56q-11 -3 -32 -0.5t-41.5 6.5t-34.5 16t-12 28q3 16 11.5 22t20 2t22.5 -10.5t23.5 -15t18.5 -10.5q41 -16 74.5 11t38.5 71q4 41 -8.5 84t-34.5 82.5t-45 77.5t-42.5 81t-24.5 81q-9 75 35 125q3 3 27.5 21t26.5 30q3 12 -4.5 38.5t-7.5 35.5 q0 60 34 108.5t91 61.5z" />
<glyph unicode="&#xa8;" horiz-adv-x="333" d="M340 641q20 7 34 -7t11.5 -34t-22.5 -28q-20 -7 -34 7t-11.5 34t22.5 28zM195 641q20 7 34 -7t11.5 -34t-21.5 -28q-21 -7 -34.5 7t-11 34t21.5 28z" />
<glyph unicode="&#xa9;" horiz-adv-x="813" d="M668 351q-43 -56 -94 -80q-40 -19 -83 -23t-81 7t-72.5 31.5t-58.5 52t-38.5 67.5t-14 78.5t17.5 85.5t53 78q38 36 94 56q67 23 140 10q8 -2 31 -9.5t36 -8.5q9 0 24.5 11t25.5 11l8 -145q-13 2 -22.5 13t-18 29t-14.5 25q-50 56 -124 54q-54 -1 -93 -32t-56 -77.5 t-16.5 -100t18.5 -99.5t57.5 -77t92.5 -31q43 -1 86 17q52 21 79 68zM430 818q-98 -13 -164 -62q-55 -40 -89 -97t-44 -117t1.5 -122.5t42 -115t83 -93t119.5 -57.5q62 -17 121 -9q86 10 152 53q59 39 95.5 96.5t48 119.5t0.5 127t-42.5 119t-86 95t-124.5 56q-64 14 -113 7 zM426 849q56 8 125 -8q74 -16 133 -60.5t93.5 -103t48 -128.5t2.5 -137t-50 -129.5t-102 -105.5q-77 -52 -176 -63q-62 -8 -133 10q-73 20 -130 65t-89.5 102.5t-44.5 126t-0.5 134t49 127t98.5 105.5q71 51 176 65z" />
<glyph unicode="&#xaa;" horiz-adv-x="229" d="M137 566q12 4 22 9t19 13.5t15 14t13 18t10 17.5t9 20.5t7.5 20t7 22.5t6.5 21q-57 -3 -91.5 -51.5t-17.5 -104.5zM215 612q-15 -27 -52 -61.5t-56 -14.5q-20 21 -2 84q20 64 65 93.5t119 43.5l-43 -199l51 23q-6 -8 -16 -18.5t-23.5 -21t-25.5 -10.5t-18 15 q-3 15 -3 21.5t3.5 23.5t4.5 21h-4z" />
<glyph unicode="&#xab;" horiz-adv-x="396" d="M348 128q-14 1 -26.5 12t-19.5 22t-17.5 31t-14.5 25q-3 5 -20 27t-27 40t-8 30q1 9 9.5 18t21.5 20t16 13l101 98l9.5 9.5t9.5 9l9 7.5t10.5 7t11 4t13.5 2l-97 -129l-41 -62l18 -59zM51 320q30 23 80 72.5t68 65.5q5 4 15 13.5t16 15t15.5 10.5t20.5 6l-97 -129 l-39 -58l16 -59l42 -129q-8 1 -14.5 3.5t-12 8.5t-8 9.5t-8 13t-7.5 12.5q-8 13 -29 43.5t-35.5 54.5t-22.5 47z" />
<glyph unicode="&#xac;" horiz-adv-x="667" d="M78 558h563v-301h-47v254h-516v47z" />
<glyph unicode="&#xad;" horiz-adv-x="354" d="M348 370l4 -4zM51 249q13 41 38 61t54 21.5t64.5 2t69.5 1.5q13 2 34.5 19.5t40.5 11.5l-49 -82h-49l-129 3z" />
<glyph unicode="&#xae;" horiz-adv-x="813" d="M383 491q46 0 78 8q39 11 57.5 44.5t9.5 71t-44 58.5q-11 6 -29.5 11t-39 4t-28.5 -12q-4 -5 -5 -14t0 -22.5t1 -15.5v-133zM262 710q14 0 88 4.5t121 0t84 -23.5q47 -23 59.5 -75t-22.5 -93q-10 -13 -27 -22.5t-27.5 -13.5t-33.5 -11q16 -29 52 -78t46 -63q0 -1 5 -8 t6 -8.5t5.5 -7.5l6 -8t6 -7t7 -6.5t7 -5t8.5 -5.5t9 -3.5t10 -2.5v-16q-5 0 -30 -2t-42.5 -0.5t-26.5 8.5q-20 16 -39 41t-40 58t-32 47q-2 4 -10.5 15.5t-11 15t-10.5 11t-13.5 10t-14.5 5t-19 2.5q0 -12 -2 -36.5t-3 -43t1.5 -41.5t8.5 -38t20.5 -25.5t36.5 -10.5v-16 h-191v16q16 0 26.5 5.5t16 12t8.5 19.5t3.5 22.5t0.5 26.5v246v5q0 15 -0.5 23t-3 20t-7 18.5t-14 12t-22.5 7.5v19zM430 818q-98 -13 -164 -62q-55 -40 -89 -97t-44 -117t1.5 -122.5t42 -115t83 -93t119.5 -57.5q62 -17 121 -9q86 10 152 53q59 39 95.5 96.5t48 119.5 t0.5 127t-42.5 119t-86 95t-124.5 56q-64 14 -113 7zM426 849q56 8 125 -8q74 -16 133 -60.5t93.5 -103t48 -128.5t2.5 -137t-50 -129.5t-102 -105.5q-77 -52 -176 -63q-62 -8 -133 10q-73 20 -130 65t-89.5 102.5t-44.5 126t-0.5 134t49 127t98.5 105.5q71 51 176 65z" />
<glyph unicode="&#xaf;" horiz-adv-x="333" d="M344 628l-4 -19zM152 636h196q-2 -8 -6 -13.5t-6.5 -8t-10 -4l-10 -2t-13.5 0t-13 0.5h-144z" />
<glyph unicode="&#xb0;" horiz-adv-x="427" d="M261.5 704.5q-30.5 -5.5 -51.5 -23t-29.5 -40t-10 -48t9 -49t26.5 -42t42 -26.5t56.5 -2.5t52 23t29.5 40t9.5 48t-9 49.5t-26.5 42t-42 26t-56.5 2.5zM258 747q41 8 76 -3.5t56.5 -36.5t35 -57.5t11.5 -67.5t-13.5 -66t-41 -54t-70.5 -31q-42 -7 -78 4.5t-57.5 36 t-35.5 57t-12 67.5t14.5 66t42.5 54.5t72 30.5z" />
<glyph unicode="&#xb1;" horiz-adv-x="667" d="M98 175h558v-47h-558v47zM352 804h46v-234h258v-47h-258v-231h-46v231h-258v47h258v234z" />
<glyph unicode="&#xb2;" d="M129 769q19 56 62 76q29 10 59.5 8.5t55.5 -21.5t29 -52q2 -16 -3 -33.5t-12.5 -32t-23 -32.5t-27 -30t-32.5 -29.5t-31 -25.5t-32 -24t-26 -19l184 16q-16 -26 -48 -36.5t-66 -7.5t-71.5 2.5t-64.5 -5.5q3 11 13.5 21.5t27 22t22 16t25 21t28 24t25 23.5t25.5 28 t18.5 27.5t13.5 31.5q12 36 -11.5 69.5t-61.5 19.5q-39 -12 -55 -70z" />
<glyph unicode="&#xb3;" d="M156 777l4 -4zM176 687l4 -4zM160 777q6 40 47.5 61.5t81.5 7.5q22 -8 29.5 -25t2 -35t-19.5 -33q-17 -17 -43 -35q37 -4 51.5 -36.5t-2.5 -65.5q-18 -39 -61.5 -63.5t-89.5 -25.5q-60 0 -74 35q17 3 38.5 -6.5t27.5 -11.5q28 -7 71 20q14 9 27.5 24.5t21.5 33t3.5 35.5 t-25.5 28q-9 5 -19 6t-27.5 -1.5t-19.5 -2.5q6 18 43.5 38.5t47.5 35.5q14 21 1.5 42.5t-38.5 18.5q-17 -1 -42 -21.5t-32 -23.5z" />
<glyph unicode="&#xb4;" horiz-adv-x="333" d="M195 550l72 109l35 47l65 4q-16 -23 -53 -60.5t-47 -48.5q-1 -1 -7 -8.5t-8 -9.5t-7.5 -8t-8.5 -8t-8.5 -6.5t-10 -6t-10.5 -3t-12 -1.5z" />
<glyph unicode="&#xb5;" horiz-adv-x="500" d="M336 206l4 -4zM133 179q-2 -22 -11 -62t-12 -55q-1 -12 -3.5 -37.5t-5.5 -44.5t-9 -35q-10 -24 -35 -29.5t-35 21.5q-5 19 4.5 45t27.5 57.5t22 41.5q13 33 26.5 73.5t21 65.5t22.5 77.5t19 68.5q3 9 8.5 37.5t12 50t17.5 31.5q4 4 12 6t15 2t17.5 -1t14.5 -1 q-4 -23 -11.5 -52.5t-13 -48t-17.5 -54.5l-16 -48q0 -1 -1 -5q-22 -69 -8 -96q15 -28 38.5 -29.5t43.5 13t35 35.5q37 55 64 133.5t38 151.5h63q-7 -50 -37.5 -144t-33.5 -106q0 -1 -1 -5q-17 -70 13 -77q12 -2 21.5 6.5t15.5 21t16 23.5t21 12q-20 -70 -47 -91 q-32 -23 -56 -16t-38.5 32t-14.5 55h-4q-12 -31 -39 -54t-57 -30t-58.5 8t-40.5 53h-4z" />
<glyph unicode="&#xb6;" horiz-adv-x="479" d="M320 73l8 512q-35 -6 -54.5 -34.5t-23.5 -66.5q-19 -202 -6 -301q7 -46 22.5 -72.5t53.5 -37.5zM441 42q-1 -9 -5 -14t-9 -7t-13.5 -1.5t-13.5 1.5t-15.5 3.5t-13.5 3.5q-115 25 -170 92q-38 47 -67.5 103t-31.5 104q-3 65 47.5 145.5t108.5 116.5q89 55 269 59l-16 -25 l-156 -22l-7 -363l-4 -176z" />
<glyph unicode="&#xb7;" horiz-adv-x="188" d="M145 477q25 7 31 -22q5 -32 -16 -54q-7 -8 -15 -10q-30 -9 -34 22q-3 32 18 54q7 7 16 10z" />
<glyph unicode="&#xb8;" horiz-adv-x="333" d="M113 58q3 3 10.5 15.5t11.5 18.5t12 16t14.5 15t15.5 9t18 4l-23 -39q32 -3 48 -25t12 -50.5t-25 -49.5t-53 -32t-56.5 -13t-62.5 -2q9 18 24 19q72 8 105 40q20 19 16 41.5t-32 29.5q-11 3 -35 3z" />
<glyph unicode="&#xb9;" d="M168 530v-3h121zM168 835l4 -4zM172 835q4 13 30.5 17t52 2t42.5 1l-78 -297l70 -16l4 -15q-48 11 -137 0l86 296z" />
<glyph unicode="&#xba;" horiz-adv-x="208" d="M176 718q-18 -9 -27.5 -33t-8.5 -48t7 -44q6 -18 22.5 -29t33.5 -2q25 13 35 54.5t-1 66.5q-7 20 -24.5 32t-36.5 3zM199 747q29 7 49.5 -15.5t24.5 -52.5q4 -41 -21.5 -91t-63.5 -60q-32 -8 -55 16t-27 57q-5 45 22.5 90.5t70.5 55.5z" />
<glyph unicode="&#xbb;" horiz-adv-x="396" d="M246 503q13 -1 25.5 -12t20 -22.5t17.5 -30.5t14 -25q3 -4 20 -26.5t27 -40.5t9 -30q-1 -7 -7 -15.5t-12 -13.5t-15.5 -13t-12.5 -10q-43 -38 -98 -93q-1 -1 -10 -10.5t-12.5 -12t-11 -8.5t-14 -8.5t-14.5 -3.5l98 133l37 52l-17 57zM86 503q8 0 14.5 -2.5t12 -8.5 t8.5 -9.5t8.5 -13t7.5 -13.5q8 -13 29 -44t35.5 -54.5t25.5 -45.5q-18 -13 -38.5 -31t-34 -32t-35.5 -36.5t-33 -33.5q-4 -4 -13 -13.5t-14 -14t-13 -11t-16.5 -9.5t-17.5 -3l95 129l40 59l-15 54z" />
<glyph unicode="&#xbc;" horiz-adv-x="677" d="M430 277h105l39 128q-40 -15 -81 -52t-63 -76zM164 745h121l-53 -211l-16 -77l65 -32h-133q11 39 32.5 111t29.5 100q1 4 5.5 17t7 21.5t5 21.5t-1.5 16q-8 15 -66 18zM383 249q36 85 172 170q3 2 17 11.5t20 13t18 7.5t23 5l-51 -179l51 3q-3 -14 -10.5 -19.5t-15 -4.5 t-17.5 -1.5t-16 -10.5q-8 -9 -14 -26t-9 -30.5t-7 -35.5t-5 -28l-51 -4l39 129h-144zM109 120q12 27 34.5 56t53.5 62.5t44 49.5l294 364l99 121l5 6t6.5 7.5l6 6t7 5.5t7 3t9 1.5t9.5 -2.5q-24 -21 -47.5 -49t-51 -65t-41.5 -54l-279 -344l-98 -121q-1 -2 -9 -12t-11 -13 l-9.5 -9.5t-13.5 -9t-15 -3.5z" />
<glyph unicode="&#xbd;" horiz-adv-x="677" d="M160 745h121l-74 -297q59 -4 70 -23h-132l82 293l-71 12zM438 355q-10 4 -14 9.5t-3 12.5t4 13.5t9 14.5q30 45 86 47q53 2 84.5 -39t7.5 -90q-16 -30 -46 -59.5t-70.5 -62t-57.5 -49.5l179 19l-28 -39l-66 -4l-156 -8q4 12 13 21t25 19.5t21 14.5q5 5 25 22t29 25 t26 24.5t26 28.5t19 28.5t15 31.5q11 37 -12 70t-62 20q-39 -12 -54 -70zM102 120q55 82 127.5 171t161 192.5t137.5 164.5l102 125l5 6t6.5 7.5l6 6t7 5.5t7 3t9 1.5t9.5 -2.5q-22 -19 -44 -45.5t-47.5 -60.5t-38.5 -50l-289 -356l-101 -125q-2 -2 -9.5 -12t-10.5 -12.5 t-10 -8t-13.5 -7.5t-14.5 -3z" />
<glyph unicode="&#xbe;" horiz-adv-x="677" d="M430 277h105l39 128q-40 -15 -81 -52t-63 -76zM156 671q4 40 45 61t80 9q31 -9 36 -35.5t-14 -50.5q-11 -13 -45 -39q41 -13 51 -49.5t-15 -71.5q-22 -31 -57 -50t-73 -23q-69 -7 -86 34q17 3 38.5 -6.5t28.5 -10.5q28 -7 70 19q15 10 28.5 26.5t21 34.5t1.5 36t-28 28 q-7 4 -16.5 4.5t-16 -0.5t-17.5 -3t-16 -3q9 19 46.5 38.5t48.5 35.5q15 22 2.5 43.5t-39.5 18.5q-17 -2 -42 -22t-32 -24zM152 671l4 -4zM383 249q36 85 172 170q3 2 17 11.5t20 13t18 7.5t23 5l-51 -179l51 3q-3 -14 -10.5 -19.5t-15 -4.5t-17.5 -1.5t-16 -10.5 q-8 -9 -14 -26t-9 -30.5t-7 -35.5t-5 -28l-51 -4l39 129h-144zM109 120q12 27 34.5 56t53.5 62.5t44 49.5l294 364l99 121l5 6t6.5 7.5l6 6t7 5.5t7 3t9 1.5t9.5 -2.5q-24 -21 -47.5 -49t-51 -65t-41.5 -54l-279 -344l-98 -121q-1 -2 -9 -12t-11 -13l-9.5 -9.5t-13.5 -9 t-15 -3.5z" />
<glyph unicode="&#xbf;" horiz-adv-x="323" d="M195 -59q-1 -39 -24.5 -60.5t-54 -22t-62.5 15t-48 43.5q-27 48 -5 125t69 103q19 11 67 22t70 26q12 9 31.5 49t34.5 42q-4 -111 -85 -148q-15 -7 -45 -14.5t-53 -17.5t-38 -27q-22 -25 -24 -61t18 -65.5t56 -35.5q22 -4 51.5 10t41.5 16zM270 449q28 10 32 -20 q5 -32 -16 -56q-7 -9 -16 -11q-28 -8 -32 23q-4 33 18 55q6 7 14 9z" />
<glyph unicode="&#xc0;" horiz-adv-x="552" d="M320 128v-4h125zM-4 128l4 -4zM398 632l-144 -234q48 -12 141 0l11 234h-8zM402 948l65 -4l24 -42l52 -114q-8 0 -15 2.5t-11 4t-10 8t-8 9t-8.5 12t-7.5 11.5q-9 13 -25.5 35.5t-30 41.5t-25.5 36zM0 128q3 10 14 14t26 5.5t22 5.5q7 3 13 8.5t10 9.5t10.5 13t8.5 11.5 t8.5 14t7.5 12.5q23 39 74 126.5t90.5 152.5t78.5 123q5 8 20 33t26 42.5t28 34.5t32 19q0 -215 -12 -391q-1 -6 -7 -54.5t-5.5 -80t10.5 -52.5q7 -14 17.5 -20t24.5 -4t23.5 4.5t25.5 9.5q3 2 5 2q-1 -36 -55 -42q-29 -4 -95 -1t-96 0l4 24q30 1 48 15.5t24.5 40.5 t8.5 50.5t2 58t3 49.5q-4 1 -36 4.5t-50 4.5t-42 -3t-34 -15q-15 -15 -27.5 -37.5t-27.5 -57.5t-19 -44q0 -1 -4.5 -9t-6 -11t-5 -12t-2.5 -11.5t2 -10.5q6 -16 52 -16v-20z" />
<glyph unicode="&#xc1;" horiz-adv-x="552" d="M320 128v-4h125zM-4 128l4 -4zM398 632l-144 -234q48 -12 141 0l11 234h-8zM398 788l75 117l32 41l61 2q-10 -15 -25 -32t-26.5 -29t-30 -31t-27.5 -29q-2 -2 -10 -11t-11 -11.5t-9.5 -7.5t-13 -6.5t-15.5 -2.5zM395 788l3 -4zM0 128q3 10 14 14t26 5.5t22 5.5 q7 3 13 8.5t10 9.5t10.5 13t8.5 11.5t8.5 14t7.5 12.5q23 39 74 126.5t90.5 152.5t78.5 123q5 8 20 33t26 42.5t28 34.5t32 19q0 -215 -12 -391q-1 -6 -7 -54.5t-5.5 -80t10.5 -52.5q7 -14 17.5 -20t24.5 -4t23.5 4.5t25.5 9.5q3 2 5 2q-1 -36 -55 -42q-29 -4 -95 -1t-96 0 l4 24q30 1 48 15.5t24.5 40.5t8.5 50.5t2 58t3 49.5q-4 1 -36 4.5t-50 4.5t-42 -3t-34 -15q-15 -15 -27.5 -37.5t-27.5 -57.5t-19 -44q0 -1 -4.5 -9t-6 -11t-5 -12t-2.5 -11.5t2 -10.5q6 -16 52 -16v-20z" />
<glyph unicode="&#xc2;" horiz-adv-x="552" d="M320 128v-4h125zM-4 128l4 -4zM398 632l-144 -234q48 -12 141 0l11 234h-8zM0 128q3 10 14 14t26 5.5t22 5.5q7 3 13 8.5t10 9.5t10.5 13t8.5 11.5t8.5 14t7.5 12.5q23 39 74 126.5t90.5 152.5t78.5 123q5 8 20 33t26 42.5t28 34.5t32 19q0 -215 -12 -391q-1 -6 -7 -54.5 t-5.5 -80t10.5 -52.5q7 -14 17.5 -20t24.5 -4t23.5 4.5t25.5 9.5q3 2 5 2q-1 -36 -55 -42q-29 -4 -95 -1t-96 0l4 24q30 1 48 15.5t24.5 40.5t8.5 50.5t2 58t3 49.5q-4 1 -36 4.5t-50 4.5t-42 -3t-34 -15q-15 -15 -27.5 -37.5t-27.5 -57.5t-19 -44q0 -1 -4.5 -9t-6 -11 t-5 -12t-2.5 -11.5t2 -10.5q6 -16 52 -16v-20zM359 788q67 107 113 151q8 8 23.5 10t26.5 -3q4 -2 7 -7.5t3.5 -10t1.5 -13t1 -10.5q2 -10 7 -35.5t8 -44.5t5 -37q-13 1 -23 9.5t-17.5 25t-11.5 27.5t-9 29q-1 5 -2 7q-5 -5 -35 -36t-52.5 -46t-45.5 -16z" />
<glyph unicode="&#xc3;" horiz-adv-x="552" d="M320 128v-4h125zM-4 128l4 -4zM398 632l-144 -234q48 -12 141 0l11 234h-8zM0 128q3 10 14 14t26 5.5t22 5.5q7 3 13 8.5t10 9.5t10.5 13t8.5 11.5t8.5 14t7.5 12.5q23 39 74 126.5t90.5 152.5t78.5 123q5 8 20 33t26 42.5t28 34.5t32 19q0 -215 -12 -391q-1 -6 -7 -54.5 t-5.5 -80t10.5 -52.5q7 -14 17.5 -20t24.5 -4t23.5 4.5t25.5 9.5q3 2 5 2q-1 -36 -55 -42q-29 -4 -95 -1t-96 0l4 24q30 1 48 15.5t24.5 40.5t8.5 50.5t2 58t3 49.5q-4 1 -36 4.5t-50 4.5t-42 -3t-34 -15q-15 -15 -27.5 -37.5t-27.5 -57.5t-19 -44q0 -1 -4.5 -9t-6 -11 t-5 -12t-2.5 -11.5t2 -10.5q6 -16 52 -16v-20zM344 808q9 27 18 43q8 15 21 26q18 17 38.5 16.5t36 -10t36 -19t37.5 -8.5q14 1 31.5 19t31.5 19q-3 -22 -12 -39q-7 -16 -17 -26q-20 -20 -41 -21t-37 9.5t-37.5 21t-39.5 10.5q-16 0 -33.5 -20t-32.5 -21z" />
<glyph unicode="&#xc4;" horiz-adv-x="552" d="M398 636q-16 -29 -48.5 -74t-58 -86t-37.5 -78q41 -12 137 0l7 172v66zM0 128v-4h160q-19 8 -46.5 9t-64.5 -2t-49 -3zM324 128v-4h125zM0 128q6 14 33 18t33 7.5t12 8.5t10 9.5t9.5 13t8 12t8 13.5t6.5 12q27 44 76.5 128t90.5 151.5t79 126.5q3 4 19 32t27 43.5 t28.5 32t32.5 17.5q-5 -18 -4.5 -46.5t-0.5 -47.5q-3 -53 -5.5 -158.5t-5.5 -157.5q-1 -10 -4.5 -38.5t-5 -47.5t0 -43t8.5 -39q20 -43 95 -8q-1 -36 -55 -42q-29 -4 -93.5 -1t-93.5 0v24q20 0 35.5 7.5t24.5 23t15 30.5t8 39t2.5 39.5t0 40.5t0.5 34q-6 1 -36 4.5 t-47.5 4.5t-40.5 -2t-35 -13t-24.5 -30.5t-20 -36.5t-19 -44t-14.5 -35q-1 -2 -4.5 -8.5t-5.5 -11.5t-4 -11.5t-2 -12t3 -9.5q8 -13 54 -13l-4 -20zM391 879q20 8 34 -6t11.5 -34.5t-22.5 -27.5q-20 -8 -34 6t-11.5 34.5t22.5 27.5zM539 879q20 8 34 -6t11.5 -34.5 t-22.5 -27.5q-20 -8 -34 6t-11.5 34.5t22.5 27.5z" />
<glyph unicode="&#xc5;" horiz-adv-x="552" d="M398 632q-8 -12 -48 -67t-62 -92.5t-34 -74.5q41 -12 137 0l15 234h-8zM-4 128v-4h160q-19 8 -46.5 9t-64.5 -2t-49 -3zM320 128v-4h125zM0 144q14 0 25.5 1.5t22 7t18.5 9t17 13.5t13.5 14.5t13.5 18.5t11.5 18.5t12.5 21.5t12 21q120 211 213 351q6 8 21 34.5t26.5 44 t29 34.5t33.5 20q0 -71 -8 -213t-8 -213q0 -13 -4.5 -48t-4 -62.5t10.5 -45.5q9 -16 26.5 -19t30 0.5t33.5 12.5q4 1 6 2q-3 -35 -55 -42q-28 -4 -95.5 -1.5t-95.5 0.5v24q21 0 37 7.5t25 23t14.5 30t7.5 39t2.5 38.5t0 41t-0.5 35q-4 1 -35.5 4.5t-49 4.5t-40.5 -3t-34 -15 q-12 -11 -24 -31t-19 -35t-18.5 -42.5t-14.5 -34.5q-1 -2 -6 -11.5t-6 -13t-3.5 -13.5t0.5 -13q7 -15 54 -15q-3 -18 -19 -19.5t-31 2.5q-22 3 -46.5 3t-56 -1t-46.5 -1zM434 919q-31 -8 -37 -36.5t13.5 -50.5t50.5 -14t37 36.5t-13.5 50.5t-50.5 14zM429.5 942.5 q27.5 6.5 50 -4.5t32 -32t10 -43.5t-14.5 -42t-42 -26t-49.5 4.5t-32 31.5t-10.5 43.5t14 42.5t42.5 26z" />
<glyph unicode="&#xc6;" horiz-adv-x="750" d="M496 702l-172 -250l121 4l40 176zM363 714q6 11 20 16.5t26 5.5t33 -1t27 -1q52 0 157.5 2t158.5 2q0 -2 -1 -18.5t-2 -24t-4 -20.5t-9 -19.5t-15 -7.5q-1 28 -15 43.5t-34.5 18.5t-46 3t-50 -2.5t-46.5 3.5l-58 -254q7 0 46.5 -1.5t65.5 0t44 8.5q13 5 26.5 26t32.5 22 l-39 -156h-20q0 4 2.5 19.5t2 26.5t-6.5 18q-3 3 -8.5 4.5t-8.5 1.5h-11h-9q-4 0 -35 2.5t-53 1t-31 -9.5q-5 -6 -8.5 -15t-6 -24t-3.5 -18q-1 -5 -8.5 -36t-10 -43.5t-5.5 -35t-3 -41.5q0 -20 8 -32.5t23.5 -17.5t28.5 -6.5t34 -1.5q23 0 45 -0.5t43.5 3t40 11t34 23.5 t24.5 41q12 -7 12 -23.5t-7.5 -34t-20 -32t-23.5 -16.5q-18 -3 -40 -3t-48.5 1.5t-40.5 1.5h-265q2 11 12 17.5t20.5 8.5t22.5 8.5t18 16.5q13 24 23.5 59t16 62t13 69t10.5 60q-8 0 -38.5 2.5t-53.5 1.5t-36 -8q-10 -6 -19 -18.5t-19.5 -31.5t-13.5 -24q-14 -21 -41 -59 t-48 -70.5t-35 -62.5l101 -7q-3 -8 -8 -12.5t-12.5 -6t-12 -2t-15.5 0t-14 0.5q-31 0 -92 -2t-92 -2v28q27 0 49.5 7t37.5 15.5t32.5 27.5t27 32t27.5 40q6 9 10 14l181 262q12 16 37 49t43 59.5t32 51.5z" />
<glyph unicode="&#xc7;" horiz-adv-x="615" d="M316 116q-92 12 -152 71q-46 45 -65 101.5t-12.5 111.5t32.5 110.5t66 100.5t90.5 78.5t103.5 47.5q130 33 238 -18q3 -1 12.5 -5.5t15 -7.5t13.5 -7.5t13 -9.5t8 -11q7 -14 -2 -55t-9 -46l-23 -4q-1 48 -24.5 82.5t-60.5 50t-81 15.5t-84 -17q-92 -36 -152 -117.5 t-73 -181.5q-11 -80 27 -154.5t112 -100.5q32 -12 68 -8t67 17t60 35q8 7 25 29t32.5 32.5t32.5 1.5q-5 -8 -13 -32t-17.5 -42t-21.5 -25q-47 -28 -132 -40q-7 -1 -20.5 -2t-22 -2t-18.5 -5.5t-17 -11.5q49 -12 59 -53t-28 -75q-31 -28 -71 -36t-97 -8q4 10 9 14t15 5 q74 11 105 40q20 20 16 41.5t-31 29.5q-12 3 -36 3z" />
<glyph unicode="&#xc8;" horiz-adv-x="469" d="M20 128v-4h378l-121 8zM273 948h67l74 -160q-18 0 -38 15t-40 43.5t-31 46.5t-26 46q-4 7 -6 9zM102 718q0 11 7.5 17t20 7.5t23.5 1.5t26 -1.5t20 -1.5h317l-12 -97h-16l-17 60l-53 10h-117l-55 -230q9 0 30.5 -1t35.5 -1.5t32.5 2t30.5 9t19 21t14.5 25t25.5 11.5 l-39 -156h-20q0 4 1.5 14t1.5 18t-3 14q-6 11 -25.5 15.5t-37.5 4t-43 -2t-31 -1.5l-70 -297q17 0 50.5 -1.5t55.5 -2.5t52 2t50 11.5t39.5 26.5t29.5 46l20 -7q-21 -90 -48 -106q-18 -6 -33.5 -5t-42.5 5t-36 4q-102 0 -305 -8l-4 24q1 0 14.5 0.5t18 0.5t16 1.5t17.5 3.5 t14 5.5t13 8.5q14 13 22 33.5t14 54.5t7 40q9 34 23.5 102.5t28 122.5t31.5 99h-8q0 2 3 12t4.5 14.5t3.5 14t2 15.5t-1 13.5t-4 11.5q-6 10 -22 14.5t-30 4.5t-35.5 -1t-25.5 -1z" />
<glyph unicode="&#xc9;" horiz-adv-x="469" d="M20 128v-4h378l-121 8zM293 788l70 110l36 46l62 4q-13 -18 -29.5 -36.5t-39 -42t-32.5 -34.5q-2 -2 -11 -12.5t-12.5 -13.5t-11.5 -9.5t-15.5 -8.5t-16.5 -3zM102 718q0 11 7.5 17t20 7.5t23.5 1.5t26 -1.5t20 -1.5h317l-12 -97h-16l-17 60l-53 10h-117l-55 -230 q9 0 30.5 -1t35.5 -1.5t32.5 2t30.5 9t19 21t14.5 25t25.5 11.5l-39 -156h-20q0 4 1.5 14t1.5 18t-3 14q-6 11 -25.5 15.5t-37.5 4t-43 -2t-31 -1.5l-70 -297q17 0 50.5 -1.5t55.5 -2.5t52 2t50 11.5t39.5 26.5t29.5 46l20 -7q-21 -90 -48 -106q-18 -6 -33.5 -5t-42.5 5 t-36 4q-102 0 -305 -8l-4 24q1 0 14.5 0.5t18 0.5t16 1.5t17.5 3.5t14 5.5t13 8.5q14 13 22 33.5t14 54.5t7 40q9 34 23.5 102.5t28 122.5t31.5 99h-8q0 2 3 12t4.5 14.5t3.5 14t2 15.5t-1 13.5t-4 11.5q-6 10 -22 14.5t-30 4.5t-35.5 -1t-25.5 -1z" />
<glyph unicode="&#xca;" horiz-adv-x="469" d="M20 128v-4h378l-121 8zM258 788l78 110l40 46l50 4l23 -160h-23l-39 98q-4 -4 -26 -27t-34.5 -34t-32.5 -23.5t-36 -13.5zM254 788l4 -4zM102 718q0 11 7.5 17t20 7.5t23.5 1.5t26 -1.5t20 -1.5h317l-12 -97h-16l-17 60l-53 10h-117l-55 -230q9 0 30.5 -1t35.5 -1.5 t32.5 2t30.5 9t19 21t14.5 25t25.5 11.5l-39 -156h-20q0 4 1.5 14t1.5 18t-3 14q-6 11 -25.5 15.5t-37.5 4t-43 -2t-31 -1.5l-70 -297q17 0 50.5 -1.5t55.5 -2.5t52 2t50 11.5t39.5 26.5t29.5 46l20 -7q-21 -90 -48 -106q-18 -6 -33.5 -5t-42.5 5t-36 4q-102 0 -305 -8 l-4 24q1 0 14.5 0.5t18 0.5t16 1.5t17.5 3.5t14 5.5t13 8.5q14 13 22 33.5t14 54.5t7 40q9 34 23.5 102.5t28 122.5t31.5 99h-8q0 2 3 12t4.5 14.5t3.5 14t2 15.5t-1 13.5t-4 11.5q-6 10 -22 14.5t-30 4.5t-35.5 -1t-25.5 -1z" />
<glyph unicode="&#xcb;" horiz-adv-x="469" d="M20 128v-4h378l-121 8zM289 879q20 8 34 -6t11.5 -34.5t-22.5 -27.5q-20 -8 -34 6t-11.5 34.5t22.5 27.5zM434 879q20 8 34 -6t11.5 -34.5t-22.5 -27.5q-20 -8 -34 6t-11.5 34.5t22.5 27.5zM105 741h411l-12 -97h-16q-1 11 -3 20.5t-4.5 16.5t-8 12.5l-9 9t-12 5.5 t-12.5 3.5t-15 2t-15.5 0.5h-18.5h-19q-4 0 -15 1t-19 1t-17 -2t-13 -6q-7 -6 -10.5 -16t-7 -25.5t-4.5 -18.5q-5 -22 -17.5 -78t-21.5 -86q9 0 30.5 -1t35.5 -1.5t32.5 2t30.5 9.5q12 6 19 20.5t15 25t25 11.5q-6 -22 -16.5 -62.5t-13.5 -54.5q-1 -3 -2.5 -10t-2.5 -9.5 t-3 -7t-4.5 -6.5t-6.5 -4t-10 -2q0 3 1.5 11.5t2 14t-1 12.5t-4.5 11q-13 15 -66 17t-65 -13q-8 -10 -12.5 -25t-8 -39t-4.5 -28q-22 -99 -49 -196q19 0 53.5 -1.5t55 -2t49 2.5t48 11.5t40 26.5t35.5 45l16 -7q-4 -29 -17 -62.5t-31 -43.5q-18 -6 -33.5 -5t-42.5 5t-36 4 q-102 0 -305 -8v24q4 0 21 1t26 2t22 4.5t20 9.5q9 8 16.5 23t10.5 26.5t7 31.5t5 27l66 261q4 17 7.5 36t7 42t6.5 36q0 2 2 9.5t2.5 12t1 11t-0.5 11.5t-4 9q-7 10 -23 14.5t-29.5 4.5t-35 -1t-26.5 -1z" />
<glyph unicode="&#xcc;" horiz-adv-x="313" d="M191 948l65 -4l24 -42l52 -114q-22 1 -43 20t-35 43.5t-31.5 52.5t-31.5 41v3zM141 714q1 9 4.5 14.5t11 7.5t12 2.5t16 0t14.5 -0.5h188v-24h-11h-11.5t-11 -0.5t-12 -1.5t-10 -2.5t-10.5 -4t-8.5 -6.5t-7.5 -9q-9 -14 -14.5 -33.5t-10.5 -47t-7 -36.5l-65 -265 q-1 -5 -6 -23t-7.5 -29.5t-5 -28t-2 -29.5t5.5 -23q9 -20 27.5 -25t37 0t37.5 5.5t29 -7.5q-21 -12 -46 -16.5t-39.5 -5t-48.5 2t-45 3.5q-24 1 -66.5 -1.5t-58.5 -2.5l3 24q2 0 11 -0.5t12.5 0t11.5 0.5t12.5 1.5t10.5 3t11 4.5t9 7q11 11 18 27.5t13 47.5t6 34l65 265 q2 9 7.5 27t9.5 33t7.5 32.5t3 33t-5.5 26.5q-3 5 -9 9t-12.5 6t-17 3.5t-16.5 1.5h-17h-12zM137 714l4 -4z" />
<glyph unicode="&#xcd;" horiz-adv-x="313" d="M215 788q10 27 25 55t37 57.5t50 42.5t56 2q-24 -20 -64 -66t-46 -52q-2 -2 -9.5 -10.5t-11 -11.5t-10 -8t-13 -6.5t-14.5 -2.5zM211 788l4 -4zM141 714q1 9 4.5 14.5t11 7.5t12 2.5t16 0t14.5 -0.5h188v-24h-11h-11.5t-11 -0.5t-12 -1.5t-10 -2.5t-10.5 -4t-8.5 -6.5 t-7.5 -9q-9 -14 -14.5 -33.5t-10.5 -47t-7 -36.5l-65 -265q-1 -5 -6 -23t-7.5 -29.5t-5 -28t-2 -29.5t5.5 -23q9 -20 27.5 -25t37 0t37.5 5.5t29 -7.5q-21 -12 -46 -16.5t-39.5 -5t-48.5 2t-45 3.5q-24 1 -66.5 -1.5t-58.5 -2.5l3 24q2 0 11 -0.5t12.5 0t11.5 0.5t12.5 1.5 t10.5 3t11 4.5t9 7q11 11 18 27.5t13 47.5t6 34l65 265q2 9 7.5 27t9.5 33t7.5 32.5t3 33t-5.5 26.5q-3 5 -9 9t-12.5 6t-17 3.5t-16.5 1.5h-17h-12zM137 714l4 -4z" />
<glyph unicode="&#xce;" horiz-adv-x="313" d="M176 788l83 114l39 44l46 2l27 -160q-13 1 -23.5 9.5t-17.5 25t-11 27.5t-9 29q-1 5 -1 7q-12 -9 -38 -36t-49.5 -44t-45.5 -18zM141 714q1 9 4.5 14.5t11 7.5t12 2.5t16 0t14.5 -0.5h188v-24h-11h-11.5t-11 -0.5t-12 -1.5t-10 -2.5t-10.5 -4t-8.5 -6.5t-7.5 -9 q-9 -14 -14.5 -33.5t-10.5 -47t-7 -36.5l-65 -265q-1 -5 -6 -23t-7.5 -29.5t-5 -28t-2 -29.5t5.5 -23q9 -20 27.5 -25t37 0t37.5 5.5t29 -7.5q-21 -12 -46 -16.5t-39.5 -5t-48.5 2t-45 3.5q-24 1 -66.5 -1.5t-58.5 -2.5l3 24q2 0 11 -0.5t12.5 0t11.5 0.5t12.5 1.5t10.5 3 t11 4.5t9 7q11 11 18 27.5t13 47.5t6 34l65 265q2 9 7.5 27t9.5 33t7.5 32.5t3 33t-5.5 26.5q-3 5 -9 9t-12.5 6t-17 3.5t-16.5 1.5h-17h-12zM137 714l4 -4z" />
<glyph unicode="&#xcf;" horiz-adv-x="313" d="M141 714q3 9 7.5 14.5t12.5 7.5t13 2.5t17 0t16 -0.5h184q-2 -14 -14 -21t-26.5 -8.5t-29.5 -9.5t-20 -24q-24 -68 -53 -218t-57 -223q10 -12 6.5 -23.5t-2 -27t15.5 -25.5q17 -11 60.5 -5t52.5 -5q-21 -11 -45.5 -16t-38 -5.5t-47.5 2t-45 3.5q-23 1 -65.5 -1.5 t-59.5 -2.5l4 24q2 0 9.5 -0.5t10 0t9.5 0.5t10 0.5l9 1.5t9.5 2.5t8 3.5t8.5 5t7 6q10 12 16.5 30t11.5 48.5t6 34.5l59 262q2 9 9.5 33t12.5 42t8 42t-5 31q-2 5 -7 8.5t-11.5 5.5t-12.5 3.5t-15 2t-14 0.5h-14h-11zM211 879q20 8 34 -6t11.5 -34.5t-22.5 -27.5 q-20 -8 -34 6t-11.5 34.5t22.5 27.5zM355 879q21 8 35 -6t11.5 -34.5t-22.5 -27.5q-20 -8 -34 6t-11.5 34.5t21.5 27.5z" />
<glyph unicode="&#xd0;" horiz-adv-x="667" d="M297 710l-59 -262h176l-8 -27h-176l-34 -168q0 -1 -3.5 -16.5t-4.5 -21.5t-1 -17t3 -19t10 -13.5t18 -8.5t17 -3.5t19 -1.5q122 -8 191 21q50 21 86 61.5t54 89t20 103.5t-12.5 104t-48.5 90.5t-83 64.5q-35 15 -72.5 19.5t-91.5 4.5zM90 714l4 -4zM94 738q27 0 89.5 1.5 t100.5 1t91 -4.5t97.5 -17.5t82.5 -35.5q66 -40 99 -110.5t30 -143.5t-40 -143t-101 -109q-54 -33 -119.5 -43t-153.5 -10h-270v28q5 0 20.5 -1t24 -0.5t20.5 3t21 8.5l8 8t7.5 10t5.5 10t4.5 12.5t3.5 11.5t3 12.5t3 11.5q5 22 19 85.5t24 97.5h-109l4 27q5 0 30.5 -2 t44.5 -1t28 7q5 4 8.5 11.5t5 13t4 17t2.5 13.5q23 111 27 137q1 2 2.5 10t2 12t0.5 11t-1.5 12t-3.5 9q-7 9 -23.5 13t-30 4.5t-35.5 -0.5t-26 -1v24z" />
<glyph unicode="&#xd1;" horiz-adv-x="625" d="M289 808l4 -4zM86 738l109 -4l49 -4l25 -43l52 -102l183 -347q3 65 36.5 184.5t40.5 162.5q1 9 9 36t10.5 41.5t-1.5 35.5q-2 5 -5.5 8.5t-9 5.5t-9.5 3.5t-12 2t-11 0.5h-11.5h-9.5l4 20h184v-20q-17 -1 -30.5 -5t-23 -8.5t-18 -15.5t-13 -16.5t-10 -22.5t-7.5 -23 t-7 -27t-6 -27q-5 -18 -22 -86t-24.5 -98.5t-20 -85t-20.5 -99t-13 -88.5q-13 2 -25.5 17.5t-20 31t-17 39t-12.5 30.5l-131 250q-6 11 -21.5 37.5t-26 47t-16.5 40.5h-4q-3 -46 -13 -94t-29.5 -122.5t-23.5 -92.5q-2 -7 -6.5 -22.5t-8 -27.5t-7 -29t-3 -27.5t3.5 -22.5 q2 -6 6 -10t10 -6.5t10.5 -4t13 -2t12.5 -1t13 0t11 0.5q-3 -8 -7.5 -12.5t-12 -6t-11.5 -2t-14.5 0t-13.5 0.5q-27 0 -80 -2t-80 -2l4 20q62 0 88 31q10 12 16 27.5t11 39t8 31.5q25 91 57 250q2 8 8.5 31.5t10 39.5t6 39t-3.5 31q-24 54 -119 54v20zM293 808q4 23 16 43 q33 55 86 40q10 -3 26.5 -11.5t29 -13.5t26 -7t24.5 6.5t19 28.5h23q-9 -30 -16 -43q-8 -16 -20 -26q-18 -19 -40 -17t-36.5 11.5t-36 20t-39.5 9.5q-14 -1 -30.5 -20.5t-31.5 -20.5z" />
<glyph unicode="&#xd2;" horiz-adv-x="667" d="M406 724q-62 -9 -112 -47.5t-79.5 -93t-42.5 -117.5t-7 -123q5 -56 30.5 -103.5t72 -76.5t103.5 -22q62 8 112.5 48t79.5 96.5t42 121t8 123.5q-6 57 -31 103t-71.5 72.5t-104.5 18.5zM375 948l61 -4l24 -42l52 -114q-8 0 -14.5 2t-10.5 3.5t-9.5 7.5t-7 8t-8 11t-7.5 11 q-7 9 -26.5 35t-32 45t-21.5 37zM402 748q63 9 118.5 -12.5t92 -63.5t55.5 -98.5t15 -117.5q-8 -125 -94.5 -222.5t-209.5 -112.5q-70 -8 -129.5 16.5t-96.5 71.5t-53 110t-5 129q20 114 107 198.5t200 101.5z" />
<glyph unicode="&#xd3;" horiz-adv-x="667" d="M406 724q-62 -9 -112 -47.5t-79.5 -93t-42.5 -117.5t-7 -123q5 -56 30.5 -103.5t72 -76.5t103.5 -22q62 8 112.5 48t79.5 96.5t42 121t8 123.5q-6 57 -31 103t-71.5 72.5t-104.5 18.5zM367 788l74 117l33 41l61 2q-13 -18 -30 -37t-42 -44.5t-33 -35.5q-3 -3 -11 -12 t-11.5 -12t-10.5 -8.5t-14 -7.5t-16 -3zM363 788l4 -4zM402 748q63 9 118.5 -12.5t92 -63.5t55.5 -98.5t15 -117.5q-8 -125 -94.5 -222.5t-209.5 -112.5q-70 -8 -129.5 16.5t-96.5 71.5t-53 110t-5 129q20 114 107 198.5t200 101.5z" />
<glyph unicode="&#xd4;" horiz-adv-x="667" d="M406 724q-62 -9 -112 -47.5t-79.5 -93t-42.5 -117.5t-7 -123q5 -56 30.5 -103.5t72 -76.5t103.5 -22q62 8 112.5 48t79.5 96.5t42 121t8 123.5q-6 57 -31 103t-71.5 72.5t-104.5 18.5zM328 788q44 71 108 145q10 11 27 15.5t31 -4.5q4 -3 6.5 -10t3.5 -19t1 -13 q0 -4 6.5 -48t11.5 -66q-11 1 -20 7t-16 19.5t-10.5 22.5t-9 27.5t-6.5 21.5q-7 -7 -27.5 -28t-34 -33.5t-34 -24t-37.5 -12.5zM402 748q63 9 118.5 -12.5t92 -63.5t55.5 -98.5t15 -117.5q-8 -125 -94.5 -222.5t-209.5 -112.5q-70 -8 -129.5 16.5t-96.5 71.5t-53 110t-5 129 q20 114 107 198.5t200 101.5z" />
<glyph unicode="&#xd5;" horiz-adv-x="667" d="M406 724q-62 -9 -112 -47.5t-79.5 -93t-42.5 -117.5t-7 -123q5 -56 30.5 -103.5t72 -76.5t103.5 -22q62 8 112.5 48t79.5 96.5t42 121t8 123.5q-6 57 -31 103t-71.5 72.5t-104.5 18.5zM402 748q63 9 118.5 -12.5t92 -63.5t55.5 -98.5t15 -117.5q-8 -125 -94.5 -222.5 t-209.5 -112.5q-70 -8 -129.5 16.5t-96.5 71.5t-53 110t-5 129q20 114 107 198.5t200 101.5zM312 808q8 21 17 39t19 27q18 18 39 19t36.5 -8.5t37.5 -19t39 -9.5q15 1 32 19t30 19q-3 -22 -11 -39q-7 -16 -17 -26q-20 -20 -41 -21t-37 9.5t-38 21.5t-39 10q-15 0 -33.5 -20 t-33.5 -21z" />
<glyph unicode="&#xd6;" horiz-adv-x="667" d="M402 724q-61 -10 -111 -49.5t-79 -94.5t-41.5 -118.5t-5.5 -122.5q5 -40 21 -77t40.5 -66.5t61.5 -45t79 -9.5q63 8 113.5 48t79 96.5t42 120.5t7.5 124q-6 57 -31 103.5t-71.5 73t-104.5 17.5zM359 879q21 8 34.5 -6t11.5 -34.5t-22 -27.5q-20 -8 -34 6t-11.5 34.5 t21.5 27.5zM508 879q20 8 34 -6t11.5 -34.5t-22.5 -27.5q-20 -8 -34 6t-11.5 34.5t22.5 27.5zM402 748q63 8 117.5 -13.5t90.5 -63t54.5 -98.5t14.5 -117q-8 -125 -94.5 -222.5t-209.5 -112.5q-70 -8 -128.5 17t-94.5 72t-51.5 110t-5.5 128q20 114 107 199t200 101z" />
<glyph unicode="&#xd7;" horiz-adv-x="667" d="M125 312l160 160q2 1 17.5 14.5t24.5 24.5t9 19q0 9 -8.5 19t-22.5 22t-16 14l-113 113q-3 3 -15.5 14t-20.5 20t-10 17q-7 28 18 26q23 -2 40 -18l195 -191q26 36 62.5 73t84.5 79.5t72 65.5h3l23 -34l-58 -59l-160 -157v-4q36 -25 73 -60t83.5 -85t66.5 -69v-4l-35 -27 l-47 38l-121 122l-51 42l-63 -50l-156 -157h-4l-31 28v4z" />
<glyph unicode="&#xd8;" horiz-adv-x="667" d="M188 241h3l136 149l243 262q-35 56 -96.5 71t-121 -8t-100.5 -71q-46 -56 -67 -125t-19 -137t22 -141zM582 624q-100 -100 -167 -176q-46 -51 -114 -121q-3 -2 -30.5 -27t-43.5 -44.5t-17 -33.5q-1 -22 40 -50q71 -47 156 -23q49 14 87 47t61 78.5t36.5 91.5t19.5 98 q3 26 3.5 54.5t-7.5 58.5t-24 47zM152 206q-31 29 -46.5 78t-15.5 98q0 80 35.5 156t99.5 131t142 72q86 19 156 -6q7 -3 37 -22.5t42 -18.5q13 1 37.5 27t28.5 28l16 -15v-4q-3 -3 -19.5 -17t-25.5 -25t-11 -21q0 -7 4.5 -17t12.5 -21.5t10 -16.5q24 -53 28 -113 q5 -71 -21.5 -143.5t-75.5 -125.5q-53 -57 -122 -86t-144 -24q-55 5 -101 30q-4 2 -13.5 9.5t-18 12.5t-15.5 4q-11 -1 -23 -11.5t-26.5 -28t-17.5 -20.5h-3l-16 16v4l66 66v4z" />
<glyph unicode="&#xd9;" horiz-adv-x="646" d="M363 948l61 -4l26 -42l54 -114q-19 0 -38.5 15t-39.5 43t-30.5 46t-26.5 46q-4 7 -6 10zM141 738h230q-3 -14 -19 -19.5t-36 -9.5t-29 -15q-13 -16 -20.5 -41t-13.5 -60.5t-8 -46.5q-30 -119 -38 -180q-12 -84 13 -132q19 -38 58 -63t81.5 -27.5t81.5 22.5q31 23 54.5 58 t38 80.5t24 84t19.5 91t16 78.5q2 8 9.5 32t11.5 39.5t7 39.5t-3 32q-1 5 -5 8t-9.5 4.5l-11 3t-13 1.5h-12h-11.5h-9v20h187v-20q-3 0 -14 -1.5t-16.5 -2t-13.5 -3t-14 -6.5q-16 -10 -27.5 -32t-16 -41t-10.5 -49t-9 -41q-5 -22 -12.5 -60.5t-13.5 -68.5t-16.5 -69 t-21.5 -68.5t-29 -60t-39.5 -50.5t-52.5 -33.5t-69 -15.5q-48 -1 -86 11q-43 14 -66 31q-21 16 -35.5 36.5t-22.5 40.5t-10.5 47.5t-2 48t6 52t9.5 49t12 50t10 45.5l29 132q0 1 2.5 9t3 11t1.5 9.5t-0.5 11t-4.5 7.5q-6 6 -15.5 8.5t-16 3t-20.5 0t-16 -0.5z" />
<glyph unicode="&#xda;" horiz-adv-x="646" d="M383 788l70 110l36 46l62 4q-9 -12 -18.5 -24t-24 -27.5t-20.5 -21.5t-25 -25.5t-22 -22.5q-2 -2 -9.5 -10.5t-11 -11.5t-10 -8t-13 -6.5t-14.5 -2.5zM141 738h230q-3 -14 -19 -19.5t-36 -9.5t-29 -15q-13 -16 -20.5 -41t-13.5 -60.5t-8 -46.5q-30 -119 -38 -180 q-12 -84 13 -132q19 -38 58 -63t81.5 -27.5t81.5 22.5q31 23 54.5 58t38 80.5t24 84t19.5 91t16 78.5q2 8 9.5 32t11.5 39.5t7 39.5t-3 32q-1 5 -5 8t-9.5 4.5l-11 3t-13 1.5h-12h-11.5h-9v20h187v-20q-3 0 -14 -1.5t-16.5 -2t-13.5 -3t-14 -6.5q-16 -10 -27.5 -32t-16 -41 t-10.5 -49t-9 -41q-5 -22 -12.5 -60.5t-13.5 -68.5t-16.5 -69t-21.5 -68.5t-29 -60t-39.5 -50.5t-52.5 -33.5t-69 -15.5q-48 -1 -86 11q-43 14 -66 31q-21 16 -35.5 36.5t-22.5 40.5t-10.5 47.5t-2 48t6 52t9.5 49t12 50t10 45.5l29 132q0 1 2.5 9t3 11t1.5 9.5t-0.5 11 t-4.5 7.5q-6 6 -15.5 8.5t-16 3t-20.5 0t-16 -0.5z" />
<glyph unicode="&#xdb;" horiz-adv-x="646" d="M348 788l80 114l38 42l50 4l23 -160h-23l-39 98q-3 -3 -26 -26.5t-35 -34.5t-32 -23.5t-36 -13.5zM344 788l4 -4zM141 738h230q-3 -14 -19 -19.5t-36 -9.5t-29 -15q-13 -16 -20.5 -41t-13.5 -60.5t-8 -46.5q-30 -119 -38 -180q-12 -84 13 -132q19 -38 58 -63t81.5 -27.5 t81.5 22.5q31 23 54.5 58t38 80.5t24 84t19.5 91t16 78.5q2 8 9.5 32t11.5 39.5t7 39.5t-3 32q-1 5 -5 8t-9.5 4.5l-11 3t-13 1.5h-12h-11.5h-9v20h187v-20q-3 0 -14 -1.5t-16.5 -2t-13.5 -3t-14 -6.5q-16 -10 -27.5 -32t-16 -41t-10.5 -49t-9 -41q-5 -22 -12.5 -60.5 t-13.5 -68.5t-16.5 -69t-21.5 -68.5t-29 -60t-39.5 -50.5t-52.5 -33.5t-69 -15.5q-48 -1 -86 11q-43 14 -66 31q-21 16 -35.5 36.5t-22.5 40.5t-10.5 47.5t-2 48t6 52t9.5 49t12 50t10 45.5l29 132q0 1 2.5 9t3 11t1.5 9.5t-0.5 11t-4.5 7.5q-6 6 -15.5 8.5t-16 3t-20.5 0 t-16 -0.5z" />
<glyph unicode="&#xdc;" horiz-adv-x="646" d="M379 879q20 8 34 -6t11.5 -34.5t-22.5 -27.5q-20 -8 -34 6t-11.5 34.5t22.5 27.5zM523 879q21 8 35 -6t11.5 -34.5t-22.5 -27.5q-20 -8 -34 6t-11.5 34.5t21.5 27.5zM141 738h234q-9 -18 -40 -23t-41 -14q-15 -14 -23 -37t-14.5 -59t-7.5 -43q-30 -119 -41 -188 q-14 -90 12 -140q19 -38 58 -63t81.5 -27.5t81.5 22.5q31 23 54.5 58t38 80.5t24 84t19.5 91t16 78.5q2 8 9.5 32t11.5 39.5t7 39.5t-3 32q-1 5 -5 8t-9.5 4.5l-11 3t-13 1.5h-12h-11.5h-9v20h187v-20q-3 0 -14 -1.5t-16.5 -2t-13.5 -3t-14 -6.5q-16 -10 -27.5 -32t-16 -41 t-10.5 -49t-9 -41q-5 -22 -12.5 -60.5t-13.5 -68.5t-16.5 -69t-21.5 -68.5t-29 -60t-39.5 -50.5t-52.5 -33.5t-69 -15.5q-48 -1 -86 11q-43 14 -66 31q-21 16 -35.5 36.5t-22.5 40.5t-10.5 47.5t-2 48t6 52t9.5 49t12 50t10 45.5l29 132q0 1 2.5 9t3 11t1.5 9.5t-0.5 11 t-4.5 7.5q-6 6 -15.5 8.5t-16 3t-20.5 0t-16 -0.5z" />
<glyph unicode="&#xdd;" horiz-adv-x="510" d="M312 788q4 6 11 19.5t12 22.5t13 23.5t15 24.5t16.5 22.5t18 20.5t19.5 15.5t21.5 10.5t22 3t23.5 -5q-17 -14 -35 -33t-38.5 -44t-31.5 -37q-2 -2 -10 -10.5t-10 -10.5t-9 -8t-11.5 -8t-11.5 -4t-15 -2zM113 738h211q-5 -15 -19.5 -19.5t-28.5 -8t-19 -16.5 q-2 -15 -1.5 -21.5t6 -23.5t6.5 -21q2 -7 9 -41t10.5 -49t11.5 -39.5t17 -42.5q20 38 75.5 103t64.5 77q1 2 10.5 13.5t15.5 19.5t10.5 19t1.5 17q-1 5 -5.5 8t-12 4t-12 1.5t-13.5 0t-10 -0.5v20h168v-20q-13 0 -25 -3t-23.5 -10t-19.5 -12.5t-19 -17.5t-16 -18t-16.5 -21 t-15.5 -20q-12 -15 -47 -55t-57.5 -70.5t-38.5 -61.5q-6 -13 -11.5 -30t-8.5 -29t-7.5 -32.5t-7.5 -29.5q-23 -98 -25 -106q0 -1 -1.5 -7.5t-2 -9.5t-0.5 -8t1 -9t4 -7q9 -12 26 -14.5t46 1t31 4.5q-2 -9 -7 -14.5t-14 -7.5t-15 -2.5t-18.5 0t-15.5 0.5q-36 0 -107.5 -2 t-107.5 -2l4 20q4 0 16 -0.5t18 0t16 1.5t17.5 4t13.5 8q5 4 9 9t6.5 9.5t5 12l3.5 10.5t3.5 12.5t2.5 11.5q4 12 15 47.5t17 58.5t10.5 53t2.5 52q-3 26 -17.5 75t-16.5 58t-7.5 33t-8.5 35.5t-10.5 29.5t-16.5 27t-24.5 17t-35.5 10v20z" />
<glyph unicode="&#xde;" horiz-adv-x="500" d="M195 734v-4h125zM272 581q-10 -7 -16 -27.5t-10 -48t-5 -33.5l-28 -110l-4 -14t-3.5 -16.5t0.5 -14.5q4 -13 48 -13q85 -1 129 31q47 35 53.5 99t-34.5 108q-22 21 -65.5 38t-64.5 1zM47 132v-4h137zM117 714q7 17 26.5 20t36.5 -1q3 -2 95.5 -0.5t95.5 1.5v-20 q-49 -9 -70 -32t-28 -73q117 0 180 -52q52 -45 50.5 -117t-54.5 -115q-25 -22 -56 -33.5t-67 -13.5t-63.5 -0.5t-67.5 6.5l-23 -125l90 -11l-4 -20h-238q1 14 8 19t21.5 6.5t20.5 4.5q21 9 32 37q20 50 35 109.5t30.5 140t23.5 113.5q1 7 6 22.5t8.5 29.5t6.5 29.5t3 29 t-4 21.5q-5 9 -12.5 14.5t-20 7.5t-20 2.5t-23.5 0t-18 -0.5z" />
<glyph unicode="&#xdf;" horiz-adv-x="385" d="M219 476q3 11 15 20t28.5 18t22.5 14q86 70 82 159q-1 34 -23 60t-55 25q-22 -1 -40 -16.5t-28 -37.5q-7 -14 -13 -31t-10 -30.5t-8 -35t-6 -32t-6 -35t-5 -31.5q-10 -57 -30.5 -159.5t-26.5 -137.5q-3 -13 -9.5 -52.5t-10.5 -59t-12.5 -50t-18.5 -53.5 q-25 -57 -70.5 -95.5t-103.5 -47.5q-10 -1 -22 -1t-26.5 2.5t-19 10t0.5 21.5q7 13 22.5 15.5t38.5 -0.5t29 -3q75 6 104 82q9 25 15 52.5t13 66.5t9 53l68 356q2 10 8 40.5t9 44.5t10 41t14.5 43.5t19 36.5t25.5 35q25 27 61 33.5t67 -5.5t54.5 -40.5t26.5 -64.5 q2 -32 -8 -60t-31.5 -50.5t-42.5 -38.5t-51 -35q50 -10 75.5 -46t24.5 -83t-16.5 -95t-46 -88t-64.5 -57q-54 -27 -90 -5q-31 20 -24 46t40 35q0 -45 22.5 -61t57.5 18q22 25 39 63.5t22.5 80.5t-0.5 79t-33.5 61t-72.5 25z" />
<glyph unicode="&#xe0;" horiz-adv-x="344" d="M277 448q-71 -5 -97 -21q-23 -13 -39.5 -40.5t-23 -50.5t-13.5 -56q0 -1 -4 -16t-5 -24.5t-2.5 -23.5t1.5 -23.5t10 -13.5q5 -1 9 -2t11.5 4l12 8t11.5 9.5t11 10.5t9.5 10t6.5 7q44 47 64 94.5t38 127.5zM230 269q-30 -59 -109 -128q-39 -36 -65 -8q-31 34 -1 140 q17 63 54.5 117.5t89.5 79.5q10 5 22 8.5t21 6t25 5.5t22 3.5t25.5 3t21.5 2.5q-3 -13 -53 -242q-1 -3 -5 -18t-6.5 -25.5t-2.5 -23t4 -17.5q5 -4 9.5 -4.5t11 4t11.5 9t11 11t9.5 10.5t6.5 7l16 -8q-17 -31 -54 -60q-54 -43 -72 2q-6 10 -5 29.5t3.5 32.5t7.5 32.5t6 30.5 h-4zM211 710l61 -4l26 -47l50 -109q-8 0 -14.5 2t-10.5 3.5t-9.5 7.5t-7 8t-8 11t-7.5 11q-7 9 -26.5 35t-32 44.5t-21.5 37.5z" />
<glyph unicode="&#xe1;" horiz-adv-x="344" d="M277 448q-71 -5 -97 -21q-23 -13 -39.5 -40.5t-23 -50.5t-13.5 -56q0 -1 -4 -16t-5 -24.5t-2.5 -23.5t1.5 -23.5t10 -13.5q5 -1 9 -2t11.5 4l12 8t11.5 9.5t11 10.5t9.5 10t6.5 7q44 47 64 94.5t38 127.5zM203 550q3 5 10.5 18.5t12 22.5t13.5 23.5t15.5 24.5t16.5 22.5 t18.5 20.5t19.5 15.5t21 10.5t22 3t23 -5q-18 -14 -36.5 -32.5t-40.5 -44t-32 -36.5q-4 -4 -11 -12t-11 -12t-11 -9t-14 -7.5t-16 -2.5zM230 269q-30 -59 -109 -128q-39 -36 -65 -8q-31 34 -1 140q17 63 54.5 117.5t89.5 79.5q10 5 22 8.5t21 6t25 5.5t22 3.5t25.5 3 t21.5 2.5q-3 -13 -53 -242q-1 -3 -5 -18t-6.5 -25.5t-2.5 -23t4 -17.5q5 -4 9.5 -4.5t11 4t11.5 9t11 11t9.5 10.5t6.5 7l16 -8q-17 -31 -54 -60q-54 -43 -72 2q-6 10 -5 29.5t3.5 32.5t7.5 32.5t6 30.5h-4z" />
<glyph unicode="&#xe2;" horiz-adv-x="344" d="M277 448q-71 -5 -97 -21q-23 -13 -39.5 -40.5t-23 -50.5t-13.5 -56q0 -1 -4 -16t-5 -24.5t-2.5 -23.5t1.5 -23.5t10 -13.5q5 -1 9 -2t11.5 4l12 8t11.5 9.5t11 10.5t9.5 10t6.5 7q44 47 64 94.5t38 127.5zM230 269q-30 -59 -109 -128q-39 -36 -65 -8q-31 34 -1 140 q17 63 54.5 117.5t89.5 79.5q10 5 22 8.5t21 6t25 5.5t22 3.5t25.5 3t21.5 2.5q-3 -13 -53 -242q-1 -3 -5 -18t-6.5 -25.5t-2.5 -23t4 -17.5q5 -4 9.5 -4.5t11 4t11.5 9t11 11t9.5 10.5t6.5 7l16 -8q-17 -31 -54 -60q-54 -43 -72 2q-6 10 -5 29.5t3.5 32.5t7.5 32.5t6 30.5 h-4zM168 550l83 113l39 45l46 2l27 -160q-13 0 -23 9t-17.5 25.5t-11.5 27.5t-8 29q-2 5 -2 7q-10 -8 -37 -36.5t-50.5 -44.5t-45.5 -17z" />
<glyph unicode="&#xe3;" horiz-adv-x="344" d="M277 448q-79 0 -118 -43.5t-56 -127.5q0 -3 -3.5 -16.5t-5 -22t-2.5 -21t1.5 -21.5t7.5 -15q2 -2 5 -3t6 -1t5.5 1t6 3t6 4t5.5 5t5 4.5t5 4.5l3 3q6 6 21.5 20.5t24 23t20 21.5t19 26t12.5 27q7 21 16.5 64.5t15.5 63.5zM234 269q-2 -3 -42 -51t-63 -70q-33 -31 -55 -26 q-21 5 -29 27t-4.5 52t9 53t12.5 42q20 57 55 104.5t82 69.5q10 5 22 8.5t21 6t25 5.5t22 3.5t25.5 3t21.5 2.5q-3 -13 -53 -242q-1 -3 -5 -18t-6.5 -25.5t-2.5 -23t4 -17.5q5 -4 9.5 -4.5t11 4t11.5 9t11 11t9.5 10.5t6.5 7l16 -8q-7 -12 -22 -29.5t-35 -33.5t-37.5 -17.5 t-29.5 18.5q-6 12 -6.5 30.5t2 32.5t8 36.5t6.5 29.5zM152 570q7 25 16 39q8 15 20 27q18 18 38.5 19t36.5 -9t37.5 -19.5t39.5 -8.5q13 1 30.5 18.5t31.5 18.5q-5 -23 -12 -39q-9 -17 -19 -27q-20 -19 -41 -19.5t-37 10.5t-38.5 21.5t-39.5 9.5q-15 -1 -31.5 -20.5 t-31.5 -20.5z" />
<glyph unicode="&#xe4;" horiz-adv-x="344" d="M273 448q-78 0 -115.5 -43.5t-54.5 -127.5q0 -3 -3.5 -16.5t-5 -22t-2.5 -21t1.5 -21.5t7.5 -15q4 -4 9.5 -4t11 3t11.5 7t12 10l11 11t9.5 10.5t6.5 7.5q46 46 69 98.5t32 123.5zM234 269q-14 -16 -47.5 -56.5t-53.5 -60.5l-5.5 -5.5l-5.5 -5.5t-5.5 -5t-5.5 -4.5 t-5.5 -4t-6 -3t-7 -2.5t-7 -1t-7.5 1q-23 4 -32 26t-5 53t9.5 55.5t12.5 43.5q22 58 58.5 105t85.5 68q9 4 20.5 7.5t20.5 5.5t23 4.5t21 3.5t23.5 3t20.5 2q-20 -79 -53 -242q-1 -4 -5 -18.5t-6.5 -25t-2.5 -23t4 -17.5q5 -4 9.5 -4.5t11 4t11.5 9t11 11t9.5 10.5t6.5 7 l16 -8q-7 -12 -21.5 -29t-33.5 -33t-36.5 -18.5t-30.5 14.5q-4 7 -6.5 15.5t-2.5 19.5t0.5 19.5t3.5 22t4 20t5 20t4 16.5zM199 641q20 7 34 -7t11.5 -34t-21.5 -28q-21 -7 -35 7t-11.5 34t22.5 28zM344 641q20 7 34 -7t11.5 -34t-22.5 -28q-20 -7 -34 7t-11.5 34t22.5 28z " />
<glyph unicode="&#xe5;" horiz-adv-x="344" d="M277 448q-78 0 -116 -42t-57 -126q0 -2 -3 -13.5t-4.5 -18t-3 -18.5t-1.5 -20t2 -16t7 -13q4 -3 9.5 -3.5t11.5 2.5t12 7t13 10.5t11.5 11l10.5 10.5l7 7q46 46 69 98.5t32 123.5zM234 269q-7 -9 -43.5 -53.5t-58.5 -66.5q-33 -33 -58 -26q-17 4 -25 20.5t-8.5 35.5 t3.5 44t8.5 41t9.5 32q20 56 56.5 104t84.5 71q10 4 22 8t21.5 6t24.5 4.5t22 3.5l24.5 3.5t22.5 2.5q-10 -47 -30.5 -132t-25.5 -110q-1 -4 -4 -14t-5.5 -19t-4.5 -19.5t-1 -18.5t4 -13q5 -4 9.5 -4.5t11 4t11.5 9t11 11t9.5 10.5t6.5 7l16 -8q-7 -12 -22 -29.5t-35 -33.5 t-37.5 -17.5t-29.5 18.5q-6 12 -6.5 30.5t2 32.5t8 36.5t6.5 29.5zM242 680.5q-31 -8.5 -37 -37t13.5 -50.5t51.5 -13q30 8 36 36.5t-13.5 50.5t-50.5 13.5zM238.5 704q27.5 6 49.5 -5t31.5 -31.5t10.5 -43.5t-14 -42.5t-42.5 -25.5t-49.5 5t-32 31.5t-10.5 43.5t14.5 42.5 t42.5 25.5z" />
<glyph unicode="&#xe6;" horiz-adv-x="406" d="M262 320q77 32 103 78q20 35 1 52q-8 7 -18.5 5.5t-19 -6.5t-16.5 -12q-30 -32 -50 -117zM262 445q-9 -3 -40 -7.5t-46 -12.5q-18 -10 -31 -28t-21.5 -43.5t-12.5 -41.5t-9 -43q-1 -2 -3 -10.5t-3 -14.5t-2.5 -16t-1.5 -17t0.5 -14.5t3.5 -13t7 -8.5q22 -13 69 43 q17 21 28.5 47t22.5 63.5t17 53.5q2 6 8.5 19t10.5 24t3 20zM195 230q-26 -51 -93 -95q-36 -23 -51 -5q-27 31 -2 131q17 72 58.5 131.5t103.5 85.5q18 8 55.5 12t45.5 5l-19 -50q63 48 102 46q16 -1 24 -13t7 -28t-6 -31t-12 -25q-29 -41 -88 -69q-1 -1 -26.5 -9.5 t-32.5 -17.5q-10 -11 -15 -42t1.5 -58.5t25.5 -28.5q22 -1 60 22.5t46 26.5l8 -16q-11 -4 -38 -22.5t-50 -32t-48 -22t-40 4t-16 49.5q0 1 4 51h-4z" />
<glyph unicode="&#xe7;" horiz-adv-x="250" d="M20 58l3 -4zM70 124q-14 8 -22 21t-8.5 31t1 29.5t5.5 32.5q30 152 106 221q15 14 33.5 23t40.5 11t39 -10q12 -8 11 -23.5t-15 -21.5q-13 -6 -44 1t-45 -3q-18 -10 -31.5 -32t-21 -54t-11 -51.5t-6.5 -49.5q-1 -3 -2.5 -14.5t-2 -17.5t0.5 -14.5t4 -15.5q8 -20 25 -19.5 t33.5 13t34 19.5t28.5 -2q-13 -11 -69.5 -43t-71.5 -58q53 -11 62.5 -52.5t-31.5 -75.5q-32 -28 -73 -36t-99 -8q9 18 24 19q72 8 105 40q19 18 17 40t-28 30q-12 4 -36 4z" />
<glyph unicode="&#xe8;" horiz-adv-x="250" d="M113 323q9 4 17.5 9t22.5 13t24.5 15.5t22 18t16.5 20t7 20.5t-7 21q-11 13 -30.5 12.5t-31.5 -12.5q-5 -6 -10 -13t-8.5 -17t-6 -16t-5.5 -19t-4 -17t-3.5 -18.5t-3.5 -16.5zM234 206q-5 -4 -31.5 -24.5t-42.5 -31.5t-40 -21t-42 -8q-17 3 -26.5 15.5t-11 31.5t-1 34.5 t3.5 31.5q6 37 16.5 74t28.5 80t47 72t64 34q37 6 58 -18.5t5 -58.5q-22 -44 -102 -91q-5 -3 -17 -8.5t-20.5 -11t-13.5 -11.5q-8 -10 -13 -29.5t-6 -39.5t7 -36t24 -18q17 -1 34.5 6.5t41 23.5t30.5 20zM164 710l61 -4l26 -47l50 -109q-8 0 -14.5 2t-10.5 3.5t-9.5 7.5 t-7 8t-8 11t-7.5 11q-7 9 -26.5 35t-32 44.5t-21.5 37.5z" />
<glyph unicode="&#xe9;" horiz-adv-x="250" d="M113 323q9 4 17.5 9t22.5 13t24.5 15.5t22 18t16.5 20t7 20.5t-7 21q-11 13 -30.5 12.5t-31.5 -12.5q-5 -6 -10 -13t-8.5 -17t-6 -16t-5.5 -19t-4 -17t-3.5 -18.5t-3.5 -16.5zM156 550l77 117l34 41l57 2q-9 -12 -18.5 -24t-23.5 -27.5t-20.5 -22l-25.5 -25.5t-21.5 -22 t-10 -11t-11 -11t-10 -8t-13 -7t-14.5 -2zM234 206q-5 -4 -31.5 -24.5t-42.5 -31.5t-40 -21t-42 -8q-17 3 -26.5 15.5t-11 31.5t-1 34.5t3.5 31.5q6 37 16.5 74t28.5 80t47 72t64 34q37 6 58 -18.5t5 -58.5q-22 -44 -102 -91q-5 -3 -17 -8.5t-20.5 -11t-13.5 -11.5 q-8 -10 -13 -29.5t-6 -39.5t7 -36t24 -18q17 -1 34.5 6.5t41 23.5t30.5 20z" />
<glyph unicode="&#xea;" horiz-adv-x="250" d="M113 323q9 4 17.5 9t22.5 13t24.5 15.5t22 18t16.5 20t7 20.5t-7 21q-11 13 -30.5 12.5t-31.5 -12.5q-5 -6 -10 -13t-8.5 -17t-6 -16t-5.5 -19t-4 -17t-3.5 -18.5t-3.5 -16.5zM234 206q-5 -4 -31.5 -24.5t-42.5 -31.5t-40 -21t-42 -8q-17 3 -26.5 15.5t-11 31.5t-1 34.5 t3.5 31.5q6 37 16.5 74t28.5 80t47 72t64 34q37 6 58 -18.5t5 -58.5q-22 -44 -102 -91q-5 -3 -17 -8.5t-20.5 -11t-13.5 -11.5q-8 -10 -13 -29.5t-6 -39.5t7 -36t24 -18q17 -1 34.5 6.5t41 23.5t30.5 20zM121 550l80 109l38 47l50 4l27 -160q-17 1 -31.5 19.5t-20.5 38 t-10 40.5q-13 -10 -38.5 -36t-48.5 -43.5t-46 -18.5z" />
<glyph unicode="&#xeb;" horiz-adv-x="250" d="M113 323q9 4 17.5 9t22.5 13t24.5 15.5t22.5 18t16.5 20t6.5 20.5t-7 21q-11 13 -30.5 12.5t-31.5 -12.5q-6 -7 -11.5 -16.5t-9 -17.5t-7 -22l-5 -20t-4.5 -22t-4 -19zM230 206q-4 -3 -30.5 -24.5t-41.5 -32t-38.5 -20.5t-41.5 -7q-21 3 -31 24.5t-8 45t4 42.5 q6 37 16 73.5t28 78t46 71t62 37.5q37 8 60.5 -17t6.5 -60q-23 -44 -98 -88q-4 -3 -19 -9.5t-25 -13t-15 -14.5q-6 -11 -10.5 -30t-5 -38.5t7.5 -34.5t24 -17q16 -1 32.5 6t42 25t27.5 19zM152 641q21 7 34.5 -7t11 -34t-21.5 -28q-21 -7 -34.5 7t-11 34t21.5 28zM297 641 q21 8 36.5 -6t13.5 -34.5t-23 -28.5t-36.5 6t-13.5 34.5t23 28.5z" />
<glyph unicode="&#xec;" horiz-adv-x="208" d="M59 402q5 6 19.5 22t23.5 24q4 4 9 8.5t14 12t17.5 12t17 8.5t15.5 2t10 -9q3 -6 3.5 -16t-2 -21.5t-5.5 -21t-6.5 -21t-4.5 -16.5q-3 -11 -15 -51t-17 -59.5t-10.5 -51.5t-6.5 -57l63 55h4l11 -8q-29 -50 -82 -82q-17 -11 -30.5 -6.5t-16.5 26.5q-1 15 1.5 36t5 30.5 t10.5 38.5t9 31q7 27 19 78t18 75q-8 -5 -22.5 -19t-27 -21.5t-24.5 -2.5v4zM117 710l64 -4l23 -43l54 -113q-9 0 -18.5 3.5t-19 12t-17.5 16t-18 21t-16.5 22t-16 25t-13 22t-12.5 21.5t-10 17z" />
<glyph unicode="&#xed;" horiz-adv-x="208" d="M137 550l73 113l33 43l62 4q-17 -24 -55 -62.5t-49 -50.5q-1 -1 -5.5 -6.5t-6 -7.5t-6 -7t-7 -7t-7 -5.5t-7.5 -5t-7.5 -4t-9 -3.5t-8.5 -1zM59 402q5 6 19.5 22t23.5 24q4 4 9 8.5t14 12t17.5 12t17 8.5t15.5 2t10 -9q3 -6 3.5 -16t-2 -21.5t-5.5 -21t-6.5 -21 t-4.5 -16.5q-3 -11 -15 -51t-17 -59.5t-10.5 -51.5t-6.5 -57l63 55h4l11 -8q-29 -50 -82 -82q-17 -11 -30.5 -6.5t-16.5 26.5q-1 15 1.5 36t5 30.5t10.5 38.5t9 31q7 27 19 78t18 75q-8 -5 -22.5 -19t-27 -21.5t-24.5 -2.5v4z" />
<glyph unicode="&#xee;" horiz-adv-x="208" d="M59 402q5 6 19.5 22t23.5 24q4 4 9 8.5t14 12t17.5 12t17 8.5t15.5 2t10 -9q3 -6 3.5 -16t-2 -21.5t-5.5 -21t-6.5 -21t-4.5 -16.5q-3 -11 -15 -51t-17 -59.5t-10.5 -51.5t-6.5 -57l63 55h4l11 -8q-29 -50 -82 -82q-17 -11 -30.5 -6.5t-16.5 26.5q-1 15 1.5 36t5 30.5 t10.5 38.5t9 31q7 27 19 78t18 75q-8 -5 -22.5 -19t-27 -21.5t-24.5 -2.5v4zM98 550q66 107 112 151q8 8 24 10t26 -3q4 -2 7 -8t4 -10t1.5 -13t0.5 -10q2 -12 7 -36.5t8.5 -44t4.5 -36.5q-13 0 -23.5 9t-18 26t-11 28.5t-8.5 29.5q-1 3 -2 5q-5 -5 -35 -36t-52.5 -46 t-44.5 -16z" />
<glyph unicode="&#xef;" horiz-adv-x="208" d="M133 445l4 -4zM59 402q33 37 43 46q66 60 85 37q4 -5 4 -14t-1.5 -17t-4.5 -19t-4 -14q-7 -37 -25.5 -103.5t-22.5 -83.5q-1 -4 -3.5 -13t-3.5 -14t-2 -12.5t-0.5 -14t1.5 -13.5l59 55l15 -8q-9 -24 -32.5 -46.5t-49.5 -37.5q-17 -10 -30.5 -4.5t-16.5 26.5q-4 41 9.5 92 t32 105t21.5 92l-63 -51h-4l-7 8v4zM133 641q20 7 34 -7t11.5 -34t-22.5 -28q-20 -7 -34 7t-11.5 34t22.5 28zM277 641q21 7 34.5 -7t11 -34t-21.5 -28q-21 -7 -34.5 7t-11 34t21.5 28z" />
<glyph unicode="&#xf0;" horiz-adv-x="344" d="M164 446q-34 -14 -48 -59t-11 -91.5t15 -77.5q11 -30 36.5 -46.5t54.5 -4.5q24 10 40.5 38.5t21.5 62t2.5 67t-12.5 55.5q-15 29 -42.5 48t-56.5 8zM148 749q18 11 33.5 3.5t24 -21t21.5 -28.5t25 -18q10 -2 30.5 7.5t47.5 26.5t29 19l12 -20l-109 -55 q56 -85 66.5 -204.5t-31.5 -213.5q-10 -23 -24.5 -45t-34.5 -41.5t-41.5 -30t-46.5 -7t-48 23.5q-38 34 -45.5 86.5t8 101t44.5 88.5q24 33 49.5 50t56 15t58.5 -30q0 31 -5.5 61t-17 71.5t-16.5 59.5l-113 -59l-8 20l110 54z" />
<glyph unicode="&#xf1;" horiz-adv-x="396" d="M152 570l4 -4zM51 405q5 6 18.5 19.5l21 21t19.5 18t23 16.5q28 18 39 5q9 -9 9 -29t-5.5 -39.5t-12 -42t-7.5 -31.5q6 6 31 33t40 41q21 20 46 38q3 2 11 8t13.5 9.5t14.5 8.5t15.5 7t14 1.5t13 -4.5t9 -11.5t4.5 -13.5t0 -17t-2 -16t-3.5 -16.5t-2.5 -12.5 q-4 -24 -16 -73t-19 -88t-9 -74l59 51h4l8 -8v-4q-5 -5 -20 -21.5t-23 -25.5q-18 -17 -36.5 -25.5t-31.5 1t-10 40.5q3 28 10 59.5t16.5 69.5t13.5 59q11 55 0 68q-5 6 -11.5 7t-14 -2t-14 -6.5t-15 -11.5t-13 -12t-12 -12l-7.5 -8q-16 -16 -29 -34.5t-21.5 -30.5t-18 -37.5 t-13 -33.5t-11 -41t-8 -37t-9.5 -44h-50q3 11 16.5 59t19 70t15 60.5t14 70t5.5 61.5l-70 -55l-8 12v3zM156 570q4 22 16 42q33 55 86 40q10 -3 27 -11t29 -13.5t25.5 -7.5t24.5 6.5t19 28.5h23q-8 -29 -15 -43q-8 -15 -20 -25q-19 -19 -41 -17.5t-36.5 11.5t-36 20.5 t-38.5 9.5q-15 -1 -31.5 -20.5t-31.5 -20.5z" />
<glyph unicode="&#xf2;" horiz-adv-x="313" d="M164 446q-25 -7 -43 -52q-36 -83 -8 -172q10 -30 32 -47.5t50 -9.5q24 6 46 53q20 42 24 87t-11 89q-12 28 -37 44t-53 8zM195 489q42 10 72 -22.5t38 -76.5q11 -56 -10 -117.5t-61 -105.5q-1 -1 -8.5 -9.5t-11 -11.5t-10 -9.5t-12.5 -9.5t-12 -5q-34 -9 -62.5 8.5 t-43.5 46t-20 61.5q-8 45 7 99t51.5 98t82.5 54zM172 710l61 -4l26 -47l50 -109q-8 0 -14.5 2t-10.5 3.5t-9.5 7.5t-7.5 8t-8 11t-7 11q-7 10 -27 35t-32.5 44t-20.5 38z" />
<glyph unicode="&#xf3;" horiz-adv-x="313" d="M164 446q-25 -7 -43 -52q-36 -83 -8 -172q10 -30 32 -47.5t50 -9.5q24 6 46 53q20 42 24 87t-11 89q-12 28 -37 44t-53 8zM164 550l74 113l37 45l57 2q-7 -10 -16.5 -21.5t-16.5 -20t-19.5 -21.5t-18 -19t-20 -20.5l-18.5 -18.5q-3 -3 -10.5 -11t-11 -11t-10 -8t-13 -7 t-14.5 -2zM195 489q42 10 72 -22.5t38 -76.5q11 -56 -10 -117.5t-61 -105.5q-1 -1 -8.5 -9.5t-11 -11.5t-10 -9.5t-12.5 -9.5t-12 -5q-34 -9 -62.5 8.5t-43.5 46t-20 61.5q-8 45 7 99t51.5 98t82.5 54z" />
<glyph unicode="&#xf4;" horiz-adv-x="313" d="M164 446q-25 -7 -43 -52q-36 -83 -8 -172q10 -30 32 -47.5t50 -9.5q24 6 46 53q20 42 24 87t-11 89q-12 28 -37 44t-53 8zM195 489q42 10 72 -22.5t38 -76.5q11 -56 -10 -117.5t-61 -105.5q-1 -1 -8.5 -9.5t-11 -11.5t-10 -9.5t-12.5 -9.5t-12 -5q-34 -9 -62.5 8.5 t-43.5 46t-20 61.5q-8 45 7 99t51.5 98t82.5 54zM129 550l83 113l39 45l46 2l23 -160h-23l-39 98q-3 -4 -25.5 -27.5t-34.5 -34.5t-32.5 -23t-36.5 -13z" />
<glyph unicode="&#xf5;" horiz-adv-x="313" d="M164 446q-25 -7 -43 -52q-36 -83 -8 -172q10 -30 32 -47.5t50 -9.5q24 6 46 53q20 42 24 87t-11 89q-12 28 -37 44t-53 8zM195 489q42 10 72 -22.5t38 -76.5q11 -56 -10 -117.5t-61 -105.5q-1 -1 -8.5 -9.5t-11 -11.5t-10 -9.5t-12.5 -9.5t-12 -5q-34 -9 -62.5 8.5 t-43.5 46t-20 61.5q-8 45 7 99t51.5 98t82.5 54zM113 570q5 21 15 39q8 15 18 26q18 19 38.5 20t36.5 -7.5t38 -19t38 -10.5q15 -1 33.5 17.5t32.5 19.5q-5 -23 -13 -39t-18 -27q-19 -19 -40 -19.5t-36.5 9t-37.5 20.5t-38 12t-34 -19.5t-33 -21.5z" />
<glyph unicode="&#xf6;" horiz-adv-x="313" d="M164 446q-25 -7 -43 -52q-36 -83 -8 -172q10 -30 32 -47.5t50 -9.5q24 6 46 53q20 42 24 87t-11 89q-12 28 -37 44t-53 8zM195 489q42 10 72 -22.5t38 -76.5q11 -56 -10 -117.5t-61 -105.5q-1 -1 -8.5 -9.5t-11 -11.5t-10 -9.5t-12.5 -9.5t-12 -5q-34 -9 -62.5 8.5 t-43.5 46t-20 61.5q-8 45 7 99t51.5 98t82.5 54zM160 641q20 7 34 -7t11.5 -34t-21.5 -28q-21 -7 -35 7t-11.5 34t22.5 28zM305 641q20 7 34 -7t11.5 -34t-22.5 -28q-20 -7 -34 7t-11.5 34t22.5 28z" />
<glyph unicode="&#xf7;" horiz-adv-x="667" d="M363 223.5q19 5.5 31.5 -7.5t9.5 -30.5t-21.5 -23t-31 7t-10 30.5t21.5 23.5zM363 652.5q19 5.5 31.5 -7.5t9.5 -31t-21.5 -23t-31 8t-10 30.5t21.5 23zM98 429h558v-47h-558v47z" />
<glyph unicode="&#xf8;" horiz-adv-x="313" d="M109 222q18 18 34.5 41.5t37 57t29.5 45.5q0 1 10.5 14.5t15 23t1.5 16.5q-14 32 -52.5 27.5t-54.5 -30.5q-17 -27 -23 -64t-4.5 -62.5t6.5 -68.5zM250 398q-9 -14 -19 -29t-22.5 -33t-19.5 -28q-34 -50 -41 -59q-1 -2 -6.5 -9.5t-9 -12.5t-6 -12t-2.5 -13 q1 -25 30 -35.5t49 1.5q21 10 37.5 41t23.5 66t4 70t-18 53zM293 503l19 -12q-2 -4 -10 -14.5t-11.5 -19t-1.5 -16.5t10 -32t9 -39q8 -88 -59 -183q-22 -32 -47 -49t-55 -14.5t-57 31.5l-24 -39l-19 12v4q17 22 17.5 46.5t-7 56.5t-6.5 53q2 39 22 83.5t55.5 79.5t74.5 40 q10 1 20 -1.5t16 -5t18 -8.5l16 -8z" />
<glyph unicode="&#xf9;" horiz-adv-x="406" d="M318 376l1 -3zM223 710l64 -4l25 -47l51 -109q-16 0 -32.5 11t-34 34t-28 38.5t-27 44.5t-18.5 32zM27 362q11 25 46 67q20 23 32 34q14 11 27.5 18.5t26.5 9t19.5 -9t4.5 -33.5q-3 -33 -18 -96t-17 -75q-1 -1 -2.5 -9t-2.5 -14.5t-2.5 -16t-1.5 -16.5t0.5 -13.5t4 -9.5 t8.5 -1q8 2 16.5 9t13.5 12.5t14 17t11 13.5q63 76 108 160q4 8 10 21.5t10.5 21.5t11.5 17t16.5 14.5t23.5 7.5q0 -34 -6.5 -69.5t-20.5 -88.5t-18 -68q0 -3 -3 -14t-5 -19.5t-4 -19.5t-1.5 -19t3.5 -12q15 -21 63 41l15 -4q-9 -24 -32.5 -47.5t-49.5 -39.5 q-14 -10 -29.5 -6t-19.5 23q-1 16 -1 21.5t5 23t5 21.5q3 13 11 48t12 60t5 48h-4q-46 -107 -152 -211q-4 -4 -9 -8.5t-13.5 -11t-16.5 -11t-16 -7t-14.5 0t-10.5 10.5q-3 7 -4 16t0.5 20t2.5 18.5t4 19.5l4 16q3 19 16 65.5t19 83t3 66.5z" />
<glyph unicode="&#xfa;" horiz-adv-x="406" d="M318 376l1 -3zM238 550l74 113l33 43l61 4q-13 -19 -31 -38.5t-40.5 -42.5t-34.5 -36q-1 -1 -3 -4q-11 -12 -17.5 -18.5t-18 -13t-23.5 -7.5zM27 362q11 25 46 67q20 23 32 34q14 11 27.5 18.5t26.5 9t19.5 -9t4.5 -33.5q-3 -33 -18 -96t-17 -75q-1 -1 -2.5 -9 t-2.5 -14.5t-2.5 -16t-1.5 -16.5t0.5 -13.5t4 -9.5t8.5 -1q8 2 16.5 9t13.5 12.5t14 17t11 13.5q63 76 108 160q4 8 10 21.5t10.5 21.5t11.5 17t16.5 14.5t23.5 7.5q0 -34 -6.5 -69.5t-20.5 -88.5t-18 -68q0 -3 -3 -14t-5 -19.5t-4 -19.5t-1.5 -19t3.5 -12q15 -21 63 41 l15 -4q-9 -24 -32.5 -47.5t-49.5 -39.5q-14 -10 -29.5 -6t-19.5 23q-1 16 -1 21.5t5 23t5 21.5q3 13 11 48t12 60t5 48h-4q-46 -107 -152 -211q-4 -4 -9 -8.5t-13.5 -11t-16.5 -11t-16 -7t-14.5 0t-10.5 10.5q-3 7 -4 16t0.5 20t2.5 18.5t4 19.5l4 16q3 19 16 65.5t19 83 t3 66.5z" />
<glyph unicode="&#xfb;" horiz-adv-x="406" d="M318 376l1 -3zM176 550q3 4 17.5 27t21 32t21 29t25 29t25.5 21t30.5 17t31.5 5l27 -160h-27l-39 98q-5 -5 -21.5 -22t-27 -27t-26 -22.5t-30.5 -19.5t-28 -7zM27 362q11 25 46 67q20 23 32 34q14 11 27.5 18.5t26.5 9t19.5 -9t4.5 -33.5q-3 -33 -18 -96t-17 -75 q-1 -1 -2.5 -9t-2.5 -14.5t-2.5 -16t-1.5 -16.5t0.5 -13.5t4 -9.5t8.5 -1q8 2 16.5 9t13.5 12.5t14 17t11 13.5q63 76 108 160q4 8 10 21.5t10.5 21.5t11.5 17t16.5 14.5t23.5 7.5q0 -34 -6.5 -69.5t-20.5 -88.5t-18 -68q0 -3 -3 -14t-5 -19.5t-4 -19.5t-1.5 -19t3.5 -12 q15 -21 63 41l15 -4q-9 -24 -32.5 -47.5t-49.5 -39.5q-14 -10 -29.5 -6t-19.5 23q-1 16 -1 21.5t5 23t5 21.5q3 13 11 48t12 60t5 48h-4q-46 -107 -152 -211q-4 -4 -9 -8.5t-13.5 -11t-16.5 -11t-16 -7t-14.5 0t-10.5 10.5q-3 7 -4 16t0.5 20t2.5 18.5t4 19.5l4 16 q3 19 16 65.5t19 83t3 66.5z" />
<glyph unicode="&#xfc;" horiz-adv-x="406" d="M207 641q20 7 34 -7t11.5 -34t-22.5 -28q-20 -7 -34 7t-11.5 34t22.5 28zM352 641q20 7 34 -7t11.5 -34t-22.5 -28q-20 -7 -34 7t-11.5 34t22.5 28zM27 362q11 25 46 67q16 19 32 35q8 7 17.5 14t22 13t22 2.5t12.5 -17.5q5 -26 0.5 -60t-16.5 -80.5t-15 -58.5 q0 -1 -2.5 -13t-4.5 -21.5t-3 -21.5t1.5 -18.5t8.5 -5.5q9 0 19 8t16.5 15.5t16.5 21t12 15.5q58 72 99 152q4 7 10.5 21.5t10.5 22t11 16.5t17 14.5t23 7.5q0 -34 -6.5 -69.5t-20.5 -88.5t-18 -68q0 -3 -3 -14t-5 -19.5t-4 -19.5t-1.5 -19t3.5 -12q15 -21 63 41l15 -4 q-9 -24 -32.5 -47.5t-49.5 -39.5q-15 -10 -29.5 -5.5t-19.5 22.5q-3 4 -1.5 17.5t2 19t4 19.5l4.5 18q26 129 32 156h-4q-5 -14 -14.5 -30.5t-14.5 -24.5t-20 -29.5t-17 -24.5q-27 -41 -56 -74q-27 -33 -38 -42q-32 -32 -55 -26.5t-18 52.5q4 35 17.5 97.5t16.5 82.5 q0 2 3.5 14.5t5.5 22.5t1.5 20t-4.5 13q-9 6 -29 -12q-6 -5 -17.5 -20.5t-22.5 -24.5t-23 -10z" />
<glyph unicode="&#xfd;" horiz-adv-x="354" d="M211 550l73 113l33 43l62 4q-9 -12 -19 -24.5t-23.5 -27t-20.5 -22t-24.5 -25.5t-22.5 -22q-1 -2 -6.5 -7.5l-8 -8l-7 -7t-8 -6.5t-8.5 -4.5t-10 -4t-10 -1.5zM207 550l4 -4zM47 351q-10 7 -9.5 22t10.5 34.5t22.5 37.5t26.5 30.5t24 12.5q8 1 15.5 -4t13.5 -16t9.5 -18 t8.5 -21.5t5 -15.5q19 -47 32.5 -137.5t24.5 -127.5q9 29 33.5 74t40 86.5t12.5 81.5q-2 23 -16 32q-2 2 -9 3.5t-11.5 4t-5.5 7.5q-1 14 17 33t33 19q12 0 18 -15t6 -37.5t-1.5 -38.5t-3.5 -28q-26 -150 -155 -324q-44 -59 -84.5 -101.5t-87.5 -65.5q-37 -17 -74 -5 q-39 12 -15 46q4 6 11 13h3q20 -16 41 -19t41 6t36 21t35 31q82 81 92 152q2 12 2 25t-1.5 28t-3.5 26t-6.5 28t-6.5 25.5t-7.5 27.5t-7.5 24q-1 2 -5.5 20.5t-8 30t-10 27.5t-14 25.5t-16.5 11.5q-8 2 -16 -4.5t-15.5 -20.5t-11.5 -22.5t-10 -20.5q-1 -3 -1 -4z" />
<glyph unicode="&#xfe;" horiz-adv-x="333" d="M234 442q-20 -4 -35 -14t-24 -19.5t-16.5 -28.5t-10 -30.5t-7 -35.5t-6.5 -34q-1 -6 -6.5 -25.5t-8 -33.5t-2.5 -26q1 -23 20.5 -34.5t41.5 -7.5q28 5 48.5 29t32 59.5t17 65.5t7.5 59.5t-10 55t-41 20.5zM117 788l117 16q4 -11 4 -24t-2.5 -28t-5 -26t-7 -27.5 t-6.5 -23.5q-3 -12 -12 -47t-13 -53.5t-10.5 -47.5t-9.5 -54t-4 -48q5 4 21.5 17.5t27 22t26 16t27.5 8.5q23 1 39.5 -21t21.5 -47t5 -47q-1 -44 -18 -93t-47 -90.5t-72 -58.5t-94 4q-2 -24 -7.5 -51.5t-14.5 -61.5t-13 -51q-12 -54 -1 -70q7 -10 23 -14.5t24 -5t29 -0.5 v-16h-196v16l50 13l21 57l29 129l93 410l49 211q-11 3 -10.5 15t5 24.5t-0.5 22.5q-4 6 -14 8.5t-19 2t-22 -1t-17 -0.5z" />
<glyph unicode="&#xff;" horiz-adv-x="354" d="M43 347q-9 7 -9.5 20t4 25.5t13.5 27.5t17 25t15 19q23 27 38 24q7 -1 13 -6.5t10 -11t9 -15.5t7 -16t6 -17t5 -13q16 -46 30 -134.5t26 -126.5q8 19 37 71.5t43 94t9 80.5q-2 11 -12 18.5t-19.5 13t-10.5 11.5q-1 14 15.5 31t30.5 20q11 2 16 -6.5t8 -21.5q8 -38 -2 -94 q-27 -147 -160 -324q-30 -39 -51 -64t-55.5 -55.5t-67.5 -44.5q-38 -17 -73 -3q-38 14 -8 50q3 4 7 8h4q19 -16 40 -19t41 6t36 21t35 31q82 81 92 152q2 12 2.5 25t-1.5 28t-4 26t-6.5 28t-6.5 25.5t-7.5 27.5t-7.5 24q0 2 -5 20.5t-8.5 30t-10 27.5t-14 25.5t-16.5 11.5 q-16 5 -31.5 -23.5t-22.5 -52.5zM180 641q20 7 34 -7t11.5 -34t-22.5 -28q-20 -7 -34 7t-11.5 34t22.5 28zM328 641q20 7 34 -7t11.5 -34t-21.5 -28q-21 -7 -35 7t-11.5 34t22.5 28z" />
<glyph unicode="&#x131;" horiz-adv-x="208" d="M59 402q6 6 20 22t23 24q63 59 81 37q4 -5 5 -13.5t-1 -20t-4 -19.5t-6 -20.5t-4 -13.5q-3 -10 -16 -53.5t-18 -63.5t-11 -53.5t-7 -60.5l63 55h4l11 -12q-12 -17 -39 -43q-1 -1 -7.5 -7t-9.5 -9.5t-10.5 -9.5t-11.5 -8.5t-11.5 -6.5t-11.5 -3t-11 1q-6 1 -9.5 5t-5 10 t-2.5 11t0 14t1 12.5t1.5 12.5l1.5 9q5 29 13 63t13.5 57t16.5 64.5t16 58.5q-8 -5 -22.5 -19t-27 -21.5t-24.5 -2.5v4z" />
<glyph unicode="&#x141;" horiz-adv-x="458" d="M74 128v-4h160q-18 8 -46 9t-64.5 -2t-49.5 -3zM47 312l4 -4zM238 460l4 -4zM141 738h246l-4 -20l-77 -14l-26 -68l-38 -176l215 137q-8 -32 -36.5 -58t-60 -40.5t-68.5 -36t-55 -43.5q-5 -5 -8 -13.5t-4.5 -15t-3 -17t-2.5 -14.5q-20 -93 -28 -137q0 -2 -1 -10 t-1.5 -11.5t-1 -10.5t0.5 -11t3 -9t6 -9q25 -26 127 -17q54 6 86 32q5 4 19.5 19.5t25.5 21.5t25 5l-56 -95l-119 -3h-297q3 16 21.5 20t41 7t31.5 16q22 32 35 112.5t19 98.5l-105 -66q3 26 22 42t45.5 30.5t39.5 30.5q6 7 9 16t5.5 25.5t3.5 19.5q11 46 32 152q0 4 3 16 t4.5 20t1 18t-4.5 16q-4 5 -10.5 9t-17 6t-15.5 2.5t-18.5 1.5l-13.5 1z" />
<glyph unicode="&#x142;" horiz-adv-x="198" d="M39 402l4 -4zM113 788l117 16l-6 -86l-40 -207l97 62q-1 -21 -13.5 -36t-27.5 -22t-33 -18.5t-28 -25.5q-5 -8 -8.5 -19t-6 -26t-4.5 -21q-28 -123 -32 -156q-1 -2 -3 -12t-3 -17t-1.5 -16t2 -15.5t7.5 -9.5q8 -4 21.5 1t24.5 13t25 19t18 14q-1 -15 -9.5 -28t-26 -26.5 t-26 -19.5t-28.5 -18q-38 -23 -53 3q-4 7 -6 15t-1 20t1.5 17.5t3 20t3.5 16.5q2 15 8 53.5t9.5 60t11 53t15.5 55.5l-78 -46q1 22 14.5 34.5t34 24t29.5 24.5q5 6 8.5 15.5t5 17t3.5 19.5t3 17q24 115 30 141q1 2 4.5 14.5t5 20.5t2 18t-3.5 16q-3 5 -13 8t-19 2.5 t-21.5 -1t-16.5 -0.5z" />
<glyph unicode="&#x152;" horiz-adv-x="698" d="M445 718q-53 7 -100 -9t-80 -48.5t-59 -77t-37.5 -94t-16 -100.5t5.5 -97q4 -23 16 -50.5t31.5 -54t44 -37t54.5 0.5q5 2 8.5 5t6 9t3.5 9t3 11t3 10q8 30 31 128q31 142 37 165q4 17 14 54.5t16 61t12 56t7 58.5zM383 124v-4h242l-78 4h-164zM707 226q-2 -3 -15 -32.5 t-24.5 -47.5t-24.5 -23q-22 -6 -39.5 -5.5t-49.5 3.5t-42 3q-25 0 -74.5 -3t-84 -3.5t-76.5 3.5t-76 20.5t-60 45.5q-38 43 -53.5 100t-9 114t30.5 114.5t61 103t86.5 78.5t102.5 42q32 4 49.5 3.5t50 -2.5t49.5 -2q39 0 115.5 3.5t114.5 3.5q-1 -5 -2 -22t-3 -28.5 t-8.5 -22.5t-17.5 -13q-2 15 -6 25.5t-12.5 17t-15 10t-20 5t-20 2t-24 0t-23.5 -0.5h-10h-12.5t-12.5 -0.5t-13.5 -1.5t-11 -3t-7.5 -5q-7 -6 -10.5 -18t-6 -29t-2.5 -21q-30 -127 -39 -176q10 0 47.5 -2t63 -0.5t45.5 9.5q10 4 16 13.5t9 18t10.5 16t19.5 8.5 q-1 -4 -9 -48t-18.5 -71t-27.5 -30l-2 52l-45 7h-117q-5 -35 -21.5 -99t-21.5 -93q-1 -3 -3 -14t-3 -17.5t-1 -16t3 -16.5t9 -12q9 -7 25 -11t28 -4t33 0.5t26 0.5q53 0 75 6q19 6 50.5 35t54.5 30z" />
<glyph unicode="&#x153;" horiz-adv-x="438" d="M305 323q65 30 93 75q10 13 10.5 26.5t-10.5 24.5q-16 10 -31 5t-26 -17q-7 -9 -12.5 -19.5t-9 -24t-5.5 -22t-5 -26t-4 -22.5zM184 450q-27 -7 -45 -33t-26 -60.5t-10.5 -65.5t-0.5 -57q1 -18 6 -34.5t17.5 -29.5t30.5 -8q34 10 57.5 49t31.5 81.5t4 77.5q-2 20 -8 39 t-21.5 33t-35.5 8zM230 210q-12 -25 -34 -47t-47 -34t-51 -3.5t-41 41.5q-9 17 -12 39q-10 60 19 130t77 116q65 63 109 35q13 -8 20 -21t13 -32.5t10 -28.5q13 29 36.5 54t49.5 33q31 10 57 -8.5t19 -50.5q-6 -27 -25.5 -46.5t-41 -30t-47 -26t-38.5 -31.5 q-10 -13 -16 -42.5t0 -57t25 -30.5q15 -2 33 6.5t40 23.5t29 19l8 -16q-8 -4 -24 -16t-30 -22t-32 -21.5t-33 -15.5t-29 -3.5t-23.5 12.5t-14.5 35q-2 10 -2 39h-4z" />
<glyph unicode="&#x160;" horiz-adv-x="375" d="M395 616q-16 79 -86 104q-42 14 -79 -13t-42 -71q-3 -32 7 -63.5t28.5 -56t40.5 -51.5t42.5 -50.5t35 -53t17.5 -59t-10 -68.5q-15 -42 -51.5 -70t-78 -40t-86.5 -12q-82 0 -95 36q-5 13 0.5 32.5t20.5 18.5q15 0 41 -25.5t37 -29.5q49 -18 100 20t59 89q4 31 -5.5 62 t-28 55t-40.5 50.5t-42.5 49.5t-35 52.5t-17 58.5t11.5 67q12 31 48.5 58.5t79 40t85 2.5t63.5 -47q5 -16 4.5 -26.5t-4.5 -31.5t-5 -28h-15zM242 948q39 -1 63 -97q6 6 35 36t52 45.5t46 15.5q-27 -41 -108 -140q-10 -13 -24.5 -18.5t-29.5 2.5q-4 3 -6.5 9t-3.5 11 t-1.5 13t-1.5 10q-15 90 -21 113z" />
<glyph unicode="&#x161;" horiz-adv-x="250" d="M59 210q9 -31 31.5 -44t47.5 -3t40 39q13 26 -20 67q-6 8 -22.5 25t-25.5 28t-17 29t-7 35q2 40 34 67t75 38q61 14 67 -15q3 -15 -3.5 -29.5t-20.5 -13.5q-8 0 -23.5 4t-28 6.5t-25.5 2t-22 -9.5t-12 -27q-2 -10 4 -23t12.5 -21t20 -22t15.5 -16q25 -27 35.5 -56 t3.5 -59.5t-34 -56.5q-21 -18 -51 -28q-44 -14 -81 7q-38 22 -13 56q7 10 20 20zM156 710q14 0 25.5 -12t16.5 -24t12 -34t9 -28q4 5 26.5 27.5t35.5 34t33.5 24t37.5 12.5l-80 -105l-43 -51l-41 -4z" />
<glyph unicode="&#x178;" horiz-adv-x="510" d="M309 879q20 8 34 -6t11.5 -34.5t-22.5 -27.5q-20 -8 -34 6t-11.5 34.5t22.5 27.5zM457 879q20 8 34 -6t11.5 -34.5t-22.5 -27.5q-20 -8 -34 6t-11.5 34.5t22.5 27.5zM113 738h211q-4 -13 -13.5 -18t-19.5 -5.5t-20 -5t-14 -15.5q-4 -4 -2.5 -16t3.5 -19t5.5 -18.5 t4.5 -16.5q24 -96 44 -168q23 30 71.5 89t72.5 91q1 2 10.5 13.5t15.5 19.5t10.5 19t1.5 17q-1 5 -5.5 8t-12 4t-12 1.5t-13.5 0t-10 -0.5v20h168v-20q-13 0 -25 -3t-23.5 -10t-19 -12.5t-19 -18t-16.5 -18t-17 -21t-15 -19.5q-13 -16 -46.5 -54.5t-56 -68.5t-38.5 -60 q-6 -14 -12 -31.5t-9 -29.5t-8 -33.5t-8 -30.5q-1 -7 -7 -24.5t-10.5 -33.5t-8.5 -34t-3.5 -33t5.5 -22q9 -12 26 -14.5t46 1t31 4.5q-1 -9 -6 -14.5t-13.5 -7.5t-14 -2.5t-17.5 0t-15 0.5q-37 0 -110 -2t-109 -2l4 20q3 0 15.5 -0.5t18.5 0t16 1.5t17.5 4t13.5 8t10 10.5 t7.5 14.5t5 13.5t4.5 16t4 14.5q3 13 18 60.5t22 82t4 61.5q-2 20 -8 43t-14.5 51t-12.5 42q-2 9 -7.5 33t-8 35.5t-10 29.5t-16.5 27t-24.5 17t-35.5 10v20z" />
<glyph unicode="&#x17d;" horiz-adv-x="531" d="M102 648l49 89l107 4h289l-131 -175l-295 -411q25 0 78 -0.5t84.5 -0.5t76.5 2.5t81 8.5q19 3 50.5 23.5t51.5 21.5q-2 -4 -8 -18.5t-10.5 -24t-12 -20.5t-14.5 -15q-12 -8 -36 -9t-55.5 2t-39.5 3h-351q18 37 45.5 75t67 86.5t55.5 69.5l257 355q-24 0 -77.5 4 t-96.5 3.5t-76 -8.5q-18 -5 -42.5 -34.5t-46.5 -30.5zM297 948q22 -1 37.5 -33t20.5 -64q5 4 35.5 35.5t53 46.5t44.5 15q-10 -16 -23.5 -35t-24 -31.5t-28 -34t-24.5 -31.5q-31 -39 -59 -25q-4 2 -7 7.5t-4 10t-1.5 12.5t-1.5 10q-1 10 -6.5 36t-8.5 45t-3 36z" />
<glyph unicode="&#x17e;" horiz-adv-x="344" d="M125 374q-24 25 31 82q25 26 56 31.5t56.5 -1.5t57.5 -6.5t57 15.5q4 -13 -2 -27.5t-14.5 -23.5t-25 -23.5t-21.5 -18.5l-222 -223q31 9 50.5 5.5t50.5 -11t51 -5.5q14 1 29 9.5t22.5 15.5l22.5 21h4l12 -16q-9 -7 -33 -29t-42.5 -33t-41.5 -15q-25 -3 -70.5 8.5 t-66.5 10.5q-14 -1 -40.5 -10.5t-41.5 -9.5l105 110l203 203q-18 0 -45.5 5.5t-44.5 8.5t-38 -5t-39 -33q-11 -16 -20 -35zM211 710q13 0 23 -9t18 -26t11.5 -28.5t8.5 -29.5q1 -3 1 -5q6 6 27.5 28.5t34.5 34t33.5 23.5t37.5 12q-3 -5 -16.5 -26.5t-20.5 -31t-21 -29 t-25 -29.5t-25.5 -22t-29.5 -17t-30 -5z" />
<glyph unicode="&#x192;" horiz-adv-x="552" d="M234 484q2 15 11.5 20t20.5 2.5t23.5 -1t19.5 10.5q7 11 12 39.5t7 33.5q29 84 94 128q14 9 40 19t53 9.5t30 -23.5q1 -12 -8 -20t-21 -10q-5 -1 -46 -2t-60 -17t-28.5 -42.5t-14.5 -67.5t-8 -52h114q-3 -13 -12 -20t-23.5 -9t-27 -1.5t-30 2t-25.5 1.5 q-1 -24 -4.5 -50.5t-9.5 -60t-8 -50.5q-1 -6 -3 -19q-8 -53 -13.5 -82.5t-17 -75t-29 -81.5t-42.5 -66q-72 -88 -166 -100q-68 -9 -71 22q-2 28 44 27q28 0 42 0.5t36 3.5t35.5 10t29.5 20t29 33q7 11 13 23.5t10.5 22.5t9 26.5t7 25t6 27.5t4.5 25t4.5 27.5t4.5 25.5 q3 20 11 64t12.5 70t9 63.5t6.5 68.5h-71z" />
<glyph unicode="&#x2c6;" horiz-adv-x="333" d="M160 550l86 113l40 45l46 2l23 -160h-23l-39 98q-3 -4 -26.5 -27.5t-36 -34.5t-33 -23t-37.5 -13z" />
<glyph unicode="&#x2c7;" horiz-adv-x="333" d="M195 710h24l39 -98q4 5 26.5 28t35 34t33.5 23.5t38 12.5l-83 -109l-40 -47l-45 -4z" />
<glyph unicode="&#x2c9;" horiz-adv-x="333" d="M344 628l-4 -19zM152 636h196q-2 -8 -6 -13.5t-6.5 -8t-10 -4l-10 -2t-13.5 0t-13 0.5h-144z" />
<glyph unicode="&#x2d8;" horiz-adv-x="333" d="M188 691h19q0 -31 4 -43q4 -17 14 -28q18 -22 37 -22.5t35.5 13.5t31.5 31.5t31.5 32.5t30.5 16q-10 -25 -16.5 -38t-18 -33.5t-25.5 -34.5t-30 -24q-47 -24 -74 -4.5t-37 57.5t-2 77z" />
<glyph unicode="&#x2d9;" horiz-adv-x="333" d="M215 641q21 8 36 -5.5t13 -34t-22 -28.5q-21 -8 -36.5 5.5t-13.5 34t23 28.5z" />
<glyph unicode="&#x2da;" horiz-adv-x="333" d="M234 680.5q-31 -8.5 -37 -37t13.5 -50.5t51.5 -13q31 8 37 36.5t-14 50.5t-51 13.5zM230.5 704q27.5 6 49.5 -5t31.5 -31.5t10.5 -43.5t-14 -42.5t-42.5 -25.5t-49.5 5t-31.5 31.5t-10.5 43.5t14 42.5t42.5 25.5z" />
<glyph unicode="&#x2db;" horiz-adv-x="333" d="M191 -83q-32 -19 -54 -24q-44 -11 -73.5 15.5t-23.5 71.5q9 63 81 122q10 7 14.5 10.5t14 9.5t16 8t15.5 2t18 -4q-31 -14 -60 -48.5t-38 -68.5q-11 -39 16.5 -60.5t66.5 -13.5z" />
<glyph unicode="&#x2dc;" horiz-adv-x="333" d="M145 570q6 25 15 39q8 15 20 27q19 18 39.5 18.5t36 -9t37.5 -19t39 -8.5q14 1 31 18.5t32 18.5q-6 -23 -13 -39q-9 -16 -19 -27q-19 -19 -40 -19.5t-36.5 9.5t-37 21t-38.5 11q-16 0 -34 -20t-32 -21z" />
<glyph unicode="&#x2dd;" horiz-adv-x="333" d="M273 550l71 109l36 47l61 4q-10 -15 -25.5 -33t-25.5 -28.5t-31 -32t-27 -27.5q-3 -3 -10.5 -11t-10.5 -11t-9.5 -8t-13 -7t-15.5 -2zM172 550l70 109l36 47l62 4q-11 -15 -26 -32.5t-25.5 -28.5t-30.5 -31.5t-28 -28.5q-2 -3 -9.5 -11.5t-10.5 -11t-9.5 -7.5t-13.5 -7 t-15 -2z" />
<glyph unicode="&#x3a9;" horiz-adv-x="628" d="M195 171q-73 84 -82 176q-9 103 31 187q33 71 85.5 122.5t122.5 72.5q34 10 70.5 12t71.5 -6t65 -29t46 -54q38 -73 11 -188q-14 -63 -59 -129q-60 -90 -151 -164h28h28t24 1t23.5 3.5t20 8t20.5 13t16.5 18.5t15.5 26l20 -3l-43 -110h-200q2 17 11.5 32.5t29.5 36 t24 25.5q82 99 115 183q15 39 23 78t6 83.5t-19 77.5q-23 47 -64.5 64t-85 6t-84 -37t-65.5 -61q-48 -65 -68 -149t-6 -163q9 -48 38 -121q1 -3 4.5 -10.5t5.5 -12t3 -12.5t-2 -11q-3 -5 -10 -7.5t-12.5 -2.5t-15 0.5t-11.5 0.5h-149q0 2 -0.5 21t0 30t2.5 27t7.5 25 t14.5 10q1 -18 6 -31t14 -20.5t17.5 -12t24 -6t25 -1.5t29 0.5t28.5 0.5z" />
<glyph unicode="&#x3bc;" horiz-adv-x="500" d="M336 206l4 -4zM133 179q-2 -22 -11 -62t-12 -55q-1 -12 -3.5 -37.5t-5.5 -44.5t-9 -35q-10 -24 -35 -29.5t-35 21.5q-5 19 4.5 45t27.5 57.5t22 41.5q13 33 26.5 73.5t21 65.5t22.5 77.5t19 68.5q3 9 8.5 37.5t12 50t17.5 31.5q4 4 12 6t15 2t17.5 -1t14.5 -1 q-4 -23 -11.5 -52.5t-13 -48t-17.5 -54.5l-16 -48q0 -1 -1 -5q-22 -69 -8 -96q15 -28 38.5 -29.5t43.5 13t35 35.5q37 55 64 133.5t38 151.5h63q-7 -50 -37.5 -144t-33.5 -106q0 -1 -1 -5q-17 -70 13 -77q12 -2 21.5 6.5t15.5 21t16 23.5t21 12q-20 -70 -47 -91 q-32 -23 -56 -16t-38.5 32t-14.5 55h-4q-12 -31 -39 -54t-57 -30t-58.5 8t-40.5 53h-4z" />
<glyph unicode="&#x3c0;" horiz-adv-x="478" d="M508 542v-4l15 -4zM504 542l19 -8q-18 -54 -50 -64q-4 -1 -26 -1.5t-30 -9.5q-6 -8 -10.5 -21.5t-7.5 -31.5l-4 -24q-3 -11 -14 -53t-16.5 -69t-8.5 -54q-2 -22 7.5 -38t31.5 -10q7 2 14 7t15.5 12t13.5 10q6 -19 -8.5 -36t-36.5 -26t-46.5 -8t-35.5 15q-10 12 -11 32.5 t1 31.5t7 34q9 42 31.5 121t31.5 117l-152 4q-1 -18 -3.5 -36.5t-9 -40.5t-10 -35t-14.5 -40t-14 -34t-17 -38.5t-14 -33.5q-19 -44 -41 -68t-61 -30q4 25 38 71t39 54q18 34 35 78.5t24.5 70.5t23.5 82q-22 0 -42 -6.5t-44.5 -19t-38.5 -17.5l-8 16q58 43 111 59.5t124 9.5 q5 0 27 -2.5t33 -3.5t33 -2t35.5 1t30 5.5t28.5 11t20 18.5z" />
<glyph unicode="&#x2012;" horiz-adv-x="480" d="M16 343h492v-55h-492v55z" />
<glyph unicode="&#x2013;" horiz-adv-x="500" d="M16 343h511v-55h-511v55z" />
<glyph unicode="&#x2014;" horiz-adv-x="1000" d="M16 343h1011v-55h-1011v55z" />
<glyph unicode="&#x2018;" horiz-adv-x="177" d="M141 511q-24 35 -26 80t14.5 84.5t52 68.5t80.5 33q-4 -11 -11 -17t-19 -12.5t-17 -10.5q-13 -9 -27 -27.5t-23.5 -40.5t-11.5 -42t10.5 -34t39.5 -16z" />
<glyph unicode="&#x2019;" horiz-adv-x="177" d="M199 777q30 -16 39 -49.5t0 -64.5q-15 -59 -53.5 -101.5t-94.5 -50.5q4 10 11 16.5t18.5 13t17.5 10.5q32 27 52.5 67.5t1.5 71.5q-6 10 -23.5 17t-22.5 15z" />
<glyph unicode="&#x201a;" horiz-adv-x="177" d="M90 187q37 -26 41 -69.5t-17 -83.5t-57 -72t-73 -37q3 11 11 18.5t21 14.5t19 12q17 14 30.5 38t18.5 48t-7 44t-42 24z" />
<glyph unicode="&#x201c;" horiz-adv-x="354" d="M328 511q-38 27 -41.5 72t18.5 86t60 72.5t76 35.5q-4 -11 -10.5 -17t-18.5 -12t-17 -10q-14 -9 -27.5 -27.5t-23 -40.5t-11.5 -42.5t10.5 -34.5t39.5 -16zM148 515q-39 28 -42 72t21 83.5t61.5 71t73.5 38.5q-4 -11 -10.5 -17.5t-19 -13t-17.5 -10.5q-13 -9 -27 -27.5 t-23 -40t-11 -41.5t10 -33.5t39 -15.5z" />
<glyph unicode="&#x201d;" horiz-adv-x="354" d="M379 777q55 -31 38 -114q-12 -58 -51.5 -101.5t-95.5 -50.5q2 11 9 17.5t19 12.5t18 11q29 22 50.5 62t7.5 69q-6 11 -25 20.5t-25 18.5zM203 777q38 -28 41.5 -72.5t-19.5 -85t-60.5 -72t-74.5 -36.5q4 12 13 19.5t21.5 14.5t20.5 14q20 18 33.5 40.5t17.5 44.5t-9 41.5 t-42 28.5v8z" />
<glyph unicode="&#x201e;" horiz-adv-x="354" d="M160 -75l4 -4zM273 187q37 -27 39.5 -70t-20 -82.5t-58.5 -71t-70 -38.5q2 11 10 18.5t21.5 15t19.5 12.5q18 15 31 38t17.5 46.5t-7.5 43t-41 25.5zM90 187q50 -25 36 -106q-12 -60 -48.5 -102.5t-93.5 -53.5q3 11 11 18.5t21 14.5t19 12q17 14 30.5 38t18.5 48t-7 44 t-42 24z" />
<glyph unicode="&#x2020;" horiz-adv-x="354" d="M230 718q3 8 13.5 12.5t26 5.5t30 0.5t30.5 -1.5t22 -1v-16q-19 -6 -31 -16t-17.5 -24.5t-8 -27.5t-4.5 -33t-5 -32q-3 -18 -16 -50t-16 -40l86 16l55 27l-28 -109q-11 5 -29.5 14.5t-29 14.5t-27.5 9.5t-35 4.5q0 -3 -2.5 -26.5t-0.5 -36.5q1 -5 6.5 -21.5t3.5 -25.5 q-3 -18 -19.5 -53t-20.5 -48q-62 -201 -76 -313h-28l55 274l14 144l49 106l-86 -14l-55 -25l23 105l43 -28l78 -15q0 69 16 129q1 7 7 20.5t9.5 25t1.5 21.5q-3 18 -34 27z" />
<glyph unicode="&#x2021;" horiz-adv-x="344" d="M0 19l4 -4zM246 784q7 12 28 14.5t56.5 0t36.5 -2.5l-47 -47l-12 -78l-31 -78l141 39l-23 -102l-125 43l-3 -54l11 -43l-53 -129l-12 -172l-45 -94l86 14l55 29q-1 -1 -5 -30.5t-10 -49.5t-14 -22q-6 -2 -14 2t-16 10.5t-12 7.5q-28 15 -78 16q0 -79 -6 -106q0 -4 -8 -24 t-7 -30q2 -21 33 -28l-4 -15h-121l48 50l46 153l-137 -39l19 101l51 -26l74 -13l-11 98l64 176l2 125l47 93l-86 -14l-55 -25q1 4 3.5 21t4.5 29.5t7 26t11 17.5q3 3 8.5 1t9 -4t8.5 -6.5t7 -6.5q16 -9 39.5 -15.5t37.5 -1.5q7 3 10.5 12.5t3.5 18t-0.5 21.5t-0.5 16 q0 11 5 27.5t9.5 30t6 27.5t-6.5 23.5t-26 12.5z" />
<glyph unicode="&#x2022;" horiz-adv-x="375" d="M227 611q34 6 63 -3.5t47 -29.5t29 -46.5t9 -55.5t-12 -54t-34.5 -44t-59 -25.5t-63.5 3t-47 30t-29 46.5t-9.5 55t12 54t35 44t59.5 26z" />
<glyph unicode="&#x2024;" horiz-adv-x="531" d="M269 206q27 4 29 -26q2 -33 -20 -53q-7 -7 -16 -9q-27 -6 -30 24q-3 32 19 54q9 8 18 10z" />
<glyph unicode="&#x2025;" horiz-adv-x="531" d="M398 206q14 5 23 -6t11 -25q3 -17 -7 -33.5t-27 -22.5q-28 -10 -32 21q-5 33 17 56q7 8 15 10zM133 206q13 5 22 -6t12 -25q2 -17 -8 -33.5t-26 -22.5q-29 -10 -33 21q-4 33 17 56q7 8 16 10z" />
<glyph unicode="&#x2026;" horiz-adv-x="1000" d="M855 206q14 5 23 -6t11 -25q3 -17 -7 -33.5t-27 -22.5q-28 -10 -32 21q-5 33 17 56q7 8 15 10zM500 206q13 5 22 -6t12 -25q2 -17 -8 -33.5t-26 -22.5q-29 -10 -33 21q-4 33 17 56q7 8 16 10zM145 206q13 5 22 -6t11 -25q3 -17 -7 -33.5t-26 -22.5q-29 -10 -33 21 q-5 33 17 56q7 8 16 10z" />
<glyph unicode="&#x2030;" horiz-adv-x="1094" d="M617 450q-29 -7 -50.5 -34t-32 -63.5t-15 -70.5t-3.5 -64q1 -35 19 -61.5t51 -18.5q28 7 50 34.5t33.5 64t17 71.5t4.5 62q-1 38 -20 63.5t-54 16.5zM941 450q-29 -7 -50.5 -34t-32 -63.5t-15 -70.5t-3.5 -64q1 -35 19 -61.5t51 -18.5q28 7 50 34.5t33.5 64t17 71.5 t5.5 62q-1 38 -20.5 63.5t-54.5 16.5zM605 466q58 9 95.5 -24t41.5 -91q3 -47 -11.5 -96t-50 -88t-82.5 -46q-56 -8 -91.5 27.5t-40.5 92.5q-5 46 9.5 94.5t49 86t80.5 44.5zM930 466q57 9 94.5 -24t41.5 -91q3 -47 -11.5 -96t-50 -88t-82.5 -46q-56 -8 -91.5 27.5 t-40.5 92.5q-5 46 9.5 94.5t49 86t81.5 44.5zM277 778q-30 -7 -52 -33t-33 -62t-15.5 -69t-4.5 -64q0 -35 18 -63t52 -22q29 5 52 32.5t35 64.5t17.5 73t5.5 63q-1 37 -20.5 62.5t-54.5 17.5zM145 120q15 28 37.5 56.5t53 63.5t44.5 52l279 348q7 10 29.5 42.5t39 53.5 t41 40.5t46.5 19.5q-18 -28 -40.5 -57t-53.5 -65.5t-44 -53.5l-273 -340q-8 -10 -31 -43t-40 -55t-42 -42t-46 -20zM262 794q58 11 97 -22.5t43 -92.5q3 -46 -11.5 -94.5t-48.5 -87t-80 -47.5q-57 -10 -96 25.5t-44 94.5q-5 45 10 93t49.5 85.5t80.5 45.5z" />
<glyph unicode="&#x2039;" horiz-adv-x="240" d="M188 128q-13 1 -25.5 12t-19.5 22.5t-17.5 31t-14 24.5t-20 27t-27 40t-9.5 30q1 8 9 17.5t21.5 20.5t16.5 13l97 94l8.5 8.5l8.5 8.5t8 7.5t9.5 7.5t9 5t11.5 4.5t12 1.5l-96 -129l-40 -58l18 -63z" />
<glyph unicode="&#x203a;" horiz-adv-x="240" d="M90 503q12 -2 23.5 -13t18.5 -21t17 -28.5t13 -23.5q4 -6 21.5 -28.5t28.5 -41.5t10 -31q0 -8 -7.5 -16.5t-20 -18.5t-14.5 -12q-1 -1 -110 -102l-12 -12t-14.5 -13.5t-13.5 -8t-18 -5.5l97 133l36 59z" />
<glyph unicode="&#x2044;" horiz-adv-x="93" d="M-176 120q18 27 40.5 55.5t52.5 64t45 52.5l281 348l98 121q1 2 7.5 10t8.5 10.5t8 8t10 7.5t10 4.5t13 2.5q-17 -27 -40 -55.5t-53 -63.5t-44 -53l-281 -348l-98 -121q-1 -1 -7.5 -9.5t-8.5 -11t-8 -8t-10 -7.5t-10.5 -4t-13.5 -3z" />
<glyph unicode="&#x2070;" d="M242 837q-25 -6 -44.5 -32.5t-29.5 -62.5t-14.5 -67t-5.5 -59q0 -32 14 -55.5t45 -16.5q26 5 51 49q45 82 47 176q0 32 -16 53.5t-47 14.5zM234 853q48 9 81 -20.5t36 -79.5q3 -43 -10.5 -91t-46 -87.5t-75.5 -46.5q-47 -8 -80.5 24t-36.5 80q-3 44 10.5 90.5t46 84 t75.5 46.5z" />
<glyph unicode="&#x2074;" d="M141 679q5 0 30.5 -2.5t44.5 -1.5t28 8q11 8 19.5 31t16 55t9.5 39q-40 -15 -81 -52t-67 -77zM94 652q45 80 168 162q3 2 14.5 10t16.5 11t15 8.5t18.5 8t17.5 3.5l-51 -176h55q-2 -8 -6 -13.5t-7.5 -8.5t-10.5 -4.5t-11 -1.5t-14 0.5t-14 0.5q-3 -22 -4.5 -30.5 t-5.5 -27.5t-9.5 -28t-14 -21t-20.5 -17t-28 -5l39 129h-148z" />
<glyph unicode="&#x2075;" d="M172 749l4 -4zM74 554l4 -4zM215 851q76 -6 140 11q0 -1 -3 -6t-4.5 -7t-4.5 -6.5t-5 -6.5t-5 -5.5t-6.5 -5.5t-6.5 -3q-15 -6 -32.5 -6t-29 1t-23.5 -7.5t-20 -29.5q22 -3 47 -14q43 -22 53.5 -58.5t-6.5 -71t-49.5 -63.5t-68.5 -39q-19 -5 -39.5 -7.5t-44 2t-29.5 21.5 q31 -7 66 -5.5t63 19.5q24 14 43.5 38.5t25.5 53.5t-15 54q-4 4 -8 7.5t-9 6.5t-8.5 5.5t-9.5 4.5t-9 3.5t-10.5 3.5t-10 3t-11 3t-9.5 2z" />
<glyph unicode="&#x2076;" d="M332 855v-4l20 -4zM219 700q-33 -7 -49 -37.5t-14 -65.5q3 -25 20.5 -42t42.5 -11q37 8 55 59q18 52 -4 82q-16 23 -51 15zM180 702q23 13 51 14t52 -7.5t38 -31t10 -53.5q-5 -46 -45.5 -74t-89 -22.5t-73.5 45.5q-25 44 -11.5 94.5t45.5 93.5t70 68q18 11 39 19t45.5 8 t40.5 -13q-9 -2 -27.5 -3t-27.5 -5q-73 -26 -117 -133z" />
<glyph unicode="&#x2077;" d="M137 788q15 68 51 71v-12l179 4q-13 -25 -38.5 -68.5t-45 -80t-33.5 -70.5q-1 -1 -2 -5q-7 -18 -10.5 -29.5t-1 -27t17.5 -20.5q-9 -19 -24.5 -23.5t-26 6.5t-6.5 33q16 105 119 250l-128 -2z" />
<glyph unicode="&#x2078;" d="M238 833q-28 -7 -34 -34.5t10 -49.5t40 -15q34 9 40 46q6 36 -19 50q-15 8 -37 3zM215 691q-45 -3 -65 -50q-19 -45 4 -77q18 -25 57 -22q31 3 49.5 23.5t18 48.5t-20.5 49q-28 29 -43 28zM203 706q-28 26 -36 43q-30 60 26 88q44 22 94 8q49 -14 44 -51q-2 -19 -21 -41 q-7 -9 -25.5 -22.5t-22.5 -16.5q48 -21 58.5 -67t-24.5 -85q-37 -38 -105 -35q-45 2 -71 34.5t-7 74.5q11 25 36 43.5t54 26.5z" />
<glyph unicode="&#x2079;" d="M230 833q-36 -12 -52 -64q-16 -53 8 -80q18 -21 52 -11q31 9 46.5 39t11.5 63q-3 28 -21 44.5t-45 8.5zM102 530v-3h11zM273 671q-4 -1 -15.5 -4t-17 -4t-15 -2.5t-17.5 -1t-17 1.5q-48 9 -63.5 51.5t11.5 83.5q19 31 57 46t74 5q37 -10 55.5 -39.5t17.5 -64t-16 -68.5 q-33 -73 -92.5 -115.5t-132.5 -29.5v16q24 -4 47 1.5t39 16.5t33.5 31.5t27.5 36t24 39.5z" />
<glyph unicode="&#x207d;" horiz-adv-x="198" d="M180 210q-53 38 -82 93t-32 113.5t14.5 120t51 112t84 88.5t108.5 51q-6 -20 -24.5 -34.5t-45.5 -28.5t-39 -24q-78 -66 -106 -178q-27 -107 12 -192q7 -15 24.5 -37.5t27.5 -42t7 -41.5z" />
<glyph unicode="&#x207e;" horiz-adv-x="198" d="M117 788q69 -48 96 -129.5t11.5 -165t-63.5 -150.5q-67 -93 -188 -133q4 20 21.5 34.5t45 28t38.5 22.5q78 63 106 169q31 115 -4 195q-7 16 -26 40.5t-30 46t-7 42.5z" />
<glyph unicode="&#x207f;" horiz-adv-x="260" d="M78 601q1 1 8.5 8t13.5 11.5t15 12t16.5 11t15.5 6.5t14 1t10.5 -8.5t4.5 -16t-2 -18t-5.5 -19.5t-4.5 -16q26 27 43 39q17 13 31 22q16 10 31 13.5t26 -4.5t9 -31q-3 -24 -17.5 -74.5t-16.5 -77.5l27 28h4l11 -8q-12 -21 -27 -35q-10 -9 -19 -15q-16 -11 -31.5 -6.5 t-15.5 24.5q0 17 4 36t11.5 43.5t10.5 34.5q0 1 2.5 9.5t3.5 13.5t1 11.5t-2.5 10.5t-6.5 4.5t-8.5 -1.5t-9 -4.5t-9.5 -7.5t-8.5 -8t-7.5 -7.5t-5 -5.5q-53 -53 -66 -152h-47l47 187l-35 -27h-4l-12 12v4z" />
<glyph unicode="&#x2080;" d="M152 321q-25 -6 -44 -32t-29 -61t-15 -66t-5 -57q-1 -32 13.5 -55.5t44.5 -17.5q27 6 51 49q20 37 33 83.5t14 88.5q0 32 -16 54t-47 14zM145 337q48 9 80.5 -20.5t35.5 -78.5q3 -43 -10.5 -90.5t-46 -86t-75.5 -45.5q-47 -8 -81 24t-36 80q-2 45 11.5 90t45.5 82t76 45z " />
<glyph unicode="&#x2081;" d="M78 19v-4h121zM78 323l4 -3zM82 323q3 8 13.5 12.5t27 6t31 2t31.5 0t22 -0.5l-78 -297q6 -2 25 -6t31 -9.5t18 -15.5q-48 11 -137 0l86 297z" />
<glyph unicode="&#x2082;" d="M-12 15l4 -4zM39 253q19 56 63 76q28 11 58.5 9t56 -22t28.5 -51q3 -21 -6.5 -44t-22.5 -40.5t-38.5 -41t-40.5 -35t-44 -33t-34 -25.5l183 16l-28 -39l-66 -4l-156 -4q4 11 14.5 20.5t26.5 19.5t22 15q4 4 24.5 21t28.5 24t25 23.5t25.5 28t18 27.5t14.5 32 q10 35 -13.5 66.5t-60.5 19.5q-39 -13 -55 -71z" />
<glyph unicode="&#x2083;" d="M62 265l4 -4zM82 175l4 -4zM66 265q6 40 45.5 61t79.5 9q33 -9 37 -38t-18 -52q-14 -16 -46 -39q39 -6 52.5 -38.5t-5.5 -66.5q-21 -39 -64 -62.5t-88 -23.5q-57 0 -71 35q17 4 38.5 -6.5t28.5 -11.5q28 -6 70 20q15 9 28 24.5t21.5 33.5t3.5 35.5t-26 28.5q-9 4 -18.5 5 t-27.5 -1.5t-20 -2.5q6 18 43.5 39t47.5 35q15 21 2 42.5t-38 19.5q-18 -2 -43 -22.5t-32 -23.5z" />
<glyph unicode="&#x2084;" d="M188 296q-7 -5 -30 -22.5t-32.5 -25t-27 -22.5t-29.5 -29t-22 -30q7 0 30.5 -2t41 -1.5t28.5 6.5q15 6 30.5 58t10.5 68zM0 140q45 81 168 163q3 1 14.5 9.5t16.5 11.5t15 8t18.5 7.5t17.5 3.5l-51 -176h55q-2 -8 -6 -13.5t-7 -8.5t-10.5 -4t-11.5 -1.5t-14 0t-14 0.5 q-15 -106 -37 -121q-7 -5 -26 -6t-23 -2l40 129h-145z" />
<glyph unicode="&#x2085;" d="M74 238l4 -4zM-23 42l3 -4zM117 339q67 -8 141 12q-1 -1 -4 -6t-4.5 -7t-4.5 -6.5t-5 -7t-5 -5.5t-6 -5.5t-7 -3.5q-14 -6 -32 -6t-29 1t-23 -7t-21 -29q23 -4 47 -15q44 -22 54.5 -58.5t-6.5 -70.5t-49.5 -63t-68.5 -40q-19 -5 -39.5 -7.5t-44.5 2.5t-30 21 q32 -7 66.5 -5t62.5 19q24 14 43.5 38.5t26 54t-15.5 53.5q-3 4 -7 7.5t-9 6.5t-8.5 5.5t-10 5t-9.5 3.5t-10.5 3t-10 3t-10.5 3t-10 3z" />
<glyph unicode="&#x2086;" d="M242 343v-4l20 -4zM133 189q-33 -6 -50 -33t-17 -63q0 -28 18 -47.5t45 -13.5q36 7 54 57q20 52 -2 84q-15 22 -48 16zM90 195q4 0 15.5 3t17 4.5t15 3t17.5 1t17 -2.5q43 -8 61 -43.5t0 -75.5q-17 -37 -56.5 -57t-82 -10.5t-63.5 48.5q-22 42 -8.5 91t44 91t66.5 66 q18 13 40 21t47 9.5t42 -13.5q-9 -2 -29 -3.5t-30 -5.5q-11 -4 -21 -10.5t-17 -12t-16 -15.5l-13.5 -15t-13 -18.5t-11 -17.5t-11 -19.5t-10.5 -18.5z" />
<glyph unicode="&#x2087;" d="M51 277q15 67 51 70v-12l179 4q-13 -25 -38.5 -68t-45 -79.5t-33.5 -71.5q-1 -1 -2 -4q-7 -19 -10.5 -30.5t-1 -27t17.5 -20.5q-9 -18 -24.5 -23t-26 6t-6.5 33q16 106 119 250l-128 -1z" />
<glyph unicode="&#x2088;" d="M152 321q-37 -8 -38 -47q-2 -34 23 -48q12 -7 27 -4q35 7 43 44q9 34 -15 50q-16 11 -40 5zM121 179q-46 -10 -62 -58q-16 -46 10 -74q21 -25 64 -14q40 9 53 46.5t-15 68.5q-10 11 -14.5 15.5t-15.5 11t-20 4.5zM113 195q-28 25 -36 43q-29 59 26 87q45 23 96 9 q50 -13 46 -51q-2 -19 -21 -42q-7 -9 -26 -22.5t-22 -16.5q34 -18 48 -44.5t7 -52t-25.5 -47.5t-49 -34t-62.5 -8q-44 4 -67 38t-2 74q25 48 88 67z" />
<glyph unicode="&#x2089;" d="M145 321q-36 -9 -52 -61q-18 -55 6 -83q15 -19 46 -12q32 8 48 36.5t14 63.5q-2 28 -19 45.5t-43 10.5zM16 19v-4h19zM184 163q-64 -36 -112 4q-38 31 -32 81q6 52 62 79q39 17 74 9.5t57.5 -38.5t20.5 -72q-7 -93 -77.5 -153.5t-160.5 -53.5v15q29 -7 56.5 2.5t48 30.5 t36 45t27.5 51z" />
<glyph unicode="&#x208d;" horiz-adv-x="198" d="M145 -36q-53 37 -82 92t-31.5 113.5t14.5 119t50.5 111t84 88t108.5 50.5q-6 -19 -24 -33t-44 -27.5t-37 -23.5q-79 -64 -106 -166q-31 -115 4 -195q7 -17 25.5 -40.5t29.5 -45t8 -43.5z" />
<glyph unicode="&#x208e;" horiz-adv-x="198" d="M82 538q53 -37 81.5 -92t31.5 -113t-14.5 -119t-51 -111t-84 -88t-107.5 -51q4 19 21 32.5t43.5 26.5t36.5 21q39 31 68 76t41 94q32 114 -5 199q-7 15 -26 38.5t-29.5 44.5t-5.5 42z" />
<glyph unicode="&#x20a1;" horiz-adv-x="625" d="M207 230l103 179l174 317q-57 0 -109.5 -23.5t-92 -61.5t-67.5 -89t-39.5 -105.5t-4 -111.5t35.5 -105zM219 202l57 -31l25 39l54 98l223 398q-6 1 -22 6.5t-25 7t-22 -1.5q-5 -3 -9.5 -9.5t-9.5 -17.5t-6 -12l-55 -98q-22 -40 -69 -117t-82 -140t-59 -122zM109 42 q5 15 35.5 61t30.5 68q-1 8 -7.5 16.5t-16 17.5t-12.5 13q-29 39 -42 90q-29 120 34.5 233t177.5 170q19 10 42.5 16.5t38 9.5t45 6.5t41.5 5.5q13 2 21.5 11.5t13 19t14.5 17t26 7.5l-28 -55l59 -15q1 3 5.5 12.5t6.5 13t6 11.5t7 11l8.5 8.5t10.5 7.5t11.5 4t14.5 2 l-43 -82q60 -17 68 -43q5 -16 -4 -55t-9 -47h-23q-1 77 -51 114l-297 -539q9 -1 33 -7t37 -5q114 4 203 129l24 -8q-23 -77 -41 -96q-5 -5 -14.5 -10t-15.5 -7.5t-19 -6.5t-16 -5q-111 -38 -203 -12q-1 -2 -5 -12t-5.5 -13t-5.5 -11.5t-7 -12.5t-7.5 -10.5t-8.5 -9.5 t-9.5 -6.5t-12 -5t-13.5 -1.5l51 90l-59 27q-7 -25 -18 -49t-30.5 -46t-41.5 -22z" />
<glyph unicode="&#x20ac;" horiz-adv-x="480" d="M62 484q52 -19 66 1q7 10 14 35t9 30q33 83 79 128q49 47 111 62t124 -13q45 -23 54 -44q4 -18 2.5 -32t-5.5 -36.5t-4 -33.5h-24q0 50 -25 87.5t-64 45.5t-87 -23q-90 -63 -121 -211l293 11q0 -13 -8.5 -20t-17 -8t-25.5 0t-23 1q-151 -8 -222 -8l-8 -62q13 0 53.5 -0.5 t62 0t55 1.5t61.5 4.5t53 9.5q-1 -17 -11.5 -23.5t-25 -4.5t-30.5 0q-56 -7 -218 -7q0 -125 43 -187q23 -33 58.5 -42.5t70.5 10.5q14 10 27 24.5t20.5 25.5t20 31t18.5 29q22 -10 11 -55.5t-31 -56.5q-31 -19 -70 -27q-54 -11 -99 6.5t-73 54.5t-43.5 84.5t-15.5 98.5h-66 l8 28l58 -8l8 66h-74z" />
<glyph unicode="&#x2113;" horiz-adv-x="335" d="M176 429q49 34 88.5 97t55.5 126q25 88 -15 96q-12 2 -22.5 -3.5t-18.5 -18.5t-11.5 -21t-9.5 -22q-30 -75 -67 -254zM51 320q-4 11 4.5 23t22 20t27.5 20t17 22q12 35 24 101.5t28 119.5t47 92q25 32 60 51.5t62 -2.5q18 -16 20.5 -46t-3.5 -55t-16 -50 q-31 -79 -90 -140q-8 -8 -29.5 -26.5t-36 -35t-20.5 -32.5q-15 -39 -24 -85.5t-4 -82.5q3 -29 22.5 -45.5t48.5 -11.5q18 4 33.5 13t36 25.5t28.5 22.5q4 -11 -1.5 -22.5t-11.5 -17t-19 -15.5q-67 -56 -136 -41q-101 22 -28 237z" />
<glyph unicode="&#x2122;" horiz-adv-x="1042" d="M492 804q6 0 34.5 2.5t49.5 1.5t31 -8q7 -5 14.5 -17.5t12 -23.5t10.5 -27.5t8 -21.5q70 -157 102 -211l102 223l40 78l104 4v-16q-42 -3 -51 -27q-5 -11 -5.5 -25.5t0.5 -34.5t1 -26q0 -20 -3.5 -69t-3 -87t9.5 -67q10 -29 52 -31v-16h-168v16q43 0 54 27q5 13 6 29 t0 39.5t-1 29.5v199h-4l-58 -136l-91 -204h-8l-79 165l-73 156h-4v-199q0 -5 -1.5 -26.5t0 -35.5t7.5 -24q11 -20 53 -20v-16h-141v16q43 0 52 27q9 28 9.5 66.5t-3 88t-3.5 68.5q0 6 1 26.5t0 34.5t-5 25q-6 15 -18 21t-33 10v16zM129 804h328v-94q-11 4 -19.5 25.5 t-16.5 27.5q-9 7 -23 10.5t-24 4t-29.5 0t-24.5 -0.5v-266q0 -18 0.5 -28t4 -23.5t9.5 -20.5t17 -12.5t28 -5.5v-16h-176v16q36 1 47.5 23t11.5 63v270q-5 0 -24 0.5t-28 0t-23 -4t-23 -10.5q-7 -6 -15.5 -27.5t-19.5 -25.5v94z" />
<glyph unicode="&#x2126;" horiz-adv-x="628" d="M195 171q-73 84 -82 176q-9 103 31 187q33 71 85.5 122.5t122.5 72.5q34 10 70.5 12t71.5 -6t65 -29t46 -54q38 -73 11 -188q-14 -63 -59 -129q-60 -90 -151 -164h28h28t24 1t23.5 3.5t20 8t20.5 13t16.5 18.5t15.5 26l20 -3l-43 -110h-200q2 17 11.5 32.5t29.5 36 t24 25.5q82 99 115 183q15 39 23 78t6 83.5t-19 77.5q-23 47 -64.5 64t-85 6t-84 -37t-65.5 -61q-48 -65 -68 -149t-6 -163q9 -48 38 -121q1 -3 4.5 -10.5t5.5 -12t3 -12.5t-2 -11q-3 -5 -10 -7.5t-12.5 -2.5t-15 0.5t-11.5 0.5h-149q0 2 -0.5 21t0 30t2.5 27t7.5 25 t14.5 10q1 -18 6 -31t14 -20.5t17.5 -12t24 -6t25 -1.5t29 0.5t28.5 0.5z" />
<glyph unicode="&#x212e;" horiz-adv-x="877" d="M281 441h438v136q0 4 0.5 14.5t0 16.5t-2 14t-5.5 14q-17 25 -75 56q-52 27 -119.5 32.5t-132.5 -18t-97 -74.5q-4 -6 -5.5 -14t-2 -14t0 -16.5t0.5 -14.5v-132zM773 241q-27 -39 -65 -66.5t-79.5 -40.5t-88 -16t-91 6t-88 25.5t-79 43.5t-65 59.5t-46 73.5t-20.5 85.5 t11 95.5q20 73 70.5 126.5t114 80t136.5 29.5t139 -18t122 -69.5t84 -117.5q20 -48 20 -113h-567q0 -18 -1.5 -53.5t-1.5 -65t3 -53.5q3 -15 18.5 -32t27.5 -25t32 -21q62 -38 136 -38.5t138 33.5q18 10 43.5 30t47 30.5t49.5 10.5z" />
<glyph unicode="&#x2153;" horiz-adv-x="677" d="M148 726q6 12 23.5 17.5t33.5 5.5t41 -2t31 -2l-58 -211l-15 -77l66 -32h-133l86 293zM438 370q23 73 93 78q32 2 56.5 -14.5t15.5 -47.5q-4 -14 -13.5 -26t-25 -24.5t-21.5 -19.5q36 -7 49 -38.5t-4 -63.5q-19 -40 -62 -64.5t-88 -25.5q-60 -1 -75 35q17 4 39 -6t28 -11 q36 -8 82 27q21 17 31 37t7 35.5t-14 28.5t-32 15.5t-47 -5.5q7 17 26 29.5t40.5 24.5t31.5 28q12 21 -2 40.5t-37 17.5q-14 -1 -27.5 -9t-29 -22t-21.5 -19zM94 120q15 27 37.5 55t52 62t43.5 51l288 356l95 117q2 2 8 10t8.5 10.5l8 8t9.5 7.5t10.5 4.5t13.5 2.5 q-22 -33 -48.5 -66.5t-64.5 -77.5t-53 -63l-254 -313l-95 -117q-2 -3 -8 -10.5t-8.5 -10.5t-8.5 -9t-10 -8.5t-10.5 -5t-13.5 -3.5z" />
<glyph unicode="&#x2154;" horiz-adv-x="677" d="M121 659q19 57 63 76q28 11 58.5 9.5t56 -22t28.5 -51.5q3 -18 -2.5 -37t-19.5 -38t-27 -34t-36 -34.5t-35.5 -29.5t-36.5 -28t-29 -22l129 5l54 15l-28 -39l-66 -4l-156 -4q4 12 14 22t27 21t22 15q2 2 24.5 20.5t29 24.5t24 22.5t25.5 27.5t18 27t15 31 q11 36 -12.5 67.5t-61.5 18.5q-39 -12 -54 -70zM449 370q10 37 40 59t70 19q43 -3 53.5 -35t-19.5 -62q-12 -14 -38 -31q41 -15 50.5 -50.5t-15.5 -71.5q-21 -30 -56 -49.5t-73 -23.5q-69 -7 -86 34q17 4 38.5 -6t27.5 -11q37 -8 82 27q22 17 32 37t7 35.5t-14 28.5 t-32 15.5t-47 -5.5q6 17 25.5 29.5t41 24.5t30.5 28q13 23 -2 42.5t-41 15.5q-13 -2 -25.5 -10.5t-26.5 -21.5t-22 -18zM105 120q16 31 40 62.5t62 73.5t50 56l269 332l95 117q2 2 7 8.5t7 9t6.5 7.5t8 7.5t8.5 5t10.5 4t11.5 1.5q-55 -80 -125 -166.5t-158 -189 t-135 -160.5l-98 -121q-2 -2 -9.5 -12t-10.5 -13.5t-10 -9.5t-13.5 -8.5t-15.5 -3.5z" />
<glyph unicode="&#x215b;" horiz-adv-x="677" d="M516 431q-29 -7 -35 -34.5t10 -49.5t40 -16q35 9 41 46q5 36 -20 50q-15 9 -36 4zM484 288q-45 -10 -62 -57q-15 -46 10 -75q22 -24 64 -14q40 9 53 47t-14 68q-10 11 -15 16t-16 11t-20 4zM148 730q3 8 14 12.5t27 5.5t31 0.5t31.5 -2t21.5 -1.5l-78 -293q6 -1 26 -5 t31 -9.5t18 -16.5q-30 7 -69 7t-68 -7l86 297zM480 304q-25 23 -34 39q-31 54 19 87q42 28 93 18q49 -10 48 -50q0 -11 -4 -24q-7 -16 -17 -27q-6 -7 -13 -12.5t-18 -12.5t-15 -10q34 -18 48 -44.5t7.5 -52t-24 -47.5t-47.5 -34t-62 -9q-44 4 -67 38.5t-2 74.5q25 48 88 66z M90 120q13 28 35 57t55 65t45 50l285 352l95 117q3 3 8.5 10.5t8 10.5t8 8t10 7.5t11 4.5t13.5 2q-74 -107 -236.5 -299.5t-181.5 -216.5l-101 -125q-2 -2 -9 -11t-10 -12t-9.5 -8.5t-12.5 -8t-14 -3.5z" />
<glyph unicode="&#x215c;" horiz-adv-x="677" d="M523 431q-28 -7 -34 -34.5t10 -49.5t40 -16q34 9 40 46q6 36 -19 50q-15 9 -37 4zM496 288q-46 -10 -62 -57q-16 -46 10 -75q21 -24 64 -14q40 9 53 47t-15 68q-10 11 -14.5 16t-15.5 11t-20 4zM152 671q4 40 44.5 61.5t80.5 8.5q31 -9 36 -35.5t-14 -50.5 q-11 -13 -45 -39q41 -14 51 -50t-15 -71q-22 -31 -56.5 -50t-73.5 -23q-69 -7 -86 34q17 3 38 -6.5t29 -11.5q28 -6 70 20q15 10 28.5 26.5t21 34.5t1.5 36t-28 28q-7 4 -16.5 4.5t-16 -0.5t-17.5 -3t-16 -3q9 19 47.5 39t50.5 39q12 21 -2 40.5t-37 17.5q-14 -1 -26 -8.5 t-27 -20.5t-22 -17zM488 304q-25 23 -34 39q-31 55 20 88q43 27 93 17q48 -11 47 -51q-1 -11 -5 -23q-6 -16 -20 -30q-14 -15 -42 -28q47 -36 55 -63q12 -41 -10 -74.5t-61.5 -47t-77.5 -3.5q-39 10 -51.5 36.5t-1.5 54.5t35.5 52.5t52.5 32.5zM98 120q18 30 41 59.5 t58 69.5t47 55l273 336l98 121q1 2 9 11.5t10.5 12.5t9.5 9t13.5 8t14.5 2q-17 -27 -39 -55t-51.5 -61.5t-43.5 -51.5l-285 -352l-98 -121q-2 -2 -9.5 -11.5t-10.5 -12.5t-9.5 -8.5t-13 -7.5t-14.5 -3z" />
<glyph unicode="&#x215d;" horiz-adv-x="677" d="M527 431q-28 -7 -34 -34.5t10 -49.5t40 -16q34 9 40 46q6 36 -19 50q-15 9 -37 4zM496 288q-46 -10 -62 -57q-16 -46 10 -75q22 -24 64 -14q40 9 53 47t-15 68q-10 11 -14.5 16t-15.5 11t-20 4zM160 644l46 97h48l90 16q-20 -35 -36 -41q-14 -5 -32 -5t-30 1t-24 -7.5 t-19 -29.5q21 -3 47 -16q44 -21 54.5 -57t-7 -70.5t-50 -63.5t-67.5 -39q-19 -6 -41 -8.5t-45.5 3.5t-27.5 24q45 -17 88 -6t76 46q23 24 30.5 51.5t-5 53t-44.5 38.5q-21 9 -51 13zM492 304q-25 23 -34 39q-31 54 19 87q42 28 93 18q48 -10 48 -50q0 -11 -5 -24 q-6 -16 -16 -27q-6 -7 -13.5 -12.5t-18 -12.5t-14.5 -10q34 -18 48 -44.5t7.5 -52t-24.5 -47.5t-47.5 -34t-61.5 -9q-44 4 -67 38.5t-2 74.5q25 48 88 66zM90 120q20 33 46.5 66.5t63 75t52.5 61.5l260 321l95 117q2 2 8 10t8 10.5t7.5 8t10 7.5t10.5 4.5t13 2.5 q-20 -32 -45 -64t-63 -76t-51 -59l-260 -321l-98 -121q-2 -2 -8 -9.5t-8 -10.5t-8 -8.5t-10 -7.5t-10 -4t-13 -3z" />
<glyph unicode="&#x215e;" horiz-adv-x="677" d="M508 427q-29 -7 -34.5 -34.5t10.5 -49.5t39 -16q35 9 41 47q5 35 -20 49q-15 9 -36 4zM477 288q-46 -10 -62 -57q-16 -46 10 -75q21 -24 63 -14q41 9 53.5 47t-14.5 68q-10 11 -14.5 16t-16 11t-19.5 4zM109 683q6 26 19 47.5t32 22.5v-12l180 4q-16 -36 -58.5 -107.5 t-58.5 -110.5l-6 -15t-5.5 -16t-3.5 -17.5t1 -14.5t6.5 -13t14.5 -6q-25 -33 -46.5 -17.5t-10.5 52.5q26 83 116 230l-129 -1zM469 300q-4 5 -14 17t-16 21.5t-8 20.5q-12 58 42 79q47 18 93 -3t29 -61q-5 -13 -18 -27q-6 -7 -13 -12.5t-17.5 -12.5t-15.5 -10q35 -18 49 -45 t6.5 -52.5t-25.5 -47.5t-48.5 -34t-63.5 -8q-43 6 -60 31t-9 53.5t32.5 55t56.5 35.5zM78 120q15 29 37.5 58t56 66t45.5 52l282 348l95 117q2 2 9.5 11.5t10.5 12.5t9.5 9t13.5 8t15 2q-54 -80 -125 -167t-157.5 -188t-134.5 -161l-101 -125q-2 -2 -9 -11t-10.5 -12.5 t-9.5 -8.5t-12.5 -7.5t-14.5 -3.5z" />
<glyph unicode="&#x2202;" horiz-adv-x="445" d="M273 478q-47 -8 -84 -42.5t-56.5 -78t-28.5 -92.5q-5 -31 0.5 -59.5t27.5 -47t56 -13.5q45 7 89 52.5t71.5 101.5t34.5 103q6 38 -33 60t-77 16zM402 441q2 19 9.5 53.5t14.5 64t10 64.5t-1.5 62t-24.5 50t-55 34q-44 13 -113 -23q-2 -1 -9.5 -5.5t-12 -7t-11 -3 t-10.5 4.5q-6 11 -6 19.5t10.5 15.5t21.5 12.5t26 9.5t25 6t17 4q67 10 112 -24.5t62 -102.5q28 -111 -17.5 -253t-129.5 -227q-22 -23 -49.5 -40.5t-58.5 -28.5t-64 -7t-58 26q-59 50 -32 159q11 41 39 82.5t66.5 71t80.5 44t84.5 -0.5t73.5 -60z" />
<glyph unicode="&#x2206;" horiz-adv-x="536" d="M352 655l-204 -339l-89 -157h367l-47 325zM8 128q8 25 23 50.5t38 59.5t31 46l192 309l66 105q2 4 6.5 11t7 10.5t6.5 9t9 8.5t11 4q5 -60 16 -128.5t27.5 -153t23.5 -128.5q2 -14 7 -39.5t8 -42.5t6 -39t2.5 -42.5t-4.5 -39.5h-476z" />
<glyph unicode="&#x220f;" horiz-adv-x="689" d="M141 734h523v-20l-8 -0.5t-10 -0.5t-9.5 -0.5t-10.5 -1.5t-9 -2t-9.5 -3t-7.5 -5t-6.5 -6.5t-4.5 -7.5q-8 -20 -8.5 -49.5t2.5 -67.5t3 -51v-274q0 -13 -1.5 -42t-1.5 -52t4 -42q8 -39 73 -39v-20h-199v20q58 0 70 27q7 16 8 39.5t-1.5 55t-2.5 42.5v320q0 7 2 29.5t2 41 t-2 39t-10.5 33t-22.5 13.5q-25 2 -53 2t-62.5 -1t-52.5 -1q-3 0 -14.5 0.5t-18 0.5t-15 -2.5t-12.5 -7.5q-4 -4 -5.5 -10.5t-1.5 -11t0.5 -13t0.5 -11.5v-105v-316q0 -11 -3 -42t-2 -55t7 -40q4 -9 11 -14.5t19.5 -8t17.5 -3t20 -1.5v-20h-195v20q16 1 22 2t19 4t20 10 t11 19q5 18 5.5 41t-1.5 53t-2 42v286q0 12 3 48t2 64.5t-8 47.5q-4 10 -12 16t-21.5 8t-20 2.5t-21.5 0.5v20z" />
<glyph unicode="&#x2211;" horiz-adv-x="586" d="M148 734h383l12 -137l-20 -4q0 4 -2.5 17.5t-3.5 19t-4.5 17t-6.5 18t-9 14.5t-13 14q-6 5 -13.5 8t-18 4t-16 1.5t-18.5 0t-16 -0.5h-183l176 -289v-4l-70 -105l-130 -211h211q5 0 18.5 -0.5t21 0t18.5 1.5t19.5 4.5t16.5 8.5q9 7 17 19.5t12 22t10 26.5t8 23l19 -4 l-24 -105l-14 -39l-102 -4h-281q0 12 5.5 25t10 21t15 23.5t13.5 20.5l100 164q3 4 17 23t21.5 33t7.5 26q1 12 -7 28t-22.5 37t-17.5 25l-100 172q-4 6 -12.5 19.5t-13 22t-9 20.5t-5.5 24z" />
<glyph unicode="&#x2212;" horiz-adv-x="667" d="M98 429h558v-47h-558v47z" />
<glyph unicode="&#x2215;" horiz-adv-x="93" d="M-176 120q18 27 40.5 55.5t52.5 64t45 52.5l281 348l98 121q1 2 7.5 10t8.5 10.5t8 8t10 7.5t10 4.5t13 2.5q-17 -27 -40 -55.5t-53 -63.5t-44 -53l-281 -348l-98 -121q-1 -1 -7.5 -9.5t-8.5 -11t-8 -8t-10 -7.5t-10.5 -4t-13.5 -3z" />
<glyph unicode="&#x2219;" horiz-adv-x="188" d="M145 477q25 7 31 -22q5 -32 -16 -54q-7 -8 -15 -10q-30 -9 -34 22q-3 32 18 54q7 7 16 10z" />
<glyph unicode="&#x221a;" horiz-adv-x="588" d="M551 921v-4l19 -4zM543 921l27 -8q-10 -83 -26 -177t-36.5 -208.5t-30.5 -176.5q-6 -34 -15 -108t-19 -131t-25 -105h12v-4l-12 -4l-138 344l-53 141l-71 -36l-8 24l118 58l156 -410h4l34 239z" />
<glyph unicode="&#x221e;" horiz-adv-x="715" d="M215 470q-32 -8 -50 -32t-16.5 -52t13.5 -53.5t39 -39.5t61 -6q27 6 64.5 34.5t40.5 52.5q1 5 -2.5 11.5t-6.5 10t-9.5 10l-7.5 7.5q-66 71 -126 57zM531 470q-28 -6 -68.5 -36.5t-39.5 -55.5q0 -4 1.5 -8t5.5 -9t6.5 -8t7.5 -8l6 -6q64 -65 120 -53q31 8 48.5 31.5 t17.5 51.5t-10.5 54t-36 40t-58.5 7zM395 351q-4 -4 -21.5 -22t-23.5 -24t-22 -19.5t-27 -19t-27 -11t-32 -6.5q-37 -1 -68.5 17.5t-47 48t-18 65.5t18.5 68q21 35 57 49t74 7t70 -30q6 -4 19 -19.5t26 -26.5t22 -11q13 0 41 29.5t33 32.5q29 20 62.5 24.5t62.5 -4.5 t50.5 -34.5t26.5 -62.5q8 -66 -35 -113.5t-109 -38.5q-37 6 -76 36t-56 65z" />
<glyph unicode="&#x222b;" horiz-adv-x="427" d="M344 868q23 5 45.5 -6t13.5 -35q-4 -12 -12 -15t-16.5 1t-18.5 9t-19 8t-18 -2t-16 -20q-8 -18 -12.5 -38t-4 -48t1 -41t4.5 -48.5t4 -39.5q13 -130 13 -348v-7q0 -23 -0.5 -36.5l-1.5 -40.5t-4 -45t-8 -42.5t-13 -40.5t-19 -32t-27.5 -25t-36.5 -11q-23 -3 -42.5 10 t-7.5 36q8 14 18 15t18.5 -6t19 -14.5t18.5 -6.5q5 1 9 3.5t7.5 7.5t6 9.5t4.5 11.5t3.5 12t3 13.5t2 12.5t1 11.5t1.5 8.5q4 19 2.5 56.5t-3 58.5t-5.5 58.5t-5 57.5q-14 211 -4 351q1 27 3 46t8.5 48t16.5 47.5t28 35t42 20.5z" />
<glyph unicode="&#x2248;" horiz-adv-x="532" d="M102 273q8 25 28 45q15 16 34 25q29 17 61 11t53 -20t52 -28t57 -14q18 0 34.5 11t25 21.5t22.5 30.5q23 -19 13 -40t-34.5 -37.5t-45.5 -19.5q-23 -3 -50.5 6.5t-51.5 22t-48.5 23t-49 7t-46.5 -24.5q-16 -17 -27 -35zM102 409q8 23 27 43q16 17 35 27q30 16 62.5 10 t55 -21t54 -28t59.5 -10q16 1 31.5 12.5t22 20t20.5 28.5l23 -15q-7 -24 -24 -43q-25 -28 -51 -36t-51.5 0.5t-49 21.5t-52.5 25t-53 12q-25 0 -43.5 -16.5t-38.5 -45.5z" />
<glyph unicode="&#x2260;" horiz-adv-x="550" d="M383 570l31 -12l-39 -86h133v-35q-9 0 -43.5 3t-60.5 2t-40 -9q-13 -8 -24.5 -30.5t-22.5 -52t-16 -38.5h207v-35h-156l-61 -4l-49 -94l-27 12l35 86h-125v35h145l54 125h-199v35h148q3 0 18.5 -1t26 0t16.5 5q8 5 16 18t13 24.5t11.5 29t8.5 22.5z" />
<glyph unicode="&#x2264;" horiz-adv-x="565" d="M137 179h383v-39h-383v39zM516 632q4 -10 5 -18t-3 -15t-6 -11.5t-11.5 -10t-13 -7.5t-16 -7t-14.5 -6l-187 -90q-9 -4 -26.5 -13.5t-32 -16t-27.5 -8.5l121 -64l215 -104v-47q-46 19 -95 43t-111 57t-91 48q-6 2 -21 8.5t-25 11.5t-20.5 13t-14.5 18t0 23q3 11 20.5 22 t45 22t30.5 12q28 14 87.5 42.5t105 51.5t85.5 46z" />
<glyph unicode="&#x2265;" horiz-adv-x="564" d="M137 179h383v-39h-383v39zM141 632q44 -18 90 -40.5t110 -55.5t89 -46q4 -2 23 -10t31 -13.5t23.5 -16t11.5 -21.5q1 -13 -9 -25t-21 -17.5t-31 -14t-24 -10.5q-13 -7 -123.5 -65t-169.5 -83q0 17 3.5 29t13.5 20.5t17 13t25 12.5l27 12q20 10 59.5 30.5t64.5 33t60 29 t66 27.5v4q-60 25 -250 120q-9 5 -27 12.5t-25.5 12t-17 13t-13 20.5t-3.5 29z" />
<glyph unicode="&#x25ca;" horiz-adv-x="595" d="M355 730q-23 -40 -60.5 -119.5t-41.5 -87.5q-3 -6 -16 -28.5t-20 -39t-8 -30.5q0 -12 6 -26.5t16 -31.5t13 -24q7 -14 24 -56t27.5 -65.5t28.5 -55.5t35 -54q18 31 36 66.5t40 81t33 67.5q3 6 15 26t19 36t7 28t-6.5 27t-18 34t-14.5 25q-12 23 -32.5 72.5t-40 88.5 t-42.5 66zM338 773q9 6 17 6t14 -3.5t12 -11t9 -13t7 -13.5l86 -176q5 -9 24 -40.5t30 -56.5t11 -44q0 -11 -6.5 -25.5t-17.5 -33t-13 -23.5l-90 -184q-3 -5 -11 -25.5t-16 -35t-17 -21.5q-31 -21 -58 32q-74 147 -89 179q-5 13 -22 41t-29 53t-12 43q0 10 5 22t14 27.5 t11 20.5q15 34 48 98.5t47 97.5q3 4 9 20t10.5 26.5t12 22t14.5 17.5z" />
<glyph unicode="&#xe000;" horiz-adv-x="495" d="M0 495h495v-495h-495v495z" />
<glyph unicode="&#xe001;" horiz-adv-x="750" d="M496 702l-172 -250l121 4l40 176zM363 714q6 11 20 16.5t26 5.5t33 -1t27 -1q52 0 157.5 2t158.5 2q0 -2 -1 -18.5t-2 -24t-4 -20.5t-9 -19.5t-15 -7.5q-1 28 -15 43.5t-34.5 18.5t-46 3t-50 -2.5t-46.5 3.5l-58 -254q7 0 46.5 -1.5t65.5 0t44 8.5q13 5 26.5 26t32.5 22 l-39 -156h-20q0 4 2.5 19.5t2 26.5t-6.5 18q-3 3 -8.5 4.5t-8.5 1.5h-11h-9q-4 0 -35 2.5t-53 1t-31 -9.5q-5 -6 -8.5 -15t-6 -24t-3.5 -18q-1 -5 -8.5 -36t-10 -43.5t-5.5 -35t-3 -41.5q0 -20 8 -32.5t23.5 -17.5t28.5 -6.5t34 -1.5q23 0 45 -0.5t43.5 3t40 11t34 23.5 t24.5 41q12 -7 12 -23.5t-7.5 -34t-20 -32t-23.5 -16.5q-18 -3 -40 -3t-48.5 1.5t-40.5 1.5h-265q2 11 12 17.5t20.5 8.5t22.5 8.5t18 16.5q13 24 23.5 59t16 62t13 69t10.5 60q-8 0 -38.5 2.5t-53.5 1.5t-36 -8q-10 -6 -19 -18.5t-19.5 -31.5t-13.5 -24q-14 -21 -41 -59 t-48 -70.5t-35 -62.5l101 -7q-3 -8 -8 -12.5t-12.5 -6t-12 -2t-15.5 0t-14 0.5q-31 0 -92 -2t-92 -2v28q27 0 49.5 7t37.5 15.5t32.5 27.5t27 32t27.5 40q6 9 10 14l181 262q12 16 37 49t43 59.5t32 51.5z" />
<glyph unicode="&#xe002;" horiz-adv-x="583" d="M-109 214l4 -4zM426 671q-117 -151 -168 -293h144l9 195zM430 800l74 117l32 41l62 2q-14 -20 -31 -39t-44 -46.5t-35 -35.5q-2 -2 -8 -9t-8.5 -9.5t-8 -7.5t-10 -7t-10.5 -4t-13 -2zM426 800l4 -4zM492 769q3 -5 2 -15.5t-2 -16t-4 -16t-4 -15.5q-10 -44 -15 -113 q-14 -208 -4 -438q44 -5 72 3t53 40l19 -7q-16 -34 -45.5 -49.5t-61.5 -15t-68.5 -0.5t-66.5 -6q35 85 35 227q-6 0 -48 3t-70.5 0.5t-43.5 -13.5q-11 -8 -20.5 -23.5t-18.5 -36t-14 -28.5q-20 -33 -36 -56t-39.5 -51t-50.5 -47t-57 -28q-85 -25 -132 17q-20 18 -25.5 44 t6 49.5t38.5 32.5q-16 -29 -17 -59t19 -49.5t60 -15.5q67 6 124 69t107.5 149t102 185t91.5 159q19 29 64 72t50 49z" />
<glyph unicode="&#xe003;" horiz-adv-x="583" d="M-109 214l4 -4zM426 671q-117 -151 -168 -293h144l9 195zM387 796l83 113l39 45l46 2l27 -160q-13 1 -23.5 9.5t-18 25t-11 27.5t-8.5 29q-1 5 -1 7q-10 -8 -37.5 -36.5t-50.5 -44.5t-45 -17zM492 769q3 -5 2 -15.5t-2 -16t-4 -16t-4 -15.5q-10 -44 -15 -113 q-14 -208 -4 -438q44 -5 72 3t53 40l19 -7q-16 -34 -45.5 -49.5t-61.5 -15t-68.5 -0.5t-66.5 -6q35 85 35 227q-6 0 -48 3t-70.5 0.5t-43.5 -13.5q-11 -8 -20.5 -23.5t-18.5 -36t-14 -28.5q-20 -33 -36 -56t-39.5 -51t-50.5 -47t-57 -28q-85 -25 -132 17q-20 18 -25.5 44 t6 49.5t38.5 32.5q-16 -29 -17 -59t19 -49.5t60 -15.5q67 6 124 69t107.5 149t102 185t91.5 159q19 29 64 72t50 49z" />
<glyph unicode="&#xe004;" horiz-adv-x="583" d="M426 675q-11 -18 -57 -86t-72 -116t-39 -95h140l10 192zM414 883q20 8 34 -6t11.5 -34.5t-22.5 -27.5q-20 -8 -34 6t-11.5 34.5t22.5 27.5zM559 883q20 8 34 -6t11.5 -34.5t-22.5 -27.5q-20 -8 -34 6t-11.5 34.5t22.5 27.5zM492 769q1 -15 1 -19.5t-4 -20t-5 -19.5 q-10 -51 -15 -113q-14 -210 -4 -442q44 -5 72 3t53 40l19 -7q-13 -29 -34.5 -44t-47.5 -18t-51.5 -2t-56 0.5t-52.5 -7.5q15 35 22 76.5t8 70.5t1 80q-8 0 -47.5 3t-67 1t-44.5 -12q-11 -7 -21.5 -24t-20.5 -39.5t-15 -30.5q-21 -33 -37 -55.5t-40 -50t-51 -46t-58 -27.5 q-68 -20 -113 10q-41 28 -37.5 71t45.5 67q-3 -7 -9.5 -19t-10.5 -22.5t-4 -20.5q2 -29 25.5 -48t52.5 -19q70 2 132 70q46 51 88.5 118.5t76 131.5t69 128.5t82 127t99.5 108.5z" />
<glyph unicode="&#xe005;" horiz-adv-x="583" d="M-109 214l4 -4zM426 671q-117 -151 -168 -293h144l9 195zM418 956l65 -4l24 -43l52 -113q-22 0 -43 19.5t-35 44t-32 52.5t-31 40v4zM492 769q3 -5 2 -15.5t-2 -16t-4 -16t-4 -15.5q-10 -44 -15 -113q-14 -208 -4 -438q44 -5 72 3t53 40l19 -7q-16 -34 -45.5 -49.5 t-61.5 -15t-68.5 -0.5t-66.5 -6q35 85 35 227q-6 0 -48 3t-70.5 0.5t-43.5 -13.5q-11 -8 -20.5 -23.5t-18.5 -36t-14 -28.5q-20 -33 -36 -56t-39.5 -51t-50.5 -47t-57 -28q-85 -25 -132 17q-20 18 -25.5 44t6 49.5t38.5 32.5q-16 -29 -17 -59t19 -49.5t60 -15.5q67 6 124 69 t107.5 149t102 185t91.5 159q19 29 64 72t50 49z" />
<glyph unicode="&#xe006;" horiz-adv-x="583" d="M-109 214l4 -4zM426 671l-122 -203l-46 -90h144l9 195zM496 769l4 -4zM492 765q2 -13 1.5 -18t-4 -18.5t-4.5 -18.5q-12 -61 -16 -117q-14 -208 -4 -438q44 -5 72 3t53 40l19 -7q-16 -34 -45.5 -49.5t-61.5 -15t-68.5 -0.5t-66.5 -6q35 85 35 227q-6 0 -48 3t-70.5 0.5 t-43.5 -13.5q-11 -8 -20.5 -23.5t-18.5 -36t-14 -28.5q-20 -33 -36 -56t-39.5 -51t-50.5 -47t-57 -28q-85 -25 -132 17q-20 18 -25.5 44t6 49.5t38.5 32.5q-16 -29 -17.5 -57.5t17.5 -49t58 -18.5q67 4 125 67q48 51 88 113.5t92.5 161.5t68.5 127q22 39 35.5 61t35.5 53 t46 54.5t52 42.5zM484 923q-31 -8 -37 -37t13.5 -50.5t51.5 -13.5q31 8 37 36.5t-14 50.5t-51 14zM480.5 946.5q27.5 6.5 49.5 -4.5t31.5 -32t10.5 -43.5t-14 -42.5t-42.5 -26t-49.5 5t-31.5 31.5t-10.5 43.5t14 42.5t42.5 26z" />
<glyph unicode="&#xe007;" horiz-adv-x="583" d="M-109 214l4 -4zM426 671q-117 -151 -168 -293h144l9 195zM492 769q3 -5 2 -15.5t-2 -16t-4 -16t-4 -15.5q-10 -44 -15 -113q-14 -208 -4 -438q44 -5 72 3t53 40l19 -7q-16 -34 -45.5 -49.5t-61.5 -15t-68.5 -0.5t-66.5 -6q35 85 35 227q-6 0 -48 3t-70.5 0.5t-43.5 -13.5 q-11 -8 -20.5 -23.5t-18.5 -36t-14 -28.5q-20 -33 -36 -56t-39.5 -51t-50.5 -47t-57 -28q-85 -25 -132 17q-20 18 -25.5 44t6 49.5t38.5 32.5q-16 -29 -17 -59t19 -49.5t60 -15.5q67 6 124 69t107.5 149t102 185t91.5 159q19 29 64 72t50 49zM359 812q8 21 17 39q9 17 19 27 q18 18 39 19t36.5 -8.5t37.5 -19.5t39 -9q14 1 31.5 19t30.5 19q-3 -24 -13 -43q-13 -27 -32.5 -35.5t-39 -2.5t-41 14t-39.5 14.5t-35 -1t-26 -32.5h-24z" />
<glyph unicode="&#xe008;" horiz-adv-x="500" d="M277 722q-3 -26 -9.5 -54t-16 -64.5t-13.5 -53.5q-1 -3 -6.5 -21.5t-6.5 -25.5t0 -22q4 -8 33 -12q58 -7 97 18q46 30 59 87t-22 100q-35 40 -115 48zM230 447q-15 -4 -23.5 -24t-14 -57.5t-5.5 -38.5q-2 -9 -7.5 -30t-8 -32t-5 -30t-1.5 -29.5t5 -24t13.5 -20.5t25 -12 t37.5 -5q26 0 51 6q38 9 64.5 32.5t35.5 53t9 62.5t-14.5 63t-36 52.5t-54.5 32t-71 1.5zM-55 495q-3 1 -25.5 2.5t-30.5 7.5q-13 12 -14 35t6 37q23 64 123 115q55 28 119 43.5t131 16.5t125 -18q71 -25 95.5 -84.5t-17.5 -122.5q-7 -10 -15 -18.5t-19.5 -16.5t-17.5 -11.5 t-22 -12.5t-20 -12q53 -15 82.5 -56.5t32 -88.5t-20 -93.5t-66.5 -71.5q-22 -13 -46 -19.5t-53.5 -7t-48 0.5t-54.5 5.5t-48 5.5q-70 7 -153 -15q2 15 15 23t28.5 11t31.5 11t23 22q9 17 14.5 37.5t11.5 51t8 40.5q8 36 27.5 129.5t32.5 143.5q1 4 6.5 21t9 31t7 30.5 t2.5 29.5t-8 18q-5 5 -15 6.5t-20 0.5t-24 -4.5t-22.5 -6t-21.5 -7.5t-16 -6q-22 -7 -41.5 -15t-46 -22t-44 -29.5t-28 -37t-7.5 -44.5q2 -10 7 -19t14.5 -20t12.5 -16z" />
<glyph unicode="&#xe009;" horiz-adv-x="521" d="M477 19q-4 -10 -12 -35.5t-16 -45.5t-17 -30q-42 -44 -111.5 -53.5t-134.5 14t-102 68.5q-52 62 -64.5 144.5t-3.5 183.5q7 70 28.5 139t57 133.5t90 114t120.5 71.5q118 40 215 -1q2 -1 8.5 -3.5t10 -3.5t10 -4t10.5 -5.5t9 -6t8 -7t4 -7.5q2 -11 1.5 -17.5t-4.5 -21 t-5 -18.5q-14 -82 -17 -137h-23q0 9 2 32.5t2 35.5t-1 31.5t-5.5 35t-13.5 29.5q-22 41 -59.5 53.5t-77.5 1t-76.5 -33t-63.5 -48.5q-78 -78 -117.5 -198.5t-42.5 -246.5q-4 -166 72 -250q53 -57 110.5 -51.5t105.5 46t75 99.5z" />
<glyph unicode="&#xe00a;" horiz-adv-x="615" d="M316 116q-92 12 -152 71q-46 45 -65 101.5t-12.5 111.5t32.5 110.5t66 100.5t90.5 78.5t103.5 47.5q130 33 238 -18q3 -1 12.5 -5.5t15 -7.5t13.5 -7.5t13 -9.5t8 -11q7 -14 -2 -55t-9 -46l-23 -4q-1 48 -24.5 82.5t-60.5 50t-81 15.5t-84 -17q-92 -36 -152 -117.5 t-73 -181.5q-11 -80 27 -154.5t112 -100.5q32 -12 68 -8t67 17t60 35q8 7 25 29t32.5 32.5t32.5 1.5q-5 -8 -13 -32t-17.5 -42t-21.5 -25q-47 -28 -132 -40q-7 -1 -20.5 -2t-22 -2t-18.5 -5.5t-17 -11.5q49 -12 59 -53t-28 -75q-31 -28 -71 -36t-97 -8q4 10 9 14t15 5 q74 11 105 40q20 20 16 41.5t-31 29.5q-12 3 -36 3z" />
<glyph unicode="&#xe00b;" horiz-adv-x="667" d="M285 710q-10 -48 -32.5 -136t-31.5 -126q-31 -138 -40 -195q-1 -5 -4 -18t-4.5 -21.5t-1.5 -19.5t3 -18q11 -24 80 -24q69 -2 120 6t95 38q63 43 97 125t24.5 170t-64.5 144q-75 75 -241 75zM-55 464q-3 -1 -11.5 -5.5t-15 -7t-12.5 -2.5q-29 3 -31 34t10.5 60.5 t24.5 45.5q69 94 238 131q67 15 136 17t141 -14t126 -51q75 -48 102.5 -134.5t4 -175t-87.5 -148.5q-24 -23 -50.5 -39t-58.5 -25.5t-57 -15t-64 -6.5t-60.5 -0.5t-66 2.5t-61.5 2q-26 1 -54 -1t-67.5 -6t-53.5 -5l3 28q2 0 16.5 -0.5t18.5 0t16 1.5t18 3t14 6t15 10 q9 9 15.5 22.5t9.5 24t6.5 29t5.5 25.5q26 105 57 261q3 18 11.5 58.5t12.5 63.5q7 37 -6 46q-17 11 -77 -7q-124 -39 -181 -114q-15 -19 -21 -39.5t2 -40t32 -29.5v-4z" />
<glyph unicode="&#xe00c;" horiz-adv-x="510" d="M316 445q-34 24 -46 43q-38 61 -19 115t71 92t112 45q39 5 88 -8t58 -45q4 -14 -14 -56.5t-19 -53.5h-24q1 7 6 24.5t5.5 25.5t-1.5 25q-10 30 -48 45.5t-71 10.5q-65 -10 -99.5 -65t-0.5 -113q14 -25 45 -43q29 -17 79 -23q-3 -13 -10 -20t-14 -9t-21.5 -3.5t-21.5 -3.5 q-44 -10 -82 -36q-75 -49 -119.5 -131t-36.5 -168q9 -86 75 -148.5t151 -53.5q27 2 58 14.5t57.5 32t39 47.5t2.5 57q50 24 47 -14q-2 -34 -35 -77q-3 -3 -5 -6q-44 -50 -111.5 -73.5t-134.5 -15.5q-53 6 -97 31.5t-71 64t-41 85t-10.5 98t24.5 99.5q58 137 234 211z" />
<glyph unicode="&#xe00d;" horiz-adv-x="510" d="M418 796l74 117l33 41l61 2q-13 -19 -30 -37.5t-42 -44.5t-34 -35q-3 -3 -10.5 -12t-11 -12.5t-10.5 -8.5t-14 -7.5t-16 -2.5zM316 445q-34 24 -46 43q-38 61 -19 115t71 92t112 45q39 5 88 -8t58 -45q4 -14 -14 -56.5t-19 -53.5h-24q1 7 6 24.5t5.5 25.5t-1.5 25 q-10 30 -48 45.5t-71 10.5q-65 -10 -99.5 -65t-0.5 -113q14 -25 45 -43q29 -17 79 -23q-3 -13 -10 -20t-14 -9t-21.5 -3.5t-21.5 -3.5q-44 -10 -82 -36q-75 -49 -119.5 -131t-36.5 -168q9 -86 75 -148.5t151 -53.5q27 2 58 14.5t57.5 32t39 47.5t2.5 57q50 24 47 -14 q-2 -34 -35 -77q-3 -3 -5 -6q-44 -50 -111.5 -73.5t-134.5 -15.5q-53 6 -97 31.5t-71 64t-41 85t-10.5 98t24.5 99.5q58 137 234 211z" />
<glyph unicode="&#xe00e;" horiz-adv-x="510" d="M359 796l84 113l39 45l45 2l28 -160q-15 1 -26 12.5t-16 23.5t-12 34t-9 28q-9 -8 -36.5 -36t-50.5 -44.5t-46 -17.5zM316 445q-34 24 -46 43q-38 61 -19 115t71 92t112 45q39 5 88 -8t58 -45q4 -14 -14 -56.5t-19 -53.5h-24q1 7 6 24.5t5.5 25.5t-1.5 25 q-10 30 -48 45.5t-71 10.5q-65 -10 -99.5 -65t-0.5 -113q14 -25 45 -43q29 -17 79 -23q-3 -13 -10 -20t-14 -9t-21.5 -3.5t-21.5 -3.5q-44 -10 -82 -36q-75 -49 -119.5 -131t-36.5 -168q9 -86 75 -148.5t151 -53.5q27 2 58 14.5t57.5 32t39 47.5t2.5 57q50 24 47 -14 q-2 -34 -35 -77q-3 -3 -5 -6q-44 -50 -111.5 -73.5t-134.5 -15.5q-53 6 -97 31.5t-71 64t-41 85t-10.5 98t24.5 99.5q58 137 234 211z" />
<glyph unicode="&#xe00f;" horiz-adv-x="510" d="M316 445q-34 24 -46 43q-38 61 -19 115t71 92t112 45q39 5 88 -8t58 -45q4 -14 -14 -56.5t-19 -53.5h-24q1 7 6 24.5t5.5 25.5t-1.5 25q-10 30 -48 45.5t-71 10.5q-65 -10 -99.5 -65t-0.5 -113q14 -25 45 -43q29 -17 79 -23q-3 -13 -10 -20t-14 -9t-21.5 -3.5t-21.5 -3.5 q-44 -10 -82 -36q-75 -49 -119.5 -131t-36.5 -168q9 -86 75 -148.5t151 -53.5q27 2 58 14.5t57.5 32t39 47.5t2.5 57q50 24 47 -14q-2 -34 -35 -77q-3 -3 -5 -6q-44 -50 -111.5 -73.5t-134.5 -15.5q-53 6 -97 31.5t-71 64t-41 85t-10.5 98t24.5 99.5q58 137 234 211z M395 883q20 8 34 -6t11.5 -34.5t-22.5 -27.5q-20 -8 -34 6t-11.5 34.5t22.5 27.5zM539 883q20 8 34 -6t11.5 -34.5t-22.5 -27.5q-20 -8 -34 6t-11.5 34.5t22.5 27.5z" />
<glyph unicode="&#xe010;" horiz-adv-x="510" d="M344 956l64 -4l23 -43l49 -113q-6 0 -11 1t-10 4.5t-7.5 4.5t-7.5 7t-6 7.5t-7 9.5t-6 9q-8 11 -27 35.5t-32.5 44t-21.5 37.5zM316 445q-34 24 -46 43q-38 61 -19 115t71 92t112 45q39 5 88 -8t58 -45q4 -14 -14 -56.5t-19 -53.5h-24q1 7 6 24.5t5.5 25.5t-1.5 25 q-10 30 -48 45.5t-71 10.5q-65 -10 -99.5 -65t-0.5 -113q14 -25 45 -43q29 -17 79 -23q-3 -13 -10 -20t-14 -9t-21.5 -3.5t-21.5 -3.5q-44 -10 -82 -36q-75 -49 -119.5 -131t-36.5 -168q9 -86 75 -148.5t151 -53.5q27 2 58 14.5t57.5 32t39 47.5t2.5 57q50 24 47 -14 q-2 -34 -35 -77q-3 -3 -5 -6q-44 -50 -111.5 -73.5t-134.5 -15.5q-53 6 -97 31.5t-71 64t-41 85t-10.5 98t24.5 99.5q58 137 234 211z" />
<glyph unicode="&#xe011;" horiz-adv-x="667" d="M285 710l-62 -262h172l-4 -27h-176q-5 -27 -17 -83t-18 -85q0 -3 -2.5 -14t-4 -17t-2.5 -15.5t0 -17.5t3 -14q10 -23 80 -23q72 -1 121.5 7t93.5 38q63 42 97 124t24.5 170.5t-64.5 143.5q-75 75 -241 75zM-55 464q-3 -1 -11.5 -5.5t-15 -7t-12.5 -2.5q-29 3 -31 34 t10.5 60.5t24.5 45.5q69 94 238 131q67 15 136 17t141 -14t126 -51q75 -48 102.5 -134.5t4 -175t-87.5 -148.5q-24 -23 -50.5 -39t-58.5 -25.5t-57 -15t-64 -6.5t-60.5 -0.5t-66 2.5t-61.5 2q-26 1 -54 -1t-67.5 -6t-53.5 -5l3 28q4 0 16 -0.5t17 0t15.5 1t17 2.5t14.5 5.5 t14 8.5q5 4 9 8.5t7 10.5l5 10t4.5 12t3.5 11t3 13t3 11q23 95 39 180h-113q4 13 13.5 20t24 9t27.5 1.5t30.5 -2t25.5 -1.5q4 26 9 54.5t13 64.5t12 53l4 16t4.5 20t2 18t-3.5 16q-2 5 -5.5 7.5t-9 3.5t-10.5 1.5t-12 -0.5t-12 -2t-13 -3t-11.5 -3t-10.5 -3.5t-8 -2.5 q-123 -40 -176 -115q-14 -19 -19 -39t3.5 -38.5t31.5 -27.5v-4z" />
<glyph unicode="&#xe012;" horiz-adv-x="563" d="M125 437q-2 -2 -10 -7t-12.5 -8t-11.5 -5.5t-13 -2.5q-24 2 -40 35t-18 62q-3 48 17.5 91t60.5 75q27 21 61.5 35t63 19.5t72.5 6.5t67.5 0t71.5 -4q144 -10 277 15l-21 -44l-88 1h-157l-54 -226l140 5l63 38l-35 -133h-20q0 4 1.5 14t1.5 18t-3 14q-7 13 -29 18.5 t-42.5 5.5t-49.5 -2t-35 -2q-3 -40 -22.5 -117.5t-21.5 -89.5q-1 -5 -4.5 -19t-5.5 -23t-1.5 -20.5t4.5 -19.5q17 -33 94 -20q19 4 58 16q-6 -23 -27.5 -31.5t-54.5 -11.5q-27 -1 -75.5 5t-64.5 7q-26 1 -72 -3t-57 -5q9 16 31.5 21.5t46 12t35.5 25.5q11 17 18 39 t14.5 61.5t8.5 43.5l57 254q1 4 6 21t8.5 31t6.5 30.5t0.5 28t-10.5 16.5q-24 12 -93 3q-29 -3 -58 -11.5t-58.5 -23.5t-51.5 -34t-34 -47t-9 -61q2 -14 6 -25.5t13.5 -23t14 -16t21 -17t19.5 -15.5z" />
<glyph unicode="&#xe013;" horiz-adv-x="573" d="M418 132q-49 -26 -103.5 -27.5t-100 18.5t-80 61.5t-46.5 95.5q-24 107 10 215t117 179q62 53 143.5 67.5t157.5 -18.5q0 -1 11 -6t14.5 -6.5t13 -6.5t14 -9t10 -9.5t8.5 -10.5q7 -14 -5 -61t-12 -56h-23v18v20.5t-1 18t-3 19.5t-7 18q-18 36 -52.5 52t-72 12.5t-74 -18 t-64.5 -37.5q-74 -61 -103.5 -159t-10.5 -198q13 -72 62 -120.5t119 -47.5q23 0 47.5 7t35.5 21q13 17 19.5 61.5t-9.5 57.5q-8 4 -17.5 4.5t-22 -2.5t-19.5 -5t-22 -8.5t-16 -6.5q3 13 8 21t16 12.5t18 6t24 4.5q18 2 50 6t57.5 7.5t49.5 8.5q-5 -13 -22.5 -31t-21.5 -31 q-8 -24 -30 -121t-49 -145q-40 -73 -105.5 -111t-141 -34.5t-142.5 47.5l51 83l19 -8q-1 -5 -5.5 -16t-6.5 -19t0 -16q5 -24 25.5 -35.5t46.5 -11t51 6t42 14.5q108 58 148 229z" />
<glyph unicode="&#xe014;" horiz-adv-x="760" d="M605 460q33 242 107 324q15 18 41.5 30.5t52.5 16t46 -11t23 -46.5l-39 -12q5 22 -7.5 39t-35.5 8q-29 -11 -49 -51q-14 -26 -23 -58.5t-17 -76t-13 -60.5q-1 -6 -11 -49.5t-12.5 -53.5t-11 -48t-11.5 -53t-10 -48t-10.5 -54t-7.5 -48.5t-8 -52.5q7 0 35.5 -3t39.5 -3 t32 3t38 11q0 -24 -15.5 -33t-43.5 -10q-24 0 -61.5 3.5t-60 4.5t-61.5 -4l86 301l-328 4q-5 -61 -18.5 -123.5t-44 -128.5t-70.5 -100q-27 -22 -62 -34.5t-73.5 -8t-61.5 31.5q-25 29 -12 70q11 33 34 31q15 -1 30 -23q-22 -7 -31 -23.5t-0.5 -33t31.5 -23.5q27 -8 55.5 6 t48.5 39q17 20 31 49t21 50.5t16 56.5q12 40 23 83.5t25.5 105t20.5 84.5q0 2 20 102q0 4 3.5 16.5t4 17t-1.5 16.5q-3 6 -7 10.5t-11.5 7t-13 4t-15.5 2t-14 0.5h-14.5h-11.5l4 20q34 -9 75.5 -9t93.5 4t77 5l-4 -20l-70 -14l-30 -64l-41 -176h328z" />
<glyph unicode="&#xe015;" horiz-adv-x="333" d="M66 679l4 -4zM70 679q2 12 9.5 21t21 14t23 7.5t25.5 4.5q5 1 7 1q47 8 137.5 10.5t132.5 7.5l-4 -19q-28 -4 -41 -6t-34.5 -12t-30.5 -25q-15 -28 -24 -68t-16 -90.5t-12 -72.5l-67 -304q-4 -14 -12 -47t-12 -52t-8 -46.5t-5 -50.5l86 -4q-6 -13 -20 -17.5t-28.5 -3 t-29.5 -0.5q-26 -3 -108 -9.5t-126 -15.5l4 23q96 12 131 51q11 12 19.5 27t14.5 34.5t9.5 32.5t8.5 37.5t7 32.5q67 299 75 332q16 68 37 164q0 2 1.5 8.5t2 9.5l1.5 9t0.5 9.5t-1 8.5t-2.5 9t-5 7q-13 14 -37 15t-44.5 -5t-48 -16t-37.5 -12z" />
<glyph unicode="&#xe016;" horiz-adv-x="333" d="M66 679l4 -4zM250 796l72 113l35 45l61 2q-13 -19 -30 -37.5t-42 -44.5t-34 -35q-3 -3 -10.5 -12t-11 -12.5t-10.5 -8.5t-14 -7.5t-16 -2.5zM70 679q2 12 9.5 21t21 14t23 7.5t25.5 4.5q5 1 7 1q47 8 137.5 10.5t132.5 7.5l-4 -19q-28 -4 -41 -6t-34.5 -12t-30.5 -25 q-15 -28 -24 -68t-16 -90.5t-12 -72.5l-67 -304q-4 -14 -12 -47t-12 -52t-8 -46.5t-5 -50.5l86 -4q-6 -13 -20 -17.5t-28.5 -3t-29.5 -0.5q-26 -3 -108 -9.5t-126 -15.5l4 23q96 12 131 51q11 12 19.5 27t14.5 34.5t9.5 32.5t8.5 37.5t7 32.5q67 299 75 332q16 68 37 164 q0 2 1.5 8.5t2 9.5l1.5 9t0.5 9.5t-1 8.5t-2.5 9t-5 7q-13 14 -37 15t-44.5 -5t-48 -16t-37.5 -12z" />
<glyph unicode="&#xe017;" horiz-adv-x="333" d="M66 679l4 -4zM203 796l80 109l38 47l50 4l27 -160q-17 1 -31 19.5t-20.5 38t-10.5 40.5q-13 -10 -38.5 -36t-48.5 -43.5t-46 -18.5zM70 679q2 12 9.5 21t21 14t23 7.5t25.5 4.5q5 1 7 1q47 8 137.5 10.5t132.5 7.5l-4 -19q-28 -4 -41 -6t-34.5 -12t-30.5 -25 q-15 -28 -24 -68t-16 -90.5t-12 -72.5l-67 -304q-4 -14 -12 -47t-12 -52t-8 -46.5t-5 -50.5l86 -4q-6 -13 -20 -17.5t-28.5 -3t-29.5 -0.5q-26 -3 -108 -9.5t-126 -15.5l4 23q96 12 131 51q11 12 19.5 27t14.5 34.5t9.5 32.5t8.5 37.5t7 32.5q67 299 75 332q16 68 37 164 q0 2 1.5 8.5t2 9.5l1.5 9t0.5 9.5t-1 8.5t-2.5 9t-5 7q-13 14 -37 15t-44.5 -5t-48 -16t-37.5 -12z" />
<glyph unicode="&#xe018;" horiz-adv-x="333" d="M62 675q4 14 12 23.5t22.5 15t24 8t27.5 5.5q48 9 141 11t133 7l-4 -19q-1 0 -9.5 -1.5t-11.5 -1.5t-11 -1.5t-12 -2.5t-11 -2.5t-11 -3.5t-10 -4t-10 -5l-8 -6q-17 -16 -26.5 -48t-16 -78t-8.5 -57q-53 -232 -85 -383q-3 -14 -14.5 -80t-21.5 -100l86 -4 q-1 -10 -10 -15.5t-20 -5.5t-23 0.5t-21 -0.5q-20 -2 -104.5 -8t-129.5 -17q1 12 9 19t16.5 9t23 4t21.5 4q59 18 84 69q10 20 18.5 46t12.5 45t10 50.5t9 46.5l76 332q25 114 27 121q6 37 -5 49q-6 7 -16 11t-19.5 5t-24 -1.5t-24 -4.5t-25.5 -7.5t-23 -8.5t-21.5 -9 t-16.5 -7zM234 883q21 8 34.5 -6t11.5 -34.5t-22 -27.5q-20 -8 -34 6t-11.5 34.5t21.5 27.5zM379 883q20 8 34 -6t11.5 -34.5t-22.5 -27.5q-20 -8 -34 6t-11.5 34.5t22.5 27.5z" />
<glyph unicode="&#xe019;" horiz-adv-x="333" d="M66 679l4 -4zM207 956l61 -4l27 -47l49 -109q-6 0 -10.5 1t-8 2t-7.5 4t-6 4t-6 6t-5.5 6.5t-6 7.5t-5.5 8q-8 11 -27.5 36t-33.5 45.5t-21 39.5zM70 679q2 12 9.5 21t21 14t23 7.5t25.5 4.5q5 1 7 1q47 8 137.5 10.5t132.5 7.5l-4 -19q-28 -4 -41 -6t-34.5 -12 t-30.5 -25q-15 -28 -24 -68t-16 -90.5t-12 -72.5l-67 -304q-4 -14 -12 -47t-12 -52t-8 -46.5t-5 -50.5l86 -4q-6 -13 -20 -17.5t-28.5 -3t-29.5 -0.5q-26 -3 -108 -9.5t-126 -15.5l4 23q96 12 131 51q11 12 19.5 27t14.5 34.5t9.5 32.5t8.5 37.5t7 32.5q67 299 75 332 q16 68 37 164q0 2 1.5 8.5t2 9.5l1.5 9t0.5 9.5t-1 8.5t-2.5 9t-5 7q-13 14 -37 15t-44.5 -5t-48 -16t-37.5 -12z" />
<glyph unicode="&#xe01a;" horiz-adv-x="302" d="M-98 519q-16 -24 -36.5 -23.5t-27.5 31.5q-10 41 15 89q34 66 143 97q57 16 122.5 20t159 2t124.5 -1l-4 -24q-3 0 -19 0.5t-23.5 0t-19.5 -3t-20 -7.5l-8 -8t-6.5 -9.5t-4.5 -9.5t-4 -11.5t-3 -11t-2.5 -12t-2.5 -10.5l-36 -164q-6 -30 -17 -87.5t-18.5 -95.5t-22 -93 t-29.5 -93.5t-40 -82t-54.5 -72t-72 -51t-93.5 -30.5q-64 -11 -113 3q-46 13 -49 40q-1 21 20 50.5t41 23.5q-2 -4 -7.5 -13t-8 -16t-2.5 -14q1 -24 28.5 -37t55.5 -14q80 -3 141 55q45 44 68.5 104t43.5 146q38 171 68 320l26 133q5 15 3 32t-18 26q-6 3 -12.5 5t-15 2.5 t-13.5 1t-15.5 0t-13.5 -0.5q-141 0 -207 -48q-25 -18 -40.5 -42.5t-12 -52t32.5 -44.5z" />
<glyph unicode="&#xe01b;" horiz-adv-x="573" d="M523 714q2 6 4.5 10t5.5 6t8.5 3t8.5 1h10.5h9.5q23 -1 71.5 -2.5t73.5 -1.5l-98 -48l-254 -234v-3q18 -15 34 -38t25 -41.5t23 -49t21 -43.5q8 -17 31 -64.5t34.5 -69.5t34.5 -62t41.5 -64t46 -52.5t57.5 -49.5q40 -28 83.5 -39t92.5 1q30 10 47.5 30.5t10.5 48.5l39 12 q15 -65 -66 -103q-60 -27 -125 -21.5t-121 38.5q-54 32 -100 83t-81 111.5t-64 119t-64 125.5t-66 112q110 69 216 191q40 46 44 52q27 42 -34 42zM4 515q-34 59 -14.5 114.5t84.5 80.5q35 13 81 20t79 7.5t89 0t79 0.5q-1 -13 -7 -18t-17.5 -8.5t-18.5 -8.5 q-18 -13 -28 -48q-17 -57 -31.5 -117.5t-34 -153.5t-25.5 -119q-6 -32 -8 -60t16 -42t57 -4q-1 -11 -5.5 -18.5t-14.5 -10.5t-17.5 -4t-21.5 -2q-27 -1 -91.5 3.5t-99.5 0.5v20q62 0 85 23q9 10 16 25.5t9.5 27t6.5 32.5t5 28q30 135 60 254q1 6 7.5 27.5t11 38t7.5 37t0 36 t-13 23.5q-28 18 -69 15t-81 -19.5t-61 -36.5q-32 -31 -32 -63.5t36 -57.5z" />
<glyph unicode="&#xe01c;" horiz-adv-x="354" d="M188 714q20 6 44 10t40.5 6t46 3t41 1h47h42.5l-4 -24q-3 0 -16 0.5t-18.5 0t-15 -2.5t-16.5 -6q-15 -8 -26 -31t-15.5 -42t-9.5 -51.5t-6 -39.5q-2 -9 -10.5 -50t-11.5 -56t-11.5 -50t-15 -55t-16.5 -47.5t-22 -49.5q-44 -90 -114 -110v-8q45 -16 91 -46.5t85 -64 t79 -66.5t87.5 -61t95.5 -41q27 -8 58 -8t60 7.5t48.5 29.5t20.5 55l39 4q0 -36 -23 -63t-56 -39t-71 -18t-69 1q-50 6 -97 24t-94.5 50.5t-78 56.5t-81.5 67q-10 9 -34 31t-39 34t-37.5 28t-44.5 24.5t-44 10.5v4q26 7 48.5 19t40 25t33.5 32.5t26.5 35t21.5 41.5t17.5 43 t14 47t11.5 46.5t11 48.5q5 22 7 33q22 98 29 145q5 13 3.5 29.5t-14.5 24.5q-8 4 -18 4t-18 -2t-19.5 -5t-18.5 -4z" />
<glyph unicode="&#xe01d;" horiz-adv-x="354" d="M98 323l4 -3zM188 714q20 6 44 10t40.5 6t46 3t41 1h47h42.5l-4 -24q-3 0 -13 0.5t-16 0t-14 -1t-14.5 -3t-12.5 -6.5q-5 -3 -8.5 -7t-6.5 -9.5t-5 -9t-4.5 -10.5t-3 -10t-2.5 -11.5t-3 -10.5q-5 -23 -16 -73t-17 -75l132 82q-4 -25 -21.5 -42t-37.5 -25.5t-43 -23 t-35 -31.5q-8 -11 -12.5 -27t-8 -37t-6.5 -29q-50 -206 -156 -231q20 -21 68.5 -50t60.5 -38q20 -15 70 -56t77.5 -61t73 -45t88.5 -37q27 -8 58 -8t60 7.5t48.5 29.5t20.5 55l39 4q0 -36 -23 -63t-56 -39t-71 -18t-69 1q-50 6 -97 24t-94.5 50.5t-78 56.5t-81.5 67 q-10 9 -34 31t-39 34t-37.5 28t-44.5 24.5t-44 10.5v4q39 11 70 31.5t51 42t37 56.5t26.5 63t22.5 73l-121 -75q2 22 17 38.5t32.5 25t39.5 21t34 26.5q5 5 8.5 12.5t5 14t3.5 16.5t3 14q16 68 28 141q1 3 3 12.5t3 14.5t1 13t-2 14t-7 11q-7 7 -18.5 8.5t-19.5 0t-23 -6 t-19 -4.5z" />
<glyph unicode="&#xe01e;" horiz-adv-x="698" d="M-148 191l-4 -8zM359 780q6 -14 7 -37.5t-1.5 -43.5t-7 -47.5t-5.5 -39.5q-4 -43 -4 -91.5t2 -109t2 -91.5h3q10 40 58 136q23 46 38 74.5t43 73t52.5 74t59 58.5t70.5 44q-64 -188 -98 -437q-3 -16 -10 -53t-11 -66t-1 -53q0 -6 3 -10t8 -6t9 -3t11.5 -1.5t10.5 -1.5 q33 -8 60 -1.5t49 35.5l20 -8q-15 -24 -31 -36.5t-35.5 -15.5t-34.5 -2t-42.5 5.5t-44.5 5.5q-37 2 -94 -20q40 71 60.5 161.5t35 209.5t25.5 172h-4l-127 -214l-142 -348h-4q6 23 7 55t-0.5 54t-5.5 61.5t-5 52.5q-5 81 4 296h-4q-3 -23 -11 -47.5t-21 -58t-17 -46.5 q-3 -9 -10 -28q-12 -36 -19 -55.5t-21.5 -56t-25 -58.5t-28.5 -53.5t-34.5 -51t-39.5 -41.5t-47 -33.5t-54 -19t-62 -5.5q-18 1 -36.5 11.5t-30 26t-16.5 32t4 32t32 23.5q-26 -42 -4.5 -71.5t70.5 -26.5q46 4 88 29.5t74 64.5q33 40 61.5 96t44 98.5t39 112.5t35.5 103 q19 49 28 71.5t29.5 58t45.5 61.5z" />
<glyph unicode="&#xe01f;" horiz-adv-x="635" d="M-199 511q-34 68 -8 135t90 105q56 34 123.5 37t126.5 -23q50 -21 93 -57t73.5 -75t61 -91t51 -95.5t48 -100t48.5 -93.5q5 64 40 183.5t41 148.5q1 6 7.5 26.5t10 35.5t3 32t-9.5 24q-13 11 -57 11q3 15 14 18t25 0q66 -9 148 2l-3 -20q-3 0 -17.5 -2.5t-20.5 -4 t-16 -5.5t-17 -10q-17 -14 -26.5 -39t-16.5 -66.5t-9 -48.5q-36 -142 -71 -304q-1 -7 -10.5 -59t-18.5 -78h-4q0 21 -9.5 46t-29.5 63t-23 43q-108 228 -192 352q-13 -47 -79 -313q-1 -3 -6 -19.5t-7.5 -27.5t-5 -26.5t-1.5 -27.5t5 -19q4 -6 10 -10t15 -5.5l15 -2.5 t17 -1.5t14 -0.5l-20 -22l-195 -14q4 16 17 25t26.5 12t29.5 10.5t24 19.5q11 15 17 33.5t12.5 47t8.5 36.5q35 137 54 231q1 5 6 25.5t8 34.5t3 31t-5 26q-35 57 -116.5 88t-147.5 15q-52 -12 -96 -56t-35 -94q2 -11 7 -20t14.5 -21.5t12.5 -17.5z" />
<glyph unicode="&#xe020;" horiz-adv-x="635" d="M-199 511q-34 68 -8 135t90 105q56 34 123.5 37t126.5 -23q50 -21 93 -57t73.5 -75t61 -91t51 -95.5t48 -100t48.5 -93.5q5 64 40 183.5t41 148.5q1 6 7.5 26.5t10 35.5t3 32t-9.5 24q-13 11 -57 11q3 15 14 18t25 0q66 -9 148 2l-3 -20q-3 0 -17.5 -2.5t-20.5 -4 t-16 -5.5t-17 -10q-17 -14 -26.5 -39t-16.5 -66.5t-9 -48.5q-36 -142 -71 -304q-1 -7 -10.5 -59t-18.5 -78h-4q0 21 -9.5 46t-29.5 63t-23 43q-108 228 -192 352q-13 -47 -79 -313q-1 -3 -6 -19.5t-7.5 -27.5t-5 -26.5t-1.5 -27.5t5 -19q4 -6 10 -10t15 -5.5l15 -2.5 t17 -1.5t14 -0.5l-20 -22l-195 -14q4 16 17 25t26.5 12t29.5 10.5t24 19.5q11 15 17 33.5t12.5 47t8.5 36.5q35 137 54 231q1 5 6 25.5t8 34.5t3 31t-5 26q-35 57 -116.5 88t-147.5 15q-52 -12 -96 -56t-35 -94q2 -11 7 -20t14.5 -21.5t12.5 -17.5zM312 800q4 18 15 39 q9 17 18 27q18 19 38.5 20t36.5 -8t38 -19.5t38 -10.5q15 0 33.5 18.5t32.5 19.5q-5 -23 -12 -39q-9 -18 -19 -27q-20 -19 -40.5 -19.5t-36 9t-37 20.5t-38.5 12q-16 0 -34 -20.5t-33 -21.5z" />
<glyph unicode="&#xe021;" horiz-adv-x="667" d="M398 724q-62 -10 -111.5 -48t-78.5 -92t-42.5 -115.5t-9.5 -121.5q4 -57 30.5 -106t74.5 -78.5t106 -21.5q63 8 113 48t79 96.5t42.5 121t7.5 123.5q-6 58 -32 104.5t-73 72.5t-106 17zM398 748q63 9 118.5 -12.5t92 -63.5t55.5 -98.5t15 -117.5q-8 -125 -94.5 -222.5 t-209.5 -112.5q-70 -8 -129.5 16.5t-96 71.5t-53 110t-4.5 129q19 114 106 198.5t200 101.5z" />
<glyph unicode="&#xe022;" horiz-adv-x="698" d="M445 718q-53 7 -100 -9t-80 -48.5t-59 -77t-37.5 -94t-16 -100.5t5.5 -97q4 -23 16 -50.5t31.5 -54t44 -37t54.5 0.5q5 2 8.5 5t6 9t3.5 9t3 11t3 10q8 30 31 128q31 142 37 165q4 17 14 54.5t16 61t12 56t7 58.5zM383 124v-4h242l-78 4h-164zM707 226q-2 -3 -15 -32.5 t-24.5 -47.5t-24.5 -23q-22 -6 -39.5 -5.5t-49.5 3.5t-42 3q-25 0 -74.5 -3t-84 -3.5t-76.5 3.5t-76 20.5t-60 45.5q-38 43 -53.5 100t-9 114t30.5 114.5t61 103t86.5 78.5t102.5 42q32 4 49.5 3.5t50 -2.5t49.5 -2q39 0 115.5 3.5t114.5 3.5q-1 -5 -2 -22t-3 -28.5 t-8.5 -22.5t-17.5 -13q-2 15 -6 25.5t-12.5 17t-15 10t-20 5t-20 2t-24 0t-23.5 -0.5h-10h-12.5t-12.5 -0.5t-13.5 -1.5t-11 -3t-7.5 -5q-7 -6 -10.5 -18t-6 -29t-2.5 -21q-30 -127 -39 -176q10 0 47.5 -2t63 -0.5t45.5 9.5q10 4 16 13.5t9 18t10.5 16t19.5 8.5 q-1 -4 -9 -48t-18.5 -71t-27.5 -30l-2 52l-45 7h-117q-5 -35 -21.5 -99t-21.5 -93q-1 -3 -3 -14t-3 -17.5t-1 -16t3 -16.5t9 -12q9 -7 25 -11t28 -4t33 0.5t26 0.5q53 0 75 6q19 6 50.5 35t54.5 30z" />
<glyph unicode="&#xe023;" horiz-adv-x="667" d="M398 724q-62 -10 -111.5 -48t-78.5 -92t-42.5 -115.5t-9.5 -121.5q4 -57 30.5 -106t74.5 -78.5t106 -21.5q63 8 113 48t79 96.5t42.5 121t7.5 123.5q-6 58 -32 104.5t-73 72.5t-106 17zM418 796l74 117l33 41l61 2q-13 -19 -30.5 -38.5t-40.5 -42.5t-34 -36q-2 -2 -9 -10 t-9.5 -10.5t-8.5 -8t-10.5 -7.5t-11.5 -4.5t-14 -2.5zM398 748q63 9 118.5 -12.5t92 -63.5t55.5 -98.5t15 -117.5q-8 -125 -94.5 -222.5t-209.5 -112.5q-70 -8 -129.5 16.5t-96 71.5t-53 110t-4.5 129q19 114 106 198.5t200 101.5z" />
<glyph unicode="&#xe024;" horiz-adv-x="667" d="M398 724q-62 -10 -111.5 -48t-78.5 -92t-42.5 -115.5t-9.5 -121.5q4 -57 30.5 -106t74.5 -78.5t106 -21.5q63 8 113 48t79 96.5t42.5 121t7.5 123.5q-6 58 -32 104.5t-73 72.5t-106 17zM359 796q45 71 108 144q10 12 27 16.5t31 -4.5q4 -3 6.5 -10.5t3.5 -19t1 -13.5 q2 -12 5.5 -35.5t6.5 -42t7 -35.5q-11 0 -20 6.5t-16 20t-11 22.5t-9.5 27.5t-6.5 21.5q-7 -7 -27.5 -28t-34 -33.5t-33.5 -24t-38 -12.5zM398 748q63 9 118.5 -12.5t92 -63.5t55.5 -98.5t15 -117.5q-8 -125 -94.5 -222.5t-209.5 -112.5q-70 -8 -129.5 16.5t-96 71.5 t-53 110t-4.5 129q19 114 106 198.5t200 101.5z" />
<glyph unicode="&#xe025;" horiz-adv-x="667" d="M398 724q-62 -9 -112 -47.5t-79 -93.5t-42.5 -117.5t-7.5 -122.5q5 -55 30.5 -103t72 -77t103.5 -22q63 8 113 47t78.5 95.5t41.5 119.5t9 124q-4 57 -29.5 104.5t-72.5 74t-105 18.5zM391 883q20 8 34 -6t11.5 -34.5t-22.5 -27.5q-20 -8 -34 6t-11.5 34.5t22.5 27.5z M535 883q20 8 34 -6t11.5 -34.5t-21.5 -27.5q-21 -8 -35 6t-11.5 34.5t22.5 27.5zM398 748q63 8 117.5 -13.5t90.5 -63t55 -98.5t14 -117q-8 -125 -94.5 -222.5t-209.5 -112.5q-69 -8 -128 17t-95 72t-51.5 110t-4.5 128q19 114 106 199t200 101z" />
<glyph unicode="&#xe026;" horiz-adv-x="667" d="M398 724q-62 -10 -111.5 -48t-78.5 -92t-42.5 -115.5t-9.5 -121.5q4 -57 30.5 -106t74.5 -78.5t106 -21.5q63 8 113 48t79 96.5t42.5 121t7.5 123.5q-6 58 -32 104.5t-73 72.5t-106 17zM375 956l61 -4l26 -43l54 -113q-19 0 -38.5 15t-39.5 43t-31 46t-26 46q-4 7 -6 10z M398 748q63 9 118.5 -12.5t92 -63.5t55.5 -98.5t15 -117.5q-8 -125 -94.5 -222.5t-209.5 -112.5q-70 -8 -129.5 16.5t-96 71.5t-53 110t-4.5 129q19 114 106 198.5t200 101.5z" />
<glyph unicode="&#xe027;" horiz-adv-x="667" d="M188 241h3l136 149l243 262q-35 56 -96.5 71t-121 -8t-100.5 -71q-46 -56 -67 -125t-19 -137t22 -141zM582 624q-100 -100 -167 -176q-46 -51 -114 -121q-3 -2 -30.5 -27t-43.5 -44.5t-17 -33.5q-1 -22 40 -50q71 -47 156 -23q49 14 87 47t61 78.5t36.5 91.5t19.5 98 q3 26 3.5 54.5t-7.5 58.5t-24 47zM152 206q-31 29 -46.5 78t-15.5 98q0 80 35.5 156t99.5 131t142 72q86 19 156 -6q7 -3 37 -22.5t42 -18.5q13 1 37.5 27t28.5 28l16 -15v-4q-3 -3 -19.5 -17t-25.5 -25t-11 -21q0 -7 4.5 -17t12.5 -21.5t10 -16.5q24 -53 28 -113 q5 -71 -21.5 -143.5t-75.5 -125.5q-53 -57 -122 -86t-144 -24q-55 5 -101 30q-4 2 -13.5 9.5t-18 12.5t-15.5 4q-11 -1 -23 -11.5t-26.5 -28t-17.5 -20.5h-3l-16 16v4l66 66v4z" />
<glyph unicode="&#xe028;" horiz-adv-x="667" d="M398 724q-62 -10 -111.5 -48t-78.5 -92t-42.5 -115.5t-9.5 -121.5q4 -57 30.5 -106t74.5 -78.5t106 -21.5q63 8 113 48t79 96.5t42.5 121t7.5 123.5q-6 58 -32 104.5t-73 72.5t-106 17zM398 748q63 9 118.5 -12.5t92 -63.5t55.5 -98.5t15 -117.5q-8 -125 -94.5 -222.5 t-209.5 -112.5q-70 -8 -129.5 16.5t-96 71.5t-53 110t-4.5 129q19 114 106 198.5t200 101.5zM336 812q7 40 35 66.5t67 16.5q10 -3 26.5 -11.5t29 -14t26.5 -7.5t25 6.5t17 29.5h24q-9 -32 -15 -43q-7 -14 -20 -26q-20 -17 -40.5 -17t-35 9.5t-35.5 20.5t-38 11 q-16 1 -34 -19.5t-32 -21.5z" />
<glyph unicode="&#xe029;" horiz-adv-x="479" d="M-23 495q-2 0 -18.5 -5t-24.5 -3q-14 4 -19.5 22.5t-4.5 36.5q5 73 90 125q60 38 139.5 55.5t157.5 14t148 -24.5q73 -21 108.5 -83t1.5 -130q-23 -46 -69.5 -74t-98.5 -27q-14 0 -26.5 1t-29 4.5t-25 12t-5.5 21.5q27 -7 41 -9t35.5 0t40.5 11q37 18 57.5 53t19 72.5 t-16 71.5t-48.5 53.5t-78 15.5q-9 -1 -16.5 -11.5t-13 -27.5t-8.5 -33t-6 -33.5t-5 -22.5q-16 -65 -46.5 -206.5t-49.5 -215.5q38 -12 66.5 -12.5t66.5 12.5q-1 -37 -63 -39q-30 0 -103.5 3.5t-114.5 0.5v20q2 0 13.5 2t15.5 3t13 4t14 6t10.5 8t9.5 12q12 21 19.5 48.5 t14 64t10.5 51.5q11 41 28 117.5t23 101.5q2 9 8.5 35t10 39.5t6.5 35t3 38.5q-64 8 -135 -11t-123 -58q-65 -49 -57 -95q1 -9 6.5 -17.5t14.5 -18.5t13 -15z" />
<glyph unicode="&#xe02a;" horiz-adv-x="656" d="M395 724q-61 -9 -110.5 -48.5t-79 -94t-42.5 -117.5t-6 -121q5 -43 21 -81t42 -68t64 -44.5t83 -8.5q62 8 112 48.5t78.5 97t41 121t5.5 122.5q-5 43 -21 80.5t-41.5 66t-63.5 41.5t-83 6zM1098 66q13 -37 -3.5 -69t-51.5 -56q-92 -63 -250 -63q-57 0 -110 13 t-103.5 40.5t-86.5 51.5t-92 65.5t-89 63.5q-13 8 -40.5 15.5t-37.5 11.5q-76 33 -114 106q-57 117 -19.5 240t141.5 199q51 37 110.5 54t123 7t110.5 -51q54 -48 75.5 -116t12 -136t-43 -133t-83.5 -110q-22 -20 -46 -32.5t-62.5 -26.5t-51.5 -20q26 -13 69.5 -48t59.5 -45 q60 -40 113 -65.5t116 -43t126 -10t121 42.5q57 33 83 72q4 5 10 20.5t13 22.5z" />
<glyph unicode="&#xe02b;" horiz-adv-x="573" d="M-20 495q-35 -27 -57 -5t-16 64q6 38 32.5 69t64.5 52q131 76 344 55q101 -10 148 -42q57 -41 61 -108t-45 -116q-47 -47 -137 -59q26 -38 59 -103t57 -111.5t65.5 -97.5t91.5 -80q41 -24 84 -33t88 3q32 10 49 31.5t6 51.5l39 11q10 -35 -10 -62.5t-56 -41.5 q-54 -20 -115 -17t-112 29q-28 13 -53 31t-48 41.5t-41.5 44t-38 52l-32.5 52.5t-31.5 57.5t-27.5 55.5t-27 59t-25 55q35 -3 70 3.5t65.5 22.5t47 46.5t11.5 71.5q-6 46 -34.5 78.5t-73.5 42.5q-36 8 -46 4q-4 -3 -7.5 -8t-5 -9t-3.5 -12t-2 -10q-8 -24 -27 -101 q-25 -104 -65 -297q-2 -6 -7 -23.5t-8 -29.5t-4.5 -29t4.5 -23q16 -29 93 7q-1 -23 -16 -31.5t-43 -11.5q-33 -2 -101.5 0.5t-101.5 -0.5v24q1 0 13 -0.5t15 0t12.5 1t14 2.5t11.5 5t12 8q9 9 16 24t10 26.5t7 31.5t6 27q39 158 63 277l12 57t12 56q6 34 -6 43q-17 12 -85 0 q-121 -21 -182 -86q-31 -31 -30 -65.5t36 -59.5z" />
<glyph unicode="&#xe02c;" horiz-adv-x="448" d="M-27 27q-10 -79 40 -120t128 -21q61 15 112 61.5t73 106.5q16 39 14 77.5t-16 69.5t-36.5 63t-48 60t-50 59.5t-43.5 61.5t-28 66.5t-3 73.5q9 58 47.5 97t92 52.5t108.5 0.5q70 -17 91 -46q3 -4 3.5 -10.5t-0.5 -11.5t-3.5 -12.5t-2.5 -10.5q-10 -43 -10 -102h-19 q0 31 -1.5 49.5t-9.5 45t-25 41.5q-28 26 -64 32t-67 -5.5t-53.5 -40t-25.5 -67.5q-1 -13 0 -25.5t6 -26t8.5 -23.5t12 -24t13 -22t16.5 -23l16 -20t17.5 -20.5t15.5 -18.5q38 -46 62 -83t44 -83.5t18.5 -95t-23.5 -98.5q-44 -94 -141.5 -143t-201.5 -34l-10 1.5t-14 2 t-14.5 2.5t-16.5 3t-15.5 3.5t-15.5 5t-13 6t-11.5 7t-6.5 8.5q-3 2 -2 8.5t2 10t3 10t3 8.5q17 57 25 97z" />
<glyph unicode="&#xe02d;" horiz-adv-x="448" d="M-27 27q-10 -79 40 -120t128 -21q61 15 112 61.5t73 106.5q16 39 14 77.5t-16 69.5t-36.5 63t-48 60t-50 59.5t-43.5 61.5t-28 66.5t-3 73.5q9 58 47.5 97t92 52.5t108.5 0.5q70 -17 91 -46q3 -4 3.5 -10.5t-0.5 -11.5t-3.5 -12.5t-2.5 -10.5q-10 -43 -10 -102h-19 q0 31 -1.5 49.5t-9.5 45t-25 41.5q-28 26 -64 32t-67 -5.5t-53.5 -40t-25.5 -67.5q-1 -13 0 -25.5t6 -26t8.5 -23.5t12 -24t13 -22t16.5 -23l16 -20t17.5 -20.5t15.5 -18.5q38 -46 62 -83t44 -83.5t18.5 -95t-23.5 -98.5q-44 -94 -141.5 -143t-201.5 -34l-10 1.5t-14 2 t-14.5 2.5t-16.5 3t-15.5 3.5t-15.5 5t-13 6t-11.5 7t-6.5 8.5q-3 2 -2 8.5t2 10t3 10t3 8.5q17 57 25 97zM281 956q13 0 23 -9t18 -26t11.5 -28.5t8.5 -29.5q1 -3 2 -4q3 3 26.5 27t35.5 35t32.5 23t38.5 12q-3 -4 -17.5 -26t-21 -31t-21 -29t-25 -29.5t-25 -22t-29 -17.5 t-29.5 -5z" />
<glyph unicode="&#xe02e;" horiz-adv-x="542" d="M74 343q-63 40 -86 109t2.5 137t91.5 104q35 19 80.5 28.5t76 11t85.5 1.5q20 0 66.5 -0.5t72 -0.5t64 1.5t72 5t65.5 9.5l-27 -129h-24q1 2 2.5 13.5t1.5 16v13t-2.5 15t-7.5 11.5q-19 21 -82.5 21.5t-81.5 -20.5q-10 -13 -16.5 -32.5t-11.5 -48t-7 -36.5 q-40 -161 -63 -277q-1 -4 -7 -27.5t-9 -39t-2.5 -34t7.5 -26.5q14 -17 51 -19t56 5q2 1 7 3l10 4t10.5 3.5t9.5 0.5t5 -4q3 -9 -6 -16t-24 -11.5t-27 -7t-20 -3.5q-24 -1 -68 3.5t-61 4.5q-30 0 -84 -5.5t-76 -6.5q2 7 5 11.5t9.5 7t10.5 3t14 1.5t12 1q55 7 74 39 q11 17 17 38.5t12 55.5t8 43q23 102 60 257q1 5 6 21t8.5 29.5t6 29.5t0.5 28t-10 17q-9 7 -25 9t-28.5 1.5t-32.5 -3t-26 -3.5q-114 -7 -168 -52q-47 -39 -60 -91t10.5 -100.5t77.5 -76.5z" />
<glyph unicode="&#xe02f;" horiz-adv-x="500" d="M43 132v-4h137zM117 710q26 15 62.5 21.5t64 6.5t72.5 -2t63 -2q-1 -17 -14 -21.5t-32 -5.5t-28 -7q-7 -6 -12.5 -13.5t-9.5 -19.5t-5.5 -18.5t-4.5 -22t-3 -17.5q126 -1 187 -60q37 -36 42 -85.5t-19 -93.5t-66 -69q-62 -37 -137 -25q-1 0 -4 1q-11 2 -17 3.5t-14 5 t-10.5 10t-1.5 16.5q3 -1 7 -2q56 -13 87 -5q50 13 78 53t26 89t-36 87q-42 47 -130 51l-52 -226l-42 -196l90 -15l-4 -20h-234q1 13 8 18.5t21.5 7.5t20.5 5q20 9 31 39q16 41 30.5 93.5t21.5 84.5t21 102t17 88q2 5 8 27.5t9 38t3 34t-7 28.5q-9 11 -22 12.5t-35 -5 t-26 -6.5z" />
<glyph unicode="&#xe030;" horiz-adv-x="615" d="M551 843q66 -55 66 -231q0 -43 -4 -88t-14 -96.5t-25 -97.5t-40 -88t-56.5 -71t-76 -44t-96.5 -10q-36 4 -63 16q-26 12 -45 30.5t-31.5 37.5t-19 46t-9.5 49t-0.5 54t5 53.5t10 54t11.5 49.5t12 47q3 12 9 33t11 39t8 33q9 33 4 42q-3 5 -9 7.5t-14 2.5t-15.5 -1 t-17.5 -4t-16.5 -5t-14.5 -5t-11 -4q-111 -41 -66 -150l-43 -27q-24 50 -7 99.5t66 78.5q25 15 61.5 26t55.5 14t73 9.5t60 6.5q-59 -174 -77 -246q-19 -77 -25 -156q-3 -46 14.5 -92t49.5 -76t75.5 -36t91.5 28q58 41 97 124t51.5 169.5t3.5 159.5q-15 133 -90 172z" />
<glyph unicode="&#xe031;" horiz-adv-x="615" d="M355 796l71 109l36 47l61 4q-14 -19 -31.5 -39t-43 -46t-34.5 -36q-1 -1 -5 -5.5t-5.5 -5.5t-5 -5t-5 -5t-5.5 -4l-6 -4.5t-5.5 -3.5t-6.5 -3t-7 -2t-8 -1zM551 843q66 -55 66 -231q0 -43 -4 -88t-14 -96.5t-25 -97.5t-40 -88t-56.5 -71t-76 -44t-96.5 -10q-36 4 -63 16 q-26 12 -45 30.5t-31.5 37.5t-19 46t-9.5 49t-0.5 54t5 53.5t10 54t11.5 49.5t12 47q3 12 9 33t11 39t8 33q9 33 4 42q-3 5 -9 7.5t-14 2.5t-15.5 -1t-17.5 -4t-16.5 -5t-14.5 -5t-11 -4q-111 -41 -66 -150l-43 -27q-24 50 -7 99.5t66 78.5q25 15 61.5 26t55.5 14t73 9.5 t60 6.5q-59 -174 -77 -246q-19 -77 -25 -156q-3 -46 14.5 -92t49.5 -76t75.5 -36t91.5 28q58 41 97 124t51.5 169.5t3.5 159.5q-15 133 -90 172zM352 796l3 -4z" />
<glyph unicode="&#xe032;" horiz-adv-x="615" d="M273 796l81 109l41 47l46 4l24 -160q-16 1 -29.5 20t-19.5 38.5t-10 39.5q-13 -9 -38 -35.5t-48.5 -44t-46.5 -18.5zM551 843q66 -55 66 -231q0 -43 -4 -88t-14 -96.5t-25 -97.5t-40 -88t-56.5 -71t-76 -44t-96.5 -10q-36 4 -63 16q-26 12 -45 30.5t-31.5 37.5t-19 46 t-9.5 49t-0.5 54t5 53.5t10 54t11.5 49.5t12 47q3 12 9 33t11 39t8 33q9 33 4 42q-3 5 -9 7.5t-14 2.5t-15.5 -1t-17.5 -4t-16.5 -5t-14.5 -5t-11 -4q-111 -41 -66 -150l-43 -27q-24 50 -7 99.5t66 78.5q25 15 61.5 26t55.5 14t73 9.5t60 6.5q-59 -174 -77 -246 q-19 -77 -25 -156q-3 -46 14.5 -92t49.5 -76t75.5 -36t91.5 28q58 41 97 124t51.5 169.5t3.5 159.5q-15 133 -90 172zM270 796l3 -4z" />
<glyph unicode="&#xe033;" horiz-adv-x="615" d="M289 883q20 8 34 -6t11.5 -34.5t-22.5 -27.5q-20 -8 -34 6t-11.5 34.5t22.5 27.5zM434 883q20 8 34 -6t11.5 -34.5t-22.5 -27.5q-20 -8 -34 6t-11.5 34.5t22.5 27.5zM551 843q66 -55 66 -231q0 -43 -4 -88t-14 -96.5t-25 -97.5t-40 -88t-56.5 -71t-76 -44t-96.5 -10 q-36 4 -63 16q-26 12 -45 30.5t-31.5 37.5t-19 46t-9.5 49t-0.5 54t5 53.5t10 54t11.5 49.5t12 47q3 12 9 33t11 39t8 33q9 33 4 42q-3 5 -9 7.5t-14 2.5t-15.5 -1t-17.5 -4t-16.5 -5t-14.5 -5t-11 -4q-111 -41 -66 -150l-43 -27q-24 53 -5.5 102t67.5 79q31 19 80.5 30.5 t79 15t87.5 7.5q-54 -139 -75 -238q-23 -104 -27 -164q-3 -46 14.5 -92t49.5 -76t75.5 -36t91.5 28q58 41 97 124t51.5 169.5t3.5 159.5q-15 133 -90 172z" />
<glyph unicode="&#xe034;" horiz-adv-x="615" d="M301 956l64 -4l25 -47l51 -109q-8 0 -17.5 3.5t-19 12t-17.5 16t-18.5 21.5l-16.5 22t-16 24.5t-13.5 22t-12.5 22zM551 843q66 -55 66 -231q0 -43 -4 -88t-14 -96.5t-25 -97.5t-40 -88t-56.5 -71t-76 -44t-96.5 -10q-36 4 -63 16q-26 12 -45 30.5t-31.5 37.5t-19 46 t-9.5 49t-0.5 54t5 53.5t10 54t11.5 49.5t12 47q3 12 9 33t11 39t8 33q9 33 4 42q-3 5 -9 7.5t-14 2.5t-15.5 -1t-17.5 -4t-16.5 -5t-14.5 -5t-11 -4q-111 -41 -66 -150l-43 -27q-24 50 -7 99.5t66 78.5q25 15 61.5 26t55.5 14t73 9.5t60 6.5q-59 -174 -77 -246 q-19 -77 -25 -156q-3 -46 14.5 -92t49.5 -76t75.5 -36t91.5 28q58 41 97 124t51.5 169.5t3.5 159.5q-15 133 -90 172z" />
<glyph unicode="&#xe035;" horiz-adv-x="542" d="M656 1093q23 -21 33 -53t9.5 -61.5t-9.5 -68.5t-18 -64t-22 -58q-14 -34 -32 -71.5t-32 -65t-40.5 -70t-38 -62t-45 -68t-41.5 -60t-46.5 -66t-43.5 -60.5q-14 -20 -41 -56t-48.5 -66t-37.5 -58h-4q20 155 20 457q0 4 3 46t-0.5 68.5t-16.5 40.5q-12 13 -27 17.5t-32 0.5 t-29.5 -9t-31.5 -14.5t-26 -12.5q-7 20 12.5 35t45.5 23q44 8 71.5 7.5t77.5 -4t74 -2.5q-1 -12 -8.5 -19t-15.5 -10t-16 -10.5t-10 -19.5q-8 -51 -12 -116.5t-5 -99.5t-0.5 -125t0.5 -104h4q14 28 34 58t47.5 66.5t39.5 54.5q149 216 215 367q19 42 29 70t17.5 66.5t0 73 t-30.5 64.5v4z" />
<glyph unicode="&#xe036;" horiz-adv-x="771" d="M-141 792q-1 1 -11 6.5t-15 9t-11 9.5t-8 11q-5 17 30 49q30 28 71.5 37t80.5 -2q57 -13 103 -51.5t75.5 -87t50.5 -111t31.5 -117t16.5 -112.5q2 -30 0.5 -55t0 -56.5t7.5 -52.5l63 140l120 266l71 113h4l23 -515h4q7 19 18 41t26 47.5t22 40.5q4 8 22.5 44.5t25 49.5 t21.5 45t23 50.5t19.5 46t19.5 51.5t14 49q-7 -1 -22.5 -2.5t-23 -2.5t-19 -4.5t-20 -10t-16.5 -16.5l-24 12q15 26 40 36t66 12t54 5q6 1 30 10t37 7q-114 -162 -245 -433q-14 -30 -39.5 -86t-47 -101t-43.5 -83h-4q5 23 5 54t-2 54t-6 58.5t-5 52.5q-12 172 -12 348h-3 q-11 -29 -36 -81.5t-33 -71.5q-3 -7 -19 -45.5t-20.5 -48.5t-19 -44.5t-21.5 -49t-20.5 -44.5t-22.5 -48.5t-21.5 -43.5t-24.5 -46.5t-24 -43.5h-4q2 11 4 22.5t3.5 21t2 24t1 22t0 24.5t-0.5 22t-1.5 24t-1.5 21.5t-1.5 23.5t-1.5 22q-5 76 -10 124.5t-16.5 115.5 t-32 124.5t-51.5 107.5q-49 84 -109 108q-56 23 -96.5 -6.5t-40.5 -89.5z" />
<glyph unicode="&#xe037;" horiz-adv-x="719" d="M543 726l242 19v-15q-36 -5 -70.5 -22t-68.5 -47.5t-54 -51.5t-53 -59q-1 -1 -20.5 -22.5t-29 -36.5t-9.5 -27q1 -11 6.5 -23.5t15.5 -29t13 -21.5q8 -16 24.5 -50.5t29.5 -60.5t26 -49q3 -6 10.5 -23t15 -29t17.5 -17q32 -19 85 6q-1 -15 -11 -24t-20 -11.5t-28 -5.5 q-28 -4 -59.5 -4.5t-72 1t-59.5 1.5v20q51 0 60 23q1 9 1.5 14t-3 15t-5.5 15t-6.5 14t-5.5 13q-6 14 -36.5 75.5t-39.5 95.5h-8q-9 -18 -20.5 -36t-29 -43t-23.5 -34q-3 -5 -10 -14q-20 -30 -31 -46t-32 -45t-36.5 -45.5t-39 -38.5t-44.5 -34.5t-47.5 -23t-54.5 -14.5 q-71 -8 -117 29q-34 27 -34 68t34 66l28 -39q-26 -17 -26 -38t19 -36t46 -21q70 -15 148 44q21 16 41 36t34 35t34.5 43t28.5 40t30.5 46t28.5 43q4 7 20 25.5t27 35t12 29.5q1 12 -6 28.5t-20 38t-16 26.5q-4 9 -23.5 57t-38 77t-42.5 41q-6 3 -12.5 4.5t-14.5 1t-12.5 -1 t-14.5 -2t-13 -1.5v20h238l-7 -20h-67l98 -211q12 23 29.5 46t43 52.5t35.5 42.5q2 2 10.5 11.5t13.5 15.5t9 15t3 16q-1 6 -4 9.5t-8 4.5t-10.5 1.5t-12.5 -0.5t-11.5 -2t-11 -2.5t-8.5 -2.5v20z" />
<glyph unicode="&#xe038;" horiz-adv-x="490" d="M605 1116q66 -60 15 -222q-41 -128 -161 -297q-9 -13 -42.5 -57.5t-53 -75t-34.5 -62.5q-8 -20 -15.5 -44.5t-11.5 -43t-9.5 -48t-8.5 -44.5q-1 -2 -4.5 -16.5t-4.5 -20.5t1 -15.5t9 -15.5q12 -9 29 -10.5t30.5 2t34 10t27.5 7.5q-6 -20 -25 -27.5t-49 -10.5 q-35 -4 -109 0t-110 -1v20q18 0 32 3.5t24 8t18.5 15.5t13 18t10 23.5t7.5 24t6.5 28t5.5 27.5q3 10 8 28.5t8.5 30.5t6.5 28.5t4 29.5q3 33 -6 79.5t-16.5 71.5t-24.5 76q-6 18 -10.5 28.5t-14 23.5t-21.5 20q-52 32 -141 -13q6 37 71 45q44 4 72 2.5t74 -5t72 -3.5l-3 -16 q-43 -1 -46 -27q-1 -12 2.5 -26t10.5 -32t9 -24q30 -105 31 -164h4q10 23 24.5 45.5t40.5 57t31 41.5q39 54 62.5 89t52 86.5t45.5 97.5q32 84 29 145q0 12 -12 35.5t-11 34.5q0 7 3.5 13.5t11.5 15.5t8 10z" />
<glyph unicode="&#xe039;" horiz-adv-x="490" d="M348 796l72 113l34 45l62 2q-14 -19 -31.5 -38.5t-40 -43t-33.5 -35.5q-2 -2 -9 -10t-9.5 -10.5t-8.5 -8t-10.5 -7.5t-11.5 -4.5t-14 -2.5zM605 1116q66 -60 15 -222q-41 -128 -161 -297q-9 -13 -42.5 -57.5t-53 -75t-34.5 -62.5q-8 -20 -15.5 -44.5t-11.5 -43t-9.5 -48 t-8.5 -44.5q-1 -2 -4.5 -16.5t-4.5 -20.5t1 -15.5t9 -15.5q12 -9 29 -10.5t30.5 2t34 10t27.5 7.5q-6 -20 -25 -27.5t-49 -10.5q-35 -4 -109 0t-110 -1v20q18 0 32 3.5t24 8t18.5 15.5t13 18t10 23.5t7.5 24t6.5 28t5.5 27.5q3 10 8 28.5t8.5 30.5t6.5 28.5t4 29.5 q3 33 -6 79.5t-16.5 71.5t-24.5 76q-6 18 -10.5 28.5t-14 23.5t-21.5 20q-52 32 -141 -13q6 37 71 45q44 4 72 2.5t74 -5t72 -3.5l-3 -16q-43 -1 -46 -27q-1 -12 2.5 -26t10.5 -32t9 -24q30 -105 31 -164h4q10 23 24.5 45.5t40.5 57t31 41.5q39 54 62.5 89t52 86.5 t45.5 97.5q32 84 29 145q0 12 -12 35.5t-11 34.5q0 7 3.5 13.5t11.5 15.5t8 10z" />
<glyph unicode="&#xe03a;" horiz-adv-x="490" d="M301 883q20 8 34 -6t11.5 -34.5t-22.5 -27.5q-20 -8 -34 6t-11.5 34.5t22.5 27.5zM445 883q20 8 34 -6t11.5 -34.5t-21.5 -27.5q-21 -8 -34.5 6t-11 34.5t21.5 27.5zM605 1116q66 -60 15 -222q-42 -132 -169 -309q-8 -12 -38.5 -51.5t-48.5 -67.5t-31 -57 q-9 -20 -17 -46.5t-12 -43.5t-10.5 -51.5t-9.5 -45.5q0 -3 -3.5 -16.5t-4.5 -20t1 -16t9 -15.5q11 -9 28 -10t30.5 2t34 9.5t27.5 7.5q-6 -20 -25 -27.5t-49 -10.5q-35 -4 -109 0t-110 -1v20q18 0 32 3.5t24 8t18.5 15.5t13 18t10 23.5t7.5 24t6.5 28t5.5 27.5q3 10 8 28.5 t8.5 30.5t6.5 28.5t4 29.5q3 33 -6 79.5t-16.5 71.5t-24.5 76q-6 18 -10.5 28.5t-14 23.5t-21.5 20q-52 32 -141 -13q6 37 71 45q44 4 72 2.5t74 -5t72 -3.5l-3 -16q-43 -1 -46 -27q-1 -12 2.5 -26t10.5 -32t9 -24q30 -105 31 -164h4q10 23 24.5 45.5t40.5 57t31 41.5 q39 54 62.5 89t52 86.5t45.5 97.5q32 84 29 145q0 12 -12 35.5t-11 34.5q0 7 3.5 13.5t11.5 15.5t8 10z" />
<glyph unicode="&#xe03b;" horiz-adv-x="469" d="M148 550q-13 10 -13 28t10 36.5t24.5 38t28.5 33.5t25 22q30 24 67 31t65 2.5t71.5 -13t69.5 -10.5q8 0 45 10t43 6q3 -2 4.5 -4.5t0.5 -5.5t-2 -5.5t-3 -6t-3.5 -5.5t-4.5 -5t-3 -4l-82 -97l-350 -418q122 0 199 -37q44 -21 85 -55.5t74.5 -73t65 -77t70 -77.5t76.5 -65 q22 -14 51 -16.5t54 7t41.5 32.5t13.5 53q26 -20 30.5 -39t-8.5 -35t-41 -30q-39 -20 -85.5 -21.5t-86.5 14.5q-27 10 -56 31.5t-43 34.5t-46 45q-12 13 -58.5 61t-69.5 70t-63.5 52.5t-77.5 47.5q-73 33 -129 26q-13 -1 -40.5 -10t-45.5 -9l182 219l287 340 q-40 -13 -75.5 -10t-73.5 6t-71 4.5t-66 -14.5t-59 -52q-18 -25 -27 -55z" />
<glyph unicode="&#xe03c;" horiz-adv-x="469" d="M871 -126l4 -4zM148 550q-13 10 -13 28t10 36.5t24.5 38t28.5 33.5t25 22q30 24 67 31t65 2.5t71.5 -13t69.5 -10.5q8 0 45 10t43 6q3 -2 4.5 -4.5t0.5 -5.5t-2 -5.5t-3 -6t-3.5 -5.5t-4.5 -5t-3 -4l-82 -97l-350 -418q122 0 199 -37q44 -21 85 -55.5t74.5 -73t65 -77 t70 -77.5t76.5 -65q52 -33 101 -10.5t63 82.5q67 -54 -23 -100q-39 -20 -85.5 -21.5t-86.5 14.5q-27 10 -56 31.5t-43 34.5t-46 45q-12 13 -58.5 61t-69.5 70t-63.5 52.5t-77.5 47.5q-73 33 -129 26q-13 -1 -40.5 -10t-45.5 -9l182 219l287 340q-40 -13 -75.5 -10t-73.5 6 t-71 4.5t-66 -14.5t-59 -52q-18 -25 -27 -55zM355 956q13 0 23 -9t18 -26t12 -28.5t9 -29.5q1 -3 1 -4q2 1 26.5 26.5t35.5 35.5t32.5 22.5t38.5 12.5q-3 -4 -17 -26t-20.5 -31t-21 -29t-25.5 -29.5t-25.5 -22t-29 -17.5t-29.5 -5z" />
<glyph unicode="&#xe03d;" horiz-adv-x="344" d="M273 445q-4 -1 -18 -2.5t-21 -2.5t-18 -3t-19.5 -5.5t-16.5 -7.5q-56 -33 -79 -147q0 -2 -1.5 -8.5t-2.5 -11t-2.5 -12t-2 -13.5t-1 -13.5t0 -13t2 -11t4 -9.5t5.5 -6q19 -10 69 44l3 3q88 96 98 219zM332 491q-4 -45 -27 -128t-28 -106q0 -3 -4 -18.5t-6 -25.5t-1.5 -22 t6.5 -19q12 -14 44 7q33 21 98 86q72 72 121.5 137t72.5 136q13 41 7 63q-1 4 -7 13.5t-8 14.5t1 15q9 16 28.5 14t26.5 -19q5 -11 5 -26.5t-2 -27.5t-9.5 -30.5t-11.5 -26.5t-12 -25q-80 -160 -243 -301q-62 -53 -106 -73q-36 -16 -52 1q-11 11 -12.5 30t3 36.5t8.5 39 t3 33.5q-18 -34 -47.5 -71t-58.5 -61q-14 -12 -31.5 -15.5t-32.5 8.5q-30 30 -3 135q16 61 50.5 115t83.5 79q19 9 48.5 16.5t43.5 9.5t52 6z" />
<glyph unicode="&#xe03f;" horiz-adv-x="469" d="M180 484q-39 20 -53 60t2 79.5t55 58.5q27 12 57.5 13.5t78.5 -6.5t59 -9q17 -2 34 -0.5t42 5.5t33 6l-58 -215h70l-4 -28h-74l-41 -195l-10 -86q4 3 22.5 22t33 28t26.5 5q-17 -25 -43 -51q-1 -1 -5.5 -6t-7.5 -7.5t-9 -8t-10 -8.5l-10 -7.5t-10.5 -6.5t-10 -4t-10 -1.5 t-8.5 2.5q-5 3 -8.5 9.5t-4.5 12t0 15.5l1.5 15t2.5 15t3 11q6 35 27.5 118t28.5 128h-51q6 21 28 24.5t28 15.5q13 25 25 83.5t25 83.5q-22 0 -53 5t-53 9.5t-53 5.5t-52 -7q-43 -13 -62.5 -55t1.5 -83q18 -33 45 -40q12 -4 27 -1t28 -2.5t14 -22.5t-13 -23.5t-32.5 -5 t-39.5 -0.5t-31 -11q-8 -7 -15 -18t-11.5 -20t-9.5 -24.5t-7.5 -24t-5.5 -27.5t-4 -25t-4 -25.5t-3 -21.5q-8 -59 17 -71q13 -6 31 1.5t38 21t29 16.5l8 -15q-12 -6 -42.5 -29t-57 -34.5t-49.5 -4.5q-13 4 -21 14t-11 19t-2.5 25.5t1.5 24t4 24.5q5 34 15.5 68.5t26.5 70 t40 64t53 43.5v8z" />
<glyph unicode="&#xe040;" horiz-adv-x="250" d="M109 323q28 8 55 26.5t43 40.5q24 31 9 48q-12 12 -33.5 10.5t-32.5 -12.5q-28 -29 -41 -113zM238 386q58 25 109.5 63.5t76.5 84.5q21 38 16 67q-1 4 -7 16t-6 19q0 8 8.5 14.5t17.5 7.5q15 2 22.5 -11.5t8.5 -30.5q5 -56 -47 -113q-29 -32 -73 -63.5t-68 -45.5t-85 -48 q-5 -3 -47.5 -20t-55.5 -32q-11 -11 -17 -40t0 -55.5t26 -29.5q16 -2 34.5 6.5t40.5 23.5t31 19q-1 -6 -3 -11t-4.5 -9t-8 -9t-8.5 -7t-10 -7t-9 -6l-24 -16t-25.5 -15.5t-28.5 -12t-25.5 -2t-23 10.5t-15.5 29q-9 32 8 98q10 38 18.5 64.5t24.5 62t39 60.5t52 37 q23 12 53 2t32 -39q2 -23 -27 -62z" />
<glyph unicode="&#xe041;" horiz-adv-x="344" d="M281 448q-77 -1 -113.5 -44t-55.5 -127q-1 -2 -3 -12.5t-3.5 -16t-3.5 -16t-2 -18t0.5 -16t3 -15t7.5 -10.5q24 -20 84 41q40 39 58 96.5t28 137.5zM238 234q-60 -84 -136 -137q-9 -6 -40 -24t-49 -33.5t-27 -36.5q-12 -28 -2 -51t33 -33t50.5 -12t49.5 10q19 10 34.5 27 t24.5 33t17.5 42.5t12 42t9 45.5t8.5 41q1 6 7 25.5t8.5 34.5t-0.5 26zM117 132l4 -4zM105 120q-32 0 -46 22.5t-10.5 56t12 63.5t18.5 54q39 86 102 126t163 53q-14 -43 -27 -96.5t-20.5 -90.5t-20 -102t-17.5 -94q-1 -1 -5.5 -24.5t-5.5 -28.5t-6 -25t-8 -27.5t-9.5 -23.5 t-13 -25t-16 -20t-19.5 -19q-36 -27 -89.5 -33t-94.5 11q-33 14 -50 47.5t-4 66.5q7 19 29 36.5t42.5 27.5t53.5 23.5t42 17.5v4z" />
<glyph unicode="&#xe042;" horiz-adv-x="323" d="M141 347q61 -15 100 14t25 91q-62 -11 -125 -105zM113 773q4 0 17.5 3.5t26.5 6.5t27 5.5t24.5 2t14.5 -4.5q6 -3 4 -20t-4.5 -28.5t-7.5 -29t-6 -21.5q-3 -12 -24 -128t-40 -173q11 8 39.5 36.5t54.5 46.5t50 17q21 -1 28 -24.5t2.5 -49t-13.5 -38.5q-39 -56 -146 -43 v-4q19 -8 35.5 -22.5t30.5 -38t22 -38.5t21.5 -45.5t17.5 -38.5q23 -47 52 -87t67.5 -73t87 -47.5t100.5 -5.5q33 6 75.5 40.5t64.5 43.5q-8 -34 -32 -57.5t-54.5 -33.5t-66 -14t-65.5 2q-82 12 -151 63t-110 126q-13 24 -34 72.5t-41.5 86t-46.5 63.5l-30 -140l-16 -55 l-44 -4q5 58 19.5 124t36 144.5t31.5 122.5q1 7 6 23t9.5 31t8.5 31.5t3.5 30t-5.5 21.5q1 2 5.5 16.5t7 25.5t5 25t1 24t-7.5 14t-14.5 4.5t-20.5 -2t-15 -2.5v16z" />
<glyph unicode="&#xe044;" horiz-adv-x="313" d="M707 495q23 21 42 13.5t11 -40.5q-9 -35 -49 -53q-28 -12 -60.5 -12.5t-64 9t-61.5 20.5t-63.5 22t-59.5 13q-46 5 -88.5 -16.5t-72.5 -58.5t-52.5 -84.5t-34.5 -94.5t-13 -89h-47q6 43 24.5 125t21.5 94q0 1 1.5 7t2.5 11t2.5 12t1.5 13t-1 11t-4 8.5t-7 3.5 q-16 1 -32 -15t-32.5 -33t-32.5 -18q79 120 141 148q12 -19 15 -43t1 -41.5t-8 -47t-8 -43.5h4q7 30 40 86q29 47 49 65q36 30 75 38t77.5 -2t74 -24.5t78 -31t74.5 -21.5q34 -5 55 15t0 50v4z" />
<glyph unicode="&#xe045;" horiz-adv-x="583" d="M484 442q-17 -3 -30 -9.5t-22.5 -18t-15.5 -20t-11.5 -26t-7.5 -25.5t-6 -30t-5 -29q-2 -9 -6.5 -27.5t-7.5 -33.5t-4 -28q-1 -24 18.5 -37.5t43.5 -8.5q27 6 47.5 31t31 59t16 64.5t6.5 58.5q1 15 0 27.5t-5 27.5t-14.5 22t-27.5 3zM215 -130v-4h148q-17 8 -43 9t-60 -2 t-45 -3zM172 484q-40 15 -56.5 52.5t-4 77t48.5 60.5q24 14 56 18t51.5 2.5t62.5 -9t53 -8.5q6 -1 29 1.5t41.5 2.5t21.5 -7t0.5 -20t-9 -29.5t-7.5 -19.5q-2 -7 -8.5 -29t-9 -31t-7.5 -28.5t-7.5 -32t-5 -28.5t-3.5 -31q8 5 29 23t39.5 30t33.5 11q23 -1 38 -18.5t19 -43.5 t4 -49t-3 -43q-6 -33 -17.5 -65.5t-29.5 -64.5t-45.5 -54.5t-59.5 -28.5q-5 -3 -19.5 -1.5t-18.5 2.5l-18 4.5l-18 4.5l-47 -238l86 -12v-16h-192v16q24 5 40.5 19t25.5 37t13.5 43.5t9.5 50.5t8 45q5 21 15.5 61t16.5 65t13.5 60t12.5 64q2 8 10.5 63t12.5 74t13.5 61 t21 72t26.5 58q-23 0 -55.5 5.5t-57 10t-57 5.5t-53.5 -7q-41 -12 -64.5 -50t-6.5 -77q7 -17 21 -31.5t30 -19.5q8 -1 23 -1.5t23 -2t13.5 -10t2.5 -25.5q-2 -12 -17 -13.5t-34.5 2.5t-38 6t-30.5 -7.5t-11 -34.5q1 -4 2 -8.5t4 -10t4.5 -8.5t6.5 -8.5t6.5 -7.5t7 -8t5.5 -7 q3 -3 7 -8q14 -16 21 -25t17 -25.5t13 -28.5t2 -28.5t-9 -33.5q-14 -29 -45.5 -49.5t-65.5 -23.5q-23 -2 -48 7.5t-24 30.5q0 5 2 10.5t5.5 11.5t6.5 10t8 11t7 8q1 -2 5.5 -14t7 -16.5t8.5 -12t14 -10.5q25 -13 56.5 8t31.5 49q0 21 -14 43t-32 37.5t-33 36.5t-17.5 40.5 t14.5 49.5q9 14 25 27q23 17 47 24v8z" />
<glyph unicode="&#xe046;" horiz-adv-x="219" d="M66 136l12 -16zM527 605l4 -4zM531 605q8 15 18.5 20.5t20 1.5t17 -13t11.5 -22t3 -26q-3 -31 -15.5 -53.5t-29.5 -35.5t-42 -21.5t-48 -11t-54 -2.5t-53.5 2t-52 5t-44.5 3h-90l-55 -285q12 4 27.5 19.5t30 26t28.5 5.5v-4q-6 -7 -18.5 -20.5t-20.5 -22t-20 -19 t-23 -17.5q-31 -20 -45 -8q-7 6 -8.5 18t0 21.5t5.5 25t5 18.5q22 92 51 242l-55 -11q2 15 10 22.5t22 14t22 14.5q24 24 28 74l47 7l-23 -93q29 0 76.5 -5t83.5 -8.5t80 -1.5t76 14q41 14 67 51q33 48 -13 69q-8 3 -19 6z" />
<glyph unicode="&#xe047;" horiz-adv-x="750" d="M16 343h761v-55h-761v55z" />
<glyph unicode="&#xe048;" horiz-adv-x="427" d="M35 433q-15 11 -14.5 27t12.5 31q14 19 37 28t47 7q59 -5 95 -70q30 -55 50 -127t23 -134q99 103 115 175q3 13 -3.5 31.5t-13.5 32.5t-5 28.5t20 23.5q34 16 37 -37q3 -42 -7 -75q-8 -24 -23 -52t-24 -42.5t-33.5 -50.5t-28.5 -42q-4 -7 -13 -21.5t-15 -23t-15 -19.5 t-18 -18q1 12 -1 26.5t-4.5 25.5t-7.5 28t-7 25q-5 18 -14 60.5t-15.5 68.5t-19.5 60t-29 57q-18 28 -47.5 37t-53 -7t-24.5 -53z" />
<glyph unicode="&#xe049;" horiz-adv-x="635" d="M23 437q1 43 30.5 67.5t69 21t68.5 -34.5q70 -76 98 -293q95 104 113 184q3 11 -1.5 27t-9.5 29t-4.5 26.5t11.5 20.5q7 4 12.5 4.5t10 -3t7 -8t5 -13t3.5 -13.5t2.5 -13t2.5 -10q8 -40 27.5 -118.5t27.5 -115.5q3 2 8 8q28 33 44 52.5t36 53t27 61.5q3 14 -3.5 32 t-13.5 30.5t-4.5 27.5t19.5 25q33 20 36 -36q3 -40 -5 -67q-14 -46 -42 -93t-65.5 -99.5t-55.5 -84.5h-4l-55 234h-4l-144 -230h-4q-2 5 -13.5 63.5t-16 78.5t-16.5 64t-24.5 75t-28.5 58q-19 32 -47 43t-52 -4t-29 -54z" />
<glyph unicode="&#xe04a;" horiz-adv-x="344" d="M4 120l4 -4zM379 495q5 -6 6 -13t-2.5 -14.5t-9 -15t-13.5 -15t-15 -13.5t-14 -12.5t-11 -9.5l-242 -239q68 0 122 -31t108 -90q7 -7 29.5 -35t38 -45t40 -30.5t45.5 -8.5q7 2 14 5.5t14 9t11.5 9t12.5 11.5l10 10q7 -23 -7 -39t-38 -21t-49.5 -5t-41.5 6 q-15 6 -31.5 18.5t-24.5 19.5t-28.5 28.5t-21.5 23.5q-85 88 -152 116q-20 8 -38 9.5t-45.5 -1t-37.5 -3.5l105 110l203 203q-17 0 -56 7.5t-63.5 2t-46.5 -33.5q-6 -7 -25 -39q-22 24 28 78q41 46 93 43q12 -1 43 -8t51.5 -5t38.5 17z" />
<glyph unicode="&#xf643;" horiz-adv-x="500" d="M281 517q-48 -9 -88 -49.5t-59.5 -93.5t-16.5 -101q5 -61 49 -101.5t104 -29.5q51 9 90.5 52t57.5 97t15 107q-2 58 -48.5 94t-103.5 25zM250 544q31 5 82 -2q58 -9 95 -42.5t49 -78t4.5 -95.5t-31.5 -95t-65 -76.5t-91 -40.5q-34 -5 -78 3q-54 12 -90 46.5t-48.5 78.5 t-7 94t28 93.5t62.5 75t90 39.5z" />
<glyph unicode="&#xf644;" horiz-adv-x="500" d="M350 560l3 -1zM199 472q10 27 69 59.5t87 26.5q-56 -275 -59 -285q-1 -6 -5 -19t-7 -24t-5.5 -24t-2 -24t4.5 -17.5t13 -10t15.5 -4t19.5 0.5t15 1v-16l-141 -16q1 16 5.5 34t11.5 39t10 33q4 15 13.5 53t14.5 59.5t12 53.5t10.5 60.5t4.5 54.5z" />
<glyph unicode="&#xf645;" horiz-adv-x="500" d="M164 472q-6 34 30.5 51t81 13.5t64.5 -19.5q57 -46 11 -135q-21 -40 -53 -73.5t-81.5 -74.5t-68.5 -59l219 1l74 42l-45 -86l-87 -4h-235q1 14 9 26.5t16 19.5t24 18t22 16q127 104 157 197q13 41 -10 73.5t-65 21.5q-13 -3 -33.5 -14t-29.5 -14z" />
<glyph unicode="&#xf646;" horiz-adv-x="500" d="M195 484q4 27 23.5 41t45.5 14.5t52 -7t43 -20.5q31 -22 34.5 -57t-11 -67t-38.5 -57q-41 -43 -74 -58v-8q64 -19 92 -80.5t9 -126.5q-19 -64 -69 -112t-114 -61q-19 -4 -43 -5.5t-54 -0.5t-51 13t-24 33q-2 8 1.5 17t12 22.5t9.5 15.5h4q18 -43 55 -61t78 -11t78 34 q59 42 69 118t-39 130q-28 32 -89 51q4 16 23 30t43.5 27.5t34.5 24.5q16 20 26.5 51t11.5 61.5t-17.5 52.5t-54.5 22q-9 0 -19 -3t-15 -5t-18 -10t-15 -8z" />
<glyph unicode="&#xf647;" horiz-adv-x="500" d="M23 124l4 -4zM359 452l-18 -18q-57 -57 -88.5 -90t-77.5 -86.5t-77 -98.5h129l60 6l24 69l34 144zM27 124q10 20 27 40.5t43.5 46.5t34.5 34l184 203q6 6 24.5 27.5t28.5 32t28.5 22t36.5 12.5q-6 -41 -16 -85t-26 -104.5t-21 -83.5q-2 -5 -7.5 -22t-9 -29t-6 -28.5 t3.5 -20.5q6 -10 35 -10q7 0 23.5 -0.5t26 -0.5t23 1.5t24.5 3.5q0 -2 -1.5 -8.5t-2.5 -10.5t-3.5 -8.5t-6.5 -7.5q-15 -11 -66.5 -3t-64.5 -7q-7 -7 -11 -19.5t-7 -30t-5 -22.5q-40 -166 -43 -180h-50l62 258h-258z" />
<glyph unicode="&#xf648;" horiz-adv-x="500" d="M441 538l4 -4zM-27 -83q46 -15 93 -13t91.5 25t78.5 55.5t53 79t15 95.5q-2 42 -20.5 81t-49.5 67q-3 4 -32 21t-32 28q-3 8 2 20t15 27t11 18q2 4 12 29t20 41.5t22 20.5q11 9 60 1.5t63 -5.5q11 1 33.5 14.5t36.5 11.5l-47 -68l-139 -4l-44 -72q53 -23 85.5 -63 t41.5 -86.5t1 -98t-31 -97t-59.5 -84t-80.5 -58.5q-78 -36 -152 -22q-2 1 -5 1q-15 3 -22.5 5t-14 10t-5.5 20z" />
<glyph unicode="&#xf649;" horiz-adv-x="500" d="M277 462q-47 -7 -75.5 -39t-37 -72.5t-1.5 -85.5q8 -57 38 -90.5t84 -25.5q63 9 96 87q33 77 13 149q-21 76 -90 79q-13 1 -27 -2zM180 437q39 38 91.5 49t100.5 -12t71 -76q18 -46 13 -91.5t-28 -88.5q-21 -39 -62 -64.5t-85.5 -32t-87.5 11.5t-67 62q-44 81 -13 214 q22 88 69 161t122.5 122.5t164.5 56.5v-19q-109 -16 -187.5 -99t-101.5 -194z" />
<glyph unicode="&#xf64a;" horiz-adv-x="500" d="M94 398q32 95 65 117q8 5 23.5 6t37 -0.5t26.5 -1.5h234q-28 -124 -80.5 -253t-117.5 -236q-38 -62 -83.5 -98.5t-108.5 -41.5q5 7 13.5 11.5t20 8.5t17.5 7q38 21 71 63q29 36 56 86t41.5 84t38.5 95q4 9 14.5 35t15 37.5t13.5 35t14 38.5t11 35t10 38q-5 1 -14 2 q-31 4 -48 6t-48.5 3.5t-51.5 0t-46.5 -6.5t-44.5 -14.5t-35.5 -26t-28.5 -38.5z" />
<glyph unicode="&#xf64b;" horiz-adv-x="500" d="M320 720q-44 -10 -64 -55.5t-2 -87.5q9 -21 30 -41.5t40 -17.5q48 8 71 67t1 103q-21 44 -76 32zM270 465q-80 -16 -112 -97q-29 -75 0 -145q32 -73 107 -76q17 -1 36 2q57 11 83 60t16.5 106t-45.5 94q-59 62 -85 56zM254 484q-6 8 -20.5 25t-22.5 30.5t-12 30.5 q-9 33 0 74q16 71 85 94q63 20 117 -11q61 -36 47 -109q-2 -10 -6 -21q-8 -26 -32 -51q-31 -32 -70 -51q90 -61 107 -129q11 -44 3.5 -87.5t-30.5 -76t-57 -55.5t-76 -26t-88 11q-44 16 -71.5 47t-35 67.5t0 76t28 73t55.5 57.5t78 31z" />
<glyph unicode="&#xf64c;" horiz-adv-x="500" d="M266 517q-63 -11 -96.5 -88.5t-12.5 -148.5q22 -76 94 -78q12 0 26 2q70 11 101 70.5t17 130.5q-12 57 -43.5 89t-85.5 23zM367 222q-32 -29 -62 -41q-61 -25 -120.5 7.5t-78.5 95.5q-15 49 -4 100.5t44 91.5q40 49 101.5 64.5t118 -10.5t79.5 -89q28 -78 -7 -200 q-39 -134 -130.5 -220.5t-225.5 -103.5q2 14 26.5 26.5t57 24.5t41.5 17q67 42 112 104t48 133z" />
<glyph unicode="&#xf653;" horiz-adv-x="500" d="M273 390l28 140q-43 0 -64.5 -27.5t-11.5 -61t48 -51.5zM277 308l-35 -176q42 0 68.5 20.5t31.5 48t-11.5 58t-53.5 49.5zM309 550q1 12 3 18t7.5 11t16.5 6l-8 -39q55 -7 94 -43v-4l-31 -47l-16 8q4 19 -13 47t-35 13q-3 -3 -5 -8t-3 -9t-2 -10.5t-1 -8.5q-2 -11 -7 -30 t-8.5 -34.5t-3.5 -29.5q-1 -15 14.5 -31.5t36 -33.5t26.5 -29q26 -52 9 -92t-59 -64t-90 -24v-3q-1 -16 -2.5 -24t-8.5 -17t-20 -10l12 54q-28 7 -54.5 25t-37.5 42q-6 11 4.5 36t24.5 22q5 0 7.5 -8.5t4 -20t1.5 -14.5q15 -45 58 -58q15 81 25 121q1 3 4.5 16t4.5 22t0 17 q-3 17 -33.5 44.5t-36.5 41.5q-21 44 -6 77t50.5 52t77.5 19z" />
<glyph unicode="&#xf654;" horiz-adv-x="500" d="M246 234l74 203q-18 0 -32 -8.5t-22 -19.5t-14.5 -31t-9 -32t-6.5 -34q-1 -5 -2 -8q-5 -17 -4 -39t16 -31zM355 530l12 -3l-19 -59q17 -6 21.5 -16.5t-6 -17t-27.5 -1.5l-70 -199l70 27l-76 -50l-45 -110q-7 5 -7.5 15.5t3.5 24t9 25.5t11 25.5t7 18.5q-31 -6 -40.5 16.5 t-3.5 53.5q5 30 14.5 59.5t25.5 62t42 51t56 15.5z" />
<glyph unicode="&#xf655;" d="M176 434q-25 -8 -44 -34.5t-29 -61t-15 -66t-6 -58.5q-1 -32 15 -56t48 -17q26 7 51 54q44 83 46 171q1 33 -17 55.5t-49 12.5zM172 451q49 8 82 -23t35 -81q2 -43 -12 -89.5t-46 -85t-75 -46.5q-49 -9 -83.5 24t-37.5 84q-2 44 12.5 90t47 82t77.5 45z" />
<glyph unicode="&#xf656;" d="M102 128v-4h121zM102 433l3 -4zM105 433q3 7 14 12t27 6t31 1.5t31.5 0t21.5 -0.5l-78 -297q3 0 19.5 -3t23.5 -5t17 -8t15 -15q-48 11 -137 0l86 297z" />
<glyph unicode="&#xf657;" d="M62 366q20 57 63 77q29 10 59 8t55.5 -22t29.5 -51q2 -16 -3 -33.5t-12.5 -32t-23 -33t-27 -30t-33 -29.5t-31 -25.5t-31.5 -24t-26 -18.5l184 15q-16 -25 -48 -35.5t-66 -8.5t-71.5 2t-64.5 -5q3 12 13.5 22t27 21t21.5 16q3 2 25 21t28.5 24.5t24 23t25.5 28.5 t17.5 27.5t14.5 31.5q11 37 -11 70t-61 20q-39 -12 -55 -70z" />
<glyph unicode="&#xf658;" d="M86 374l4 -4zM105 284l4 -4zM90 374q5 40 45 61t80 10q32 -10 36.5 -38.5t-17.5 -51.5q-14 -16 -46 -39q37 -4 51.5 -36.5t-2.5 -65.5q-19 -39 -62.5 -64t-88.5 -26q-60 0 -74 35q17 4 38 -6t28 -12q28 -6 70 20q21 13 37.5 35t17 48t-26.5 40q-9 4 -19.5 4.5t-27.5 -1.5 t-20 -3q6 18 44 39.5t48 35.5q14 20 1.5 42t-38.5 19q-13 -1 -25.5 -9t-26.5 -20t-22 -17z" />
<glyph unicode="&#xf659;" d="M70 277q6 0 31.5 -2.5t44 -1.5t28.5 7q11 8 19.5 31.5t16 55.5t9.5 38q-40 -15 -81 -51.5t-68 -76.5zM23 249q45 81 168 163l15 10t17 11t14.5 8.5t18 8t17.5 2.5l-50 -175h54q-2 -9 -5.5 -14.5t-7 -8t-11 -4t-11 -1.5h-13.5h-14q-3 -21 -4.5 -29.5t-6 -27.5t-9.5 -28.5 t-13.5 -21t-21 -16.5t-27.5 -6l39 129h-149z" />
<glyph unicode="&#xf65a;" d="M277 460l4 -4zM141 448l136 8q-12 -21 -32.5 -29.5t-39 -8t-37 -8.5t-27.5 -32q22 -3 47 -15q43 -22 53.5 -58t-6.5 -70.5t-49.5 -63.5t-68.5 -39q-19 -5 -39.5 -8t-44 2t-29.5 22q31 -7 65.5 -5.5t63.5 18.5q24 15 43 39.5t25.5 53.5t-14.5 54q-4 4 -8 7.5t-9 6.5 t-8.5 5t-10 4.5t-9.5 4t-10 3.5t-9.5 2.5t-11 2.5t-9.5 3zM98 347l4 -4zM0 152l4 -4z" />
<glyph unicode="&#xf65b;" d="M266 452v-4l19 -3zM156 302q-34 -8 -50 -39.5t-12 -67.5q3 -27 20 -43t42 -10q36 9 52 62q18 55 -5 85q-16 20 -47 13zM117 308q41 11 80.5 2.5t59.5 -36.5t-1 -79q-17 -40 -58 -59t-83.5 -7.5t-59.5 54.5q-25 61 12.5 134t96.5 111q17 11 37.5 18.5t44.5 7t39 -12.5 q-8 -3 -26.5 -4t-28.5 -4q-71 -25 -113 -125z" />
<glyph unicode="&#xf65c;" d="M74 386q16 68 51 70v-11l180 3q-4 -7 -52 -89.5t-66 -128.5q-30 -74 4 -78q-9 -19 -24 -24t-25.5 6.5t-7.5 32.5q17 101 120 246l-129 -1z" />
<glyph unicode="&#xf65d;" d="M172 431q-28 -8 -34 -35.5t9.5 -49t40.5 -15.5q33 10 40 47q6 36 -19 50q-15 8 -37 3zM145 288q-46 -10 -63 -58q-16 -46 10 -74q22 -24 64 -14q40 10 53 47t-14 68q-10 11 -14.5 16t-16 11t-19.5 4zM137 304q-26 23 -35 39q-30 55 21 88q42 27 92 17q49 -11 47 -51 q0 -11 -5 -23q-6 -16 -19 -30q-15 -15 -43 -28q47 -36 56 -63q13 -43 -11.5 -76.5t-66.5 -46t-79 -1.5q-40 12 -50.5 38.5t2.5 54t38.5 51t52.5 31.5z" />
<glyph unicode="&#xf65e;" d="M168 435q-35 -10 -52 -62q-17 -56 5 -85q16 -20 47 -13q34 7 50 39t12 68q-3 26 -20 42.5t-42 10.5zM39 132l20 -8v4zM207 273q-21 -12 -47 -14t-48.5 5.5t-37.5 27t-15 47.5q0 35 20.5 63t51 38.5t62 9.5t55.5 -23t29 -61q7 -59 -28.5 -120t-88.5 -96q-16 -10 -39.5 -19 t-49 -8t-32.5 21q29 -7 56.5 2t48.5 30.5t36.5 45.5t26.5 51z" />
<glyph unicode="&#xf661;" d="M219 732q-26 -7 -45 -33t-29 -62t-14.5 -67.5t-5.5 -58.5q-1 -32 13.5 -55.5t45.5 -17.5q26 6 50 50q45 82 47 175q1 32 -15 54t-47 15zM211 747q48 9 80.5 -20.5t36.5 -78.5q3 -44 -10.5 -92t-46 -87t-76.5 -47q-47 -7 -80 24.5t-37 80.5q-3 44 10.5 90.5t46 84 t76.5 45.5z" />
<glyph unicode="&#xf662;" d="M145 730l3 -4zM148 730q3 8 14 12.5t27 5.5t31 0.5t31.5 -2t21.5 -1.5l-78 -293l71 -15v-12h-133q24 73 62 211q1 4 5.5 16.5t7 21.5t4.5 21.5t-2 16.5q-2 4 -6.5 7t-9.5 4.5t-12.5 3t-11.5 2t-12 1t-10 0.5z" />
<glyph unicode="&#xf663;" d="M105 659q20 57 63 76q29 11 59.5 9.5t55.5 -22t29 -51.5q2 -20 -7.5 -43.5t-22.5 -41t-38.5 -41t-40 -35t-44 -33t-34.5 -25.5l184 16l-29 -39l-65 -4l-156 -4q3 12 13 22t27 21t22 15q3 2 25 20.5t28.5 24.5t24.5 22.5t26 27.5t17.5 27t14.5 31q11 36 -12.5 67.5 t-60.5 18.5q-39 -12 -55 -70z" />
<glyph unicode="&#xf664;" d="M133 671l4 -4zM152 581l4 -4zM137 671q5 41 47 62.5t82 6.5q21 -8 28.5 -24.5t2 -34.5t-19.5 -33q-16 -17 -43 -36q38 -3 52 -35.5t-2 -65.5q-18 -40 -61.5 -64.5t-89.5 -25.5q-60 0 -74 35q17 3 38 -6.5t28 -10.5q28 -7 70 19q21 13 37.5 35t17 47.5t-26.5 40.5 q-9 4 -19.5 4.5t-27.5 -2t-20 -2.5q5 18 43.5 39t47.5 35q15 21 2.5 42.5t-38.5 19.5q-18 -2 -43 -22t-31 -24z" />
<glyph unicode="&#xf665;" d="M258 702q-9 -6 -37 -27t-40.5 -31t-31.5 -29t-32 -38q8 0 31 -2t40.5 -1.5t29.5 6.5q15 6 30.5 56t9.5 66zM70 550q44 78 164 158q2 1 13 8.5t14.5 9.5t13 7.5t15.5 8t14.5 5t15.5 2.5l-50 -172h54q-2 -8 -5.5 -13.5t-7 -8.5t-11 -4t-11 -1.5t-14 0t-13.5 0.5 q-3 -21 -4.5 -29.5t-6 -28t-10 -28.5t-13.5 -20.5t-20.5 -17t-27.5 -5.5l39 129h-149z" />
<glyph unicode="&#xf666;" d="M148 644l46 97h48l90 16q-1 -1 -4 -6t-4 -7t-4 -6.5t-5.5 -7l-5.5 -5.5t-6 -5l-6 -4q-15 -5 -33 -5.5t-29 0.5t-23 -7t-21 -29q23 -3 47 -15q44 -22 54.5 -58t-6.5 -70.5t-49.5 -63.5t-68.5 -39q-20 -6 -41.5 -8.5t-45 3.5t-26.5 24q44 -17 87 -6t77 46q23 24 30 51.5 t-5.5 53t-44.5 38.5q-20 9 -51 13z" />
<glyph unicode="&#xf667;" d="M301 749v-4l23 -4zM195.5 599q-33.5 -7 -49.5 -39t-13 -69q3 -25 18.5 -41t39.5 -12q37 7 55 58q19 53 -2 86q-15 24 -48.5 17zM156 601q28 13 55.5 13.5t48.5 -13t33.5 -33t10.5 -46.5t-22 -54q-22 -30 -60.5 -41.5t-75.5 2.5t-52 51q-13 38 -8 78.5t30 78t57 64.5 t73 39t78 1q-8 -11 -35 -14t-35 -7q-34 -16 -59.5 -48.5t-38.5 -70.5z" />
<glyph unicode="&#xf668;" d="M113 683q16 67 51 70v-12l180 4q-4 -7 -52 -89.5t-66 -128.5q-30 -74 4 -79q-8 -18 -23.5 -23t-26 6t-7.5 33q17 101 120 246l-129 -1z" />
<glyph unicode="&#xf669;" d="M215 728q-29 -8 -34.5 -35.5t10 -49t39.5 -15.5q34 10 40 47q6 35 -19 49q-15 9 -36 4zM191 585q-44 -2 -64 -49q-19 -45 3 -77q19 -25 58 -22q30 2 49 23t18.5 48.5t-21.5 49.5q-27 28 -43 27zM180 601q-26 23 -35 39q-31 56 22 88q42 27 92 16q49 -11 47 -51 q-1 -10 -5 -22q-7 -16 -17 -27q-6 -6 -13.5 -12t-17.5 -13t-15 -10q34 -18 48.5 -44.5t7.5 -52t-24.5 -47.5t-47.5 -34t-62 -9q-44 4 -66.5 38.5t-2.5 73.5q26 49 89 67z" />
<glyph unicode="&#xf66a;" d="M207 731q-37 -12 -53 -66q-15 -55 9 -83q18 -20 52 -9q32 9 46.5 40t11.5 66q-3 27 -21.5 43.5t-44.5 8.5zM78 429l20 -8v4zM250 566q-27 -7 -53 -7.5t-50.5 6t-38 28t-10.5 55.5q4 34 26.5 59t53 33t61.5 5t54 -26t27 -60q6 -60 -32 -122t-93 -95q-15 -9 -38 -16.5 t-48 -5.5t-31 21q25 -5 47.5 1t39 16.5t34 31.5t27.5 36t24 40z" />
<glyph unicode="&#xf6dc;" horiz-adv-x="313" d="M117 726q2 6 5.5 9.5t9.5 4.5t9.5 1.5t12 0t10.5 -0.5q27 0 76 2t65 2q-13 -65 -50 -208.5t-50 -220.5q-2 -12 -11.5 -41.5t-14.5 -54.5t0 -41q5 -18 30 -22.5t51 -8.5t33 -20l-199 -4q20 62 37.5 129.5t39.5 161t32 131.5q3 13 12 49.5t13 56.5q1 2 4 13t3 15t-1 13 q-15 28 -117 33z" />
</font>
</defs>
</svg>
