<?xml version="1.0" standalone="no"?>
<!DOCTYPE svg PUBLIC "-//W3C//DTD SVG 1.1//EN" "http://www.w3.org/Graphics/SVG/1.1/DTD/svg11.dtd" >
<svg xmlns="http://www.w3.org/2000/svg">
<metadata></metadata>
<defs>
<font id="wreathebold" horiz-adv-x="790" >
<font-face units-per-em="1000" ascent="800" descent="-200" />
<missing-glyph horiz-adv-x="242" />
<glyph horiz-adv-x="0" />
<glyph horiz-adv-x="0" />
<glyph d="M184 456q7 -2 11 -2q7 0 14 3q4 1 6.5 3t3.5 4q0 2 1 5q0 10 -18 22q-9 5 -20 11q-15 7 -26 15q-13 9 -20 18q-13 16 -13 34q0 14 8 27q18 30 53 33h7q12 0 24 -3v-1l8 -3q3 -1 4 -1q0 1 1 2q1 2 2 2q6 3 7 3q4 1 13 1h10v-86h-33l-1 9q-4 30 -20 37q-6 3 -11 3 q-6 0 -12 -3q-3 -1 -4 -2q-4 -2 -4 -8v-3v-2q4 -9 23 -20q4 -3 13 -7l12 -7q6 -3 14 -8t13 -10l9 -9q4 -5 6 -7q3 -5 4 -10l3 -13v-1v-4q0 -6 -4 -17q-8 -25 -31 -36q-18 -8 -37 -8q-3 0 -12 1q-5 0 -11 3l-10 3q-3 1 -7 2h-1v-1l-2 -8h-32v85h33l1 -9q2 -30 25 -37z M397 414q11 0 22 -2q38 -7 58 -40q19 -30 19 -63v-4q-1 -35 -23 -65q-22 -31 -61 -37q-9 -1 -18 -1q-18 0 -34 6q-35 13 -52 46q-13 25 -13 53q0 8 1 17q6 39 30 63q20 20 59 26q6 1 12 1zM390 376q-18 -2 -30 -26q-11 -21 -11 -42q0 -18 9 -38q13 -30 37 -30h5q18 2 30 25 q11 21 11 43q0 19 -9 39q-6 15 -18 23q-9 6 -19 6h-5zM483 197h109v-29h-10q-11 0 -13 -1q-2 -2 -2 -3q-2 -5 -2 -14v-39h57v39q0 9 -2 13q-1 2 -3 4h-11h-10v30h107v-29h-10q-7 0 -10 -1q-4 -2 -5 -6q-1 -2 -2 -8v-5v-7q1 -8 1 -11v-70q0 -3 -1 -13v-15q0 -5 1.5 -8.5 t2.5 -4.5q5 -1 13 -1h10v-30h-107v29h10q8 0 11 1q2 1 3 3q2 5 2 15v38h-57v-40q0 -10 2 -14l2 -2h13h10v-30h-109v29h10q7 0 10 1q5 2 5 5q1 2 2 8v5v7q-1 8 -1 11v72q0 4 1 13q1 6 1 10v4q-1 5 -2 8v0q-2 4 -3 5q-4 1 -13 1h-10v30zM160 426z" />
<glyph d="M184 456q7 -2 11 -2q7 0 14 3q4 1 6.5 3t3.5 4q0 2 1 5q0 10 -18 22q-9 5 -20 11q-15 7 -26 15q-13 9 -20 18q-13 16 -13 34q0 14 8 27q18 30 53 33h7q12 0 24 -3v-1l8 -3q3 -1 4 -1q0 1 1 2q1 2 2 2q6 3 7 3q4 1 13 1h10v-86h-33l-1 9q-4 30 -20 37q-6 3 -11 3 q-6 0 -12 -3q-3 -1 -4 -2q-4 -2 -4 -8v-3v-2q4 -9 23 -20q4 -3 13 -7l12 -7q6 -3 14 -8t13 -10l9 -9q4 -5 6 -7q3 -5 4 -10l3 -13v-1v-4q0 -6 -4 -17q-8 -25 -31 -36q-18 -8 -37 -8q-3 0 -12 1q-5 0 -11 3l-10 3q-3 1 -7 2h-1v-1l-2 -8h-32v85h33l1 -9q2 -30 25 -37z M490 197h109v-29h-10h-3h-5q1 -3 2 -4q5 -7 11 -17l5 -9q3 4 6 7q10 12 13 18l0.5 1.5t0.5 2.5h-5l-9 1v29h95v-29h-10q-7 0 -13 -2q-6 -3 -11 -8q-6 -7 -10 -11.5t-11 -14.5q-7 -11 -10 -15v-1h-1q-1 -1 -5 -6t-7 -9q-1 -1 -1 -2v-1l2 -4q3 -5 7 -11l4 -6l1 -1l23 -38 q8 -14 13 -18l1 -1q3 0 15 -1l9 -1v-29h-108v29h10h6v1q-1 3 -1 4l-11 16q-3 5 -5 8q-3 -4 -7 -9l-12 -16q-1 -1 -2 -3h5h10v-30h-94v29h10q7 0 12.5 2.5t11.5 7.5l10 12q4 4 11 15l10 13q1 3 6 9q4 4 7 8l1 1l-2 4l-13 20l-22 39q-9 16 -15 19h-14h-10v30zM311 413h151 l10 -1l6 -1l7 -18l1 -1l13 -50h-13q-10 0 -13 1q-5 0 -7 3l-1 1l-7 10v1q-6 11 -10 15v1h-1q-1 1 -1.5 1h-1.5q-1 1 -3 1h-6.5h-8.5h-3v-91q0 -4 -1 -15v-18q0 -7 2 -12q1 -4 5 -6q4 -1 10 -1h10v-30h-107v30h10q6 0 9 1q5 1 6 6q1 4 2 13v8.5v9.5q-1 10 -1 15v90h-3h-8h-5 q-5 -1 -9 -3h-1q-3 -3 -9 -15q-3 -7 -6 -11q-3 -3 -8 -4h-1q-4 -1 -13 -1h-13zM160 426zM566 86zM671 20zM671 20zM445 375z" />
<glyph d="M101 628h157l13 -1l6 -1l7 -20l16 -49h-14q-13 0 -17 1q-1 0 -2 1l-3 2l-3 5v-85l2 3l1 1q1 0 4 1.5l3 1.5q4 1 14 1h14l-16 -49l-7 -20l-6 -1l-12 -1h-157v30h10q7 0 11 2q3 1 4.5 4.5t1.5 8.5v15q-1 10 -1 13v71q0 2 1 11v6v6q-1 5 -2 7q-1 3 -3 4q-4 2 -12 2h-10v30z M491 197h108v-29h-10h-6q0 -2 2 -5l10 -16l4 -9l6 8q11 13 13 17q1 1 2 4h-6l-9 1v29h96v-29h-10q-7 0 -13 -2q-6 -3 -12 -8q-6 -7 -9.5 -11t-10.5 -15l-10 -13q-1 -3 -7 -9q-4 -5 -7 -9q-1 -1 -1 -2v-1l2 -4q3 -5 7 -11l4 -6l1 -1l23 -38q8 -14 13 -18l1 -1q3 0 15 -1l9 -1 v-29h-108v29h10h6v1q-1 3 -1 4l-11 16q-3 5 -5 8q-3 -4 -7 -9l-12 -16q-1 -1 -2 -3h5h10v-30h-94v29h10q7 0 12.5 2.5t11.5 7.5l10 12q4 4 11 15l10 13q1 3 6 9q5 5 7 8q1 1 1 2v1l-1 1v2q-3 4 -7 10q-5 7 -6 9l-23 39q-9 16 -15 19h-13h-10v30zM311 413h151l10 -1l6 -1 l7 -18l1 -1l13 -50h-13q-10 0 -13 1q-5 0 -7 3l-1 1l-7 10v1q-6 11 -10 15v1h-1q-1 1 -1.5 1h-1.5q-1 1 -3 1h-6.5h-8.5h-3v-91q0 -4 -1 -15v-18q0 -7 2 -12q1 -4 5 -6q4 -1 10 -1h10v-30h-107v30h10q6 0 9 1q5 1 6 6q1 4 2 13v8.5v9.5q-1 10 -1 15v90h-3h-8h-5q-5 -1 -9 -3 h-1q-3 -3 -9 -15q-3 -7 -6 -11q-3 -3 -8 -4h-1q-4 -1 -13 -1h-13zM260 478h-33v10q0 11 -1 13q0 2 -4 3h-6h-3h-31v-48h42q19 0 22 1h1q4 5 10 17zM260 568l-3 5q-7 14 -11 16q-2 1 -22 1h-42v-48h31q7 0 10 2q3 1 4 3v5v5l-1 11h34zM671 20zM671 20zM445 375z" />
<glyph d="M101 628h157l13 -1l6 -1l7 -20l16 -49h-14q-13 0 -17 1q-1 0 -2 1l-3 2l-3 5v-85l2 3l1 1q1 0 4 1.5l3 1.5q4 1 14 1h14l-16 -49l-7 -20l-6 -1l-12 -1h-157v30h10q7 0 11 2q3 1 4.5 4.5t1.5 8.5v15q-1 10 -1 13v71q0 2 1 11v6v6q-1 5 -2 7q-1 3 -3 4q-4 2 -12 2h-10v30z M397 414q11 0 22 -2q38 -7 58 -40q19 -30 19 -63v-4q-1 -35 -23 -65q-22 -31 -61 -37q-9 -1 -18 -1q-18 0 -34 6q-35 13 -52 46q-13 25 -13 53q0 8 1 17q6 39 30 63q20 20 59 26q6 1 12 1zM390 376q-18 -2 -30 -26q-11 -21 -11 -42q0 -18 9 -38q13 -30 37 -30h5q18 2 30 25 q11 21 11 43q0 19 -9 39q-6 15 -18 23q-9 6 -19 6h-5zM509 197h149l12 -1l6 -1l8 -19l13 -50h-13q-12 0 -16 1q-1 0 -2 1l-3 2l-7 13q-6 11 -10 14v1h-1v1h-1q-1 1 -3 1q-1 0 -2 1h-7h-8l-3 -1v-90q0 -4 -1 -15q-1 -7 -1 -13v-5q1 -7 3 -12q1 -4 5 -6q4 -1 10 -1h10v-30 h-108v29h10q7 0 11 2t5 6t2 13v7.5v9.5q-1 11 -1 15v90l-2 1h-9q-5 0 -7.5 -0.5t-3.5 -0.5t-2 -1l-1 -1q-1 0 -1.5 -0.5l-0.5 -0.5q-3 -4 -9 -15q-4 -7 -4 -8v-1l-3 -3q-1 0 -3.5 -1.5t-3.5 -1.5q-4 -1 -13 -1h-13zM260 478h-33v10q0 11 -1 13q0 2 -4 3h-6h-3h-31v-48h42 q19 0 22 1h1q4 5 10 17zM260 568l-3 5q-7 14 -11 16q-2 1 -22 1h-42v-48h31q7 0 10 2q3 1 4 3v5v5l-1 11h34zM540 157z" />
<glyph d="M101 628h157l13 -1l6 -1l7 -20l16 -49h-14q-13 0 -17 1q-1 0 -2 1l-3 2l-3 5v-85l1 2l1 1l1 1q1 0 4 1.5l3 1.5q4 1 14 1h14l-16 -49l-7 -20l-6 -1l-12 -1h-157v30h10q7 0 11 2q3 1 4.5 4.5t1.5 8.5v15q-1 10 -1 13v71q0 2 1 11v6v6q-1 5 -2 7q-1 3 -3 4q-4 2 -12 2h-10 v30zM672 -27q-7 -2 -14 -2q-14 0 -25 7q-2 2 -4 3l-1 1l-6 6q-1 1 -2 2.5t-2 2.5q-2 0 -7 -2q-8 -3 -12 -3q-10 -1 -17 -1q-17 0 -31 4q-30 10 -49 38q-18 28 -18 58q-1 1 -1 3q0 30 13 56q18 38 64 50q14 3 27 3q29 0 54 -17q35 -24 42 -74q1 -9 1 -17q0 -28 -13 -54 q-5 -9 -15 -21l-3 -3q1 -2 7 -3h2q6 0 8 4l5 8l31 -15l-4 -9q-9 -19 -30 -25zM325 413l22 -1l14 -15l24 -30l60 -70v51q0 2 1 11v7v6q-1 3 -2 5.5t-2 4.5h-1h-5h-17v31h95v-30h-10h-9l-1 -1h-1q-2 -1 -3 -3q-1 -1 -2 -3q0 -6 -1 -10v-4v-5q1 -7 1 -9v-145h-10q-19 0 -23 1 q-1 0 -2 1q-6 3 -12 9q-5 6 -10 13t-6 8l-58 68l-10 10l-3 3v-48q0 -2 -1 -11v-7v-6q1 -4 2 -5q1 -2 2 -3l2 -2q3 -1 11 -1h10v-30h-95v30h10q8 0 11.5 2t5.5 5v1v29v69q0 3 0.5 11.5t0.5 13.5q0 4 -1 6v1q-6 11 -22 11h-3h-10v31h48zM260 478h-33v10q0 11 -1 13q0 2 -4 3 h-6h-3h-31v-48h42q19 0 22 1h1q4 5 10 17zM260 568l-3 5q-8 14 -11 16q-2 1 -22 1h-42v-48h31q7 0 10 2q3 1 4 3v5v5l-1 11h34zM620 54q9 21 9 40q0 21 -11 41q-10 20 -28 25q-4 1 -8 1q-12 0 -23 -11q-14 -15 -19 -42q-2 -9 -2 -17q0 -15 6 -30q3 -7 6 -12q8 11 23 16 q7 2 15 2q12 0 23 -6q3 -2 9 -7zM577 26q4 -1 9 -1h5q-2 2 -6 3q-3 1 -4 1q-2 0 -4 -3z" />
<glyph d="M103 452q6 5 9 9q3 6 9 19l41 98l13 33q3 7 4 10q3 4 8 6q6 3 9 3q4 0 7 -2q1 0 1.5 -0.5l0.5 -0.5q9 -4 10 -5q2 -2 3 -5q3 -4 3 -5q2 -2 4 -9l1.5 -3l0.5 -1l40 -96l13 -31q2 -5 2.5 -6.5l0.5 -1.5v-1q0 -1 1 -2v-2q6 -10 23 -10h10v-31h-109v30h10h9v1q-1 3 -1 6l-3 8 l-4 8v2l-1 1l-3 8v0h-40h-9q-1 -3 -3 -7l-1 -2l-1 -1l-1 -4q-3 -5 -4 -7q0 -3 -2 -8v-3v-1h10h10v-31h-95v30h10q9 0 14 4zM180 519h19l-9 24zM481 197h109v-29h-10q-11 0 -12 -1q-1 -2 -2 -3q-2 -5 -2 -14v-25l31 32q6 6 9 10h-8v30h96v-29h-10q-12 0 -20 -5q-9 -6 -22 -19 l-16 -17l-19 -20l-9 -8l12 -10q10 -11 23 -25q12 -14 18 -20l6 -6l9 -7v-1l5 -5t5.5 -4t6.5 -2h1l1 -1h12h10v-30h-109v28l6 1l-1 2q-8 8 -20 18q-12 11 -16 15l-1 1v-3q0 -2 -1 -9v-8.5t1 -7.5q0 -3 1 -4l1 -1l2 -2h12h10v-30h-109v29h10q8 0 12 2t4 4q1 2 2 8v5v7 q-1 8 -1 11v72q0 3 1 13v7.5v6.5q-1 5 -2 8v0q-2 4 -3 5q-4 1 -13 1h-10v30zM284 461zM283 464zM227 600zM447 405v9h34v-85h-34v10q0 23 -22 32q-9 5 -17 5q-11 0 -22 -9q-19 -15 -24 -42q-2 -9 -2 -18q0 -16 7 -32q9 -19 22 -28q11 -8 24 -8q3 0 6 1q16 2 29 10v1h1 q1 0 5 4q6 5 9 7l9 6l6 -9l2 -4h5v-10q-2 -7 -3 -8q-3 -4 -13 -13q-23 -20 -51 -22h-7q-36 0 -64 21q-30 23 -38 58q-3 13 -3 26q0 25 9 47q11 27 38 44q25 16 56 16q17 0 29 -5h2v-1h1h1l1 -1z" />
<glyph d="M140.5 628.5q20.5 0.5 36.5 0.5q11 0 31 -2q36 -4 46 -9q32 -16 33 -48q1 -3 1 -4q0 -23 -15 -39q20 -15 21 -44q1 -2 1 -3q0 -35 -31 -50q-14 -7 -49 -11q-8 -1 -33 -1q-8 -1 -18 -1t-21 1h-32h-10v30h10q7 0 10 1q5 2 5 5q1 2 2 8v5v7q-1 8 -1 10v73q0 3 1 13v15 q0 4 -1 7q-2 4 -3 5q-4 1 -13 1h-10v30h10q9 0 29.5 0.5zM183 503v-36v-3.5v-5.5q5 -1 16 -1q27 0 35 8q7 5 7 13q0 3 -1 5q-2 12 -11 16q-8 3 -21 5h-5q-7 0 -20 -1zM183 544q20 -2 23 -2q9 1 17.5 5t9.5 16v4q0 10 -5 15q-8 8 -30 8q-10 0 -15 -1v-10v-35zM496 197h108 v-29h-10q-7 0 -11 -2t-5 -6t-1 -12v-18q1 -11 1 -16v-89h42q19 0 21 1h0.5t0.5 1q5 4 11 16q4 7 4 8v1l3 3q1 0 3.5 1.5t3.5 1.5q4 1 13 1h13l-13 -50l-8 -19l-6 -1l-13 -1h-157v29h10q8 0 12 2t4 5q1 2 2 8v5v7q-1 8 -1 11v70q0 3 1 13v7.5v6.5q-1 6 -2.5 9.5t-2.5 4.5 q-4 1 -13 1h-10v30zM298 413h158l13 -1l7 -1l6 -19l14 -50h-13q-12 0 -16 1q-1 0 -2 1l-3 1l-3 5v-83l3 3q1 0 4 1.5l3 1.5q4 1 14 1h13l-14 -50l-6 -19l-7 -1l-13 -1h-158v30h10q8 0 12 2t4 5q1 2 2 7v5.5v6.5q-1 8 -1 11v70q0 3 1 13v8.5v6.5q-1 7 -2 9q0 3 -2 4 q-5 1 -14 1h-10v31zM441 241h1l2 2q5 4 11 15l3 5h-33v10q0 9 -1 12q-1 1 -3 2q-4 2 -11 2h-30v-49h42q15 0 19 1zM459 267v-2v1v1zM458 353l-3 4q-7 13 -11 16q-1 1 -1 2h-21h-42v-48h30q8 0 12 2l2 1q1 4 1 13v10h33z" />
<glyph unicode="&#xa;" horiz-adv-x="0" />
<glyph horiz-adv-x="0" />
<glyph d="M211 520h157l13 -1l6 -1l7 -20l16 -49h-37l-2 7v2v-88h-34v10q0 9 -1 11v1v1q-1 1 -3 2q-1 0 -3 1q-8 2 -14 3h-5q-6 0 -13 -1h-6v-40q0 -9 2 -13q1 -3 3 -4h5h5l11 1v-31h-107v30h10q7 0 11 2q3 1 4.5 4.5t1.5 8.5v14q-1 10 -1 13v71q0 2 1 11v6v6q-1 5 -2 7q0 3 -4 4 q-4 2 -11 2h-10v30zM386 305h158l13 -1l6 -1l8 -19l12 -50h-35l-1 5v-84h-34v10q0 10 -1 11v1q-1 1 -3 2q-1 1 -3 2q-8 2 -14 2h-19l-5 -1v-39q0 -9 2 -13q1 -3 3 -4q4 -1 11 -1h10v-29h-108v29h10q9 0 13 3q3 2 4 4q1 3 1 8v15q-1 10 -1 13v70q0 2 1 11v6v6q-1 6 -2 8 q0 2 -4 4t-12 2h-10v30zM370 461q-6 17 -15 21h-18h-45v-49h6q12 -1 18 -1q7 0 14 2q2 1 3 2q2 1 3 2v1l1 1v11v10h33zM545 246q-6 17 -14 21h-19h-44v-49l5 -1h19q7 0 14 2q2 1 3 2q2 1 3 2v1l1 1v11v10h32z" />
<glyph d="M338 522h31v-86h-31l-2 8q-6 31 -18 36h-1q-6 4 -12 4t-12 -3q-3 0 -4 -1q-5 -3 -5 -8q0 -2 1 -4q0 -2 0.5 -2.5l0.5 -0.5q1 -2 3 -4q5 -6 6 -6q2 -2 11 -7l23 -13q20 -12 29 -19q10 -7 18 -22q5 -11 5 -23q0 -7 -1 -14q-7 -26 -32 -38q-18 -9 -40 -9h-5h-3q-5 0 -12 3 q-5 2 -9.5 3t-9.5 2v-1l-2 -8h-32v86h33l1 -9q1 -15 8 -25t19 -12q7 -2 11 -2q7 0 14 3l4 2q3 2 4 7v2v0.5v1.5q0 5 -3 9q-5 6 -8 8q-4 2 -13 7h-1l-1 1q-2 1 -9 5t-11 7q-4 2 -11 6q-8 5 -13 9l-9 9q-6 6 -9 12q-3 5 -5 12q-3 6 -3 13q0 2 1 3q0 9 2 16q8 23 29 33 q18 8 38 8h6q9 -1 25 -7h2zM483 306h1l28 -4h1h1q37 -10 55 -43q15 -28 15 -57q0 -4 -1 -9q-2 -34 -24 -63q-23 -29 -61 -35q-7 -1 -15 -1q-14 0 -30 4q-37 11 -55 43q-15 28 -15 57q0 4 1 9q2 34 24 63q23 29 60 35q7 1 15 1zM477 268q-19 -3 -30 -28q-9 -21 -9 -41t10 -40 q14 -27 35 -27q3 0 7 1q14 2 26 22t13 43v2q0 22 -10 40q-14 29 -35 29q-3 0 -7 -1zM286 466z" />
<glyph d="M338 522h31v-86h-31l-2 8q-6 31 -18 36h-1q-6 4 -12 4t-12 -3q-3 0 -4 -1q-5 -3 -5 -8q0 -2 1 -4q0 -2 0.5 -2.5l0.5 -0.5q1 -2 3 -4q5 -6 6 -6q2 -2 11 -7l23 -13q20 -12 29 -19q10 -7 18 -22q5 -11 5 -23q0 -7 -1 -14q-7 -26 -32 -38q-18 -9 -40 -9h-5h-3q-5 0 -12 3 q-5 2 -9.5 3t-9.5 2v-1l-2 -8h-32v86h33l1 -9q1 -15 8 -25t19 -12q7 -2 11 -2q7 0 14 3l4 2q3 2 4 7v2v0.5v1.5q0 5 -3 9q-5 6 -8 8q-4 2 -13 7h-1l-1 1q-2 1 -9 5t-11 7q-4 2 -11 6q-8 5 -13 9l-9 9q-6 6 -9 12q-3 5 -5 12q-3 6 -3 13q0 2 1 3q0 9 2 16q8 23 29 33 q18 8 38 8h6q9 -1 25 -7h2zM429 305h108v-30h-10q-7 0 -11 -2q-3 -1 -5 -5l-1 -2v-1v-3v-13q1 -8 1 -11v-70q0 -3 -1 -13v-15q0 -5 1 -9q2 -3 5 -4q4 -2 11 -2h10v-29h-108v29h10q7 0 11 2q3 1 5 5q1 3 2 8v6.5v7.5q-1 10 -1 13v71q0 2 1 11v7v6q-1 4 -2 7q-2 3 -5 4 q-4 2 -11 2h-10v30zM286 466zM510 266z" />
<glyph d="M185 628q48 0 69 -14q30 -18 39 -51q5 -20 5 -41q0 -14 -2 -27q-7 -44 -38 -63q-24 -14 -73 -14h-88v30h10q8 0 12 2t4 4q1 2 2 8v5v7q-1 8 -1 10v73q0 3 1 13v7.5v6.5q-1 5 -2.5 8.5t-2.5 4.5q-4 1 -13 1h-10v30h88zM496 197h178l19 -71h-13q-10 0 -13 1q-5 0 -7 3l-1 1 l-2 4v-83l3 3q1 0 3.5 1.5t3.5 1.5q4 1 13 1h13l-21 -71h-176v29h10q7 0 11 2q3 1 5 5q1 3 2 9v6.5v7.5q-1 10 -1 13v71q0 2 1 11v6v6q-1 4 -2.5 7.5t-2.5 4.5q-4 1 -13 1h-10v30zM298 413h108v-30h-10q-7 0 -11 -2t-5 -6t-1 -12v-18q1 -11 1 -15v-90h42q15 0 19 1h1l2 2 q5 4 11 15q4 7 4 8v1l3 3q1 0 4 1.5l3 1.5q4 1 14 1h13l-21 -71h-177v30h10q7 0 11 2q3 1 5 5q1 3 2 8v6.5v7.5q-1 10 -1 13v71q0 2 1 11v7v5q-1 3 -2.5 7t-2.5 5q-4 1 -13 1h-10v31zM180 456h14h7q1 1 5 2t5 2l1 1h1l7 3q2 1 4 3q18 17 18 53q0 47 -23 64q-3 1 -9 4 q-2 1 -8 2q-7 0 -11 1h-3h-7l-1 -1v-134zM622 70q-1 1 -4 2q-4 2 -10 2h-30v-49h42q19 0 21 1h0.5t0.5 1q5 4 11 16l2 4h-32v10q0 10 -1 13zM657 52v-2v1v1zM655 138l-2 4q-7 13 -11 16q-1 1 -1 2h-21h-42v-49h30q7 0 10 2q3 1 4 3q1 4 1 12v10h32z" />
<glyph d="M185 628q48 0 69 -14q30 -18 39 -51q5 -20 5 -41q0 -14 -2 -27q-7 -44 -38 -63q-24 -14 -73 -14h-88v30h10q8 0 12 2t4 4q1 2 2 8v5v7q-1 8 -1 10v73q0 3 1 13v7.5v6.5q-1 5 -2.5 8.5t-2.5 4.5q-4 1 -13 1h-10v30h88zM580 170q1 1 2 4.5t1 4.5q3 9 5 13q1 2 2 2q4 3 7 3 q4 1 18 1h10v-145q0 -2 -1 -11v-12t1 -9q1 -3 1.5 -3h11.5h10v-30h-94v30h10q11 0 12 1l1 3v5v7q-1 9 -1 10v69h-38v35h10q23 0 32 22zM180 456h14h7q1 1 5 2t5 2l1 1h1l7 3q2 1 4 3q18 17 18 53q0 47 -23 64q-3 1 -9 4q-2 1 -8 2q-7 0 -11 1h-3h-7l-1 -1v-134zM447 405v9 h34v-85h-34v10q0 23 -22 33q-9 4 -17 4q-11 0 -22 -9q-20 -16 -24 -44q-1 -8 -1 -16q0 -19 8 -35q16 -33 42 -33q5 0 8 1q16 2 30 11q2 1 5 4q6 5 9 7l9 6l6 -9l2 -4h5v-10q-2 -7 -3 -8q-3 -4 -13 -13q-23 -20 -51 -22h-10q-53 0 -84 45q-20 30 -20 61q0 21 10 43 q12 27 37 45q25 17 55 18q17 0 30 -5h1q2 -1 5 -2q3 -2 5 -2z" />
<glyph d="M185 628q48 0 69 -14q30 -18 39 -51q5 -20 5 -41q0 -14 -2 -27q-7 -44 -38 -63q-24 -14 -73 -14h-88v30h10q8 0 12 2t4 4q1 2 2 8v5v7q-1 8 -1 10v73q0 3 1 13v7.5v6.5q-1 5 -2.5 8.5t-2.5 4.5q-4 1 -13 1h-10v30h88zM555 188q16 11 34 11q12 0 24 -5q32 -11 41 -42 q2 -8 2 -15q0 -22 -14 -45q-4 -7 -11 -16q-6 -8 -14 -18l-12 -14l-13 -13h8h10q9 1 16 3q1 0 2 1l2 2q3 3 5 4q0 1 1 1.5t2 1.5l-1 -1q1 0 3.5 1.5t3.5 1.5q4 1 13 1h14l-21 -59h-131v10q0 7 4 14q3 7 6 11q3 2 9 7l7 7l19 19l9 10q6 7 9 10l8 11q4 6 6 11q3 5 4 10 q2 7 3 12v5q0 12 -6 22q-5 7 -12 7q-3 0 -6 -1q-9 -2 -16 -14l-1 -1l-1 -1q-1 -4 -2 -6l-2 -2q-1 -3 -3 -4l-1 -1l-2 -1l-6 -2h-3h-8h-11l1 11q3 39 31 56zM180 456h14h7q1 1 5 2t5 2l1 1h1l7 3q2 1 4 3q18 17 18 53q0 47 -23 64q-3 1 -9 4q-2 1 -8 2q-7 0 -11 1h-3h-7 l-1 -1v-134zM447 405v9h34v-85h-34v10q0 23 -22 33q-9 4 -17 4q-11 0 -22 -9q-20 -16 -24 -44q-1 -8 -1 -16q0 -19 8 -35q16 -33 42 -33q5 0 8 1q16 2 30 11q2 1 5 4q6 5 9 7l9 6l6 -9l2 -4h5v-10q-2 -7 -3 -8q-3 -4 -13 -13q-23 -20 -51 -22h-10q-53 0 -84 45 q-20 30 -20 61q0 21 10 43q12 27 37 45q25 17 55 18q17 0 30 -5h1q2 -1 5 -2q3 -2 5 -2z" />
<glyph d="M185 628q48 0 69 -14q30 -18 39 -51q5 -20 5 -41q0 -14 -2 -27q-7 -44 -38 -63q-24 -14 -73 -14h-88v30h10q8 0 12 2t4 4q1 2 2 8v5v7q-1 8 -1 10v73q0 3 1 13v7.5v6.5q-1 5 -2.5 8.5t-2.5 4.5q-4 1 -13 1h-10v30h88zM533 158q0 7 4 13t11 13q16 13 31 14h9q15 0 28 -5 q18 -8 28 -24q9 -13 9 -29q0 -8 -2 -17q-4 -17 -15 -27q14 -11 19 -30q3 -10 3 -19q0 -17 -11 -33q-18 -26 -55 -26h-9q-29 2 -45 22q-6 7 -7 13q-1 2 -1 5v3l1 3l2 2q2 2 11 8l12 8l4 -13q2 -8 7 -12q5 -3 12 -5q4 -1 7 -1q9 0 15 8q9 9 9 22v5q-2 14 -15 19q-6 2 -26 2 h-10v32h10q16 0 22 4q8 5 12 16q1 6 1 10q0 6 -2 12q-4 9 -12 10h-4q-7 0 -13 -5q-6 -6 -11 -15l-5 -8l-8 4q-10 5 -13 10t-3 11zM180 456h14h7q1 1 5 2t5 2l1 1h1l7 3q2 1 4 3q18 17 18 53q0 47 -23 64q-3 1 -9 4q-2 1 -8 2q-7 0 -11 1h-3h-7l-1 -1v-134zM447 405v9h34v-85 h-34v10q0 23 -22 33q-9 4 -17 4q-11 0 -22 -9q-20 -16 -24 -44q-1 -8 -1 -16q0 -19 8 -35q16 -33 42 -33q5 0 8 1q16 2 30 11q2 1 5 4q6 5 9 7l9 6l6 -9l2 -4h5v-10q-2 -7 -3 -8q-3 -4 -13 -13q-23 -20 -51 -22h-10q-53 0 -84 45q-20 30 -20 61q0 21 10 43q12 27 37 45 q25 17 55 18q17 0 30 -5h1q2 -1 5 -2q3 -2 5 -2z" />
<glyph d="M185 628q48 0 69 -14q30 -18 39 -51q5 -20 5 -41q0 -14 -2 -27q-7 -44 -38 -63q-24 -14 -73 -14h-88v30h10q8 0 12 2t4 4q1 2 2 8v5v7q-1 8 -1 10v73q0 3 1 13v7.5v6.5q-1 5 -2.5 8.5t-2.5 4.5q-4 1 -13 1h-10v30h88zM516 34v32v1q2 6 6 13q4 6 9 12l5 6v1l41 59l17 24 q6 8 8 10q1 2 4 3q5 3 10 3q2 1 5 1q4 0 9 -1l7 -1h10v-118h23v-45h-23v-46h-49v46h-82zM180 456h14h7q1 1 5 2t5 2l1 1h1l7 3q2 1 4 3q18 17 18 53q0 47 -23 64q-3 1 -9 4q-2 1 -8 2q-7 0 -11 1h-3h-7l-1 -1v-134zM447 405v9h34v-85h-34v10q0 23 -21 33q-10 4 -18 4 q-11 0 -22 -9q-20 -16 -24 -44q-1 -8 -1 -16q0 -19 8 -35q16 -33 42 -33q5 0 8 1q16 2 30 11q2 1 5 4q6 5 9 7l9 6l6 -9l2 -4h5v-10q-2 -7 -3 -8q-3 -4 -13 -13q-23 -20 -51 -22h-10q-53 0 -84 45q-20 30 -20 61q0 21 10 43q12 27 37 45q25 17 55 18q17 0 30 -5h1q2 -1 5 -2 q3 -2 5 -2zM598 123l-12 -16q-13 -17 -21 -29h33v45z" />
<glyph d="M127 628l21 -1l3 -3l11 -11l24 -29l62 -72v50q0 2 1 11v7.5v5.5q-1 3 -2 5l-1 1v1q-1 2 -2 3q-3 1 -4 2h-1h-8h-10v30h95v-30h-10q-10 0 -12 -1l-2 -2q-2 -1 -2 -4q-1 -5 -1 -7v-166h-10q-16 0 -20 1q-4 0 -7 2l-9 9q-6 6 -11 13l-7 10l-56 65l-10 11l-3 3v-49 q0 -3 -1 -10v-9q0 -2 1 -6q0 -3 1 -4l1 -1q1 -2 4 -3q4 -1 10 -1h10v-31h-94v30h10q7 0 9 1q5 2 6 7q1 2 1 30v68q0 3 0.5 11.5t0.5 13.5q0 4 -1 6v1q-6 12 -25 12h-10v30h48zM301 237q6 4 9 8q3 6 8 19l42 99l13 32q3 7 4 10q3 5 9 7l2 0.5t3.5 1t2.5 0.5q3 0 7 -1l1 -0.5 l1 -0.5q9 -4 10 -5q2 -2 3 -5q3 -4 3 -5q2 -2 4 -9q2 -5 3 -7l39 -94l13 -31q3 -7 3 -10q1 -1 1 -2q6 -10 22 -11h10v-30h-108v30h10h9v1v1q-1 3 -1 5q-1 3 -2 5q-1 1 -2 3l-1 1l-3 7v2l-1 2q-1 4 -2 6h-1v1h-1h-38h-9q-1 -3 -3 -6v-2l-2 -2l-2 -3l-4 -9q0 -3 -1 -7 q-1 -1 -1 -2t1 -2v-1h10h10v-30h-95v30h10q9 0 14 4zM378 304h19l-10 23zM481 197h108v-29h-10q-8 0 -11 -1l-2 -2q-3 -5 -3 -16v-24l36 36q3 4 4 5l1 1h-8v30h96v-29h-10q-12 0 -20 -5q-9 -6 -22 -19l-16 -17l-19 -20l-9 -8l12 -10q10 -11 23 -25q12 -14 18 -20l6 -6l9 -7 v-1l5 -5t5.5 -4t6.5 -2h1l1 -1h12h10v-30h-109v29h4l-3 3l-32 32l-2 2v-5t-1 -9v-4v-3q1 -3 2 -9q0 -3 1 -4t2 -1l1 -1h11h10v-30h-108v29h10q8 0 12 2t4 5q1 2 2 8v5v7q-1 8 -1 11v70q0 3 1 13v7.5v6.5q-1 6 -2.5 9.5t-2.5 4.5q-4 1 -13 1h-10v30zM357 266z" />
<glyph d="M184 456q7 -2 11 -2q7 0 14 3q4 1 6.5 3t3.5 4q0 2 1 5q0 10 -18 22q-9 5 -20 11q-15 7 -26 15q-13 9 -20 18q-13 16 -13 34q0 14 8 27q18 30 53 33h7q12 0 24 -3v-1l8 -3q3 -1 4 -1q0 1 1 2q1 2 2 2q6 3 7 3q4 1 13 1h10v-86h-33l-1 9q-4 30 -20 37q-6 3 -11 3 q-6 0 -12 -3q-3 -1 -4 -2q-4 -2 -4 -8v-3v-2q4 -9 23 -20q4 -3 13 -7l12 -7q6 -3 14 -8t13 -10l9 -9q4 -5 6 -7q3 -5 4 -10l3 -13v-1v-4q0 -6 -4 -17q-8 -25 -31 -36q-18 -8 -37 -8q-3 0 -12 1q-5 0 -11 3l-10 3q-3 1 -7 2h-1v-1l-2 -8h-32v85h33l1 -9q2 -30 25 -37z M523 197l22 -1l13 -15l85 -99v51q0 2 1 11v7v6l-2 6l-0.5 1t-1.5 1q-1 1 -2 1q-3 1 -4 1h-17v30h95v-29h-10q-7 0 -11 -1q-4 -2 -5 -6q-2 -7 -2 -14q0 -9 1 -20q1 -12 1 -17v-122h-10q-19 0 -23 1q-1 0 -2 1q-6 3 -12 9q-5 6 -10 13q-6 6 -7 9l-56 65l-11 11l-4 4v-48 q0 -2 -1 -11v-7v-6q1 -4 2 -5q1 -2 2 -3l2 -2q3 -1 12 -1h10v-30h-95v29h10q8 0 12 2l4 4q0 1 1 2v1v0q-1 0 -1 5v24v68q0 4 1 13q1 5 1 9v3q0 5 -1 7q-6 12 -25 12h-10v30h48zM278 413h109v-30h-10h-6q2 -4 5 -9l1 -1v-1q1 -1 13 -18q6 -9 10 -16l2 3q6 9 14 19l11 15 q3 5 4 7h-4h-10v31h96v-30h-10q-9 0 -18 -6q-10 -6 -14 -10q-5 -6 -15 -21l-12 -18v-1l-1 -1q-2 -3 -8 -10q-5 -6 -8 -11t-5 -9v-13q0 -3 -1 -14v-18q0 -5 2 -11q1 -2 1 -3l3 -3q1 0 13 -1l9 -1v-29h-108v30h10q11 0 12.5 0.5t2.5 4.5q2 7 2 12v17q-1 12 -1 14q0 3 -1 7 q-2 5 -4 8t-5 8q-4 6 -5 7l-1 1l-32 51q-10 14 -17 19h-14h-10v31zM160 426zM433 386zM368 382z" />
<glyph d="M101 628h157l13 -1l6 -1l7 -20l16 -49h-14q-13 0 -17 1q-1 0 -2 1l-3 2l-3 5v-85l2 3l1 1q1 0 4 1.5l3 1.5q4 1 14 1h14l-16 -49l-7 -20l-6 -1l-12 -1h-157v30h10q7 0 11 2q3 1 4.5 4.5t1.5 7.5v16q-1 10 -1 13v71q0 2 1 11v6v6q-1 5 -2 7q-1 3 -3 4q-4 2 -12 2h-10v30z M584 197q44 0 62 -7q23 -9 33 -32q5 -11 5 -22q0 -14 -6 -26q-2 -6 -10 -13q11 -8 17 -21q6 -12 6 -25q0 -8 -3 -17q-6 -22 -25 -33q-17 -9 -53 -12q-12 -1 -33 -1q-8 -1 -18 -1t-21 1h-32h-10v30h10q8 0 12 2q4 1 5 4l1 2v1v3v13q-1 8 -1 11v73q0 3 1 12v7.5v6.5 q-1 7 -1.5 8.5t-3.5 3.5q-5 3 -13 3h-10v29h88zM311 413h151l10 -1l6 -1l7 -18l1 -1l13 -50h-13q-10 0 -13 1q-5 0 -7 3l-1 1l-7 10v1q-6 11 -10 15v1h-1q-1 1 -1.5 1h-1.5q-1 1 -3 1q-3 1 -6.5 1t-8.5 -1h-3v-91q0 -4 -1 -15v-18q0 -7 2 -12q1 -4 5 -6q4 -1 10 -1h10v-30 h-107v30h10q6 0 9 1q5 1 6 6q1 4 2 13v8.5v9.5q-1 10 -1 15v90h-3q-5 1 -8 1q-4 0 -5 -1q-5 -1 -9 -3h-1q-3 -3 -9 -15q-3 -7 -6 -11q-3 -3 -8 -4h-1q-4 -1 -13 -1h-13zM579 28q22 -2 25 -2q12 1 19 5q10 5 12 17q1 2 1 5q0 7 -6 12q-10 8 -36 9q-9 0 -15 -1v-10v-35z M579 158v-36v-3.5v-5.5q5 -1 14 -1q22 0 31 9q5 5 5 13v5q-2 11 -11 15q-10 5 -17 6q-2 0 -22 -2zM260 478h-33v10q0 11 -1 13q0 2 -4 2q-3 1 -6 1h-3h-31v-48h42q19 0 22 1h1q4 5 10 17zM260 568l-3 5q-7 14 -11 16q-2 1 -22 1h-42v-48h31q7 0 10 2q3 1 4 3v5v5l-1 11h34z M445 375z" />
<glyph d="M287 460q-1 -6 -3 -8q-3 -4 -13 -13q-23 -20 -50 -22h-7q-35 0 -63 21q-31 23 -40 57q-3 14 -3 27q0 24 9 46q11 27 37 44q25 17 55 17q18 0 30 -4l6 -2h1l1 -1q1 0 2 -1v8h34v-84h-34v10q0 23 -21 32q-9 4 -17 4q-12 0 -22 -8q-20 -15 -25 -44q-1 -9 -1 -17q0 -19 8 -35 q17 -33 44 -33q4 0 7 1q15 2 28 11l1 1h1q1 0 5 4q6 5 9 7l9 6l6 -9q5 -9 5 -11q1 -3 1 -4zM302 237q6 5 9 9q3 6 8 19l43 101l12 29q3 8 5 10q2 4 6 6q6 3 11 3t9 -2q3 -1 6 -4q4 -3 7 -9q1 -3 2 -5l3 -6q1 -3 2 -5l41 -98l12 -29q2 -5 2.5 -6.5l0.5 -1.5v-1q0 -1 1 -2v-1 q5 -7 9 -9t13 -2h10v-30h-108v30h10h9v1q-1 3 -1 6l-3.5 7t-2.5 6q-1 2 -1 4l-1 1l-3 8l-1 1h-38h-10q0 -1 -2.5 -7t-3.5 -6l-3 -9v-1l-1 -2q-1 -1 -2 -5v-2v-1v0q1 0 11 -1l9 -1v-29h-95v30h10q9 0 15 4zM475 197h68l3 -3l11 -11l23 -27l63 -74v51q0 2 1 11v7v6l-2 6 l-0.5 1t-1.5 1q-1 1 -2 1q-3 1 -4 1h-17v30h95v-29h-10q-7 0 -11 -1q-4 -2 -5 -6q-2 -7 -2 -14q0 -9 1 -20q1 -12 1 -17v-122h-10q-19 0 -23 1q-1 0 -2 1q-6 3 -12 9q-5 6 -10 13q-6 6 -7 9l-56 65l-11 11l-4 4v-48q0 -2 -1 -11v-7v-6q1 -4 2 -5q1 -2 2 -3l2 -2q3 -1 12 -1 h10v-30h-95v29h10q8 0 12 2l4 4q0 1 1 2v1v0q-1 0 -1 5v24v68q0 4 1 13q1 5 1 9v3q0 5 -1 7q-6 12 -25 12h-10v30zM482 245zM481 248zM388 327l-10 -23h19z" />
<glyph d="M211 520h157l13 -1l6 -1l7 -20l16 -49h-37l-2 7v2v-84v1l3 7h34l-15 -50l-5 -14l-2 -5l-6 -1l-13 -1h-156v30h10q7 0 11 2q3 1 4.5 4.5t1.5 8.5v14q-1 10 -1 13v71q0 2 1 11v6v6q-1 5 -2 7q0 3 -4 4q-4 2 -11 2h-10v30zM402 305q14 0 17 -1q5 0 7 -3q3 -3 9 -16t7 -15 l7 -14q25 -55 40 -83l41 87l13 28l9 16l20 1h47v-30h-10q-7 0 -10 -1q-5 -2 -6 -4v-1q-1 -2 -1 -2.5v-0.5v-3v-13q1 -8 1 -11v-74q0 -4 -1 -13q-1 -5 -1 -9v-4q1 -5 2 -8q1 -2 4 -3q5 -3 12 -3h10v-29h-109v29h10q7 0 10 1q4 1 5 3q2 3 2 7q1 2 1 5v4q-1 9 -1 10v28 q-19 -37 -25 -52l-5 -11l-5 -11q-4 -7 -6 -9t-5 -3l-1 -1h-2q-6 -1 -10 -1q-5 1 -9 1q-5 2 -8 5q-4 5 -8 13l-3 7v-25h-95v29h10q7 0 10 1q4 2 5 5l1 1l1 2v1v3v12q-1 8 -1 11v74q0 4 1 12q1 5 1 9v4q-1 4 -2 7q-4 8 -22 8h-10v30h53zM355 349q9 5 15 21h-33v10q0 9 -1 11v1 v1q-1 1 -3 2q-1 0 -3 1q-8 2 -14 3h-5q-6 0 -13 -1h-6v-49h45h18zM370 461q-6 17 -15 21h-18h-45v-49h6q12 -1 19 -1q6 0 13 2q2 1 3 2q2 1 3 2v1l1 1v11v10h33zM424 173v-20q0 -2 -1 -8v-7t1 -5q0 -2 2 -4q1 -2 4 -3q4 -1 10 -1h8l-1 4q-4 7 -5 11l-13 22zM592 267z" />
<glyph d="M184 456q7 -1 11 -1q7 0 14 2q4 1 6.5 3t3.5 4q0 2 1 5q0 10 -18 22q-9 5 -20 11q-15 7 -26 15q-13 9 -20 18q-13 16 -13 34q0 14 8 27q18 30 53 33h7q12 0 24 -3v-1l8 -3q3 -1 4 -1q0 1 1 2q1 2 2 2q6 3 7 3q4 1 13 1h10v-86h-33l-1 9q-4 30 -20 37q-6 3 -11 3 q-6 0 -12 -3q-3 -1 -4 -2q-4 -2 -4 -8v-3v-2q4 -9 23 -20q4 -3 13 -7l12 -7q6 -3 14 -8t13 -10l9 -9q4 -5 6 -7q3 -5 4 -10l3 -13v-1v-4q0 -6 -4 -17q-8 -25 -31 -36q-18 -8 -37 -8q-3 0 -12 1q-5 0 -11 3l-10 3q-3 1 -7 2h-1v-1l-2 -8h-32v85h33l1 -9q2 -30 25 -37z M536 198h37q18 0 30 -1q34 -3 46 -9q32 -16 34 -49v-5q0 -22 -15 -38q19 -15 22 -42v-7q0 -32 -28 -47q-23 -12 -73 -12h-93v29h10q8 0 12 2t4 4q1 2 2 8v5v7q-1 8 -1 11v72q0 3 1 13v7.5v6.5q-1 5 -2 8v0q-2 4 -3 5q-4 1 -13 1h-10v30h10q9 0 30 1zM282 413h109v-30h-10 q-8 0 -12 -2q-3 -2 -5 -5q-1 -3 -1 -8v-15q1 -9 1 -13v-39q0 -4 1 -17t3 -18l7 -14q3 -6 8 -8q8 -4 15.5 -4t13.5 2q9 4 14 9q6 6 8 12q3 6 5 17t2 17v21q-1 14 -1 19q0 2 1 13v17q0 4 -2 10q-1 4 -3 5h-12h-10v31h95v-30h-10h-10l-1 -1h-1l-3 -3q0 -2 -1 -3q-2 -7 -2 -12 q0 -8 1 -19q1 -12 1 -15v-38q0 -5 -2 -18q-1 -14 -5 -21q-3 -7 -9 -16q-7 -10 -14 -17t-23 -12q-13 -5 -27 -5q-32 0 -57 14q-25 15 -35 46q-3 12 -3 55v49q0 9 -2 12q-1 2 -2 3h-12h-10v31zM579 72v-36v-3.5v-5.5q4 -1 16 -1q26 0 35 8q6 5 6 14q0 2 -1 5q-2 12 -11 16 q-10 4 -21 5q-3 0 -24 -2zM579 113q12 -1 18 -1h3q12 2 19 5q8 4 10 16v4q0 8 -6 14q-9 8 -30 8q-9 0 -14 -1v-9v-36zM160 426z" />
<glyph d="M101 628h157l13 -1l6 -1l7 -20l16 -49h-14q-13 0 -17 1q-1 0 -2 1l-3 2l-3 5v-85l1 2l1 1l1 1q1 0 4 1.5l3 1.5q4 1 14 1h14l-16 -49l-7 -20l-6 -1l-12 -1h-157v30h10q7 0 11 2q3 1 4.5 4.5t1.5 7.5v16q-1 10 -1 13v71q0 2 1 11v6v6q-1 5 -2 7q-1 3 -3 4q-4 2 -12 2h-10 v30zM645 199h34v-84h-34v10q0 20 -18 30q-10 6 -20 6q-9 0 -17 -5q-20 -10 -28 -34q-4 -14 -4 -28q0 -11 3 -22q6 -25 22 -38q12 -10 27 -10q10 0 22 5q13 6 19 10q3 2 5.5 4t2.5 3q4 2 7 2q5 -1 7.5 -3t8.5 -8l2 -3v-9l-3 -3q-27 -27 -53 -33q-9 -2 -18 -2q-6 0 -14 1 q-30 3 -52 22q-22 18 -33 42q-8 19 -8 42q0 5 1 11q2 30 20 53q17 22 43 33q20 8 42 8q8 0 14 -1q5 -1 15 -5l7 -3v9zM382 241q7 -2 11 -2q7 0 14 3q4 1 6.5 3t3.5 4q0 2 1 5q0 10 -18 22q-9 5 -20 11q-15 7 -26 15q-13 8 -20 17q-13 16 -13 34q0 14 9 28q18 30 52 33h5 q13 0 28 -5l7 -3q1 0 3 -1q0 2 1 3q1 2 2 2q6 3 7 3q4 1 12 1h10v-86h-32l-1 9q-4 29 -20 36q-7 3 -12 3q-6 0 -12 -2q-2 -1 -3 -2q-4 -3 -5 -7v-2v-3t1 -2q4 -8 23 -19q5 -4 12 -7q8 -4 13 -8l12 -7q9 -5 14 -10q5 -4 11 -11t8 -15q2 -6 3 -14q1 -3 1 -6q0 -4 -4 -15 q-8 -25 -31 -36q-18 -8 -37 -8q-6 0 -12 1q-4 1 -16 5q-8 2 -13 3l-1 -9h-33v85h33l1 -9q2 -30 25 -37zM260 478h-33v10q0 11 -1 13q0 2 -4 3h-6h-3h-31v-48h42q19 0 22 1h1q4 5 10 17zM260 568l-3 5q-8 14 -11 16q-2 1 -22 1h-42v-48h31q7 0 10 2q3 1 4 3v5v5l-1 11h34z M645 188v-1v1zM423 401v1v0v-1zM428 404z" />
<glyph d="M211 520h157l13 -1l6 -1l7 -20l16 -49h-37l-2 7v2v-88h-34v10q0 9 -1 11v1v1q-1 1 -3 2q-1 0 -3 1q-8 2 -14 3h-5q-6 0 -13 -1h-6v-40q0 -9 2 -13q1 -3 3 -4h5h5l11 1v-31h-107v30h10q7 0 11 2q3 1 5 5l1 2v1v3v12q-1 9 -1 11v71q0 3 1 13v15q0 4 -1 7q-2 4 -5 5 q-4 2 -11 2h-10v30zM514 306h31v-86h-31l-2 8q-6 31 -19 37h-1q-6 4 -12 4t-12 -2l-4 -2q-4 -3 -4 -9v-3v-2l1 -1q1 -2 3 -4q4 -5 5.5 -6t6 -3.5t5.5 -4.5q3 -1 24 -13q19 -11 29 -18t18 -23q5 -11 5 -23q0 -7 -1 -14q-7 -26 -32 -38q-17 -9 -38 -9q-3 0 -12 1q-5 0 -11 3 q-5 2 -10 3l-8 2v-9h-34v86h33l1 -9q1 -15 8 -25t19 -13q5 -2 10 -2q8 0 15 3q3 1 4 3q3 2 3 4q1 2 1 5v1q-1 12 -26 25q-1 1 -5 3.5t-7 3.5q-8 5 -11 7q-5 2 -13.5 8t-13 10t-9.5 11q-6 8 -8 16q-2 7 -2 15q0 10 2 18q7 23 29 33q16 8 35 8h9q10 -1 25 -6h1t1 -1zM370 461 q-6 17 -15 21h-18h-45v-49h6q12 -1 18 -1q7 0 14 2q2 1 3 2q2 1 3 2v1l1 1v11v10h33zM460 251h1h-1z" />
<glyph d="M288 520q50 0 72 -15q20 -12 24 -36q1 -6 1 -12q0 -17 -9 -33q-9 -14 -23 -20l24 -41q9 -16 14 -20h1v-1v0q2 -1 15 -1h10v-30h-109v30h10h6q-1 3 -3 7l-10 18l-10 18q-6 11 -8 14h-2h-11v-40q0 -9 2 -13q1 -3 3 -4h5h5l11 1v-31h-108v30h10q7 0 11 2q3 1 5 5l2 6v6v6 q-1 9 -1 11v71q0 3 1 13v7.5v6.5q-1 5 -2 8q-2 4 -5 5q-4 2 -11 2h-10v30h90zM280 481v-36v-3.5v-5.5q5 -1 14 -1q22 0 31 8q5 5 5 14v4q-1 11 -8.5 15.5t-17.5 5.5q-4 1 -8 1h-1q-4 -1 -12 -2h-3zM514 306h31v-86h-31l-2 8q-6 31 -19 37h-1q-6 4 -12 4t-12 -2l-4 -2 q-4 -3 -4 -9v-3t0.5 -1.5l0.5 -0.5v-1q1 -2 3 -4q4 -5 5.5 -6t6 -3.5t5.5 -4.5q3 -1 24 -13q19 -11 28 -17q11 -7 19 -23q5 -11 5 -23q0 -6 -1 -13q-6 -28 -31 -40q-19 -8 -41 -8h-5.5h-3.5q-5 0 -12 3q-5 2 -10 3l-8 2v-9h-34v86h33l1 -9q1 -15 8 -26q6 -9 17 -11 q7 -2 12 -2q8 0 15 3q2 1 3 1q4 3 5 7v3v0.5v1.5q0 4 -3 8q-5 5 -8 7q-5 4 -15 10l-10 5l-11 6q-4 2 -11 7q-8 5 -13 9q-3 4 -8 8q-6 6 -9 13q-3 5 -5.5 11t-2.5 13q0 2 1 3q0 9 2 16q8 23 29 33q16 8 35 8h9q10 -1 25 -7h2zM392 342zM392 342zM296 483zM461 251z" />
<glyph d="M194 520h109v-30h-10q-8 0 -12 -2q-4 -1 -5 -4t-1 -8v-16q1 -10 1 -13v-38q0 -7 1 -19q1 -11 4 -16l8 -16q2 -5 8 -7q7 -3 16 -3q8 0 15 4q9 5 14.5 11.5t7.5 17.5q2 12 3 20v9.5v14.5q-1 18 -1 23q0 2 1 13v16q0 4 -2 9q-1 3 -3 4h-1v0h-11h-10v30h95v-30h-10h-6h-5 l-3 -3q0 -1 -1 -3q-2 -6 -2 -11v-18q1 -12 1 -14v-18q1 -8 1 -13t-1 -9q0 -6 -2 -18q-1 -13 -4 -21t-9 -18t-16 -17q-10 -8 -19 -11q-15 -6 -28 -6q-34 0 -59 14q-26 15 -35 48q-3 13 -3 51v50q0 9 -2 13q-1 3 -3 4h-11h-10v30zM514 306h31v-86h-31l-2 8q-6 31 -19 37h-1 q-6 4 -12 4t-12 -2l-4 -2q-4 -3 -4 -9v-3t0.5 -1.5l0.5 -0.5v-1q1 -2 3 -4q4 -5 5.5 -6t6 -3.5t5.5 -4.5q3 -1 24 -13q19 -11 28 -17q11 -7 19 -23q5 -11 5 -23q0 -6 -1 -13q-6 -28 -31 -40q-19 -8 -41 -8h-5.5h-3.5q-5 0 -12 3q-5 2 -10 3l-8 2v-9h-34v86h33l1 -9 q1 -15 8 -26q6 -9 17 -11q7 -2 12 -2q8 0 15 3q2 1 3 1q4 3 5 7v3v0.5v1.5q0 4 -3 8q-5 5 -8 7q-5 4 -15 10l-10 5l-11 6q-4 2 -11 7q-8 5 -13 9q-3 4 -8 8q-6 6 -9 13q-3 5 -5.5 11t-2.5 13q0 2 1 3q0 9 2 16q8 23 29 33q16 8 35 8h9q10 -1 25 -7h2zM461 251z" />
<glyph unicode=" "  horiz-adv-x="242" />
<glyph unicode="&#x09;" horiz-adv-x="242" />
<glyph unicode="&#xa0;" horiz-adv-x="242" />
<glyph unicode="!" horiz-adv-x="187" d="M157 519l11 1v-11q-1 -53 -21 -151q-20 -102 -23 -128q0 -2 -0.5 -8t-0.5 -9q-1 -13 -2 -22q0 -11 -3 -23q-4 -13 -11 -21q-8 -9 -21 -10l-11 -1v11q0 37 1.5 109t1.5 108v40q0 5 -1 16q-1 10 -3 15q-3 6 -8 14q-4 8 -11 15l-2 3v13l5 2q52 33 99 37zM148 47q0 -2 -1 -4 l-1 -2l-1 -1q-7 -7 -23 -28q-22 -28 -25 -33v-1l-6 -16l-41 51l-32 35l11 6q25 13 40 49l3 7l8 -1q3 -1 4 -1q7 -4 24 -22l18 -20q12 -6 16 -9q6 -4 6 -10zM97 -21z" />
<glyph unicode="&#x22;" horiz-adv-x="260" d="M228 460l-13 -99q-1 -13 -5 -35q0 -1 -1 -3t-1.5 -3.5t-4 -3t-8.5 -2.5h-6h-1h-1q-12 2 -15 4q-2 0 -3 2l-3 2v4q-2 21 -2 30l-18 117v10q0 39 42 39q41 0 41 -39q0 -12 -1 -23zM97 326q-1 -1 -2 -4t-3 -4.5t-7 -2.5t-10.5 -1t-11.5 2q-7 2 -9 7l-1 1v2q-3 29 -13 81 q-8 46 -8 68v4.5v3.5q0 39 43 39t43 -39v-1z" />
<glyph unicode="#" horiz-adv-x="633" d="M197 236h207l37 180h-151l-54 -4l-12 -40zM230 688h59l-1 -11q-16 -116 -44 -197h152l53 6l12 38l23 113l15 46l59 6l-45 -209h106v-64h-117l-37 -180h154v-65h-169l-26 -141l-17 -58l-59 -6l41 205h-151l-53 -5l-12 -39l-22 -108l-17 -47l-57 -6l41 205h-102v65h117 l36 180h-153v64h169z" />
<glyph unicode="$" horiz-adv-x="505" d="M151 449q17 -36 76 -69l7 180q-46 -6 -74 -35q-18 -19 -18 -42q0 -16 9 -34zM383 174q-23 49 -110 85v-226q33 5 64 22q34 18 49 50q6 14 6 29q0 20 -9 40zM226 637h52v-43q40 -1 82 -13q44 -14 67 -42q5 -6 5 -15q0 -15 -17 -38q-26 -32 -47 -35l-11 -1v11q-1 63 -79 89 v-135q0 -5 -2 -21q-1 -8 -1 -15v-9q2 -11 4 -16t10 -10q9 -5 25 -12.5t19 -9.5q61 -31 93 -71q31 -39 31 -80q0 -5 -1 -9q-3 -45 -29 -81q-25 -36 -69 -59q-43 -21 -88 -24v-69h-44v69q-8 1 -17 3l-23 5q-13 4 -26 11q-12 7 -19 10q-8 4 -21 14q-11 10 -16 14q-6 4 -18 16 l-15 16l-16 16q-12 14 -15 17l-3 2v11l57 75h14l3 -4q9 -13 11 -39q2 -28 3 -30q10 -35 42 -61q26 -21 59 -29v157q0 7 2 24q1 12 1 22v7q-1 13 -3 19q-2 4 -6 7q-6 4 -18 10l-13 6q-61 30 -85 58q-32 37 -35 79v12q0 36 17 65q21 33 60 56q37 22 80 26v44z" />
<glyph unicode="%" horiz-adv-x="771" d="M567 247q-47 -10 -61 -74q-4 -20 -4 -38q0 -41 22 -80q25 -45 64 -45q9 0 18 2q26 5 41 28t17 52v14q0 24 -4 48q-6 33 -16 52q-11 23 -33 35q-13 8 -29 8q-7 0 -15 -2zM568 295q15 2 30 2q69 0 108 -61q29 -44 29 -93q0 -20 -5 -43q-17 -80 -86 -107q-18 -7 -33 -10 q-15 -2 -31 -2q-74 0 -115 61q-30 43 -30 93q0 20 5 43q18 81 90 107q17 7 38 10zM175 550q-27 -5 -41 -27q-15 -23 -18 -52q-1 -12 -1 -23q0 -19 3 -38q5 -32 14 -51q12 -25 34 -39q14 -8 30 -8q6 0 15 2q26 5 40 27q15 23 18 52v20q0 21 -3 40q-5 31 -15 52q-11 24 -32 38 q-14 9 -30 9q-6 0 -14 -2zM171 578q16 2 31 2q70 0 111 -58q30 -44 30 -96q0 -20 -4 -42q-17 -82 -89 -110q-13 -5 -31 -9q-16 -3 -33 -3q-70 0 -109 59q-30 46 -30 98q0 18 3 37q15 81 86 112q15 7 35 10zM156 -27q10 26 28 53q18 26 42 58q23 29 34 46q124 182 202 313 q3 4 23 45q17 34 33 59q16 26 35 40q8 4 17 5q8 2 19 3q12 2 17 2h17l-8 -15q-54 -94 -168 -264l-144 -217q-5 -7 -16 -28q-12 -22 -22.5 -39.5t-24.5 -35.5q-15 -20 -34 -30q-15 -9 -32 -9q-5 0 -10 1l-12 2z" />
<glyph unicode="&#x26;" horiz-adv-x="565" d="M164 291q-82 -35 -82 -107v-2q0 -64 27 -93q39 -42 93 -42q24 0 48 13q25 13 37 26l27 31q-40 89 -66 118t-84 56zM160 490q-18 0 -37 -15q-17 -14 -17 -34q0 -12 5 -22.5t16 -19.5q13 -11 21 -16t27 -16l18 -10q44 29 44 50q0 35 -22 59q-21 24 -55 24zM302 427v-12v-1 l-1 -2q-13 -35 -68 -75q48 -22 77 -57q28 -34 50 -82q19 33 40 83q25 62 33 99q1 3 1 5q0 4 -3 7q-7 7 -27 16q-8 3 -10 8q-1 2 -1 5t2 9q6 11 15 11q3 0 6 -1q19 -8 59 -15q27 -5 46 -5h3h3q16 0 16 -15v-1q0 -19 -16 -19q-12 0 -21 -3q-13 -5 -25 -32q-52 -123 -97 -201 q23 -56 47 -83t43 -27q28 0 57 61q1 3 4 6q5 6 13 6q5 0 9 -2q5 -3 7 -4q7 -6 7 -14v-3v-1l-1 -1q-18 -40 -40 -67q-14 -15 -42 -25q-26 -9 -46 -9q-35 0 -65 29q-25 24 -42 58l-11 -14q-19 -22 -34 -36q-17 -15 -50.5 -28.5t-74.5 -13.5q-75 0 -118 49q-42 49 -42 113 t38 112q31 39 77 62q-63 41 -63 105q0 20 7 37q6 16 14 26q8 11 25 23l25.5 16.5t30.5 15.5t30 14l3 2l4 -2q106 -37 106 -127z" />
<glyph unicode="'" horiz-adv-x="144" d="M95 326q-1 -1 -2 -4t-3 -4.5t-7 -2.5t-10.5 -1t-11.5 2q-7 2 -9 7l-1 1v2q-1 7 -2 17t-1 13l-16 117v10q0 39 42 39t42 -39v-1z" />
<glyph unicode="(" horiz-adv-x="231" d="M221 -130l-7 -4h-3q-10 1 -17 6l-2.5 2.5l-2.5 2.5q-70 63 -103 129q-41 83 -41 187v5v5q0 91 49 197q33 72 95 132q8 8 19 8h4q4 0 5 -1q8 -1 13 -9q3 -5 3 -6q1 -2 1 -4l-1 -5q-2 -5 -10 -14q-109 -112 -109 -292v-3v-3q0 -179 111 -296q9 -9 9 -20q-3 -8 -4 -10 q-3 -3 -9 -7z" />
<glyph unicode=")" horiz-adv-x="222" d="M139 6q-32 -71 -95 -129q-10 -10 -21 -11h-1q-16 0 -21 14q-2 5 -2 6v1v1q1 9 5 17l1 1l1 1q110 113 113 296q0 178 -113 297q-7 7 -7 17v4q2 7 6 10q1 1 3 2.5l2 1.5q6 5 12 5q13 0 22 -7q66 -62 99 -133q43 -87 43 -197q0 -93 -47 -197z" />
<glyph unicode="*" horiz-adv-x="336" d="M154 495q-17 -4 -27 -17q-9 -11 -9 -25v-2q1 -17 8 -31q6 -13 21 -20q9 -4 18 -4q5 0 13 2q19 4 28 16t9 25v2q-1 17 -8 31q-6 14 -20 21q-8 4 -18 4q-6 0 -15 -2zM152 629h35l24 -102l113 28l1 -12v-4q0 -16 -11 -30t-24 -24q-11 -7 -21 -19q-9 -10 -9 -19.5t9 -19.5 q10 -12 21 -20q13 -10 24 -23t11 -29v-4l-1 -11l-11 2q-6 1 -44 15q-26 8 -41 8q-6 0 -8.5 -0.5t-8.5 -3.5q-1 -1 -2 -4q-3 -7 -6 -12q-3 -4 -4 -10l-3 -14q-2 -5 -4 -14q-1 -10 -2 -13q0 -3 -0.5 -11t-0.5 -9v-10h-39v10q0 2 -3 22q-4 20 -6 31q-3 11 -9 24q-5 10 -11 13 q-5 2 -12 2q-15 0 -41 -8q-40 -15 -46 -16h-3h-9l-1 8v6q0 15 10 28q11 13 25 23q12 8 22 20q8 10 8 19.5t-9 19.5q-10 11 -21 19q-15 11 -25 23q-10 13 -10 29v6l2 11l10 -2q7 -1 47 -17q25 -9 40 -9q6 0 11 1q6 3 9 8q5 7 8 19q4 13 6.5 23t4.5 24q2 16 3 20z" />
<glyph unicode="+" horiz-adv-x="351" d="M209 119v-129h-61v129h-116v53h116v118h61v-118h116v-53h-116z" />
<glyph unicode="," horiz-adv-x="186" d="M102 114q3 -2 4 -2q1 -1 1 -2h1l1 -1l1 -2l5 -6l7 -6l1 -1q2 -3 8 -7q9 -5 15 -10q9 -7 12 -17v-7q0 -8 -6 -20q0 -1 -1 -3l-2 -4l-2 -4v-1v-1q-25 -100 -106 -136l-9 -4l-16 35l8 5q29 17 45 38q8 11 8 22q0 9 -5 18q-3 6 -17 21q-17 17 -21 34l-1 7l6 4q25 13 40 49 l3 7l8 -1q7 -2 12 -5zM109 109zM107 110zM107 110h1h-1zM107 110zM107 110z" />
<glyph unicode="-" horiz-adv-x="284" d="M261 191q0 -12 -2 -19q-3 -13 -14 -13h-205q-1 0 -3 0.5t-3 1t-3 3t-4 6.5q-2 5 -3 17v1q0 14 2 19q4 11 14 11h205l2 -0.5l4 -1t4 -3t3 -6.5q3 -7 3 -16z" />
<glyph unicode="." horiz-adv-x="186" d="M158 57q0 -2 -1 -4l-1 -2l-1 -1q-7 -7 -23 -28q-22 -28 -25 -33v-1l-6 -16l-41 51l-32 35l11 6q25 13 40 49l3 7l8 -1q3 -1 4 -1q7 -4 24 -22l18 -20q12 -6 16 -9q6 -4 6 -10z" />
<glyph unicode="/" horiz-adv-x="245" d="M32 -15q-7 0 -21 6q-6 2 -10 6q-3 2 -4 3l-2.5 4.5l-2.5 4.5v2v3l212 499q2 5 8 8l2 1h2q6 0 19 -2h1l1 -1q14 -7 18 -13q3 -5 3 -10v-3l-212 -500l1 4q-1 -1 -2 -4t-3 -5t-6 -3h-4z" />
<glyph unicode="0" horiz-adv-x="451" d="M196 283q-32 -5 -54 -22q-21 -14 -28 -35q-7 -23 -7 -50v-6q1 -30 13 -57q12 -25 32 -45q17 -19 45 -28q20 -7 41 -7q9 0 19 2q67 8 82 65q5 22 5 41q0 43 -23 86q-39 56 -103 58q-10 0 -22 -2zM233 327q29 0 57 -8q42 -11 69 -35q27 -22 43 -52q16 -35 17 -71q1 -3 1 -6 q0 -34 -16 -68q-17 -33 -52 -57q-38 -29 -104 -37q-16 -2 -30 -2q-31 0 -60 9q-41 11 -68 37q-26 22 -42 54q-15 35 -16 71v2q0 35 18 71q18 32 53 55q40 26 95 34q18 3 35 3z" />
<glyph unicode="1" horiz-adv-x="284" d="M42 287l8 38l178 24l6 -32l-6 -3q-12 -8 -21 -19t-15 -25q-5 -16 -9 -28q-3 -13 -5 -32q-1 -20 -1 -32t0.5 -34.5t0.5 -31.5q0 -3 -1 -14v-10v-7q1 -7 2 -16t3 -15q2 -5 6 -9v-1h1q8 -10 52 -12h10v-33h-211v32l9 1q17 1 29 7q11 6 17 17q8 12 11.5 24.5t4.5 30.5 q1 19 1 33t-1 34t-1 31q0 3 1 18v24q0 8 -3 19q-2 9 -6 13v1q-1 1 -3 2.5t-5 1.5q-4 1 -7 1.5t-8.5 1t-8.5 0.5h-28z" />
<glyph unicode="2" horiz-adv-x="431" d="M80 264q-2 6 -2 12q0 22 32 45q30 22 76 29q15 2 30 2q26 0 53 -7q52 -14 68 -51q7 -16 7 -33q0 -22 -13 -45q-20 -31 -52 -60q-32 -28 -76 -59q-27 -18 -44 -32l98 -3l87 1l46 54l31 -14l-4 -9q-2 -3 -9 -17t-10 -21q-3 -8 -11 -21.5t-15 -21.5q-6 -9 -14 -17 q-9 -10 -20 -14l-7 -3l-5 5q-5 6 -11 9t-15 4q-10 2 -16 2h-8h-11h-20h-220l8 14q7 11 20 22q11 11 28 22q15 11 22 15l14 12q11 9 17 13q3 2 16 12t17 14q5 4 17 14q12 8 15 13q5 5 14 15q8 9 13 15q5 7 10 16q7 11 10 16q7 15 7 31q0 19 -11 38q-16 26 -50 26q-8 0 -14 -1 q-14 -2 -30 -10q-16 -7 -24 -13q-6 -6 -23 -22l-3 -3h-15z" />
<glyph unicode="3" horiz-adv-x="314" d="M119 330q21 7 42 7q31 0 58 -15q41 -23 41 -67v-15q-5 -36 -32 -71q-22 -22 -47 -34q40 -20 65 -58q29 -42 29 -91v-4q-1 -51 -37 -92q-35 -34 -80 -53q-47 -22 -111 -40l-9 -3l-9 32l7 3q9 6 31 17l36 17q14 4 33 10q19 12 31 22q11 10 22 25q10 14 13 27q1 7 1 14 q0 8 -2 18q-3 18 -15 38t-31 35q-32 27 -48 28q-5 0 -12 -2q-2 0 -12 -3q-4 -2 -7 -2h-3q-3 0 -7 1q-9 2 -17 10l-10 10l12 6q6 3 29.5 16t31.5 18l26 19q16 8 27 17q11 12 19 27q10 20 10 40q0 8 -2 17q-9 23 -37 34q-8 2 -14 2q-7 0 -14 -2q-18 -8 -35 -16q-14 -8 -25 -8 q-8 0 -15 3l-6 3v17l3 3q35 29 70 40z" />
<glyph unicode="4" horiz-adv-x="480" d="M268 186q-1 22 -7 40l-108 -115l-46 -54l155 -4q1 17 3 52q3 33 3 60v21zM327 371l33 -6l-16 -315q11 2 27 3q21 2 34 8q12 6 25 23l4 5l32 -9l-46 -91h-81l4 -104v-42l-90 -65l-24 14v12l2 3q11 15 18 32t10 40q3 24 3 39v18.5v25.5v31q-19 0 -50 1q-39 1 -71 1 q-30 0 -57 -3h-1q-2 0 -10 -2q-10 -2 -19 -3q-6 -1 -12 -1h-7q-13 2 -19 11q-2 4 -2 9q0 3 1 7q3 9 13 20l58 66l59 63l67 68l55 63q32 38 56 72z" />
<glyph unicode="5" horiz-adv-x="343" d="M78 322l173 6l89 59l-67 -129l-82 -2l-80 -4q-2 -7 -4 -19q-4 -19 -5 -28v-4q0 -7 2 -17q4 -5 11 -9q9 -4 31 -8q19 -4 26 -6q86 -24 115 -75q19 -34 19 -70q0 -19 -5 -37q-15 -51 -55 -92q-45 -40 -108 -66q-57 -27 -103 -29h-10v37l8 2q60 11 108 44q51 33 71 88 q7 18 7 36q0 21 -10 41q-17 36 -59 54q-26 11 -51 11q-15 0 -31 -5l-15 -3z" />
<glyph unicode="6" horiz-adv-x="431" d="M133 242v3q0 14 10.5 25t21 17.5t28.5 13.5q33 14 67 14q20 0 40 -6q48 -14 76 -59q19 -30 22 -68q1 -10 1 -19q0 -26 -7 -50q-11 -32 -32 -60q-21 -29 -52 -45q-34 -16 -75 -19h-12q-36 0 -75 15q-54 25 -81 80q-25 54 -25 115q0 71 38 142q39 75 106 122q73 50 152 62 l9 1l9 -26l-7 -4q-44 -26 -84 -53t-75 -62t-53 -76q-17 -41 -19 -88v-10q0 -25 7 -53q10 -36 28 -64q19 -29 52 -45q21 -10 44 -10q12 0 27 3q34 7 49 28q14 19 14 43v5q-2 29 -13 59t-33 53q-23 23 -48 31q-10 3 -19 3h-2q-8 0 -16 -2q-10 -3 -17 -6q-8 -3 -20 -9t-21 -9 l-14 -6z" />
<glyph unicode="7" horiz-adv-x="451" d="M71 351l48 -20l111 -1l209 4l-1 -11q-1 -17 -14 -40q-13 -21 -31 -45q-18 -23 -23 -32l-61 -101h143l-18 -44h-151l-63 -107q-4 -7 -15 -33q-12 -27 -24 -46q-12 -21 -27 -31h-1v-1q-7 -4 -18 -5q-9 -1 -21 -1q-9 -1 -11 -1l-6 -2l-14 13l101 165l30 49h-145l18 44h154 l100 155q-76 8 -135 8q-70 0 -111 -12q-9 -2 -22 -16q-18 -18 -35 -21l-16 -2z" />
<glyph unicode="8" horiz-adv-x="431" d="M162 272q-44 28 -61 50q-26 33 -28 73v5q0 36 14 66q33 69 121 70q77 1 123 -44q36 -35 36 -76q0 -23 -12 -47q-4 -8 -9 -15q-6 -9 -17 -21q-10 -11 -15 -16q-7 -7 -21 -18l-8 -6q43 -26 74 -66q29 -40 33 -76q1 -6 1 -12q0 -23 -10 -49q-25 -74 -115 -92q-29 -5 -54 -5 q-60 0 -106 25q-66 37 -66 100q0 9 1 17q2 13 10 33q10 26 35 52q30 32 74 52zM211 244q-5 -1 -12 -1q-65 -17 -76 -79q-2 -11 -2 -23q0 -44 28 -80q36 -42 85 -42q15 0 26 3q2 0 4 0.5t2 1.5q33 7 44 31q9 19 9 39q0 8 -1 15q-5 31 -19 60q-16 28 -37 45q-3 2 -8 6 q-8 4 -11 7q-1 1 -8 5q-6 4 -8 5h-1l-11 6q-3 1 -4 1zM201 503q-8 0 -19 -2q-37 -6 -48 -25q-7 -11 -7 -25q0 -8 2 -16q8 -27 24 -51q18 -25 38 -39q1 0 3 -1.5t4 -2.5t4 -3q7 -5 12 -8l13 -8q6 -4 11 -5h5h2q21 4 34 25q15 22 16 43v8q0 43 -31 80q-25 30 -63 30z" />
<glyph unicode="9" horiz-adv-x="451" d="M263 1q-30 -13 -62 -13q-38 0 -74 18q-60 33 -80 96q-7 26 -7 52q0 23 6 46q13 48 49 81q43 39 101 45q11 1 23 1q45 0 83 -18q43 -21 75 -64q30 -41 36 -91q2 -22 2 -39q0 -48 -15 -93q-20 -62 -63 -109q-42 -41 -106 -72q-60 -32 -130 -51l-8 -2l-15 29l8 5 q52 26 91 51q39 21 77 50q38 33 59 75q19 42 26 94q1 9 1 20q0 23 -6 50q-9 38 -30 70q-22 31 -55 45q-14 5 -31 5q-20 0 -42 -7q-61 -23 -62 -86v-3v-3q0 -61 40 -103q34 -34 72 -34q19 0 40 8q18 7 34 20l4 2h13l13 -14v-11l-3 -3q-35 -35 -64 -47z" />
<glyph unicode=":" horiz-adv-x="178" d="M158 57q0 -2 -1 -4l-1 -2l-1 -1q-7 -7 -23 -28q-22 -28 -25 -33v-1l-6 -16l-41 51l-32 35l11 6q25 13 40 49l3 7l8 -1q3 -1 4 -1q7 -4 24 -22l18 -20q12 -6 16 -9q6 -4 6 -10zM158 293q0 -2 -1 -4l-1 -2l-1 -1q-7 -7 -23 -28q-22 -28 -25 -33v-1l-6 -16l-41 51l-32 35 l11 6q25 13 40 49l3 7l8 -1q3 -1 4 -1q7 -4 24 -22l18 -20q12 -6 16 -9q6 -4 6 -10z" />
<glyph unicode=";" horiz-adv-x="187" d="M102 114q3 -2 4 -2q1 -1 1 -2h1l1 -1l1 -2l5 -6l7 -6l1 -1q2 -3 8 -7q9 -5 15 -10q9 -7 12 -17v-7q0 -8 -6 -20q0 -1 -1 -3l-2 -4l-2 -4v-1v-1q-25 -100 -106 -136l-9 -4l-16 35l8 5q29 17 45 38q8 11 8 22q0 9 -5 18q-3 6 -17 21q-17 17 -21 34l-1 7l6 4q25 13 40 49 l3 7l8 -1q7 -2 12 -5zM158 298q0 -2 -1 -4l-1 -2l-1 -1q-7 -7 -23 -28q-22 -28 -25 -33v-1l-6 -16l-41 51l-32 35l11 6q25 13 40 49l3 7l8 -1q3 -1 4 -1q7 -4 24 -22l18 -20q12 -6 16 -9q6 -4 6 -10zM109 109zM107 110zM107 110h1h-1zM107 110zM107 110z" />
<glyph unicode="&#x3c;" horiz-adv-x="351" d="M327 -16l-297 140v44l297 140v-63l-214 -99l214 -100v-62z" />
<glyph unicode="=" horiz-adv-x="351" d="M325 196h-293v55h293v-55zM325 104h-293v54h293v-54z" />
<glyph unicode="&#x3e;" horiz-adv-x="351" d="M325 124l-295 -140v62l212 100l-212 99v63l295 -140v-44z" />
<glyph unicode="?" horiz-adv-x="264" d="M92 189v2v2q0 44 14 61q9 12 37 19q23 5 26 7q28 14 28 56q0 13 -3 29q-10 56 -97 71q-6 1 -15 2q-14 1 -24 4q-11 3 -19 9q-4 4 -6 11q-3 7 -3 20q0 12 2 27q6 37 16 49l4 4l10 8l5 -12q6 -15 15 -23.5t17 -11.5q8 -4 25 -8q18 -5 30 -11q51 -23 74 -71q15 -31 15 -71 q0 -13 -2 -27q-6 -53 -37 -92q-14 -18 -25 -28q-16 -13 -25 -20q-8 -6 -14 -20q-7 -14 -9 -33l-1 -11l-11 2q-12 3 -18 14q-8 14 -9 42zM178 47q0 -2 -1 -4l-1 -2l-1 -1q-7 -7 -23 -28q-22 -28 -25 -33v-1l-6 -16l-41 51l-32 35l11 6q25 13 40 49l3 7l8 -1q3 -1 4 -1 q7 -4 24 -22l18 -20q12 -6 16 -9q6 -4 6 -10zM127 -21z" />
<glyph unicode="@" horiz-adv-x="536" d="M329 313q0 5 -6 8q-6 2 -17 2q-31 0 -60 -55q-25 -56 -25 -91q0 -11 2 -13h1h1h1q14 4 49 42q14 16 23 25q14 21 24 57zM411 45q3 -3 5 -8q2 -4 2 -7v-1l5 -6l-10 -5q-61 -40 -141 -40q-101 0 -170 56q-78 63 -80 174q0 123 87 204q83 78 203 78q101 0 163 -61 q56 -50 56 -129v-2.5v-2.5q0 -75 -51 -126q-53 -53 -143 -54q-24 0 -36 4q-6 3 -9 6l-1 1q-3 5 -6 18v1v1q0 6 5 23q-48 -54 -84 -54h-1q-41 0 -43 54q0 58 46 120q46 71 104 72q14 0 30 -9l2 7q4 13 19 13q1 0 3 -0.5t3.5 -0.5h3.5h3q20 0 20 -15v-1l-51 -173 q-3 -12 -3 -20q0 -4 1 -5h2h2q56 0 94 37q40 39 40 98q0 68 -50 111q-46 41 -116 41h-3q-106 0 -164 -70t-59 -166q0 -70 44 -124q53 -61 156 -61h3q47 0 106 24l12 5zM345 157z" />
<glyph unicode="A" horiz-adv-x="640" d="M388 243q-44 112 -84 202l-84 -198q22 -2 49 -3q24 -1 46 -1q11 0 21.5 0.5t21.5 0.5q15 0 30 -1zM330 592q14 -1 19 -11q1 -1 2 -5q19 -57 99 -250q84 -200 104 -243q15 -31 26 -41q7 -7 27 -9q3 0 6 -1.5t6.5 -5.5t3.5 -10q0 -1 -1 -2q-1 -16 -13 -16h-66 q-62 0 -108 -4h-4q-15 0 -17 5q-1 5 -1 8q0 19 14 22h5q5 1 9 2t10 3l2 1q2 1 3 2q3 4 6 10v4t-1 5v1q-9 42 -54 145q-110 5 -175 5q-19 0 -34 -1q-26 -55 -50 -118q-6 -15 -5 -27q0 -4 0.5 -6t1.5 -3q8 -9 63 -23l4 -4q5 -5 6 -10q1 -3 1 -6q0 -4 -1 -9q-2 -1 -3 -1 q-1 -1 -6 -4t-6 -3h-4q-27 5 -89 7q-21 1 -31 1q-22 0 -41 -2h-3q-16 0 -16 15v0.5v1.5q0 16 14 18q19 3 31 15q14 13 29 48q23 46 113 245q87 193 102 234q3 8 8 12q2 2 5 3q5 2 9 2z" />
<glyph unicode="B" horiz-adv-x="519" d="M44 585q31 -6 74 -6h7.5h6.5q24 0 61 3q38 4 63 4q72 0 131 -39q57 -37 57 -106q0 -49 -37 -86q-25 -22 -63 -35q56 -13 97 -43q59 -45 59 -116q0 -45 -20 -80q-20 -34 -55 -52q-34 -18 -75 -25q-39 -8 -84 -8l-131 3h-16q-42 0 -75 -5h-2q-16 0 -18 18v4q2 11 7 14 q3 1 6 1h1q48 2 52 50q4 52 5 208v89q0 75 -1 104q-2 42 -12 54q-10 10 -44 14q-14 2 -14 17v3q2 15 16 15h4zM310.5 513q-34.5 32 -93.5 32q-18 0 -24 -3l-2 -2q-2 -4 -5 -13q-3 -12 -5 -97q-2 -48 -2 -80q0 -17 1 -30q39 0 66 5q44 7 71 33q28 25 28 72q0 51 -34.5 83z M184 292h-4q-1 -85 -1 -140q0 -52 1 -73q1 -22 4 -27q18 -12 65 -12q72 0 116 30q43 29 43 83q0 51 -30 87q-31 36 -87 46q-31 6 -90 6h-17z" />
<glyph unicode="C" horiz-adv-x="595" d="M372 606q66 0 147 -29q14 -4 25 -4h5q14 3 17 3q16 0 16 -14q0 -3 -2 -8q-17 -38 -23 -99q-2 -17 -16 -17t-19 14q-1 4 -1 9v4q1 7 1 11q0 16 -6 25q-8 13 -31 26q-20 12 -59 23q-38 11 -70 11q-49 0 -66 -4q-61 -17 -105 -61q-37 -38 -54 -84q-16 -46 -16 -117 q0 -62 17 -101q33 -76 102 -119.5t139 -43.5q64 0 112 32q44 31 55 75q4 14 16 14q2 0 6 -1q15 -4 15 -16v-6q-4 -12 -15 -49q-11 -34 -15 -55l-1 -6l-7 -2q-122 -27 -184 -27q-142 0 -241 85q-95 86 -95 212q0 74 19.5 125.5t63.5 97.5q60 59 170 84q51 12 100 12z" />
<glyph unicode="D" horiz-adv-x="704" d="M311 595q160 0 269 -78q106 -80 106 -223q0 -63 -23.5 -115.5t-59.5 -85.5q-35 -33 -84 -56q-49 -24 -95 -33q-46 -10 -90 -10q-42 0 -96 3t-83 3q-53 0 -113 -3q-16 -1 -18 14l-0.5 2t-0.5 3q0 16 21 16q25 0 36 7q9 5 12 31q5 48 7 215q1 42 1 78q0 111 -5 159 q-2 20 -11 25q-12 6 -36 7q-17 1 -17 17q0 6 1 9t3 6q5 5 12 5h4q14 -2 71 -2q10 0 83 3q72 3 106 3zM420 537q-56 21 -106 21q-71 0 -118 -17q-1 -2 -2 -10q-7 -66 -10 -244q-1 -59 -1 -104q0 -91 4 -124q0 -3 4 -4q66 -20 122 -20q85 0 142 27q55 26 93 82q42 63 42 158 q0 99 -71 170q-43 43 -99 65z" />
<glyph unicode="E" horiz-adv-x="574" d="M434 208q-4 34 -11 50q-7 11 -17 12q-59 9 -146 9q-56 0 -75 -1q0 -181 7 -222h2q30 -13 130 -13t152 35q30 21 50 70q4 9 9 10q3 1 5 1q6 -1 9 -3q2 -1 3 -2l4 -4q3 -5 3 -9q0 -2 -1 -5q-37 -114 -43 -129q-2 -11 -15 -11h-4q-18 4 -220 4h-150q-30 0 -83 -7h-2 q-14 0 -17 15q-1 4 -1 6q2 9 6 12q2 2 5 2q34 6 46 13q1 0 2 3q1 2 2 8q11 86 14 220v63q0 96 -6 187q-1 18 -16 25q-10 5 -27 8q-16 4 -16 17q0 15 16 15q142 -1 223 -1q190 0 212 4q7 1 18 1q16 0 16 -14q0 -2 -2 -8q-3 -10 -14 -103q-1 -5 -2 -6q-4 -12 -15 -12 q-19 0 -19 17q0 2 1 4q1 9 1 16v2v2q0 30 -13 36q-45 22 -149 22q-60 0 -110 -9l-1 -1q-4 -24 -10 -214v-2h83q91 0 142 7q3 0 4 1q5 2 7 7q12 24 17 40q3 11 19 11q17 0 17 -13l-0.5 -2t-0.5 -3q-6 -40 -6 -86q0 -36 4 -70v-4q0 -16 -17 -16q-18 0 -20 15z" />
<glyph unicode="F" horiz-adv-x="531" d="M40 586q3 0 31 -1t81 -2q55 -1 119 -1q21 0 66 -0.5t64 -0.5t44 2q26 3 40 7q5 2 8 2q6 0 7 -2q7 -6 8 -9v-4v-4q-8 -29 -8 -101q0 -5 -1 -6q-2 -15 -15 -14q-6 0 -9 1q-13 4 -14 16v1q0 43 -17 51q-40 19 -145 19q-79 0 -101 -3q-6 -62 -8 -213q40 -3 81 -3q64 0 128 6 q8 1 12 2q2 1 5 8q5 11 6 29q0 15 17 15h1h1q20 0 20 -17v-1v-1q-2 -12 -2 -134q0 -20 -19 -20q-21 0 -21 19v1q1 6 1 11q0 27 -20 30q-42 6 -208 13q-2 -42 -3 -197q0 -17 7 -27q6 -10 20 -14q16 -5 27 -7q14 -2 33 -3q21 0 21 -19q0 -3 -1 -7q-1 -5 -2 -7q-2 -4 -6 -7 t-11 -3h-5q-51 9 -136 9q-44 0 -86 -3q-2 0 -6 1t-8.5 5t-5.5 10v5q0 13 11 16q32 6 40 12q8 7 11 36q9 84 9 223q0 136 -8 211q-2 20 -11 27q-9 8 -42 8q-16 0 -16 15v0.5v1v1.5v1q0 16 16 16z" />
<glyph unicode="G" horiz-adv-x="664" d="M381 592q34 0 59 -4t55 -12q6 -2 13.5 -4t11.5 -3.5t6 -1.5q3 -1 7 -1h3h1q5 4 11 13t15 9q2 0 2 -1q10 -3 12 -8q1 -3 1 -5v-4q-1 -2 -1 -8q0 -17 4 -50q6 -46 12 -64h1v-1v-4q0 -8 -4 -12q-6 -4 -9 -5h-4q-14 0 -19 13q-16 42 -65 75q-48 32 -132 32q-57 0 -95 -16 q-69 -28 -111 -89q-42 -60 -42 -142q0 -102 80.5 -182.5t192.5 -80.5q72 0 127 32q9 5 10 19q1 25 1 48q0 41 -4 91q-2 19 -16 25q-14 7 -69 7h-6.5h-6.5q-7 0 -12.5 4.5t-5.5 14.5q0 9 5.5 14t13.5 5q41 -1 53 -1h15h15q75 0 119 5h4q8 0 12.5 -5.5t4.5 -11.5 q1 -15 -13 -19q-14 -3 -17 -9q-5 -8 -5 -27q-2 -111 -2 -153q0 -12 14 -24q6 -5 6 -13q0 -12 -12 -15q-7 -1 -31 -5l-42 -7q-50 -9 -90 -14q-41 -6 -77 -6q-154 0 -257 82q-100 83 -100 225q0 65 33 125q32 61 81 95q50 35 117 54.5t130 19.5z" />
<glyph unicode="H" horiz-adv-x="767" d="M47 591q22 0 61 -3q38 -2 51 -2q59 0 85 3h1h3q10 0 13 -7q1 -5 2 -8v-2q0 -15 -15 -17q-42 -5 -55 -13l-1 -1l-1 -1v0q-4 -28 -5 -63t-2 -89q-1 -41 -1 -61h413q0 15 1 42v26q0 25 -1 49q-1 37 -5 74q-2 22 -13 29q-11 8 -43 13q-13 2 -13 16v1v1l2 6q5 11 16 11l41 -3 q40 -3 63 -3q14 0 81 5q13 1 16 -15q1 -3 1 -5q0 -13 -12 -15q-44 -5 -45 -39q-5 -183 -5 -296q0 -101 4 -154q1 -14 4 -22q1 -5 7 -8q9 -4 13 -4q2 -1 6 -1.5t9.5 -1t7.5 -0.5q14 -2 14 -18v-3q0 -6 -4 -12t-12 -6h-4q-37 7 -82 7q-38 0 -100 -9h-6t-5 1.5t-5 1.5 q-3 5 -3 6q-1 2 -2 7v7q0 14 12 17q20 4 28 6q6 1 15 6q6 4 8 10q3 9 4 23q5 97 5 167q0 23 -1 41l-411 2v-29v-42q1 -45 2 -96t1 -53q0 -17 13 -24q15 -10 45 -14q15 -2 15 -18q0 -4 -1 -6q-4 -14 -18 -14h-4q-39 9 -94 9q-47 0 -97 -7h-3q-16 0 -17 15v2v3q0 13 12 15 q32 5 42 11q9 5 10 27q8 118 8 235v25q-1 131 -5 197q-1 20 -10 25q-10 7 -37 7q-16 1 -16 18v1v1q2 5 2 6q5 10 17 10z" />
<glyph unicode="I" horiz-adv-x="351" d="M47 593q43 -5 128 -5q73 0 134 6h3q17 0 17 -17q0 -5 -1 -7q-2 -14 -15 -14h-12h-9q-4 -1 -14 -1q-7 -1 -8 -1l-12 -3q-4 -2 -6 -4l-9 -6l-4 -4v-1q-2 -4 -5 -11q-2 -7 -3 -14q-8 -52 -9 -200v-32q0 -128 4 -204q2 -34 22 -38q21 -5 61 -5q16 0 16 -18q0 -17 -19 -17h-4 h-8q-17 0 -52 1q-52 2 -65 2q-97 0 -132 -4h-5q-7 0 -12 4.5t-5 11.5q0 5 1 7q2 13 15 14q43 1 57 6q26 9 29 44q6 81 6 196v33q-1 138 -8 195q-3 30 -15 37q-13 8 -52 12q-9 1 -10 1h-1q-17 2 -17 16q0 20 18 20h1z" />
<glyph unicode="J" horiz-adv-x="361" d="M255 512q-3 -33 -4 -121q-1 -87 -1.5 -215t-2.5 -224v-3l-2 -3q-75 -88 -127 -124q-10 -7 -35 -17q-23 -9 -42 -9q-14 0 -25 12q-10 10 -13 19l-1 1v1v3q1 10 6 14q2 2 5 4q19 11 46 22q3 2 7 2q3 0 6 -1l2 -1q3 -1 10 -5q5 -3 9 -3q1 0 3 1q5 2 13 9q14 12 21 33 q12 37 17 101q8 117 8 265v19q0 159 -9 219q-3 14 -9 23q-7 10 -11 13q0 1 -1 1q-5 2 -17 5q-17 3 -21 4q-20 2 -29 2q-17 1 -17 16v1q0 19 16 19h1q61 -7 145 -7q68 0 117 4h3q16 0 18 -16v-1l-1 -6q-3 -15 -17 -15h-1h-1q-5 1 -11 1h-10q-13 -2 -23 -5q-8 -3 -14 -12 q-7 -9 -8 -26z" />
<glyph unicode="K" horiz-adv-x="634" d="M177 311q196 174 212 191q21 22 21 32q0 1 -3 4l-4 2q-12 5 -30 5q-16 0 -16 17.5t14 17.5h1h7t15.5 -0.5t18.5 -0.5q39 -1 46 -1q27 0 47 1t28 3q9 1 11 1q17 0 17 -16q0 -17 -16 -20h-1h-1h-1q-13 0 -54 -28q-40 -28 -81 -61l-102 -85l-71 -61l305 -238q51 -41 68 -46 q12 -4 12 -15q0 -1 -1 -7q-4 -13 -17 -13q-4 0 -11 3q-4 1 -15 3q-12 1 -27 1q-72 0 -114 -7h-1q-15 0 -15 16v2v2q0 16 13 16q21 3 28 6q-3 4 -8 9l-101 82l-109 86l-65 51q0 -106 5 -193q1 -17 10 -23q13 -8 55 -16q13 -3 13 -17v-1v-2q-1 -15 -18 -15q-2 0 -19 1l-40 3 q-13 1 -48 1q-5 0 -20 0.5t-22 0.5q-36 0 -49 -3h-5q-16 0 -16 15q0 19 16 20q25 1 35 9q8 6 10 31q11 142 11 260q0 86 -6 169q-2 29 -8 35l-1 1q-7 5 -36 9q-16 2 -16 18t16 16h1h1q43 -3 94 -3q29 0 54 1.5t37 3.5l16 2q16 0 16 -15v-2q-2 -13 -13 -16h-1h-1 q-19 -2 -25 -3t-18 -5q-9 -3 -13 -10q-4 -6 -5 -23q-7 -100 -10 -201zM544 556z" />
<glyph unicode="L" horiz-adv-x="558" d="M47 584q1 0 14 -1t37 -3q23 -1 50 -1q30 0 55 1.5t36 2.5q12 2 14 2q9 0 14 -5t5 -14q0 -7 -1 -11q-1 -2 -2 -3q-4 -4 -6 -5q-4 -2 -7 -2q-41 -4 -52 -10q-10 -5 -12 -23q-11 -131 -11 -295q0 -77 2 -136q0 -19 8.5 -25.5t41.5 -7.5q37 -1 56 -1q34 0 59 2q89 8 119 27 t39 53q4 12 17 12h6q14 -5 14 -18v-5q-26 -100 -41 -126l-5 -7l-7 3q-24 7 -101 9q-148 3 -246 3h-102q-17 0 -17 17v1v1q0 8 1 11q1 2 2 3q4 4 6 5l6 2q36 5 43 12t8 34q6 192 6 310q0 68 -2 107q-1 18 -4 27q-1 6 -7 9q-9 4 -12 5l-24 2q-16 0 -16 18v4q2 16 16 16z" />
<glyph unicode="M" horiz-adv-x="899" d="M43 584q1 0 21 -1l46 -3q26 -1 47 -1q18 0 29 1h17h5h6q12 -2 14 -11q8 -32 35 -85q51 -100 203 -340l78 158l108 190q37 67 39 75q5 13 17 13h0.5h1.5h9q8 -1 22 -1h62q14 0 22 1h12q15 0 15 -18q0 -9 -5 -13.5t-11 -4.5q-2 0 -9 0.5t-10 0.5q-24 0 -33 -7 q-13 -10 -17 -52q-3 -30 -3 -65v-17q22 -110 30 -292q2 -47 15 -59q14 -13 54 -16q1 -1 3.5 -1.5t4 -1t3.5 -3t2 -6.5q1 -3 1 -7q0 -19 -17 -19q-2 0 -15.5 0.5t-35.5 1.5t-44 1q-102 0 -144 -7h-5q-16 0 -18 5v6q0 22 13 25q50 8 70.5 27.5t19.5 66.5q0 80 -10.5 191 t-10.5 140q-27 -43 -67.5 -129.5t-56.5 -117.5q-80 -151 -95 -198q-4 -12 -17 -12q-1 0 -2 1q-13 1 -17 12q-16 50 -59 134q-51 100 -109 191l-67 127q-8 -77 -16 -350v-5q0 -45 16 -61q16 -17 63 -17q9 0 14 -5t5 -14t-5 -14t-14 -5q-4 0 -20 2q-16 1 -40.5 2t-46.5 1 q-47 0 -105 -5h-2h-1q-6 0 -9 3q-4 4 -4 9v-1q0 -2 -1 -4v1v-1v7q0 23 13 23q39 1 58 20q19 20 23 63q2 22 12 177q9 143 9 165v3q-1 30 -7 48q-4 16 -18 23q-15 9 -26 12q-10 2 -41 6q-1 1 -3 1h-2h-1q-15 2 -15 17v0.5v1v1.5q0 16 17 16z" />
<glyph unicode="N" horiz-adv-x="783" d="M41 593q45 -7 66 -7q8 0 51 4l7 1l3 -6q8 -12 39 -44q31 -33 88 -88l106 -98l131 -120l104 -96q1 22 2 57q2 59 3 80q0 20 1 64v17q0 33 -2 61q-2 30 -6 76q-3 35 -16 47t-63 18q-15 2 -15 15v1.5v0.5q1 18 18 18q8 0 55 -5q45 -4 71 -4h33q13 1 18 2l8 1h1q16 0 16 -16 v-2q0 -18 -16 -18h-1q-23 -1 -34 -13q-12 -12 -14 -48q-8 -157 -8 -355v-22v-23q0 -52 4 -78v-3q0 -11 -5.5 -15.5t-12.5 -4.5q-5 0 -8 2q-8 3 -14 14l-1 1q-8 21 -40 56q-32 36 -89 90l-111 102l-135 120l-116 104q-2 -148 -2 -248q0 -84 1 -136q1 -28 12 -38 q20 -20 85 -28q18 -2 18 -20q0 -8 -5.5 -13t-14.5 -5h-1q-68 7 -113 7q-51 0 -83 -6h-3q-15 0 -18 14v5q0 15 15 17q34 4 42 11q1 0 1 1q8 10 8 55q0 42 3 138q3 93 3 127v9q-1 28 -4 131q-13 50 -64 56q-16 2 -16 19q0 18 16 18h1h1z" />
<glyph unicode="O" horiz-adv-x="701" d="M324 551q-48 0 -107 -28q-48 -22 -79 -75q-30 -51 -30 -106q0 -126 78 -217q34 -41 87 -65q54 -25 112 -25q81 0 135 48q36 32 56 79q19 46 19 89q0 110 -63 195q-33 46 -87 76q-54 29 -121 29zM352 599q135 0 235 -87q97 -88 97 -223q0 -125 -92 -214q-96 -89 -223 -89 q-86 0 -151 23q-65 24 -118 81q-36 41 -58 95q-23 54 -23 104q0 96 57 173q57 76 150 110q69 27 126 27z" />
<glyph unicode="P" horiz-adv-x="537" d="M258 553q-37 0 -64 -5q-3 -28 -5 -140q-2 -74 -2 -116q0 -25 1 -39q27 -4 65 -4q81 0 128 40t47 99q0 79 -49 122q-50 43 -121 43zM41 596h15q13 0 33 -1q19 -1 39 -1q28 0 67 2q40 3 52 3q75 0 140 -28q61 -26 98 -71q37 -46 37 -111q0 -69 -73 -126q-75 -57 -188 -57 q-41 0 -73 4q1 -31 2 -79q1 -47 2 -65q0 -13 4 -20q2 -2 5 -3q14 -4 40 -7.5t32 -4.5q13 -4 13 -15q0 -2 -2 -8q-4 -14 -16 -14h-3h-2q-53 7 -115 7q-67 0 -90 -7q-4 -1 -7 -1q-13 0 -17 6q-1 6 -1 10q0 18 13 21q36 8 44 14l6 6q1 1 1 2q2 6 2 22q2 81 2 208q0 179 -9 253 q-1 5 -5 9q-15 13 -48 16q-15 2 -15 18v2v1q0 15 17 15z" />
<glyph unicode="Q" horiz-adv-x="729" d="M457 515q-55 33 -114 33q-97 0 -160 -61t-63 -154q0 -76 33 -143q34 -68 99 -112q65 -43 147 -43q74 0 130 50q74 66 74 182q0 92 -61 176q-28 39 -85 72zM632 113q-56 -69 -143 -101q49 -34 115 -61q75 -33 124 -33q22 0 38 5h4q10 0 14 -12q1 0 1 -0.5v-1.5q2 -6 2 -8 q-2 -11 -9 -13h-1q-1 -1 -2 -1q-72 -17 -129 -17t-145 37q-86 36 -140 83q-78 1 -135 23q-60 23 -110 76q-36 39 -59 94q-23 54 -23 106q0 126 98 217q102 90 234 90q129 0 229 -86.5t100 -221.5q0 -98 -63 -175z" />
<glyph unicode="R" horiz-adv-x="678" d="M253 552q-47 0 -62 -14q-3 -2 -3 -4q-8 -101 -8 -190v-31q31 -4 64 -4h6.5h6.5q33 0 57 5q32 7 61 33q27 24 27 70q0 40 -26 77q-25 37 -65 51q-20 7 -58 7zM44 583q2 0 28 -2q25 -2 50 -2q27 0 75 6q51 7 80 7q103 0 162 -50q60 -51 60 -111q0 -36 -16 -64.5t-41 -46.5 q-25 -17 -45 -26q-13 -6 -26 -10q121 -167 183 -226q24 -23 54 -37q28 -14 50 -14q17 0 17 -16v-3q-2 -11 -12 -15q-8 -3 -24 -3q-88 0 -178 71q-77 61 -193 227h-18q-29 0 -69 5q-1 -8 -1 -17q0 -87 6 -204v-2q1 -3 3 -5q6 -5 11 -7q6 -2 21 -6t23 -6q13 -4 13 -17v-6 l-1 -1v-1q-5 -11 -16 -11h-5q-44 10 -87 10q-38 0 -99 -10h-4h-2l-2 1l-8 3q-7 3 -7 13v5q2 12 11 14l1 1h1q49 6 50 38q6 162 6 271q0 107 -5 183q-1 15 -6 19q-1 2 -3 2q-12 6 -41 6q-13 1 -16 11v5q0 5 2 9q3 5 6 7q5 5 12 5z" />
<glyph unicode="S" horiz-adv-x="484" d="M260 587q56 0 116 -14q13 -4 23 -4q13 0 21 7q3 3 5 4q5 2 10 2q9 -3 10.5 -4t3.5 -5q1 -2 1 -5q0 -1 -1 -5l-8 -59q0 -12 8 -55v-4q0 -13 -14 -15h-4q-13 0 -15 12q-9 49 -39 72q-50 36 -113 36q-60 0 -97 -27q-36 -27 -36 -69q0 -15 4 -28t9.5 -21t13.5 -16 q9 -8 15 -12l17 -9q8 -6 9 -6l1 -1h1q12 -8 76 -29.5t86 -31.5q102 -56 102 -155q0 -70 -61 -113q-59 -42 -140 -42q-56 0 -100 6t-65 12q-14 3 -19 5v-3q0 -15 -14 -15q-3 0 -5 1h-4h-1l-5 2q-5 2 -6 6q-2 3 -2 9q0 2 0.5 5.5t0.5 5.5t-0.5 6t-0.5 6q0 26 -24 115v1v1v3 q0 13 13 16q7 1 8 1q11 0 14 -9q17 -62 40 -82q19 -16 70 -31q53 -16 110 -16q54 0 84 25q28 24 28 64q0 33 -12 53t-44 40q-20 13 -87 36q-63 23 -95 39q-95 52 -95 130q0 68 56 117q59 48 151 48z" />
<glyph unicode="T" horiz-adv-x="674" d="M78 594q4 -3 10 -8q5 -6 12 -6q32 -2 149 -2h84h78q42 0 76 0.5t62 0.5h60q6 0 13 1q6 2 11 3q7 3 10 3q16 0 16 -13q0 -5 -2 -9q-5 -9 -11 -28q-4 -12 -11 -53q-1 -4 -1 -5q-3 -8 -12 -11q-4 -2 -9 -2h-3h-1l-1 1q-5 1 -6 2q-9 5 -9 15v3l6 28q-20 14 -75 17 q-30 2 -61 2q-37 0 -73 -2q-7 -221 -7 -342q0 -53 2 -98q1 -11 1 -15q1 -10 2 -14q1 -2 1 -3l1 -1v-1q1 0 1 -1q4 -4 7 -9l2 -1q7 -2 10 -3l2 -2l8 -1q11 -1 14 -2q2 0 15 -1q14 -1 20 -2q16 -3 15 -16q0 -4 -1 -8l-1 -2q-5 -9 -11 -13q-3 -2 -8 -3h-1q-6 0 -43 5 q-35 5 -61 6h-7q-51 0 -139 -13h-4q-6 0 -7 1q-9 2 -13 10l-2.5 7.5t-0.5 3.5q0 12 16 15q55 10 78 21h1q3 1 4 4q2 8 3 37q6 177 6 285q0 124 -8 154q-30 4 -73 4q-25 0 -66 -2q-46 -2 -70 -13q-8 -4 -12 -9q-6 -9 -12 -25q-4 -14 -16 -14q-3 0 -7 1l-1 1q-5 3 -7 4 q-5 6 -5 12q0 3 1 5q32 69 36 88q4 16 17 15q4 0 8 -2zM390 49zM390 50zM389 50z" />
<glyph unicode="U" horiz-adv-x="717" d="M36 589q1 0 14 -1t34.5 -2t48.5 -1q26 0 52.5 1t44.5 2t19 1h6q7 -2 10 -7q1 -2 2 -8q1 -3 1 -5q0 -16 -20 -16q-42 0 -57 -10q-13 -9 -16 -39q-4 -51 -4 -196v-55.5v-51.5q1 -67 22 -98q45 -68 168 -68q67 0 114 18q49 18 65 40q29 36 38 126q8 77 8 156q0 85 -11 156 q-2 10 -11 15q-10 5 -45 5l-7 1q-15 3 -16 17v1q0 7 3 12q4 6 12 6h4q29 -4 82 -4q20 0 40 0.5t32 0.5q12 1 13 1q18 0 18 -16v-3q-2 -16 -19 -16h-3.5h-3.5q-22 0 -30 -5q-1 0 -2 -1q-6 -6 -6 -23q-2 -212 -11 -307q-10 -105 -46 -150q-27 -35 -89 -56q-59 -22 -133 -22 q-83 0 -130.5 14t-89.5 50q-31 28 -41 56q-11 29 -11 70q0 4 1 21q3 95 3 174q0 98 -6 144q-3 21 -8 28q-2 3 -4 4q-13 3 -34 4q-19 1 -19 18l1 1q0 10 5.5 14t11.5 4z" />
<glyph unicode="V" horiz-adv-x="729" d="M28 588q2 0 23 -2q20 -2 60 -2q95 0 114 3h4t6.5 -5t5.5 -6l-1 4l4 -8v-1q1 -3 1 -6q0 -14 -16 -15q-38 -1 -45 -8q0 -7 10 -28q45 -107 195 -406l84 168l48 101l51 115q10 24 9 40q0 2 -1 4q-2 4 -8 8q-13 8 -30 8q-16 0 -16 17v3q2 8 4 12q4 8 13 8h2h1q44 -6 105 -6 q44 0 49 1h4t6 -3t5 -4q2 -5 2 -8v-3q0 -18 -12 -18h-1q-44 -8 -70 -60q-193 -367 -214 -410q-14 -30 -34 -89l-2 -7h-27l-3 6q-28 64 -132 264l-118 224q-27 50 -38 61q-10 9 -38 9q-17 0 -17 19q0 20 17 20z" />
<glyph unicode="W" horiz-adv-x="960" d="M26 591q39 0 75.5 -2.5t39.5 -2.5q22 0 48 2t42 4q17 2 18 2q17 0 21 -15q1 -4 1 -6q-2 -9 -3.5 -10.5t-5.5 -3.5q-1 -1 -5 -1q-25 -2 -46 -12q-11 -4 -14 -10q-2 -2 -2 -5q0 -12 7 -33q17 -53 69 -195q43 -115 70 -177l124 279q-23 67 -56 122q-11 18 -20 24q-7 5 -24 5 t-17 17q0 19 15 19q2 0 17 -1t39.5 -1.5t51.5 -0.5q20 0 44 1l43 3q17 1 19 1q15 0 15 -17q0 -19 -15 -19q-26 -1 -46 -9q-15 -7 -15 -17q0 -6 5 -20q91 -267 143 -386q29 68 67 173q44 124 55 168q9 41 10 48q0 19 -21 31q-25 13 -57 13q-16 0 -16 18q0 9 4.5 14t12.5 5 q2 0 40 -2q37 -2 73 -2q30 0 55 1l34 1q12 1 13 1q17 0 17 -17q0 -1 -1 -2q0 -9 -5.5 -13t-10.5 -4q-19 0 -44 -15q-7 -4 -21 -27q-15 -25 -24 -46l-71 -183l-76 -193q-29 -77 -37 -106l-2 -8h-40v10l-1 1q-1 12 -21 73l-68 189l-41 109q-92 -192 -154 -375l-2 -7h-30l-3 7 q-150 408 -185 490q-21 50 -36 63q-15 12 -54 16q-13 1 -13 16q0 18 15 18z" />
<glyph unicode="X" horiz-adv-x="690" d="M37 594q1 0 16 -1q14 -1 38 -3q23 -1 51 -1h43q18 0 29 0.5t18 0.5q8 1 13 1h5q15 0 15 -15v-1v-2q0 -16 -14 -16h-0.5h-1.5h-8q-16 0 -23 -3q-5 -1 -5 -3q-1 -5 3 -10q16 -29 60 -90q40 -57 81 -107q39 46 60 76q28 38 58 86q8 12 8 28q0 9 -14 16q-19 8 -46 9 q-9 2 -11 3.5t-4 5.5q-1 2 -1 5q0 2 1 5q2 7 3 9q4 7 13 7h4q59 -8 107 -8h45h35q15 1 17 1q17 0 17 -17t-16 -17h-3q-5 1 -10 1q-9 0 -15 -3q-9 -3 -23 -16q-17 -13 -78 -79.5t-120 -136.5l201 -229l9 -12q7 -8 10 -12q3 -3 9 -10l8 -9q3 -3 7.5 -6l7.5 -5q3 -1 7 -2 q5 -1 20 -2q16 -2 16 -19v-2q0 -17 -17 -17q-2 0 -13 2q-11 1 -32 2.5t-48 1.5q-75 0 -119 -6h-3q-17 0 -18 16v2.5v2.5q0 15 15 16q31 2 42 10q4 3 4 6q0 11 -14 33l-42 57l-55 74l-43 55q-70 -82 -135 -173q-14 -21 -14 -30q0 -15 15 -23q19 -11 37 -11q20 0 20 -17v-3v-1 h-1q-2 -6 -3 -8q0 -1 -1 -2q-5 -5 -12 -5h-5q-26 7 -92 7q-75 0 -114 -6h-4q-8 0 -12 6q-3 5 -3 13q0 18 14 18h1q39 0 78 37q26 23 61 62l85 95l56 65q-141 170 -192 225q-40 46 -76 46q-4 0 -6 1q-6 1 -8 5q-2 3 -2 9v2v1q0 15 14 15z" />
<glyph unicode="Y" horiz-adv-x="659" d="M28 594q2 0 22 -1l47 -3q27 -1 51 -1h44q21 1 34 2q14 1 16 1q8 0 13 -5t5 -13q0 -18 -15 -18h-1h-5q-26 0 -36 -5q-5 -3 -5 -6q0 -12 7 -22q49 -69 158 -209q85 121 121 180q18 30 19 37q0 2 -1 3q-3 6 -12 12q-16 11 -44 12q-17 0 -17 16q0 4 1 8v1h1q3 5 3 6q5 7 13 7 h3q45 -10 109 -10q20 0 37 1t25 2q10 2 12 2q16 0 16 -15v-4q-3 -14 -16 -15q-49 -7 -84 -54q-99 -128 -160 -224q0 -197 2 -218q1 -10 2 -13l1 -1v0q3 -4 12 -7q5 -1 28 -6q25 -4 28 -5q13 -4 13 -16q0 -2 -1 -4q-1 -7 -3 -10q0 -1 -5.5 -4l-5.5 -3h-5q-32 8 -116 8 q-56 0 -104 -9h-5t-5.5 1.5t-5.5 1.5l-4 8v6q0 6 1 9q3 8 11 11h1h1q31 4 40 6q11 4 15 5q1 1 2 1q2 2 6 7q4 7 4 19q3 55 3 93q0 49 -2 107q-23 38 -88 122q-67 86 -110 131q-21 23 -35 30t-35 7q-18 0 -18 18q0 20 17 20zM394 39z" />
<glyph unicode="Z" horiz-adv-x="634" d="M54 584q1 15 15 15h1q12 0 15 -9q1 -3 3 -5l1 -1q14 -8 33 -9q73 -3 454 -3q3 0 7 2q7 1 9 1q16 0 16 -16q0 -5 -4 -10q0 -1 -1 -2l-1 -2l-4 -3l-117 -139l-64 -73h172l-23 -58h-197l-64 -73l-139 -152q70 -5 134 -5q43 0 78 2q95 5 148 24q49 19 72 57q6 9 14 9 q4 0 8 -2q4 -3 5 -3q7 -6 7 -13q0 -5 -2 -8q-12 -20 -31 -57q-6 -11 -14 -31t-12 -26q-4 -14 -15 -13q-9 1 -13 7l-4 6q-95 6 -503 6q-14 0 -15 12q-1 2 -1 3q2 7 5 10l0.5 0.5t0.5 1.5q107 108 229 245h-163l21 58h192q95 109 162 196q-54 4 -143 5h-48q-56 0 -83 -2 q-67 -6 -92 -16q-24 -11 -53 -53q-6 -9 -14 -9q-5 0 -10 5q-5 6 -6 9q-2 3 -2 7q0 3 1 6q34 77 35 106z" />
<glyph unicode="[" horiz-adv-x="248" d="M108 -134q-19 0 -19 20v637q0 17 16 17h1h125q1 0 4 -1t4.5 -2t3 -4t2.5 -7q1 -3 1 -8q0 -2 -1 -2q0 -10 -1 -14q-4 -10 -13 -10h-74v-577h74q1 0 3.5 -1t3.5 -1.5t2.5 -2t3 -4t1.5 -6.5q1 -5 1 -10q0 -6 -1 -9q-2 -15 -14 -15h-123z" />
<glyph unicode="\" horiz-adv-x="245" d="M256 11v-5l-1 -2q-4 -6 -7 -9q-4 -2 -6 -4q-16 -8 -25 -9h-1q-8 2 -10 3.5t-3 4.5t-1 5l-208 493l-4 2v6q1 6 2 8q4 8 15 15h1q10 4 18 4q3 0 7 -1q1 0 2.5 -0.5l1.5 -0.5q5 -1 8 -4l1 -1z" />
<glyph unicode="]" horiz-adv-x="253" d="M148 -134h-130q-14 3 -17 15q-1 5 -1 10q0 6 1 10q3 14 15 14h83v577h-73q-15 3 -18 14q-1 5 -1 10q0 6 1 10q4 14 17 14h125q18 0 18 -17v-637q0 -18 -20 -20z" />
<glyph unicode="^" horiz-adv-x="378" d="M81 409q9 20 16 32l20 34l19 32q10 16 14 21q5 8 17 15q10 6 22 6q4 0 8 -1q11 -2 19 -9q6 -5 10 -10t8 -15q4 -8 5 -11l24 -38l27 -50q11 -20 20 -40l7 -15l-16 1q-26 1 -48 20q-21 17 -45 47l-21 26q-17 -27 -44 -55q-37 -37 -69 -38l-16 -1z" />
<glyph unicode="_" horiz-adv-x="351" d="M366 -99h-376v56h376v-56z" />
<glyph unicode="`" horiz-adv-x="192" d="M171 367q-1 -8 -3 -13q-3 -4 -7 -7q-6 -3 -13 -3q-16 0 -23 15l-56 92q-3 5 -4 8v3q1 12 11 19q3 3 9 6h1q10 4 18 4q16 0 20 -13l44 -100q3 -6 3 -11z" />
<glyph unicode="a" horiz-adv-x="384" d="M105 45q4 -7 5 -8h1l1 -1q6 -4 18 -4q16 0 28 2q10 3 33 10q19 6 31 14q-2 24 -2 37q0 18 1 29h-9q-19 0 -29 -1q-30 -3 -38 -5q-22 -5 -33 -15q-7 -6 -11 -22q-2 -7 -2 -14q0 -4 1 -11q1 -5 4 -10zM266 315q14 -12 24 -27q11 -19 13 -46q1 -19 1 -41v-8v-6q0 -15 -3 -42 q-2 -31 -2 -46q0 -19 1 -37q0 -7 2 -12l1 -1q1 -5 6 -9t6 -4l1 -1h5l3 2l23 7h3q5 0 8 -3l7 -3v-6l1 -2v-11l-5 -5q-4 -3 -8 -4l-66 -22q-3 -2 -6 -2q-1 -1 -3 -1h-4q-3 0 -9 4q-11 6 -14 8q-11 10 -15 16t-7 13q-24 -12 -38 -17q-31 -12 -57 -18q-24 -5 -43 -5h-3h-3 q-11 0 -19 4q-11 5 -15 7l-1 1l-1 1q-7 7 -10.5 16t-4.5 14q-3 15 -3 32.5t5 35.5q2 5 6 13l1 1q2 3 5 6q2 1 4 3q1 0 1 1l1 1h1q29 15 67 25q37 9 86 15l16 2l2 41q1 12 1 21q0 8 -1 14q-3 17 -15 29q-6 6 -21 14q-20 11 -30 13h-8q-10 0 -18 -2q-10 -4 -17 -10 q-2 -3 -2 -7v-3q0 -9 1 -14l1 -7l-65 -27l-3 11l-2 8q-2 11 -2 17q0 9 6 20q6 9 25 20q23 13 43 21q22 8 59 15l24 3h1q11 0 27 -7q23 -9 36 -19z" />
<glyph unicode="b" horiz-adv-x="465" d="M348 221q-21 37 -56 54q-27 14 -61 14q-9 0 -17 -1q-35 -3 -68 -20l-2 -1h-2h-1v-2l-1 -1l-3 -181v-7q0 -1 1 -3q2 -3 8 -7q42 -28 91 -31q9 -1 14 -1q38 0 69 20q22 13 33 33q10 19 13 43q1 8 1 17q0 38 -19 74zM166 311q61 26 109 26h7q40 -2 71 -17q26 -14 50 -41 q21 -25 31 -53q8 -23 8 -48q0 -33 -15 -65q-19 -42 -61 -72q-66 -45 -147 -50h-14q-23 0 -46 5q-48 13 -52 13q-15 1 -26 -9l-1 -1v-5h-10l-6 6l4 -5h-4l-4 4l7 -3l-6 6l-5 5v4q0 2 3 9q1 5 2 8q8 28 8 68q0 11 0.5 34t0.5 34l2 116v55q0 111 -6 186v3q-1 4 -1 6t-1 5v1h-1 l-1 1h-3l-24 -1h-4q-1 0 -6.5 5t-5.5 6l0.5 -0.5t2.5 -1.5l-4 4v6l4 4q3 3 9 5q12 4 47 23q27 14 53 31l3 2l27 -2l-2 -11q-6 -25 -9 -52q-3 -29 -5 -95q-2 -41 -3 -69q-1 -53 -1 -92q16 8 25 12z" />
<glyph unicode="c" horiz-adv-x="381" d="M26 165q5 52 34 93q29 43 77 68q32 16 69 22q19 3 37 3t34 -3q15 -3 44 -15q15 -6 23 -10l1 -1l1 -1q2 -1 3 -2q2 0 7 -9l-3 6q4 -4 4 -12q0 -6 -4 -10l-12 -18q-3 -5 -5 -7q-3 -4 -5 -6q-5 -3 -9 -3q-4 -1 -9 -1h-2l-1 1l-9 3l-36 14q-46 15 -74 15h-3q-19 0 -38 -7 q-17 -7 -28 -18q-14 -16 -19 -34q-8 -22 -8 -46q0 -28 10 -53q18 -53 75 -77q35 -14 72 -14q27 0 54 10q11 4 20 9l4 4h10l6 -3l3 -3q4 -3 4 -8v-3q0 -1 -5 -5.5t-6 -5.5l7 3l-3 -3q-7 -5 -21 -12q-34 -20 -64 -26q-28 -5 -51 -5q-47 0 -94 17q-31 13 -51 32q-25 25 -35 63 q-5 20 -5 41q0 7 1 17z" />
<glyph unicode="d" horiz-adv-x="480" d="M208 290q-17 0 -27 -3q-22 -5 -39 -15q-32 -19 -45 -45q-9 -18 -9 -42q0 -1 1 -12q1 -25 11 -54q10 -26 30 -46q38 -37 87 -40h10q32 0 61 11q14 6 30 15q-1 11 -1 21q0 2 1 27q2 47 2 88v64v6q-1 2 -2 2v1v0q-1 0 -5 1l-37 10q-41 9 -49 10q-9 1 -19 1zM93 283 q32 25 74 39q38 16 78 16h5q13 -1 36 -4q6 -1 20 -4l18 -5h1q2 52 2 94v28q-2 32 -5 76v3.5v3.5v2v1h-1q-1 6 -2 9q0 1 -2 1h-5h-1l-3 -1l-13 -2q-9 -2 -13 -2q-6 0 -10 2q-6 3 -8 7q-1 1 -1.5 3.5t-0.5 4.5v4q2 5 7 10l1 1l2 1q1 0 2.5 1t4.5 2t4 1q19 7 46 19q34 15 57 30 q5 3 9 3h6l2 -2q6 -2 6 -3q4 -5 5 -7l2 -2v-9l-1 -3q-10 -75 -13 -137q-2 -42 -4 -98q-1 -50 -3 -109q0 -24 -0.5 -56.5t-0.5 -35.5q0 -5 -0.5 -19t-0.5 -22q0 -19 1 -37q1 -17 7 -52v-1v-1q1 -1 1 -4l38 11h9q6 0 10 -3q5 -5 5 -10v-4q0 -4 -2 -7v-2l-4 -2l-1 -1h-1l-2 -1 l2 1h-1q-6 -2 -7 -2h-1l-94 -32q-6 -2 -10 -2q-7 1 -10 3q-2 1 -3 2q-3 3 -4 5q-1 1 -1 2q-2 4 -3 7v2l-3 24q-1 12 -1 20l-13 -6q-50 -24 -89 -31q-20 -3 -38 -3q-32 0 -60 10q-46 17 -72 60q-22 37 -22 79q0 21 5 42q14 54 64 92z" />
<glyph unicode="e" horiz-adv-x="378" d="M266 238q-11 23 -35 38q-29 18 -58 18h-3q-22 0 -38 -13q-14 -10 -20 -27q-5 -15 -9 -31q-2 -9 -4 -22l150 28h2h2q4 2 7 2l6 2l1 1v2l-1 1v1zM49 247q29 48 84 72q33 13 69 13q7 0 13 -1q51 -4 88 -35q19 -17 33 -39q0 -1 1 -2l8 -8h1q7 -5 9 -7q1 -2 1 -3l1 -2v-4 q0 -1 -5 -6t-6 -5l7 2l-5 -4h-6l-60 -12l-184 -31q-1 -3 -1 -7q0 -28 9 -51q9 -22 25 -40q16 -16 42 -26q24 -10 54 -10h9q27 1 58 14q23 9 34 16l8 6l18 -23l-8 -5q-25 -18 -53 -32q-40 -20 -95 -23h-13q-52 0 -86 20q-40 24 -59 69q-14 32 -14 74v11q3 45 23 79zM267 243z " />
<glyph unicode="f" horiz-adv-x="322" d="M93 447q7 40 24 70q21 29 75 64q52 34 86 41q16 3 34 3q15 0 28 -2q21 -4 45 -14q7 -2 11 -7l1.5 -1.5t1.5 -2.5q3 -3 3 -6q2 -5 2 -9t-1 -6l-4 -9l-6 -9q-2 -3 -6 -8l-3 -3q-4 -3 -8 -4l-1 -1h-9q-4 0 -11 3q-19 6 -58 17q-15 5 -28 6q-7 1 -13 1q-8 0 -15 -2 q-15 -3 -30 -16q-12 -10 -20 -27q-13 -26 -22 -90q-6 -51 -6 -93v-9h125q6 0 11 -5q4 -3 5 -8q2 -3 2 -6v-9q0 -3 -2 -7l-1 -2l-4 -3q-4 -4 -11 -4h-4l-120 2q0 -65 -1 -99q-1 -16 -1 -33q0 -62 6 -102q1 -9 1 -10q0 -3 1 -5v-1v-2l2 -3h1h1h1q5 0 12 -1h10q7 0 16 -1 q8 -1 13 -1q6 0 14 -3h2l5 -4q4 -4 4 -11q0 -6 -3 -10l-3 -3l-1 -1q-4 -4 -12 -4h-6q-49 3 -99 3q-48 0 -86 -4h-4q-1 0 -6 5l-6 6l3 -7q-5 5 -5 10v6q0 6 4 10l5 5h6l13 2q10 2 17 4q6 4 10 10q2 2 3 14q1 9 1 17q0 12 1 37v37v136q-12 2 -28 2h-30v41h59l1 25q2 56 8 91z " />
<glyph unicode="g" horiz-adv-x="443" d="M144 -67q-25 -11 -37 -19q-16 -11 -26 -24t-11 -30v-3q0 -18 12 -34q9 -13 34 -24q36 -15 76 -15q9 0 20 1q58 5 105 30q14 7 26 20q8 8 10 24q1 3 1 8q0 10 -4 23q-5 15 -10 22t-16 11q-7 2 -22 3q-9 1 -25 1q-14 0 -26 -1q-16 -1 -28 -1q-24 0 -48 3q-19 2 -31 5z M190 315q-27 0 -48 -13q-20 -13 -31 -35t-11 -45q-1 -47 36 -85t88 -49q18 6 31 15q26 18 35 47q4 13 4 30q0 6 -1 15q-3 26 -14 54q-11 30 -30 46q-24 20 -52 20h-3.5h-3.5zM41 174q-1 5 -1 14q0 32 16 63q19 36 52 61q26 20 63 29q27 6 48 6q43 0 82 -21l1 -1q4 -3 11 -6 h1h1q2 1 4.5 1h2.5q17 3 40 5h10q9 0 31 -2q7 -1 10 -3h2l3 -3q4 -4 4 -12v-4q0 -10 -4 -19t-8 -14l-1 -2l-1 -1q-4 -4 -9 -4h-3q-1 0 -6 2q-12 3 -20 3h-1h-1q-9 2 -18 2q9 -22 14 -43q3 -15 3 -29q0 -8 -1 -17q-3 -24 -15 -45q-11 -20 -34 -36q-27 -19 -94 -44l-32 -12 q-15 -5 -24 -10l-26 -14q-1 -1 -3 -2l-1 -0.5l-1 -0.5v-1q-1 -1 -1 -1.5v-1v-1.5l2 -1l1 -1q5 -5 11 -7q22 -8 70 -8h18h28q50 0 69 -5q29 -10 47 -26q22 -20 29 -45q2 -11 2 -22q0 -20 -9 -43q-11 -26 -37 -50q-53 -45 -138 -64q-38 -8 -72 -8h-8q-42 2 -73 19 q-27 16 -40 38q-13 24 -13 49v4q2 28 15 51q10 18 35 40q8 8 25 19l-11 10q-11 11 -19 24q-6 12 -8 20v1q-1 3 -1 6l1 4v1v1l3 4.5t4 5.5q3 2 4 2l28 14l34 14l5 2l-9 4q-36 15 -59 45t-28 66z" />
<glyph unicode="h" horiz-adv-x="495" d="M184 307q44 18 76 26q25 5 46 5q20 0 35 -5q21 -6 36 -19q15 -14 23 -29q10 -20 13 -46v-1q0 -2 0.5 -5.5t1 -13.5t1.5 -25q1 -17 1 -82q0 -18 -2 -57v-3v-2l2 -4q0 -2 0.5 -2.5t1.5 -0.5h1v-1q5 -1 6 -1h1l34 -6h6l6 -6q5 -5 5 -10v-3q0 -6 -4 -10l-1 -2l-1 -1 q-5 -5 -11 -5h-3q-43 2 -66 2q-41 0 -83 -3h-3q-6 0 -10.5 4t-4.5 10v7l2 4l-1 -4q1 1 6.5 6t6.5 5h1l17 5q4 1 4.5 1t2.5 2l2 2v1l1 2q1 4 1 5l1 1q6 38 6 76q0 7 -1 33q-3 62 -4 78q-2 16 -9 32q-7 14 -21 23q-12 7 -24 9q-3 1 -27 1q-33 -2 -56 -8q-25 -6 -44 -14 q-3 -76 -3 -121v-22v-80q1 -5 2 -7v-1h1v-1q1 -3 4 -3l1 -1h1q6 -3 11 -4l29 -5q6 -1 8 -2l2 -1l2 -1l7 -6v-6q0 -6 -5 -10l-5 -5h-5q-2 -1 -3 -1h-3q-27 1 -80 1q-26 0 -78 -2h-3l-5 5l-6 6l3 -6l-4 4v10q0 2 4.5 6.5t5.5 4.5l1 -1l2 2l-1 -2l3 3l13 4q3 1 11 5q2 1 3 3 q4 7 4 9q1 1 1 9q4 68 7 217q2 86 2 216v24q0 13 -3 23h-1v1v1l-1 1q-3 3 -4 3v1h-5q-2 0 -7 -1l-16 -6h-9q-5 0 -9 4t-4 11v7l7 7l6 4l44 18q30 12 40 19h1v1q9 4 20 13l-4 -7q1 1 6.5 6l5.5 5q4 1 7 1q4 0 7 -1q1 0 3 -1h1q6 -4 7 -5q1 -2 2 -5l1 -2v-9l-1 -2l-1 -2 q-5 -14 -7 -43q-2 -20 -4 -49t-3 -47.5t-2 -30.5q-2 -40 -4 -139q7 3 29 12zM477 13q-3 -5 -11 -11l9 5z" />
<glyph unicode="i" horiz-adv-x="240" d="M167 537q11 -5 15 -8l12 -4l-11 -11q-8 -8 -19 -22q-17 -21 -20 -27l-7 -14l-34 41l-27 30l11 6q19 10 31 38l3 8l8 -2q3 -1 4 -2q6 -3 20 -17q11 -12 14 -16zM24 15q0 3 4 9l-2 -3l4 8h8l28 3h2q0 1 1 1v1q0 3 1 5q4 47 6 88q1 14 1 33q0 37 -4 82q0 7 -2 12q0 2 -1 4 t-2 3h-1q-3 2 -3 3q-2 1 -3 1q-6 0 -10 -2l-5 -2h-2l-3 -1h-4q-1 0 -6 5t-5 6v2v11l3 6l1 1q4 4 8 4l3 1q21 9 45 22q24 12 45 29v1l2 1q4 4 10 4h7l5 -5q4 -3 6 -8v-4t-1 -5v-2v-1v-1q-4 -24 -8 -65q-2 -25 -2 -73v-17.5v-16.5q0 -37 2 -85q0 -10 3 -18q2 -8 7 -13l5 -5h7 l26 1h8q6 0 10 -6l1.5 -1.5l0.5 -0.5q3 -4 3 -8v-4l-1 -1v-2l-2 -2v-1l-3 -3q-5 -5 -10 -5h-4q-53 0 -81 -1q-30 -1 -83 -5h-3h-6l-4 8l2 -3q-4 6 -4 9v6z" />
<glyph unicode="j" horiz-adv-x="246" d="M111 317q26 15 44 32q2 2 8 4l2 1h7l3 -3q4 -1 4 -2l1 -1l2 -3q4 -4 4 -9v-3v-2q-1 -1 -1 -2v-2v-2q-8 -18 -9 -48q-1 -54 -1 -77q0 -18 -1 -78q-2 -120 -2 -233q0 -15 -3 -25q-3 -6 -13 -20q-16 -24 -35 -41q-12 -12 -27 -25l-27 -22q-9 -11 -11 -23q-1 -6 -4 -9 q-5 -5 -10 -5h-3q-3 0 -7 2h-2l-5 5q-1 1 -3 8v-2l-2 4v3q2 12 7 27q5 16 20 38l12 17q3 4 7 9t5 7q15 21 22 45q5 17 6 50q5 93 5 140q0 64 -5 132q-1 17 -4 30q0 1 -0.5 4.5t-1 5.5t-0.5 3q-2 5 -6 8q-3 4 -8 4q-2 1 -3 1q-4 0 -9 -1l-11 -3h-2h-1v-1l-1 1h-3h-4l-5 5 q-5 5 -5 10q0 2 2 6q1 3 4 6l2 2l6 2q37 15 62 30zM178 537q10 -5 14 -8l13 -4l-12 -11q-8 -8 -19 -22q-17 -21 -20 -27l-7 -14l-33 41l-28 30l11 6q19 10 31 38l3 8l9 -2q3 -1 3 -2q6 -3 20 -17q11 -12 15 -16z" />
<glyph unicode="k" horiz-adv-x="496" d="M79 319q0 82 -2 190q0 13 -1 16q-1 8 -5 13q-1 1 -2.5 3t-3.5 2h-8q-2 0 -6 -1l-9 -3h-2l-2 -1h-4q-5 0 -10 5q-4 4 -4 9v2q0 5 5 10q2 2 5 4l1 1l21 9l29 14q29 14 55 32q5 3 9 4h4h2q6 0 10 -4q4 -5 5 -8q1 -2 1 -4v-6q-12 -97 -14 -211l-3 -188v-1v0l1 1q25 13 50 30 q21 15 45 37q4 3 9 10q4 4 4 8t-2 5h-1l-1 1q-1 1 -4 2h-3l-15 3l-3 3l7 -3q-8 5 -12 11l3 -7q-5 6 -5 9v3v5l2 2q0 2 0.5 2.5t6 3.5t6.5 3h2q51 -2 77 -2q61 0 89 1h3q3 0 7.5 -3t4.5 -9l-2.5 2t-4.5 5l-3 2q1 0 6 -5.5l5 -5.5v-3l-1 -2v-5l-10 -10h-6q-27 -3 -52 -12 q-16 -6 -50 -26l-86 -52l116 -87l101 -78q4 -3 5 -4h1l1 -1q8 -3 10 -4l11 -2l1 -0.5t2 -0.5h4l10 -10v-7q0 -6 -4 -10l-3 -3q-4 -4 -10 -4h-4q-28 3 -60 3h-9h-11q-38 0 -84 -2h-3q-12 0 -13 11l-2 1v7q0 3 9 9l1 1h1l3 3h2l23 3h1h1v1q-1 1 -3 2l-71 65l-90 80 q0 -7 0.5 -19.5t0.5 -17.5v-38l3 -61v-0.5v-1.5l1 -1l1 -2q0 -1 1 -1l2 -1l1 -1h2l13 -3l2 -1h1q1 0 5 -1q5 -1 7 -1h8l5 -5q6 -5 6 -11v-2q0 -6 -4.5 -10t-10.5 -4h-3q-24 1 -70 1q-29 0 -86 -4h-2q-5 0 -9 4l-5 5v7q0 10 7 13h2l1 1l24 6q3 1 10 5q2 1 3 2l1 1q1 3 3 10 q1 1 1 8q5 136 5 259z" />
<glyph unicode="l" horiz-adv-x="256" d="M101 595q41 21 52 29q4 3 10 3h3q1 0 5 -1.5t4 -2.5q4 -6 5 -9v-3q0 -1 -1 -5v-1v-1q-10 -42 -11 -102v-21t-1 -32v-20.5v-19.5v-13q-1 -94 -1 -135q0 -25 1 -94q0 -9 0.5 -41t0.5 -55q0 -10 1 -14t6 -12q0 -1 1 -2q2 -1 7 -3q9 -4 14 -4l27 -5h8l4 -8l-2 3q4 -6 4 -9 v-10l-9 -9h-7q-55 2 -82 2q-54 0 -98 -4h-3q-6 0 -10 4l-1 1l-1 3q-3 3 -3 8q0 7 3 10l3 7h7l10 3q16 6 24.5 12.5t14.5 20.5q5 13 5 26v30q2 138 2 206v142q0 26 -4 47l-2 10q-1 2 -6 6q-3 3 -6 3q-2 1 -9 1h-13l-6 6l4 -5h-2l-1 1q-7 4 -9 6q-1 2 -1 4q-2 3 -2 5v4 q0 5 5 10q3 3 7 4z" />
<glyph unicode="m" horiz-adv-x="747" d="M203 299q37 16 54 21q37 10 63 10h8q31 -3 53 -22q15 -12 24 -27q42 21 84 32q36 9 69 9q22 0 42 -6q22 -6 37 -22t20 -45q5 -27 5 -56q0 -43 -1 -60q-1 -18 -1 -31q0 -15 1 -29l3 -33v-1v-1l4 -2v0l44 -3h4q6 0 10 -6q3 -3 3 -8l1 -2q0 -4 -2 -7l1 4q-2 -7 -4 -9l-5 -5 h-86q-61 0 -90 -1h-2q-6 0 -11 5q-1 1 -4 8l1 -2l-2 4v2q0 7 6 11l4 4h6l12 2q7 1 12 3q1 1 2 1q2 1 3 3l1 1v1q2 2 4 8v1l1 1v1v2q0 5 1 8v1q6 42 6 69q0 3 0.5 11.5t0.5 13.5q0 48 -6 74q-5 16 -12 27q-10 15 -20 22q-12 7 -30 9h-1q-5 1 -11 1t-19 -2q-36 -6 -71 -19 q3 -16 3 -42l-3 -86q1 -32 1 -95q0 -2 2 -9v-1h1l2 -1q4 -3 5 -3q3 0 8 -1q2 -1 3 -1l19 -2h7l4 -4l-6 3q2 -1 7 -5.5t5 -5.5l-1 -1v-3l-6 -6l5 4l-5 -5l-6 -6l7 3q-4 -4 -13 -4h-74q-28 0 -88 -2h-3q-5 0 -10 4l-6 6v6q3 9 4 10l2 2l2 1l6 3h3l11 2q10 2 15 4q8 4 11 8 q4 5 6 12q1 8 2 15q2 52 2 71q0 2 1.5 23.5t0.5 36.5q-2 37 -7 52q-4 10 -10 21q-6 8 -18 14q-14 8 -38 8h-8q-22 -2 -48 -11q-15 -5 -48 -21l-1 -202q0 -1 1 -4v-7q0 -4 2 -8q1 -1 4 -2v-1h1q3 -3 7 -3l31 -7q3 0 7 -1l3 -1l3 -3l-7 3q2 -1 7 -6l5 -5v-10l-5 -5 q-4 -4 -11 -4h-3l-164 2h-3q-5 0 -9 4l-1 1l-3 5v13l10 5q2 0 3 1q16 6 26 14q7 5 14 17q4 5 5 20q3 36 3 61v14l-3 72q-2 21 -10 29q-6 7 -14 10q-7 3 -14 3h-4h-3h-3q-6 0 -9.5 3t-3.5 9v7l6 6h2l6 3h0.5h1.5q20 5 45 15q26 9 41 21q6 4 11 4h3q1 0 7 -1q8 -1 11 -4l2 -2 q5 -5 5 -10v-4v-34q5 3 39 17z" />
<glyph unicode="n" horiz-adv-x="486" d="M187 291q45 20 66 26q28 7 55 7q23 0 44 -6q31 -10 45 -35q8 -10 12 -26q1 -6 1 -8q1 -4 1 -9q1 -1 1 -9q2 -33 3 -96q1 -28 1 -42q0 -22 -1 -43v-6q0 -1 1 -2v0l6 -3l32 -12l3 -1q7 -2 9 -6q2 -3 2 -8v-3q0 -5 -3 -9q-4 -6 -11 -6h-8h-1q-30 6 -61 6q-47 0 -87 -8h-1 q-4 -1 -6 -1q-8 0 -13 4l8 -3q-1 1 -6 5.5t-6 5.5l2 -5q-4 4 -4 10q0 5 5 10l1 2l2 1q3 3 8 4l26 8q6 3 9 5l1 1h1q4 3 6 7q4 6 4 10l1 1v4l1 9q5 30 5 63v5.5v5.5q-1 42 -4 75q-2 21 -4 27q-6 13 -16 22q-9 9 -24 15q-8 3 -28 4h-5q-37 0 -72 -12q-13 -5 -31 -14l-3 -181 v-19q0 -10 1 -15q2 -6 9 -10q5 -4 13 -5l29 -5h2l6 -3l9 -8v-12l-2 -2q-3 -8 -12 -8h-7h-2q-9 2 -32 4q-19 2 -49 2q-13 0 -43 -1l-37 -1h-3q-6 0 -10 6q-3 4 -3 9v5l1 2q2 4 4 6q4 4 9 4l7 2q11 4 15 6q7 3 11 8q3 3 7 12q1 5 1 10v3v1v1q3 38 3 76q0 34 -1 48q-2 27 -4 43 q-3 12 -6 16q-2 2 -4 3l-1 1h-1q-4 3 -5 3h-1h-1l-20 7h-6l-4 7l5 -3q-6 5 -6 7v1v6l4 3q2 3 9 4h-3q31 10 47 16l43 18q5 4 10 4q9 0 13 -4q5 -4 5 -10v0q1 -3 1 -6v-36q15 7 32 15zM273 1q3 5 12 11l-9 -5z" />
<glyph unicode="o" horiz-adv-x="451" d="M141 331q45 18 93 18q11 0 18 -1q61 -5 103 -34q51 -36 67 -96q6 -24 6 -45q0 -34 -16 -69q-21 -49 -64 -77q-49 -30 -114 -30q-18 0 -36 2q-76 10 -123 57q-49 48 -51 113q0 55 32 98q30 42 85 64zM212 308q-28 0 -50 -11q-24 -11 -40 -31q-24 -33 -24 -80q0 -44 19 -85 q19 -39 53 -62q36 -25 73 -25h6q24 1 48 16q18 12 30 29q24 38 26 81v4q0 50 -27 94q-21 32 -48 49q-33 21 -66 21z" />
<glyph unicode="p" horiz-adv-x="486" d="M388 155q-9 69 -68 109q-16 11 -35 17q-17 5 -32 5h-5h-3q-25 -1 -69 -18l-9 -3l-1 -203q32 -11 56 -17q30 -7 59 -7h5q43 2 72 26q18 16 26 42q5 14 5 31q0 8 -1 18zM217 320q43 16 81 16q13 0 22 -1q30 -5 52 -17q19 -12 38 -32q24 -26 35 -49q13 -26 16 -58v-3 q0 -53 -37 -101q-22 -28 -56 -48q-31 -18 -83 -28q-28 -5 -47 -5h-7q-24 1 -54 8q-6 2 -10 3l-3 -222q0 -7 1 -11q2 -9 3 -10v-1l1 -1q0 -1 1.5 -2t3.5 -2q7 -3 9 -3h1l38 -2h4q7 0 11 -4l6 -6v-8q0 -6 -4 -10l-1 -1l-1 -0.5l-1 -0.5q-5 -4 -11 -4h-5q-22 2 -47 2 q-9 0 -36 -1q-41 -1 -84 -7h-4q-5 0 -9 4t-4 9v9l3 3l-2 -5l6 6t6 5l1 1l9 2q8 2 10 3q5 2 7 6q4 4 4 6v1q1 2 3 13q5 20 6 51q4 103 4 206v18.5v15.5q0 49 -4 173q0 13 -2 17q-2 7 -8 13q-4 4 -11 4q-5 0 -16 -4l-11 -4h-1l-2 -1h-4q-7 1 -9 2t-3 3q-4 3 -4 9v6l3 3v2l4 2 l1 1h1h1q25 15 34 19q35 16 44 23l29 21h4l5 2q6 0 11 -5l5 -4v-4v-1l3 -31q0 -5 1 -13q34 15 53 22z" />
<glyph unicode="q" horiz-adv-x="439" d="M291 291q-29 14 -64 16h-7q-37 0 -65.5 -18t-40.5 -44t-15 -60v-12q0 -26 7 -49q9 -31 29 -54q38 -42 98 -45h9q42 0 78 23v21q0 27 -2 116v30q0 7 -1 18t-1 13l-1 20q-1 6 -2 9q-2 3 -5 5q-9 8 -17 11zM98 289q34 27 84 42q35 12 74 12q19 0 39 -3q29 -5 56 -17l1 -1 l1 -1l3 -1h2l1 1q11 9 12 10q5 5 12 15l4 8l28 -13l-4 -9q-3 -6 -8 -20q-3 -9 -7 -32q-3 -16 -3 -29v-4.5v-4.5v-23v-35.5v-38.5q1 -65 1 -98v-276q0 -8 1 -10q1 -4 5 -7q2 -1 10 -2t16 -1h15q6 0 10 -4l3 -3q4 -4 4 -10t-5 -11l-1 -1q-4 -4 -9 -4l-4 -1h-3q-44 0 -70 -1 q-43 -2 -95 -4h-4q-2 0 -7 1q-4 2 -7 5q-4 4 -4 9.5t4 9.5l3 3l2 1q6 2 8 3h2l21 4q6 1 16 5q4 2 7.5 9t3.5 14v18l3 226q-26 -11 -53 -19q-36 -9 -69 -9q-20 0 -40 4q-41 8 -68 30q-28 21 -45 52q-19 34 -19 73q0 18 4 36q14 60 69 102z" />
<glyph unicode="r" horiz-adv-x="345" d="M256 272q-5 5 -13 6h-2q-6 0 -16 -2q-23 -6 -53 -22q-5 -3 -7 -6h-1v0l-3 -4v-5q-1 -29 -1 -90q0 -52 4 -104v-4v-1l1 -1l1 -1h-1l4 -2l2 -1h1h1q16 -2 31 -2h25h21h3q6 0 10 -4h6v-12q0 -7 -4 -11l-1 -1l3 6q-5 -7 -11 -11l7 3q-5 -5 -11 -5h-4l-201 -3h-2q-3 0 -7 2 q-8 3 -8 11v9l5 4q2 2 9 4l-4 -1q3 2 5 2l18 4l4 2q1 1 1 2l3 5v1v1q7 47 8 96v25q0 46 -5 91v1q0 3 -1 6q-1 2 -3 3l-1 1l-1 1h-1l-1 1h-1q-2 1 -6 1q-12 0 -17 -1h-1h-5l-6 5l4 -4q-1 0 -6.5 5l-5.5 5v4q0 3 3 7t9 4l-2 -2t-5 -4l-2 -3q0 1 5 5.5t6 4.5l-5 -1q31 16 51 28 l48 29q5 3 12 3q1 0 7.5 -5t7.5 -6l-4 7q6 -5 6 -10l1 -3l-1 -50l104 54l4 3q3 3 9 3h4q7 0 11 -4l14 -11q10 -9 11 -9l2 -1l2 -1q7 -9 8 -15l1 -2q1 -3 1 -6q0 -8 -5 -17q-4 -7 -14.5 -15t-26.5 -12h-2q-3 -1 -5 -1h-7l-6 4h-1q-4 4 -4 10q0 3 -1 5zM164 32zM164 253z" />
<glyph unicode="s" horiz-adv-x="299" d="M112 319q22 9 46 11q10 1 19 1q14 0 27 -1q8 -1 37 -5l7 -1l11 -64v-4q0 -9 -4 -16t-10 -7h-2q-2 0 -10 8q-2 2 -4 13l1 -5q-6 10 -22 22q-22 16 -44 21q-8 1 -15 1q-6 0 -11 -1q-14 -4 -22 -10q-11 -8 -11 -22q0 -15 12 -33q8 -6 28 -12q6 -3 22 -9q11 -4 24 -10 q24 -10 43 -26q18 -15 30 -32q11 -16 15 -40q1 -11 1 -17q0 -19 -11 -36q-2 -1 -3 -2t-3 -1v-2v-1l-1 -1q-3 -3 -9 -7q-27 -22 -56 -31q-32 -10 -65 -10q-19 0 -37 3q-28 5 -49 14l-6 2v-2q-1 18 -5 35q-4 19 -9 37l-1 2v2l-1 2v1q0 10 4 17q5 8 10 8h3q5 0 10 -8q4 -5 6 -8 l1 -2q10 -16 13 -19h1v-2q14 -18 31 -29q18 -10 39 -12q6 -1 13 -1q17 0 30 5q8 2 16 9q8 5 10 11q2 4 2 9q0 9 -2 17q-7 17 -16 29q-15 14 -49 28l-28 12q-23 10 -32 15q-16 10 -28 24q-11 12 -17 28q-2 11 -2 23q0 9 4 19q5 16 21 30q18 18 48 30z" />
<glyph unicode="t" horiz-adv-x="329" d="M143 202q0 -72 2 -100q2 -22 9 -33q9 -14 29 -20q11 -3 23 -3q8 0 18 2q11 2 43 10l13 5h2h1l3 2h3q3 1 6 1h5l4 -3l-7 2q2 0 6.5 -4.5t4.5 -5.5v-0.5t-2.5 1.5t-4.5 4l-2 3l5 -5t5 -6q0 -3 -2 -7q-2 -3 -4 -5t-7 -4h-1l-1 -1l-1 -1q-47 -23 -88 -33q-26 -6 -48 -6h-6 q-30 2 -49.5 15t-27.5 36q-6 16 -6 44l4 193h-34q-10 0 -13 8q-2 5 -2 6v6l3 3l3 5l3 1q19 9 34 19q31 22 58 59h1l5 5q5 4 11 4h2q6 0 10 -4q2 -2 5 -8l1 -2v-5l-10 -53l133 3h7l10 -10v-22q0 -5 -5 -10q-4 -4 -9 -4l-3 -1h-135q-4 -53 -4 -81z" />
<glyph unicode="u" horiz-adv-x="489" d="M153 228q-3 -22 -3 -75q0 -51 6 -72q3 -13 7 -20q6 -11 14 -16q15 -12 40 -12h1.5h2.5q22 0 51 9q23 8 55 25q2 54 4 123v14v20q1 23 1 34q0 9 -2 13l-1 2q-1 2 -3 3l-1 1h-1q-3 3 -10 4h-30l-3 1h-3l-7 7v8l2 8l2 2l2 4q5 4 10 4l1 1q20 3 55 10q22 4 53 12l2 2h7l6 -3 l1 -1q4 -4 4 -9v-7q-1 -25 -5 -86q-3 -49 -5 -93q-1 -20 -1 -25q0 -14 2 -32q3 -28 5 -42l39 7l1 1h3q5 0 9 -4l5 -5v-1l2 -2v-5l-6 -5l5 4q0 -1 -5 -6l-6 -6l7 3l-4 -4h-4l-95 -28q-4 -1 -6 -1h-8l-7 4l-1 1q-4 4 -4 10v1l-6 27q-1 7 -3 15q-25 -13 -44 -21 q-56 -25 -92 -29q-14 -2 -20 -2q-9 0 -20 2q-24 3 -39 13q-19 12 -30 37q-9 18 -10 44q-1 18 -1 32q0 21 1 47q1 25 1 77q0 8 -1 12q-1 6 -4 9t-5 4h-1h-1q-4 1 -6 1q-3 0 -5 -1h-1l-10 -1h-3l-6 5l-6 6l3 -5l-5 4v6q0 1 6 6l-5 -4q0 5 4 8l3 3l2 1q32 10 56 19q15 6 45 22 l3 1h5q4 0 8 -2h2l4 -4l-8 3q8 -4 12 -11l-3 7l4 -4v-5v-1l-3 -32q0 -5 -5 -67z" />
<glyph unicode="v" horiz-adv-x="410" d="M108 167q-19 44 -52 112q-2 5 -4 7q-3 2 -8 5l-15 5l-2 1l-4 2l-1 1q-3 3 -3 4q-3 3 -3 7v1q0 4 5 9q4 4 9 4h3q23 -1 67 -1q27 0 81 4h4l7 -6l-5 5q8 0 12 -7l3 -2v-5q0 -5 -6 -10l-1 -1l-4 -2q-4 -2 -8 -2l-25 -4q-2 -1 -6 -2l-4 -2v-1l-1 -1v-1v-6l1 -1q9 -40 25 -84 q16 -43 35 -86l13 -31l12 23q44 81 51 99q12 31 18 59q2 8 2 15q0 6 -3 11q-2 5 -7 7h-1h-1q-4 2 -14 4l-10 2h-4l-6 3l-2 1q-5 5 -5 11v7l7 6q4 4 11 4h4q33 -3 63 -3q20 0 42 3h9l4 -4q3 -3 3 -8v-1v-5l-5 -7l-5 -3q-16 -9 -25 -20q-6 -8 -15 -28l-24 -55l-51 -99 q-19 -34 -40 -80l-13 -26v-3l-3 -3v1q-8 -8 -11 -10l8 3l-5 -4h-16l-3 3q-7 3 -7 10l1 -0.5t2 -1.5l-4 4v-1l-12 33q-27 71 -58 141zM215 -6l-6 -6l5 4z" />
<glyph unicode="w" horiz-adv-x="631" d="M45 323q22 1 60 1q33 0 78 5h1h1h1q3 1 5 1q7 0 11 -4v-1l5 -6v-6q0 -1 -3 -6t-4 -5q-3 -2 -7 -2q-1 0 -2 -1l-9 -1h-1h-1q-2 0 -4 -1l-5 -1q-11 -4 -12 -5t-1 -3q-1 -1 -1 -2q0 -7 1 -9q8 -23 29 -80q-5 -36 24 -107l94 161l-9 18q-9 13 -13 16v1h-1q-2 3 -6 5l-11 2 l-5 1q-5 0 -7 1q-2 0 -2 1q-8 5 -9 10q-1 2 -1 4v10h4l2 2q5 4 10 4h4h30h29q48 2 89 7h1h6q5 0 9.5 -4t4.5 -9v-3q0 -6 -5 -10l-1 -0.5l-1 -0.5q-7 -4 -8 -4l-13 -3q-7 -1 -12 -3q-8 -3 -10 -5q-1 -1 -1.5 -2l-0.5 -1q-1 -1 -2 -3v-5v-1l1 -2q15 -51 29 -89l30 -95l34 62 l30 59q2 4 5 12.5t7.5 19.5t6.5 16q3 9 4 14q1 7 1 10v2v2q-1 3 -4 4l-1 1l-1 1q-2 1 -2 2h-1h-1q-5 0 -8 1l-12 1l-3 3q-4 1 -4 2q-5 5 -5 10v7l1 2q1 3 4 6q4 4 11 4h3h1q35 -4 51 -4q31 0 46 2h5q3 0 7.5 -3t4.5 -9l-2.5 2t-4.5 5l-2 2l5 -5t5 -5.5t-6 -5.5l5 4 q0 -5 -4 -9l-4 -4l-7 -3q-11 -7 -15 -13q-7 -8 -11 -18l-95 -174l-33 -60q-13 -22 -19 -37v-4l-2 -2q-4 -8 -12 -8h-17l-8 7v1l-1 1v7q-23 80 -49 156l-16 63l-81 -137l-45 -88q-1 -4 -4 -7q-2 -2 -10 -4l5 1q-5 -2 -9 -2h-4q-6 0 -10 4l-5 5v4v3q-1 19 -10 44l-41 114 l-30 79q-11 28 -19 39q-5 6 -10 10q-2 1 -6.5 2.5t-5.5 1.5h-1l-7 1h-2q-10 0 -12 10l-1 1v10l3 3l-2 -5q4 9 7 10q1 1 5 2l3 1h2q1 0 4.5 0.5t7.5 0.5zM378 299z" />
<glyph unicode="x" horiz-adv-x="435" d="M247 310v5q0 5 6 10q4 4 10 4h4h1q21 -2 60 -2q29 0 57 3h4q7 0 11 -4q5 -5 5 -9v-3q0 -5 -5 -10l2 6q0 -2 -2 -3h1l-4 -7h-6v-1h-2q-2 -1 -3 -1q-8 -2 -20 -11q-9 -7 -18 -16l-40 -43l-51 -49l44 -65l40 -65q3 -5 9 -9q5 -4 12 -5l26 -5h1q6 0 10 -3q5 -5 5 -11t-4 -10 q-1 -5 -7 -8l-4 -2h-6q-18 2 -56 4q-10 1 -23 1q-32 0 -64 -4h-1h-7l-5 4l7 -3q-2 1 -7 6l-5 5q1 -1 3 -2l-4 4v5l5.5 5.5t6.5 5.5l1 1l23 4v0q-14 33 -35 68q-7 11 -20 32l-29 -29q-19 -22 -39 -48l-1.5 -2t-2.5 -4l-3 -3q-1 -2 -1 -9l3 -3h2q2 -1 6 -2l22 -4l1 -1 q6 -2 7 -3q4 -6 5 -9v-3v-4l-2 -2q-3 -5 -3 -6q-5 -4 -11 -4h-4h-1q-21 2 -58 2q-24 0 -49 -3h-4q-5 0 -10 5q-4 4 -4 10v11l4 4l-3 -7q1 1 3.5 4t4.5 5l2 2h2l2 1h-1q3 1 8 3t7 2v1h1q2 1 3 2.5t4 3.5l2 1l114 117q-22 34 -37 55q-26 33 -30 40q-16 20 -24 26h-1v1 q-6 5 -12 7q-9 2 -19 3l-9 1h-3q-3 0 -7.5 3t-4.5 9v7q0 1 5 6.5t6 5.5h-1l2 1h79q23 0 75 2h2h5l6 -5q4 -4 4 -9l1 -3v-10h-9q-5 -5 -6 -5h-1l-13 -1q1 -2 1 -5l19 -37l27 -47l48 51q11 14 15 24q1 2 1 6v1l-1 1l-1 1l-1 1h-1q-3 1 -5 3l-25 3h-4l-4 3q-4 1 -4 2q-5 4 -5 9 z" />
<glyph unicode="y" horiz-adv-x="440" d="M106 326q37 0 73 3h2q1 0 7 -6l-4 5q1 0 6.5 -5t6.5 -6l-3 7l4 -4v-9l-2 -4l1 4q0 -1 -6 -5.5t-7 -5.5h1h-1l-16 -3h-1h-1l-1 -1l-6 -2q-1 -2 -2 -2q-1 -2 -1 -3v-5q0 -10 4 -25l25 -85l39 -119q34 50 60 103q13 27 36 83l5 17q3 8 3 14t-4 11q-3 3 -13 7t-17 7 q-5 1 -19 3h-6l-8 8v4q0 1 -1 2v2q0 5 5 10l8 7h7l6 -6l-4 5h1h1q26 -5 58 -7q10 -1 24 -1q23 0 41 3h7q3 0 7.5 -3t4.5 -8v-1l1 -2q0 -5 -4 -9l-2 -2q-1 -2 -8 -4l4 1q-4 -1 -6 -2q-2 0 -5 -1q-1 -1 -3 -1q-1 -1 -7 -6q-11 -12 -20 -31l-131 -235q-40 -69 -73 -145 q-33 -77 -52 -145v-3q0 -7 -5 -11v-1l-7 -4h-6h-1q-8 1 -26 1q-27 0 -40 -1h-4h-4l-4 4l3 -1q-8 7 -9 9l1 -4l-2 4v4q0 5 5 10q2 2 9 4l-4 -1l1.5 0.5t2.5 1.5q24 10 42 34q12 16 28 51l74 152q-34 110 -71 205l-23 56q-11 26 -18 38q-5 8 -8 10q0 1 -1 1l-1 1h-1q-1 0 -4 1 t-4 2l-9 2q-6 1 -7 2h-8v9l-3 6l4 4q3 8 11 8h2h3q23 -1 70 -1zM186 311l-1 -1l2 1h-1zM189 311q-2 -1 -2 0h2z" />
<glyph unicode="z" horiz-adv-x="437" d="M149 43q17 -1 47 -1q28 -1 45 -1q14 0 22 1q40 2 52 5q20 4 39 20t25 39q1 7 5 10l1 2q5 5 11 5q7 0 11 -4l-7 3q7 -4 11 -11l-3 7l1 -1q4 -4 4 -11q0 -5 -1 -8v-2l-8 -36q-4 -16 -14 -46q-1 -4 -5 -8l-0.5 -1l-0.5 -1l-1 -1q-5 -5 -10 -5h-4q-36 2 -97 4q-28 1 -61 1 q-84 0 -165 -6h-3q-3 0 -7 2l4 -1q-7 2 -9 4q-4 4 -4 9t2 9q1 2 6 6q16 15 125 130h-117l23 47h135l79 89h-40h-21q-68 -2 -113 -7l-16 -3q-6 -2 -13 -7q-14 -10 -20 -22l-4 -7l-1 -1q-2 -4 -6 -7t-8 -3q-10 0 -13 6l-1 1q-3 4 -3 8q0 1 1 5q0 7 4 11q7 11 9 22v1l1 1 q5 14 7 30q1 6 4 9l3 3q4 4 10 4q1 0 3.5 -0.5l2.5 -0.5q7 -2 40 -4q38 -3 88 -3q21 0 54 1q60 1 138 5h2h2l5 -5l6 -6l-3 7l4 -4v-5q0 -6 -3 -9v-1l-60 -69l-39 -39h98l-26 -47h-116l-15 -14q-48 -48 -92 -99z" />
<glyph unicode="{" horiz-adv-x="268" d="M144 -113q-26 10 -41 37q-14 26 -14 68v155q0 50 -63 51q-10 0 -13 13q-1 4 -1 5q1 1 1 3q3 8 9 9q2 1 4 1q63 0 63 51v116q0 57 16 86.5t50 38.5q28 7 93 7q15 0 15 -17q0 -1 -1 -2q-1 -18 -14 -18q-52 0 -72 -16q-19 -15 -19 -56v-86q0 -60 -4 -77q-4 -12 -18 -29 q-6 -7 -15 -12q8 -5 14 -12q15 -18 19 -35q4 -18 4 -53v-15v-95q0 -56 19 -73t72 -17q15 0 15 -18.5t-15 -18.5q-80 0 -104 9z" />
<glyph unicode="|" horiz-adv-x="182" d="M134 -126h-65v632h65v-632z" />
<glyph unicode="}" horiz-adv-x="282" d="M200 185q-14 -11 -14 -35v-3v-155q0 -48 -19 -76q-20 -29 -55 -33q-41 -5 -85 -5q-16 0 -16 17q0 1 1 2q1 18 15 18q54 0 73 17t19 73v95q0 49 5 69q5 23 18 35q7 6 16 11q-11 6 -18 13q-12 13 -18 30q-3 12 -3 53v22v86q0 40 -21 56t-71 16q-16 0 -16 17q0 1 1 2 q1 18 15 18q59 0 91 -6q36 -6 54 -39q14 -27 14 -87v-116q0 -50 63 -51l5 -2.5l4 -2t2 -2t1.5 -4.5t0.5 -4q-1 -11 -6 -14q-3 -2 -7 -2q-33 0 -49 -13z" />
<glyph unicode="~" horiz-adv-x="231" d="M205 136q-33 -24 -52 -25q-15 -1 -52 12q-36 13 -43 13q-17 0 -34 -21l-3 -4h-6q-8 0 -14 8l-2 3v11l2 3q38 56 81 56q16 0 52 -14q24 -9 37 -9q15 0 38 21l2 2l3 3h4l9 -4q3 -2 6 -6l2 -2v-6q-1 -6 -2 -10q-7 -15 -28 -31z" />
<glyph horiz-adv-x="0" />
<glyph d="M212 627q37 -3 53 -12q26 -16 27 -49v-1v-1q0 -32 -26 -48q-7 -4 -17 -7q-9 -3 -20 -4q-10 -1 -18 -1h-25v-39q0 -9 2 -13q1 -3 3 -4q2 0 3 1h7l11 1v-32h-108v30h10q7 0 11 2q3 1 5 5q1 3 2 8v6.5v8.5q-1 10 -1 13v71q0 2 1 11v6v6l-2 6v0q-1 2 -1 3q-1 2 -3 2 q-3 2 -12 2h-10v30h10q83 0 98 -1zM186 544q19 -2 23 -2q7 0 15 5q10 5 12 16q1 3 1 5q0 8 -7 14q-9 8 -30 8q-9 0 -14 -1v-10v-35zM300 234q2 1 5 4q2 2 4 5l4 7l3 9q3 7 4 9l40 96l14 31q3 8 5 10q2 4 5 5q5 3 7 4h4q3 0 6 -1q1 0 2 -1q3 0 3 -1q8 -4 9 -7q1 -2 2 -3l3 -6 q1 -2 3 -7t3 -7l40 -95l12 -30q3 -7 3 -10q1 -1 1 -2q6 -10 22 -11h10v-30h-108v30h10h10h-1q-1 4 -1 7q-1 2 -3.5 7.5t-3.5 7.5v3l-1 1q-2 6 -3 7l-1 1h-38h-10l-3 -7l-1 -2l-1 -1l-1 -4q-3 -4 -3 -7q-1 -4 -3 -9v-2v-1v0q1 0 11 -1l9 -1v-29h-95v30h10q9 0 11 1h1h1z M580 197q48 0 69 -12q29 -17 39 -53q5 -19 5 -39q0 -13 -2 -30q-7 -43 -37 -62q-22 -13 -67 -13h-7h-87v29h10q7 0 10 1q5 2 5 5q1 2 2 8v5v7q-1 8 -1 11v72q0 3 0.5 12.5t0.5 15.5q0 4 -1 6v1v0q-2 4 -3 5q-4 1 -13 1h-10v30h87zM298 234zM298 234zM388 327l-10 -23h19z M575 25h7h7q4 1 8 1l6 2q4 1 6 1q2 2 6 4t6 4q17 15 17 53q0 47 -23 63q-3 2 -9 4q-4 1 -9 2q-7 1 -9 1h-13v-135z" />
<glyph d="M88 628h107v-30h-10q-8 0 -11 -1l-2 -2q-3 -5 -3 -16v-37h57v40q0 9 -2 12q-1 3 -3 4h-12h-10v30h109v-30h-10q-8 0 -12 -2t-4 -4q-1 -2 -1 -6v-13q1 -8 1 -11v-72q0 -4 -1 -14q-1 -5 -1 -10v-4q1 -5 2 -8q2 -3 2 -4q4 -1 14 -1h10v-31h-109v30h10q9 0 12 1l1 1l1 2 q2 5 3 14v38h-57v-39q0 -9 2 -13q1 -2 3 -4l3 1h7l11 1v-32h-107v30h10q7 0 11 2q3 1 4.5 4.5t1.5 8.5v15q-1 10 -1 13v71q0 2 1 11v6v6q-1 5 -2 7q-1 3 -3 4q-4 2 -12 2h-10v30zM395 414q12 0 24 -3q37 -9 57 -41q19 -30 19 -62v-4q-1 -34 -22 -64q-22 -31 -61 -37 q-9 -1 -18 -1q-18 0 -34 6q-35 12 -52 46q-13 25 -13 53q0 8 1 17q6 38 30 63q21 21 58 26q6 1 11 1zM390 376q-18 -3 -30 -26q-11 -20 -11 -41q0 -19 9 -39q7 -16 19 -25q7 -6 17 -6q3 0 6 1q18 3 30 26q11 21 11 42q0 20 -9 40q-14 29 -36 29q-4 0 -6 -1zM606 197 q38 -2 56 -14q26 -15 26 -48l-1 -1q0 -34 -26 -49q-10 -5 -24 -8q-13 -3 -20 -3q-4 -1 -11 -1q-6 0 -15 1h-9v-40q0 -9 2 -12q1 -3 3 -4h12h10v-30h-109v29h10q7 0 10 1q4 2 5 5l1 1l1 2v1v3v13q-1 8 -1 11v73q0 3 0.5 12t0.5 15q0 4 -1 6v1v0q-2 4 -3 5q-4 1 -13 1h-10v30 h106zM582 113q20 -2 24 -2q6 0 16 5q8 4 10 16q1 3 1 5q0 7 -6 13q-9 9 -30 9q-10 0 -15 -1v-9v-36z" />
<glyph d="M140.5 628.5q20.5 0.5 36.5 0.5q11 0 31 -2q35 -4 46 -9q32 -15 33 -49v-2q0 -24 -14 -41q20 -16 21 -44v-3q0 -34 -31 -50q-15 -7 -49 -10q-11 -1 -33 -1q-8 -1 -18 -1t-21 1h-31h-10v30h10q7 0 10 1q4 2 5 6q1 2 2 7v6v6q-1 9 -1 11v71q0 3 1 13v15q0 4 -1 7q-2 4 -4 5 q-4 2 -12 2h-10v30h10q9 0 29.5 0.5zM182 503v-36v-3.5v-5.5q5 -1 16 -1q27 0 36 8q6 5 6 13v5q-2 12 -11 16q-8 3 -21 5h-11q-3 0 -11 -1h-4zM182 544q20 -2 24 -2q8 0 16 5q9 4 11 16v5q0 9 -5 14q-8 8 -31 8q-10 0 -15 -1v-10v-35zM410 412q36 -2 53 -14q26 -16 26 -48h1 v-1q0 -32 -26 -48q-7 -4 -17 -7q-10 -4 -21 -4q-9 -1 -16 -1q-4 -1 -9 -1t-11 1h-6v-39q0 -9 2 -13q1 -3 3 -4h11h10v-30h-108v30h10q7 0 11 2q3 1 5 5q1 3 2 8v4q0 4 -1 10q-1 9 -1 13v71q0 2 1 11v13q0 3 -1 6q-2 4 -3 5q-4 1 -13 1h-10v31h10q82 0 98 -1zM384 328 q12 -1 18 -1h4q8 1 16 5q10 5 12 16q1 3 1 5q0 8 -7 14q-8 7 -26 7h-1.5h-2.5q-10 0 -14 -1v-9v-36zM483 197h108v-29h-10q-10 0 -12 -1q-1 -1 -2 -3q-2 -4 -2 -11v-4v-38h56v39q0 12 -3 16l-1 1h-12h-10v30h108v-29h-10q-7 0 -10 -1q-5 -2 -5 -5q-1 -2 -2 -8v-5v-7 q1 -8 1 -11v-72q0 -3 -0.5 -12.5t-0.5 -15.5q0 -4 1 -6v-1v0q2 -4 3 -5q5 -1 13 -1h10v-30h-108v29h10q11 0 12 1q1 2 2 3q2 5 2 14v39h-56v-40q0 -8 2 -12q1 -3 2 -3q1 -1 12 -1h10v-30h-108v29h10q7 0 10 1q4 2 5 6q1 2 2 8v5v7q-1 8 -1 11v70q0 4 1 13q1 6 1 10v4 q-1 6 -2.5 9.5t-2.5 4.5q-4 1 -13 1h-10v30z" />
<glyph d="M127 628l21 -1l3 -3l11 -11l24 -29l62 -72v50q0 2 1 11v7.5v5.5q-1 3 -2 5l-1 1v1q-1 2 -2 3q-3 1 -4 2h-1h-8h-10v30h95v-30h-10h-12q0 -1 -2 -3q-2 -1 -2 -4q-1 -5 -1 -7v-166h-10q-16 0 -20 1q-4 0 -7 2l-9 9q-6 6 -11 13l-7 10l-56 65l-10 11l-3 3v-49q0 -3 -1 -10 v-8t1 -7q0 -3 1 -4l1 -1q1 -2 4 -3q4 -1 10 -1h10v-31h-94v30h10q7 0 9 1q5 2 6 7q1 2 1 30v68q0 3 0.5 11.5t0.5 14.5q0 3 -1 5v1q-6 12 -25 12h-10v30h48zM338 414h19.5h17.5q19 -1 30 -2q34 -3 47 -9q32 -14 33 -49v-2q0 -24 -14 -41q20 -16 21 -44v-3q0 -34 -31 -50 q-15 -7 -50 -10q-11 -1 -32 -1q-9 -1 -18.5 -1t-20.5 1h-32h-10v30h10q8 0 12 2t4 5q1 2 2 7v5.5v6.5q-1 8 -1 11v70q0 3 1 13v8.5v6.5q-1 7 -2 9q0 3 -2 4q-5 1 -14 1h-10v31h10q9 0 30 1zM380 287v-35v-3.5v-6.5q8 -1 16 -1q27 0 35 7q6 6 6 14v5q-2 13 -11 17q-5 3 -20 5 h-11q-3 0 -11 -1q-2 -1 -4 -1zM380 328q12 -1 18 -1h4q10 1 18.5 5t10.5 16v4q0 8 -6 14q-9 8 -30 8q-10 0 -15 -1v-9v-36zM483 197h108v-29h-10q-10 0 -12 -1q-1 -1 -2 -3q-2 -4 -2 -11v-4v-38h56v39q0 12 -3 16l-1 1h-12h-10v30h108v-29h-10q-7 0 -10 -1q-5 -2 -5 -5 q-1 -2 -2 -8v-5v-7q1 -8 1 -11v-72q0 -3 -0.5 -12.5t-0.5 -15.5q0 -4 1 -6v-1v0q2 -4 3 -5q5 -1 13 -1h10v-30h-108v29h10q11 0 12 1q1 2 2 3q2 5 2 14v39h-56v-40q0 -8 2 -12q1 -3 2 -3q1 -1 12 -1h10v-30h-108v29h10q7 0 10 1q4 2 5 6q1 2 2 8v5v7q-1 8 -1 11v70q0 4 1 13 q1 6 1 10v4q-1 6 -2.5 9.5t-2.5 4.5q-4 1 -13 1h-10v30z" />
<glyph d="M144 628h108v-30h-10q-8 0 -12 -2t-4 -5q-1 -2 -2 -7v-5.5v-6.5q1 -8 1 -11v-71q0 -3 -1 -13v-7.5v-6.5q1 -5 2.5 -8.5t2.5 -4.5q4 -1 13 -1h10v-31h-108v30h10q7 0 11 2q3 1 4.5 4.5t1.5 8.5v15q-1 10 -1 13v71q0 2 1 11v6v6q-1 5 -2 7q-1 3 -3 4q-4 2 -12 2h-10v30z M580 197q48 0 69 -12q29 -17 39 -53q5 -19 5 -39q0 -13 -2 -30q-7 -43 -37 -62q-22 -13 -67 -13h-7h-87v29h10q7 0 10 1q5 2 5 5q1 2 2 8v5v7q-1 8 -1 11v72q0 3 0.5 12.5t0.5 15.5q0 4 -1 6v1v0q-2 4 -3 5q-4 1 -13 1h-10v30h87zM325 413l22 -1l13 -15l24 -27l61 -73v51 q0 2 1 9v10q0 2 -1 6q0 3 -1 4l-1 1q-1 2 -4 3q-4 1 -10 1h-10v31h95v-30h-10q-8 0 -11 -1q-2 -1 -3 -3q-2 -2 -2 -4q-1 -4 -1 -7v-165h-10q-16 0 -20 1q-3 0 -6 2q-5 3 -10 8.5t-10 12.5t-6 8l-58 68l-10 10l-3 3v-49q0 -3 -1 -9v-9q0 -3 1 -6q1 -4 2 -6t4 -3q4 -1 10 -1 h10v-30h-95v30h10q8 0 11.5 2t5.5 5v31v68q0 3 0.5 11.5t0.5 13.5q0 4 -1 6v1q-6 11 -22 11h-3h-10v31h48zM575 25h7h7q4 1 8 1l6 2q4 1 6 1q2 2 6 4t6 4q17 15 17 53q0 47 -23 63q-3 2 -9 4q-4 1 -9 2q-7 1 -9 1h-13v-135z" />
<glyph unicode="&#x85;" d="M127 628l21 -1l3 -3l11 -11l24 -29l62 -72v50q0 2 1 11v7.5v5.5q-1 3 -2 5l-1 1v1q-1 2 -2 3q-3 1 -4 2h-1h-8h-10v30h95v-30h-10q-10 0 -12 -1l-2 -2q-2 -1 -2 -4q-1 -5 -1 -7v-166h-10q-16 0 -20 1q-4 0 -7 2l-9 9q-6 6 -11 13l-7 10l-56 65l-10 11l-3 3v-49 q0 -3 -1 -10v-9q0 -2 1 -6q0 -3 1 -4l1 -1q1 -2 4 -3q4 -1 10 -1h10v-31h-94v30h10q7 0 9 1q5 2 6 7q1 2 1 30v68q0 3 0.5 11.5t0.5 13.5q0 4 -1 6v1q-6 12 -25 12h-10v30h48zM495 197h109v-29h-10q-7 0 -10 -1q-5 -2 -6 -6q-2 -5 -2 -12q0 -8 1 -18q1 -11 1 -15v-91h42h18 l1 1h1l2 2q4 3 10 15q6 11 8 12q4 3 7 3q4 1 13 1h13l-19 -71h-179v29h10q8 0 12 2t5 5l1 2v1v3v13q-1 8 -1 11v73q0 3 1 12v7.5v6.5q-1 7 -2 9q-1 3 -2 4q-5 1 -14 1h-10v30zM298 408h177l21 -71h-13q-12 0 -16 1h2l-4.5 2.5l-4.5 2.5l-1 1v-82q2 3 3 4q3 3 11 3h11l12 -1 l-21 -70h-177v30h10q7 0 10 1q4 2 5 5l1 1l1 2v1v3v13q-1 8 -1 11v73q0 3 0.5 12t0.5 15q0 4 -1 6v1v0q-2 4 -3 5q-4 1 -13 1h-10v30zM457 258h-33v10v12q-1 3 -4.5 4t-9.5 1h-30v-49h42h18l1 1h1l2 2q4 3 10 15zM456 349l-2 5q-6 11 -10 14q-1 1 -1 2q-2 0 -21 1h-42v-49 h30q6 0 9 1q4 2 5 4v12v10h32z" />
<glyph d="M184 456q7 -2 11 -2q7 0 14 3q4 1 6.5 3t3.5 4q0 2 1 5q0 10 -18 22q-9 5 -20 11q-15 7 -26 15q-13 9 -20 18q-13 16 -13 34q0 14 8 27q18 30 53 33h7q12 0 24 -3v-1l8 -3q3 -1 4 -1q0 1 1 2q1 2 2 2q6 3 7 3q4 1 13 1h10v-86h-33l-1 9q-4 30 -20 37q-6 3 -11 3 q-6 0 -12 -3q-3 -1 -4 -2q-4 -2 -4 -8v-3v-2q4 -9 23 -20q4 -3 13 -7l12 -7q6 -3 14 -8t13 -10l9 -9q4 -5 6 -7q3 -5 4 -10l3 -13v-1v-4q0 -6 -4 -17q-8 -25 -31 -36q-18 -8 -37 -8q-3 0 -12 1q-5 0 -11 3l-10 3q-3 1 -7 2h-1v-1l-2 -8h-32v85h33l1 -9q2 -30 25 -37zM498 18 q2 1 5 4q2 1 4 4q2 5 3.5 8.5t3.5 9.5q3 7 4 9l40 95l13 32q3 8 6 11q2 3 5 5q5 3 10 3h1l1 -1h3l1 -1h1l2 -1q1 -1 3.5 -1.5t4 -1.5t3.5 -3q1 -1 2 -3q3 -4 4 -6.5l3 -7.5q1 -3 2 -5v-1v-1l1 -1l39 -94l13 -30q3 -7 3 -10q1 -1 1 -2q6 -10 22 -11h10v-30h-109v29h10 q8 0 10 1h1h-1q-1 4 -1 7q-1 3 -3 7l-3 6l-1 2v2l-1 2q-2 5 -3 7l-1 1h-39h-9l-3 -7l-1 -2l-1 -1l-2 -4l-4 -7q0 -4 -1 -8q-1 -1 -1 -2t1 -2v-1h10h10v-30h-96v29h10q11 0 14 1zM382 241q7 -2 11 -2q7 0 14 3q4 1 6.5 3t3.5 4q0 2 1 5q0 10 -18 22q-9 5 -20 11q-15 7 -26 15 q-13 8 -20 17q-13 16 -13 34q0 14 8 28q18 30 52 32h6q12 0 26 -3l7 -3h1l4 -1q2 3 3 4q5 3 7 3q4 1 12 1h10v-86h-32l-1 9q-4 29 -20 36q-7 3 -12 3q-6 0 -12 -2q-2 -1 -3 -2q-4 -3 -5 -7v-2v-3t1 -2q4 -8 23 -19q5 -4 12 -7q8 -4 13 -8l12 -7q9 -5 14 -10q5 -4 11 -11 t8 -15q2 -6 3 -14q1 -3 1 -6q0 -4 -4 -15q-8 -25 -31 -36q-18 -8 -37 -8q-3 0 -12 1q-5 0 -11 3q-5 2 -10 3l-8 2v-1l-2 -8h-32v85h33l1 -9q2 -30 25 -37zM586 112l-10 -24h19zM160 426zM623 167zM423 402z" />
<glyph d="M101 628h157l13 -1l6 -1l7 -20l16 -49h-14q-13 0 -17 1q-1 0 -2 1l-3 2l-3 5v-85l2 3l1 1q1 0 4 1.5l3 1.5q4 1 14 1h14l-16 -49l-7 -20l-6 -1l-12 -1h-157v30h10q7 0 11 2q3 1 4.5 4.5t1.5 7.5v16q-1 10 -1 13v71q0 2 1 11v6v6q-1 5 -2 7q-1 3 -3 4q-4 2 -12 2h-10v30z M499 21q7 6 9 9q3 6 9 20l42 101l12 29q3 8 5 10q2 4 6 6q6 3 11 3t8 -2q1 0 3 -1q3 -2 5 -4q4 -3 5 -6l1 -1v-1l3 -4q1 -3 3 -7l1 -3l42 -101l12 -28q2 -5 2.5 -6.5l0.5 -1.5v-1q0 -1 1 -2v-1q5 -7 9 -9t13 -2h10v-30h-109v29h10q9 0 10 1q-1 4 -1.5 6.5t-2.5 7.5l-4 6v3 l-1 2l-3 7q-1 1 -1 2h-39h-4.5h-4.5l-3 -7l-4 -7q-2 -5 -3 -7l-2 -9v-2v-0.5v-1.5h10h10v-30h-95v29h10q9 0 14 4zM383 241q6 -2 11 -2q8 0 15 3q3 1 4 3q3 1 3 4q1 2 1 5v1v2q-3 10 -25 22q-1 1 -4 3t-6 3q-7 4 -11 7q-4 2 -11 6q-8 5 -13 9l-9 9q-6 6 -9 12q-3 5 -5 12 q-3 6 -3 13q0 2 1 3q0 8 3 15q7 22 28 33q16 9 35 9h8q14 -1 27 -7h1l2 8h31v-86h-32l-1 9q-4 29 -19 36q-7 3 -12 3q-6 0 -12 -2q-3 -2 -5 -3q-3 -2 -4 -6v-2v-3t1 -2q4 -8 23 -19q5 -4 12 -7q8 -4 13 -8l12 -7q9 -5 14 -10q5 -4 11 -11t8 -15q2 -6 3 -14q1 -3 1 -6 q0 -4 -4 -15q-8 -25 -31 -36q-18 -8 -37 -8q-6 0 -12 1q-4 1 -16 5q-8 2 -13 3l-1 -9h-33v85h33l1 -9q2 -31 26 -37zM586 112l-10 -24h19zM260 478h-33v10q0 11 -1 13q0 2 -4 2q-3 1 -6 1h-3h-31v-48h42q19 0 22 1h1q4 5 10 17zM260 568l-3 5q-7 14 -11 16q-2 1 -22 1h-42 v-48h31q7 0 10 2q3 1 4 3v5v5l-1 11h34zM680 30zM679 33z" />
<glyph d="M88 628h107v-30h-10q-8 0 -11 -1l-2 -2q-3 -5 -3 -16v-37h57v40q0 9 -2 12q-1 3 -3 4h-12h-10v30h109v-30h-10q-8 0 -12 -2t-4 -4q-1 -2 -1 -6v-13q1 -8 1 -11v-72q0 -4 -1 -14q-1 -5 -1 -10v-4q1 -5 2 -8q2 -3 2 -4q4 -1 14 -1h10v-31h-109v30h10q9 0 12 1l1 1l1 2 q2 5 3 14v38h-57v-39q0 -9 2 -13q1 -2 3 -4l3 1h7l11 1v-32h-107v30h10q7 0 11 2q3 1 4.5 4.5t1.5 8.5v15q-1 10 -1 13v71q0 2 1 11v6v6q-1 5 -2 7q-1 3 -3 4q-4 2 -12 2h-10v30zM574 28q8 -4 16 -4q7 0 14 3q5 1 8 4q2 2 3 4v5v2q0 2 -2 6l-6 6q-7 4 -9 6q0 1 -6 4 q-5 2 -13 7q-7 4 -11 7q-6 2 -14 8q-7 5 -12 9l-10 10q-4 5 -7 10l-2 6q-1 5 -3 12q-1 4 -1 8t2 12q7 24 28 35q19 10 41 10h2.5h1.5q5 0 11 -2l12 -4q2 -1 5 -1v8h34v-86h-33l-1 9q-2 29 -22 37q-6 2 -11 2t-11 -2q-2 -1 -3 -1q-5 -3 -5 -8v-3q0 -2 1 -3q3 -8 22 -19l14 -8 l16 -8l15 -11q10 -7 15 -13t9 -14q4 -6 5 -11q1 -1 1 -2v-2v-3v-3q-1 -8 -3 -19v-1h-1q-8 -24 -32 -35q-17 -8 -35 -8q-6 0 -12 1q-8 1 -27 6l-3 1l-1 -7h-32v85h31l2 -8q6 -31 19 -37zM292 342l13 50l8 19l6 1l10 1h151l19 -71h-13q-10 0 -13 1q-5 0 -7 3l-1 1l-7 10 q-7 14 -11 17q-1 1 -2 1h-1q-1 1 -3 1h-6h-9h-3v-94q0 -4 -1 -14v-18q0 -6 1 -11q1 -3 3 -4t3 -1l1 -1h9h10v-30h-108v30h10q6 0 9 1q5 1 6 5v1h1q1 5 1 11v17q-1 11 -1 15v93h-3h-7h-6q-7 -1 -8 -2q-4 -2 -11 -16l-4 -8l-2 -4l-4 -2l-6 -2h-3h-8h-13zM668 56zM445 375z" />
<glyph d="M88 628h107v-30h-10q-8 0 -11 -1l-2 -2q-3 -5 -3 -16v-37h57v40q0 9 -2 12q-1 3 -3 4h-12h-10v30h109v-30h-10q-8 0 -12 -2t-4 -4q-1 -2 -1 -7v-12q1 -8 1 -11v-72q0 -4 -1 -14q-1 -5 -1 -10v-4q1 -5 2 -8q2 -3 2 -4q4 -1 14 -1h10v-31h-109v30h10q9 0 12 1l1 1l1 2 q2 5 3 14v38h-57v-39q0 -9 2 -13q1 -2 3 -4l3 1h7l11 1v-32h-107v30h10q7 0 11 2q3 1 4.5 4.5t1.5 8.5v15q-1 10 -1 13v71q0 2 1 11v6v6q-1 5 -2 7q-1 3 -3 4q-4 2 -12 2h-10v30zM552 197h108v-29h-10q-8 0 -11 -1h-1q-1 -1 -2 -3q-2 -6 -3 -10v-5v-10q1 -11 1 -12v-28 q1 -11 1 -20.5t-1 -16.5q0 -17 -2 -30q-6 -34 -37 -44q-5 -1 -11 -1q-3 0 -14 1q-16 2 -29 11q-15 11 -15 28q0 16 14 22q5 2 8 2q2 1 3 1q9 0 15 -6q5 -4 7 -10q2 -3 3 -7q1 -3 2 -5v-1l1 -1q0 2 1 4v6v9q-1 11 -1 12v76q0 3 1 12v6.5v5.5q-1 7 -2 9q0 3 -2 3q-5 2 -14 2 h-10v30zM292 342l13 50l8 19l6 1l10 1h151l19 -71h-13q-10 0 -13 1q-5 0 -7 3l-1 1l-7 10q-7 14 -11 17q-1 1 -2 1h-1q-1 1 -3 1h-6h-9h-3v-94q0 -4 -1 -14v-18q0 -6 1 -11q1 -3 3 -4t3 -1l1 -1h9h10v-30h-108v30h10q6 0 9 1q5 1 6 5v1h1q1 5 1 11v17q-1 11 -1 15v93h-3h-7 h-6q-7 -1 -8 -2q-4 -2 -11 -16l-4 -8l-2 -4l-4 -2l-6 -2h-3h-8h-13zM445 375z" />
<glyph d="M79 628h109v-30h-10q-8 0 -10 -2q0 -2 1 -7q2 -5 6 -13l5 -10l26 -61l24 62l5 10q4 7 6 12v5v1v1v1q-2 1 -8 1h-12v30h96v-30h-10q-10 0 -13 -1t-5 -3t-4 -5q-3 -5 -4 -7q-2 -4 -4 -10q-3 -7 -4 -9l-40 -96l-13 -31q-4 -10 -7 -13q-1 -2 -3 -3q-5 -4 -11 -4q-4 0 -7 2 q-1 0 -2.5 1l-1.5 1q-6 3 -8 5q-2 1 -3 4q-3 4 -4 7t-3 7q-1 3 -2 5q0 1 -0.5 2l-0.5 1l-39 94l-13 29q-2 5 -3 6v2.5t-0.5 2.5t-0.5 2q1 0 1 1q-6 10 -23 10h-10v30zM624 199h31v-86h-31l-2 8q-6 32 -19 37h-1h-1q-5 3 -11 3t-13 -2l-2 -1q-6 -3 -6 -8v-3v-2q4 -9 22 -21 q4 -2 13 -7q10 -4 16 -7.5t15 -9.5t14.5 -11.5t10.5 -13.5q7 -10 7 -20q0 -7 -1 -19v-1v-1q-8 -26 -32 -38q-18 -9 -38 -9q-4 0 -11 1q-12 1 -28 6l-2 1v-7h-34v85h34v-9q2 -32 24 -37q7 -2 13 -2q7 0 15 3h2q5 3 6 7v4v2q0 3 -1 4l-2 4q-6 5 -9 8q-2 1 -13 7q-8 5 -10 6 q-8 4 -12 8l-11 6h-1q-7 5 -11 8.5t-9 8.5q-6 6 -9 13q-3 5 -5.5 11t-2.5 13q0 2 1 3q0 9 2 16q8 23 29 33q16 8 35 8h9q10 -1 25 -7h2zM292 342l14 49l8 20l15 2h109h24l10 -1l6 -1l7 -20l16 -49h-14q-11 0 -14 1q-4 0 -7 3l-1 1l-7 10v1q-6 11 -10 15v1h-1q-1 1 -1.5 1 h-1.5q-1 1 -3 1h-6.5h-8.5h-3v-91q0 -4 -1 -15v-18q0 -7 2 -12q1 -4 5 -6q4 -1 10 -1h10v-30h-107v30h10q6 0 9 1q5 1 6 6q2 7 2 13v18q-1 11 -1 16v89h-3h-8h-5q-5 -1 -9 -3h-1q-3 -3 -9 -15q-3 -7 -6 -11q-3 -3 -8 -4h-1q-4 -1 -13 -1h-13zM241 597zM445 375z" />
<glyph d="M212 627q37 -3 53 -12q26 -16 26 -49l1 -1v-1q0 -32 -26 -48q-7 -4 -17 -7q-9 -3 -20 -4t-18 -1h-25v-39q0 -9 2 -13q1 -3 3 -4q2 0 3 1h7l11 1v-32h-108v30h10q7 0 11 2q3 1 5 5q1 3 2 8v6.5v8.5q-1 10 -1 13v71q0 2 1 11v6v6l-2 6v0q-1 2 -1 3q-1 2 -3 2q-3 2 -12 2 h-10v30h10q83 0 98 -1zM186 544q19 -2 23 -2q7 0 15 5q10 5 12 16q1 3 1 5q0 8 -7 14q-9 8 -30 8q-9 0 -14 -1v-10v-35zM580 197q48 0 69 -12q29 -17 39 -53q5 -19 5 -39q0 -13 -2 -30q-7 -43 -37 -62q-22 -13 -67 -13h-7h-87v29h10q7 0 10 1q5 2 5 5q1 2 2 8v5v7 q-1 8 -1 11v72q0 3 0.5 12.5t0.5 15.5q0 4 -1 6v1v0q-2 4 -3 5q-4 1 -13 1h-10v30h87zM298 413h108v-30h-10q-6 0 -9 -1q-5 -1 -6 -5v-1h-1q-1 -5 -1 -11v-18q1 -11 1 -15v-92h42h18l1 1h1l2 2q5 4 11 15q0 1 0.5 2l1.5 3t2 3q3 6 9 7h1q4 1 14 1h13l-21 -71h-177v30h10 q7 0 10 1q4 2 5 6q1 2 2 7v5.5v5.5q-1 8 -1 11v70q0 3 1 13v16q0 5 -1 8q-2 4 -3 5q-4 1 -13 1h-10v31zM575 25h7h7q4 1 8 1l6 2q4 1 6 1q2 2 6 4t6 4q17 15 17 53q0 47 -23 63q-3 2 -9 4q-4 1 -9 2q-7 1 -9 1h-13v-135z" />
<glyph d="M212 627q37 -3 53 -12q26 -16 26 -49l1 -1v-1q0 -32 -26 -48q-7 -4 -17 -7q-9 -3 -20 -4q-10 -1 -18 -1h-25v-39q0 -9 2 -13q1 -3 3 -4q2 0 3 1h7l11 1v-32h-108v30h10q7 0 11 2q3 1 5 5q1 3 2 8v6.5v8.5q-1 10 -1 13v71q0 2 1 11v6v6l-2 6v0q-1 2 -1 3q-1 2 -3 2 q-3 2 -12 2h-10v30h10q83 0 98 -1zM186 544q19 -2 23 -2q7 0 15 5q10 5 12 16q1 3 1 5q0 8 -7 14q-9 8 -30 8q-9 0 -14 -1v-10v-35zM480 199h108v-30h-10h-12q-2 -1 -3 -4q-2 -6 -2 -9v-15q1 -11 1 -13v-40q0 -4 1 -18q1 -13 3 -18q3 -5 8 -14q3 -6 9 -9t16 -3q8 0 16 5 q9 5 14 11q5 7 7 18q2 12 3 20v9v15q-1 17 -1 22q0 2 1 13v16q0 4 -2 9l-1 2q-1 2 -3 3h-12h-10v30h96v-30h-10q-9 0 -11 -1h-1h-1q-2 -1 -3 -5q-2 -7 -2 -13q0 -7 1 -18q1 -12 1 -15v-39q0 -6 -2 -18q-1 -14 -5 -22q-3 -7 -9 -16t-17 -17q-12 -9 -20 -11q-12 -5 -28 -5 q-33 0 -57 15q-25 15 -34 47q-3 13 -3 54v48q0 9 -2 12q-1 3 -3 4h-11h-10v30zM298 413h108v-30h-10q-6 0 -9 -1q-5 -1 -6 -5v-1h-1q-1 -5 -1 -11v-18q1 -11 1 -15v-92h42h18l1 1h1l2 2q5 4 11 15q0 1 0.5 2l1.5 3t2 3q3 6 9 7h1q4 1 14 1h13l-21 -71h-177v30h10q7 0 10 1 q4 2 5 6q1 2 2 7v5.5v5.5q-1 8 -1 11v70q0 3 1 13v16q0 5 -1 8q-2 4 -3 5q-4 1 -13 1h-10v31z" />
<glyph d="M288 520q50 0 72 -15q20 -12 24 -36q1 -6 1 -12q0 -17 -9 -33q-9 -14 -23 -20l24 -41q9 -16 14 -20h1v-1v0q2 -1 15 -1h10v-30h-109v30h10h7q-2 3 -4 7l-10 18l-10 18q-6 11 -8 14h-2h-11v-40q0 -9 2 -13q1 -3 3 -4h5h5l11 1v-31h-108v30h10q7 0 11 2q3 1 5 5q1 3 2 8 v6.5v7.5q-1 10 -1 13v71q0 2 1 11v6v6l-2 6q-2 4 -5 5q-4 2 -11 2h-10v30h90zM280 481v-36v-3.5v-5.5q5 -1 14 -1q22 0 31 8q5 5 5 14v4q-1 11 -8.5 15.5t-17.5 5.5q-4 1 -8 1h-1q-4 -1 -12 -2h-3zM429 305h109v-30h-10q-7 0 -10 -1q-5 -2 -6 -4v-1q-1 -2 -1 -2.5v-0.5v-3 v-13q1 -8 1 -11v-74q0 -3 -0.5 -12t-0.5 -15q0 -4 1 -6v-1q1 -2 4 -3q5 -3 12 -3h10v-29h-109v29h10q8 0 12 2t5 5l1 2v1v3v12q-1 8 -1 11v73q0 3 1 13v15q0 4 -1.5 7t-4.5 4q-5 2 -12 2h-10v30zM392 342zM392 342zM296 483zM511 267z" />
<glyph d="M184 456q7 -1 11 -1q7 0 14 2q4 1 6.5 3t3.5 4q0 2 1 5q0 10 -18 22q-9 5 -20 11q-15 7 -26 15q-13 9 -20 18q-13 16 -13 34q0 14 8 27q18 30 53 33h7q12 0 24 -3v-1l8 -3q3 -1 4 -1q0 1 1 2q1 2 2 2q6 3 7 3q4 1 13 1h10v-86h-33l-1 9q-4 30 -20 37q-6 3 -11 3 q-6 0 -12 -3q-3 -1 -4 -2q-4 -2 -4 -8v-3v-2q4 -9 23 -20q4 -3 13 -7l12 -7q6 -3 14 -8t13 -10l9 -9q4 -5 6 -7q3 -5 4 -10l3 -13v-1v-4q0 -6 -4 -17q-8 -25 -31 -36q-18 -8 -37 -8q-3 0 -12 1q-5 0 -11 3l-10 3q-3 1 -7 2h-1v-1l-2 -8h-32v85h33l1 -9q2 -30 25 -37z M555 189q16 11 34 11q12 0 25 -5q31 -12 40 -43q2 -9 2 -16q0 -8 -2 -17q-2 -7 -5 -13q-2 -6 -6 -14h-1v-1l-8 -11q-3 -5 -9 -13q-7 -8 -11 -11l-9 -9q-5 -6 -6 -7l-1 -2l-6 -7h8h10q9 1 16 3l1 0.5t3 2.5q5 5 8 7l-1 -1q1 0 3.5 1.5t3.5 1.5q4 1 13 1h14l-21 -59h-131v10 q0 7 4 14q3 7 6 10.5t9 8.5q5 4 7 6l10 10q9 9 11 12l12 12q7 7 9 11q3 6 9 14q4 6 5.5 12t1.5 13v2v1q0 13 -6 23q-5 8 -12 8q-2 0 -4 -1q-11 -2 -17 -12l-1 -2.5t-2 -4.5q-4 -7 -7 -10l-1 -1l-2 -1l-6 -2h-3h-8h-11l1 11q3 39 31 57zM382 241q7 -2 11 -2q7 0 14 3 q4 1 6.5 3t3.5 4q0 2 1 5q0 10 -18 22q-9 5 -20 11q-15 7 -26 15q-13 8 -20 17q-13 16 -13 34q0 14 8 28q18 30 52 32h6q12 0 26 -3l7 -3h1l4 -1q2 3 3 4q5 3 7 3q4 1 12 1h10v-86h-32l-1 9q-4 29 -20 36q-7 3 -12 3q-6 0 -12 -2q-2 -1 -3 -2q-4 -3 -5 -7v-2v-3t1 -2 q4 -8 23 -19q5 -4 12 -7q8 -4 13 -8l12 -7q9 -5 14 -10q5 -4 11 -11t8 -15q2 -6 3 -14q1 -3 1 -6q0 -4 -4 -15q-8 -25 -31 -36q-18 -8 -37 -8q-3 0 -12 1q-5 0 -11 3q-5 2 -10 3l-8 2v-1l-2 -8h-32v85h33l1 -9q2 -30 25 -37zM160 426zM423 402z" />
<glyph d="M184 456q7 -2 11 -2q7 0 14 3q4 1 6.5 3t3.5 4q0 2 1 5q0 10 -18 22q-9 5 -20 11q-15 7 -26 15q-13 9 -20 18q-13 16 -13 34q0 14 8 27q18 30 53 33h7q12 0 24 -3v-1l8 -3q3 -1 4 -1q0 1 1 2q1 2 2 2q6 3 7 3q4 1 13 1h10v-86h-33l-1 9q-4 30 -20 37q-6 3 -11 3 q-6 0 -12 -3q-3 -1 -4 -2q-4 -2 -4 -8v-3v-2q4 -9 23 -20q4 -3 13 -7l12 -7q6 -3 14 -8t13 -10l9 -9q4 -5 6 -7q3 -5 4 -10l3 -13v-1v-4q0 -6 -4 -17q-8 -25 -31 -36q-18 -8 -37 -8q-3 0 -12 1q-5 0 -11 3l-10 3q-3 1 -7 2h-1v-1l-2 -8h-32v85h33l1 -9q2 -30 25 -37z M532 155v1v1q0 1 1 3v2q2 5 8 13q16 20 39 24q6 1 12 1q30 0 49 -27q12 -16 12 -34q0 -16 -9 -31q-4 -6 -9 -11q15 -11 20 -30q3 -10 3 -18q0 -19 -11 -34q-19 -27 -54 -27h-8q-42 4 -56 38l-4 9l31 15l3 -11q3 -7 8 -11q6 -5 12 -6q3 -1 7 -1q8 0 14 5q9 10 9 26q0 8 -4 15 q-3 5 -9 8q-6 2 -27 2h-10v32h10q15 0 23 5.5t11 14.5q1 5 1 9q0 6 -2 11q-4 10 -12 12h-5q-5 0 -11 -4q-6 -5 -14 -16l-5 -9l-9 6q-9 7 -12 12q-1 2 -2 5zM382 241q7 -2 11 -2q7 0 14 3q4 1 6.5 3t3.5 4q0 2 1 5q0 10 -18 22q-9 5 -20 11q-15 7 -26 15q-13 8 -20 17 q-13 16 -13 34q0 14 8 28q18 30 52 32h6q12 0 26 -3l7 -3h1l4 -1q2 3 3 4q5 3 7 3q4 1 12 1h10v-86h-32l-1 9q-4 29 -20 36q-7 3 -12 3q-6 0 -12 -2q-2 -1 -3 -2q-4 -3 -5 -7v-2v-3t1 -2q4 -8 23 -19q5 -4 12 -7q8 -4 13 -8l12 -7q9 -5 14 -10q5 -4 11 -11t8 -15q2 -6 3 -14 q1 -3 1 -6q0 -4 -4 -15q-8 -25 -31 -36q-18 -8 -37 -8q-3 0 -12 1q-5 0 -11 3q-5 2 -10 3l-8 2v-1l-2 -8h-32v85h33l1 -9q2 -30 25 -37zM160 426zM423 402z" />
<glyph d="M185 628q48 0 69 -14q30 -18 39 -51q5 -20 5 -41q0 -14 -2 -27q-7 -44 -38 -63q-24 -14 -73 -14h-88v30h10q8 0 12 2t4 4q1 2 2 8v5v7q-1 8 -1 10v73q0 3 1 13v7.5v6.5q-1 5 -2.5 8.5t-2.5 4.5q-4 1 -13 1h-10v30h88zM624 199h31v-86h-31l-2 8q-6 32 -19 37h-1h-1 q-5 3 -11 3t-13 -2l-2 -1q-6 -3 -6 -8v-3v-2q4 -9 22 -20q4 -3 13 -8q10 -4 16 -7.5t15 -9.5t14.5 -11.5t10.5 -13.5q7 -10 7 -20q0 -7 -1 -19v-1v-1q-8 -26 -32 -38q-18 -9 -38 -9q-4 0 -11 1q-12 1 -28 6l-2 1v-7h-34v85h34v-9q2 -32 24 -37q7 -2 13 -2q7 0 15 3h2 q5 3 6 7v4v2q0 3 -1 4l-2 4q-6 5 -9 8q-2 1 -13 7q-8 5 -10 6q-8 4 -12 8l-11 6h-1q-7 5 -11 8.5t-9 8.5q-6 6 -9 13q-3 5 -5.5 11t-2.5 13q0 2 1 3q0 9 2 16q8 23 29 33q16 8 35 8h9q10 -1 25 -7h2zM478 258l4 -4l1 -2q2 -3 2 -6h-1v-2q-2 -5 -2 -6q-4 -6 -12 -14 q-26 -21 -53 -22h-7q-36 0 -63 19q-30 21 -39 60q-4 14 -4 28q0 22 10 43q12 28 36 44t53 18h8q14 0 24 -4h1l6 -3q3 -2 5 -2l1 9h33v-85h-34v10q0 18 -15 29q-11 8 -22 8q-5 0 -10 -2q-17 -4 -29 -26q-11 -18 -11 -39q0 -5 1 -9q3 -27 20 -46q12 -14 33 -14h7q26 3 39 21 l7 9l8 -8q2 -2 3 -4zM180 456h14h7q1 1 5 2t5 2l1 1h1l7 3q2 1 4 3q18 17 18 53q0 47 -23 64q-3 1 -9 4q-2 1 -8 2q-7 0 -11 1h-3h-7l-1 -1v-134z" />
<glyph d="M212 627q37 -3 53 -12q26 -16 27 -49v-1v-1q0 -32 -26 -48q-7 -4 -17 -7q-9 -3 -20 -4q-10 -1 -18 -1h-25v-39q0 -9 2 -13q1 -3 3 -4q2 0 3 1h7l11 1v-32h-108v30h10q7 0 11 2q3 1 5 5q1 3 2 8v6.5v8.5q-1 10 -1 13v71q0 2 1 11v6v6l-2 6v0q-1 2 -1 3q-1 2 -3 2 q-3 2 -12 2h-10v30h10q83 0 98 -1zM186 544q19 -2 23 -2q7 0 15 5q10 5 12 16q1 3 1 5q0 8 -7 14q-9 8 -30 8q-9 0 -14 -1v-10v-35zM589 199h36v-146q0 -2 -1 -11v-12t1 -9q1 -3 1.5 -3h11.5h10v-30h-94v30h10q11 0 12 1l1 3v5v7q-1 9 -1 10v69h-38v35h10q30 0 39 43z M282 414h109v-30h-10q-9 0 -12 -1q-2 -1 -3 -4q-2 -5 -3 -9v-6v-9q1 -10 1 -12v-41q0 -4 1 -18q1 -12 3 -16l8 -15q3 -7 8 -9q8 -4 17 -4q7 0 16 5t14 12t7 18q2 12 3 19v10v14q-1 18 -1 22q0 2 1 13v16q0 4 -2 10q-2 3 -3 4h-1v0h-11h-10v31h95v-30h-10h-10l-1 -1h-1 q-2 -1 -3 -5q-2 -7 -3 -13v-4q0 -5 1 -12q1 -12 1 -15v-39q0 -7 -2 -19q-1 -13 -4 -21t-9 -18t-16 -17q-10 -8 -19 -11q-15 -6 -28 -6q-34 0 -59 14q-26 15 -35 47q-3 12 -3 51v51q0 11 -2 15l-2 2h-12h-10v31z" />
<glyph d="M212 627q37 -3 53 -12q26 -16 26 -49l1 -1v-1q0 -32 -26 -48q-7 -4 -17 -7q-9 -3 -20 -4q-10 -1 -18 -1h-25v-39q0 -9 2 -13q1 -3 3 -4q2 0 3 1h7l11 1v-32h-108v30h10q7 0 11 2q3 1 5 5q1 3 2 8v6.5v8.5q-1 10 -1 13v71q0 2 1 11v6v6l-2 6v0q-1 2 -1 3q-1 2 -3 2 q-3 2 -12 2h-10v30h10q83 0 98 -1zM186 544q19 -2 23 -2q7 0 15 5q10 5 12 16q1 3 1 5q0 8 -7 14q-9 8 -30 8q-9 0 -14 -1v-10v-35zM555 189q16 11 34 11q12 0 25 -5q31 -13 40 -43q2 -8 2 -15q0 -22 -14 -45q-4 -7 -11 -16q-6 -8 -14 -18l-12 -14l-13 -13h8h10q9 1 16 3 l1 0.5t3 2.5q5 5 8 7l-1 -1q1 0 3.5 1.5t3.5 1.5q4 1 13 1h14l-21 -59h-131v10q0 7 4 14q3 7 6 10.5t9 8.5q5 4 7 6l10 10q10 9 12 11q3 4 11 12q7 8 9 12q3 6 9 14q4 7 5 13q2 5 2 12v2v1q0 13 -6 23q-5 8 -12 8q-2 0 -4 -1q-12 -2 -19 -14l-0.5 -2.5t-1.5 -3.5 q-1 -4 -2 -4q-3 -6 -6.5 -7t-6.5 -2h-3h-8h-11l1 11q3 39 31 57zM282 413h109v-30h-10q-8 0 -12 -2q-4 -1 -5 -4t-1 -8v-15q1 -10 1 -13q0 -6 -1 -20v-21q0 -7 1 -18q2 -11 4 -18q4 -10 12.5 -17t17.5 -7q8 0 14 2q8 4 14 9q6 6 8 12q3 6 5 17t2 18v21q-1 14 -1 19q0 2 1 13 v17q0 5 -2 10l-1 2q-2 2 -3 2.5t-11 0.5h-10v30h95v-30h-10h-12q-2 -1 -3 -5q-2 -8 -3 -14v-5q0 -6 1 -13q1 -13 1 -16v-38q0 -5 -2 -18q-1 -14 -5 -21q-3 -7 -9 -16q-7 -11 -14 -17.5t-23 -11.5q-13 -5 -27 -5q-32 0 -57 14q-26 16 -35 46q-3 12 -3 56v48q0 7 -1 10 q-1 4 -3 5h-1l-1 1h-10h-10v30z" />
<glyph d="M184 456q7 -2 11 -2q7 0 14 3q4 1 6.5 3t3.5 4q0 2 1 5q0 10 -18 22q-9 5 -20 11q-15 7 -26 15q-13 9 -20 18q-13 16 -13 34q0 14 8 27q18 30 53 33h7q12 0 24 -3v-1l8 -3q3 -1 4 -1q0 1 1 2q1 2 2 2q6 3 7 3q4 1 13 1h10v-86h-33l-1 9q-4 30 -20 37q-6 3 -11 3 q-6 0 -12 -3q-3 -1 -4 -2q-4 -2 -4 -8v-3v-2q4 -9 23 -20q4 -3 13 -7l12 -7q6 -3 14 -8t13 -10l9 -9q4 -5 6 -7q3 -5 4 -10l3 -13v-1v-4q0 -6 -4 -17q-8 -25 -31 -36q-18 -8 -37 -8q-3 0 -12 1q-5 0 -11 3l-10 3q-3 1 -7 2h-1v-1l-2 -8h-32v85h33l1 -9q2 -30 25 -37z M624 199h31v-86h-31l-2 8q-6 31 -19 37h-1q-5 3 -12 3q-6 0 -12 -2q-3 -1 -4 -2q-4 -3 -4 -7v-2v-3q0 -2 1 -3q1 -2 3 -3q5 -6 7 -7q2 -2 10 -7l14 -8l15 -8q7 -3 16 -9t14 -12t10 -14q7 -10 7 -20q0 -11 -2 -20q-7 -26 -32 -38q-18 -9 -38 -9q-4 0 -11 1q-12 1 -27 7h-2 l-2 -7h-32v85h33l1 -9q1 -15 8 -26q6 -9 18 -12q6 -2 11 -2q8 0 15 3q3 1 4 3q3 2 3 4q1 2 1 5v2q0 3 -1 4l-2 4q-6 5 -9 8q-2 1 -13 7q-8 5 -10 6q-8 4 -12 8l-11 5v1h-1q-7 5 -11 8.5t-9 8.5q-6 6 -9 13q-3 5 -5.5 11t-2.5 13q0 2 1 3q0 9 2 16q8 23 29 33q16 8 35 8h9 q10 -1 25 -7h2zM305 392l1 1l7 18l6 1l11 1h150l19 -71h-13q-12 0 -16 1h2q-1 1 -4 1.5t-6 5.5l-4 8q-7 13 -12 17q-1 1 -2.5 1t-3.5 0.5t-4 0.5q-5 0 -10 -1h-3v-94q0 -4 -1 -14v-18q0 -6 1 -11q1 -3 3 -4t3 -1l1 -1h9h10v-30h-108v30h10q6 0 9 1q5 1 6 5v1h1q1 5 1 11v17 q-1 11 -1 15v93h-3h-7h-6q-7 -1 -8 -2q-4 -2 -11 -16l-4 -8l-2 -4l-4 -2l-6 -2h-3h-8h-13zM160 426z" />
<glyph d="M282 473q2 -3 3 -6q2 -4 2 -7q-1 -5 -3 -8q-3 -5 -13 -13q-25 -21 -52 -22h-4q-33 0 -57 14q-33 21 -46 61q-5 17 -5 34q0 21 9 42q12 28 36 44t55 17h7q14 0 24 -4h1l4 -2h1l5 -3l1 9h33v-84h-34v10q0 19 -16 29q-10 7 -21 7q-6 0 -12 -1q-16 -6 -28 -29q-9 -17 -9 -37 v-11q4 -26 20 -44q13 -13 33 -13h7q26 3 39 20l3 4h10l3 -3q2 -1 4 -4zM483 197h108v-29h-10q-8 0 -11 -1v0l-1 -1q-2 -1 -3 -3q-1 -4 -1 -10v-3v-39h56v40q0 9 -2 12q-1 3 -3 4h-11h-10v30h108v-29h-10q-7 0 -10 -1q-4 -2 -5 -5l-1 -1q-1 -2 -1 -2.5v-0.5v-3v-13 q1 -8 1 -11v-73q0 -3 -0.5 -12.5t-0.5 -14.5q0 -4 1 -6v-1v0q2 -4 3 -5q5 -1 13 -1h10v-30h-108v29h10q9 0 12 1l0.5 0.5t1.5 2.5q2 5 2 14v39h-56v-40q0 -8 2 -12q1 -3 2 -3q3 -1 12 -1h10v-30h-108v29h10q7 0 11 2q3 1 5 5q1 3 2 9v4q0 4 -1 10q-1 9 -1 13v71q0 2 1 11v13 q0 3 -1 6q-2 4 -3 5q-4 1 -13 1h-10v30zM478 258l4 -4l1 -2q2 -3 2 -6h-1v-2q-2 -5 -2 -6q-4 -6 -12 -14q-26 -21 -53 -22h-4q-34 0 -58 14q-33 20 -46 61q-5 16 -5 33q0 21 10 42q13 28 36 44q24 16 53 18h8q14 0 24 -4h1l6 -3q3 -2 5 -2l1 9h33v-85h-34v10q0 19 -16 30 q-10 7 -20 7q-6 0 -13 -2q-17 -6 -28 -28q-9 -16 -9 -37v-11q4 -27 20 -45q13 -13 33 -13h7q26 3 39 21l7 9l8 -8q2 -2 3 -4zM676 159z" />
<glyph d="M226 520l23 -1l9 -18l13 -27l41 -84l42 85l13 29l9 15l20 1h46v-30h-10q-7 0 -11 -2q-3 -1 -5 -5l-1 -2v-1v-2v-13q1 -9 1 -11v-71q0 -3 -1 -13v-14q0 -5 1 -8q2 -4 5 -5q4 -2 11 -2h10v-30h-107v30h10q7 0 10 1t4 3q2 7 2 27v26l-20 -42q-1 -3 -7 -16q-7 -16 -12 -23 q-7 -5 -9 -6q-4 -1 -9 -1q-4 0 -10 1h-1l-1 1q-6 3 -7 4q-2 2 -5 6q-3 6 -6 13v-24h-95v30h10q7 0 10 1q4 2 5 5t2 9v5.5v6.5q-1 8 -1 11v70q0 4 1 13q1 5 1 9v4q-1 4 -2 7q-4 8 -23 8h-10v30h54zM247 393v-25q0 -19 3 -24v-1l2 -1q5 -1 12 -1h8l-2 4zM415 481zM347 268 q-7 6 -18 7h-10v30h91h17h92v-30h-10h-9v-1q1 -5 2 -8q0 -3 3 -7v-1q1 -2 1 -3l2 -1l25 -65l4 -9l5 12l24 59l2 4q1 4 3 6l1 2q0 3 1 4v3v4l-0.5 0.5l-0.5 0.5h-10h-10v30h96v-30h-10h-12q-2 -1 -6 -4q-1 -1 -3 -4q-3 -5 -5 -7l-3 -9l-2 -5v-2l-42 -99l-13 -31q-4 -8 -5 -11 q-3 -4 -7 -5.5t-11 -1.5q-2 -1 -4 -1q-7 0 -9 2q-5 2 -7 5q-2 5 -5 13l-15 34l-7 16l-6 -14l-15 -36q-5 -11 -7 -14l-4 -4q-1 0 -2 -1l-1 -1q-4 -2 -8 -2t-8 2q-1 0 -3 1t-3 2q-5 2 -6 4q-3 2 -5 6q-3 6 -5 11q0 3 -3 7l-3 8q-2 5 -22 56q-19 48 -31 72zM500 275zM445 181 l4 9q11 21 12 29q0 2 -7 20q-1 1 -3 6l-2 5l-5 12q-2 4 -5 7q-3 4 -6 6h-13h-10v1h-2v-1v-5v-1v-1q2 -3 3 -6l2 -6l1 -1l27 -65zM408 269z" />
<glyph d="M184 456q7 -1 11 -1q7 0 14 2q4 1 6.5 3t3.5 4q0 2 1 5q0 10 -18 22q-9 5 -20 11q-15 7 -26 15q-13 9 -20 18q-13 16 -13 34q0 14 8 27q18 30 53 33h7q12 0 24 -3v-1l8 -3q3 -1 4 -1q0 1 1 2q1 2 2 2q6 3 7 3q4 1 13 1h10v-86h-33l-1 9q-4 30 -20 37q-6 3 -11 3 q-6 0 -12 -3q-3 -1 -4 -2q-4 -2 -4 -8v-3v-2q4 -9 23 -20q4 -3 13 -7l12 -7q6 -3 14 -8t13 -10l9 -9q4 -5 6 -7q3 -5 4 -10l3 -13v-1v-4q0 -6 -4 -17q-8 -25 -31 -36q-18 -8 -37 -8q-3 0 -12 1q-5 0 -11 3l-10 3q-3 1 -7 2h-1v-1l-2 -8h-32v85h33l1 -9q2 -30 25 -37z M410 407q38 -3 54 -13q25 -15 25 -48q0 -34 -25 -49q-7 -4 -17 -7q-10 -4 -20 -5t-18 -1q-7 0 -19 1h-6v-40q0 -8 2 -12q1 -3 2 -3q1 -1 12 -1h10v-31h-108v30h10q7 0 10 1q4 2 5 6q1 2 2 8v5v7q-1 8 -1 11v70q0 4 1 13q1 6 1 10v4q-1 5 -2 8q-1 2 -1 3q-1 2 -3 2 q-3 2 -12 2h-10v30h10q83 0 98 -1zM384 324q19 -2 23 -2q8 0 16.5 4.5t10.5 17.5q1 3 1 5q0 7 -6 13q-9 8 -31 8q-9 0 -14 -1v-9v-36zM498 18q2 1 5 4q2 1 4 4q2 5 3.5 8.5t3.5 9.5q3 7 4 9l40 95l13 32q3 8 6 11q2 3 5 5q5 3 10 3h1h1l3 -1l1 -1h1l2 -1q1 -1 3.5 -1.5 t4 -1.5t3.5 -3q1 -1 2 -3q3 -4 4 -6.5l3 -7.5q1 -3 2 -5v-1v-1l1 -1l39 -94l13 -30q3 -7 3 -10q1 -1 1 -2q6 -10 22 -11h10v-30h-109v29h10q8 0 10 1h1h-1q-1 4 -1 7q-1 3 -3 7l-3 6l-1 2v2l-1 2q-2 5 -3 7l-1 1h-39h-9l-3 -7l-1 -2l-1 -1l-2 -4l-4 -7l-1 -8v-2v-2v-1h10h10 v-30h-96v29h10q11 0 14 1zM586 112l-10 -24h19zM160 426zM623 167z" />
<glyph d="M101 628h157l13 -1l6 -1l7 -20l16 -49h-14q-13 0 -17 1q-1 0 -2 1l-3 2l-3 5v-85l2 3l1 1q1 0 4 1.5l3 1.5q4 1 14 1h14l-16 -49l-7 -20l-6 -1l-12 -1h-157v30h10q7 0 11 2q3 1 4.5 4.5t1.5 8.5v15q-1 10 -1 13v71q0 2 1 11v6v6q-1 5 -2 7q-1 3 -3 4q-4 2 -12 2h-10v30z M410 407q38 -3 54 -13q25 -15 25 -48q0 -34 -25 -49q-7 -4 -17 -7q-10 -4 -20 -5t-18 -1q-7 0 -19 1h-6v-40q0 -8 2 -12q1 -3 2 -3q1 -1 12 -1h10v-31h-108v30h10q7 0 10 1q4 2 5 6q1 2 2 8v5v7q-1 8 -1 11v70q0 4 1 13q1 6 1 10v4q-1 5 -2 8q-1 2 -1 3q-1 2 -3 2 q-3 2 -12 2h-10v30h10q83 0 98 -1zM384 324q19 -2 23 -2q8 0 16.5 4.5t10.5 17.5q1 3 1 5q0 7 -6 13q-9 8 -31 8q-9 0 -14 -1v-9v-36zM499 21q7 6 9 9q3 6 9 20l42 101l12 29q3 8 5 10q2 4 6 6q6 3 11 3t8 -2q1 0 3 -1q3 -2 5 -4q4 -3 5 -6l1 -1v-1l3 -4q1 -3 3 -7l1 -3 l42 -101l12 -28q2 -5 2.5 -6.5l0.5 -1.5v-1q0 -1 1 -2v-1q5 -7 9 -9t13 -2h10v-30h-109v29h10q9 0 10 1q-1 4 -1.5 6.5t-2.5 7.5l-4 6v3l-1 2l-3 7q-1 1 -1 2h-39h-4.5h-4.5l-3 -7l-4 -7q-2 -4 -2 -7q-1 -4 -3 -9v-2v-1v-1h10h10v-30h-95v29h10q9 0 14 4zM586 112l-10 -24 h19zM260 478h-33v10q0 11 -1 13q0 2 -4 3h-6h-3h-31v-48h42q19 0 22 1h1q4 5 10 17zM260 568l-3 5q-7 14 -11 16q-2 1 -22 1h-42v-48h31q7 0 10 2q3 1 4 3v5v5l-1 11h34zM680 30zM679 33z" />
<glyph d="M184 456q7 -2 11 -2q7 0 14 3q4 1 6.5 3t3.5 4q0 2 1 5q0 10 -18 22q-9 5 -20 11q-15 7 -26 15q-13 9 -20 18q-13 16 -13 34q0 14 8 27q18 30 53 33h7q12 0 24 -3v-1l8 -3q3 -1 4 -1q0 1 1 2q1 2 2 2q6 3 7 3q4 1 13 1h10v-86h-33l-1 9q-4 30 -20 37q-6 3 -11 3 q-6 0 -12 -3q-3 -1 -4 -2q-4 -2 -4 -8v-3v-2q4 -9 23 -20q4 -3 13 -7l12 -7q6 -3 14 -8t13 -10l9 -9q4 -5 6 -7q3 -5 4 -10l3 -13v-1v-4q0 -6 -4 -17q-8 -25 -31 -36q-18 -8 -37 -8q-3 0 -12 1q-5 0 -11 3l-10 3q-3 1 -7 2h-1v-1l-2 -8h-32v85h33l1 -9q2 -30 25 -37z M395 410q9 0 24 -3q38 -7 58 -40q19 -30 19 -63v-3q-1 -35 -23 -66t-61 -36q-11 -1 -18 -1q-18 0 -34 6q-35 13 -52 46q-13 25 -13 53q0 8 1 17q6 38 30 62q21 21 59 27q5 1 10 1zM390 371q-18 -2 -30 -26q-11 -20 -11 -41q0 -19 9 -39q7 -15 18 -24q8 -6 19 -6h5 q18 2 30 26q11 22 11 42q0 19 -9 39q-7 15 -18 23q-9 6 -19 6h-5zM580 25q6 -1 10 -1q7 0 14 2q5 2 7 4q2 1 3 3q0 2 1 5v1q0 10 -17 21q-7 4 -21 11q-15 8 -25 15q-12 8 -20 18q-13 16 -13 34q0 14 8 27q18 30 52 33h6q12 0 25 -3v-1l8 -3q1 0 2.5 -1l1.5 -1q2 4 4 6h2 q2 1 3 1l1 0.5l1 0.5q4 1 12 1h10v-86h-32l-1 9q-4 30 -20 37q-7 3 -12 3q-6 0 -12 -2l-4 -2q-4 -3 -4 -9v-3q0 -2 1 -3q4 -8 23 -19q5 -3 13 -7l11 -7q6 -2 14 -7.5t13 -9.5l10 -10q4 -5 7 -10l2 -6l2 -14q1 -4 1 -8q0 -5 -2 -13q-14 -43 -70 -43h-11q-5 0 -11 2 q-6 1 -11 3q-3 1 -7 2v-8h-34v85h33l1 -9q2 -30 25 -38zM160 426zM624 189h1h-1z" />
<glyph d="M251 377q7 -2 11 -2q7 0 14 3q4 1 6.5 3t3.5 4q0 2 1 5q0 10 -18 22q-9 5 -20 11q-15 7 -26 15q-13 9 -20 18q-13 16 -13 34q0 14 8 27q18 30 52 33h6q12 0 26 -3v-1l8 -3l4 -1q2 3 3 4q5 3 7 3q4 1 12 1h10v-86h-32l-1 9q-4 30 -20 37q-6 3 -11 3q-6 0 -12 -3 q-4 -1 -6 -3t-3 -5v-3v-3t1 -2q4 -8 23 -19q5 -4 12 -7q8 -4 13 -7l13 -8q8 -5 13 -10q5 -4 11 -11t8 -14q2 -6 3 -14q1 -3 1 -6q0 -5 -4 -16q-8 -25 -31 -36q-18 -8 -37 -8q-3 0 -12 1q-5 0 -10 3l-10 3l-8 2h-1v-1l-2 -8h-32v85h33l1 -9q2 -30 25 -37zM609 420v-1 q-4 -1 -6 -7q-1 -5 -1 -10t1 -9q2 -7 2 -13q0 -8 -3 -14q-1 -3 -4 -6q-5 -6 -24 -13q-21 -9 -43 -9q-9 0 -18 2q-32 5 -55 26q-32 30 -32 78v3q1 51 37 80q29 23 65 23q11 0 20 -1q4 -1 13 -5q4 -1 6 -2v8h35v-84h-35v10q0 24 -22 33q-8 3 -15 3q-13 0 -25 -11 q-17 -14 -22 -38q-2 -10 -2 -20q0 -15 5 -30q8 -23 28 -33q2 -1 6 -2t7 -2h2h4q6 1 8 1q1 0 8 1v6q1 8 1 13v4q-1 6 -3 13q-1 4 -3 5h-1l-1 1h-10h-10v30h108v-30h-10h-11zM473 285h109v-29h-10q-7 0 -10 -1q-4 -2 -5 -6q-1 -2 -2 -7v-5.5v-6.5q1 -8 1 -11v-72q0 -3 -1 -13 v-15q0 -5 1.5 -8t1.5 -4q4 -1 14 -1h10v-31h-109v30h10q8 0 12 2t4 4q1 2 2 8v5v7q-1 8 -1 11v72q0 3 1 13v7.5v6.5q-1 5 -2.5 8.5t-2.5 4.5q-4 1 -13 1h-10v30zM353 117q-1 -6 -3 -8q-3 -4 -13 -13q-23 -20 -51 -21h-6q-35 0 -63 20q-31 23 -40 58q-3 13 -3 27q0 22 8 45 q12 28 37.5 44.5t55.5 16.5q19 0 29 -4h1q2 -1 5 -2t5 -2v8h34v-84h-34v10q0 23 -21 32q-9 5 -17 5q-11 0 -22 -9q-20 -16 -25 -44q-1 -9 -1 -17q0 -19 8 -34q16 -33 42 -33q5 0 8 1q16 2 30 11q2 1 6 4q6 5 9 7l9 6l6 -9q5 -9 5 -11q1 -3 1 -4zM227 347zM292 538z" />
<glyph d="M184 456q7 -2 11 -2q7 0 14 3q4 1 6.5 3t3.5 4q0 2 1 5q0 10 -18 22q-9 5 -20 11q-15 7 -26 15q-13 9 -20 18q-13 16 -13 34q0 14 8 27q18 30 53 33h7q12 0 24 -3v-1l8 -3q3 -1 4 -1q0 1 1 2q1 2 2 2q6 3 7 3q4 1 13 1h10v-86h-33l-1 9q-4 30 -20 37q-6 3 -11 3 q-6 0 -12 -3q-3 -1 -4 -2q-4 -2 -4 -8v-3v-2q4 -9 23 -20q4 -3 13 -7l12 -7q6 -3 14 -8t13 -10l9 -9q4 -5 6 -7q3 -5 4 -10l3 -13v-1v-4q0 -6 -4 -17q-8 -25 -31 -36q-18 -8 -37 -8q-3 0 -12 1q-5 0 -11 3l-10 3q-3 1 -7 2h-1v-1l-2 -8h-32v85h33l1 -9q2 -30 25 -37z M539 197h108v-29h-10q-7 0 -10 -1q-4 -2 -5 -6q-1 -2 -2 -8v-5v-7q1 -8 1 -11v-71q0 -3 -1 -13v-14q0 -5 1 -8q2 -4 3 -5q4 -1 13 -1h10v-30h-108v29h10q8 0 12 2t4 5q1 2 2 8v5v7q-1 8 -1 11v70q0 3 1 13v7.5v6.5q-1 6 -2.5 9.5t-2.5 4.5q-4 1 -13 1h-10v30zM478 258l4 -4 l1 -2q2 -3 2 -6h-1v-2q-2 -5 -2 -6q-4 -6 -12 -14q-26 -21 -53 -22h-4q-34 0 -58 14q-33 20 -46 61q-5 16 -5 33q0 21 10 42q13 28 36 44q24 16 53 18h8q14 0 24 -4h1l6 -3q3 -2 5 -2l1 9h33v-85h-34v10q0 19 -16 30q-10 7 -20 7q-6 0 -13 -2q-17 -6 -28 -28q-9 -16 -9 -37 v-11q4 -27 20 -45q13 -13 33 -13h7q26 3 39 21l7 9l8 -8q2 -2 3 -4zM160 426z" />
<glyph d="M282 473q2 -3 3 -6q2 -4 2 -7q-1 -5 -3 -8q-3 -5 -13 -13q-25 -21 -52 -22h-4q-33 0 -57 14q-33 21 -46 60q-5 18 -5 35q0 21 9 42q12 28 36 44t55 17h7q14 0 24 -4h1l4 -2h1l5 -3l1 9h33v-84h-34v10q0 19 -16 29q-10 7 -21 7q-6 0 -12 -1q-16 -6 -28 -29q-9 -17 -9 -37 v-11q4 -26 20 -44q13 -13 33 -13h7q26 3 39 20l3 4h10l3 -3q2 -1 4 -4zM539 197h109v-29h-10q-7 0 -10 -1q-5 -2 -5 -5q-1 -2 -2 -8v-5v-7q1 -8 1 -11v-72q0 -4 -1 -13q-1 -6 -1 -10v-4q1 -5 2 -8v0q2 -4 3 -5q4 -1 13 -1h10v-30h-109v29h10q8 0 12 2t5 5l1 2v1v3v13 q-1 8 -1 11v73q0 3 1 12v7.5v6.5q-1 5 -2 8v0q-2 4 -3 5q-4 1 -13 1h-10v30zM377 243h1q7 -4 15 -4q7 0 13 2t8 4t3 4v5v4q0 4 -4 8q-5 5 -8 7q-4 2 -13 7h-1l-1 1q-2 1 -7 4h-1l-9 7l-10 5q-6 3 -10 6t-10 8l-8 8l-1 1l-6 9q-3 6 -5 13q-1 6 -1 13t2 15q8 23 28 34 q16 9 36 9h8q12 -1 25 -6l3 -1l1 8h33v-86h-34v10q0 13 -6 23q-5 9 -16 12q-6 2 -10 2l-14 -2q-6 -3 -6 -8v-3q0 -4 4 -8q5 -6 7 -7q2 -2 12 -7l21 -12q17 -9 26 -15q9 -7 18 -20q10 -14 10 -31q0 -7 -5 -20q-9 -24 -32 -33q-17 -7 -34 -7q-5 0 -13 1q-5 1 -16 5q-9 3 -13 3 v-1l-2 -8h-31v85h31l2 -8q6 -30 20 -36z" />
<glyph d="M338 522h31v-86h-31l-2 8q-6 31 -18 36h-1q-6 4 -12 4t-12 -3q-3 0 -4 -1q-5 -3 -5 -8q0 -2 1 -4q0 -2 0.5 -2.5l0.5 -0.5q1 -2 3 -4q5 -6 6 -6q2 -2 11 -7l23 -13q20 -12 29 -19q10 -7 18 -22q5 -11 5 -23q0 -7 -1 -14q-7 -26 -32 -38q-18 -9 -40 -9h-5h-3q-5 0 -12 3 q-5 2 -9.5 3t-9.5 2v-1l-2 -8h-32v86h33l1 -9q1 -15 8 -25t19 -12q7 -2 11 -2q7 0 14 3l4 2q3 2 4 7v2v0.5v1.5q0 5 -3 9q-5 6 -8 8q-4 2 -13 7h-1l-1 1q-2 1 -9 5t-11 7q-4 2 -11 6q-8 5 -13 9l-9 9q-6 6 -9 12q-3 5 -5 12q-3 6 -3 13q0 2 1 3q0 9 2 16q8 23 29 33 q18 8 38 8h6q9 -1 25 -7h2zM394 283l7 20l6 1l12 1h149l19 -71h-13q-12 0 -16 1q-2 1 -3 1q-4 3 -8 8q-3 4 -6 12q-3 9 -6 11q-1 1 -2 1q-2 0 -4 0.5t-4 0.5q-5 0 -11 -1h-3v-93q0 -4 -1 -15v-17t2 -12q1 -3 5 -5q4 -1 10 -1h10v-29h-108v29h10q7 0 9 1q5 1 6 5q2 5 2 11v18 q-1 11 -1 15v93h-3q-5 1 -8.5 1t-6.5 -1q-5 -1 -6 -1q-3 -2 -7 -11t-8 -14q-3 -4 -5 -5q-5 -2 -6 -2q-4 -1 -13 -1h-14zM286 466z" />
<glyph d="M197 630q9 0 24 -3q38 -7 58 -40q19 -30 19 -63v-3q-1 -35 -23 -66t-60 -37q-9 -1 -18 -1q-19 0 -35 6q-35 12 -52 46q-13 26 -13 53q0 9 2 17q4 37 30 63q21 21 58 27q5 1 10 1zM193 591q-18 -2 -30 -26q-11 -20 -11 -41q0 -19 9 -39q7 -15 18 -24q8 -6 19 -6h4 q18 2 30 26q11 22 11 42q0 19 -9 39q-7 15 -17 23q-9 6 -19 6h-5zM677 43q2 -3 3 -6q3 -5 2 -8q-1 -5 -3 -8q-3 -5 -12 -12q-24 -20 -48 -21h-11q-31 0 -51 10q-35 19 -49 61q-6 18 -6 35q0 22 10 43q13 28 36 44q24 16 54 17h7q14 0 24 -4h1q2 -1 6 -2q4 -2 5 -2l1 8h33 v-84h-34v10q0 18 -15 29q-11 8 -22 8q-5 0 -10 -2q-17 -4 -29 -26q-11 -18 -11 -40q0 -4 1 -9q3 -27 19 -45q13 -14 34 -14h7q25 2 38 21l3 4h10l3 -3q2 -1 4 -4zM383 241q6 -2 12 -2q7 0 13 2q4 2 5.5 3.5t2.5 3.5t1 5q0 11 -16 22q-7 4 -20 11q-15 7 -26 14q-12 7 -20 18 q-14 17 -14 35q0 14 8 27q17 31 52 33h7q13 0 25 -4q1 0 12 -4q2 4 3 5q5 3 7 3q4 1 12 1h10v-86h-32l-1 9q-4 30 -22 37q-6 1 -11 1q-7 0 -13 -2q-7 -2 -7 -8v-3v-1v0l1 -1q3 -9 22 -20l14 -8l15 -9q7 -3 16 -9q10 -6 15 -13t9 -13t5 -11q1 -3 1 -7v-3q-1 -7 -2 -18v-1v-1 q-8 -25 -32 -37q-18 -8 -37 -8q-3 0 -12 1q-5 0 -11 3q-5 2 -10 3l-8 2v-1l-2 -8h-32v85h33l1 -9q2 -31 26 -37z" />
<glyph d="M304 520q49 0 72 -15q26 -15 26 -47l-1 -1q0 -33 -26 -49q-9 -5 -24 -8q-13 -3 -20 -3q-4 -1 -11 -1q-5 0 -14 1h-10v-39q0 -11 2 -15l2 -2h6h5l11 1v-31h-108v30h10q7 0 11 2q3 1 5 5q1 3 2 8v4q0 4 -1 10q-1 9 -1 13v71q0 2 1 11v12v4v0l-1 1v1q-2 4 -5 5q-4 2 -11 2 h-10v30h90zM296 481v-36v-3.5v-5.5q5 -1 14 -1q22 0 31 8q5 5 5 14v4q-1 11 -9 15q-7 5 -17 6h-6h-3l-12 -1h-3zM402 305l23 -1l9 -18l54 -112l42 86l13 28l9 16l20 1h46v-30h-10q-7 0 -11 -2q-3 -1 -5 -5l-1 -2v-1v-3v-13q1 -8 1 -11v-70q0 -3 -1 -13v-15q0 -5 1 -9 q2 -3 5 -4q4 -2 11 -2h10v-29h-108v29h10q9 0 12 2q3 1 4 3q0 1 1 3v7v43l-28 -59q-1 -3 -3 -6.5t-3 -4.5l-2 -5v-1l-1 -1q-2 -3 -3 -4q-2 -2 -4.5 -3t-5.5 -2q-4 -2 -9 -2t-10 1q-4 2 -7 5q-2 2 -5 6q-3 6 -6 14l-1 3v-28h-94v29h10q7 0 10 1q4 2 5 5l1 1l1 2v1v3v12 q-1 8 -1 11v74q0 4 1 12q1 5 1 9v4q-1 4 -2 7q-4 8 -22 8h-10v30h53zM423 181v-24q0 -21 2 -27v0q1 -3 4 -4q4 -1 10 -1h10q-2 4 -2 5q-5 10 -13 27zM591 266z" />
<glyph d="M103 452q6 5 9 9q3 6 9 19l41 98l13 33q3 7 4 10q3 4 8 6q6 3 9 3q4 0 7 -2q1 0 1.5 -0.5l0.5 -0.5q9 -4 10 -5q2 -2 3 -5q3 -4 3 -5q2 -2 4 -9l1.5 -3l0.5 -1l40 -96l13 -31q2 -5 2.5 -6.5l0.5 -1.5v-1q0 -1 1 -2v-2q6 -10 23 -10h10v-31h-109v30h10h9v1q-1 3 -1 6l-3 8 l-4 8v2l-1 1l-3 8v0h-40h-9l-3 -7l-1 -2l-1 -1l-1 -4q-3 -5 -4 -7q0 -3 -2 -8v-3v-1h10h10v-31h-95v30h10q9 0 14 4zM180 519h19l-9 24zM410 412q36 -2 53 -14q26 -16 27 -48v-1q0 -32 -26 -48q-7 -4 -17 -7q-10 -4 -21 -4q-9 -1 -16 -1q-4 -1 -9 -1t-11 1h-6v-39 q0 -9 2 -13q1 -3 3 -4h11h10v-30h-108v30h10q7 0 11 2q3 1 5 5q1 3 2 8v4q0 4 -1 10q-1 9 -1 13v71q0 2 1 11v13q0 3 -1 6q-2 4 -3 5q-4 1 -13 1h-10v31h10q82 0 98 -1zM384 328q12 -1 18 -1h4q8 1 16 5q10 5 12 16q1 3 1 5q0 8 -7 14q-8 7 -26 7h-1.5h-2.5q-10 0 -14 -1v-9 v-36zM677 43q2 -3 3 -6q3 -5 2 -8q-1 -5 -3 -8q-3 -5 -12 -12q-24 -20 -48 -21h-11q-31 0 -51 10q-35 19 -49 61q-6 18 -6 35q0 22 10 43q13 28 36 44q24 16 54 17h7q14 0 24 -4h1q2 -1 6 -2q4 -2 5 -2l1 8h33v-84h-34v10q0 18 -15 29q-11 8 -22 8q-5 0 -10 -2 q-17 -4 -29 -26q-11 -18 -11 -40q0 -4 1 -9q3 -27 19 -45q13 -14 34 -14h7q25 2 38 21l3 4h10l3 -3q2 -1 4 -4zM284 461zM283 464zM227 600z" />
<glyph unicode="&#xa1;" horiz-adv-x="197" d="M111 196q6 -8 7 -22q2 -9 2 -16q0 -3 -1 -6q0 -9 -1 -21t-1 -17q0 -22 -2 -66q-1 -44 -2 -70v-4q0 -24 6 -57q7 -35 20 -62l5 -10l-128 -46l39 225l26 188l10 -2q7 -2 9 -4q7 -3 11 -10zM163 317q0 -2 -1 -4l-1 -2l-1 -1q-7 -7 -23 -28q-22 -28 -25 -33v-1l-6 -16l-41 51 l-32 35l11 6q25 13 40 49l3 7l8 -1l3 -1q8 -4 25 -22q15 -16 19 -20q11 -6 15 -9q6 -4 6 -10z" />
<glyph unicode="&#xa2;" horiz-adv-x="346" d="M260 598l41 -15l-28 -88l1 -1q11 -1 18 -2.5t16 -5.5q11 -3 18 -8q5 -4 8 -8q0 -1 1 -1l1 -2l1 -1q3 -6 3 -13q0 -12 -9 -25q-14 -19 -29 -22h-7.5h-6.5q-7 1 -14 5l-12 5l-10 5l-69 -231q24 -6 44 -7h8q18 0 33 3q18 5 55 17l13 5v-14q0 -8 -3 -16q-3 -6 -6 -10 q-4 -5 -13 -11q-7 -5 -10 -6l-1 -0.5t-3.5 -2t-5.5 -3.5q-38 -20 -85 -20q-23 0 -47 4l-36 -130l-42 7l40 134q-43 12 -67 50q-27 41 -27 95q0 38 17 80q16 41 44 74q28 34 68 53q27 12 54 12q11 0 22 -2zM149 213l66 223q-11 2 -23 2h-16q-26 -3 -42 -17q-26 -24 -31 -68 q-2 -12 -2 -24q0 -33 12 -66q13 -34 36 -50zM336 467zM335 469z" />
<glyph unicode="&#xa3;" horiz-adv-x="453" d="M31 -23zM29 299zM124 318v33v26q1 22 8 55q7 35 19 57q38 66 112 93q35 13 69 13q37 0 73 -16l13 -1q11 -1 17 -3q4 -1 6 -3l1 -1h1q3 -7 4 -9v-3q0 -6 -3 -11q-9 -19 -55 -51l-8 -6l-6 8q-21 26 -51 38q-16 6 -32 6q-13 0 -26 -4q-29 -10 -43 -42q-6 -15 -11 -33 q-5 -17 -7 -39q-1 -22 -1 -37v-41q1 -17 1 -27h3q126 0 184 15l14 3l-2 -14q-1 -10 -4 -18q-4 -11 -14 -15q-7 -3 -11.5 -4t-15.5 -2q-1 0 -14 -2q-32 -4 -118 -4h-26v-58q0 -17 -1 -25l-4 -21q-3 -14 -7 -25q-2 -6 -10 -22q-12 -22 -31 -46l-16 -19q29 -2 85 -10 q45 -5 77 -5q25 0 40 3q10 2 22 15q15 15 29 26q12 10 25 10q6 0 12 -3l11 -3l-5 -10q-40 -86 -86 -103q-9 -4 -23 -4q-12 0 -21 1l-21 4q-14 3 -19 4q-50 8 -99 8h-3.5h-4h-3.5q-9 0 -55 -11q-28 -6 -47 -6q-15 0 -25 4l-11 5l7 10q11 16 46 53q35 36 46 58q8 15 14 42 q5 25 6 39v12q0 15 -1 39q-1 23 -1 34h-120l10 15q6 10 16 17q11 6 27 8q14 2 26 2q11 0 27 -1h11v2z" />
<glyph unicode="&#xa4;" horiz-adv-x="663" d="M200 501l50 24l98 15l82 -23l34 -16l56 50h11l42 -45l-12 -6q-1 -1 -8 -6l-11 -8l-10 -9q-7 -6 -10.5 -10t-7.5 -9q-3 -4 -3 -7q0 -4 4 -10l13 -22q10 -15 11 -18q17 -37 17 -85q0 -7 -1 -21q-2 -42 -25 -83q-4 -7 -9 -13q-6 -8 -9 -13q-1 -2 -1 -3v-2q3 -16 52 -51l9 -6 l-41 -44h-11l-3 3q-3 3 -16 18q-12 14 -22 22q-9 8 -15 9l-6 -1q-6 -3 -12 -8q-8 -5 -11 -7q-34 -19 -72 -24q-16 -2 -31 -2q-42 0 -80 16q-6 2 -18 10q-11 7 -21 12q-8 4 -13 4q-6 -2 -14 -9q-10 -8 -22 -23q-14 -15 -16 -17l-3 -3h-12l-39 42l7 7q1 2 10 7l9 6l10 8 q5 4 9 8l7 8q4 5 6 8q2 4 2 6q0 3 -3 9q-6 10 -13 20q-8 13 -10 17q-19 42 -19 95v15q4 42 26 82q4 7 9 13q6 8 9 13q1 3 1 4v1v0v1q-1 5 -9 14q-10 11 -24 22q-16 11 -20 16l-3 3v11l38 39zM309 476q-34 -5 -65 -25q-34 -23 -51 -55q-18 -34 -20 -68v-7q0 -31 12 -62 q14 -35 37 -60q24 -24 59 -37q24 -9 51 -9q14 0 24 2q33 5 59 21q26 15 41 35q15 22 25 48q8 23 8 46v7q-2 27 -9 54t-23 48q-15 22 -37 38q-20 16 -49 23q-16 4 -34 4q-13 0 -28 -3zM511 181z" />
<glyph unicode="&#xa5;" horiz-adv-x="616" d="M6 591h239v-38h-10q-1 0 -9.5 -0.5t-11.5 -1t-10 -1.5q-5 -1 -7 -3l-1 -1q-2 -1 -2 -2v-2q0 -3 1 -7q3 -10 7 -17q4 -8 12 -19t9 -12l1 -1l1 -1q11 -19 58 -92l48 -74q10 19 20 37l39 63q23 38 30 51l1 1l1 1l9 13q8 14 12 20q3 6 6 16q2 7 2 12v2q-1 6 -5 11q-4 4 -12 6 l-15 3q-7 0 -19 1l-12 1l3 12q7 18 23 21q3 1 5 1h7q13 0 25 -3q1 -1 2 -1h56h9q59 4 71 4h10v-38h-10q-39 -2 -66 -24q-28 -23 -56 -65q-23 -36 -59 -106l-44 -82h192v-45h-199v-59h199v-45h-199q-1 -6 -1 -16q-1 -19 -2 -31v-3q0 -9 4 -21q3 -14 8 -19q5 -4 31 -11 q25 -7 34 -19q3 -4 5 -9l3 -13l-246 -3v34h10q12 0 21 3q11 2 18 5q5 2 9 8l10 13q3 3 5 13l3 18q1 5 2 19t1 19v13h-191v45h191v59h-191v45h181q-52 106 -140 212q-18 22 -30 35q-11 11 -31 22q-20 10 -40 11h-8zM194 542z" />
<glyph unicode="&#xa6;" horiz-adv-x="491" d="M214 172h63v-346h-63v346zM214 634h63v-345h-63v345z" />
<glyph unicode="&#xa7;" horiz-adv-x="405" d="M258 630q24 0 43 -13q19 -11 19 -32q0 -6 -1 -10q-4 -15 -13 -23q-9 -9 -23 -9q-11 0 -20 2l-20 6.5t-39 9.5h-7q-11 0 -23 -5q-15 -6 -25 -24q-8 -13 -8 -24v-3q0 -9 3 -19q4 -9 12 -22q9 -13 13 -18.5t17 -21.5q8 -9 11 -13h1l44 -50l44 -53q17 -20 37 -51t31 -59 q14 -36 14 -70q0 -42 -20 -79q-2 -3 -23 -29q-16 -19 -17 -28q0 -11 11 -37q12 -30 13 -46v-2q0 -61 -49 -114q-50 -53 -112 -59q-9 -1 -15 -1q-14 0 -30 3q-27 3 -51 18q-22 14 -22 34q0 5 1 11q8 27 33 34q7 2 15 2q14 0 30 -10q42 -25 73 -25q35 0 51 40q7 18 9 36 q0 23 -11 49q-12 26 -24 42q-19 23 -34 40l-39 42q-32 34 -45 50.5t-32.5 45.5t-30.5 56q-13 33 -13 64q0 45 26 86q3 6 15 19q10 11 17 21q6 9 6 13q0 7 -8 28q-8 23 -8 37q0 58 39 104q41 49 96 56q8 1 39 1zM280 28q11 12 18 28q7 20 7 39v4q-1 22 -10 44q-14 40 -41 78 q-28 39 -69 85q-36 41 -54 63q-23 -14 -31 -46q-4 -16 -4 -30q0 -17 8 -36q18 -42 47 -79q32 -42 73 -86q36 -39 56 -64z" />
<glyph unicode="&#xa8;" horiz-adv-x="308" d="M132 469l12 -4l-11 -11q-8 -8 -19 -22q-17 -21 -20 -27l-7 -14l-34 41l-27 30l11 6q19 10 31 38l3 8l8 -2q3 -1 4 -2q6 -3 20 -17q11 -12 14 -16q11 -5 15 -8zM272 469l12 -4l-11 -11q-8 -8 -19 -22q-17 -21 -20 -27l-7 -14l-34 41l-27 30l11 6q19 10 31 38l3 8l8 -2 q3 -1 4 -2q6 -3 20 -17q11 -12 14 -16q11 -5 15 -8z" />
<glyph unicode="&#xa9;" horiz-adv-x="772" d="M509 131q-55 -31 -119 -31q-16 0 -33 2q-86 10 -142 65q-66 65 -66 162q0 4 1 7q2 102 73 167q41 38 97 55q41 12 83 12l47 -4h1h1q7 -2 29 -9q23 -8 31 -8q6 0 18 9q17 12 30 12h9l10 -158l-12 1q-17 1 -28 15q-10 12 -18 30q-7 15 -13 19v1q-45 51 -111 50 q-47 0 -82 -28.5t-50 -70.5q-16 -41 -16 -88q0 -1 1 -3q0 -49 17 -91q16 -41 52 -69q35 -27 82 -27h2.5h2.5q36 0 73 15q45 19 69 61l5 8l40 -20l-6 -9q-29 -46 -78 -75zM353 645q-84 -11 -143 -54q-53 -36 -84.5 -87t-41.5 -105q-5 -28 -5 -56t5 -56q10 -58 37 -106.5 t73 -87.5q47 -38 105 -56q42 -14 86 -14q16 0 33 2q80 9 140 49q55 37 88 88q34 53 44 109q6 29 6 59q0 28 -5 55q-10 59 -37 109q-28 49 -77 88q-48 38 -113 54q-43 12 -77 12q-15 0 -34 -3zM389 697q40 0 84 -11q73 -18 130 -60.5t90 -99.5q33 -56 45 -125q7 -38 7 -74 q0 -30 -4 -59q-10 -65 -47 -126q-37 -60 -98 -102q-75 -51 -176 -64q-19 -2 -36 -2q-39 0 -82 9q-70 16 -127 57.5t-90 97.5q-32 55 -47 121q-9 42 -9 84q0 23 3 46q8 64 42 125.5t91 105.5q76 59 186 74q20 3 38 3z" />
<glyph unicode="&#xaa;" horiz-adv-x="222" d="M54 585q27 20 59 20q3 0 5 -1q37 -1 56 -28q16 -22 16 -55q0 -32 -5 -55q-2 -6 -2 -13q0 -15 6 -31q1 -1 2 -3l3 -2h6l2 1q5 2 8 2q1 1 5 2q6 2 9 2h14l-5 -13q-7 -21 -27 -32q-15 -8 -31 -8q-5 0 -11 1q-19 3 -28 19l-8 -4q-13 -5 -19 -7l-18 -7q-13 -5 -20 -5 q-1 0 -2 1h-18h-1h-1q-28 7 -36 39q-2 9 -2 18q0 20 13 34q26 28 107 36q0 5 1 9v21q0 4 -3 12q-3 9 -8 15q-8 9 -19 9h-6q-2 -1 -4 -1q-5 -2 -6 -8v-4v-3l1 -8l-66 -22l1 14q1 33 32 55zM131 455q-22 0 -28 -2q-15 -3 -19 -5q-10 -5 -15 -12q-1 -2 -1 -5v0v-1v0v-1 q1 -3 4 -7q10 -11 28 -11h6q13 2 20 16q3 7 5 28z" />
<glyph unicode="&#xab;" horiz-adv-x="423" d="M191 -11q-5 2 -10 6l-8 5q-4 2 -9 9l-7 7t-8 9q-4 5 -4 6h-1l-2 1q-29 35 -81 87l-1 1l-1 2l-5 5l-10 8q-4 4 -9 10q-6 7 -9 13q-3 8 -3 15t4 13q3 6 6 10q3 2 8 7q3 2 4 3v1l1 1l1 1q37 38 60 64q6 7 13 16q10 14 19 24l19 20q12 12 24 18q11 5 21 5h4l14 -2l-70 -138 l-21 -47l25 -54l69 -133l-20 3q-7 1 -13 4zM383 -13q-5 2 -8 4q-4 1 -8 4q-5 3 -8 6l-12 12q-1 1 -6 7l-1 1l-92 102q-1 1 -12 11q-14 12 -19 20q-3 6 -5 11v3v2v-1q-1 1 -1 3q0 4 1 7q4 17 21 36q15 17 37 37q23 20 26 24l18 22q15 18 24 27q9 11 24 21q16 10 30 10h3 l15 -1l-70 -136l-22 -50l22 -47l72 -141l-20 4q-5 1 -9 2z" />
<glyph unicode="&#xac;" horiz-adv-x="616" d="M37 407h540v-299h-63v235h-477v64z" />
<glyph unicode="&#xad;" horiz-adv-x="289" d="M22 208h244v-71h-244v71z" />
<glyph unicode="&#xae;" horiz-adv-x="752" d="M310 345q37 1 59 7q32 8 48 36q10 18 10 39q0 9 -2 20q-8 31 -36 47q-9 5 -26 10q-12 3 -26 3h-6q-14 -1 -20 -7q-1 -1 -1 -2q-1 -2 -2 -6v-5q0 -6 1 -14q1 -13 1 -15v-113zM253 550q48 3 79 3q2 1 4 1q31 0 67 -7q41 -6 68 -22q39 -23 51 -58q6 -16 6 -32q0 -18 -7 -34 q-13 -31 -42 -57q-23 -20 -50 -29l37 -52l46 -66q5 -7 6 -8l4 -8l6 -7l6 -8l1 -1v-1v0h1q1 -1 2 -3q5 -4 7 -6q1 -1 5 -3.5t7 -3.5q3 -2 8 -3l8 -2l8 -2v-33h-10q-5 0 -28 -1q-14 -1 -26 -1h-15q-19 1 -31 10q-19 13 -38 38q-18 24 -39 57q-20 31 -28 42l-11 15 q-8 10 -10 13t-8 9t-9 8q-5 2 -12 4q-3 1 -6 1q-1 -9 -2 -24q-1 -23 -2 -40v-11q0 -12 1 -26q2 -19 7 -31t16 -20t28 -8h10v-35h-198v35h10q13 0 20.5 4t11.5 8.5t6 14.5t3 19v24v232q0 14 -0.5 21t-1.5 18q-2 8 -5 12q-4 4 -10 9q-7 3 -18 5l-8 1v36h10q19 0 65 3zM344 627 q-80 -11 -139 -51q-52 -36 -83 -85q-31 -50 -41 -103q-4 -26 -4 -53.5t4 -55.5q10 -56 36.5 -103.5t71.5 -84.5q44 -37 103 -55q41 -13 82 -13q16 0 33 2q78 9 136 48q53 34 86 85t43 105q5 28 5 57q0 27 -5 55q-10 58 -36 106q-27 48 -74.5 85.5t-108.5 52.5q-40 10 -76 10 q-17 0 -33 -2zM379 678q42 0 82 -9q69 -17 126 -60q56 -41 88 -97q31 -55 44 -121q7 -37 7 -72q0 -29 -4 -57q-10 -64 -46 -123t-96 -101q-73 -51 -171 -62q-16 -2 -32 -2q-38 0 -83 10q-69 16 -124 56t-87 94q-32 53 -46 118q-9 40 -9 80q0 24 3 47q8 61 41 122 q33 60 88 103q74 58 182 72q18 2 37 2z" />
<glyph unicode="&#xaf;" horiz-adv-x="308" d="M19 494h273v-53h-273v53z" />
<glyph unicode="&#xb0;" horiz-adv-x="405" d="M183 540q-26 -5 -44 -19t-25 -33q-7 -20 -9 -43v-6q0 -18 7 -36q9 -21 23 -37q13 -15 34 -23q12 -4 26 -4q8 0 21 3q26 5 45 19t26 33t9 42v6q0 19 -7 36q-9 21 -23 38q-13 15 -35 22q-13 5 -27 5q-8 0 -21 -3zM210 604q23 0 44 -6q36 -12 58 -39q22 -25 35 -57 q12 -29 12 -59v-10q-2 -34 -14 -65q-12 -32 -42 -55.5t-71 -31.5q-16 -3 -32 -3q-25 0 -47 7q-37 12 -59 37q-23 25 -36 57q-12 29 -12 60v9q2 35 14 66q13 32 43 56q30 23 74 31q20 3 33 3z" />
<glyph unicode="&#xb1;" horiz-adv-x="616" d="M41 53h536v-64h-536v64zM276 634h62v-216h239v-64h-239v-213h-62v213h-239v64h239v216z" />
<glyph unicode="&#xb2;" horiz-adv-x="289" d="M122 586q10 1 18 1q42 0 74 -24q31 -22 31 -58q0 -12 -4 -28q-7 -26 -28 -53q-21 -26 -39 -42q-19 -17 -51 -42l-20 -17h6q22 -1 34 -2h6q10 0 24 1q17 2 27 7q12 5 25 14q11 9 19 23l5 8l41 -20l-66 -96l-55 10l-158 -4l-12 12l3 7q7 12 17 22q9 9 24 21q11 10 18 16 q67 63 95 104q18 27 18 46t-17 32q-15 11 -34 11q-12 0 -26 -4q-5 -2 -13 -7q-9 -6 -14.5 -9t-12.5 -3q-4 0 -8 1q-7 3 -12 8q-3 3 -6 8l-4 8l7 5q51 40 88 44z" />
<glyph unicode="&#xb3;" horiz-adv-x="289" d="M61 563l16 9q12 6 16 7q19 7 47 7q26 0 49 -7q25 -9 37 -29q8 -13 8 -29q0 -11 -3 -23q-5 -14 -22 -34l-9 -10q21 -11 35 -26q27 -29 27 -56q0 -6 -2 -13q-7 -31 -34 -55q-26 -22 -63 -33q-23 -7 -44 -7q-11 0 -24 2q-24 5 -46 15q-27 13 -30 35v1q0 8 4 18q4 9 12 19 q5 7 7 11l4 10l37 -20l-1 -7q-1 -3 -1 -5q0 -16 28 -29q11 -5 25 -5q10 0 21 3q25 6 36 22q5 7 5 15q0 10 -7 25q-6 11 -17 21q-13 11 -24 16q-3 1 -7 1h-2q-4 -1 -8 -1q-6 0 -10 1q-7 3 -12 8l-6 8l-5 9l9 5q52 28 58 58q2 8 2 13q0 10 -5 16q-9 9 -25 9q-18 0 -36.5 -5.5 t-29.5 -13.5l-3 -2h-13l-17 32z" />
<glyph unicode="&#xb4;" horiz-adv-x="256" d="M82 370q-1 -2 -1 -3v-3h3q3 0 5 4v1l58 94l-3 3q-3 2 -5 3q-6 2 -11 2h-1zM127 471l1 2v-1zM147 463l1 1l-1 -2v1z" />
<glyph unicode="&#xb5;" horiz-adv-x="468" d="M41 356h81v-232q0 -5 1 -16q2 -11 4 -17q3 -8 7 -15q16 -24 48 -26h5q31 0 60 17q31 17 44 42q4 7 5 16v6q0 10 -1 23q-2 18 -2 23v179h82v-252q2 -59 25 -63q4 -1 5 -1q5 0 9 3q6 6 9 16q4 13 13 25q8 15 25 16l12 1l-1 -12q-5 -64 -36 -93q-30 -23 -57 -23q-5 0 -10 1 q-31 5 -52 34q-15 19 -21 43q-17 -18 -31 -29q-20 -16 -50 -30q-30 -13 -59 -13h-2h-2q-32 0 -56 16q-8 5 -14 11q1 -58 6 -81v-1v-1q0 -2 8 -34q7 -27 7 -46v-8q-4 -30 -31 -41q-8 -3 -16 -3q-19 0 -33 18q-10 15 -10 39q0 23 5 44l11 42q6 23 7 34q6 57 7 115v52v94 q-2 86 -2 117v10z" />
<glyph unicode="&#xb6;" horiz-adv-x="443" d="M240 -39l6 447q-10 -4 -18 -10q-13 -9 -19 -24q-7 -17 -10 -31q-1 -4 -6 -38q-4 -28 -5 -51q-1 -29 -1 -48v-130q0 -4 0.5 -12.5t0.5 -13.5q1 -6 1 -14q0 -6 1 -9l3 -12l1 -1q1 -5 3 -10q1 -1 2.5 -5t2.5 -6q9 -18 38 -32zM367 -100q-5 -8 -12 -11q-6 -3 -12 -3 q-2 -1 -6 -1q-3 0 -7 1q-7 0 -13 1t-13 4q-6 2 -8 2h-1h-1q-109 24 -167 93q-33 43 -60 94q-28 53 -30 100v7q0 58 45 130q47 77 101 111q83 55 258 62l15 1l-17 -44l-51 -7l-96 -16l-7 -331l-4 -151l92 -18l-1 -10q-1 -8 -5 -14z" />
<glyph unicode="&#xb7;" horiz-adv-x="163" d="M145 280q0 -2 -1 -4l-1 -2l-1 -1q-7 -7 -23 -28q-22 -28 -25 -33v-1l-6 -16l-41 51l-32 35l11 6q25 13 40 49l3 7l8 -1l3 -1q8 -4 25 -22q15 -16 19 -20q11 -6 15 -9q6 -4 6 -10z" />
<glyph unicode="&#xb8;" horiz-adv-x="308" d="M111 -83zM195 20h18l-29 -49q25 -13 42 -33q18 -23 18 -50q0 -4 -1 -7q-2 -31 -34 -57q-46 -38 -133 -38h-10v43h10q58 0 86 25q14 12 15 24v1q0 12 -14 23q-5 4 -11 6q-9 2 -19 5q-12 2 -18 5l-9 3l4 10q36 88 85 89z" />
<glyph unicode="&#xb9;" horiz-adv-x="289" d="M172 585q12 4 23 4q5 0 8 -1q4 0 7 -1q8 -3 14 -10q3 -4 5 -11l5 -13h-14q-14 0 -24 -8t-15 -21q-5 -14 -7 -36q-1 -15 -1 -27v-12q1 -19 2 -42t1 -32v-29v-15q1 -7 3 -12q2 -6 5 -8q7 -9 44 -9h10v-38h-10q-13 0 -40 1v-1l-92 4q-3 -1 -7 -1q-8 -2 -13 -2q-2 0 -4 1 q-8 0 -14 6q-3 2 -4 4q-4 5 -6 13l-5 13h14q16 0 26 5t15 14q6 11 9 23t4 29q1 11 1 21v10q-1 15 -2 33q-1 19 -1 28q0 3 2 24v17v13q-2 10 -6 15q-2 3 -4 4q-3 2 -5 2q-4 1 -9 2h-7h-29v34h10q49 0 111 9z" />
<glyph unicode="&#xba;" horiz-adv-x="289" d="M121 562q-23 -5 -33 -23q-10 -16 -10 -35v-8q3 -25 13 -48q9 -21 29 -33q13 -8 27 -8q6 0 14 2q24 5 35 24q11 18 11 38v4q-2 25 -12 47t-30 34q-14 8 -30 8q-7 0 -14 -2zM150 602q60 0 94 -48q23 -32 23 -70q0 -19 -5 -37q-20 -62 -94 -73q-13 -2 -24 -2q-22 0 -43 6 q-36 11 -56 35q-27 33 -27 70v8q3 39 34 71q31 31 73 38q13 2 25 2z" />
<glyph unicode="&#xbb;" horiz-adv-x="423" d="M240 349q11 -7 16 -12q8 -7 17 -16.5t13 -14.5q0 -1 1 -2l117 -127v-12l-119 -126l-101 -83l88 166l22 48l-25 53l-73 144l23 -8q10 -3 21 -10zM53 349q10 -7 15 -11q6 -5 18 -18q10 -12 12 -15l118 -128v-12l-3 -3q-68 -69 -113 -122q-1 -1 -4.5 -5.5t-5.5 -7.5l-13 -14 q-4 -4 -12 -11t-17 -11q-8 -5 -18 -6l-18 -2l72 143l21 47l-22 46l-74 148l23 -8q10 -3 21 -10z" />
<glyph unicode="&#xbc;" horiz-adv-x="636" d="M467 203l-66 -78h66v78zM47 575l171 17l7 -33l-9 -3q-15 -4 -24 -14t-14 -22q-4 -13 -7 -34q-2 -17 -2 -30v-5q1 -16 2 -38q2 -24 2 -35q0 -2 -1 -17v-22q0 -7 2 -16t6 -12q7 -9 44 -9h10v-38h-186l-4 38h11q15 0 24 5q9 4 14 14q6 11 9 23q4 12 5 29v31.5v32.5 q-1 20 -1 28q0 3 1 23q1 10 1 18t-1 14q-1 9 -5 13h-1v1q-2 3 -4 4q-3 2 -5 2.5t-7 1.5h-9h-29v33zM209 556zM329 112q6 9 12 15q5 6 14 14l13 13q76 87 92 108v1h1q2 2 12 16t15 20q6 5 17 12t24 9l12 2l-4 -195l74 11l-4 -15q-7 -22 -18 -33q-12 -11 -28 -11l-1 1h-23v-18 q0 -3 1 -11q1 -7 3 -10l5 -10q0 -1 1 -2t3 -2q5 -2 11 -3l9 -1v-34l-154 -4v39h10q13 0 21 3t12 7q3 4 5 13q2 10 3 19v14h-155l7 14q4 9 10 18zM203 131l181 328l57 112l31 51l67 17l-10 -20q-35 -67 -134 -239q-89 -156 -146 -270q-10 -18 -16 -33q-11 -26 -20 -43.5 t-23 -37.5q-15 -21 -33 -33q-18 -10 -38 -10h-4l-16 1z" />
<glyph unicode="&#xbd;" horiz-adv-x="636" d="M204 135l180 324l57 112l30 51l69 18l-145 -264q-87 -152 -145 -266q-8 -15 -15 -33q-11 -26 -20 -44t-24 -38q-15 -22 -34 -32q-18 -10 -37 -10h-5l-16 1zM465 308q10 1 20 1q41 0 73 -24q30 -22 30 -58q0 -12 -4 -28q-9 -33 -35 -63q-24 -27 -67 -63l-34 -29h7 q20 -1 33 -1q12 0 30 2q17 2 27 6q11 4 23 13.5t21 23.5l5 7l38 -20l-6 -10q-1 -2 -13 -24q-11 -22 -21 -36q-11 -16 -25 -22q-4 -2 -7 -2q-2 -1 -3 -1h-3q-8 0 -20 4q-17 5 -21 5q-14 0 -50 -2q-37 -3 -66 -3q-30 0 -50 10l-6 3v13l3 3q14 14 50 46t60 57q22 23 42 52 t20 48q0 17 -16 29t-35 12q-11 0 -24 -4q-5 -2 -14 -8l-14 -8q-7 -3 -13 -3q-4 0 -7 1q-8 2 -13 8q-3 3 -6 8l-4 8l7 5q51 39 88 44zM175 586q16 3 23 3l3 -1q20 0 25 -20l2 -9l-9 -3q-15 -4 -24 -14t-14 -22t-7 -31q-1 -15 -1 -27v-8q1 -16 2 -38q1 -23 1 -34v-41 q0 -7 2 -17t6 -13q7 -9 44 -9h10v-39l-11 1q-39 4 -90 4h-36q-3 0 -12 -1q-8 -2 -13 -2q-2 0 -4 1q-8 0 -14 6q-3 2 -4 4q-4 5 -6 13l-5 13h33q4 0 11 3t10 7q5 6 7 14q2 9 2 22t1 22q5 36 5 83q0 43 -5 86l-56 4v33h10q58 0 114 10z" />
<glyph unicode="&#xbe;" horiz-adv-x="636" d="M467 203l-66 -78h66v78zM68 567l22 10q15 7 27 8q10 2 25 2h2.5h3.5q10 0 24 -3q30 -8 47 -31q11 -15 11 -32q0 -11 -5 -24q-3 -9 -9 -18q-6 -10 -15 -20l-4 -4q22 -11 36 -26q26 -27 26 -55q0 -7 -2 -15q-8 -32 -35 -55q-26 -22 -63 -33q-23 -7 -44 -7q-10 0 -23 2 q-25 5 -47 16q-26 12 -30 33v5q0 7 3 15q4 9 12 20q7 9 8 10l5 10l36 -20l-1 -7q-1 -3 -1 -5q0 -16 28 -29q11 -5 26 -5q10 0 21 3q25 6 36 22q4 7 4 16q0 11 -6 24q-5 10 -18 21t-24 16q-3 1 -7 1h-2q-4 -1 -8 -1q-6 0 -10 1q-7 3 -12 8l-6 8l-5 9l9 5q52 28 58 58 q2 9 2 14q0 9 -5 15q-8 9 -24 9q-19 0 -37.5 -5.5t-29.5 -13.5l-3 -2h-13l-18 32zM329 112q6 9 12 15q5 6 14 14l13 13q76 87 92 108v1h1q2 2 12 16t15 20q6 5 17 12t24 9l12 2l-4 -195l74 11l-4 -15q-7 -22 -18 -33q-12 -11 -28 -11l-1 1h-23v-18q0 -3 1 -11q1 -7 3 -10 l5 -10q0 -1 1 -2t3 -2q5 -2 11 -3l9 -1v-34l-154 -4v39h10q13 0 21 3t12 7q3 4 5 13q2 10 3 19v14h-155l7 14q4 9 10 18zM203 131l181 328l57 112l31 51l67 17l-10 -20q-35 -67 -134 -239q-89 -156 -146 -270q-10 -18 -16 -33q-11 -26 -20 -43.5t-23 -37.5q-15 -21 -33 -33 q-18 -10 -38 -10h-4l-16 1z" />
<glyph unicode="&#xbf;" horiz-adv-x="259" d="M168 158q0 -44 -12 -62q-10 -15 -46 -23q-29 -7 -36 -21q-11 -19 -11 -38q0 -20 11 -39q22 -43 62 -53q3 -1 24 -3q19 -1 35 -4q17 -4 27 -13q4 -4 6 -11q2 -6 2 -13q1 -3 1 -6q0 -10 -2 -22t-4 -27t-2 -19v-12l-12 2q-15 3 -29 23q-10 14 -20 18q-10 3 -22 6q-8 2 -30 8 q-13 4 -25 13q-36 26 -51 67q-13 32 -13 65q0 10 2 21q4 45 25 80q10 17 38 37q23 17 31 26q7 8 11 27q5 22 6 26l4 15l12 -9q18 -13 18 -59zM213 317q0 -2 -1 -4l-1 -2l-1 -1q-7 -7 -23 -28q-22 -28 -25 -33v-1l-6 -16l-41 51l-32 35l11 6q25 13 40 49l3 7l8 -1l3 -1 q8 -4 25 -22q15 -16 19 -20q11 -6 15 -9q6 -4 6 -10z" />
<glyph unicode="&#xc6;" horiz-adv-x="970" d="M371 572v36l541 -8v-10q-2 -112 -40 -125l-13 -4v14q0 6 2 18q1 11 1 19q0 5 -3 12q-4 9 -13 16q-8 7 -22 11l-28 7q-12 2 -33 2q-22 0 -32 -0.5t-31 -2.5q-5 0 -13.5 -1t-10.5 -1q-10 -1 -23 -1h-27q-10 -1 -22 -4q-10 -2 -15 -6.5t-7 -9.5q-3 -7 -4 -14v-17v-17 q-3 -78 -4 -151q84 -3 165 -3q3 0 19 -1h13h8q5 1 16 3q8 1 13 6h1q12 8 20 47l1 8h37v-194h-38l-1 9q-2 48 -19 61q-17 15 -73 15h-161q0 -126 3 -168v-11v-11q-1 -3 -1 -6q0 -7 2 -15q1 -10 5 -15q1 -2 2 -2q12 -10 62 -10q8 0 48 -1q27 -1 42 -1h13q15 1 43 5q26 4 47 15 q34 17 49 38q3 4 9 19q7 15 15 25q9 10 21 15l15 6l-1 -15q-5 -122 -44 -149q-7 -5 -14 -6q-4 -1 -8 -1q-2 0 -4 1q-4 0 -13 2q-8 1 -9 1h-1q-9 1 -82 1q-66 0 -186 -5q-120 -6 -164 -7h-12l1 12q2 4 3 7q6 13 29 24q21 11 26 22q7 16 11 37q3 22 4 35v18v27q0 7 -0.5 17.5 l-0.5 10.5q-27 0 -76 2q-57 2 -85 2h-31h-15q-8 -1 -14 -3q-5 -2 -8 -4l-1 -1q-8 -5 -15 -14q-7 -10 -16.5 -27t-11.5 -21l-11 -18l-12 -18q-4 -6 -9 -17q-5 -10 -6 -16v-2q0 -6 2 -11q1 -5 7 -10t18 -10q12 -4 29 -5h10v-33h-232v36l8 2q23 3 42.5 13.5t37.5 30.5 q21 21 31 34q12 14 30 40v1h1q3 4 4 5l1 1q1 0 1 0.5v0.5q155 211 263 401zM316 315q-20 -31 -31 -61l200 -4q0 21 1 68q1 40 1 67v23q-1 29 -6 75q-4 37 -11 68l-10 -10q-9 -12 -22 -36q-13 -23 -16 -28l-48 -73q-34 -49 -58 -89z" />
<glyph unicode="&#xc7;" horiz-adv-x="595" d="M372 606q66 0 147 -29q14 -4 25 -4h5q14 3 17 3q16 0 16 -14q0 -3 -2 -8q-17 -38 -23 -99q-2 -17 -16 -17t-19 14q-1 4 -1 9v4q1 7 1 11q0 16 -6 25q-8 13 -31 26q-20 12 -59 23q-38 11 -70 11q-49 0 -66 -4q-61 -17 -105 -61q-37 -38 -54 -84q-16 -46 -16 -117 q0 -62 17 -101q33 -76 102 -119.5t139 -43.5q64 0 112 32q44 31 55 75q4 14 16 14q2 0 6 -1q15 -4 15 -16v-6q-4 -12 -15 -49q-11 -34 -15 -55l-1 -6l-7 -2q-120 -27 -182 -27l-14 -22q27 -13 45 -33q19 -23 19 -50q0 -4 -1 -7q-3 -31 -36 -57q-49 -38 -141 -38h-10v43h10 q62 0 92 25q14 12 14 24v1q0 12 -14 23q-5 4 -12 6q-9 2 -20 5q-12 2 -18 5l-10 3l4 10q19 43 40 65q-110 12 -191 82q-95 86 -95 212q0 74 19.5 125.5t63.5 97.5q60 58 170 84q51 12 100 12z" />
<glyph unicode="&#xd0;" horiz-adv-x="723" d="M32 589q40 0 136 9q70 6 128 6q22 0 43 -1q77 -3 139 -26q68 -25 119 -75q48 -49 68 -108q18 -53 18 -107q0 -6 -1 -13q-2 -62 -37 -120q-34 -57 -99 -96q-39 -23 -77 -35q-42 -13 -80 -16q-37 -3 -80 -4q-18 -1 -36 -1h-23v-2q-3 1 -7 2q-7 1 -17 1h-23q-32 0 -81 -1 q-67 -3 -97 -3h-10v39h10q37 0 48 15q5 6 7 13q3 10 4 17t2 21v9v6v2q3 38 3 122v36h-70v45h70v80q0 15 -1 40q-2 23 -3 45q-5 34 -15 49q-9 13 -38 13h-10v38h10zM177 399q-2 -47 -2 -75h174v-45h-174q0 -26 2 -72q2 -55 2 -82q0 -4 -2 -21q-1 -9 -1 -17q0 -5 1 -9 q0 -9 4 -13q19 -23 134 -23q123 0 196 76q73 77 73 193q0 102 -82 176t-194 74h-46q-14 0 -41 -6q-24 -5 -33 -14h-1v0v-1q-8 -11 -8 -62q0 -25 -2 -79z" />
<glyph unicode="&#xd7;" horiz-adv-x="503" d="M131 343l43 -42q23 -23 35 -34q3 -2 15 -14q11 -7 18 -11q5 -4 8 -6h2h1h1.5h1t0.5 1q6 2 10 5h8q4 4 12 9q2 2 2 3v2l4 3q12 11 41 34q25 20 44 42q17 19 30 37l6 7l38 -31v-12l-119 -107q-2 -1 -15 -12q-12 -10 -18 -16l-3 -3l-1 -2q0 -2 1 -3.5t3 -3.5l11 -11 q4 -4 14 -11q10 -6 13 -9q0 -1 1 -1l35 -32q23 -19 42 -40q6 -5 13.5 -11.5t12 -10.5t7.5 -7l3 -3v-9l-38 -32l-159 145q-18 -22 -42 -44q-23 -18 -66 -49q-34 -30 -46 -46h-3h-13l-27 26v9l117 110l31 32l-26 28l-89 77l-1 2l-30 38l26 37l9 -5q18 -12 37 -29z" />
<glyph unicode="&#xd8;" horiz-adv-x="724" d="M581 515l81 88l32 -27v-12l-84 -74q53 -42 70 -114q9 -37 9 -74q0 -38 -9 -75q-19 -74 -62 -125q-55 -64 -140 -93q-59 -21 -121 -21q-24 0 -52 4q-49 7 -93 26q-41 18 -67 47l-76 -80h-13l-3 4q-7 9 -7 21q0 32 70 82q-35 32 -59 99q-18 47 -18 97q0 39 12 79 q26 90 97 148q41 32 102 54q58 20 118 23q9 1 18 1q52 0 102 -18q55 -20 93 -60zM586 344q-13 47 -35 90q-18 -10 -36 -27q-23 -22 -49 -50q-28 -30 -43 -43q-28 -22 -52 -44l-60 -60l-49 -48q-2 -1 -19 -15q-16 -13 -23 -22q-5 -8 -6 -13q0 -1 2 -4q3 -3 5.5 -6t6.5 -6 l8 -7l9 -6l9 -6q3 -1 10 -6q2 -1 4.5 -2.5t3.5 -2.5q54 -32 116 -35h10q56 0 107 30q49 29 73 76q24 46 24 98v2q-1 55 -16 107zM145 228q14 -43 34 -82q13 8 28 21q20 18 43 43q24 25 34 35l147 137q6 6 25 22l28 23q9 8 22 22q9 9 16 18l-30 22q-27 20 -41 29 q-14 8 -37 18q-25 10 -48 13q-9 1 -22 1q-27 0 -61 -9q-57 -15 -93 -47q-36 -33 -49 -75q-12 -39 -12 -83v-10q2 -51 16 -98z" />
<glyph unicode="&#xde;" horiz-adv-x="531" d="M178 251q1 -64 1 -101l24 -3q25 -2 36 -3q6 -1 13 -1t16 1q18 1 34 5q48 11 78 47q29 38 34 81v17q0 37 -16 70q-21 43 -64 65.5t-104 22.5h-9q-28 -1 -37 -7q-2 -1 -2 -2q-5 -6 -7 -18q-1 -10 -1 -23v-15l2 -26q0 -36 2 -110zM18 601h235v-37l-9 -1q-35 -3 -49 -20 q-12 -14 -15 -41q24 3 49 3q46 0 94 -11q82 -18 129 -66q39 -40 49 -90q3 -18 3 -34q0 -31 -11 -58q-18 -43 -56.5 -75.5t-94.5 -46.5q-56 -13 -112 -13q-25 0 -50 3q2 -41 17 -59q16 -20 65 -21h11v-39h-241v33l8 2q9 2 16.5 5t12.5 6t9 9l7 10q2 2 4 10q2 9 3 12q0 4 1 15 t1 15v35q0 16 -7 307v16q-1 14 -1 18q0 3 -1 15q-1 11 -2 13q-1 4 -4 15q-1 4 -1 6q-1 2 -2 2q-4 4 -10 11q-3 5 -7 6q-7 3 -13 4q-8 2 -19 3l-9 1v37z" />
<glyph unicode="&#xdf;" horiz-adv-x="493" d="M24 315q7 15 25 15q9 1 29 1h4q5 1 7 5q5 12 5 46t1 42q6 43 18 76q14 34 37 65q24 31 64 46q28 10 62 10q15 0 25 -1q46 -6 79 -32q31 -25 46 -60q11 -27 11 -59q0 -8 -1 -16q-3 -40 -26 -75v-1l-1 -1l-9 -11l-10 -10q-5 -5 -13 -10q-8 -4 -11 -7q-4 -3 -16 -7 q-10 -3 -12 -4q-1 -1 -2 -1q36 -13 64 -40q38 -36 52 -81q7 -23 7 -48q0 -23 -7 -48q-13 -51 -54 -85q-14 -11 -44 -24q-31 -13 -62 -13l-2 1q-40 0 -43 33q-1 4 -1 6q0 19 18 25q8 3 17 3q10 0 21 -3q17 -5 34 -7q6 -1 11 -1q7 0 9 1q21 15 25 50q1 11 1 22q0 24 -6 46 q-8 31 -25 59q-29 48 -72 67h-1q-5 3 -23 7q-23 4 -35 12q-14 9 -14 28v10h11q89 0 122 43q17 22 20 51q1 10 1 19q0 21 -5 41q-8 28 -29 51q-20 21 -49 27q-8 2 -16 2q-13 0 -25 -5q-18 -7 -29 -23q-11 -17 -18 -36q-6 -16 -10 -40q-18 -105 -18 -233q0 -92 7 -178 q1 -11 8.5 -17t14.5 -8q12 -3 24 -10q14 -9 17 -23l3 -12l-217 4v32l9 1q40 3 50 12q1 1 3 5t3 7q1 2 2 7t1 7q0 3 1 9v4v4q4 44 4 116q0 4 1 20v26q0 9 -3 20q-2 10 -7 16q-3 4 -11 6t-21 3q-14 1 -21 2l-10 2l2 10q2 5 3 7z" />
<glyph unicode="&#xe0;" horiz-adv-x="384" d="M105 45q4 -7 5 -8h1l1 -1q6 -4 18 -4q16 0 28 2q10 3 33 10q19 6 31 14q-2 24 -2 37q0 18 1 29h-9q-19 0 -29 -1q-30 -3 -38 -5q-22 -5 -33 -15q-7 -6 -11 -22q-2 -7 -2 -14q0 -4 1 -11q1 -5 4 -10zM266 315q14 -12 24 -27q11 -19 13 -46q1 -19 1 -41v-8v-6q0 -15 -3 -42 q-2 -31 -2 -46q0 -19 1 -37q0 -7 2 -12l1 -1q1 -5 6 -9t6 -4l1 -1h5l3 2l23 7h3q5 0 8 -3l7 -3v-6l1 -2v-11l-5 -5q-4 -3 -8 -4l-66 -22q-3 -2 -6 -2q-1 -1 -3 -1h-4q-3 0 -9 4q-11 6 -14 8q-11 10 -15 16t-7 13q-24 -12 -38 -17q-31 -12 -57 -18q-24 -5 -43 -5h-3h-3 q-11 0 -19 4q-11 5 -15 7l-1 1l-1 1q-7 7 -10.5 16t-4.5 14q-3 15 -3 32.5t5 35.5q2 5 6 13l1 1q2 3 5 6q2 1 4 3q1 0 1 1l1 1h1q29 15 67 25q37 9 86 15l16 2l2 41q1 12 1 21q0 8 -1 14q-3 17 -15 29q-6 6 -21 14q-20 11 -30 13h-8q-10 0 -18 -2q-10 -4 -17 -10 q-2 -3 -2 -7v-3q0 -9 1 -14l1 -7l-65 -27l-3 11l-2 8q-2 11 -2 17q0 9 6 20q6 9 25 20q23 13 43 21q22 8 59 15l24 3h1q11 0 27 -7q23 -9 36 -19zM226 422q4 -6 3 -11q0 -8 -3 -13q-3 -4 -9 -7t-14 -3q-19 0 -27 15l-63 92q-3 5 -4 8v3q1 12 11 19q3 3 9 6h1q12 4 21 4 q19 0 23 -13z" />
<glyph unicode="&#xe1;" horiz-adv-x="384" d="M105 45q4 -7 5 -8h1l1 -1q6 -4 18 -4q16 0 28 2q10 3 33 10q19 6 31 14q-2 24 -2 37q0 18 1 29h-9q-19 0 -29 -1q-30 -3 -38 -5q-22 -5 -33 -15q-7 -6 -11 -22q-2 -7 -2 -14q0 -4 1 -11q1 -5 4 -10zM266 315q14 -12 24 -27q11 -19 13 -46q1 -19 1 -41v-8v-6q0 -15 -3 -42 q-2 -31 -2 -46q0 -19 1 -37q0 -7 2 -12l1 -1q1 -5 6 -9t6 -4l1 -1h5l3 2l23 7h3q5 0 8 -3l7 -3v-6l1 -2v-11l-5 -5q-4 -3 -8 -4l-66 -22q-3 -2 -6 -2q-1 -1 -3 -1h-4q-3 0 -9 4q-11 6 -14 8q-11 10 -15 16t-7 13q-24 -12 -38 -17q-31 -12 -57 -18q-24 -5 -43 -5h-3h-3 q-11 0 -19 4q-11 5 -15 7l-1 1l-1 1q-7 7 -10.5 16t-4.5 14q-3 15 -3 32.5t5 35.5q2 5 6 13l1 1q2 3 5 6q2 1 4 3q1 0 1 1l1 1h1q29 15 67 25q37 9 86 15l16 2l2 41q1 12 1 21q0 8 -1 14q-3 17 -15 29q-6 6 -21 14q-20 11 -30 13h-8q-10 0 -18 -2q-10 -4 -17 -10 q-2 -3 -2 -7v-3q0 -9 1 -14l1 -7l-65 -27l-3 11l-2 8q-2 11 -2 17q0 9 6 20q6 9 25 20q23 13 43 21q22 8 59 15l24 3h1q11 0 27 -7q23 -9 36 -19zM220 515l-52 -101q-2 -2 -2 -3q0 -2 1 -3h3q4 0 5 4l1 1l67 94l-3 3q-3 2 -6 3q-7 2 -13 2h-1zM221 516l-1 -1q0 1 1 2v-1z M243 506v1l1 1z" />
<glyph unicode="&#xe2;" horiz-adv-x="384" d="M105 45q4 -7 5 -8h1l1 -1q6 -4 18 -4q16 0 28 2q10 3 33 10q19 6 31 14q-2 24 -2 37q0 18 1 29h-9q-19 0 -29 -1q-30 -3 -38 -5q-22 -5 -33 -15q-7 -6 -11 -22q-2 -7 -2 -14q0 -4 1 -11q1 -5 4 -10zM266 315q14 -12 24 -27q11 -19 13 -46q1 -19 1 -41v-8v-6q0 -15 -3 -42 q-2 -31 -2 -46q0 -19 1 -37q0 -7 2 -12l1 -1q1 -5 6 -9t6 -4l1 -1h5l3 2l23 7h3q5 0 8 -3l7 -3v-6l1 -2v-11l-5 -5q-4 -3 -8 -4l-66 -22q-3 -2 -6 -2q-1 -1 -3 -1h-4q-3 0 -9 4q-11 6 -14 8q-11 10 -15 16t-7 13q-24 -12 -38 -17q-31 -12 -57 -18q-24 -5 -43 -5h-3h-3 q-11 0 -19 4q-11 5 -15 7l-1 1l-1 1q-7 7 -10.5 16t-4.5 14q-3 15 -3 32.5t5 35.5q2 5 6 13l1 1q2 3 5 6q2 1 4 3q1 0 1 1l1 1h1q29 15 67 25q37 9 86 15l16 2l2 41q1 12 1 21q0 8 -1 14q-3 17 -15 29q-6 6 -21 14q-20 11 -30 13h-8q-10 0 -18 -2q-10 -4 -17 -10 q-2 -3 -2 -7v-3q0 -9 1 -14l1 -7l-65 -27l-3 11l-2 8q-2 11 -2 17q0 9 6 20q6 9 25 20q23 13 43 21q22 8 59 15l24 3h1q11 0 27 -7q23 -9 36 -19zM63 387l23 49q9 20 17 32l19 34q12 21 21 32l15 21q6 8 21 15q12 6 26 6q5 0 10 -1q11 -2 20 -9q8 -5 12 -10t10 -15 q5 -8 7 -11l23 -38l27 -50q12 -23 20 -40l7 -15l-16 1q-25 1 -47 20q-25 19 -52 47l-24 25q-19 -26 -51 -54q-40 -37 -72 -38z" />
<glyph unicode="&#xe3;" horiz-adv-x="384" d="M105 45q4 -7 5 -8h1l1 -1q6 -4 18 -4q16 0 28 2q10 3 33 10q19 6 31 14q-2 24 -2 37q0 18 1 29h-9q-19 0 -29 -1q-30 -3 -38 -5q-22 -5 -33 -15q-7 -6 -11 -22q-2 -7 -2 -14q0 -4 1 -11q1 -5 4 -10zM266 315q14 -12 24 -27q11 -19 13 -46q1 -19 1 -41v-8v-6q0 -15 -3 -42 q-2 -31 -2 -46q0 -19 1 -37q0 -7 2 -12l1 -1q1 -5 6 -9t6 -4l1 -1h5l3 2l23 7h3q5 0 8 -3l7 -3v-6l1 -2v-11l-5 -5q-4 -3 -8 -4l-66 -22q-3 -2 -6 -2q-1 -1 -3 -1h-4q-3 0 -9 4q-11 6 -14 8q-11 10 -15 16t-7 13q-24 -12 -38 -17q-31 -12 -57 -18q-24 -5 -43 -5h-3h-3 q-11 0 -19 4q-11 5 -15 7l-1 1l-1 1q-7 7 -10.5 16t-4.5 14q-3 15 -3 32.5t5 35.5q2 5 6 13l1 1q2 3 5 6q2 1 4 3q1 0 1 1l1 1h1q29 15 67 25q37 9 86 15l16 2l2 41q1 12 1 21q0 8 -1 14q-3 17 -15 29q-6 6 -21 14q-20 11 -30 13h-8q-10 0 -18 -2q-10 -4 -17 -10 q-2 -3 -2 -7v-3q0 -9 1 -14l1 -7l-65 -27l-3 11l-2 8q-2 11 -2 17q0 9 6 20q6 9 25 20q23 13 43 21q22 8 59 15l24 3h1q11 0 27 -7q23 -9 36 -19zM51 398q1 26 10 49q9 24 24 38t31 15q3 1 7 1q14 0 31 -4q23 -6 39 -13l37 -16l33 -14q9 -3 15 -3q9 0 17 7q15 12 18 35l1 8 h38v-10q-1 -27 -10 -48q-10 -24 -24 -37t-31 -16q-5 -1 -10 -1q-13 0 -29 4q-22 5 -39 11l-38 16q-17 7 -35 13q-9 3 -15 3q-8 0 -16 -6q-13 -12 -15 -33l-1 -9h-38v10z" />
<glyph unicode="&#xe4;" horiz-adv-x="384" d="M105 45q4 -7 5 -8h1l1 -1q6 -4 18 -4q16 0 28 2q10 3 33 10q19 6 31 14q-2 24 -2 37q0 18 1 29h-9q-19 0 -29 -1q-30 -3 -38 -5q-22 -5 -33 -15q-7 -6 -11 -22q-2 -7 -2 -14q0 -4 1 -11q1 -5 4 -10zM266 315q14 -12 24 -27q11 -19 13 -46q1 -19 1 -41v-8v-6q0 -15 -3 -42 q-2 -31 -2 -46q0 -19 1 -37q0 -7 2 -12l1 -1q1 -5 6 -9t6 -4l1 -1h5l3 2l23 7h3q5 0 8 -3l7 -3v-6l1 -2v-11l-5 -5q-4 -3 -8 -4l-66 -22q-3 -2 -6 -2q-1 -1 -3 -1h-4q-3 0 -9 4q-11 6 -14 8q-11 10 -15 16t-7 13q-24 -12 -38 -17q-31 -12 -57 -18q-24 -5 -43 -5h-3h-3 q-11 0 -19 4q-11 5 -15 7l-1 1l-1 1q-7 7 -10.5 16t-4.5 14q-3 15 -3 32.5t5 35.5q2 5 6 13l1 1q2 3 5 6q2 1 4 3q1 0 1 1l1 1h1q29 15 67 25q37 9 86 15l16 2l2 41q1 12 1 21q0 8 -1 14q-3 17 -15 29q-6 6 -21 14q-20 11 -30 13h-8q-10 0 -18 -2q-10 -4 -17 -10 q-2 -3 -2 -7v-3q0 -9 1 -14l1 -7l-65 -27l-3 11l-2 8q-2 11 -2 17q0 9 6 20q6 9 25 20q23 13 43 21q22 8 59 15l24 3h1q11 0 27 -7q23 -9 36 -19zM160 466q12 -5 17 -8l14 -4l-13 -11q-9 -8 -22 -22q-20 -21 -23 -27l-8 -14l-34 41l-27 30l11 6q19 10 31 38l3 8l8 -2 q3 -1 4 -2q6 -3 22 -17q13 -12 17 -16zM315 466q11 -5 15 -8l12 -4l-11 -11q-8 -8 -19 -22q-17 -21 -20 -27l-7 -14l-36 41l-33 30l14 6q22 10 35 38l4 8l8 -2q3 -1 4 -2q6 -3 20 -17q11 -12 14 -16z" />
<glyph unicode="&#xe5;" horiz-adv-x="384" d="M105 45q4 -7 5 -8h1l1 -1q6 -4 18 -4q16 0 28 2q10 3 33 10q19 6 31 14q-2 24 -2 37q0 18 1 29h-9q-19 0 -29 -1q-30 -3 -38 -5q-22 -5 -33 -15q-7 -6 -11 -22q-2 -7 -2 -14q0 -4 1 -11q1 -6 4 -10zM266 315q14 -12 24 -27q11 -19 13 -46q1 -19 1 -41v-8v-6q0 -15 -3 -42 q-2 -31 -2 -46q0 -19 1 -37q0 -7 2 -12l1 -1q1 -5 6 -9t6 -4l1 -1h5l3 2l23 7h3q5 0 8 -3l7 -3v-6l1 -2v-11l-5 -5q-4 -3 -8 -4l-66 -22q-3 -2 -6 -2q-1 -1 -3 -1h-4q-3 0 -9 4q-11 6 -14 8q-11 10 -15 16t-7 13q-24 -12 -38 -17q-31 -12 -57 -18q-24 -5 -43 -5h-3h-3 q-11 0 -19 4q-11 5 -15 7l-1 1l-1 1q-7 7 -10.5 16t-4.5 14q-3 15 -3 32.5t5 35.5q2 5 6 13l1 1q2 3 5 6q2 1 4 3q1 0 1 1l1 1h1q29 15 67 25q37 9 86 15l16 2l2 41q1 12 1 21q0 8 -1 14q-3 17 -15 29q-6 6 -21 14q-20 11 -30 13h-8q-10 0 -18 -2q-10 -4 -17 -10 q-2 -3 -2 -7v-3q0 -9 1 -14l1 -7l-65 -27l-3 11l-2 8q-2 11 -2 17q0 9 6 20q6 9 25 20q23 13 43 21q22 8 59 15l24 3h1q11 0 27 -7q23 -9 36 -19zM173 556q13 3 25 3q20 0 38 -8q30 -13 40 -36q10 -22 10 -46l1 -1v-1q0 -25 -17 -46q-17 -22 -53 -29q-12 -2 -24 -2 q-21 0 -39 8q-29 12 -39 36q-10 23 -10 46q-1 1 -1 2q0 24 17 45q17 22 52 29zM197 516q-7 0 -14 -1q-28 -6 -33 -28q-1 -6 -1 -11q0 -17 14 -31q12 -13 31 -13q6 0 14 2q27 6 32 28q2 6 2 11q0 17 -14 30q-13 13 -31 13z" />
<glyph unicode="&#xe6;" horiz-adv-x="550" d="M57 233q-1 5 -1 9q0 29 24 55q27 29 67 41q26 9 50 9q16 0 28 -3q11 -3 35 -22q16 -14 24 -16v0h1q8 0 31 16q28 20 43 23q11 2 22 2q51 0 94 -35q51 -41 60 -97l1 -9l-10 -2q-54 -6 -159 -27q-16 -3 -21 -4q-16 -2 -26 -5q-7 -1 -13 -6h-1v-1q-1 0 -2 -3v-4q0 -7 3 -19 q14 -51 62 -76q18 -9 40 -10q3 -1 6 -1q16 0 28 5q16 5 37 17h1q14 7 23 7q14 0 17 -13v-3q0 -7 -4 -13q-12 -19 -68 -40q-24 -10 -54 -13q-13 -1 -25 -1q-15 0 -30 2q-29 3 -53 20q-19 14 -31 35q-15 -7 -42 -21q-38 -20 -67 -29q-22 -6 -43 -6q-8 0 -15 1q-29 3 -45 29 q-14 21 -14 47q0 3 1 6q1 29 21 48q13 14 41 23t42 12q3 1 18.5 3.5t27.5 5.5q10 1 15 2q13 2 16 2q2 1 3.5 2t2.5 2l3 3t1 3q3 12 3 25q0 14 -3 29q-5 26 -23 38q-17 13 -36 15h-6q-12 0 -20 -7q-6 -6 -6 -17q0 -5 1 -11l2 -8l-75 -27zM232 118q-3 15 -5 23h-24h-16 q-10 -1 -16 -2q-6 -2 -16 -4q-9 -2 -15 -4q-4 -2 -12 -7q-17 -12 -21 -34v-8q0 -17 12 -27q6 -6 18 -8h4q10 0 22 5q18 6 26 10q8 3 24 12v1q3 1 8 4q5 2 8 3l6 5v2q1 2 1 6q0 8 -4 23zM306 232q-3 -14 -3 -28q34 7 106 22h1h1q2 0 10 1t13 2t10 3q1 1 2 1l2 2q2 3 2 8 q0 12 -19 30q-31 28 -53 32q-9 2 -16 2q-12 0 -22 -5q-15 -10 -22 -28q-9 -22 -12 -42z" />
<glyph unicode="&#xe7;" horiz-adv-x="381" d="M26 165q5 52 34 93q29 43 77 68q32 16 69 22q19 3 37 3t34 -3q15 -3 44 -15q15 -6 23 -10l1 -1l1 -1q2 -1 3 -2q2 0 7 -9l-3 6q4 -4 4 -12q0 -6 -4 -10l-12 -18q-3 -5 -5 -7q-3 -4 -5 -6q-5 -3 -9 -3q-4 -1 -9 -1h-2l-1 1l-9 3l-36 14q-46 15 -74 15h-3q-19 0 -38 -7 q-17 -7 -28 -18q-14 -16 -19 -34q-8 -22 -8 -46q0 -28 10 -53q18 -53 75 -77q35 -14 72 -14q27 0 54 10q11 4 20 9l4 4h10l6 -3l3 -3q4 -3 4 -8v-3q0 -1 -5 -5.5t-6 -5.5l7 3l-3 -3q-7 -5 -21 -12q-32 -19 -61 -25l-18 -28q27 -12 44 -33q18 -23 18 -50q0 -4 -1 -7 q-2 -31 -34 -57q-51 -38 -153 -38h-10v43h10q68 0 101 25q16 12 16 24v1q0 12 -16 23q-6 4 -13 6q-9 2 -22 5q-14 2 -20 5l-11 3l4 10q20 40 42 62q-43 2 -85 17q-31 13 -51 32q-25 25 -35 63q-5 20 -5 41q0 7 1 17z" />
<glyph unicode="&#xe8;" horiz-adv-x="378" d="M266 238q-11 23 -35 38q-29 18 -58 18h-3q-22 0 -38 -13q-14 -10 -20 -27q-5 -15 -9 -31q-2 -9 -4 -22l150 28h2h2q4 2 7 2l6 2l1 1v2l-1 1v1zM49 247q29 48 84 72q33 13 69 13q7 0 13 -1q51 -4 88 -35q19 -17 33 -39q0 -1 1 -2l8 -8h1q7 -5 9 -7q1 -2 1 -3l1 -2v-4 q0 -1 -5 -6t-6 -5l7 2l-5 -4h-6l-60 -12l-184 -31q-1 -3 -1 -7q0 -28 9 -51q9 -22 25 -40q16 -16 42 -26q24 -10 54 -10h9q27 1 58 14q23 9 34 16l8 6l18 -23l-8 -5q-25 -18 -53 -32q-40 -20 -95 -23h-13q-52 0 -86 20q-40 24 -59 69q-14 32 -14 74v11q3 45 23 79zM225 422 q4 -6 3 -11q0 -8 -3 -13q-3 -4 -9 -7t-15 -3q-18 0 -26 15l-64 92q-3 5 -4 8v3q1 12 11 19q4 4 9 6h1h1q12 4 21 4q19 0 23 -13zM267 243z" />
<glyph unicode="&#xe9;" horiz-adv-x="378" d="M266 238q-11 23 -35 38q-29 18 -58 18h-3q-22 0 -38 -13q-14 -10 -20 -27q-5 -15 -9 -31q-2 -9 -4 -22l150 28h2h2q4 2 7 2l6 2l1 1v2l-1 1v1zM49 247q29 48 84 72q33 13 69 13q7 0 13 -1q51 -4 88 -35q19 -17 33 -39q0 -1 1 -2l8 -8h1q7 -5 9 -7q1 -2 1 -3l1 -2v-4 q0 -1 -5 -6t-6 -5l7 2l-5 -4h-6l-60 -12l-184 -31q-1 -3 -1 -7q0 -28 9 -51q9 -22 25 -40q16 -16 42 -26q24 -10 54 -10h9q27 1 58 14q23 9 34 16l8 6l18 -23l-8 -5q-25 -18 -53 -32q-40 -20 -95 -23h-13q-52 0 -86 20q-40 24 -59 69q-14 32 -14 74v11q3 45 23 79zM252 515 l-53 -101q-1 -2 -1 -3v-3h3q4 0 6 4v1l66 94l-3 3q-3 2 -5 3q-6 2 -12 2h-1zM267 243zM253 516l-1 -1q-1 1 1 2v-1zM273 506v1l1 1z" />
<glyph unicode="&#xea;" horiz-adv-x="378" d="M266 238q-11 23 -35 38q-29 18 -58 18h-3q-22 0 -38 -13q-14 -10 -20 -27q-5 -15 -9 -31q-2 -9 -4 -22l150 28h2h2q4 2 7 2l6 2l1 1v2l-1 1v1zM49 247q29 48 84 72q33 13 69 13q7 0 13 -1q51 -4 88 -35q19 -17 33 -39q0 -1 1 -2l8 -8h1q7 -5 9 -7q1 -2 1 -3l1 -2v-4 q0 -1 -5 -6t-6 -5l7 2l-5 -4h-6l-60 -12l-184 -31q-1 -3 -1 -7q0 -28 9 -51q9 -22 25 -40q16 -16 42 -26q24 -10 54 -10h9q27 1 58 14q23 9 34 16l8 6l18 -23l-8 -5q-25 -18 -53 -32q-40 -20 -95 -23h-13q-52 0 -86 20q-40 24 -59 69q-14 32 -14 74v11q3 45 23 79zM61 387 l23 49q9 20 17 32l19 34q15 23 21 32l16 21q6 8 21 15q11 6 26 6q5 0 10 -1q11 -2 21 -9q7 -5 11 -10t10 -15t6 -11l23 -38l27 -50q12 -23 20 -40l7 -15l-16 1q-25 1 -47 20q-25 20 -51 47l-24 25q-19 -26 -51 -54q-41 -37 -73 -38zM267 243z" />
<glyph unicode="&#xeb;" horiz-adv-x="378" d="M266 238q-11 23 -35 38q-29 18 -58 18h-3q-22 0 -38 -13q-14 -10 -20 -26q-5 -16 -9 -32q-2 -9 -4 -22l150 28h2h2q4 2 7 2l6 2l1 1v2l-1 1v1zM49 247q29 48 84 72q33 13 68 13q8 0 14 -1q51 -4 88 -35q19 -17 33 -39q0 -1 1 -2l8 -8h1q7 -5 9 -7q1 -2 1 -3l1 -2v-4 q0 -1 -5 -6t-6 -5l7 2l-5 -4h-6l-60 -12l-184 -31q-1 -3 -1 -7q0 -28 9 -51q9 -22 25 -40q16 -16 42 -26q24 -10 54 -10h9q27 1 58 14q23 9 34 16l8 6l18 -23l-8 -5q-25 -18 -53 -32q-40 -20 -95 -23h-13q-52 0 -86 20q-40 24 -59 69q-14 32 -14 74v11q3 45 23 79zM159 466 q12 -5 16 -8l15 -4l-13 -11q-9 -8 -23 -22q-19 -21 -23 -27l-8 -14l-34 41l-27 30l11 6q19 10 31 38l3 8l8 -2q3 -1 4 -2q7 -3 22 -17q14 -12 18 -16zM313 466q11 -5 15 -8l12 -4l-11 -11q-8 -8 -19 -22q-17 -21 -20 -27l-7 -14l-35 41l-33 30l14 6q23 11 35 38l3 8l8 -2 q3 -1 4 -2q6 -3 20 -17q11 -12 14 -16zM267 243z" />
<glyph unicode="&#xec;" horiz-adv-x="240" d="M164 427q3 -6 3 -11q-1 -8 -3 -13q-3 -4 -7 -7q-6 -3 -13 -3q-16 0 -23 15l-56 92q-3 5 -4 8v3q1 12 11 19q3 3 9 6h1q10 4 18 4q16 0 20 -13zM24 15q0 3 4 9l-2 -3l4 8h8l28 3h2q0 1 1 1v1q0 3 1 5q4 47 6 88q1 14 1 33q0 37 -4 82q0 7 -2 12q0 2 -1 4t-2 3h-1 q-3 2 -3 3q-2 1 -3 1q-6 0 -10 -2l-5 -2h-2l-3 -1h-4q-1 0 -6 5t-5 6v2v11l3 6l1 1q4 4 8 4l3 1q21 9 45 22q24 12 45 29v1l2 1q4 4 10 4h7l5 -5q4 -3 6 -8v-4t-1 -5v-2v-1v-1q-4 -24 -8 -65q-2 -25 -2 -73v-17.5v-16.5q0 -37 2 -85q0 -10 3 -18q2 -8 7 -13l5 -5h7l26 1h8 q6 0 10 -6l1.5 -1.5l0.5 -0.5q3 -4 3 -8v-4l-1 -1v-2l-2 -2v-1l-3 -3q-5 -5 -10 -5h-4q-53 0 -81 -1q-30 -1 -83 -5h-3h-6l-4 8l2 -3q-4 6 -4 9v6z" />
<glyph unicode="&#xed;" horiz-adv-x="240" d="M155 522l-45 -101q-1 -2 -1 -3v-3h3q3 0 5 4v1l58 94l-3 3q-3 2 -5 3q-6 2 -11 2h-1zM24 15q0 3 4 9l-2 -3l4 8h8l28 3h2q0 1 1 1v1q0 3 1 5q4 47 6 88q1 14 1 33q0 37 -4 82q0 7 -2 12q0 2 -1 4t-2 3h-1q-3 2 -3 3q-2 1 -3 1q-6 0 -10 -2h-1l-4 -2h-2l-3 -1h-4 q-1 0 -6 5t-5 6v2v11l3 6l1 1q4 4 8 4l3 1q21 9 45 22q24 12 45 29v1l2 1q4 4 10 4h7l5 -5q4 -3 6 -8v-4t-1 -5v-2v-1v-1q-4 -24 -8 -65q-2 -25 -2 -73v-17.5v-16.5q0 -37 2 -85q0 -10 3 -18q2 -8 7 -13l5 -5h7l26 1h8q6 0 10 -6l1.5 -1.5l0.5 -0.5q3 -4 3 -8v-4l-1 -1v-2 l-2 -2v-1l-3 -3q-5 -5 -10 -5h-4q-53 0 -81 -1q-30 -1 -83 -5h-3h-6l-4 8l2 -3q-4 6 -4 9v6zM156 523l-1 -1l1 2v-1zM175 513v1l1 1z" />
<glyph unicode="&#xee;" horiz-adv-x="240" d="M-7 392l23 49q9 20 18 32l18 34q16 29 19 32l13 21q5 8 18 15q10 6 22 6q4 0 8 -1q10 -2 18 -9q6 -5 10 -10t8 -15q5 -8 7 -11l22 -38l27 -50q12 -23 20 -40l7 -15l-16 1q-25 1 -47 20q-21 17 -46 47l-21 25q-16 -26 -43 -54q-37 -37 -69 -38zM30 15q0 3 4 9l-2 -3l4 8h8 l28 3h2q0 1 1 1v1q0 3 1 5q4 47 6 88q1 14 1 33q0 37 -4 82q0 7 -2 12q0 2 -1 4t-2 3h-1q-3 2 -3 3q-2 1 -3 1q-6 0 -9 -2h-1h-1l-4 -2h-2l-3 -1h-4q-1 0 -6 5t-5 6v2v11l3 6l1 1q4 4 8 4l3 1q22 9 45 22q24 12 45 29v1l2 1q4 4 10 4h7l5 -5q4 -3 6 -8v-4t-1 -5v-2v-1v-1 q-4 -24 -8 -65q-2 -25 -2 -73v-17.5v-16.5q0 -37 2 -85q0 -10 3 -18q2 -8 7 -13l5 -5h7l26 1h8q6 0 10 -6l1.5 -1.5l0.5 -0.5q3 -4 3 -8v-4l-1 -1v-2l-2 -2v-1l-3 -3q-5 -5 -10 -5h-4q-53 0 -81 -1q-30 -1 -83 -5h-3h-6l-4 8l2 -3q-4 6 -4 9v6z" />
<glyph unicode="&#xef;" horiz-adv-x="240" d="M78 474q10 -5 14 -8l13 -4l-12 -11q-8 -8 -19 -22q-17 -21 -20 -27l-7 -14l-33 41l-28 30l11 6q19 10 31 38l3 8l9 -2q3 -1 3 -2q6 -3 20 -17q11 -12 15 -16zM218 474q10 -5 14 -8l13 -4l-12 -11q-8 -8 -19 -22q-17 -21 -20 -27l-7 -14l-33 41l-28 30l11 6q19 10 31 38 l3 8l9 -2q3 -1 3 -2q6 -3 20 -17q11 -12 15 -16zM30 15q0 3 4 9l-2 -3l4 8h9l28 3h1q0 1 1 1v1q1 3 1 5q4 47 6 88q1 14 1 33q0 37 -4 82q0 7 -2 12q0 2 -1 4t-2 3h-1l-3 3q-2 1 -3 1q-5 0 -9 -2h-1l-5 -2h-2q-2 -1 -3 -1h-4l-5.5 5.5l-5.5 5.5v2v11l3 6l1 1q4 4 8 4l3 1 q22 9 45 22q24 12 45 29l1 1l1 1q4 4 10 4h7l5 -5q5 -3 6 -8v-4v-5l-1 -2v-1v-1q-4 -24 -8 -65q-2 -25 -2 -73v-17.5v-16.5q0 -37 2 -85q1 -10 3 -18t8 -13q3 -4 4 -5h7l26 1h8q6 0 10 -6l2 -2q3 -4 3 -8v-4l-1 -1v-2l-2 -2v-1l-3 -3q-5 -5 -10 -5h-4q-53 0 -80 -1 q-31 -1 -83 -5h-4h-6l-4 8l2 -3q-4 6 -4 9v6z" />
<glyph unicode="&#xf0;" horiz-adv-x="511" d="M217 313q-31 -5 -52 -25q-21 -18 -28 -46q-7 -26 -7 -57q0 -2 1 -4q0 -32 12 -62t32 -55q18 -22 46 -33q18 -8 37 -8q9 0 22 3q34 6 57 25q23 20 30 47q7 28 7 61q0 31 -12 61q-14 31 -34 54q-19 23 -49 34q-19 7 -40 7q-11 0 -22 -2zM113 612q13 8 28 8q9 0 20 -4 q24 -7 41 -20q15 -12 36 -25q19 -12 35 -14h2h3q3 2 15 9q9 4 12 6h1q7 4 40 22q43 23 56 29l8 4l20 -38l-122 -67q74 -69 116 -166q36 -78 36 -155q0 -16 -2 -33q-5 -52 -35 -94q-29 -41 -72 -62q-44 -20 -98 -20q-4 0 -8 1q-60 1 -110 30q-39 23 -59 60q-20 36 -21 74v5 q0 34 14 69q14 36 41 64q28 28 71 42q30 10 63 10q17 0 32 -2q37 -6 76 -30q-14 62 -66 134q-3 4 -5 8q-3 4 -5 7l-5 7l-7 8q-2 2 -5 4q-2 2 -5 3q-2 1 -4 1h-2q-13 0 -32 -10q-23 -11 -49 -29q-35 -22 -36 -23l-9 -5l-20 39l115 64q-40 42 -103 68l-6 2v16z" />
<glyph unicode="&#xf1;" horiz-adv-x="486" d="M187 291q45 20 66 26q28 7 55 7q23 0 44 -6q31 -10 45 -35q8 -10 12 -26q1 -6 1 -8q1 -4 1 -9q1 -1 1 -9q2 -33 3 -96v-42v-43v-6q0 -1 1 -2v0l6 -3l32 -12l3 -1q7 -2 9 -6q2 -3 2 -8v-3q0 -5 -3 -9q-4 -6 -11 -6h-8h-1q-30 6 -61 6q-47 0 -87 -8h-1q-4 -1 -6 -1 q-8 0 -13 4l8 -3q-1 1 -6 5.5t-6 5.5l2 -5q-4 4 -4 10q0 5 5 10l1 2l2 1q3 3 8 4l26 8q6 3 9 5l1 1h1q4 3 6 7q4 6 4 10l1 1v4l1 9q5 30 5 63v5.5v5.5q-1 42 -4 75q-2 21 -4 27q-6 13 -16 22q-9 9 -24 15q-8 3 -28 4h-5q-37 0 -72 -12q-13 -5 -31 -14l-3 -181v-19 q0 -10 1 -15q2 -6 9 -10q5 -4 13 -5l29 -5h2l6 -3l9 -8v-12l-2 -2q-3 -8 -12 -8h-8h-1q-9 2 -32 4q-19 2 -49 2q-13 0 -43 -1l-37 -1h-3q-6 0 -10 6q-3 4 -3 9v5l1 2q2 4 4 6q4 4 9 4l7 2q11 4 15 6q7 3 11 8q3 3 7 12q1 5 1 10v3v1v1q3 38 3 76q0 34 -1 48q-2 27 -4 43 q-3 12 -6 16q-2 2 -4 3l-1 1h-1q-4 3 -5 3h-1h-1l-20 7h-6l-4 7l5 -3q-7 5 -7 7l1 1v6l4 3q2 3 9 4h-3q31 10 47 16l43 18q5 4 10 4q9 0 13 -4q5 -4 5 -10v0q1 -3 1 -6v-36q15 7 32 15zM95 398q1 26 10 49q9 25 24 38q17 14 34 15q4 1 8 1q14 0 30 -4q21 -6 36 -13l34 -16 l32 -14q8 -3 15 -3q10 0 18 7q16 12 20 35l1 8h39v-10q-1 -27 -10 -48q-10 -25 -24 -37q-17 -13 -34 -16q-6 -1 -12 -1q-12 0 -27 4q-22 5 -37 11l-36 16q-15 7 -32 13q-9 3 -15 3q-9 0 -17 -6q-15 -12 -17 -33l-1 -9h-39v10zM273 1q3 5 12 11l-9 -5z" />
<glyph unicode="&#xf2;" horiz-adv-x="451" d="M257 423q4 -6 3 -11q0 -8 -3 -13q-3 -4 -8 -7q-6 -3 -14 -3q-18 0 -25 15l-62 92q-4 5 -5 8v3q1 12 12 19q4 3 10 6h1q12 4 20 4q18 0 22 -13zM141 331q45 18 93 18q11 0 18 -1q61 -5 103 -34q51 -36 67 -96q6 -24 6 -45q0 -34 -16 -69q-21 -49 -64 -77q-49 -30 -114 -30 q-18 0 -36 2q-76 10 -123 57q-49 48 -51 113q0 55 32 98q30 42 85 64zM212 308q-28 0 -50 -11q-24 -11 -40 -31q-24 -33 -24 -80q0 -44 19 -85q19 -39 53 -62q36 -25 73 -25h6q24 1 48 16q18 12 30 29q24 38 26 81v4q0 50 -27 94q-21 32 -48 49q-33 21 -66 21z" />
<glyph unicode="&#xf3;" horiz-adv-x="451" d="M278 287q-33 21 -66 21q-28 0 -50 -11q-24 -11 -40 -31q-24 -33 -24 -80q0 -44 19 -85q19 -39 53 -62q36 -25 73 -25h6q24 1 48 16q18 12 30 29q24 38 26 81v4q0 50 -27 94q-21 32 -48 49zM141 330q45 19 93 19q11 0 18 -1q61 -5 103 -34q51 -36 67 -96q6 -24 6 -45 q0 -34 -16 -69q-21 -49 -64 -77q-49 -30 -114 -30q-18 0 -36 2q-76 10 -123 57q-49 48 -51 113q0 54 32 98q30 41 85 63zM283 516l-50 -101q-1 -2 -1 -3v-3h3q3 0 5 4v1l64 94q0 1 -3 3t-5 3q-7 2 -13 2zM283 517v-1q-1 1 0 2v-1zM304 507v1h1v1z" />
<glyph unicode="&#xf4;" horiz-adv-x="451" d="M95 388l23 49q9 19 19 32l21 34q13 22 20 32l14 21q6 8 20 15q11 6 25 6q5 0 9 -1q11 -2 20 -9q7 -5 11 -10t9 -15q5 -8 7 -11l24 -38l29 -50q11 -20 20 -40l7 -15l-16 1q-25 1 -50 20q-22 17 -50 47l-23 25q-18 -26 -48 -54q-40 -37 -75 -38zM141 331q45 18 93 18 q11 0 18 -1q61 -5 103 -34q51 -36 67 -96q6 -24 6 -45q0 -34 -16 -69q-21 -49 -64 -77q-49 -30 -114 -30q-18 0 -36 2q-76 10 -123 57q-49 48 -51 113q0 55 32 98q30 42 85 64zM212 308q-28 0 -50 -11q-24 -11 -40 -31q-24 -33 -24 -80q0 -44 19 -85q19 -39 53 -62 q36 -25 73 -25h6q24 1 48 16q18 12 30 29q24 38 26 81v4q0 50 -27 94q-21 32 -48 49q-33 21 -66 21z" />
<glyph unicode="&#xf5;" horiz-adv-x="451" d="M83 399q1 26 10 49q9 24 24 38t34 15q4 1 8 1q13 0 30 -4q21 -6 37 -13l35 -16l31 -14q9 -3 16 -3q10 0 19 7q15 12 18 35l1 8h38v-10q-1 -27 -10 -48q-10 -24 -24 -37q-15 -14 -32 -16q-6 -1 -12 -1q-12 0 -28 4q-21 5 -37 11l-36 16q-16 7 -33 13q-9 3 -15 3 q-10 0 -18 -6q-15 -12 -17 -33l-1 -9h-38v10zM141 331q45 18 93 18q11 0 18 -1q61 -5 103 -34q51 -36 67 -96q6 -24 6 -45q0 -34 -16 -69q-21 -49 -64 -77q-49 -30 -114 -30q-18 0 -36 2q-76 10 -123 57q-49 48 -51 113q0 55 32 98q30 42 85 64zM212 308q-28 0 -50 -11 q-24 -11 -40 -31q-24 -33 -24 -80q0 -44 19 -85q19 -39 53 -62q36 -25 73 -25h6q24 1 48 16q18 12 30 29q24 38 26 81v4q0 50 -27 94q-21 32 -48 49q-33 21 -66 21z" />
<glyph unicode="&#xf6;" horiz-adv-x="451" d="M278 287q-33 21 -66 21q-28 0 -50 -11q-24 -11 -40 -31q-24 -33 -24 -80q0 -44 19 -85q19 -39 53 -62q36 -25 73 -25h6q24 1 48 16q18 12 30 29q24 38 26 81v4q0 50 -27 94q-21 32 -48 49zM141 330q45 19 93 19q11 0 18 -1q61 -5 103 -34q51 -36 67 -96q6 -24 6 -45 q0 -34 -16 -69q-21 -49 -64 -77q-49 -30 -114 -30q-18 0 -36 2q-76 10 -123 57q-49 48 -51 113q0 54 32 98q30 41 85 63zM194 467q12 -5 16 -8l14 -4l-12 -11q-9 -8 -22 -22q-18 -21 -22 -27l-7 -14l-37 41l-28 30l11 6q20 10 33 38l3 8l9 -2q4 -1 4 -2q7 -3 22 -17 q13 -12 16 -16zM347 467q11 -5 15 -8l12 -4l-11 -11q-8 -8 -19 -22q-18 -23 -21 -27l-7 -14l-38 41l-30 30l13 6q20 10 33 38l4 8l9 -2q4 -1 4 -2q7 -3 22 -17q11 -12 14 -16z" />
<glyph unicode="&#xf7;" horiz-adv-x="505" d="M244 76q6 1 11 1q14 0 24 -9q9 -10 9 -24v-6q-4 -16 -18 -23l-6 -2q-6 -1 -11 -1q-11 0 -19 6l-4 4q-11 10 -11 24v6q4 14 17 21q4 1 8 3zM243 367q7 2 13 2q14 0 23 -10t9 -24v-7l-1 -4q-5 -13 -17 -19l-6 -2q-6 -1 -10 -1q-12 0 -20 7q-3 1 -4 3q-11 11 -11 25v6 q3 13 15 20q4 2 9 4zM38 220h431v-53h-431v53z" />
<glyph unicode="&#xf8;" horiz-adv-x="473" d="M39 22q2 2 12 11q10 8 15 14q4 5 6 9v2v1v1q-2 4 -7 10q-5 7 -7 10q-15 26 -20 62q-2 16 -2 27q0 26 8 53q13 39 43 69q36 35 93 48q31 7 60 7q25 0 54 -6q12 -3 40 -16q21 -11 29 -11h1q5 1 12 5q8 6 16 14q10 9 16 13l8 5l21 -32l-43 -34q36 -34 43 -80q3 -14 3 -27 q0 -35 -15 -66q-20 -42 -60 -75q-41 -33 -99 -40q-12 -1 -26 -1q-41 0 -87 15q-8 2 -26 12q-15 8 -21 8h-1q-4 -1 -10 -5q-7 -6 -16 -17q-8 -9 -9 -10l-3 -6h-14l-17 17v10zM355 177q-4 35 -17 68q-6 -3 -12 -7q-11 -8 -19 -14q-8 -7 -20 -19q-13 -12 -17 -18l-91 -78l-1 -1 q-1 0 -6 -4q-6 -5 -8 -7q-2 -3 -6 -8q-2 -2 -2 -4v-1v-1l1 -2q3 -7 19 -21q22 -18 53 -22h13q23 0 46 9q40 17 56 54q11 30 11 60v16zM115 190q0 -40 17 -93q6 4 11 7q12 9 19 15t20 19q14 13 18 17l89 80q1 1 8 7t10 8v0h1v1l1 1q0 1 1 2q2 3 2 6v2q-4 10 -29 25 q-28 16 -63 17h-3q-31 0 -57 -18q-45 -31 -45 -96z" />
<glyph unicode="&#xf9;" horiz-adv-x="489" d="M153 228q-3 -22 -3 -75q0 -51 6 -72q3 -13 7 -20q6 -11 14 -16q15 -12 40 -12h1.5h2.5q22 0 51 9q23 8 55 25q2 54 4 123v14v20q1 23 1 34q0 9 -2 13l-1 2q-1 2 -3 3l-1 1h-1q-3 3 -10 4h-30l-3 1h-3l-7 7v8l2 8l2 2l2 4q5 4 10 4l1 1q20 3 55 10q22 4 53 12l2 2h7l6 -3 l1 -1q4 -4 4 -9v-7q-1 -25 -5 -86q-3 -49 -5 -93q-1 -20 -1 -25q0 -14 2 -32q3 -28 5 -42l39 7l1 1h3q5 0 9 -4l5 -5v-1l2 -2v-5l-6 -5l5 4q0 -1 -5 -6l-6 -6l7 3l-4 -4h-4l-95 -28q-4 -1 -6 -1h-8l-7 4l-1 1q-4 4 -4 10v1l-6 27q-1 7 -3 15q-25 -13 -44 -21 q-56 -25 -92 -29q-14 -2 -20 -2q-9 0 -20 2q-24 3 -39 13q-19 12 -30 37q-9 18 -10 44q-1 18 -1 32q0 21 1 47q1 25 1 77q0 8 -1 12q-1 6 -4 9t-5 4h-1h-1q-4 1 -6 1q-3 0 -5 -1h-1l-10 -1h-3l-6 5l-6 6l3 -5l-5 4v6q0 1 6 6l-5 -4q0 5 4 8l3 3l2 1q32 10 56 19q15 6 45 22 l3 1h5q4 0 8 -2h2l4 -4l-8 3q8 -4 12 -11l-3 7l4 -4v-5v-1l-3 -32q0 -5 -5 -67zM273 424q4 -6 3 -11q0 -8 -3 -13q-3 -4 -8 -7q-6 -3 -14 -3q-17 0 -25 15l-60 92q-4 5 -4 8q-1 2 -1 3q1 12 12 19q4 3 9 6h1h1q11 4 20 4q17 0 21 -13z" />
<glyph unicode="&#xfa;" horiz-adv-x="489" d="M153 228q-3 -22 -3 -75q0 -51 6 -72q3 -13 7 -20q6 -11 14 -16q15 -12 40 -12h1.5h2.5q22 0 51 9q23 8 55 25q2 54 4 123v14v20q1 23 1 34q0 9 -2 13l-1 2q-1 2 -3 3l-1 1h-1q-3 3 -10 4h-30l-3 1h-3l-7 7v8l2 8l2 2l2 4q5 4 10 4l1 1q20 3 55 10q22 4 53 12l2 2h7l6 -3 l1 -1q4 -4 4 -9v-7q-1 -25 -5 -86q-3 -49 -5 -93q-1 -20 -1 -25q0 -14 2 -32q3 -28 5 -42l39 7l1 1h3q5 0 9 -4l5 -5v-1l2 -2v-5l-6 -5l5 4q0 -1 -5 -6l-6 -6l7 3l-4 -4h-4l-95 -28q-4 -1 -6 -1h-8l-7 4l-1 1q-4 4 -4 10v1l-6 27q-1 7 -3 15q-25 -13 -44 -21 q-56 -25 -92 -29q-14 -2 -20 -2q-9 0 -20 2q-24 3 -39 13q-19 12 -30 37q-9 18 -10 44q-1 18 -1 32q0 21 1 47q1 25 1 77q0 8 -1 12q-1 6 -4 9t-5 4h-1h-1q-4 1 -6 1q-3 0 -5 -1h-1l-10 -1h-3l-6 5l-6 6l3 -5l-5 4v6q0 1 6 6l-5 -4q0 5 4 8l3 3l2 1q32 10 56 19q15 6 45 22 l3 1h5q4 0 8 -2h2l4 -4l-8 3q8 -4 12 -11l-3 7l4 -4v-5v-1l-3 -32q0 -5 -5 -67zM253 511l-49 -101q-2 -2 -2 -3q0 -2 1 -3h3q3 0 5 4v1l63 94l-3 3q-3 2 -6 3q-6 2 -11 2h-1zM253 512v-1q-1 1 0 2v-1zM274 502v1l1 1z" />
<glyph unicode="&#xfb;" horiz-adv-x="489" d="M153 228q-3 -22 -3 -75q0 -51 6 -72q3 -13 7 -20q6 -11 14 -16q15 -12 40 -12h1.5h2.5q22 0 51 9q23 8 55 25q2 54 4 123v14v20q1 23 1 34q0 9 -2 13l-1 2q-1 2 -3 3l-1 1h-1q-3 3 -10 4h-30l-3 1h-3l-7 7v8l2 8l2 2l2 4q5 4 10 4l1 1q20 3 55 10q22 4 53 12l2 2h7l6 -3 l1 -1q4 -4 4 -9v-7q-1 -25 -5 -86q-3 -49 -5 -93q-1 -20 -1 -25q0 -14 2 -32q3 -28 5 -42l39 7l1 1h3q5 0 9 -4l5 -5v-1l2 -2v-5l-6 -5l5 4q0 -1 -5 -6l-6 -6l7 3l-4 -4h-4l-95 -28q-4 -1 -6 -1h-8l-7 4l-1 1q-4 4 -4 10v1l-6 27q-1 7 -3 15q-25 -13 -44 -21 q-56 -25 -92 -29q-14 -2 -20 -2q-9 0 -20 2q-24 3 -39 13q-19 12 -30 37q-9 18 -10 44q-1 18 -1 32q0 21 1 47q1 25 1 77q0 8 -1 12q-1 6 -4 9t-5 4h-1h-1q-4 1 -6 1q-3 0 -5 -1h-1l-10 -1h-3l-6 5l-6 6l3 -5l-5 4v6q0 1 6 6l-5 -4q0 5 4 8l3 3l2 1q33 10 56 19q15 6 45 22 l3 1h5q4 0 8 -2h2l4 -4l-8 3q8 -4 12 -11l-3 7l4 -4v-5v-1l-3 -32q0 -5 -5 -67zM96 389l23 49q10 20 19 32l20 34q18 29 20 32l14 21q6 8 20 15q11 6 24 6q5 0 9 -1q11 -2 20 -9q6 -5 10 -10t9 -15q5 -8 7 -11l24 -38l29 -50q14 -23 22 -40l8 -15l-18 1q-26 1 -51 20 q-22 17 -49 47l-23 25q-17 -26 -47 -54q-40 -37 -74 -38z" />
<glyph unicode="&#xfc;" horiz-adv-x="489" d="M153 228q-3 -22 -3 -75q0 -51 6 -72q3 -13 7 -20q6 -11 14 -16q15 -12 40 -12h1.5h2.5q22 0 51 9q23 8 55 25q2 54 4 123v14v20q1 23 1 34q0 9 -2 13l-1 2q-1 2 -3 3l-1 1h-1q-3 3 -10 4h-30l-3 1h-3l-7 7v8l2 8l2 2l2 4q5 4 10 4l1 1q20 3 55 10q22 4 53 12l2 2h7l6 -3 l1 -1q4 -4 4 -9v-7q-1 -25 -5 -86q-3 -49 -5 -93q-1 -20 -1 -25q0 -14 2 -32q3 -28 5 -42l39 7l1 1h3q5 0 9 -4l5 -5v-1l2 -2v-5l-6 -5l5 4q0 -1 -5 -6l-6 -6l7 3l-4 -4h-4l-95 -28q-4 -1 -6 -1h-8l-7 4l-1 1q-4 4 -4 10v1l-6 27q-1 7 -3 15q-25 -13 -44 -21 q-56 -25 -92 -29q-14 -1 -20 -1q-9 0 -20 1q-24 3 -39 13q-19 12 -30 37q-9 18 -10 44q-1 18 -1 32q0 21 1 47q1 25 1 77q0 8 -1 12q-1 6 -4 9t-5 4h-1h-1q-4 1 -7 1q-2 0 -4 -1h-1l-10 -1h-3l-6 5l-6 6l3 -5l-5 4v6q0 1 6 6l-5 -4q0 5 4 8l3 3l2 1q33 10 56 19q15 6 45 22 l3 1h5q4 0 8 -2h2l4 -4l-8 3q8 -4 12 -11l-3 7l4 -4v-5v-1l-3 -32q0 -5 -5 -67zM187 461q11 -5 15 -8l14 -4l-12 -11q-9 -8 -21 -22q-19 -21 -22 -27l-7 -14l-37 41l-27 30l11 6q19 10 32 38l3 8l9 -2q4 -1 4 -2q7 -3 22 -17zM339 461q11 -5 15 -8l14 -4l-12 -11 q-9 -8 -21 -22q-19 -21 -22 -27l-7 -14l-37 41l-30 30l13 6q20 10 33 38l3 8l9 -2q4 -1 4 -2q7 -3 22 -17z" />
<glyph unicode="&#xfd;" horiz-adv-x="440" d="M106 326q37 0 73 3h2q1 0 7 -6l-4 5q1 0 6.5 -5t6.5 -6l-3 7l4 -4v-9l-2 -4l1 4q0 -1 -6 -5.5t-7 -5.5h1h-1l-16 -3h-1h-1l-1 -1l-6 -2q-1 -2 -2 -2q-1 -2 -1 -3v-5q0 -10 4 -25l25 -85l39 -119q34 50 60 103q13 27 36 83l5 17q3 8 3 14t-4 11q-3 3 -13 7t-17 7 q-5 1 -19 3h-6l-8 8v4q0 1 -1 2v2q0 5 5 10l8 7h7l6 -6l-4 5h1h1q26 -5 58 -7q10 -1 24 -1q23 0 41 3h7q3 0 7.5 -3t4.5 -8v-1l1 -2q0 -5 -4 -9l-2 -2q-1 -2 -8 -4l4 1q-4 -1 -6 -2q-2 0 -5 -1q-1 -1 -3 -1q-1 -1 -7 -6q-11 -12 -20 -31l-131 -235q-40 -69 -73 -145 q-33 -77 -52 -145v-3q0 -7 -5 -11v-1l-7 -4h-6h-1q-8 1 -26 1q-27 0 -40 -1h-4h-4l-4 4l3 -1q-8 7 -9 9l1 -4l-2 4v4q0 5 5 10q2 2 9 4l-4 -1l1.5 0.5t2.5 1.5q24 10 42 34q12 16 28 51l74 152q-34 110 -71 205l-23 56q-11 26 -18 38q-5 8 -8 10q0 1 -1 1l-1 1h-1q-1 0 -4 1 t-4 2l-9 2q-6 1 -7 2h-8v9l-3 6l4 4q3 8 11 8h2h3q23 -1 70 -1zM271 513l-50 -101q-1 -2 -1 -3v-3h3q4 0 6 4v1l63 94q0 1 -2 3l-6 3q-6 2 -12 2h-1zM186 311l-1 -1l2 1h-1zM189 311q-2 -1 -2 0h2zM271 514v-1q-1 1 1 2zM293 504l-1 1h1v1v-2z" />
<glyph unicode="&#xfe;" horiz-adv-x="483" d="M207 284q-13 -4 -23 -7v-147q0 -6 -1 -23q-1 -10 -1 -19v-8q1 -10 4 -19q1 -4 4 -6q5 -3 18 -6l15 -4q36 -12 66 -12q48 0 80 29q25 24 30 60q2 11 2 22q0 25 -9 49q-12 36 -39.5 64.5t-60.5 39.5h-1q-7 3 -17 3h-9q-18 -3 -29 -6q-12 -3 -29 -10zM18 529l64 45l131 55 l-6 -21q-8 -28 -13.5 -58.5t-7.5 -67.5q-2 -36 -3 -59v-29v-40q1 -31 1 -48q14 5 36 14q35 14 63 19q15 3 30 3q14 0 27 -2q47 -9 79 -39q31 -30 44 -68q9 -27 9 -57q0 -11 -1 -22q-5 -43 -30 -75q-44 -55 -116 -71q-40 -9 -81 -9q-29 0 -60 5v-150q0 -3 -1 -16v-10.5v-6.5 q1 -5 3 -14q2 -8 5 -11q4 -3 10 -6q9 -2 14.5 -3t20 -2t16.5 -1h11v-37l-212 -4v34l8 1q21 3 31 19q11 17 12 39v54q1 28 1 47v1q5 32 5 69v15q0 32 -1 69q-2 48 -2 71q0 24 2 73q1 39 1 71v16q0 38 -4 71q-1 23 -1.5 47.5t-2.5 46.5q-2 18 -14 30t-36 12h-32z" />
<glyph unicode="&#xff;" horiz-adv-x="440" d="M106 326q37 0 73 3h2q1 0 7 -6l-4 5q1 0 6.5 -5t6.5 -6l-3 7l4 -4v-9l-2 -4l1 4q0 -1 -6 -5.5t-7 -5.5h1h-1l-16 -3h-1h-1l-1 -1l-6 -2q-1 -2 -2 -2q-1 -2 -1 -3v-5q0 -10 4 -25l25 -85l39 -119q34 50 60 103q13 27 36 83l5 17q3 8 3 14t-4 11q-3 3 -13 7t-18 7 q-4 1 -18 3h-6l-8 8v4q0 1 -1 2v2q0 5 5 10l8 7h6q1 0 7 -6l-4 5h1h1q26 -5 58 -7q10 -1 24 -1q23 0 41 3h7q3 0 7.5 -3t4.5 -8v-1l1 -2q0 -5 -4 -9l-2 -2q-1 -2 -8 -4l4 1q-4 -1 -6 -2q-2 0 -5 -1q-1 -1 -3 -1q-1 -1 -7 -6q-11 -12 -20 -31l-131 -235q-40 -69 -73 -145 q-33 -77 -52 -145v-3q0 -7 -5 -11v-1l-7 -4h-6h-1q-8 1 -26 1q-27 0 -40 -1h-4h-4l-4 4l3 -1q-8 7 -9 9l1 -4l-2 4v4q0 5 5 10q2 2 9 4l-4 -1l1.5 0.5t2.5 1.5q24 10 42 34q12 16 28 51l74 152q-34 110 -71 205l-23 56q-11 26 -18 38q-5 8 -8 10q0 1 -1 1l-1 1h-1 q-1 0 -3.5 1t-4.5 2l-9 2q-6 1 -7 2h-8v9l-3 6l4 4q3 8 11 8h2h3q23 -1 70 -1zM238 466q12 -5 16 -8l14 -4l-13 -11q-8 -8 -21 -22q-18 -21 -22 -27l-7 -14l-37 41l-31 30l13 6q21 10 33 38l4 8l9 -2q4 -1 4 -2q7 -3 22 -17zM387 466q10 -5 14 -8l13 -4l-12 -11 q-8 -8 -19 -22q-17 -21 -20 -27l-7 -14l-34 41l-31 30l13 6q21 10 33 38l3 8l9 -2q3 -1 3 -2q6 -3 20 -17q11 -12 15 -16zM186 311l-1 -1l2 1h-1zM189 311q-2 -1 -2 0h2z" />
<glyph unicode="&#x101;" horiz-adv-x="384" d="M105 45q4 -7 5 -8h1l1 -1q6 -4 18 -4q16 0 28 2q10 3 33 10q19 6 31 14q-2 24 -2 37q0 18 1 29h-9q-19 0 -29 -1q-30 -3 -38 -5q-22 -5 -33 -15q-7 -6 -11 -22q-2 -7 -2 -14q0 -4 1 -11q1 -5 4 -10zM266 315q14 -12 24 -27q11 -19 13 -46q1 -19 1 -41v-8v-6q0 -15 -3 -42 q-2 -31 -2 -46q0 -19 1 -37q0 -7 2 -12l1 -1q1 -5 6 -9t6 -4l1 -1h5l3 2l23 7h3q5 0 8 -3l7 -3v-6l1 -2v-11l-5 -5q-4 -3 -8 -4l-66 -22q-3 -2 -6 -2q-1 -1 -3 -1h-4q-3 0 -9 4q-11 6 -14 8q-11 10 -15 16t-7 13q-24 -12 -38 -17q-31 -12 -57 -18q-24 -5 -43 -5h-3h-3 q-11 0 -19 4q-11 5 -15 7l-1 1l-1 1q-7 7 -10.5 16t-4.5 14q-3 15 -3 32.5t5 35.5q2 5 6 13l1 1q2 3 5 6q2 1 4 3q1 0 1 1l1 1h1q29 15 67 25q37 9 86 15l16 2l2 41q1 12 1 21q0 8 -1 14q-3 17 -15 29q-6 6 -21 14q-20 11 -30 13h-8q-10 0 -18 -2q-10 -4 -17 -10 q-2 -3 -2 -7v-3q0 -9 1 -14l1 -7l-65 -27l-3 11l-2 8q-2 11 -2 17q0 9 6 20q6 9 25 20q23 13 43 21q22 8 59 15l24 3h1q11 0 27 -7q23 -9 36 -19zM51 388v53h301v-53h-301z" />
<glyph unicode="&#x103;" horiz-adv-x="384" d="M105 45q4 -7 5 -8h1l1 -1q6 -4 18 -4q16 0 28 2q10 3 33 10q19 6 31 14q-2 24 -2 37q0 18 1 29h-9q-19 0 -29 -1q-30 -3 -38 -5q-22 -5 -33 -15q-7 -6 -11 -22q-2 -7 -2 -14q0 -4 1 -11q1 -5 4 -10zM266 315q14 -12 24 -27q11 -19 13 -46q1 -19 1 -41v-8v-6q0 -15 -3 -42 q-2 -31 -2 -46q0 -19 1 -37q0 -7 2 -12l1 -1q1 -5 6 -9t6 -4l1 -1h5l3 2l23 7h3q5 0 8 -3l7 -3v-6l1 -2v-11l-5 -5q-4 -3 -8 -4l-66 -22q-3 -2 -6 -2q-1 -1 -3 -1h-4q-3 0 -9 4q-11 6 -14 8q-11 10 -15 16t-7 13q-24 -12 -38 -17q-31 -12 -57 -18q-24 -5 -43 -5h-3h-3 q-11 0 -19 4q-11 5 -15 7l-1 1l-1 1q-7 7 -10.5 16t-4.5 14q-3 15 -3 32.5t5 35.5q2 5 6 13l1 1q2 3 5 6q2 1 4 3q1 0 1 1l1 1h1q29 15 67 25q37 9 86 15l16 2l2 41q1 12 1 21q0 8 -1 14q-3 17 -15 29q-6 6 -21 14q-20 11 -30 13h-8q-10 0 -18 -2q-10 -4 -17 -10 q-2 -3 -2 -7v-3q0 -9 1 -14l1 -7l-65 -27l-3 11l-2 8q-2 11 -2 17q0 9 6 20q6 9 25 20q23 13 43 21q22 8 59 15l24 3h1q11 0 27 -7q23 -9 36 -19zM85 534q15 -1 24 -10q8 -8 13 -23q5 -12 9 -15q26 -26 71 -26t70 26q4 4 9 15q5 15 13 23q9 9 24 10l12 1l-1 -11 q-3 -70 -41 -105q-34 -31 -83 -31q-13 0 -28 3q-61 11 -87 62q-15 29 -16 71v11z" />
<glyph unicode="&#x104;" horiz-adv-x="640" d="M349 581q1 -1 2 -5q19 -57 99 -250q84 -200 104 -243q15 -31 26 -41q7 -7 27 -9q3 0 6 -1.5t6.5 -5.5t3.5 -10q0 -1 -1 -2q-1 -16 -13 -16h-66q-62 0 -108 -4h-4q-15 0 -17 13q-1 4 -1 6q0 14 14 16h5q5 1 9 2t10 3q1 0 2 1q2 1 3 2q3 4 6 10v4t-1 5v1q-9 42 -54 145 q-110 5 -175 5q-19 0 -34 -1q-26 -55 -50 -118q-6 -15 -5 -27q0 -4 0.5 -6t1.5 -3q8 -9 63 -23q9 -7 10 -10h3l-2 -3v-1q0 -3 -1 -7q-2 -7 -3 -9q-1 -1 -6 -4t-6 -3h-2l-10 -12q-14 -17 -20 -28t-9 -23t-3 -23q0 -30 23 -49q22 -19 53 -19q13 0 26 3l8 1l15 -30l-9 -5 q-35 -18 -67 -20h-5q-37 0 -64 17q-29 17 -39 46q-7 18 -7 39q0 10 2 21q5 33 26 60q13 16 25 27q-16 1 -36.5 2t-30.5 1q-22 0 -41 -2h-3q-16 0 -16 15v0.5v1.5q0 16 14 18q19 3 31 15q14 13 29 48q23 46 113 245q87 193 102 234q3 8 8 12q2 2 5 3q5 2 9 2q14 -1 19 -11z M388 243q-44 112 -84 202l-84 -198q22 -2 49 -3q24 -1 46 -1q11 0 21.5 0.5t21.5 0.5q15 0 30 -1z" />
<glyph unicode="&#x105;" horiz-adv-x="384" d="M105 45q4 -7 5 -8h1l1 -1q6 -4 18 -4q16 0 28 2q10 3 33 10q19 6 31 14q-2 24 -2 37q0 18 1 29h-9q-19 0 -29 -1q-30 -3 -38 -5q-22 -5 -33 -15q-7 -6 -11 -22q-2 -7 -2 -14q0 -4 1 -11q1 -6 4 -10zM266 315q14 -12 24 -27q11 -19 13 -46q1 -19 1 -41v-8v-6q0 -15 -3 -42 q-2 -31 -2 -46q0 -19 1 -37q0 -7 2 -12l1 -1q1 -5 6 -9t6 -4l1 -1h5l3 2l23 7h3q5 0 8 -3l7 -3v-6l1 -2v-11l-5 -5q-4 -3 -8 -4l-66 -22q-3 -2 -6 -2q-1 -1 -3 -1h-2l-10 -12q-15 -17 -22 -28t-10 -23t-3 -23q0 -30 25 -49t53 -19q11 0 24 3l8 1l14 -30l-8 -5 q-34 -18 -65 -20h-4q-40 0 -70 17q-33 17 -44 46q-8 18 -8 39q0 10 2 21q6 33 31 60q19 23 38 35q7 5 15 8q-4 4 -6 7q-4 6 -7 13q-24 -12 -38 -17q-31 -12 -57 -18q-24 -5 -43 -5h-3h-3q-11 0 -19 4q-11 5 -15 7l-1 1l-1 1q-7 7 -10.5 16t-4.5 14q-3 15 -3 32.5t5 35.5 q2 5 6 13l1 1q2 3 5 6q2 1 4 3q1 0 1 1l1 1h1q29 15 67 25q37 9 86 15l16 2l2 41q1 12 1 21q0 8 -1 14q-3 17 -15 29q-6 6 -21 14q-20 11 -30 13h-8q-10 0 -18 -2q-10 -4 -17 -10q-2 -3 -2 -7v-3q0 -9 1 -14l1 -7l-65 -27l-3 11l-2 8q-2 11 -2 17q0 9 6 20q6 9 25 20 q23 13 43 21q22 8 59 15l24 3h1q11 0 27 -7q23 -9 36 -19z" />
<glyph unicode="&#x107;" horiz-adv-x="381" d="M26 165q5 52 34 93q29 43 77 68q32 16 69 22q19 3 37 3t34 -3q15 -3 44 -15q15 -6 23 -10l1 -1l1 -1q2 -1 3 -2q2 0 7 -9l-3 6q4 -4 4 -12q0 -6 -4 -10l-12 -18q-3 -5 -5 -7q-3 -4 -5 -6q-5 -3 -9 -3q-4 -1 -9 -1h-2l-1 1l-9 3l-36 14q-46 15 -74 15h-3q-19 0 -38 -7 q-17 -7 -28 -18q-14 -16 -19 -34q-8 -22 -8 -46q0 -28 10 -53q18 -53 75 -77q35 -14 72 -14q27 0 54 10q11 4 20 9l4 4h10l6 -3l3 -3q4 -3 4 -8v-3q0 -1 -5 -5.5t-6 -5.5l7 3l-3 -3q-7 -5 -21 -12q-34 -20 -64 -26q-28 -5 -51 -5q-47 0 -94 17q-31 13 -51 32q-25 25 -35 63 q-5 20 -5 41q0 7 1 17zM288 518l-48 -101q-1 -2 -1 -3v-3h3q4 0 6 4v1l60 94l-3 3q-3 2 -5 3q-6 2 -11 2h-1zM289 519l-1 -1l1 2v-1zM308 509v1l1 1z" />
<glyph unicode="&#x109;" horiz-adv-x="381" d="M26 165q5 52 34 93q28 43 77 68q31 16 68 22q18 3 36 3t36 -3q15 -3 44 -15q15 -6 23 -10l1 -1l1 -1q2 -1 3 -2q2 0 7 -9l-3 6q4 -4 4 -12q0 -6 -4 -10l-12 -18q-3 -5 -5 -7q-3 -4 -5 -6q-5 -3 -9 -3q-4 -1 -9 -1h-2l-10 4l-37 14q-47 15 -74 15h-4q-18 0 -36 -7 q-17 -7 -28 -18q-14 -16 -19 -34q-8 -22 -8 -46q0 -28 10 -53q18 -53 74 -77q34 -14 71 -14q29 0 56 10q11 4 20 9l4 4h10l6 -3l3 -3q4 -3 4 -8v-3q0 -1 -5 -5.5t-6 -5.5l7 3l-3 -3q-7 -5 -21 -12q-34 -20 -66 -26q-29 -5 -50 -5q-47 0 -93 17q-31 13 -51 32q-25 25 -35 63 q-5 20 -5 41q0 7 1 17zM96 390l23 49q9 19 20 32l21 34q19 29 21 32l15 21q6 8 21 15q11 6 26 6q4 0 9 -1q12 -2 21 -9q6 -5 10 -10t8 -15q5 -8 6 -11l23 -38l27 -50q12 -23 20 -40l7 -15l-16 1q-25 1 -47 20q-17 14 -47 47l-24 25q-19 -26 -51 -54q-41 -37 -77 -38z" />
<glyph unicode="&#x10b;" horiz-adv-x="381" d="M26 165q5 52 34 93q29 43 77 68q32 16 69 22q19 3 37 3t34 -3q15 -3 44 -15q15 -6 23 -10l1 -1l1 -1q2 -1 3 -2q2 0 7 -9l-3 6q4 -4 4 -12q0 -6 -4 -10l-12 -18q-3 -5 -5 -7q-3 -4 -5 -6q-5 -3 -9 -3q-4 -1 -9 -1h-2l-10 4l-36 14q-46 15 -74 15h-3q-19 0 -38 -7 q-17 -7 -28 -18q-14 -16 -19 -34q-8 -22 -8 -46q0 -28 10 -53q18 -53 75 -77q35 -14 72 -14q27 0 54 10q11 4 20 9l4 4h10l6 -3l3 -3q4 -3 4 -8v-3q0 -1 -5 -5.5t-6 -5.5l7 3l-3 -3q-7 -5 -21 -12q-34 -20 -64 -26q-28 -5 -51 -5q-47 0 -94 17q-31 13 -51 32q-25 25 -35 63 q-5 20 -5 41q0 7 1 17zM222 478q11 4 21 4q17 0 30 -10q16 -15 16 -36v-6q-3 -25 -27 -35q-10 -4 -21 -4q-18 0 -32 11q-19 15 -19 36v5q3 25 32 35z" />
<glyph unicode="&#x10d;" horiz-adv-x="381" d="M26 165q5 52 34 93q28 43 77 68q31 16 68 22q18 3 36 3t36 -3q15 -3 44 -15q15 -6 23 -10l1 -1l1 -1q2 -1 3 -2q2 0 7 -9l-3 6q4 -4 4 -12q0 -6 -4 -10l-12 -18q-3 -5 -5 -7q-3 -4 -5 -6q-5 -3 -9 -3q-4 -1 -9 -1h-2l-1 1l-9 3l-37 14q-47 15 -74 15h-3q-19 0 -37 -7 q-17 -7 -28 -18q-14 -16 -19 -34q-8 -22 -8 -46q0 -28 10 -53q18 -53 74 -77q34 -14 71 -14q29 0 56 10q11 4 20 9l4 4h10l6 -3l3 -3q4 -3 4 -8v-3q0 -1 -5 -5.5t-6 -5.5l7 3l-3 -3q-7 -5 -21 -12q-34 -20 -66 -26q-29 -5 -50 -5q-47 0 -93 17q-31 13 -51 32q-25 25 -35 63 q-5 20 -5 41q0 7 1 17zM112 579q27 -1 53 -20q24 -18 51 -48q15 -17 25 -27q10 13 17 21l28 31q17 20 35 31q19 11 36 12l17 1l-7 -15q-7 -16 -16.5 -35t-17.5 -32q-7 -12 -19 -33q-11 -22 -17 -32q-10 -16 -15 -22q-5 -8 -19 -15q-11 -6 -25 -6q-5 0 -10 1q-11 2 -21 9 q-8 6 -11 11q-3 4 -10 14q-5 9 -7 11v1l-1 1q-4 7 -24 37q-21 31 -32 50q-11 20 -19 40l-6 15z" />
<glyph unicode="&#x10f;" horiz-adv-x="480" d="M206 290q-17 0 -27 -3q-21 -5 -37 -15q-33 -20 -45 -45q-9 -18 -9 -42q0 -1 1 -12q1 -25 11 -54q10 -26 30 -46q37 -37 85 -40h9q32 0 59 11q14 6 30 15q-1 11 -1 21q0 2 1 27q2 47 2 88v64v6l-1 2v1h-1q-1 0 -5 1l-36 10q-40 9 -47 10q-10 1 -19 1zM93 283q32 25 73 39 q37 16 76 16h5q13 -1 35 -4q6 -1 19 -4l18 -5v0q3 52 3 94v28q-2 32 -5 76v3.5v3.5v2v1h-1q-1 6 -2 9q0 1 -2 1h-5l-4 -1l-12 -2q-10 -2 -13 -2q-6 0 -9 2q-7 3 -9 7q-1 1 -1.5 3.5t-0.5 4.5t1 4q1 5 6 10l1 1l2 1q1 0 3 1t4.5 2t3.5 1q19 7 44 19q33 15 58 30q5 3 10 3h6 l2 -2q6 -2 7 -3q4 -5 5 -7l2 -2v-9l-1 -3q-11 -75 -14 -137q-2 -42 -4 -98q-1 -50 -3 -109q-1 -24 -1 -56.5v-35.5q-1 -5 -1.5 -19t-0.5 -22q0 -19 2 -37q1 -17 7 -52v-1v-1q1 -1 1 -4l41 11h9q6 0 11 -3q5 -5 5 -10v-4q0 -4 -2 -7v-2l-5 -2v-1h-1l-2 -1l1 1h-1q-6 -2 -7 -2 h-1l-99 -32q-5 -2 -9 -2q-7 1 -11 3l-2 2q-3 3 -4 5q-1 1 -1 2q-2 4 -3 7v2l-3 24q-1 12 -1 20l-13 -6q-49 -24 -87 -31q-19 -3 -37 -3q-31 0 -58 10q-46 17 -72 60q-22 37 -22 79q0 21 5 42q14 54 64 92zM495 627q7 -2 12 -5q3 -2 4 -2q1 -1 1 -2h1l1 -1l1 -2l5 -6l7 -6 l1 -1q2 -3 8 -7q9 -5 15 -10q9 -7 12 -17v-7q0 -8 -6 -20q0 -1 -1 -3l-2 -4l-2 -4v-1v-1q-25 -100 -107 -136l-10 -4l-17 35l9 5q31 17 47 38q8 11 8 22q0 9 -5 18q-3 6 -18 21q-18 17 -21 34l-2 7l7 4q26 13 41 49l3 7zM514 617zM512 618zM513 618h-1h1zM512 618z" />
<glyph unicode="&#x110;" horiz-adv-x="723" d="M32 589q40 0 136 9q70 6 128 6q22 0 43 -1q77 -3 139 -26q68 -25 119 -75q48 -49 68 -108q18 -53 18 -107q0 -6 -1 -13q-2 -62 -37 -120q-34 -57 -99 -96q-39 -23 -77 -35q-42 -13 -80 -16q-37 -3 -80 -4q-18 -1 -36 -1h-23v-2q-3 1 -7 2q-7 1 -17 1h-23q-32 0 -81 -1 q-67 -3 -97 -3h-10v39h10q37 0 48 15q5 6 7 13q3 10 4 17t2 21v9v6v2q3 38 3 122v36h-70v45h70v80q0 15 -1 40q-2 23 -3 45q-5 34 -15 49q-9 13 -38 13h-10v38h10zM177 399q-2 -47 -2 -75h174v-45h-174q0 -26 2 -72q2 -55 2 -82q0 -4 -2 -21q-1 -9 -1 -17q0 -5 1 -9 q0 -9 4 -13q19 -23 134 -23q123 0 196 76q73 77 73 193q0 102 -82 176t-194 74h-46q-14 0 -41 -6q-24 -5 -33 -14h-1v0v-1q-8 -11 -8 -62q0 -25 -2 -79z" />
<glyph unicode="&#x111;" horiz-adv-x="480" d="M207 290q-17 0 -27 -3q-21 -5 -38 -15q-32 -20 -45 -45q-9 -18 -9 -42q0 -1 1 -12q1 -25 11 -54q10 -26 30 -46q38 -37 87 -40h9q32 0 61 11q14 6 30 15q-1 11 -1 21q0 2 1 27q2 47 2 88v64q0 4 -1 6q0 2 -1 2v1v0q-1 0 -5 1l-37 10q-41 9 -48 10q-10 1 -20 1zM93 283 q32 25 74 39q37 16 77 16h5q13 -1 36 -4q6 -1 20 -4l18 -5v0q3 52 3 94v20h-99v44h97q-1 15 -3 40v3.5v3.5v2l-1 1q-1 6 -2 9q0 1 -2 1h-5h-1l-3 -1l-13 -2q-9 -2 -13 -2q-6 0 -9 2q-7 3 -9 7q-1 1 -1.5 3.5t-0.5 4.5t1 4q1 5 6 10l1 1l2 1q1 0 3 1t4.5 2t4.5 1q18 7 44 19 q34 15 59 30q5 3 9 3h6l2 -2q6 -2 6 -3q4 -5 5 -7l2 -2v-9l-1 -3q-9 -64 -12 -118h77v-44h-79q-1 -32 -3 -73q-1 -50 -3 -109q0 -24 -0.5 -56.5t-0.5 -35.5q0 -5 -0.5 -19t-0.5 -22q0 -19 1 -37q1 -17 7 -52v-1v-1q1 -1 1 -4l38 11h9q6 0 10 -3q5 -5 5 -10v-4q0 -4 -2 -7v-2 l-4 -2l-1 -1h-1l-2 -1l2 1h-1q-6 -2 -7 -2h-1l-96 -32q-5 -2 -9 -2q-7 1 -10 3q-2 1 -3 2q-3 3 -4 5q-1 1 -1 2q-2 4 -3 7v2l-3 24q-1 12 -1 20l-13 -6q-50 -24 -89 -31q-19 -3 -38 -3q-31 0 -59 10q-46 17 -72 60q-22 37 -22 79q0 21 5 42q14 54 64 92z" />
<glyph unicode="&#x113;" horiz-adv-x="378" d="M266 238q-11 23 -35 38q-29 18 -58 18h-3q-22 0 -38 -13q-14 -10 -20 -27q-5 -15 -9 -31q-2 -9 -4 -22l150 28h2h2q4 2 7 2l6 2l1 1v2l-1 1v1zM49 247q29 48 84 72q33 13 69 13q7 0 13 -1q51 -4 88 -35q19 -17 33 -39q0 -1 1 -2l8 -8h1q7 -5 9 -7q1 -2 1 -3l1 -2v-4 q0 -1 -5 -6t-6 -5l7 2l-5 -4h-6l-60 -12l-184 -31q-1 -3 -1 -7q0 -28 9 -51q9 -22 25 -40q16 -16 42 -26q24 -10 54 -10h9q27 1 58 14q23 9 34 16l8 6l18 -23l-8 -5q-25 -18 -53 -32q-40 -20 -95 -23h-13q-52 0 -86 20q-40 24 -59 69q-14 32 -14 74v11q3 45 23 79zM50 388 v53h301v-53h-301zM267 243z" />
<glyph unicode="&#x115;" horiz-adv-x="378" d="M266 238q-11 23 -35 38q-29 18 -58 18h-3q-22 0 -38 -13q-14 -10 -20 -27q-5 -15 -9 -31q-2 -9 -4 -22l150 28h2h2q4 2 7 2l6 2l1 1v2l-1 1v1zM49 247q29 48 84 72q33 13 69 13q7 0 13 -1q51 -4 88 -35q19 -17 33 -39q0 -1 1 -2l8 -8h1q7 -5 9 -7q1 -2 1 -3l1 -2v-4 q0 -1 -5 -6t-6 -5l7 2l-5 -4h-6l-60 -12l-184 -31q-1 -3 -1 -7q0 -28 9 -51q9 -22 25 -40q16 -16 42 -26q24 -10 54 -10h9q27 1 58 14q23 9 34 16l8 6l18 -23l-8 -5q-25 -18 -53 -32q-40 -20 -95 -23h-13q-52 0 -86 20q-40 24 -59 69q-14 32 -14 74v11q3 45 23 79zM84 534 q15 -1 24 -10q8 -8 13 -23q5 -11 10 -15q26 -26 71 -26q46 0 69 26q4 4 9 15q5 15 13 23q9 9 24 10l12 1l-1 -11q-3 -70 -41 -105q-33 -31 -82 -31q-13 0 -28 3q-62 11 -88 62q-15 29 -16 71v11zM267 243z" />
<glyph unicode="&#x117;" horiz-adv-x="378" d="M266 238q-11 23 -35 38q-29 18 -58 18h-3q-22 0 -38 -13q-14 -10 -20 -27q-5 -15 -9 -31q-2 -9 -4 -22l150 28h2h2q4 2 7 2l6 2l1 1v2l-1 1v1zM49 247q29 48 84 72q33 13 69 13q7 0 13 -1q51 -4 88 -35q19 -17 33 -39q0 -1 1 -2l8 -8h1q7 -5 9 -7q1 -2 1 -3l1 -2v-4 q0 -1 -5 -6t-6 -5l7 2l-5 -4h-6l-60 -12l-184 -31q-1 -3 -1 -7q0 -28 9 -51q9 -22 25 -40q16 -16 42 -26q24 -10 54 -10h9q27 1 58 14q23 9 34 16l8 6l18 -23l-8 -5q-25 -18 -53 -32q-40 -20 -95 -23h-13q-52 0 -86 20q-40 24 -59 69q-14 32 -14 74v11q3 45 23 79zM181 475 q11 4 21 4q18 0 32 -10q19 -15 19 -36v-6q-3 -25 -32 -35q-10 -4 -21 -4q-18 0 -32 11q-19 15 -19 36v5q3 25 32 35zM267 243z" />
<glyph unicode="&#x118;" horiz-adv-x="574" d="M435 208q-4 34 -12 50q-7 11 -16 12q-59 9 -144 9q-56 0 -75 -1q0 -181 7 -222h2q30 -13 129 -13t150 35q30 21 50 70q4 9 9 10q3 1 5 1q6 -1 9 -3q2 -1 3 -2l4 -4q3 -5 3 -9q0 -2 -1 -5q-37 -114 -43 -129q-2 -11 -15 -11h-4q-18 4 -218 4h-148q-31 0 -86 -7h-2l-10 -12 q-13 -17 -19 -28t-8 -23q-3 -12 -3 -23q0 -30 22 -49q21 -19 53 -19q12 0 25 3l8 1l15 -30l-8 -5q-36 -18 -68 -20h-5q-35 0 -61 17q-28 17 -38 46q-7 18 -7 39q0 10 2 21q5 33 26 60q17 23 33 35q11 8 25 12q1 5 5 8q2 2 5 2q35 6 48 13q1 0 3 3q1 2 1 8q12 86 15 220v63 q0 96 -6 187q-1 18 -17 25q-11 5 -28 8t-17 17q0 15 17 15q147 -1 225 -1q187 0 209 4q7 1 18 1q16 0 16 -14q0 -2 -2 -8q-3 -10 -14 -103q-1 -5 -2 -6q-4 -12 -15 -12q-19 0 -19 17q0 2 1 4q1 9 1 16v2v2q0 30 -13 36q-45 22 -147 22q-59 0 -109 -9l-1 -1q-4 -24 -10 -214 v-2h82q90 0 140 7q3 0 5 1q4 2 6 7q13 24 17 40q4 11 19 11q16 0 16 -13v-2v-3q-6 -40 -6 -86q0 -36 4 -70v-4q0 -16 -17 -16t-19 15z" />
<glyph unicode="&#x119;" horiz-adv-x="378" d="M266 238q-11 23 -35 38q-29 18 -58 18h-3q-22 0 -38 -13q-14 -10 -20 -27q-5 -15 -9 -31q-2 -9 -4 -22l150 28h2h2q4 2 7 2l6 2l1 1v2l-1 1v1zM49 247q29 48 84 72q33 13 69 13q7 0 13 -1q51 -4 88 -35q19 -17 33 -39q0 -1 1 -2l8 -8l1 -1q7 -4 9 -6q1 -2 1 -3l1 -2v-4 q0 -1 -5 -6t-6 -5l7 2l-5 -4h-6l-60 -12l-184 -31q-1 -3 -1 -7q0 -28 9 -51q9 -22 25 -40q16 -16 42 -26q24 -10 54 -10h9q27 1 58 14q23 9 34 16l8 6l18 -23l-8 -5q-25 -18 -53 -32q-40 -20 -95 -23h-1l-12 -12q-15 -17 -22 -28t-10 -23t-3 -23q0 -30 25 -49t60 -19 q14 0 28 3l8 1l14 -30l-8 -5q-36 -18 -73 -20h-5q-41 0 -72 17q-28 17 -38 46q-7 18 -7 39q0 10 2 21q5 33 26 60q12 17 26 28q-20 4 -37 15q-40 23 -59 68q-14 33 -14 74v11q3 45 23 79zM267 243z" />
<glyph unicode="&#x11b;" horiz-adv-x="378" d="M266 238q-11 23 -35 38q-29 18 -58 18h-3q-22 0 -38 -13q-14 -10 -20 -27q-5 -15 -9 -31q-2 -9 -4 -22l150 28h2h2q4 2 7 2l6 2l1 1v2l-1 1v1zM49 247q29 48 84 72q33 13 69 13q7 0 13 -1q51 -4 88 -35q19 -17 33 -39q0 -1 1 -2l8 -8l1 -1q7 -4 9 -6q1 -2 1 -3l1 -2v-4 q0 -1 -5 -6t-6 -5l7 2l-5 -4h-6l-60 -12l-184 -31q-1 -3 -1 -7q0 -28 9 -51q9 -22 25 -40q16 -16 42 -26q24 -10 54 -10h9q27 1 58 14q23 9 34 16l8 6l18 -23l-8 -5q-25 -18 -53 -32q-40 -20 -95 -23h-13q-52 0 -86 20q-40 24 -59 69q-14 32 -14 74v11q3 45 23 79zM77 577 q25 -1 48 -20q24 -18 52 -48q15 -17 25 -27q10 13 18 21q10 11 29 31q21 21 37 31q19 11 36 12l17 1l-7 -15q-7 -16 -16.5 -35t-17.5 -32q-7 -12 -19 -33q-11 -22 -17 -32q-11 -15 -17 -22q-6 -8 -20 -15q-12 -6 -26 -6q-5 0 -10 1q-12 2 -21 9q-8 6 -12 11q-3 4 -9 14 q-6 9 -8 11v1l-1 1q-2 3 -11.5 18t-11.5 19q-18 30 -28 50q-11 20 -19 40l-6 15zM267 243z" />
<glyph unicode="&#x11d;" horiz-adv-x="443" d="M144 -67q-25 -11 -37 -19q-16 -11 -26 -24t-11 -30v-3q0 -18 12 -34q9 -13 34 -24q36 -15 76 -15q9 0 20 1q58 5 105 30q14 7 26 20q8 8 10 24q1 3 1 8q0 10 -4 23q-5 15 -10 22t-16 11q-7 2 -22 3q-9 1 -25 1q-14 0 -26 -1q-16 -1 -28 -1q-24 0 -48 3q-19 2 -31 5z M190 315q-27 0 -48 -13q-20 -13 -31 -35t-11 -45q-1 -47 36 -85t88 -49q18 6 31 15q26 18 35 47q4 13 4 30q0 6 -1 15q-3 26 -14 54q-11 30 -30 46q-24 20 -52 20h-3.5h-3.5zM41 174q-1 5 -1 14q0 32 16 63q19 36 52 61q26 20 63 29q27 6 48 6q43 0 82 -21l1 -1q4 -3 11 -6 h1h1q2 1 4.5 1h2.5q17 3 40 5h10q9 0 31 -2q7 -1 10 -3h2l3 -3q4 -4 4 -12v-4q0 -10 -4 -19t-8 -14l-1 -2l-1 -1q-4 -4 -9 -4h-3q-1 0 -6 2q-12 3 -20 3h-1h-1q-9 2 -18 2q9 -22 14 -43q3 -15 3 -29q0 -8 -1 -17q-3 -24 -15 -45q-11 -20 -34 -36q-27 -19 -94 -44l-32 -12 q-15 -5 -24 -10l-26 -14q-1 -1 -3 -2l-1 -0.5l-1 -0.5v-1q-1 -1 -1 -1.5v-1v-1.5l2 -1l1 -1q5 -5 11 -7q22 -8 70 -8h18h28q50 0 69 -5q29 -10 47 -26q22 -20 29 -45q2 -11 2 -22q0 -20 -9 -43q-11 -26 -37 -50q-53 -45 -138 -64q-38 -8 -72 -8h-8q-42 2 -73 19 q-27 16 -40 38q-13 24 -13 49v4q2 28 15 51q10 18 35 40q8 8 25 19l-11 10q-11 11 -19 24q-6 12 -8 20v1q-1 3 -1 6l1 4v1v1l3 4.5t4 5.5q3 2 4 2l28 14l34 14l5 2l-9 4q-36 15 -59 45t-28 66zM81 387l23 49q9 20 18 32l21 34q17 29 20 32l14 21q6 8 20 15q11 6 25 6 q5 0 9 -1q11 -2 20 -9q7 -5 11 -10t9 -15q5 -8 7 -11l25 -38l29 -50q12 -23 20 -40l7 -15l-16 1q-26 1 -51 20q-22 17 -50 47l-23 25q-18 -26 -48 -54q-41 -37 -74 -38z" />
<glyph unicode="&#x11f;" horiz-adv-x="443" d="M144 -67q-25 -11 -37 -19q-16 -11 -26 -24t-11 -30v-3q0 -18 12 -34q9 -13 34 -24q36 -15 76 -15q9 0 20 1q58 5 105 30q14 7 26 20q8 8 10 24q1 3 1 8q0 10 -4 23q-5 15 -10 22t-16 11q-7 2 -22 3q-9 1 -25 1q-14 0 -26 -1q-16 -1 -28 -1q-24 0 -48 3q-19 2 -31 5z M190 315q-27 0 -48 -13q-20 -13 -31 -35t-11 -45q-1 -47 36 -85t88 -49q18 6 31 15q26 18 35 47q4 13 4 30q0 6 -1 15q-3 26 -14 54q-11 30 -30 46q-24 20 -52 20h-3.5h-3.5zM41 174q-1 5 -1 14q0 32 16 63q19 36 52 61q26 20 63 29q27 6 48 6q43 0 82 -21l1 -1q4 -3 11 -6 h1h1q2 1 4.5 1h2.5q17 3 40 5h10q9 0 31 -2q7 -1 10 -3h2l3 -3q4 -4 4 -12v-4q0 -10 -4 -19t-8 -14l-1 -2l-1 -1q-4 -4 -9 -4h-3q-1 0 -6 2q-12 3 -20 3h-1h-1q-9 2 -18 2q9 -22 14 -43q3 -15 3 -29q0 -8 -1 -17q-3 -24 -15 -45q-11 -20 -34 -36q-27 -19 -94 -44l-32 -12 q-15 -5 -24 -10l-26 -14q-1 -1 -3 -2l-1 -0.5l-1 -0.5v-1q-1 -1 -1 -1.5v-1v-1.5l2 -1l1 -1q5 -5 11 -7q22 -8 70 -8h18h28q50 0 69 -5q29 -10 47 -26q22 -20 29 -45q2 -11 2 -22q0 -20 -9 -43q-11 -26 -37 -50q-53 -45 -138 -64q-38 -8 -72 -8h-8q-42 2 -73 19 q-27 16 -40 38q-13 24 -13 49v4q2 28 15 51q10 18 35 40q8 8 25 19l-11 10q-11 11 -19 24q-6 12 -8 20v1q-1 3 -1 6l1 4v1v1l3 4.5t4 5.5q3 2 4 2l28 14l34 14l5 2l-9 4q-36 15 -59 45t-28 66zM103 534q14 -1 24 -10q9 -8 16 -23q5 -11 9 -15q25 -26 67.5 -26t67.5 26 q4 4 9 15q6 15 15 23q10 9 25 10l12 1l-1 -11q-3 -70 -43 -105q-36 -31 -82 -31q-13 0 -26 3q-61 11 -88 62q-15 29 -16 71v11z" />
<glyph unicode="&#x121;" horiz-adv-x="443" d="M144 -67q-25 -11 -37 -19q-16 -11 -26 -24t-11 -30v-3q0 -18 12 -34q9 -13 34 -24q36 -15 76 -15q9 0 20 1q58 5 105 30q14 7 26 20q8 8 10 24q1 3 1 8q0 10 -4 23q-5 15 -10 22t-16 11q-7 2 -22 3q-9 1 -25 1q-14 0 -26 -1q-16 -1 -28 -1q-24 0 -48 3q-19 2 -31 5z M190 315q-27 0 -48 -13q-20 -13 -31 -35t-11 -45q-1 -47 36 -85t88 -49q18 6 31 15q26 18 35 47q4 13 4 30q0 6 -1 15q-3 26 -14 54q-11 30 -30 46q-24 20 -52 20h-3.5h-3.5zM41 174q-1 5 -1 14q0 32 16 63q19 36 52 61q26 20 63 29q27 6 48 6q43 0 82 -21l1 -1q4 -3 11 -6 h1h1q2 1 4.5 1h2.5q17 3 40 5h10q9 0 31 -2q7 -1 10 -3h2l3 -3q4 -4 4 -12v-4q0 -10 -4 -19t-8 -14l-1 -2l-1 -1q-4 -4 -9 -4h-3q-1 0 -6 2q-12 3 -20 3h-1h-1q-9 2 -18 2q9 -22 14 -43q3 -15 3 -29q0 -8 -1 -17q-3 -24 -15 -45q-11 -20 -34 -36q-27 -19 -94 -44l-32 -12 q-15 -5 -24 -10l-26 -14q-1 -1 -3 -2l-1 -0.5l-1 -0.5v-1q-1 -1 -1 -1.5v-1v-1.5l2 -1l1 -1q5 -5 11 -7q22 -8 70 -8h18h28q50 0 69 -5q29 -10 47 -26q22 -20 29 -45q2 -11 2 -22q0 -20 -9 -43q-11 -26 -37 -50q-53 -45 -138 -64q-38 -8 -72 -8h-8q-42 2 -73 19 q-27 16 -40 38q-13 24 -13 49v4q2 28 15 51q10 18 35 40q8 8 25 19l-11 10q-11 11 -19 24q-6 12 -8 20v1q-1 3 -1 6l1 4v1v1l3 4.5t4 5.5q3 2 4 2l28 14l34 14l5 2l-9 4q-36 15 -59 45t-28 66zM201 475q10 4 20 4q16 0 29 -10q19 -15 19 -36q0 -3 -1 -6q-2 -25 -30 -35 q-10 -4 -19 -4q-17 0 -31 11q-18 15 -18 36q0 3 1 5q2 25 30 35z" />
<glyph unicode="&#x122;" horiz-adv-x="664" d="M381 592q34 0 59 -4t55 -12q6 -2 13.5 -4t11.5 -3.5t6 -1.5q3 -1 7 -1h3h1q5 4 11 13t15 9q2 0 2 -1q10 -3 12 -8q1 -3 1 -5v-4q-1 -2 -1 -8q0 -17 4 -50q6 -46 12 -64h1v-1v-4q0 -8 -4 -12q-6 -4 -9 -5h-4q-14 0 -19 13q-16 42 -65 75q-48 32 -132 32q-57 0 -95 -16 q-69 -28 -111 -89q-42 -60 -42 -142q0 -102 80.5 -182.5t192.5 -80.5q72 0 127 32q9 5 10 19q1 25 1 48q0 41 -4 91q-2 19 -16 25q-14 7 -69 7h-6.5h-6.5q-7 0 -12.5 4.5t-5.5 14.5q0 9 5.5 14t13.5 5q41 -1 53 -1h15h15q75 0 119 5h4q8 0 12.5 -5.5t4.5 -11.5 q1 -15 -13 -19q-14 -3 -17 -9q-5 -8 -5 -27q-2 -111 -2 -153q0 -12 14 -24q6 -5 6 -13q0 -12 -12 -15q-7 -1 -31 -5l-42 -7q-50 -9 -90 -14q-41 -6 -77 -6q-154 0 -257 82q-100 83 -100 225q0 65 33 125q32 61 81 95q50 35 117 54.5t130 19.5zM378 -49q7 -2 13 -5q3 -2 4 -2 q1 -1 1 -2h1l1 -1q1 -2 2 -2l5 -6l7 -6l1 -1q2 -3 8 -7q9 -5 16 -10q9 -7 12 -17q1 -3 1 -7q0 -8 -6 -20q-1 -1 -2 -3l-2 -4l-2 -4v-1v-1q-26 -100 -111 -136l-10 -4l-16 35l8 5q31 17 48 38q8 11 8 22q0 9 -6 18q-3 6 -18 21q-18 17 -21 34l-2 7l7 4q26 13 41 49l4 7z M398 -59zM396 -58zM396 -58zM396 -58z" />
<glyph unicode="&#x123;" horiz-adv-x="443" d="M144 -67q-25 -11 -37 -19q-16 -11 -26 -24t-11 -30v-3q0 -18 12 -34q9 -13 34 -24q36 -15 76 -15q9 0 20 1q58 5 105 30q14 7 26 20q8 8 10 24q1 3 1 8q0 10 -4 23q-5 15 -10 22t-16 11q-7 2 -22 3q-9 1 -25 1q-14 0 -26 -1q-16 -1 -28 -1q-24 0 -48 3q-19 2 -31 5z M190 315q-27 0 -48 -13q-20 -13 -31 -35t-11 -45q-1 -47 36 -85t88 -49q18 6 31 15q26 18 35 47q4 13 4 30q0 6 -1 15q-3 26 -14 54q-11 30 -30 46q-24 20 -52 20h-3.5h-3.5zM41 174q-1 5 -1 14q0 32 16 63q19 36 52 61q26 20 63 29q27 6 48 6q43 0 82 -21l1 -1q4 -3 11 -6 h1h1q2 1 4.5 1h2.5q17 3 40 5h10q9 0 31 -2q7 -1 10 -3h2l3 -3q4 -4 4 -12v-4q0 -10 -4 -19t-8 -14l-1 -2l-1 -1q-4 -4 -9 -4h-3q-1 0 -6 2q-12 3 -20 3h-1h-1q-9 2 -18 2q9 -22 14 -43q3 -15 3 -29q0 -8 -1 -17q-3 -24 -15 -45q-11 -20 -34 -36q-27 -19 -94 -44l-32 -12 q-15 -5 -24 -10l-26 -14q-1 -1 -3 -2l-1 -0.5l-1 -0.5v-1q-1 -1 -1 -1.5v-1v-1.5l2 -1l1 -1q5 -5 11 -7q22 -8 70 -8h18h28q50 0 69 -5q29 -10 47 -26q22 -20 29 -45q2 -11 2 -22q0 -20 -9 -43q-11 -26 -37 -50q-53 -45 -138 -64q-38 -8 -72 -8h-8q-42 2 -73 19 q-27 16 -40 38q-13 24 -13 49v4q2 28 15 51q10 18 35 40q8 8 25 19l-11 10q-11 11 -19 24q-6 12 -8 20v1q-1 3 -1 6l1 4v1v1l3 4.5t4 5.5q3 2 4 2l28 14l34 14l5 2l-10 4q-35 15 -58 45t-28 66zM214 597q8 -2 14 -5q3 -2 4 -2l2 -2l1 -1h1l1 -2l5 -6l8 -6l1 -1q2 -3 9 -7 q9 -5 17 -10q9 -7 12 -17q1 -3 1 -7q0 -8 -7 -20q0 -1 -1 -3t-2.5 -4t-2.5 -4v-1v-1q-27 -100 -117 -136l-10 -4l-17 35l8 5q32 17 51 38q8 11 8 22q0 9 -5 18q-4 6 -20 21q-19 17 -23 34l-1 7l7 4q28 13 44 49l3 7zM235 587zM234 588zM234 588zM234 588zM234 588z" />
<glyph unicode="&#x126;" horiz-adv-x="767" d="M47 591q22 0 61 -3q38 -2 51 -2q59 0 85 3h1h3q10 0 13 -8q1 -4 2 -7v-3q0 -15 -15 -17q-42 -5 -55 -14l-1 -1l-1 -1v0q-3 -24 -4 -52h407q-1 14 -3 29q-2 23 -13 31t-43 13q-13 2 -13 17v1v1l2 6q5 11 16 11l41 -3q40 -3 63 -3q14 0 81 5q13 1 16 -15q1 -3 1 -5 q0 -13 -12 -15q-44 -5 -45 -39l-1 -30h60v-47h-61q-3 -131 -3 -219q0 -101 4 -154q1 -14 4 -22q1 -5 7 -8q9 -4 13 -4q2 -1 6 -1.5t9.5 -1t7.5 -0.5q14 -2 14 -18v-3q0 -6 -4 -12t-12 -6h-4q-37 7 -82 7q-38 0 -100 -9h-6t-5 1.5t-5 1.5q-3 5 -3 6q-1 2 -2 7v7q0 14 12 17 q20 4 28 6q6 1 15 6q6 4 8 10q3 9 4 23q5 97 5 167q0 23 -1 41l-411 2v-29v-42q1 -45 2 -96t1 -53q0 -17 13 -24q15 -10 45 -14q15 -2 15 -18q0 -4 -1 -6q-4 -14 -18 -14h-4q-39 9 -94 9q-47 0 -97 -7h-3q-16 0 -17 15v2v3q0 13 12 15q32 5 42 11q9 5 10 27q8 118 8 235v25 q-1 68 -2 117h-67v46h66q-1 19 -2 34q-1 20 -10 25q-10 7 -37 7q-16 1 -16 18v1v1q2 5 2 6q5 10 17 10zM597 397q0 26 -1 51h-411q0 -25 -1 -57q-1 -43 -1 -64h413q0 15 1 44v26z" />
<glyph unicode="&#x127;" horiz-adv-x="495" d="M185 307q44 18 76 26q25 5 46 5q19 0 34 -5q21 -6 36 -19q15 -14 23 -29q10 -20 13 -46v-1q0 -2 0.5 -5.5t1 -13.5t1.5 -25q1 -17 1 -82q0 -18 -2 -57v-3v-2l2 -4q0 -2 0.5 -2.5t1.5 -0.5h1v-1q5 -1 6 -1h1l34 -6h6l6 -6q5 -5 5 -10v-3q0 -6 -4 -10l-1 -2l-1 -1 q-5 -5 -11 -5h-3q-43 2 -66 2q-41 0 -83 -3h-2q-7 0 -11 4t-4 10v7l2 4l-1 -4q0 1 6 6t7 5l17 5l5 1l2 2l2 2l1 1v2q2 4 2 5v1q6 38 6 76q0 7 -1 33q-3 62 -4 78t-9 32q-7 14 -21 23q-12 7 -23 9q-4 1 -27 1q-33 -2 -56 -8q-25 -6 -43 -14q-3 -76 -3 -121v-22v-80q0 -5 1 -7 l1 -1v-1q2 -3 4 -3l2 -1h1q6 -3 10 -4l29 -5q6 -1 8 -2t3 -1l1 -1l7 -6v-6q0 -6 -4 -10l-6 -5h-4l-3 -1h-4q-27 1 -79 1q-28 0 -80 -2h-3l-5 5l-6 6l3 -6l-4 4v10q0 2 4.5 6.5t5.5 4.5l1 -1l2 2l-1 -2l3 3l13 4q3 1 11 4l3 3q4 8 4 10q1 1 1 9q4 67 7 215q2 67 2 162h-83v44 h83v6v6v24q0 13 -3 23h-1v1v1l-1 1q-3 3 -4 3v1h-5q-2 0 -7 -1l-16 -6h-9q-5 0 -9 4t-4 11v7l7 7l6 4l44 18q32 12 42 19l1 1q9 4 20 13l-4 -7l6 6t6 5q4 1 6 1q5 0 8 -1q1 0 2 -1h1h1q5 -4 6 -5q1 -2 3 -5l1 -2v-9l-1 -2l-1 -2q-6 -14 -8 -43l-5 -78h87v-44h-90v-5 q-2 -40 -4 -139zM477 13q-3 -5 -11 -11l9 5z" />
<glyph unicode="&#x129;" horiz-adv-x="260" d="M-35 403q2 26 10 49q9 24 24 38t31 15q4 1 8 1q12 0 28 -4q23 -6 40 -13l39 -16l34 -14q7 -3 14 -3q9 0 16 7q15 12 19 35l1 8h38l-1 -10q-1 -27 -9 -48q-11 -24 -24 -37q-15 -13 -32 -16q-4 -1 -10 -1q-11 0 -26 4q-24 5 -41 11l-41 16l-33 13q-9 3 -14 3q-9 0 -16 -6 q-14 -12 -16 -33v-9h-39v10zM24 15q0 3 4 9l-2 -3l4 8h9l29 3h1q1 1 2 1v1q1 3 1 5q6 47 8 88v33q0 37 -4 82q-1 7 -2 12l-2 4t-2 3h-1q-4 2 -4 3q-3 1 -4 1q-5 0 -9 -2h-1l-5 -2h-2q-2 -1 -3 -1h-4l-5.5 5t-5.5 6v2v11l3 6l1 1q5 4 9 4l2 1l51 22q30 12 56 29v1l2 1 q4 4 12 4h9l5 -5q4 -3 5 -8v-4v-5l-1 -2v-1v-1q-4 -24 -8 -65q-2 -25 -2 -73v-17.5v-16.5q1 -37 2 -85q1 -10 3 -18q3 -8 8 -13q3 -4 4 -5h7l26 1h8q7 0 11 -6q0 -1 1 -1.5l1 -0.5q2 -4 2 -8v-4l-1 -1v-2l-2 -2v-1l-2 -3q-5 -5 -11 -5h-4q-52 0 -86 -1q-41 -1 -97 -5h-4h-6 l-4 8l2 -3q-4 6 -4 9v6z" />
<glyph unicode="&#x12b;" horiz-adv-x="260" d="M-36 393v53h301v-53h-301zM24 15q0 3 4 9l-2 -3l4 8h8l30 3h1l1 1q1 0 1 1q0 3 1 5q5 47 7 88q1 14 1 33q0 37 -4 82q-1 7 -2 12l-2 4t-3 3h-1q-3 2 -4 3q-2 1 -3 1q-6 0 -10 -2h-1l-4 -2h-2l-3 -1h-4q-1 0 -6 5t-5 6v2v11l3 6l1 1q4 4 8 4l3 1l51 22q29 12 55 29l1 1 l1 1q5 4 13 4h8l5 -5q4 -3 6 -8v-4t-1 -5v-2v-1v-1q-4 -24 -8 -65q-2 -25 -2 -73v-17.5v-16.5q0 -37 2 -85q0 -10 3 -18q2 -8 7 -13l5 -5h7l26 1h8q6 0 10 -6l1.5 -1.5l0.5 -0.5q3 -4 3 -8v-4l-1 -1v-2l-2 -2v-1l-3 -3q-5 -5 -10 -5h-4q-52 0 -87 -1q-41 -1 -97 -5h-3h-6 l-4 8l2 -3q-4 6 -4 9v6z" />
<glyph unicode="&#x12d;" horiz-adv-x="240" d="M38 539q15 -1 24 -10q8 -8 13 -23q5 -11 9 -15q22 -26 60.5 -26t60.5 26q4 4 9 15q5 15 13 23q9 9 24 10l12 1l-1 -11q-3 -70 -41 -105q-33 -31 -74 -31q-11 0 -24 3q-54 11 -80 62q-15 29 -16 71v11zM24 15q0 3 4 9l-2 -3l4 8h8l28 3h2q0 1 1 1v1q0 3 1 5q4 47 6 88 q1 14 1 33q0 37 -4 82q0 7 -2 12q0 2 -1 4t-2 3h-1q-3 2 -3 3q-2 1 -3 1q-6 0 -10 -2h-1l-4 -2h-2l-3 -1h-4q-1 0 -6 5t-5 6v2v11l3 6l1 1q4 4 8 4l3 1q21 9 45 22q24 12 45 29v1l2 1q4 4 10 4h7l5 -5q4 -3 6 -8v-4t-1 -5v-2v-1v-1q-4 -25 -8 -65q-2 -25 -2 -73v-17.5v-16.5 q0 -37 2 -85q0 -10 3 -18q2 -8 7 -13l5 -5h7l26 1h8q6 0 10 -6l1.5 -1.5l0.5 -0.5q3 -4 3 -8v-4l-1 -1v-2l-2 -2v-1l-3 -3q-5 -5 -10 -5h-4q-53 0 -81 -1q-30 -1 -83 -5h-3h-6l-4 8l2 -3q-4 6 -4 9v6z" />
<glyph unicode="&#x12e;" horiz-adv-x="351" d="M48 593q46 -5 131 -5q71 0 130 6h3q17 0 17 -17q0 -5 -1 -7q-2 -14 -15 -14h-12h-9q-3 -1 -13 -1l-7 -1h-1l-11 -3q-4 -2 -6 -4l-8 -6l-4 -4l-1 -1q-2 -5 -4 -11q-3 -7 -4 -14q-7 -52 -8 -200v-32q0 -128 4 -204q2 -34 21 -38q20 -5 59 -5q16 0 16 -18q0 -17 -19 -17h-4 h-8q-16 0 -50 1q-50 2 -62 2q-99 0 -136 -4h-2l-10 -12q-13 -17 -19 -28t-8 -23q-3 -12 -3 -23q0 -30 22 -49q21 -19 54 -19q12 0 26 3l8 1l16 -30l-9 -5q-37 -18 -69 -20h-5q-36 0 -62 17q-28 17 -38 46q-7 18 -7 39q0 10 2 21q5 33 26 60q17 23 33 35q10 8 23 11 q3 13 15 13q47 2 61 6q28 9 31 44q7 82 7 196q0 16 -1 33q-1 139 -7 195q-4 30 -16 37q-14 8 -57 12q-9 1 -10 1h-1h-1q-17 2 -17 16q0 20 19 20h1z" />
</font>
</defs>
</svg>
