<?xml version="1.0" standalone="no"?>
<!DOCTYPE svg PUBLIC "-//W3C//DTD SVG 1.1//EN" "http://www.w3.org/Graphics/SVG/1.1/DTD/svg11.dtd" >
<svg xmlns="http://www.w3.org/2000/svg">
<metadata></metadata>
<defs>
<font id="anoeyfuturamerlincommedium" horiz-adv-x="1304" >
<font-face units-per-em="1000" ascent="800" descent="-200" />
<missing-glyph horiz-adv-x="979" />
<glyph unicode=" " horiz-adv-x="979" d="M0 0v51h1000v-51h-1000z" />
<glyph unicode="&#x22;" horiz-adv-x="828" d="M814 -488l-57 55h-1l-2 -1h-1l-2 -1h-1v-1h-1h-1h-1h-1v-1h-1h-1h-1v-1h-1h-1h-1v-1h-1h-1h-1v-1h-1h-1h-1l-1 -1h-1h-1l-1 -1h-1h-1l-1 -1h-1h-1l-1 -1h-1h-1l-1 -1h-1h-1l-1 -1h-1h-1l-1 -1h-1h-1l-1 -1h-1h-1l-1 -1h-1l-1 -1h-2l-1 -1h-2l-1 -1h-2l-2 -1l-2 -1h-2 l-2 -1l-2 -1h-2l-2 -1l-2 -1l-2 -1h-2l-2 -1l-2 -1l-3 -1h-2l-3 -2l-3 -1l-3 -1l-3 -1l-3 -1l-3 -1l-3 -1l-3 -1l-4 -2l-4 -1l-4 -2l-4 -1l-4 -2l-4 -1l-5 -2l-5 -2l-5 -2l-5 -2l-5 -1l-6 -3l-6 -2l-7 -2l-7 -3l-7 -3l-7 -2l-8 -3l-114 -50q-80 -33 -114 -33h-2h-1h-1h-2h-1 h-1h-1h-2h-1h-1h-1h-1h-2h-1l-1 1h-2h-1h-1h-1h-1h-2l-1 1h-1h-1h-2h-1l-1 1h-1h-2h-1h-1l-1 1h-1h-2l-1 1h-1h-1h-1l-2 1h-1h-1l-1 1h-1h-2l-1 1h-1l-1 1h-1h-1l-2 1h-1l-1 1h-1l-1 1h-1l-1 1h-2l-1 1h-1l-1 1h-1l-1 1h-1l-2 1h-1l-1 1l-1 1h-1l-1 1l-1 1h-1l-1 1l-2 1h-1 l-1 1l-1 1h-1l-1 1l-1 1l-1 1h-1l-1 1l-1 1l-1 1l-2 1l-1 1h-1l-1 1l-1 1l-1 1l-1 1l-1 1l-1 1l-1 1l-1 1l-1 1l-1 1l-1 1l-1 1l-1 1l-1 1l-1 1l-1 1v1h-1v1h-1v1l-1 1v1h-1l-1 1v1h-1v1l-1 1l-1 1v1l-1 1v1h-1v1l-1 1v1h-1v1l-1 1l-1 1v1l-1 1l-1 1v1h-1v1v1h-1v1l-1 1v1 h-1v1v1h-1v1l-1 1v1l-1 1l-1 1v1l-1 1l-1 1v1v1h-1v1l-1 1v1l-1 1v1h-1v1l-1 1v1l-1 1v1l-1 1v1h-1v1l-1 1v1l-1 1v1l-1 1l-1 1v1l-1 1v1l-1 1v1l-1 1l-1 1v1l-1 1v1l-1 1v1l-1 1v1h-1v1l-1 1v1l-1 1v1l-1 1v1l-1 1v1l-1 1l-1 1v1l-1 1v1l-1 1v1l-1 1v1l-1 1l-1 1v1l-1 1v1 l-1 1v1l-1 1v1l-1 1v1l-1 1v1l-1 1l-1 1v1l-1 1h-86l1 -2v-1l1 -2l1 -1l1 -2v-1h1v-2l1 -1l1 -2l1 -1l1 -2v-1l1 -2l1 -1l1 -2l1 -1l1 -2v-1l1 -2l1 -1l1 -2l1 -1l1 -2v-1l1 -1l1 -2l1 -1l1 -1v-2l1 -1l1 -2l1 -1l1 -1v-2l1 -1l1 -2l1 -1l1 -1l1 -2l1 -1v-1l1 -2l1 -1l1 -2 l1 -1l1 -1l1 -2v-1l1 -1l1 -2l1 -1l1 -1l1 -2l1 -1v-1l1 -2l1 -1l1 -1l1 -2l1 -1l1 -1l1 -1l1 -2l1 -1v-1l1 -2l1 -1l1 -1l1 -1l1 -2l1 -1l1 -1l1 -1l1 -2l1 -1l1 -1l1 -1l1 -1v-2l1 -1l1 -1l1 -1l1 -1l1 -2l1 -1l1 -1l1 -1l1 -1l1 -1l1 -1l1 -2q9 -10 18 -17l1 -1l1 -1 l1 -1l1 -1h1v-1l1 -1h1l1 -1l1 -1h1v-1l1 -1h1l1 -1h1v-1l1 -1h1l1 -1h1v-1l1 -1h1l1 -1h1v-1h1l1 -1h1l1 -1l1 -1l1 -1h1l1 -1h1l1 -1l1 -1h1l1 -1h1l1 -1l1 -1h1l1 -1h1l1 -1h1l1 -1h1l1 -1h1l1 -1h1l1 -1h1l1 -1h1h1v-1h1h1l1 -1h1l1 -1h1l1 -1h1h1l1 -1h1l1 -1h1h1l1 -1 h1h1l1 -1h1h1v-1h1h1h1v-1h1h1h1l1 -1h1h1l1 -1h1h1l1 -1h1h1h1l1 -1h1h1h1l1 -1h1h1h1l1 -1h1h1h1l1 -1h1h1h1h1l1 -1h1h1h1h1l1 -1h1h1h1h1h1h1v-1h1h1h1h1h1h1h1l1 -1h1h1h1h1h1h1h1l1 -1h1h1h1h1h1h1h1h1h1h1h1h1l1 -1h1h1h1h1h1h1h1h1h1h1h1h9h1h1h1h1h1h1h1h1v1h1h1h1 h1h1h1h1l1 1h1h1h1h1l2 1h1h1h1h1v1h1h1h1h1v1h3h1v1h1h1h1h1h1v1h1h1h1h1v1h1h1h1v1h1h1h1h1v1h1h1h1h1v1h1h1h1h1v1h1h1h1v1h1h1h1h1v1h1h1l1 1h1h1h1l1 1h1h1l1 1h1h1h1l1 1h1h1l1 1h1h1l1 1h1h1h1l1 1h1h1l1 1h1h1l1 1h1h1l1 1h1h1h1l1 1h1h1l1 1h1h1l1 1h2l1 1h2l2 1 l2 1h2l2 1h2l2 1l2 1h2l2 1l2 1h2l2 1l2 1h3l2 1l2 1h2l2 1l3 1l3 1l3 1h1q170 58 338 100zM814 1135l-56 -55h-1l-4 1h-1v1h-2h-1v1h-1h-1h-1l-1 1h-1h-1h-1v1h-1h-1h-1v1h-1h-1l-1 1h-1h-1l-1 1h-1h-1h-1l-1 1h-1h-1l-1 1h-1h-1l-1 1h-1h-1l-1 1h-1h-1l-1 1h-1l-1 1h-1h-1 l-1 1h-1h-1l-1 1h-1h-1l-2 1h-1l-2 1h-1l-2 1l-2 1h-2l-2 1l-2 1h-2l-2 1l-2 1l-2 1h-2l-2 1l-2 1h-2l-3 1l-2 1l-3 1l-3 1l-3 1l-3 1l-3 2l-3 1l-3 1l-3 1l-4 1l-4 2l-4 1l-4 2l-4 1l-4 2l-5 2l-5 1l-5 2l-5 2l-5 2l-6 2l-6 3l-7 2l-7 3l-7 2l-7 3l-8 3l-114 50 q-80 33 -114 33h-2h-1h-1h-2h-1h-1h-1h-2h-1h-1h-1l-2 -1h-1h-1h-1h-2h-1h-1h-1l-2 -1h-1h-1h-1h-1h-2l-1 -1h-1h-1h-2h-1l-1 -1h-1h-1l-2 -1h-1h-1h-1l-1 -1h-2h-1l-1 -1h-1h-1l-1 -1h-2h-1l-1 -1h-1l-1 -1h-2l-1 -1h-1h-1l-1 -1h-1l-1 -1h-2l-1 -1h-1l-1 -1h-1l-1 -1 l-1 -1h-2l-1 -1h-1l-1 -1l-1 -1h-1l-1 -1l-1 -1h-1l-2 -1l-1 -1h-1l-1 -1l-1 -1h-1l-1 -1l-1 -1l-1 -1l-1 -1h-1l-1 -1l-2 -1l-1 -1l-1 -1l-1 -1l-1 -1h-1l-1 -1l-1 -1l-1 -1l-1 -1l-1 -1l-1 -1l-1 -1l-1 -1l-1 -1l-1 -1l-1 -1l-1 -1l-1 -2q-18 -19 -65 -107h-86l1 1v2l1 1 l1 2l1 1v2h1v1l1 2l1 1l1 2l1 1v2l1 1l1 2l1 1v2l1 1l1 1l1 2l1 1v2l1 1l1 1l1 2l1 1v2l1 1l1 1l1 2l1 1v1l1 2l1 1l1 2l1 1l1 2v1h1v1l1 2l1 1l1 1l1 2l1 1v2l1 1l1 1l1 2l1 1l1 1l1 2v1l1 1l1 1l1 2l1 1l1 1l1 2v1l1 1l1 2l1 1l1 1l1 1l1 2l1 1l1 1l1 2v1l1 1l1 1l1 2l1 1 l1 1l1 1l1 1l1 2l1 1l1 1l1 1l1 2l1 1l1 1l1 1l1 1l1 2l1 1l1 1l1 1l1 1l1 1l1 1l1 2q8 9 17 17l1 1h1v1l1 1h1l1 1v1h1l1 1l1 1h1v1l1 1h1l1 1h1v1l1 1h1l1 1h1v1l1 1h1l1 1h1v1h1l1 1h1v1h1l1 1l1 1h1l1 1h1l1 1l1 1h1l1 1h1l1 1l1 1h1l1 1h1l1 1h1v1h1h1l1 1h1l1 1h1l1 1 h1l1 1h1l1 1h1l1 1h1l1 1h1h1v1h1h1l1 1h1h1v1h1h1l1 1h1h1l1 1h1h1v1h1h1l1 1h1h1l1 1h1h1l1 1h1h1h1l1 1h1h1l1 1h1h1h1l1 1h1h1h1l1 1h1h1h1l1 1h1h1h1h1l1 1h1h1h1h1v1h1h1h1h1h1l1 1h1h1h1h1h1l1 1h1h1h1h1h1h1h1l1 1h1h1h1h1h1h1h1h1l1 1h1h1h1h1h1h1h1h1h1h1h1h1h1h1 h1l1 1h1h1h1h1h1h9h1h1h1h1h1l1 -1h1h1h1h1h1h1h1l1 -1h1h1h1h1h1v-1h1h1h1h1h1v-1h1h1h1h1h1v-1h1h1h1h1v-1h1h1h1h1v-1h2h1h1v-1h1h1h1h1v-1h1h1h1l1 -1h1h1h1l1 -1h1h1h1h1v-1h1h1h1v-1h1h1h1h1v-1h1h1l1 -1h1h1h1l1 -1h1h1l1 -1h1h1h1l1 -1h1h1l1 -1h1h1l1 -1h1h1h1 l1 -1h1h1l1 -1h1h1l1 -1h1h1l1 -1h1h1h1l1 -1h1h1l1 -1h1h1l1 -1h1l2 -1h1l2 -1h2l2 -1h2l2 -1l2 -1h2l2 -1l2 -1h2l2 -1l2 -1h2l2 -1l3 -1h2l2 -1l2 -1h2l3 -1l3 -1l3 -1l1 -1q170 -57 338 -99zM166 -197l4 217v817v2v2v1v2v1v2v2v1v2l-1 1v2v1v2v2l-1 1v2v1v2l-1 1v2v1 l-1 2v1l-1 2v1l-1 2v1l-1 2v1l-1 1l-1 2v1l-1 2l-1 1l-1 1v1l-1 1l-1 1l-1 1l-1 1l-1 1v1l-1 1l-1 1l-1 1l-1 1h-1l-1 1l-1 1h-1l-1 1l-1 1l-1 1h-1l-1 1h-2q-17 8 -81 6v43l208 15v-434l1 1h1l1 1l1 1v1l1 1l1 1l1 1h1l1 1v1l1 1l1 1l1 1h1l1 1v1l1 1l1 1h1l1 1l1 1l1 1v1 h1l1 1l1 1l1 1h1l1 1v1l1 1h1l1 1l1 1h1l1 1v1l1 1h1l1 1l1 1h1l1 1v1h1l1 1l1 1h1l1 1l1 1h1l1 1l1 1h1v1h1l1 1l1 1h1l1 1l1 1h1l1 1l1 1h1l1 1h1v1h1l1 1h1l1 1h1v1h1l1 1h1l1 1h1l1 1l1 1h1l1 1h1l1 1h1l1 1h1l1 1h1l1 1h1l1 1h1l1 1h1l1 1h1l1 1h1h1l1 1h1l1 1h1l1 1h1 h1l1 1h1l1 1h1h1l1 1h1l1 1h1h1l1 1h1h1l1 1h1h1l1 1h1h1l1 1h1h1l1 1h1h1h1l1 1h1h1h1l1 1h1h1l1 1h1h1h1h1l1 1h1h1h1l1 1h1h1h1h1l1 1h1h1h1h1l1 1h1h1h1h1h1h1l1 1h1h1h1h1h1h1l1 1h1h1l33 2h1h1h2h1h1h1l2 -1h1h1h1h2h1h1h1h2h1h1h1h2h1h1h1l1 -1h2h1h1h1h1h2h1l1 -1h1 h1h2h1h1h1l1 -1h2h1h1h1l1 -1h2h1h1h1l1 -1h2h1h1h1l1 -1h1h1h2l1 -1h1h1h1l1 -1h2h1l1 -1h1h1h1l2 -1h1h1l1 -1h1h1l2 -1h1h1l1 -1h1l1 -1h1h2l1 -1h1h1l1 -1h1l1 -1h2h1l1 -1h1l1 -1h1l1 -1h1h2l1 -1h1l1 -1h1l1 -1h1l1 -1h2l1 -1h1l1 -1h1l1 -1h1l1 -1h1l1 -1h2l1 -1h1 l1 -1l1 -1h1l1 -1h1l1 -1l1 -1h2l1 -1h1l1 -1l1 -1h1l1 -1h1v-1h1l1 -1h1l1 -1l2 -1h1l1 -1l1 -1h1l1 -1l1 -1l1 -1h1l1 -1l1 -1h1l1 -1l1 -1l2 -1h1l1 -1l1 -1l1 -1h1l1 -1l1 -1l1 -1l1 -1h1l1 -1l1 -1l1 -1l1 -1l1 -1h1l1 -1l1 -1l1 -1l1 -1l2 -1l1 -1l1 -1h1l1 -1l1 -1 l1 -1l1 -1l1 -1l1 -1l1 -1l1 -1l1 -1l1 -1l1 -1l1 -1l1 -1l1 -1l1 -1l1 -1l1 -1l1 -1l1 -1l1 -1l1 -1l1 -1l1 -1l1 -1l1 -1v-1h1l1 -1l1 -1l1 -1v-1l1 -1l1 -1l1 -1l1 -1l1 -1l1 -1v-1l1 -1l1 -1l1 -1l1 -1l1 -1l1 -1v-1l1 -1l1 -1v-1h1l1 -1v-1l1 -1l1 -1v-1l1 -1l1 -1 l1 -1l1 -1v-1l1 -1l1 -1v-1l1 -1l1 -1l1 -1v-1l1 -1l1 -1v-1l1 -1v-1l1 -1h1v-1l1 -1v-1l1 -1v-1l1 -1l1 -1v-1h1v-1l1 -1v-1l1 -1v-1l1 -1v-1l1 -1v-1h1v-1l1 -1v-1l1 -1v-1l1 -1v-1l1 -1v-1l1 -1v-1h1v-1l1 -1v-1l1 -1v-1l1 -1v-1v-1l1 -1v-1l1 -1l1 -1v-1v-1l1 -1v-1 l1 -1v-1v-1l1 -1v-1l1 -1v-1l1 -1v-1v-1l1 -1v-1l1 -1v-1v-1l1 -1v-1v-1l1 -1v-1v-1h1v-1v-1l1 -1v-1v-1l1 -1v-1v-1v-1l1 -1v-1v-1l1 -1v-1v-1v-1l1 -1v-1v-1l1 -1v-1v-1v-1l1 -1v-1v-1v-1l1 -1v-1v-1v-1l1 -1v-1v-1v-1v-1l1 -1v-1v-1v-1l1 -1v-1v-1v-1v-1v-1l1 -1v-1v-1 v-1v-1v-1l1 -1q3 -23 3 -50v-1v-1v-1v-1v-2v-1v-1v-1v-1v-1v-2v-1v-1v-1v-1v-1v-1v-2v-1l-1 -1v-1v-1v-1v-2v-1v-1v-1v-1v-1l-1 -1v-2v-1v-1v-1v-1v-1l-1 -1v-2v-1v-1v-1v-1l-1 -1v-1v-1v-2v-1v-1l-1 -1v-1v-1v-1l-1 -2v-1v-1v-1v-1l-1 -1v-1v-1v-2l-1 -1v-1v-1l-1 -1v-1v-1 v-1l-1 -1v-2v-1l-1 -1v-1v-1l-1 -1v-1v-1l-1 -2v-1v-1l-1 -1v-1v-1l-1 -1v-1v-1l-1 -1v-2l-1 -1v-1v-1l-1 -1v-1l-1 -1v-1v-1l-1 -1v-2l-1 -1v-1l-1 -1v-1v-1l-1 -1v-1l-1 -1v-1l-1 -1v-2l-1 -1v-1l-1 -1v-1l-1 -1v-1l-1 -1v-1l-1 -1v-1l-1 -1l-1 -2v-1l-1 -1v-1l-1 -1v-1 l-1 -1l-1 -1v-1l-1 -1v-1l-1 -1l-1 -1v-1l-1 -1v-2l-1 -1l-1 -1v-1l-1 -1l-1 -1v-1l-1 -1l-1 -1v-1l-1 -1l-1 -1l-1 -1v-1l-1 -1l-1 -1v-1l-1 -1l-1 -2l-1 -1v-1l-1 -1l-1 -1l-1 -1v-1l-1 -1l-1 -1l-1 -1l-1 -1v-1l-1 -1l-1 -1l-1 -1l-1 -1v-1l-1 -1l-1 -1l-1 -1l-1 -1 l-1 -1l-1 -1v-1l-1 -1l-1 -1l-1 -1l-1 -1l-1 -2l-1 -1l-1 -1l-1 -1l-1 -1l-1 -1l-1 -1v-1l-1 -1l-1 -1l-1 -1l-1 -1l-1 -1l-1 -1l-1 -1l-1 -1l-1 -1l-1 -1l-2 -2q-95 -91 -229 -91q-120 0 -190 100v-165l-1 -270l-209 15v43h1h2h1h1h1h1h1h1h1h1h1h1h1h1h1h1h1h1h1h1l1 -1h1 h1h1l1 1h1h1h1h1h1h1h1h1h2h1h2h1h2h1h2h1h2h1h1h1h1h1h1l1 1h1h2h1h2h1h1l2 1h1h1h1h2l1 1h1h1h2l1 1h1h1l1 1h1l2 1q19 8 32 61zM652 317v1v2v1v1v2v1v1v2v1v1v2v1v1v2v1v1v2v1v1v2v1v1v2v1l-1 1v2v1v1v1v2v1v1v2v1v1v1v2l-1 1v1v2v1v1v2v1v1v1l-1 2v1v1v1v2v1v1v2l-1 1v1 v1v2v1v1l-1 1v2v1v1v1v2l-1 1v1v1v2v1l-1 1v1v1v2v1l-1 1v1v2v1l-1 1v1v1v2v1l-1 1v1v1l-1 2v1v1v1l-1 1v2v1v1l-1 1v1v2l-1 1v1v1l-1 1v1v2l-1 1v1v1l-1 1v1v2l-1 1v1v1l-1 1v1l-1 1v1v2l-1 1v1l-1 1v1l-1 1v1v1l-1 2v1l-1 1v1l-1 1v1l-1 1v1l-1 1v1l-1 1v2l-1 1v1l-1 1v1 l-1 1v1l-1 1v1l-1 1l-1 1v1l-1 1v1l-1 1v1l-1 1l-1 1v1l-2 2q-57 89 -153 89q-61 0 -121 -40h-2l-1 -1l-1 -1l-2 -1l-1 -1l-1 -1l-2 -1l-1 -1l-1 -1h-1l-1 -1l-2 -1l-1 -1l-1 -1l-1 -1l-1 -1l-1 -1l-1 -1l-2 -1h-1l-1 -1l-1 -1l-1 -1l-1 -1l-1 -1l-1 -1l-18 -21 q-18 -25 -18 -53v-283q0 -29 20 -57q61 -83 153 -83q105 0 166 88l1 1v1l1 1v1h1v1l1 1v1l1 1v1h1v1l1 1v1l1 1v1l1 1v1h1v1v1h1v1v1l1 1l1 1v1l1 1v1v1h1v1v1l1 1v1l1 1v1l1 1v1v1h1v1v1l1 1v1v1l1 1v1l1 1v1v1l1 1v1v1l1 1v1v1l1 1v1v1l1 1v1v1l1 1v1v1v1l1 1v1v1l1 1v1v1 v1l1 1v1v1l1 1v1v1v1v1l1 1v1v1v1l1 1v1v1v1v1l1 1v1v1v1l1 1v1v1v1v1v1v1h1v1v1v1v1v1l1 1v1v1v1v1v1l1 1v1v1v1v1v1v1l1 1v1v1v1v1v1v1v1v1h1v1v1v1v1v1v1v1v1v1l1 1v1v1v1v1v1v1v1v1v1v1v1l1 1v1v1v1v1v1v1v1v1v1v1v1v1v1v1v1v1l1 1v1v1v1v1v1v1v1v1v1v1v1v1v1v1v1v1v1v1 v1v1v1v1v9z" />
<glyph unicode="#" horiz-adv-x="979" d="M723 -300q0 49 42 74q21 13 45 13q49 0 74 -42q13 -21 13 -45q0 -49 -42 -74q-21 -13 -45 -13q-49 0 -74 42q-13 21 -13 45zM78 -297q0 49 42 74q21 13 45 13q49 0 74 -42q13 -21 13 -45q0 -49 -42 -74q-21 -13 -45 -13q-49 0 -74 42q-13 21 -13 45zM723 360 q0 -49 42 -74q21 -13 45 -13q49 0 74 42q13 21 13 45q0 49 -42 74q-21 13 -45 13q-49 0 -74 -42q-13 -21 -13 -45zM78 357q0 -49 42 -74q21 -13 45 -13q49 0 74 42q13 21 13 45q0 49 -42 74q-21 13 -45 13q-49 0 -74 -42q-13 -21 -13 -45zM0 0v51h1000v-51h-1000z" />
<glyph unicode="$" horiz-adv-x="384" d="M31 0q-16 16 -16 45.5t16 46.5q60 20 80.5 -0.5t20.5 -45.5q-33 -59 -101 -46zM366 746l-32 5q-47 -27 -138 25q-101 61 -153 20q-62 -42 -53 -125q7 -58 45 -71l20 -4q48 0 48 50t-48 50q-2 50 12 59q20 10 97 -34q79 -44 162 -25q-15 -25 -194 -196q-96 -84 -101 -96 l-4 -16l16 -30q77 -29 89 -58q0 -25 -17 -66q-21 -50 -12 -55l69 113q-14 67 -97 104q29 20 93 75q184 163 206 242z" />
<glyph unicode="%" horiz-adv-x="1000" d="M393 798q-65 -4 -72 -126l-33 -57l-54 -30q-46 -3 -78 36l-27 87q-41 132 -93 0q-19 -48 -18 -93q25 -26 6 -111q-12 -54 -6 -111q8 -51 42 -75l135 -96q129 -65 57 -170q-50 -71 -23 -56q58 33 56 42q17 -66 23 -52q18 43 36 45q34 4 89 -38l-50 67q-98 114 148 246 q56 30 72 72q31 77 21 165q-2 19 -48 75q-12 1 -36 27q-29 31 -24 36q25 26 37 37q-17 -1 -61 8l-6 36q-9 41 -93 36zM363 246q-38 -79 -54 -48q-23 43 -63 63q-120 65 -135 96l-42 81q0 8 6 108q3 50 3 51q-22 44 6 96q-1 -2 18 -57l36 -57q33 -42 84 -39q21 2 42 3l54 33 l24 48q28 126 60 126q3 0 45 -6l12 -54l36 -63q17 -30 45 -48q39 -44 39 -48q6 -55 -21 -114q-30 -65 -69 -81q-103 -42 -126 -90zM553 718q11 9 11 5q-1 -5 -11 -5z" />
<glyph unicode="&#x26;" horiz-adv-x="813" d="M512 578q0 47 -31.5 79.5t-75.5 32.5q-45 0 -76.5 -32.5t-31.5 -79.5q0 -21 7 -40l110 53l-52 -115q21 -10 43 -10q44 0 75.5 32.5t31.5 79.5zM547 578q0 -62 -42 -105t-100 -43q-31 0 -59 13l-15 -35q-163 29 -238 170q75 140 237 169q-48 -22 -76.5 -68t-28.5 -101 q0 -34 11 -66l36 12q-10 27 -10 54q0 62 42 105t101 43q58 0 100 -43t42 -105zM716 578q-76 -141 -239 -170q49 22 78 68t29 102q0 55 -28.5 101t-76.5 68q162 -29 237 -169zM789 578q-58 111 -161 170q-99 56 -223 56t-223 -56q-103 -59 -162 -170q59 -112 162 -171 q99 -56 223 -56t223 56q103 59 161 171z" />
<glyph unicode="'" horiz-adv-x="900" d="M814 1135l-56 -55h-1l-4 1h-1v1h-2h-1v1h-1h-1h-1l-1 1h-1h-1h-1v1h-1h-1h-1v1h-1h-1l-1 1h-1h-1l-1 1h-1h-1h-1l-1 1h-1h-1l-1 1h-1h-1l-1 1h-1h-1l-1 1h-1h-1l-1 1h-1l-1 1h-1h-1l-1 1h-1h-1l-1 1h-1h-1l-2 1h-1l-2 1h-1l-2 1l-2 1h-2l-2 1l-2 1h-2l-2 1l-2 1l-2 1h-2 l-2 1l-2 1h-2l-3 1l-2 1l-3 1l-3 1l-3 1l-3 1l-3 2l-3 1l-3 1l-3 1l-4 1l-4 2l-4 1l-4 2l-4 1l-4 2l-5 2l-5 1l-5 2l-5 2l-5 2l-6 2l-6 3l-7 2l-7 3l-7 2l-7 3l-8 3l-114 50q-80 33 -114 33h-2h-1h-1h-2h-1h-1h-1h-2h-1h-1h-1l-2 -1h-1h-1h-1h-2h-1h-1h-1l-2 -1h-1h-1h-1h-1 h-2l-1 -1h-1h-1h-2h-1l-1 -1h-1h-1l-2 -1h-1h-1h-1l-1 -1h-2h-1l-1 -1h-1h-1l-1 -1h-2h-1l-1 -1h-1l-1 -1h-2l-1 -1h-1h-1l-1 -1h-1l-1 -1h-2l-1 -1h-1l-1 -1h-1l-1 -1l-1 -1h-2l-1 -1h-1l-1 -1l-1 -1h-1l-1 -1l-1 -1h-1l-2 -1l-1 -1h-1l-1 -1l-1 -1h-1l-1 -1l-1 -1l-1 -1 l-1 -1h-1l-1 -1l-2 -1l-1 -1l-1 -1l-1 -1l-1 -1h-1l-1 -1l-1 -1l-1 -1l-1 -1l-1 -1l-1 -1l-1 -1l-1 -1l-1 -1l-1 -1l-1 -1l-1 -1l-1 -2q-18 -19 -65 -107h-86l1 1v2l1 1l1 2l1 1v2h1v1l1 2l1 1l1 2l1 1v2l1 1l1 2l1 1v2l1 1l1 1l1 2l1 1v2l1 1l1 1l1 2l1 1v2l1 1l1 1l1 2 l1 1v1l1 2l1 1l1 2l1 1l1 2v1h1v1l1 2l1 1l1 1l1 2l1 1v2l1 1l1 1l1 2l1 1l1 1l1 2v1l1 1l1 1l1 2l1 1l1 1l1 2v1l1 1l1 2l1 1l1 1l1 1l1 2l1 1l1 1l1 2v1l1 1l1 1l1 2l1 1l1 1l1 1l1 1l1 2l1 1l1 1l1 1l1 2l1 1l1 1l1 1l1 1l1 2l1 1l1 1l1 1l1 1l1 1l1 1l1 2q8 9 17 17l1 1 h1v1l1 1h1l1 1v1h1l1 1l1 1h1v1l1 1h1l1 1h1v1l1 1h1l1 1h1v1l1 1h1l1 1h1v1h1l1 1h1v1h1l1 1l1 1h1l1 1h1l1 1l1 1h1l1 1h1l1 1l1 1h1l1 1h1l1 1h1v1h1h1l1 1h1l1 1h1l1 1h1l1 1h1l1 1h1l1 1h1l1 1h1h1v1h1h1l1 1h1h1v1h1h1l1 1h1h1l1 1h1h1v1h1h1l1 1h1h1l1 1h1h1l1 1h1h1 h1l1 1h1h1l1 1h1h1h1l1 1h1h1h1l1 1h1h1h1l1 1h1h1h1h1l1 1h1h1h1h1v1h1h1h1h1h1l1 1h1h1h1h1h1l1 1h1h1h1h1h1h1h1l1 1h1h1h1h1h1h1h1h1l1 1h1h1h1h1h1h1h1h1h1h1h1h1h1h1h1l1 1h1h1h1h1h1h9h1h1h1h1h1l1 -1h1h1h1h1h1h1h1l1 -1h1h1h1h1h1v-1h1h1h1h1h1v-1h1h1h1h1h1v-1h1 h1h1h1v-1h1h1h1h1v-1h2h1h1v-1h1h1h1h1v-1h1h1h1l1 -1h1h1h1l1 -1h1h1h1h1v-1h1h1h1v-1h1h1h1h1v-1h1h1l1 -1h1h1h1l1 -1h1h1l1 -1h1h1h1l1 -1h1h1l1 -1h1h1l1 -1h1h1h1l1 -1h1h1l1 -1h1h1l1 -1h1h1l1 -1h1h1h1l1 -1h1h1l1 -1h1h1l1 -1h1l2 -1h1l2 -1h2l2 -1h2l2 -1l2 -1h2 l2 -1l2 -1h2l2 -1l2 -1h2l2 -1l3 -1h2l2 -1l2 -1h2l3 -1l3 -1l3 -1l1 -1q170 -57 338 -99zM166 -197l4 217v817v2v2v1v2v1v2v2v1v2l-1 1v2v1v2v2l-1 1v2v1v2l-1 1v2v1l-1 2v1l-1 2v1l-1 2v1l-1 2v1l-1 1l-1 2v1l-1 2l-1 1l-1 1v1l-1 1l-1 1l-1 1l-1 1l-1 1v1l-1 1l-1 1l-1 1 l-1 1h-1l-1 1l-1 1h-1l-1 1l-1 1l-1 1h-1l-1 1h-2q-17 8 -81 6v43l208 15l1 -302l1 1l1 1l1 1l1 1v2l1 1l1 1l1 1l1 1l1 1v1l1 1l1 1l1 2l1 1l1 1v1l1 1l1 1l1 1l1 1l1 1l1 1v1l1 1l1 1l1 1l1 1l1 1l1 1v1l1 1l1 1l1 1v1h1l1 1l1 1v1l1 1l1 1l1 1l1 1l1 1l1 1v1l1 1l1 1l1 1 l1 1l1 1l1 1l1 1l1 1l1 1l1 1l1 1l1 1l1 1l1 1l1 1l1 1l1 1l1 1l1 1l1 1h1v1h1l1 1l1 1l1 1l1 1l1 1l1 1l1 1h1v1h1l1 1l1 1l1 1l1 1h1v1h1l1 1l1 1l1 1h1v1h1l1 1l1 1l1 1h1l1 1l1 1l1 1h1l1 1l1 1h1v1h1l1 1l1 1h1l1 1l1 1h1l1 1l1 1h1l1 1l1 1h1l1 1h1l1 1l1 1h1l1 1h1 l1 1l1 1h1l1 1h1l1 1h1l1 1l1 1h1l1 1h1l1 1h1l1 1h1l1 1h1l1 1h1l1 1h1l1 1h1l1 1h1h1l1 1h1l1 1h1l1 1h1h1l1 1h1l1 1h1h1l1 1h1l1 1h1h1l1 1h1h1l1 1h1h1l1 1h1h1l1 1h1h1l1 1h1h1l1 1h1h1h1l1 1h1h1h1l1 1h1h1h1l1 1h1h1h1l1 1h1h1h1l1 1h1h1h1h1h1l1 1h1h1h1h1l1 1h1h1 h1h1h1h1l1 1h1h1h1h1h1h1h1l1 1h1h1h1h1h1h1h1h1h1h1h1h1l1 1h1h1h1h1h1h1h1h9q96 0 152 -44q37 -28 80 -88q80 -111 84 -335v-33q0 -261 -96 -384q-66 -85 -127 -108q-43 -16 -113 -16q-147 0 -232 163l-1 -268v-29l-209 15v43h1h2h1h1h1h1h1h1h1h1h1h1h1h1h1h1h1h1h1h1 l1 -1h1h1h1l1 1h1h1h1h1h1h1h1h1h2h1h2h1h2h1h2h1h2h1h1h1h1h1h1l1 1h1h2h1h2h1h1l2 1h1h1h1h2l1 1h1h1h2l1 1h1h1l1 1h1l2 1q19 8 32 61zM741 311v1v2v1v1v2v1v1v2v1v1v2v1v1v2v1v1v2v1v1v2v1v1v2v1v1q-1 16 -1 32v1l-1 1v2v1v1v2v1v1v2v1v1v1v2v1v1v2l-1 1v1v1v2v1v1v2v1 v1v1v2v1l-1 1v1v2v1v1v2v1v1v1v2l-1 1v1v1v2v1v1v1v2v1l-1 1v1v2v1v1v1v2l-1 1v1v1v2v1v1v1v2l-1 1v1v1v2v1v1l-1 1v2v1v1v1v1v2l-1 1v1v1v2v1l-1 1v1v1v2v1v1l-1 1v2v1v1v1l-1 1v2v1v1v1l-1 1v2v1v1v1l-1 1v2v1v1v1l-1 1v1v2v1l-1 1v1v1v2l-1 1v1v1v1l-1 1v2v1v1l-1 1v1v1 v2l-1 1v1v1v1l-1 1v1v2v1l-1 1v1v1l-1 1v1v2l-1 1v1v1v1l-1 1v1v1l-1 2v1v1l-1 1v1v1l-1 1v1v2l-1 1v1v1l-1 1v1v1l-1 1v1v1l-1 2v1v1l-1 1v1l-1 1v1v1l-1 1v1v1l-1 1v1l-1 2v1v1l-1 1v1l-1 1v1l-1 1v1v1l-1 1v1l-1 1v1l-1 1v1v1l-1 1v1l-1 1v1l-1 1v1l-1 1v1l-1 1v1l-1 1v2 l-1 1l-1 2v1l-1 2l-1 1l-1 2l-1 1v2l-1 1l-1 1l-1 2v1l-1 2l-1 1l-1 2v1l-1 1l-1 2l-1 1l-1 1v2l-1 1l-1 1l-1 2l-1 1v1l-1 1l-1 2l-1 1l-1 1v1l-1 2l-1 1l-1 1l-1 1v1l-1 2l-1 1l-1 1l-1 1v1l-1 1l-1 2l-1 1l-1 1l-1 1v1l-1 1l-1 1l-1 1l-1 1l-1 1l-1 1v2l-1 1l-1 1l-1 1 l-1 1l-1 1v1l-1 1l-1 1h-1l-1 1l-1 1v1l-1 1l-1 1l-1 1l-1 1l-1 1l-1 1v1l-1 1h-1l-1 1l-1 1l-1 1l-1 1l-1 1l-1 1l-1 1l-1 1l-1 1h-1l-1 1l-1 1v1h-1l-1 1l-1 1l-1 1h-1l-1 1l-1 1v1h-1l-1 1l-1 1h-1l-1 1l-1 1h-1l-1 1l-1 1h-1v1l-1 1h-1l-1 1h-1l-1 1l-1 1h-1l-1 1h-1 l-1 1h-1v1h-1l-1 1h-1l-1 1l-1 1h-1l-1 1h-1l-1 1h-1l-1 1h-1l-1 1h-1l-1 1h-1l-1 1h-1h-1l-1 1h-1l-1 1h-1h-1l-1 1h-1l-1 1h-1h-1l-1 1h-1h-1l-1 1h-1h-1l-1 1h-1h-1l-1 1h-1h-1h-1l-1 1h-1h-1h-1l-1 1h-1h-1h-1l-1 1h-1h-1h-1h-1h-1l-1 1h-1h-1h-1h-1h-1l-1 1h-1h-1h-1 h-1h-1h-1h-1h-1l-1 1h-1h-1h-1h-1h-1h-1h-9q-76 0 -150 -63l-1 -1l-1 -1l-1 -1l-1 -1l-1 -1h-1v-1l-1 -1l-1 -1l-1 -1l-27 -28q-46 -56 -46 -122v-460q0 -46 25 -92l1 -2l1 -1l1 -1l1 -2v-1l1 -2l1 -1l1 -1l1 -2v-1l1 -1l1 -2l1 -1l1 -1v-2l1 -1l1 -1l1 -2l1 -1l1 -1v-1v-1 l1 -1l1 -1l1 -1l1 -1l1 -2v-1l1 -1l1 -1l1 -2l1 -1l1 -1v-1l1 -1l1 -1l1 -1l1 -2l1 -1v-1l1 -1l1 -1l1 -1l1 -1l1 -1l1 -1v-1l1 -1l1 -1l1 -1l1 -1l1 -1l1 -1v-1l1 -1l1 -1l1 -1l1 -1l1 -1l1 -1v-1l1 -1l1 -1l1 -1l1 -1l1 -1l1 -1h1v-1l1 -1l1 -1l1 -1l1 -1l1 -1h1l1 -1v-1 l1 -1l1 -1l1 -1h1l1 -1l1 -1l1 -1h1l1 -1v-1l1 -1h1l1 -1l1 -1l1 -1h1l1 -1l1 -1h1l1 -1v-1h1l1 -1l1 -1h1l1 -1l1 -1h1v-1h1l1 -1h1l1 -1l1 -1h1l1 -1l1 -1h1l1 -1h1l1 -1h1l1 -1l1 -1h1l1 -1h1l1 -1h1l1 -1h1l1 -1h1l1 -1h1h1l1 -1h1l1 -1h1l1 -1h1h1l1 -1h1l1 -1h1h1 l1 -1h1h1l1 -1h1h1l1 -1h1h1h1l1 -1h1h1l1 -1h1h1h1l1 -1h1h1h1h1l1 -1h1h1h1h1l1 -1h1h1h1h1h1l1 -1h1h1h1h1h1h1h1l1 -1h1h1h1h1h1h1h1h1h9h2h1h1h2h1h1h1h1h1h1h1h2h1h1h1l2 1h1h1h1h2h1h1h1l2 1h1h1h1h1l2 1h1h1h1h2l1 1h1h1l2 1h1h1h1l2 1h1h1l1 1h2h1l1 1h1h2l1 1h1 l1 1h2h1l1 1h1l2 1h1l1 1h1l1 1h2l1 1h1l1 1h1l1 1h2l1 1h1l1 1h1l1 1h1l1 1h1l2 1l1 1h1l1 1h1l1 1l1 1h1l1 1l1 1h1l1 1h1l1 1l1 1h1l1 1h1v1h1l1 1l1 1h1l1 1l1 1h1l1 1l1 1l1 1h1l1 1l1 1h1v1h1v1l1 1h1l1 1l1 1h1l1 1l1 1v1h1l1 1l1 1l1 1h1v1l1 1l1 1l1 1h1v1h1v1l1 1 h1l1 1l1 1v1l1 1l1 1h1v1l1 1l1 1l1 1l1 1l1 1l1 1v1l1 1h1l1 1v1l1 1l1 1l1 1v1h1l1 1v1l1 1l1 1v1l1 1h1v1l1 1l1 1v1l1 1l1 1v1l1 1h1v1l1 1l1 1v1l1 1l1 1v1l1 1l1 1v1l1 1v1l1 1l1 1l1 1l1 1v1l1 1v1l1 1l1 1v1l1 1v1l1 1v1l1 1l1 1v1l1 1v1l1 1v1l1 1h1v1l1 1v1l1 1v1 l1 1v1l1 1v1l1 1v1l1 1l1 1v2l1 1v1l1 1v1l1 1v1l1 1v1l1 1v1l1 1v1l1 1v1l1 1v1l1 1v1v1l1 1v1l1 1v1l1 1v1v1l1 1v1l1 1v1v1l1 1v1l1 1v1v1l1 1v1v1l1 1v1v1l1 1v1v1l1 1v1l1 1v1v1l1 1v1v1v1l1 1v1v1l1 1v1v1l1 1v1v1l1 1v1v1v1l1 1v1v1l1 1v1v1v1l1 1v1v1v1l1 1v1v1v1 l1 1v1v1v1l1 1v1v1v1l1 1v1v1v1l1 1v1v1v1v1l1 1v1v1v1l1 1v1v1v1v1l1 1v1v1v1v1l1 1v1v1v1v1l1 1v1v1v1v1v1l1 1v1v1v1v1l1 1v1v1v1v1v1l1 1v1v1v1v1v1v1l1 1v1v1v1v1v1l1 1v1v1v1v1v1v1v1l1 1v1v1v1v1v1v1l1 1v1v1v1v1v1v1v1l1 1v1v1v1v1v1v1v1v1l1 1v1v1v1v1v1v1v1v1v1 l1 1v1v1v1v1v1v1v1v1v1v1l1 1v1v1v1v1v1v1v1v1v1v1v1v1l1 1v1v1v1v1v1v1v1v1v1v1v1v1v1l1 1v1v1v1v1v1v1v1v1v1v1v1v1v1v1v1v1v1v1l1 1v1v1v1v1v1v1v1v1v13v1v1v1v1v1v1l1 1v1v1v1v1v1v1v1v1v1v1v1v1v1v1v1v1v1v1v1v1v1v1v1v1v1v1v1v1v10z" />
<glyph unicode="(" horiz-adv-x="1199" d="M915 51h309v-51h-293q-145 -11 -239 -149q-85 -125 -93 -293q-7 -158 58 -246q33 -45 81 -58q-146 21 -192 151q-42 119 13 273q55 152 173 243q92 71 198 79h-950v51h934q-131 18 -219 147q-85 125 -93 293q-7 158 58 246q33 45 81 58q-146 -21 -192 -151 q-42 -119 13 -273q55 -152 173 -243q84 -65 179 -77h1zM789 -386q132 -23 161 -113q23 -74 -30 -150t-142 -93q-20 -4 -40 -4q85 0 127 81q39 76 17 163q-22 85 -93 116zM792 435q132 23 161 113q23 74 -30 150t-142 93q-20 4 -40 4q85 0 127 -81q39 -76 17 -163 q-22 -85 -93 -116z" />
<glyph unicode=")" horiz-adv-x="1199" d="M289 51h-309v-51h293q145 -11 239 -149q85 -125 93 -293q7 -158 -58 -246q-33 -45 -81 -58q146 21 192 151q42 119 -13 273q-55 152 -173 243q-92 71 -198 79h950v51h-934q131 18 219 147q85 125 93 293q7 158 -58 246q-33 45 -81 58q146 -21 192 -151q42 -119 -13 -273 q-55 -152 -173 -243q-84 -65 -179 -77h-1zM415 -386q-132 -23 -161 -113q-23 -74 30 -150t142 -93q20 -4 40 -4q-85 0 -127 81q-39 76 -17 163q22 85 93 116zM412 435q-132 23 -161 113q-23 74 30 150t142 93q19 4 37 4q-82 -1 -124 -81q-39 -76 -17 -163q22 -85 93 -116z M461 795h-1h1zM461 795h1h-1z" />
<glyph unicode="+" horiz-adv-x="1000" d="M752 712l10 8l-227 -2v-10l215 2zM627 572l-11 6l-18 6l1 5l-100 -1l-5 -10l-4 -2l54 -1l67 -2zM390 524l13 13l-20 -1l-41 -4l-34 -3l-27 -3l-13 -2l-1 -2zM305 498l120 2l6 5l-126 -2v-5zM245 497v5l-141 -2l3 -5zM363 369l-7 5l-10 5l-72 -1l-3 -7l-8 -5h3l36 2l40 1 h21zM750 498l120 2l6 5l-126 -2v-5zM690 497v5l-151 -2l3 -6l2 -3v4zM860 420l17 17l-1 1l2 5v7v7l-1 7l-1 6v6l-1 4l-125 -2v-43l-25 -12l135 2v-5zM798 367l-10 7l-10 4h-59l-3 -6l-1 -1h3l35 -1l39 -2zM393 263l1 3l2 8l2 6l3 8v1l-89 -2l4 -20l-3 -5zM414 320l1 2h-1v3 l-3 5l-4 4l-5 6l-8 6l-8 6l-8 7l-34 -9l-6 -1l52 -9l15 -10l-15 -10v-12h18l3 6zM461 279l9 11l-18 -1l8 -7zM449 264l2 3l-16 1h-1l-7 -4h22zM425 234v1l12 10l-180 -3l22 -11zM425 209v6l-145 -4v-5zM425 184v5l-145 -2v-6zM605 310v-4l99 2l27 32l-11 -2l-32 -4l-28 -4 l-25 -3l-21 -3l6 -4zM725 284v1l5 4l-125 -2v-6zM588 251l137 3v11l-120 -4v-1zM590 226l135 3v6l-135 -4v-5zM237 29l7 10l-9 -2l-4 -3l-7 -4l-2 -1h15zM210 -1v1l11 9l-100 -2l22 -11zM210 -26v5l-65 -2v-6zM210 -51v6l-65 -4v-5zM210 -71l-65 -2v-12h45l6 1h4l4 2h1l1 1 l1 1l1 2v2zM305 45v70l60 -10l15 -10l-15 -10v-9l33 1l10 13h-3v30l-100 15v15h100h6l5 2h2l2 1l1 1l1 1v1l2 4v4v1l-144 -4v-36l-60 -30v5l-15 -10v-12h1v6l2 6l18 -11h2l21 30l31 -29v-20h-21l31 -30v-20l-31 -1l36 -29v70zM405 54v1l4 3l-44 -1v-5zM353 21l52 2v11 l-40 -2v-2l-15 -8zM355 -9l50 2v11l-50 -2v-11zM455 -86l22 111l-12 -10v-5l-30 -15h5v-19l-85 -4v-6l85 4v-20l-85 -3v-6l95 4v-19l-94 -5v-1l1 -3l1 -1v-2h1h1l3 -2h5h6zM672 79h1l13 18h-26l-10 -7v-6l4 6zM682 29l7 9l-9 -1l-4 -3l-6 -4l-2 -1h14zM655 -1v1l11 9 l-100 -2l22 -11zM655 -26v5l-65 -2v-6zM655 -51v6l-65 -4v-5zM654 -71l-64 -2v-12h45l6 1h5l2 2h2l1 1l1 1v2l2 2v5zM750 45v53h-44l18 -18l1 -20h-21l30 -30l1 -20l-31 -1l36 -29v70zM850 54v1l4 3l-44 -1v-5zM798 21l52 3v10l-40 -2v-2l-15 -8zM800 -9l50 3v10l-50 -2v-11 zM900 -86l22 111l-12 -10v-5l-30 -15h4l1 -19l-85 -4v-6l84 4l1 -20l-85 -3v-6l94 4l1 -19l-94 -5v-1l1 -3v-1l1 -2h1h2l2 -2h4h7zM248 714v-6l1 -3l226 2v11l-265 -2v19l504 4l50 51l60 -50l1 -20h-26l36 -30l-25 -20h-22l-2 -2l-6 -6l-7 -5l57 -47v-20l-191 -1l15 -2 l16 -2l16 -3l14 -3l14 -3l14 -4l12 -4l12 -4l14 -18l-4 -23l67 1l50 50l61 -49v-19h-16l31 -26l-25 -20h-20l-2 -2l-4 -5l-6 -5l-3 -3l55 -45v-20l-106 -1l4 -1l14 -4l12 -4l12 -5l12 -6l10 -7l10 -20l-7 -22l-21 -10l-22 8l-4 7l-7 7l-7 8l-8 7l-9 7l-10 8l-2 2l-28 -5 l-37 -6l38 -33l1 -20h-15l30 -25l-25 -20v-5l-25 -12v-18l-170 -3v-1l170 4v-20l-170 -3v-1l184 4l1 -20l-185 -3l1 -3l1 -2v-2h2v-2h2l2 -1l5 -1h6l196 3l27 126l10 1l-8 -126l24 -12l6 -17l-5 -19l-23 -12h-18l7 -5l-15 -10v-9l33 1l31 37l40 -34l1 -20h-10l24 -20h6v-5 l-6 -120l24 -11l7 -18l-6 -18l-24 -12l-110 -4h-12l-12 2l-13 4l-11 6l-10 8l-9 10l-7 11l-4 12l-2 13v12v50l-25 -20v-25l-1 -13l-2 -12l-4 -12l-6 -12l-8 -10l-10 -8l-12 -6l-12 -4l-12 -2l-13 -1v30l-45 7v-12l-60 -30v157l-35 -1l-1 19l54 1l7 3l45 23l-6 4l-3 1l-1 1 l-5 1l-5 1h-4h-5h-5h-5l-5 -1l-4 3l-4 -6h-18v19l60 2v20l-5 1l-12 4l-11 6l-11 8l-8 10l-7 12l-4 12l-2 12v13v105l15 -8v68l22 -4l-10 38l9 2l12 -1l15 -1h18h21l14 -1l4 4l-140 -1v19l158 2l-2 -5l2 2l2 3l169 2l7 7l-173 -4l1 2h-3l-1 -2l-105 -2l-1 20l126 2v56 l-140 -2l2 -4l2 -6l2 -5l1 -5l1 -6l-15 -17l-23 -2l-17 15l-2 23l3 1l3 2l3 2l4 3l2 3l4 4l3 5l3 5l4 6v5h5l-1 15l175 2l-4 4l-10 6l-11 8l-12 6l-12 8l-7 4l-41 -4l-68 -6l-60 -4l-7 -1l23 -18v-19h-21l31 -26l-25 -20h-19l-2 -2l-6 -5l-4 -5l-6 -4l-3 -3l49 -41l1 -20 l-92 -1l6 -1l10 -1l9 -2l8 -2l8 -2l8 -3l11 -20l-7 -22l-20 -10l-18 5l13 -12h21l22 31l30 -30l1 -20h-14l29 -25v-19l-47 -1l37 -30l-25 -20v-25l-1 -12l-2 -13l-4 -12l-6 -11l-8 -10l-10 -8l-8 -5l24 -19v-20h-10l24 -20h6v-5l-6 -120l24 -11l6 -18l-4 -18l-24 -12 l-110 -4h-13l-13 2l-12 4l-12 6l-10 8l-8 10l-6 11l-4 12l-2 13l-1 12v50l-25 -20v-25l-1 -13l-2 -12l-4 -12l-7 -12l-8 -10l-10 -8l-11 -6l-12 -4l-13 -2l-12 -1v30l-45 7v-12l-60 -30v157l-35 -1v19l53 1l7 3l45 23l1 -22l-2 -3l43 1l1 4l2 8l1 7l1 7l1 4l-57 -1l-2 1 l-4 1l-4 1h-6h-4h-5h-5l-6 -1l-4 3l-3 -6h-18l-1 19l61 2v43l60 -10l15 -10v141l-70 -1v20l120 2h1l37 25l-55 -1l-1 -2l6 -2l4 -6l4 -4l2 -5l2 -4l1 -1l37 25l4 3l-10 5l-4 1l-4 -2h-4l-5 -1l-5 -1h-6l-6 -2h-6l-6 2l-3 -6h-33v19l110 2v40l-24 -6l-35 -8l-33 -7l-29 -6 l-27 -6l-24 -6l-21 -4l-12 -3l-9 -19l-12 14l-18 58l10 2h16l18 1l22 1l24 2l11 1l13 11l6 5l-141 -1l-1 19l159 2l-1 -3l2 3l160 2l7 6l-164 -3l1 1l-2 1l-1 -2l-100 -2l-1 20l121 2v56l-130 -2l3 -4l1 -6l1 -5l2 -5l1 -6l-15 -17l-23 -2l-17 15l-2 23l3 1l3 2l3 2l3 3l4 3 l3 4l3 5l4 5l3 6h-10l-1 20l163 2l-15 58h10h16h20l28 -1l34 -1h42h16l8 4l11 5l-222 -1l-1 19l252 2l4 3l-2 -3l271 2l24 24l-7 5l6 8l2 10l2 8l2 9l2 7l1 8v2l-216 -2v-48l-14 -7l193 2l1 -19l-234 -3l-6 -3v3l-23 -1l4 4l-2 2l-3 -6l-171 -2v20l195 2v56l-225 -2v-3 l-1 -9l-2 -8l-3 -8l-4 -9l-4 -9l-5 -8l-22 -6l-21 10l-6 21l10 21l5 2l5 2l6 3l6 3l4 3l6 4l4 4l6 5l4 6l2 6zM280 675l170 5v-20l-170 -4v19zM554 675l160 5l1 -20l-160 -4zM554 655l166 5v-20l-165 -4zM134 465l95 5l1 -20l-94 -4zM130 445l104 5l1 -20l-105 -4v19z M324 465l90 5l2 -20l-90 -4zM320 445l100 5v-14l13 13v1l-1 7v7l-1 6l-1 6v4l-125 -2v-43l-25 -12l130 2l4 5l-94 -4v19zM574 465l95 5l1 -20l-94 -4zM564 445l110 5l1 -20l-110 -4zM764 465l90 5l2 -20l-90 -4zM764 445l100 5l1 -20l-100 -4zM259 60h-1v-1zM704 60h-2l1 -1 zM451 612l-1 -2l2 2h-1zM225 402l-2 -5h1l1 1l2 4h-2zM103 56l-1 -2l4 -2l2 -6l1 -4l1 -4v-4v-4v-1l45 23l-5 4l-4 1zM670 402l-2 -5h2l2 3l1 2h-3zM548 56l-2 -2l4 -2l2 -6l2 -4v-4l1 -4v-4v-1l45 23l1 -22l-2 -3l43 1v4l2 8l2 7l2 7v4l-57 -1zM450 660v-20l-180 -4v19z " />
<glyph unicode="," horiz-adv-x="1199" d="M386 51q-132 18 -220 147q-85 125 -93 293q-7 158 58 246q33 45 81 58q-146 -21 -192 -151q-42 -119 13 -273q55 -152 173 -243q84 -65 179 -77h-9v-51h31q-144 -11 -238 -149q-85 -125 -93 -293q-7 -158 58 -246q33 -45 81 -58q-146 21 -192 151q-42 119 13 273 q55 152 173 243q92 71 198 79h1h840v51h-862zM266 -386q132 -23 161 -113q23 -74 -30 -150t-142 -93q-20 -4 -40 -4q85 0 127 81q39 76 17 163q-22 85 -93 116zM263 435q132 23 161 113q23 74 -30 150t-142 93q-20 4 -40 4q85 0 127 -81q39 -76 17 -163q-22 -85 -93 -116z " />
<glyph unicode="-" horiz-adv-x="2079" d="M1558 52q-79 0 -186 63l-110 65q-94 50 -176 48q-67 3 -114 -30l-67 -50q-110 -73 -343 -96q264 72 380 200q105 66 227 40q34 -8 37 -8q9 -4 89 -74q159 -138 263 -158zM1554 0h566v51h-2120v-51h558q264 -72 380 -200q105 -66 227 -40q34 8 37 8q9 4 89 74 q159 138 263 158zM1554 0q-79 0 -186 -63l-110 -65q-94 -50 -176 -48q-67 -3 -114 30l-67 50q-110 73 -343 96h996z" />
<glyph unicode="." horiz-adv-x="1199" d="M786 51q132 18 220 147q85 125 93 293q7 158 -58 246q-33 45 -81 58q146 -21 192 -151q42 -119 -13 -273q-55 -152 -173 -243q-84 -65 -179 -77h9v-51h-31q144 -11 238 -149q85 -125 93 -293q7 -158 -58 -246q-33 -45 -81 -58q146 21 192 151q42 119 -13 273 q-55 152 -173 243q-92 71 -198 79h-1h-840v51h862zM906 -386q-132 -23 -161 -113q-23 -74 30 -150t142 -93q20 -4 40 -4q-85 0 -127 81q-39 76 -17 163q22 85 93 116zM909 435q-132 23 -161 113q-23 74 30 150t142 93q19 4 37 4q-82 -1 -124 -81q-39 -76 -17 -163 q22 -85 93 -116zM958 795h-1h1zM958 795h1h-1z" />
<glyph unicode="/" horiz-adv-x="979" d="M723 -300q0 49 42 74q21 13 45 13q49 0 74 -42q13 -21 13 -45q0 -49 -42 -74q-21 -13 -45 -13q-49 0 -74 42q-13 21 -13 45zM78 -297q0 49 42 74q21 13 45 13q49 0 74 -42q13 -21 13 -45q0 -49 -42 -74q-21 -13 -45 -13q-49 0 -74 42q-13 21 -13 45zM417 360q0 49 42 74 q21 13 45 13q49 0 74 -42q13 -21 13 -45q0 -49 -42 -74q-21 -13 -45 -13q-49 0 -74 42q-13 21 -13 45zM0 0v51h1000v-51h-1000z" />
<glyph unicode="2" horiz-adv-x="514" d="M356 778q1 41 -16 75q-19 38 -51 38q-21 0 -21 -49v-164q45 3 68 35q18 25 20 65zM404 785q0 -49 -34 -86q-37 -40 -96 -44v-101h-22v100q-58 3 -96 42q-34 35 -34 83q0 41 27 76q29 36 76 48l-1 -14h-1l-2 -1h-1l-1 -1l-2 -1h-1l-1 -1h-1l-2 -1l-1 -1h-1l-1 -1l-1 -1 l-1 -1h-1l-1 -1l-2 -1h-1l-1 -1l-1 -1v-1l-1 -1h-1l-1 -1l-1 -1l-1 -1l-1 -1l-1 -1h-1v-1l-1 -1l-1 -1l-1 -1v-1l-1 -1l-1 -1l-1 -1l-1 -1l-1 -1v-1l-1 -1v-1l-1 -1l-1 -1v-1l-1 -1v-1l-1 -1v-1l-1 -1l-1 -1q-11 -22 -12 -49q-3 -42 17 -79q25 -44 70 -50v152q0 38 6 53v1 l1 1v1l1 1v1l1 1l1 1v1l1 1v1l1 1l1 1v1h1l1 1v1h1l1 1l1 1l1 1h1l1 1l1 1h1l1 1h1l1 1h1l1 1h1h1l1 1h1h1h1l1 1h1h1h1h1h1h1l1 1h5q40 0 72.5 -36t32.5 -79zM154 301h150q4 0 14.5 -0.5t17.5 -0.5t15.5 1.5t13.5 5.5q14 9 11 42q-6 69 -39 96q-33 26 -77 20t-69 -39 q-37 -48 -37 -125zM475 130q-4 -22 -28 -59q-61 -91 -197 -82q-117 8 -165 90q-36 60 -36 159q0 84 25 138q28 59 72 89q61 42 155 35q74 -5 117 -41q53 -45 62 -133q4 -43 -10 -55q-4 -3 -8.5 -5t-10.5 -2.5t-9.5 -0.5h-11h-9.5h-110h-159q0 -60 9 -105.5t38 -77.5 q30 -33 78.5 -40t86.5 14q26 14 47.5 38.5t32.5 52.5z" />
<glyph unicode="3" horiz-adv-x="0" d="M-204 1015q1 41 -16 75q-19 38 -51 38q-21 0 -21 -49v-164q45 3 68 35q18 25 20 65zM-162 1032q0 -49 -34 -86q-37 -40 -96 -44v-101h-22v100q-58 3 -96 42q-34 35 -34 83q0 41 27 76q29 36 76 48l-1 -14h-1l-2 -1h-1l-1 -1l-2 -1h-1l-1 -1h-1l-2 -1l-1 -1h-1l-1 -1 l-1 -1l-1 -1h-1l-1 -1l-2 -1h-1l-1 -1l-1 -1v-1l-1 -1h-1l-1 -1l-1 -1l-1 -1l-1 -1l-1 -1h-1v-1l-1 -1l-1 -1l-1 -1v-1l-1 -1l-1 -1l-1 -1l-1 -1l-1 -1v-1l-1 -1v-1l-1 -1l-1 -1v-1l-1 -1v-1l-1 -1v-1l-1 -1l-1 -1q-11 -22 -12 -49q-3 -42 17 -79q25 -44 70 -50v152 q0 38 6 53v1l1 1v1l1 1v1l1 1l1 1v1l1 1v1l1 1l1 1v1h1l1 1v1h1l1 1l1 1l1 1h1l1 1l1 1h1l1 1h1l1 1h1l1 1h1h1l1 1h1h1h1l1 1h1h1h1h1h1h1l1 1h5q40 0 72.5 -36t32.5 -79z" />
<glyph unicode=":" horiz-adv-x="900" d="M814 1135l-56 -55h-1l-4 1h-1v1h-2h-1v1h-1h-1h-1l-1 1h-1h-1h-1v1h-1h-1h-1v1h-1h-1l-1 1h-1h-1l-1 1h-1h-1h-1l-1 1h-1h-1l-1 1h-1h-1l-1 1h-1h-1l-1 1h-1h-1l-1 1h-1l-1 1h-1h-1l-1 1h-1h-1l-1 1h-1h-1l-2 1h-1l-2 1h-1l-2 1l-2 1h-2l-2 1l-2 1h-2l-2 1l-2 1l-2 1h-2 l-2 1l-2 1h-2l-3 1l-2 1l-3 1l-3 1l-3 1l-3 1l-3 2l-3 1l-3 1l-3 1l-4 1l-4 2l-4 1l-4 2l-4 1l-4 2l-5 2l-5 1l-5 2l-5 2l-5 2l-6 2l-6 3l-7 2l-7 3l-7 2l-7 3l-8 3l-114 50q-80 33 -114 33h-2h-1h-1h-2h-1h-1h-1h-2h-1h-1h-1l-2 -1h-1h-1h-1h-2h-1h-1h-1l-2 -1h-1h-1h-1h-1 h-2l-1 -1h-1h-1h-2h-1l-1 -1h-1h-1l-2 -1h-1h-1h-1l-1 -1h-2h-1l-1 -1h-1h-1l-1 -1h-2h-1l-1 -1h-1l-1 -1h-2l-1 -1h-1h-1l-1 -1h-1l-1 -1h-2l-1 -1h-1l-1 -1h-1l-1 -1l-1 -1h-2l-1 -1h-1l-1 -1l-1 -1h-1l-1 -1l-1 -1h-1l-2 -1l-1 -1h-1l-1 -1l-1 -1h-1l-1 -1l-1 -1l-1 -1 l-1 -1h-1l-1 -1l-2 -1l-1 -1l-1 -1l-1 -1l-1 -1h-1l-1 -1l-1 -1l-1 -1l-1 -1l-1 -1l-1 -1l-1 -1l-1 -1l-1 -1l-1 -1l-1 -1l-1 -1l-1 -2q-18 -19 -65 -107h-86l1 1v2l1 1l1 2l1 1v2h1v1l1 2l1 1l1 2l1 1v2l1 1l1 2l1 1v2l1 1l1 1l1 2l1 1v2l1 1l1 1l1 2l1 1v2l1 1l1 1l1 2 l1 1v1l1 2l1 1l1 2l1 1l1 2v1h1v1l1 2l1 1l1 1l1 2l1 1v2l1 1l1 1l1 2l1 1l1 1l1 2v1l1 1l1 1l1 2l1 1l1 1l1 2v1l1 1l1 2l1 1l1 1l1 1l1 2l1 1l1 1l1 2v1l1 1l1 1l1 2l1 1l1 1l1 1l1 1l1 2l1 1l1 1l1 1l1 2l1 1l1 1l1 1l1 1l1 2l1 1l1 1l1 1l1 1l1 1l1 1l1 2q8 9 17 17l1 1 h1v1l1 1h1l1 1v1h1l1 1l1 1h1v1l1 1h1l1 1h1v1l1 1h1l1 1h1v1l1 1h1l1 1h1v1h1l1 1h1v1h1l1 1l1 1h1l1 1h1l1 1l1 1h1l1 1h1l1 1l1 1h1l1 1h1l1 1h1v1h1h1l1 1h1l1 1h1l1 1h1l1 1h1l1 1h1l1 1h1l1 1h1h1v1h1h1l1 1h1h1v1h1h1l1 1h1h1l1 1h1h1v1h1h1l1 1h1h1l1 1h1h1l1 1h1h1 h1l1 1h1h1l1 1h1h1h1l1 1h1h1h1l1 1h1h1h1l1 1h1h1h1h1l1 1h1h1h1h1v1h1h1h1h1h1l1 1h1h1h1h1h1l1 1h1h1h1h1h1h1h1l1 1h1h1h1h1h1h1h1h1l1 1h1h1h1h1h1h1h1h1h1h1h1h1h1h1h1l1 1h1h1h1h1h1h9h1h1h1h1h1l1 -1h1h1h1h1h1h1h1l1 -1h1h1h1h1h1v-1h1h1h1h1h1v-1h1h1h1h1h1v-1h1 h1h1h1v-1h1h1h1h1v-1h2h1h1v-1h1h1h1h1v-1h1h1h1l1 -1h1h1h1l1 -1h1h1h1h1v-1h1h1h1v-1h1h1h1h1v-1h1h1l1 -1h1h1h1l1 -1h1h1l1 -1h1h1h1l1 -1h1h1l1 -1h1h1l1 -1h1h1h1l1 -1h1h1l1 -1h1h1l1 -1h1h1l1 -1h1h1h1l1 -1h1h1l1 -1h1h1l1 -1h1l2 -1h1l2 -1h2l2 -1h2l2 -1l2 -1h2 l2 -1l2 -1h2l2 -1l2 -1h2l2 -1l3 -1h2l2 -1l2 -1h2l3 -1l3 -1l3 -1l1 -1q170 -57 338 -99zM814 -488l-57 55h-1l-2 -1h-1l-2 -1h-1v-1h-1h-1h-1h-1v-1h-1h-1h-1v-1h-1h-1h-1v-1h-1h-1h-1v-1h-1h-1h-1l-1 -1h-1h-1l-1 -1h-1h-1l-1 -1h-1h-1l-1 -1h-1h-1l-1 -1h-1h-1l-1 -1h-1 h-1l-1 -1h-1h-1l-1 -1h-1h-1l-1 -1h-1l-1 -1h-2l-1 -1h-2l-1 -1h-2l-2 -1l-2 -1h-2l-2 -1l-2 -1h-2l-2 -1l-2 -1l-2 -1h-2l-2 -1l-2 -1l-3 -1h-2l-3 -2l-3 -1l-3 -1l-3 -1l-3 -1l-3 -1l-3 -1l-3 -1l-4 -2l-4 -1l-4 -2l-4 -1l-4 -2l-4 -1l-5 -2l-5 -2l-5 -2l-5 -2l-5 -1 l-6 -3l-6 -2l-7 -2l-7 -3l-7 -3l-7 -2l-8 -3l-114 -50q-80 -33 -114 -33h-2h-1h-1h-2h-1h-1h-1h-2h-1h-1h-1h-1h-2h-1l-1 1h-2h-1h-1h-1h-1h-2l-1 1h-1h-1h-2h-1l-1 1h-1h-2h-1h-1l-1 1h-1h-2l-1 1h-1h-1h-1l-2 1h-1h-1l-1 1h-1h-2l-1 1h-1l-1 1h-1h-1l-2 1h-1l-1 1h-1l-1 1 h-1l-1 1h-2l-1 1h-1l-1 1h-1l-1 1h-1l-2 1h-1l-1 1l-1 1h-1l-1 1l-1 1h-1l-1 1l-2 1h-1l-1 1l-1 1h-1l-1 1l-1 1l-1 1h-1l-1 1l-1 1l-1 1l-2 1l-1 1h-1l-1 1l-1 1l-1 1l-1 1l-1 1l-1 1l-1 1l-1 1l-1 1l-1 1l-1 1l-1 1l-1 1l-1 1l-1 1l-1 1v1h-1v1h-1v1l-1 1v1h-1l-1 1v1h-1 v1l-1 1l-1 1v1l-1 1v1h-1v1l-1 1v1h-1v1l-1 1l-1 1v1l-1 1l-1 1v1h-1v1v1h-1v1l-1 1v1h-1v1v1h-1v1l-1 1v1l-1 1l-1 1v1l-1 1l-1 1v1v1h-1v1l-1 1v1l-1 1v1h-1v1l-1 1v1l-1 1v1l-1 1v1h-1v1l-1 1v1l-1 1v1l-1 1l-1 1v1l-1 1v1l-1 1v1l-1 1l-1 1v1l-1 1v1l-1 1v1l-1 1v1h-1v1 l-1 1v1l-1 1v1l-1 1v1l-1 1v1l-1 1l-1 1v1l-1 1v1l-1 1v1l-1 1v1l-1 1l-1 1v1l-1 1v1l-1 1v1l-1 1v1l-1 1v1l-1 1v1l-1 1l-1 1v1l-1 1h-86l1 -2v-1l1 -2l1 -1l1 -2v-1h1v-2l1 -1l1 -2l1 -1l1 -2v-1l1 -2l1 -1l1 -2l1 -1l1 -2v-1l1 -2l1 -1l1 -2l1 -1l1 -2v-1l1 -1l1 -2l1 -1 l1 -1v-2l1 -1l1 -2l1 -1l1 -1v-2l1 -1l1 -2l1 -1l1 -1l1 -2l1 -1v-1l1 -2l1 -1l1 -2l1 -1l1 -1l1 -2v-1l1 -1l1 -2l1 -1l1 -1l1 -2l1 -1v-1l1 -2l1 -1l1 -1l1 -2l1 -1l1 -1l1 -1l1 -2l1 -1v-1l1 -2l1 -1l1 -1l1 -1l1 -2l1 -1l1 -1l1 -1l1 -2l1 -1l1 -1l1 -1l1 -1v-2l1 -1 l1 -1l1 -1l1 -1l1 -2l1 -1l1 -1l1 -1l1 -1l1 -1l1 -1l1 -2q9 -10 18 -17l1 -1l1 -1l1 -1l1 -1h1v-1l1 -1h1l1 -1l1 -1h1v-1l1 -1h1l1 -1h1v-1l1 -1h1l1 -1h1v-1l1 -1h1l1 -1h1v-1h1l1 -1h1l1 -1l1 -1l1 -1h1l1 -1h1l1 -1l1 -1h1l1 -1h1l1 -1l1 -1h1l1 -1h1l1 -1h1l1 -1h1 l1 -1h1l1 -1h1l1 -1h1l1 -1h1h1v-1h1h1l1 -1h1l1 -1h1l1 -1h1h1l1 -1h1l1 -1h1h1l1 -1h1h1l1 -1h1h1v-1h1h1h1v-1h1h1h1l1 -1h1h1l1 -1h1h1l1 -1h1h1h1l1 -1h1h1h1l1 -1h1h1h1l1 -1h1h1h1l1 -1h1h1h1h1l1 -1h1h1h1h1l1 -1h1h1h1h1h1h1v-1h1h1h1h1h1h1h1l1 -1h1h1h1h1h1h1h1 l1 -1h1h1h1h1h1h1h1h1h1h1h1h1l1 -1h1h1h1h1h1h1h1h1h1h1h1h9h1h1h1h1h1h1h1h1v1h1h1h1h1h1h1h1l1 1h1h1h1h1l2 1h1h1h1h1v1h1h1h1h1v1h3h1v1h1h1h1h1h1v1h1h1h1h1v1h1h1h1v1h1h1h1h1v1h1h1h1h1v1h1h1h1h1v1h1h1h1v1h1h1h1h1v1h1h1l1 1h1h1h1l1 1h1h1l1 1h1h1h1l1 1h1h1l1 1 h1h1l1 1h1h1h1l1 1h1h1l1 1h1h1l1 1h1h1l1 1h1h1h1l1 1h1h1l1 1h1h1l1 1h2l1 1h2l2 1l2 1h2l2 1h2l2 1l2 1h2l2 1l2 1h2l2 1l2 1h3l2 1l2 1h2l2 1l3 1l3 1l3 1h1q170 58 338 100zM166 -197l4 217v817v2v2v1v2v1v2v2v1v2l-1 1v2v1v2v2l-1 1v2v1v2l-1 1v2v1l-1 2v1l-1 2v1 l-1 2v1l-1 2v1l-1 1l-1 2v1l-1 2l-1 1l-1 1v1l-1 1l-1 1l-1 1l-1 1l-1 1v1l-1 1l-1 1l-1 1l-1 1h-1l-1 1l-1 1h-1l-1 1l-1 1l-1 1h-1l-1 1h-2q-17 8 -81 6v43l208 15l1 -302l1 1l1 1l1 1l1 1v2l1 1l1 1l1 1l1 1l1 1v1l1 1l1 1l1 2l1 1l1 1v1l1 1l1 1l1 1l1 1l1 1l1 1v1l1 1 l1 1l1 1l1 1l1 1l1 1v1l1 1l1 1l1 1v1h1l1 1l1 1v1l1 1l1 1l1 1l1 1l1 1l1 1v1l1 1l1 1l1 1l1 1l1 1l1 1l1 1l1 1l1 1l1 1l1 1l1 1l1 1l1 1l1 1l1 1l1 1l1 1l1 1l1 1h1v1h1l1 1l1 1l1 1l1 1l1 1l1 1l1 1h1v1h1l1 1l1 1l1 1l1 1h1v1h1l1 1l1 1l1 1h1v1h1l1 1l1 1l1 1h1l1 1 l1 1l1 1h1l1 1l1 1h1v1h1l1 1l1 1h1l1 1l1 1h1l1 1l1 1h1l1 1l1 1h1l1 1h1l1 1l1 1h1l1 1h1l1 1l1 1h1l1 1h1l1 1h1l1 1l1 1h1l1 1h1l1 1h1l1 1h1l1 1h1l1 1h1l1 1h1l1 1h1l1 1h1h1l1 1h1l1 1h1l1 1h1h1l1 1h1l1 1h1h1l1 1h1l1 1h1h1l1 1h1h1l1 1h1h1l1 1h1h1l1 1h1h1l1 1h1 h1l1 1h1h1h1l1 1h1h1h1l1 1h1h1h1l1 1h1h1h1l1 1h1h1h1l1 1h1h1h1h1h1l1 1h1h1h1h1l1 1h1h1h1h1h1h1l1 1h1h1h1h1h1h1h1l1 1h1h1h1h1h1h1h1h1h1h1h1h1l1 1h1h1h1h1h1h1h1h9q96 0 152 -44q37 -28 80 -88q80 -111 84 -335v-33q0 -261 -96 -384q-66 -85 -127 -108 q-43 -16 -113 -16q-147 0 -232 163l-1 -268v-29l-209 15v43h1h2h1h1h1h1h1h1h1h1h1h1h1h1h1h1h1h1h1h1l1 -1h1h1h1l1 1h1h1h1h1h1h1h1h1h2h1h2h1h2h1h2h1h2h1h1h1h1h1h1l1 1h1h2h1h2h1h1l2 1h1h1h1h2l1 1h1h1h2l1 1h1h1l1 1h1l2 1q19 8 32 61zM741 311v1v2v1v1v2v1v1v2v1v1 v2v1v1v2v1v1v2v1v1v2v1v1v2v1v1q-1 16 -1 32v1l-1 1v2v1v1v2v1v1v2v1v1v1v2v1v1v2l-1 1v1v1v2v1v1v2v1v1v1v2v1l-1 1v1v2v1v1v2v1v1v1v2l-1 1v1v1v2v1v1v1v2v1l-1 1v1v2v1v1v1v2l-1 1v1v1v2v1v1v1v2l-1 1v1v1v2v1v1l-1 1v2v1v1v1v1v2l-1 1v1v1v2v1l-1 1v1v1v2v1v1l-1 1v2v1 v1v1l-1 1v2v1v1v1l-1 1v2v1v1v1l-1 1v2v1v1v1l-1 1v1v2v1l-1 1v1v1v2l-1 1v1v1v1l-1 1v2v1v1l-1 1v1v1v2l-1 1v1v1v1l-1 1v1v2v1l-1 1v1v1l-1 1v1v2l-1 1v1v1v1l-1 1v1v1l-1 2v1v1l-1 1v1v1l-1 1v1v2l-1 1v1v1l-1 1v1v1l-1 1v1v1l-1 2v1v1l-1 1v1l-1 1v1v1l-1 1v1v1l-1 1v1 l-1 2v1v1l-1 1v1l-1 1v1l-1 1v1v1l-1 1v1l-1 1v1l-1 1v1v1l-1 1v1l-1 1v1l-1 1v1l-1 1v1l-1 1v1l-1 1v2l-1 1l-1 2v1l-1 2l-1 1l-1 2l-1 1v2l-1 1l-1 1l-1 2v1l-1 2l-1 1l-1 2v1l-1 1l-1 2l-1 1l-1 1v2l-1 1l-1 1l-1 2l-1 1v1l-1 1l-1 2l-1 1l-1 1v1l-1 2l-1 1l-1 1l-1 1v1 l-1 2l-1 1l-1 1l-1 1v1l-1 1l-1 2l-1 1l-1 1l-1 1v1l-1 1l-1 1l-1 1l-1 1l-1 1l-1 1v2l-1 1l-1 1l-1 1l-1 1l-1 1v1l-1 1l-1 1h-1l-1 1l-1 1v1l-1 1l-1 1l-1 1l-1 1l-1 1l-1 1v1l-1 1h-1l-1 1l-1 1l-1 1l-1 1l-1 1l-1 1l-1 1l-1 1l-1 1h-1l-1 1l-1 1v1h-1l-1 1l-1 1l-1 1h-1 l-1 1l-1 1v1h-1l-1 1l-1 1h-1l-1 1l-1 1h-1l-1 1l-1 1h-1v1l-1 1h-1l-1 1h-1l-1 1l-1 1h-1l-1 1h-1l-1 1h-1v1h-1l-1 1h-1l-1 1l-1 1h-1l-1 1h-1l-1 1h-1l-1 1h-1l-1 1h-1l-1 1h-1l-1 1h-1h-1l-1 1h-1l-1 1h-1h-1l-1 1h-1l-1 1h-1h-1l-1 1h-1h-1l-1 1h-1h-1l-1 1h-1h-1l-1 1 h-1h-1h-1l-1 1h-1h-1h-1l-1 1h-1h-1h-1l-1 1h-1h-1h-1h-1h-1l-1 1h-1h-1h-1h-1h-1l-1 1h-1h-1h-1h-1h-1h-1h-1h-1l-1 1h-1h-1h-1h-1h-1h-1h-9q-76 0 -150 -63l-1 -1l-1 -1l-1 -1l-1 -1l-1 -1h-1v-1l-1 -1l-1 -1l-1 -1l-27 -28q-46 -56 -46 -122v-460q0 -46 25 -92l1 -2l1 -1 l1 -1l1 -2v-1l1 -2l1 -1l1 -1l1 -2v-1l1 -1l1 -2l1 -1l1 -1v-2l1 -1l1 -1l1 -2l1 -1l1 -1v-1v-1l1 -1l1 -1l1 -1l1 -1l1 -2v-1l1 -1l1 -1l1 -2l1 -1l1 -1v-1l1 -1l1 -1l1 -1l1 -2l1 -1v-1l1 -1l1 -1l1 -1l1 -1l1 -1l1 -1v-1l1 -1l1 -1l1 -1l1 -1l1 -1l1 -1v-1l1 -1l1 -1 l1 -1l1 -1l1 -1l1 -1v-1l1 -1l1 -1l1 -1l1 -1l1 -1l1 -1h1v-1l1 -1l1 -1l1 -1l1 -1l1 -1h1l1 -1v-1l1 -1l1 -1l1 -1h1l1 -1l1 -1l1 -1h1l1 -1v-1l1 -1h1l1 -1l1 -1l1 -1h1l1 -1l1 -1h1l1 -1v-1h1l1 -1l1 -1h1l1 -1l1 -1h1v-1h1l1 -1h1l1 -1l1 -1h1l1 -1l1 -1h1l1 -1h1l1 -1 h1l1 -1l1 -1h1l1 -1h1l1 -1h1l1 -1h1l1 -1h1l1 -1h1h1l1 -1h1l1 -1h1l1 -1h1h1l1 -1h1l1 -1h1h1l1 -1h1h1l1 -1h1h1l1 -1h1h1h1l1 -1h1h1l1 -1h1h1h1l1 -1h1h1h1h1l1 -1h1h1h1h1l1 -1h1h1h1h1h1l1 -1h1h1h1h1h1h1h1l1 -1h1h1h1h1h1h1h1h1h9h2h1h1h2h1h1h1h1h1h1h1h2h1h1h1 l2 1h1h1h1h2h1h1h1l2 1h1h1h1h1l2 1h1h1h1h2l1 1h1h1l2 1h1h1h1l2 1h1h1l1 1h2h1l1 1h1h2l1 1h1l1 1h2h1l1 1h1l2 1h1l1 1h1l1 1h2l1 1h1l1 1h1l1 1h2l1 1h1l1 1h1l1 1h1l1 1h1l2 1l1 1h1l1 1h1l1 1l1 1h1l1 1l1 1h1l1 1h1l1 1l1 1h1l1 1h1v1h1l1 1l1 1h1l1 1l1 1h1l1 1l1 1 l1 1h1l1 1l1 1h1v1h1v1l1 1h1l1 1l1 1h1l1 1l1 1v1h1l1 1l1 1l1 1h1v1l1 1l1 1l1 1h1v1h1v1l1 1h1l1 1l1 1v1l1 1l1 1h1v1l1 1l1 1l1 1l1 1l1 1l1 1v1l1 1h1l1 1v1l1 1l1 1l1 1v1h1l1 1v1l1 1l1 1v1l1 1h1v1l1 1l1 1v1l1 1l1 1v1l1 1h1v1l1 1l1 1v1l1 1l1 1v1l1 1l1 1v1l1 1 v1l1 1l1 1l1 1l1 1v1l1 1v1l1 1l1 1v1l1 1v1l1 1v1l1 1l1 1v1l1 1v1l1 1v1l1 1h1v1l1 1v1l1 1v1l1 1v1l1 1v1l1 1v1l1 1l1 1v2l1 1v1l1 1v1l1 1v1l1 1v1l1 1v1l1 1v1l1 1v1l1 1v1l1 1v1v1l1 1v1l1 1v1l1 1v1v1l1 1v1l1 1v1v1l1 1v1l1 1v1v1l1 1v1v1l1 1v1v1l1 1v1v1l1 1v1 l1 1v1v1l1 1v1v1v1l1 1v1v1l1 1v1v1l1 1v1v1l1 1v1v1v1l1 1v1v1l1 1v1v1v1l1 1v1v1v1l1 1v1v1v1l1 1v1v1v1l1 1v1v1v1l1 1v1v1v1l1 1v1v1v1v1l1 1v1v1v1l1 1v1v1v1v1l1 1v1v1v1v1l1 1v1v1v1v1l1 1v1v1v1v1v1l1 1v1v1v1v1l1 1v1v1v1v1v1l1 1v1v1v1v1v1v1l1 1v1v1v1v1v1l1 1v1 v1v1v1v1v1v1l1 1v1v1v1v1v1v1l1 1v1v1v1v1v1v1v1l1 1v1v1v1v1v1v1v1v1l1 1v1v1v1v1v1v1v1v1v1l1 1v1v1v1v1v1v1v1v1v1v1l1 1v1v1v1v1v1v1v1v1v1v1v1v1l1 1v1v1v1v1v1v1v1v1v1v1v1v1v1l1 1v1v1v1v1v1v1v1v1v1v1v1v1v1v1v1v1v1v1l1 1v1v1v1v1v1v1v1v1v13v1v1v1v1v1v1l1 1v1v1 v1v1v1v1v1v1v1v1v1v1v1v1v1v1v1v1v1v1v1v1v1v1v1v1v1v1v10z" />
<glyph unicode=";" horiz-adv-x="900" d="M814 -488l-57 55h-1l-2 -1h-1l-2 -1h-1v-1h-1h-1h-1h-1v-1h-1h-1h-1v-1h-1h-1h-1v-1h-1h-1h-1v-1h-1h-1h-1l-1 -1h-1h-1l-1 -1h-1h-1l-1 -1h-1h-1l-1 -1h-1h-1l-1 -1h-1h-1l-1 -1h-1h-1l-1 -1h-1h-1l-1 -1h-1h-1l-1 -1h-1l-1 -1h-2l-1 -1h-2l-1 -1h-2l-2 -1l-2 -1h-2 l-2 -1l-2 -1h-2l-2 -1l-2 -1l-2 -1h-2l-2 -1l-2 -1l-3 -1h-2l-3 -2l-3 -1l-3 -1l-3 -1l-3 -1l-3 -1l-3 -1l-3 -1l-4 -2l-4 -1l-4 -2l-4 -1l-4 -2l-4 -1l-5 -2l-5 -2l-5 -2l-5 -2l-5 -1l-6 -3l-6 -2l-7 -2l-7 -3l-7 -3l-7 -2l-8 -3l-114 -50q-80 -33 -114 -33h-2h-1h-1h-2h-1 h-1h-1h-2h-1h-1h-1h-1h-2h-1l-1 1h-2h-1h-1h-1h-1h-2l-1 1h-1h-1h-2h-1l-1 1h-1h-2h-1h-1l-1 1h-1h-2l-1 1h-1h-1h-1l-2 1h-1h-1l-1 1h-1h-2l-1 1h-1l-1 1h-1h-1l-2 1h-1l-1 1h-1l-1 1h-1l-1 1h-2l-1 1h-1l-1 1h-1l-1 1h-1l-2 1h-1l-1 1l-1 1h-1l-1 1l-1 1h-1l-1 1l-2 1h-1 l-1 1l-1 1h-1l-1 1l-1 1l-1 1h-1l-1 1l-1 1l-1 1l-2 1l-1 1h-1l-1 1l-1 1l-1 1l-1 1l-1 1l-1 1l-1 1l-1 1l-1 1l-1 1l-1 1l-1 1l-1 1l-1 1l-1 1l-1 1v1h-1v1h-1v1l-1 1v1h-1l-1 1v1h-1v1l-1 1l-1 1v1l-1 1v1h-1v1l-1 1v1h-1v1l-1 1l-1 1v1l-1 1l-1 1v1h-1v1v1h-1v1l-1 1v1 h-1v1v1h-1v1l-1 1v1l-1 1l-1 1v1l-1 1l-1 1v1v1h-1v1l-1 1v1l-1 1v1h-1v1l-1 1v1l-1 1v1l-1 1v1h-1v1l-1 1v1l-1 1v1l-1 1l-1 1v1l-1 1v1l-1 1v1l-1 1l-1 1v1l-1 1v1l-1 1v1l-1 1v1h-1v1l-1 1v1l-1 1v1l-1 1v1l-1 1v1l-1 1l-1 1v1l-1 1v1l-1 1v1l-1 1v1l-1 1l-1 1v1l-1 1v1 l-1 1v1l-1 1v1l-1 1v1l-1 1v1l-1 1l-1 1v1l-1 1h-86l1 -2v-1l1 -2l1 -1l1 -2v-1h1v-2l1 -1l1 -2l1 -1l1 -2v-1l1 -2l1 -1l1 -2l1 -1l1 -2v-1l1 -2l1 -1l1 -2l1 -1l1 -2v-1l1 -1l1 -2l1 -1l1 -1v-2l1 -1l1 -2l1 -1l1 -1v-2l1 -1l1 -2l1 -1l1 -1l1 -2l1 -1v-1l1 -2l1 -1l1 -2 l1 -1l1 -1l1 -2v-1l1 -1l1 -2l1 -1l1 -1l1 -2l1 -1v-1l1 -2l1 -1l1 -1l1 -2l1 -1l1 -1l1 -1l1 -2l1 -1v-1l1 -2l1 -1l1 -1l1 -1l1 -2l1 -1l1 -1l1 -1l1 -2l1 -1l1 -1l1 -1l1 -1v-2l1 -1l1 -1l1 -1l1 -1l1 -2l1 -1l1 -1l1 -1l1 -1l1 -1l1 -1l1 -2q9 -10 18 -17l1 -1l1 -1 l1 -1l1 -1h1v-1l1 -1h1l1 -1l1 -1h1v-1l1 -1h1l1 -1h1v-1l1 -1h1l1 -1h1v-1l1 -1h1l1 -1h1v-1h1l1 -1h1l1 -1l1 -1l1 -1h1l1 -1h1l1 -1l1 -1h1l1 -1h1l1 -1l1 -1h1l1 -1h1l1 -1h1l1 -1h1l1 -1h1l1 -1h1l1 -1h1l1 -1h1h1v-1h1h1l1 -1h1l1 -1h1l1 -1h1h1l1 -1h1l1 -1h1h1l1 -1 h1h1l1 -1h1h1v-1h1h1h1v-1h1h1h1l1 -1h1h1l1 -1h1h1l1 -1h1h1h1l1 -1h1h1h1l1 -1h1h1h1l1 -1h1h1h1l1 -1h1h1h1h1l1 -1h1h1h1h1l1 -1h1h1h1h1h1h1v-1h1h1h1h1h1h1h1l1 -1h1h1h1h1h1h1h1l1 -1h1h1h1h1h1h1h1h1h1h1h1h1l1 -1h1h1h1h1h1h1h1h1h1h1h1h9h1h1h1h1h1h1h1h1v1h1h1h1 h1h1h1h1l1 1h1h1h1h1l2 1h1h1h1h1v1h1h1h1h1v1h3h1v1h1h1h1h1h1v1h1h1h1h1v1h1h1h1v1h1h1h1h1v1h1h1h1h1v1h1h1h1h1v1h1h1h1v1h1h1h1h1v1h1h1l1 1h1h1h1l1 1h1h1l1 1h1h1h1l1 1h1h1l1 1h1h1l1 1h1h1h1l1 1h1h1l1 1h1h1l1 1h1h1l1 1h1h1h1l1 1h1h1l1 1h1h1l1 1h2l1 1h2l2 1 l2 1h2l2 1h2l2 1l2 1h2l2 1l2 1h2l2 1l2 1h3l2 1l2 1h2l2 1l3 1l3 1l3 1h1q170 58 338 100zM166 -197l4 217v817v2v2v1v2v1v2v2v1v2l-1 1v2v1v2v2l-1 1v2v1v2l-1 1v2v1l-1 2v1l-1 2v1l-1 2v1l-1 2v1l-1 1l-1 2v1l-1 2l-1 1l-1 1v1l-1 1l-1 1l-1 1l-1 1l-1 1v1l-1 1l-1 1 l-1 1l-1 1h-1l-1 1l-1 1h-1l-1 1l-1 1l-1 1h-1l-1 1h-2q-17 8 -81 6v43l208 15l1 -302l1 1l1 1l1 1l1 1v2l1 1l1 1l1 1l1 1l1 1v1l1 1l1 1l1 2l1 1l1 1v1l1 1l1 1l1 1l1 1l1 1l1 1v1l1 1l1 1l1 1l1 1l1 1l1 1v1l1 1l1 1l1 1v1h1l1 1l1 1v1l1 1l1 1l1 1l1 1l1 1l1 1v1l1 1 l1 1l1 1l1 1l1 1l1 1l1 1l1 1l1 1l1 1l1 1l1 1l1 1l1 1l1 1l1 1l1 1l1 1l1 1l1 1h1v1h1l1 1l1 1l1 1l1 1l1 1l1 1l1 1h1v1h1l1 1l1 1l1 1l1 1h1v1h1l1 1l1 1l1 1h1v1h1l1 1l1 1l1 1h1l1 1l1 1l1 1h1l1 1l1 1h1v1h1l1 1l1 1h1l1 1l1 1h1l1 1l1 1h1l1 1l1 1h1l1 1h1l1 1l1 1h1 l1 1h1l1 1l1 1h1l1 1h1l1 1h1l1 1l1 1h1l1 1h1l1 1h1l1 1h1l1 1h1l1 1h1l1 1h1l1 1h1l1 1h1h1l1 1h1l1 1h1l1 1h1h1l1 1h1l1 1h1h1l1 1h1l1 1h1h1l1 1h1h1l1 1h1h1l1 1h1h1l1 1h1h1l1 1h1h1l1 1h1h1h1l1 1h1h1h1l1 1h1h1h1l1 1h1h1h1l1 1h1h1h1l1 1h1h1h1h1h1l1 1h1h1h1h1 l1 1h1h1h1h1h1h1l1 1h1h1h1h1h1h1h1l1 1h1h1h1h1h1h1h1h1h1h1h1h1l1 1h1h1h1h1h1h1h1h9q96 0 152 -44q37 -28 80 -88q80 -111 84 -335v-33q0 -261 -96 -384q-66 -85 -127 -108q-43 -16 -113 -16q-147 0 -232 163l-1 -268v-29l-209 15v43h1h2h1h1h1h1h1h1h1h1h1h1h1h1h1h1h1 h1h1h1l1 -1h1h1h1l1 1h1h1h1h1h1h1h1h1h2h1h2h1h2h1h2h1h2h1h1h1h1h1h1l1 1h1h2h1h2h1h1l2 1h1h1h1h2l1 1h1h1h2l1 1h1h1l1 1h1l2 1q19 8 32 61zM741 311v1v2v1v1v2v1v1v2v1v1v2v1v1v2v1v1v2v1v1v2v1v1v2v1v1q-1 16 -1 32v1l-1 1v2v1v1v2v1v1v2v1v1v1v2v1v1v2l-1 1v1v1v2v1 v1v2v1v1v1v2v1l-1 1v1v2v1v1v2v1v1v1v2l-1 1v1v1v2v1v1v1v2v1l-1 1v1v2v1v1v1v2l-1 1v1v1v2v1v1v1v2l-1 1v1v1v2v1v1l-1 1v2v1v1v1v1v2l-1 1v1v1v2v1l-1 1v1v1v2v1v1l-1 1v2v1v1v1l-1 1v2v1v1v1l-1 1v2v1v1v1l-1 1v2v1v1v1l-1 1v1v2v1l-1 1v1v1v2l-1 1v1v1v1l-1 1v2v1v1 l-1 1v1v1v2l-1 1v1v1v1l-1 1v1v2v1l-1 1v1v1l-1 1v1v2l-1 1v1v1v1l-1 1v1v1l-1 2v1v1l-1 1v1v1l-1 1v1v2l-1 1v1v1l-1 1v1v1l-1 1v1v1l-1 2v1v1l-1 1v1l-1 1v1v1l-1 1v1v1l-1 1v1l-1 2v1v1l-1 1v1l-1 1v1l-1 1v1v1l-1 1v1l-1 1v1l-1 1v1v1l-1 1v1l-1 1v1l-1 1v1l-1 1v1l-1 1 v1l-1 1v2l-1 1l-1 2v1l-1 2l-1 1l-1 2l-1 1v2l-1 1l-1 1l-1 2v1l-1 2l-1 1l-1 2v1l-1 1l-1 2l-1 1l-1 1v2l-1 1l-1 1l-1 2l-1 1v1l-1 1l-1 2l-1 1l-1 1v1l-1 2l-1 1l-1 1l-1 1v1l-1 2l-1 1l-1 1l-1 1v1l-1 1l-1 2l-1 1l-1 1l-1 1v1l-1 1l-1 1l-1 1l-1 1l-1 1l-1 1v2l-1 1 l-1 1l-1 1l-1 1l-1 1v1l-1 1l-1 1h-1l-1 1l-1 1v1l-1 1l-1 1l-1 1l-1 1l-1 1l-1 1v1l-1 1h-1l-1 1l-1 1l-1 1l-1 1l-1 1l-1 1l-1 1l-1 1l-1 1h-1l-1 1l-1 1v1h-1l-1 1l-1 1l-1 1h-1l-1 1l-1 1v1h-1l-1 1l-1 1h-1l-1 1l-1 1h-1l-1 1l-1 1h-1v1l-1 1h-1l-1 1h-1l-1 1l-1 1h-1 l-1 1h-1l-1 1h-1v1h-1l-1 1h-1l-1 1l-1 1h-1l-1 1h-1l-1 1h-1l-1 1h-1l-1 1h-1l-1 1h-1l-1 1h-1h-1l-1 1h-1l-1 1h-1h-1l-1 1h-1l-1 1h-1h-1l-1 1h-1h-1l-1 1h-1h-1l-1 1h-1h-1l-1 1h-1h-1h-1l-1 1h-1h-1h-1l-1 1h-1h-1h-1l-1 1h-1h-1h-1h-1h-1l-1 1h-1h-1h-1h-1h-1l-1 1h-1 h-1h-1h-1h-1h-1h-1h-1l-1 1h-1h-1h-1h-1h-1h-1h-9q-76 0 -150 -63l-1 -1l-1 -1l-1 -1l-1 -1l-1 -1h-1v-1l-1 -1l-1 -1l-1 -1l-27 -28q-46 -56 -46 -122v-460q0 -46 25 -92l1 -2l1 -1l1 -1l1 -2v-1l1 -2l1 -1l1 -1l1 -2v-1l1 -1l1 -2l1 -1l1 -1v-2l1 -1l1 -1l1 -2l1 -1l1 -1 v-1v-1l1 -1l1 -1l1 -1l1 -1l1 -2v-1l1 -1l1 -1l1 -2l1 -1l1 -1v-1l1 -1l1 -1l1 -1l1 -2l1 -1v-1l1 -1l1 -1l1 -1l1 -1l1 -1l1 -1v-1l1 -1l1 -1l1 -1l1 -1l1 -1l1 -1v-1l1 -1l1 -1l1 -1l1 -1l1 -1l1 -1v-1l1 -1l1 -1l1 -1l1 -1l1 -1l1 -1h1v-1l1 -1l1 -1l1 -1l1 -1l1 -1h1 l1 -1v-1l1 -1l1 -1l1 -1h1l1 -1l1 -1l1 -1h1l1 -1v-1l1 -1h1l1 -1l1 -1l1 -1h1l1 -1l1 -1h1l1 -1v-1h1l1 -1l1 -1h1l1 -1l1 -1h1v-1h1l1 -1h1l1 -1l1 -1h1l1 -1l1 -1h1l1 -1h1l1 -1h1l1 -1l1 -1h1l1 -1h1l1 -1h1l1 -1h1l1 -1h1l1 -1h1h1l1 -1h1l1 -1h1l1 -1h1h1l1 -1h1l1 -1 h1h1l1 -1h1h1l1 -1h1h1l1 -1h1h1h1l1 -1h1h1l1 -1h1h1h1l1 -1h1h1h1h1l1 -1h1h1h1h1l1 -1h1h1h1h1h1l1 -1h1h1h1h1h1h1h1l1 -1h1h1h1h1h1h1h1h1h9h2h1h1h2h1h1h1h1h1h1h1h2h1h1h1l2 1h1h1h1h2h1h1h1l2 1h1h1h1h1l2 1h1h1h1h2l1 1h1h1l2 1h1h1h1l2 1h1h1l1 1h2h1l1 1h1h2l1 1 h1l1 1h2h1l1 1h1l2 1h1l1 1h1l1 1h2l1 1h1l1 1h1l1 1h2l1 1h1l1 1h1l1 1h1l1 1h1l2 1l1 1h1l1 1h1l1 1l1 1h1l1 1l1 1h1l1 1h1l1 1l1 1h1l1 1h1v1h1l1 1l1 1h1l1 1l1 1h1l1 1l1 1l1 1h1l1 1l1 1h1v1h1v1l1 1h1l1 1l1 1h1l1 1l1 1v1h1l1 1l1 1l1 1h1v1l1 1l1 1l1 1h1v1h1v1 l1 1h1l1 1l1 1v1l1 1l1 1h1v1l1 1l1 1l1 1l1 1l1 1l1 1v1l1 1h1l1 1v1l1 1l1 1l1 1v1h1l1 1v1l1 1l1 1v1l1 1h1v1l1 1l1 1v1l1 1l1 1v1l1 1h1v1l1 1l1 1v1l1 1l1 1v1l1 1l1 1v1l1 1v1l1 1l1 1l1 1l1 1v1l1 1v1l1 1l1 1v1l1 1v1l1 1v1l1 1l1 1v1l1 1v1l1 1v1l1 1h1v1l1 1v1 l1 1v1l1 1v1l1 1v1l1 1v1l1 1l1 1v2l1 1v1l1 1v1l1 1v1l1 1v1l1 1v1l1 1v1l1 1v1l1 1v1l1 1v1v1l1 1v1l1 1v1l1 1v1v1l1 1v1l1 1v1v1l1 1v1l1 1v1v1l1 1v1v1l1 1v1v1l1 1v1v1l1 1v1l1 1v1v1l1 1v1v1v1l1 1v1v1l1 1v1v1l1 1v1v1l1 1v1v1v1l1 1v1v1l1 1v1v1v1l1 1v1v1v1l1 1v1 v1v1l1 1v1v1v1l1 1v1v1v1l1 1v1v1v1l1 1v1v1v1v1l1 1v1v1v1l1 1v1v1v1v1l1 1v1v1v1v1l1 1v1v1v1v1l1 1v1v1v1v1v1l1 1v1v1v1v1l1 1v1v1v1v1v1l1 1v1v1v1v1v1v1l1 1v1v1v1v1v1l1 1v1v1v1v1v1v1v1l1 1v1v1v1v1v1v1l1 1v1v1v1v1v1v1v1l1 1v1v1v1v1v1v1v1v1l1 1v1v1v1v1v1v1v1v1 v1l1 1v1v1v1v1v1v1v1v1v1v1l1 1v1v1v1v1v1v1v1v1v1v1v1v1l1 1v1v1v1v1v1v1v1v1v1v1v1v1v1l1 1v1v1v1v1v1v1v1v1v1v1v1v1v1v1v1v1v1v1l1 1v1v1v1v1v1v1v1v1v13v1v1v1v1v1v1l1 1v1v1v1v1v1v1v1v1v1v1v1v1v1v1v1v1v1v1v1v1v1v1v1v1v1v1v1v1v10z" />
<glyph unicode="&#x3c;" horiz-adv-x="828" d="M814 1135l-56 -55h-1l-4 1h-1v1h-2h-1v1h-1h-1h-1l-1 1h-1h-1h-1v1h-1h-1h-1v1h-1h-1l-1 1h-1h-1l-1 1h-1h-1h-1l-1 1h-1h-1l-1 1h-1h-1l-1 1h-1h-1l-1 1h-1h-1l-1 1h-1l-1 1h-1h-1l-1 1h-1h-1l-1 1h-1h-1l-2 1h-1l-2 1h-1l-2 1l-2 1h-2l-2 1l-2 1h-2l-2 1l-2 1l-2 1h-2 l-2 1l-2 1h-2l-3 1l-2 1l-3 1l-3 1l-3 1l-3 1l-3 2l-3 1l-3 1l-3 1l-4 1l-4 2l-4 1l-4 2l-4 1l-4 2l-5 2l-5 1l-5 2l-5 2l-5 2l-6 2l-6 3l-7 2l-7 3l-7 2l-7 3l-8 3l-114 50q-80 33 -114 33h-2h-1h-1h-2h-1h-1h-1h-2h-1h-1h-1l-2 -1h-1h-1h-1h-2h-1h-1h-1l-2 -1h-1h-1h-1h-1 h-2l-1 -1h-1h-1h-2h-1l-1 -1h-1h-1l-2 -1h-1h-1h-1l-1 -1h-2h-1l-1 -1h-1h-1l-1 -1h-2h-1l-1 -1h-1l-1 -1h-2l-1 -1h-1h-1l-1 -1h-1l-1 -1h-2l-1 -1h-1l-1 -1h-1l-1 -1l-1 -1h-2l-1 -1h-1l-1 -1l-1 -1h-1l-1 -1l-1 -1h-1l-2 -1l-1 -1h-1l-1 -1l-1 -1h-1l-1 -1l-1 -1l-1 -1 l-1 -1h-1l-1 -1l-2 -1l-1 -1l-1 -1l-1 -1l-1 -1h-1l-1 -1l-1 -1l-1 -1l-1 -1l-1 -1l-1 -1l-1 -1l-1 -1l-1 -1l-1 -1l-1 -1l-1 -1l-1 -2q-18 -19 -65 -107h-86l1 1v2l1 1l1 2l1 1v2h1v1l1 2l1 1l1 2l1 1v2l1 1l1 2l1 1v2l1 1l1 1l1 2l1 1v2l1 1l1 1l1 2l1 1v2l1 1l1 1l1 2 l1 1v1l1 2l1 1l1 2l1 1l1 2v1h1v1l1 2l1 1l1 1l1 2l1 1v2l1 1l1 1l1 2l1 1l1 1l1 2v1l1 1l1 1l1 2l1 1l1 1l1 2v1l1 1l1 2l1 1l1 1l1 1l1 2l1 1l1 1l1 2v1l1 1l1 1l1 2l1 1l1 1l1 1l1 1l1 2l1 1l1 1l1 1l1 2l1 1l1 1l1 1l1 1l1 2l1 1l1 1l1 1l1 1l1 1l1 1l1 2q8 9 17 17l1 1 h1v1l1 1h1l1 1v1h1l1 1l1 1h1v1l1 1h1l1 1h1v1l1 1h1l1 1h1v1l1 1h1l1 1h1v1h1l1 1h1v1h1l1 1l1 1h1l1 1h1l1 1l1 1h1l1 1h1l1 1l1 1h1l1 1h1l1 1h1v1h1h1l1 1h1l1 1h1l1 1h1l1 1h1l1 1h1l1 1h1l1 1h1h1v1h1h1l1 1h1h1v1h1h1l1 1h1h1l1 1h1h1v1h1h1l1 1h1h1l1 1h1h1l1 1h1h1 h1l1 1h1h1l1 1h1h1h1l1 1h1h1h1l1 1h1h1h1l1 1h1h1h1h1l1 1h1h1h1h1v1h1h1h1h1h1l1 1h1h1h1h1h1l1 1h1h1h1h1h1h1h1l1 1h1h1h1h1h1h1h1h1l1 1h1h1h1h1h1h1h1h1h1h1h1h1h1h1h1l1 1h1h1h1h1h1h9h1h1h1h1h1l1 -1h1h1h1h1h1h1h1l1 -1h1h1h1h1h1v-1h1h1h1h1h1v-1h1h1h1h1h1v-1h1 h1h1h1v-1h1h1h1h1v-1h2h1h1v-1h1h1h1h1v-1h1h1h1l1 -1h1h1h1l1 -1h1h1h1h1v-1h1h1h1v-1h1h1h1h1v-1h1h1l1 -1h1h1h1l1 -1h1h1l1 -1h1h1h1l1 -1h1h1l1 -1h1h1l1 -1h1h1h1l1 -1h1h1l1 -1h1h1l1 -1h1h1l1 -1h1h1h1l1 -1h1h1l1 -1h1h1l1 -1h1l2 -1h1l2 -1h2l2 -1h2l2 -1l2 -1h2 l2 -1l2 -1h2l2 -1l2 -1h2l2 -1l3 -1h2l2 -1l2 -1h2l3 -1l3 -1l3 -1l1 -1q170 -57 338 -99zM166 -197l4 217v817v2v2v1v2v1v2v2v1v2l-1 1v2v1v2v2l-1 1v2v1v2l-1 1v2v1l-1 2v1l-1 2v1l-1 2v1l-1 2v1l-1 1l-1 2v1l-1 2l-1 1l-1 1v1l-1 1l-1 1l-1 1l-1 1l-1 1v1l-1 1l-1 1l-1 1 l-1 1h-1l-1 1l-1 1h-1l-1 1l-1 1l-1 1h-1l-1 1h-2q-17 8 -81 6v43l208 15v-434l1 1h1l1 1l1 1v1l1 1l1 1l1 1h1l1 1v1l1 1l1 1l1 1h1l1 1v1l1 1l1 1h1l1 1l1 1l1 1v1h1l1 1l1 1l1 1h1l1 1v1l1 1h1l1 1l1 1h1l1 1v1l1 1h1l1 1l1 1h1l1 1v1h1l1 1l1 1h1l1 1l1 1h1l1 1l1 1h1v1 h1l1 1l1 1h1l1 1l1 1h1l1 1l1 1h1l1 1h1v1h1l1 1h1l1 1h1v1h1l1 1h1l1 1h1l1 1l1 1h1l1 1h1l1 1h1l1 1h1l1 1h1l1 1h1l1 1h1l1 1h1l1 1h1l1 1h1h1l1 1h1l1 1h1l1 1h1h1l1 1h1l1 1h1h1l1 1h1l1 1h1h1l1 1h1h1l1 1h1h1l1 1h1h1l1 1h1h1l1 1h1h1h1l1 1h1h1h1l1 1h1h1l1 1h1h1h1 h1l1 1h1h1h1l1 1h1h1h1h1l1 1h1h1h1h1l1 1h1h1h1h1h1h1l1 1h1h1h1h1h1h1l1 1h1h1l33 2h1h1h2h1h1h1l2 -1h1h1h1h2h1h1h1h2h1h1h1h2h1h1h1l1 -1h2h1h1h1h1h2h1l1 -1h1h1h2h1h1h1l1 -1h2h1h1h1l1 -1h2h1h1h1l1 -1h2h1h1h1l1 -1h1h1h2l1 -1h1h1h1l1 -1h2h1l1 -1h1h1h1l2 -1h1h1 l1 -1h1h1l2 -1h1h1l1 -1h1l1 -1h1h2l1 -1h1h1l1 -1h1l1 -1h2h1l1 -1h1l1 -1h1l1 -1h1h2l1 -1h1l1 -1h1l1 -1h1l1 -1h2l1 -1h1l1 -1h1l1 -1h1l1 -1h1l1 -1h2l1 -1h1l1 -1l1 -1h1l1 -1h1l1 -1l1 -1h2l1 -1h1l1 -1l1 -1h1l1 -1h1v-1h1l1 -1h1l1 -1l2 -1h1l1 -1l1 -1h1l1 -1 l1 -1l1 -1h1l1 -1l1 -1h1l1 -1l1 -1l2 -1h1l1 -1l1 -1l1 -1h1l1 -1l1 -1l1 -1l1 -1h1l1 -1l1 -1l1 -1l1 -1l1 -1h1l1 -1l1 -1l1 -1l1 -1l2 -1l1 -1l1 -1h1l1 -1l1 -1l1 -1l1 -1l1 -1l1 -1l1 -1l1 -1l1 -1l1 -1l1 -1l1 -1l1 -1l1 -1l1 -1l1 -1l1 -1l1 -1l1 -1l1 -1l1 -1l1 -1 l1 -1l1 -1l1 -1v-1h1l1 -1l1 -1l1 -1v-1l1 -1l1 -1l1 -1l1 -1l1 -1l1 -1v-1l1 -1l1 -1l1 -1l1 -1l1 -1l1 -1v-1l1 -1l1 -1v-1h1l1 -1v-1l1 -1l1 -1v-1l1 -1l1 -1l1 -1l1 -1v-1l1 -1l1 -1v-1l1 -1l1 -1l1 -1v-1l1 -1l1 -1v-1l1 -1v-1l1 -1h1v-1l1 -1v-1l1 -1v-1l1 -1l1 -1v-1 h1v-1l1 -1v-1l1 -1v-1l1 -1v-1l1 -1v-1h1v-1l1 -1v-1l1 -1v-1l1 -1v-1l1 -1v-1l1 -1v-1h1v-1l1 -1v-1l1 -1v-1l1 -1v-1v-1l1 -1v-1l1 -1l1 -1v-1v-1l1 -1v-1l1 -1v-1v-1l1 -1v-1l1 -1v-1l1 -1v-1v-1l1 -1v-1l1 -1v-1v-1l1 -1v-1v-1l1 -1v-1v-1h1v-1v-1l1 -1v-1v-1l1 -1v-1 v-1v-1l1 -1v-1v-1l1 -1v-1v-1v-1l1 -1v-1v-1l1 -1v-1v-1v-1l1 -1v-1v-1v-1l1 -1v-1v-1v-1l1 -1v-1v-1v-1v-1l1 -1v-1v-1v-1l1 -1v-1v-1v-1v-1v-1l1 -1v-1v-1v-1v-1v-1l1 -1q3 -23 3 -50v-1v-1v-1v-1v-2v-1v-1v-1v-1v-1v-2v-1v-1v-1v-1v-1v-1v-2v-1l-1 -1v-1v-1v-1v-2v-1v-1 v-1v-1v-1l-1 -1v-2v-1v-1v-1v-1v-1l-1 -1v-2v-1v-1v-1v-1l-1 -1v-1v-1v-2v-1v-1l-1 -1v-1v-1v-1l-1 -2v-1v-1v-1v-1l-1 -1v-1v-1v-2l-1 -1v-1v-1l-1 -1v-1v-1v-1l-1 -1v-2v-1l-1 -1v-1v-1l-1 -1v-1v-1l-1 -2v-1v-1l-1 -1v-1v-1l-1 -1v-1v-1l-1 -1v-2l-1 -1v-1v-1l-1 -1v-1 l-1 -1v-1v-1l-1 -1v-2l-1 -1v-1l-1 -1v-1v-1l-1 -1v-1l-1 -1v-1l-1 -1v-2l-1 -1v-1l-1 -1v-1l-1 -1v-1l-1 -1v-1l-1 -1v-1l-1 -1l-1 -2v-1l-1 -1v-1l-1 -1v-1l-1 -1l-1 -1v-1l-1 -1v-1l-1 -1l-1 -1v-1l-1 -1v-2l-1 -1l-1 -1v-1l-1 -1l-1 -1v-1l-1 -1l-1 -1v-1l-1 -1l-1 -1 l-1 -1v-1l-1 -1l-1 -1v-1l-1 -1l-1 -2l-1 -1v-1l-1 -1l-1 -1l-1 -1v-1l-1 -1l-1 -1l-1 -1l-1 -1v-1l-1 -1l-1 -1l-1 -1l-1 -1v-1l-1 -1l-1 -1l-1 -1l-1 -1l-1 -1l-1 -1v-1l-1 -1l-1 -1l-1 -1l-1 -1l-1 -2l-1 -1l-1 -1l-1 -1l-1 -1l-1 -1l-1 -1v-1l-1 -1l-1 -1l-1 -1l-1 -1 l-1 -1l-1 -1l-1 -1l-1 -1l-1 -1l-1 -1l-2 -2q-95 -91 -229 -91q-120 0 -190 100v-165l-1 -270l-209 15v43h1h2h1h1h1h1h1h1h1h1h1h1h1h1h1h1h1h1h1h1l1 -1h1h1h1l1 1h1h1h1h1h1h1h1h1h2h1h2h1h2h1h2h1h2h1h1h1h1h1h1l1 1h1h2h1h2h1h1l2 1h1h1h1h2l1 1h1h1h2l1 1h1h1l1 1h1 l2 1q19 8 32 61zM652 317v1v2v1v1v2v1v1v2v1v1v2v1v1v2v1v1v2v1v1v2v1v1v2v1l-1 1v2v1v1v1v2v1v1v2v1v1v1v2l-1 1v1v2v1v1v2v1v1v1l-1 2v1v1v1v2v1v1v2l-1 1v1v1v2v1v1l-1 1v2v1v1v1v2l-1 1v1v1v2v1l-1 1v1v1v2v1l-1 1v1v2v1l-1 1v1v1v2v1l-1 1v1v1l-1 2v1v1v1l-1 1v2v1v1 l-1 1v1v2l-1 1v1v1l-1 1v1v2l-1 1v1v1l-1 1v1v2l-1 1v1v1l-1 1v1l-1 1v1v2l-1 1v1l-1 1v1l-1 1v1v1l-1 2v1l-1 1v1l-1 1v1l-1 1v1l-1 1v1l-1 1v2l-1 1v1l-1 1v1l-1 1v1l-1 1v1l-1 1l-1 1v1l-1 1v1l-1 1v1l-1 1l-1 1v1l-2 2q-57 89 -153 89q-61 0 -121 -40h-2l-1 -1l-1 -1 l-2 -1l-1 -1l-1 -1l-2 -1l-1 -1l-1 -1h-1l-1 -1l-2 -1l-1 -1l-1 -1l-1 -1l-1 -1l-1 -1l-1 -1l-2 -1h-1l-1 -1l-1 -1l-1 -1l-1 -1l-1 -1l-1 -1l-18 -21q-18 -25 -18 -53v-283q0 -29 20 -57q61 -83 153 -83q105 0 166 88l1 1v1l1 1v1h1v1l1 1v1l1 1v1h1v1l1 1v1l1 1v1l1 1v1h1 v1v1h1v1v1l1 1l1 1v1l1 1v1v1h1v1v1l1 1v1l1 1v1l1 1v1v1h1v1v1l1 1v1v1l1 1v1l1 1v1v1l1 1v1v1l1 1v1v1l1 1v1v1l1 1v1v1l1 1v1v1v1l1 1v1v1l1 1v1v1v1l1 1v1v1l1 1v1v1v1v1l1 1v1v1v1l1 1v1v1v1v1l1 1v1v1v1l1 1v1v1v1v1v1v1h1v1v1v1v1v1l1 1v1v1v1v1v1l1 1v1v1v1v1v1v1 l1 1v1v1v1v1v1v1v1v1h1v1v1v1v1v1v1v1v1v1l1 1v1v1v1v1v1v1v1v1v1v1v1l1 1v1v1v1v1v1v1v1v1v1v1v1v1v1v1v1v1l1 1v1v1v1v1v1v1v1v1v1v1v1v1v1v1v1v1v1v1v1v1v1v1v9z" />
<glyph unicode="=" horiz-adv-x="1163" d="M714 389q0 60 -43.5 102t-103.5 42q-61 0 -104.5 -41.5t-43.5 -102.5q0 -27 9 -51l151 68l-71 -149q29 -13 59 -13q60 0 103.5 42t43.5 103zM761 389q0 -80 -57.5 -135.5t-136.5 -55.5q-42 0 -81 18l-20 -47q-223 39 -326 220q103 180 324 219q-65 -30 -104 -89t-39 -130 q0 -44 15 -85l49 15q-13 35 -13 70q0 80 57 135.5t138 55.5q80 0 137 -55.5t57 -135.5zM993 389q-104 -182 -327 -220q67 29 106.5 88t39.5 132q0 71 -39 130t-104 89q222 -38 324 -219zM1093 389q-79 143 -221 219q-136 73 -305 73t-305 -73q-142 -77 -222 -219 q81 -145 222 -221q135 -72 305 -72t305 73q141 77 221 220z" />
<glyph unicode="&#x3e;" horiz-adv-x="828" d="M814 -488l-57 55h-1l-2 -1h-1l-2 -1h-1v-1h-1h-1h-1h-1v-1h-1h-1h-1v-1h-1h-1h-1v-1h-1h-1h-1v-1h-1h-1h-1l-1 -1h-1h-1l-1 -1h-1h-1l-1 -1h-1h-1l-1 -1h-1h-1l-1 -1h-1h-1l-1 -1h-1h-1l-1 -1h-1h-1l-1 -1h-1h-1l-1 -1h-1l-1 -1h-2l-1 -1h-2l-1 -1h-2l-2 -1l-2 -1h-2 l-2 -1l-2 -1h-2l-2 -1l-2 -1l-2 -1h-2l-2 -1l-2 -1l-3 -1h-2l-3 -2l-3 -1l-3 -1l-3 -1l-3 -1l-3 -1l-3 -1l-3 -1l-4 -2l-4 -1l-4 -2l-4 -1l-4 -2l-4 -1l-5 -2l-5 -2l-5 -2l-5 -2l-5 -1l-6 -3l-6 -2l-7 -2l-7 -3l-7 -3l-7 -2l-8 -3l-114 -50q-80 -33 -114 -33h-2h-1h-1h-2h-1 h-1h-1h-2h-1h-1h-1h-1h-2h-1l-1 1h-2h-1h-1h-1h-1h-2l-1 1h-1h-1h-2h-1l-1 1h-1h-2h-1h-1l-1 1h-1h-2l-1 1h-1h-1h-1l-2 1h-1h-1l-1 1h-1h-2l-1 1h-1l-1 1h-1h-1l-2 1h-1l-1 1h-1l-1 1h-1l-1 1h-2l-1 1h-1l-1 1h-1l-1 1h-1l-2 1h-1l-1 1l-1 1h-1l-1 1l-1 1h-1l-1 1l-2 1h-1 l-1 1l-1 1h-1l-1 1l-1 1l-1 1h-1l-1 1l-1 1l-1 1l-2 1l-1 1h-1l-1 1l-1 1l-1 1l-1 1l-1 1l-1 1l-1 1l-1 1l-1 1l-1 1l-1 1l-1 1l-1 1l-1 1l-1 1l-1 1v1h-1v1h-1v1l-1 1v1h-1l-1 1v1h-1v1l-1 1l-1 1v1l-1 1v1h-1v1l-1 1v1h-1v1l-1 1l-1 1v1l-1 1l-1 1v1h-1v1v1h-1v1l-1 1v1 h-1v1v1h-1v1l-1 1v1l-1 1l-1 1v1l-1 1l-1 1v1v1h-1v1l-1 1v1l-1 1v1h-1v1l-1 1v1l-1 1v1l-1 1v1h-1v1l-1 1v1l-1 1v1l-1 1l-1 1v1l-1 1v1l-1 1v1l-1 1l-1 1v1l-1 1v1l-1 1v1l-1 1v1h-1v1l-1 1v1l-1 1v1l-1 1v1l-1 1v1l-1 1l-1 1v1l-1 1v1l-1 1v1l-1 1v1l-1 1l-1 1v1l-1 1v1 l-1 1v1l-1 1v1l-1 1v1l-1 1v1l-1 1l-1 1v1l-1 1h-86l1 -2v-1l1 -2l1 -1l1 -2v-1h1v-2l1 -1l1 -2l1 -1l1 -2v-1l1 -2l1 -1l1 -2l1 -1l1 -2v-1l1 -2l1 -1l1 -2l1 -1l1 -2v-1l1 -1l1 -2l1 -1l1 -1v-2l1 -1l1 -2l1 -1l1 -1v-2l1 -1l1 -2l1 -1l1 -1l1 -2l1 -1v-1l1 -2l1 -1l1 -2 l1 -1l1 -1l1 -2v-1l1 -1l1 -2l1 -1l1 -1l1 -2l1 -1v-1l1 -2l1 -1l1 -1l1 -2l1 -1l1 -1l1 -1l1 -2l1 -1v-1l1 -2l1 -1l1 -1l1 -1l1 -2l1 -1l1 -1l1 -1l1 -2l1 -1l1 -1l1 -1l1 -1v-2l1 -1l1 -1l1 -1l1 -1l1 -2l1 -1l1 -1l1 -1l1 -1l1 -1l1 -1l1 -2q9 -10 18 -17l1 -1l1 -1 l1 -1l1 -1h1v-1l1 -1h1l1 -1l1 -1h1v-1l1 -1h1l1 -1h1v-1l1 -1h1l1 -1h1v-1l1 -1h1l1 -1h1v-1h1l1 -1h1l1 -1l1 -1l1 -1h1l1 -1h1l1 -1l1 -1h1l1 -1h1l1 -1l1 -1h1l1 -1h1l1 -1h1l1 -1h1l1 -1h1l1 -1h1l1 -1h1l1 -1h1h1v-1h1h1l1 -1h1l1 -1h1l1 -1h1h1l1 -1h1l1 -1h1h1l1 -1 h1h1l1 -1h1h1v-1h1h1h1v-1h1h1h1l1 -1h1h1l1 -1h1h1l1 -1h1h1h1l1 -1h1h1h1l1 -1h1h1h1l1 -1h1h1h1l1 -1h1h1h1h1l1 -1h1h1h1h1l1 -1h1h1h1h1h1h1v-1h1h1h1h1h1h1h1l1 -1h1h1h1h1h1h1h1l1 -1h1h1h1h1h1h1h1h1h1h1h1h1l1 -1h1h1h1h1h1h1h1h1h1h1h1h9h1h1h1h1h1h1h1h1v1h1h1h1 h1h1h1h1l1 1h1h1h1h1l2 1h1h1h1h1v1h1h1h1h1v1h3h1v1h1h1h1h1h1v1h1h1h1h1v1h1h1h1v1h1h1h1h1v1h1h1h1h1v1h1h1h1h1v1h1h1h1v1h1h1h1h1v1h1h1l1 1h1h1h1l1 1h1h1l1 1h1h1h1l1 1h1h1l1 1h1h1l1 1h1h1h1l1 1h1h1l1 1h1h1l1 1h1h1l1 1h1h1h1l1 1h1h1l1 1h1h1l1 1h2l1 1h2l2 1 l2 1h2l2 1h2l2 1l2 1h2l2 1l2 1h2l2 1l2 1h3l2 1l2 1h2l2 1l3 1l3 1l3 1h1q170 58 338 100zM166 -197l4 217v817v2v2v1v2v1v2v2v1v2l-1 1v2v1v2v2l-1 1v2v1v2l-1 1v2v1l-1 2v1l-1 2v1l-1 2v1l-1 2v1l-1 1l-1 2v1l-1 2l-1 1l-1 1v1l-1 1l-1 1l-1 1l-1 1l-1 1v1l-1 1l-1 1 l-1 1l-1 1h-1l-1 1l-1 1h-1l-1 1l-1 1l-1 1h-1l-1 1h-2q-17 8 -81 6v43l208 15v-434l1 1h1l1 1l1 1v1l1 1l1 1l1 1h1l1 1v1l1 1l1 1l1 1h1l1 1v1l1 1l1 1h1l1 1l1 1l1 1v1h1l1 1l1 1l1 1h1l1 1v1l1 1h1l1 1l1 1h1l1 1v1l1 1h1l1 1l1 1h1l1 1v1h1l1 1l1 1h1l1 1l1 1h1l1 1 l1 1h1v1h1l1 1l1 1h1l1 1l1 1h1l1 1l1 1h1l1 1h1v1h1l1 1h1l1 1h1v1h1l1 1h1l1 1h1l1 1l1 1h1l1 1h1l1 1h1l1 1h1l1 1h1l1 1h1l1 1h1l1 1h1l1 1h1l1 1h1h1l1 1h1l1 1h1l1 1h1h1l1 1h1l1 1h1h1l1 1h1l1 1h1h1l1 1h1h1l1 1h1h1l1 1h1h1l1 1h1h1l1 1h1h1h1l1 1h1h1h1l1 1h1h1 l1 1h1h1h1h1l1 1h1h1h1l1 1h1h1h1h1l1 1h1h1h1h1l1 1h1h1h1h1h1h1l1 1h1h1h1h1h1h1l1 1h1h1l33 2h1h1h2h1h1h1l2 -1h1h1h1h2h1h1h1h2h1h1h1h2h1h1h1l1 -1h2h1h1h1h1h2h1l1 -1h1h1h2h1h1h1l1 -1h2h1h1h1l1 -1h2h1h1h1l1 -1h2h1h1h1l1 -1h1h1h2l1 -1h1h1h1l1 -1h2h1l1 -1h1h1 h1l2 -1h1h1l1 -1h1h1l2 -1h1h1l1 -1h1l1 -1h1h2l1 -1h1h1l1 -1h1l1 -1h2h1l1 -1h1l1 -1h1l1 -1h1h2l1 -1h1l1 -1h1l1 -1h1l1 -1h2l1 -1h1l1 -1h1l1 -1h1l1 -1h1l1 -1h2l1 -1h1l1 -1l1 -1h1l1 -1h1l1 -1l1 -1h2l1 -1h1l1 -1l1 -1h1l1 -1h1v-1h1l1 -1h1l1 -1l2 -1h1l1 -1l1 -1 h1l1 -1l1 -1l1 -1h1l1 -1l1 -1h1l1 -1l1 -1l2 -1h1l1 -1l1 -1l1 -1h1l1 -1l1 -1l1 -1l1 -1h1l1 -1l1 -1l1 -1l1 -1l1 -1h1l1 -1l1 -1l1 -1l1 -1l2 -1l1 -1l1 -1h1l1 -1l1 -1l1 -1l1 -1l1 -1l1 -1l1 -1l1 -1l1 -1l1 -1l1 -1l1 -1l1 -1l1 -1l1 -1l1 -1l1 -1l1 -1l1 -1l1 -1 l1 -1l1 -1l1 -1l1 -1l1 -1v-1h1l1 -1l1 -1l1 -1v-1l1 -1l1 -1l1 -1l1 -1l1 -1l1 -1v-1l1 -1l1 -1l1 -1l1 -1l1 -1l1 -1v-1l1 -1l1 -1v-1h1l1 -1v-1l1 -1l1 -1v-1l1 -1l1 -1l1 -1l1 -1v-1l1 -1l1 -1v-1l1 -1l1 -1l1 -1v-1l1 -1l1 -1v-1l1 -1v-1l1 -1h1v-1l1 -1v-1l1 -1v-1 l1 -1l1 -1v-1h1v-1l1 -1v-1l1 -1v-1l1 -1v-1l1 -1v-1h1v-1l1 -1v-1l1 -1v-1l1 -1v-1l1 -1v-1l1 -1v-1h1v-1l1 -1v-1l1 -1v-1l1 -1v-1v-1l1 -1v-1l1 -1l1 -1v-1v-1l1 -1v-1l1 -1v-1v-1l1 -1v-1l1 -1v-1l1 -1v-1v-1l1 -1v-1l1 -1v-1v-1l1 -1v-1v-1l1 -1v-1v-1h1v-1v-1l1 -1v-1 v-1l1 -1v-1v-1v-1l1 -1v-1v-1l1 -1v-1v-1v-1l1 -1v-1v-1l1 -1v-1v-1v-1l1 -1v-1v-1v-1l1 -1v-1v-1v-1l1 -1v-1v-1v-1v-1l1 -1v-1v-1v-1l1 -1v-1v-1v-1v-1v-1l1 -1v-1v-1v-1v-1v-1l1 -1q3 -23 3 -50v-1v-1v-1v-1v-2v-1v-1v-1v-1v-1v-2v-1v-1v-1v-1v-1v-1v-2v-1l-1 -1v-1v-1 v-1v-2v-1v-1v-1v-1v-1l-1 -1v-2v-1v-1v-1v-1v-1l-1 -1v-2v-1v-1v-1v-1l-1 -1v-1v-1v-2v-1v-1l-1 -1v-1v-1v-1l-1 -2v-1v-1v-1v-1l-1 -1v-1v-1v-2l-1 -1v-1v-1l-1 -1v-1v-1v-1l-1 -1v-2v-1l-1 -1v-1v-1l-1 -1v-1v-1l-1 -2v-1v-1l-1 -1v-1v-1l-1 -1v-1v-1l-1 -1v-2l-1 -1v-1 v-1l-1 -1v-1l-1 -1v-1v-1l-1 -1v-2l-1 -1v-1l-1 -1v-1v-1l-1 -1v-1l-1 -1v-1l-1 -1v-2l-1 -1v-1l-1 -1v-1l-1 -1v-1l-1 -1v-1l-1 -1v-1l-1 -1l-1 -2v-1l-1 -1v-1l-1 -1v-1l-1 -1l-1 -1v-1l-1 -1v-1l-1 -1l-1 -1v-1l-1 -1v-2l-1 -1l-1 -1v-1l-1 -1l-1 -1v-1l-1 -1l-1 -1v-1 l-1 -1l-1 -1l-1 -1v-1l-1 -1l-1 -1v-1l-1 -1l-1 -2l-1 -1v-1l-1 -1l-1 -1l-1 -1v-1l-1 -1l-1 -1l-1 -1l-1 -1v-1l-1 -1l-1 -1l-1 -1l-1 -1v-1l-1 -1l-1 -1l-1 -1l-1 -1l-1 -1l-1 -1v-1l-1 -1l-1 -1l-1 -1l-1 -1l-1 -2l-1 -1l-1 -1l-1 -1l-1 -1l-1 -1l-1 -1v-1l-1 -1l-1 -1 l-1 -1l-1 -1l-1 -1l-1 -1l-1 -1l-1 -1l-1 -1l-1 -1l-2 -2q-95 -91 -229 -91q-120 0 -190 100v-165l-1 -270l-209 15v43h1h2h1h1h1h1h1h1h1h1h1h1h1h1h1h1h1h1h1h1l1 -1h1h1h1l1 1h1h1h1h1h1h1h1h1h2h1h2h1h2h1h2h1h2h1h1h1h1h1h1l1 1h1h2h1h2h1h1l2 1h1h1h1h2l1 1h1h1h2l1 1 h1h1l1 1h1l2 1q19 8 32 61zM652 317v1v2v1v1v2v1v1v2v1v1v2v1v1v2v1v1v2v1v1v2v1v1v2v1l-1 1v2v1v1v1v2v1v1v2v1v1v1v2l-1 1v1v2v1v1v2v1v1v1l-1 2v1v1v1v2v1v1v2l-1 1v1v1v2v1v1l-1 1v2v1v1v1v2l-1 1v1v1v2v1l-1 1v1v1v2v1l-1 1v1v2v1l-1 1v1v1v2v1l-1 1v1v1l-1 2v1v1v1 l-1 1v2v1v1l-1 1v1v2l-1 1v1v1l-1 1v1v2l-1 1v1v1l-1 1v1v2l-1 1v1v1l-1 1v1l-1 1v1v2l-1 1v1l-1 1v1l-1 1v1v1l-1 2v1l-1 1v1l-1 1v1l-1 1v1l-1 1v1l-1 1v2l-1 1v1l-1 1v1l-1 1v1l-1 1v1l-1 1l-1 1v1l-1 1v1l-1 1v1l-1 1l-1 1v1l-2 2q-57 89 -153 89q-61 0 -121 -40h-2 l-1 -1l-1 -1l-2 -1l-1 -1l-1 -1l-2 -1l-1 -1l-1 -1h-1l-1 -1l-2 -1l-1 -1l-1 -1l-1 -1l-1 -1l-1 -1l-1 -1l-2 -1h-1l-1 -1l-1 -1l-1 -1l-1 -1l-1 -1l-1 -1l-18 -21q-18 -25 -18 -53v-283q0 -29 20 -57q61 -83 153 -83q105 0 166 88l1 1v1l1 1v1h1v1l1 1v1l1 1v1h1v1l1 1v1 l1 1v1l1 1v1h1v1v1h1v1v1l1 1l1 1v1l1 1v1v1h1v1v1l1 1v1l1 1v1l1 1v1v1h1v1v1l1 1v1v1l1 1v1l1 1v1v1l1 1v1v1l1 1v1v1l1 1v1v1l1 1v1v1l1 1v1v1v1l1 1v1v1l1 1v1v1v1l1 1v1v1l1 1v1v1v1v1l1 1v1v1v1l1 1v1v1v1v1l1 1v1v1v1l1 1v1v1v1v1v1v1h1v1v1v1v1v1l1 1v1v1v1v1v1l1 1 v1v1v1v1v1v1l1 1v1v1v1v1v1v1v1v1h1v1v1v1v1v1v1v1v1v1l1 1v1v1v1v1v1v1v1v1v1v1v1l1 1v1v1v1v1v1v1v1v1v1v1v1v1v1v1v1v1l1 1v1v1v1v1v1v1v1v1v1v1v1v1v1v1v1v1v1v1v1v1v1v1v9z" />
<glyph unicode="?" horiz-adv-x="937" d="M106 696l24 -7l11 -4l11 -5l10 -5l9 -7l9 -7l8 -7l7 -8l7 -9l2 -13l-7 -10l-13 -2l-10 8l-3 7l-4 7l-5 8l-7 7l-6 7l-7 7l-27 22l-11 6zM81 446l17 -12l15 -13l8 -8l26 35l28 41l84 139l4 -3l-28 -66l-28 -57l-37 -70l-23 -37l-6 -9l5 -9l7 -16l6 -17l4 -18l1 -18l-1 -18 l-6 -11l-12 -4l-11 6l-3 13l2 15v15l-1 14l-2 15l-4 14l-6 15l-8 14l-10 15l-11 15l-13 15zM807 630l-11 -27l-9 -20l-10 -20l-11 -19l-12 -19l-26 -36l-16 -17l-16 -16l-4 4l31 60l18 39l9 20l13 39l7 20l1 6h-368l-5 -12l-16 -36l-20 -35l-21 -34l-24 -34l-26 -33l-28 -31 l-32 -30l-4 5l27 34l24 35l22 34l20 34l18 35l16 35l13 35l12 35l9 36l8 42l38 -15l9 -9l-13 -5l-6 -24l-12 -38l-3 -10h365l20 18l36 -32l-17 -14h-6zM832 298l-61 18l-53 22l-47 24l-40 28l-33 31l-26 35l-19 37l-13 40l-3 27l-8 -32l-19 -43l-26 -38l-33 -36l-40 -31 l-47 -28l-53 -23l-61 -19l-67 -14l-3 3l62 18l55 21l48 24l41 26l35 31l28 34l22 37l15 41l9 45l2 48v5l48 -5l12 -4l-12 -4l7 -39l11 -42l18 -39l23 -35l28 -31l34 -29l39 -25l45 -21l50 -19l56 -15l22 -5zM722 18h3l3 1h4l1 1l1 1l1 2v3v257h-419v-278l-40 -11v307l40 -11 h419l20 9l38 -16l-17 -8v-249l-1 -5l-1 -5l-3 -4l-5 -4l-5 -4l-7 -3l-7 -2l-8 -2l-9 -1h-8v11l-68 6v5h68zM784 -188l-18 39l-23 35l-27 32l-34 28l-40 25l-44 21l-51 19l-56 15l-22 6l46 18l61 -18l53 -22l48 -25l39 -28l33 -31l27 -35l19 -37zM512 133l-8 -32l-19 -43 l-26 -38l-33 -36l-40 -31l-47 -27l-53 -24l-61 -19l-67 -14l-3 3l62 18l55 21l48 24l41 26l35 31l28 34l22 37l15 41l9 45l2 48v5l48 -5l12 -4l-12 -3z" />
<glyph unicode="@" horiz-adv-x="907" d="M785 399q7 27 28 61q12 20 33 -33q4 -8 -11 -23l-80 -69v-350l-39 -27l2 351l-58 -50l-69 -71l-20 -19l-1 -17l-11 6l-25 42l92 71l84 67l6 4v399l39 -9l11 -9l-11 -9v-344zM532 705l18 -7l16 -9l15 -9l15 -11l13 -11l12 -12l12 -12l11 -13l19 -29v-14l-11 -12h-16 l-12 10l-6 13l-6 13l-8 13l-18 25l-9 12l-35 36l-14 11zM528 553l18 -7l17 -9l15 -9l14 -11l14 -11l12 -11l12 -13l11 -13l19 -29v-14l-11 -12h-16l-12 10l-6 13l-7 13l-7 13l-18 25l-10 12l-35 36l-13 11zM406 601l39 101l28 -34l4 -16h-11l-39 -78l-24 -43l-26 -42 l-28 -37l-4 7zM508 40l-24 28l-24 29l-23 31l-21 35l-20 36l-19 39l-17 41l-16 43l-15 46l-11 43v-438l-35 -29v398l-14 -39l-20 -50l-22 -46l-23 -43l-25 -39l-27 -35l-27 -32l-30 -28l-31 -23l-3 7l28 32l26 32l26 35l23 38l22 40l20 43l19 45l17 49l17 51l8 34h-190v18 h206v341l35 -9l9 -10l-9 -9v-313h151l29 48l35 -48v-18h-208l33 -76l19 -38l19 -36l20 -34l21 -31l21 -30l22 -26l24 -25l37 -35zM136 687l14 -15l24 -33l11 -17l19 -35l17 -36l13 -38l1 -21l-9 -17h-13l-10 14l-4 18l-11 37l-6 18l-22 58l-27 61z" />
<glyph unicode="A" d="M144 90l-3 -3zM1301 -54l-43 -26q-16 -6 -70 -10q-70 -7 -182 34q-115 42 -158 51q-15 3 -31 5h503v51h-1320v-51h723q139 -53 274 -119q35 -17 80 -28q81 -11 106 -2q12 4 23 5q56 32 86 73q8 11 9 17zM1173 801q-25 -54 -110 -108q-81 -52 -116 -42q-5 1 -8 3 q-165 19 -235 -8q-31 -12 -67 -42l-74 -76l-35 -39q21 20 84 52q94 47 168 53q38 3 130 -19q45 -10 62 -8q149 19 201 234zM62 57q-19 -2 -38 -1q14 -9 38 1zM62 57q53 22 153 135l21 24l16 23q200 286 339 412q183 166 315 126q-79 -4 -164 -73q-35 -29 -105 -100 q-22 -18 -46 -44q19 20 -28 -32l-52 -55l-44 -45l-6 -9q-119 -159 -140 -185q-114 -138 -215 -168q-22 -6 -44 -9zM528 489l-6 -6q2 3 6 6z" />
<glyph unicode="B" horiz-adv-x="2079" d="M1048 52q-79 0 -186 63l-110 65q-94 50 -176 48q-67 3 -114 -30l-67 -50q-110 -73 -343 -96q264 72 380 200q105 66 227 40q34 -8 37 -8q9 -4 89 -74q159 -138 263 -158zM1047 -3q264 -134 380 -375q101 -119 214 -79l50 19q9 9 83 130q131 214 219 278q26 19 50 27 q-79 0 -186 -63l-110 -65q-94 -50 -176 -48q-67 -3 -114 30l-67 50q-110 73 -343 96zM1047 -3q264 -72 380 -200q105 -66 227 -40q34 8 37 8q9 5 89 74q108 94 190 133q-40 -27 -84 -81l-130 -175q-88 -109 -163 -110q-6 0 -13 1q-65 -2 -112 53q-6 8 -60 85 q-75 107 -171 168q-81 51 -190 84zM1055 51h-1055v-51h48q264 -72 380 -200q105 -66 227 -40q34 8 37 8q9 4 89 74q159 138 263 158q-79 0 -186 -63l-110 -65q-94 -50 -176 -48q-67 -3 -114 30l-67 50q-110 73 -343 96h996h1076v51h-79l6 -2q-10 0 -20 2h-9q-69 9 -157 61 l-110 65q-94 50 -176 48q-67 3 -114 -30l-67 -50q-105 -70 -324 -94h-12q259 72 373 198q105 66 227 40q34 -8 37 -8q9 -5 89 -74q107 -93 190 -133q-40 27 -84 81q-10 12 -94 131q-84 116 -144 149q-33 19 -67 20q-63 5 -111 -53q-9 -11 -65 -94q-79 -117 -168 -176 q-78 -51 -183 -81h-3zM1055 51q261 134 376 373q101 119 214 79l50 -19q9 -9 83 -130q130 -213 219 -278q23 -17 44 -25h-3q4 -1 9 -2q-14 0 -29 2h-948q-9 -1 -19 -2z" />
<glyph unicode="C" horiz-adv-x="1000" d="M0 0v51h1000v-51h-1000z" />
<glyph unicode="D" horiz-adv-x="1000" d="M0 0v51h1000v-51h-1000z" />
<glyph unicode="E" d="M1301 -54l-43 -26q-16 -6 -70 -10q-47 -5 -165 83l-9 7h306v51h-374l-101 76q-203 144 -333 143q-109 -1 -188 -94q138 126 411 -63q31 -22 82 -62h-817v-51h881l72 -60q97 -81 124 -87q81 -11 106 -2q12 4 23 5q56 32 86 73q8 11 9 17zM48 54q188 73 272 206 q22 35 67 138q42 95 86 135q26 22 59 39q177 45 293 37q176 -12 430 -146q11 -5 21 -11q-235 74 -337 89q-161 23 -342 -28q-3 0 -5 -1q-83 -22 -133 -106q-3 -5 -54 -107q-53 -106 -123 -159q-87 -66 -234 -86z" />
<glyph unicode="F" horiz-adv-x="1000" d="M0 0v51h1000v-51h-1000z" />
<glyph unicode="G" horiz-adv-x="1000" d="M0 0v51h1000v-51h-1000z" />
<glyph unicode="H" horiz-adv-x="1000" d="M0 0v51h1000v-51h-1000z" />
<glyph unicode="I" horiz-adv-x="1268" d="M1250 -72l-43 -26q-16 -6 -70 -10q-47 -5 -165 83l-33 25h339v51h-407l-77 58q-203 144 -333 143q-109 -1 -188 -94q138 126 411 -63q24 -16 59 -44h-690q130 19 218 149q84 126 92 294q7 158 -58 244q-33 44 -80 57q145 -21 193 -151q22 -61 19 -131q18 65 57 133 q88 151 214 158q168 10 366 -243q-241 163 -357 176q-94 10 -163 -70q-42 -50 -122 -203q-7 -45 -24 -93q-54 -152 -173 -243q-85 -65 -182 -77h-2h-51v-51h807l95 -78q99 -82 124 -87q81 -11 106 -2q12 4 23 5q56 32 86 73q8 11 9 17zM174 435q-132 23 -161 113 q-23 74 30 150t142 93q19 4 37 4q-82 -1 -124 -81q-39 -76 -17 -163q22 -85 93 -116zM223 795h-1h1zM223 795h1h-1z" />
<glyph unicode="J" horiz-adv-x="1000" d="M0 0v51h1000v-51h-1000z" />
<glyph unicode="K" d="M227 110q106 49 187 134q54 57 145 189q56 81 93 127l-98 87q4 -26 2 -60q-9 -132 -99 -268q-93 -140 -230 -209zM0 0h1320v51h-1320v-51zM399 784q0 -1 -5 0q-20 2 -22 8q9 -1 27 -8zM399 784v1l-5 4l42 43l254 -224l24 36l-244 217l42 43l235 -207l53 99 q-12 -74 -27 -122l207 -182l-44 -44l-187 166q-6 -13 -9 -22q-2 -3 -11 -18l175 -154l-44 -44l-162 143l-33 -59q-100 -175 -208 -265q-167 -138 -409 -141q247 104 362 322q70 133 68 250q-1 27 -6 46z" />
<glyph unicode="L" d="M1301 -54l-43 -26q-16 -6 -70 -10q-70 -7 -182 34q-115 42 -158 51q-15 3 -31 5h503v51h-1320v-51h723q139 -53 274 -119q35 -17 80 -28q81 -11 106 -2q12 4 23 5q56 32 86 73q8 11 9 17zM1017 543q0 126 -63 168q-32 22 -123 39q-128 -13 -201 -120q-27 -40 -71 -142 q-16 -48 -43 -96l-3 -8l74 112q89 127 154 161q40 21 43 20q8 -1 23 1q74 -2 99 -13q39 -16 90 -90zM48 54q232 97 368 308q84 130 97 239q6 46 -6 62q-136 94 -229 -1q-29 -29 -82 -116l-7 -12q78 227 222 228q57 1 123 -36q59 -33 46 -144q-5 -47 -21 -94l-11 -26l-32 -70 q-20 -37 -47 -75q-126 -173 -314 -238q-53 -18 -107 -25z" />
<glyph unicode="M" horiz-adv-x="752" d="M706 111l-43 26q-16 6 -70 10q-70 7 -182 -34q-115 -42 -158 -51q-65 -13 -125 -5q139 53 274 119q35 17 80 28q81 11 106 2q12 -4 23 -5q56 -32 86 -73q8 -11 9 -17zM0 0l776 1v51l-776 -1v-51z" />
<glyph unicode="N" horiz-adv-x="752" d="M706 -54l-43 -26q-16 -6 -70 -10q-70 -7 -182 34q-115 42 -158 51q-17 3 -33 5l556 1v51l-776 -1v-51q320 -79 402 -119q35 -17 80 -28q81 -11 106 -2q12 4 23 5q56 32 86 73q8 11 9 17z" />
<glyph unicode="O" horiz-adv-x="1840" d="M664 -76q202 -68 306 76h202l16 36q0 -19 -2 -36h670v51h-38l6 -3q-17 1 -34 3h-789l6 13l5 11l-4 -4l5 7q30 73 46 192q1 4 1 6q9 47 47 124q18 37 21 56l-68 -63q-29 -32 -72 -113q-29 -145 -78 -229h-910v-51h60q51 0 103 -2l-20 2h731q-9 -10 -18 -18 q-77 -70 -192 -58zM1056 -240q-119 -30 -211 -3q-47 14 -101 43q-58 53 -290 126q-180 56 -291 72q202 -10 419 -56q156 -33 214 -66q249 -156 376 123v1h14q-14 -191 -130 -240zM48 54q254 24 438 151q33 23 50 39q9 118 -54 116q-42 -2 -87 -49q-26 -26 -27 -43 q2 73 57 118q24 18 46 23q72 44 190 60q162 23 254 -29q79 -45 73 -136q-7 -41 -28 -64q-61 -67 -296 -136q172 84 251 177l9 11q8 104 -133 133q-115 24 -265 -6q-20 -4 -35 -8q16 0 31 -7q65 -29 59 -158q0 -7 -1 -14q-119 -159 -532 -178zM1013 78q119 173 307 204 q16 2 112 10q77 -6 138 -55l102 -91q65 -53 146 -95h-28q-113 14 -205 81l-78 59q-41 26 -79 25q-210 0 -358 -94q-39 -25 -58 -47z" />
<glyph unicode="P" horiz-adv-x="1199" d="M51 51h-51v-51h821q0 12 1 24q1 -12 4 -24h386v51h-386q-1 -13 -4 -27l-8 27h-761q130 19 218 149q84 126 92 294q7 158 -58 244q-33 44 -80 57q145 -21 193 -151q20 -56 20 -119q26 60 71 119q133 172 315 145q76 -11 154 -57l-143 -6q-139 -14 -259 -104 q-63 -49 -131 -123q146 -29 254 -128q138 -126 129 -296q0 -12 -2 -24h-12q-45 137 -119 228q-86 109 -253 217l-7 -7q-5 -56 -27 -118q-54 -152 -173 -243q-85 -65 -182 -77h-2zM1199 -267q-125 -27 -240 51q-95 63 -127 157q-10 30 -11 59h5q25 -82 180 -168zM174 435 q-132 23 -161 113q-23 74 30 150t142 93q19 4 37 4q-82 -1 -124 -81q-39 -76 -17 -163q22 -85 93 -116zM223 795h-1h1zM223 795h1h-1z" />
<glyph unicode="Q" horiz-adv-x="1000" d="M0 0v51h1000v-51h-1000z" />
<glyph unicode="R" d="M1301 -54l-43 -26q-16 -6 -70 -10q-47 -5 -165 83l-9 7h306v51h-374l-101 76q-203 144 -333 143q-109 -1 -188 -94q138 126 411 -63q31 -22 82 -62h-817v-51h881l72 -60q97 -81 124 -87q81 -11 106 -2q12 4 23 5q56 32 86 73q8 11 9 17zM48 54q188 73 272 206 q22 35 67 138q42 95 86 135q26 22 59 39q177 45 293 37q176 -12 430 -146q11 -5 21 -11q-235 74 -337 89q-161 23 -342 -28q-3 0 -5 -1q-83 -22 -133 -106q-3 -5 -54 -107q-53 -106 -123 -159q-87 -66 -234 -86z" />
<glyph unicode="S" horiz-adv-x="2079" d="M2047 -4q-84 -77 -192 -275l-102 -188q-80 -139 -148 -173q-151 -74 -324 -87q-18 -39 -43 -76q-87 -127 -258 -207q60 40 124 134q48 71 78 146q-79 1 -162 14l-35 6q-112 13 -216 71l-34 19q-66 56 -210 225q-142 166 -215 235q-135 126 -258 153q23 -3 46 -7 q92 -29 164 -66q52 -28 106 -71q130 -103 352 -344q118 -110 245 -125q112 -25 245 -20q22 93 16 191q-15 223 -182 435q53 1 126 -88q96 -118 134 -279q32 -135 8 -250q241 30 353 150q26 34 145 218q108 167 171 221q35 29 66 38zM1048 52q-79 0 -186 63l-110 65 q-94 50 -176 48q-67 3 -114 -30l-67 -50q-110 -73 -343 -96q249 68 367 186l13 14l8 5q114 102 280 283q118 110 245 125q144 32 323 14h2q22 -132 -11 -266q-43 -173 -162 -304q-35 -38 -63 -58h-1054v-51h48l50 -14q81 -18 164 -66q104 -52 166 -120q105 -66 227 -40 q34 8 37 8q9 4 89 74q159 138 263 158q-79 0 -186 -63l-110 -65q-94 -50 -176 -48q-67 -3 -114 30l-67 50q-110 73 -343 96h996h1076v51h-75q-83 76 -190 273l-102 188q-80 139 -148 173q-121 59 -256 79q-12 31 -26 61q-62 130 -141 191q-38 30 -67 29q106 -135 151 -272 q-118 8 -246 -12l-35 -6q-112 -13 -216 -71l-34 -19q-66 -56 -210 -225q-142 -166 -215 -235q-135 -126 -258 -153q153 17 316 144l51 42l21 19q102 60 219 35q34 -8 37 -8q9 -4 89 -74q159 -138 263 -158zM1047 -3q264 -134 380 -375q101 -119 214 -79l50 19q9 9 83 130 q131 214 219 278q26 19 50 27q-79 0 -186 -63l-110 -65q-94 -50 -176 -48q-67 -3 -114 30l-67 50q-110 73 -343 96zM1047 -3q264 -72 380 -200q105 -66 227 -40q34 8 37 8q9 5 89 74q108 94 190 133q-40 -27 -84 -81l-130 -175q-88 -109 -163 -110q-6 0 -13 1 q-65 -2 -112 53q-6 8 -60 85q-75 107 -171 168q-81 51 -190 84zM2041 51h-3q4 -1 9 -2q-10 0 -20 2h-9q-69 9 -157 61l-110 65q-94 50 -176 48q-67 3 -114 -30l-67 -50q-105 -70 -324 -94h-12q259 72 373 198q105 66 227 40q34 -8 37 -8q9 -5 89 -74q107 -93 190 -133 q-40 27 -84 81q-10 12 -94 131q-84 116 -144 149q-33 19 -67 20q-63 5 -111 -53q-9 -11 -65 -94q-79 -117 -168 -176q-78 -51 -183 -81h-3q118 56 195 132q109 110 135 262q18 108 -6 221q190 -37 286 -140q11 -14 30 -42q7 -7 38 -58l78 -119q88 -135 140 -190 q24 -25 46 -41q23 -17 44 -25zM2041 51l6 -2q-14 0 -29 2h-948q-9 -1 -19 -2l4 2q111 57 195 132q115 103 181 241q101 119 214 79l50 -19l38 -58l45 -72q98 -161 173 -237q17 -19 32 -31q30 -25 58 -35z" />
<glyph unicode="T" d="M1172 468q-24 -51 -166 -90q-117 -32 -175 -23q-11 1 -16 5q-165 19 -235 -8q-30 -11 -63 -39q-46 -50 -87 -89l-24 -26q22 20 85 53q105 55 181 61q38 3 136 -19q49 -11 64 -9q141 18 229 84q57 44 71 100zM1189 662q-28 -60 -104 -126q-76 -65 -105 -48q-175 20 -245 4 q-60 -14 -122 -71l-51 -56q22 15 66 37q95 47 168 53q38 3 130 -19q45 -10 62 -8q149 19 201 234zM1192 800q-36 -76 -49 -97q-89 -138 -283 -135q-90 9 -192 -89q-17 -15 -55 -58l-14 -13q-24 -23 -61 -64q7 9 24 21l-27 -31l-18 -21q-24 -19 -50 -47q21 22 -37 -42 q-59 -56 -109 -88q-108 -72 -230 -85h-33q147 26 330 222q36 39 168 195q99 117 141 138q13 6 23 6q39 1 217 29l23 3q74 10 122 53l86 83zM0 0h1320v51h-1229q-27 -3 -55 -3q11 1 22 3h-58v-51zM406 198l-8 -9q3 4 8 9z" />
<glyph unicode="U" horiz-adv-x="1207" d="M434 480l17 10l-15 10q0 -10 -2 -20zM1199 54q-256 -12 -405 94q-61 44 -147 146q-90 106 -132 145q-25 22 -50 41q-15 -5 -32 -9q-7 -48 -25 -100q-54 -152 -173 -243q-85 -65 -182 -77q130 19 218 149q84 126 92 294q7 158 -58 244q-33 44 -80 57q145 -21 193 -151 q24 -66 19 -143q10 -2 21 -6q85 57 105 72q195 148 91 228q67 1 89 -48q25 -54 -26 -122q-70 -91 -233 -140q60 -27 135 -93l153 -140q165 -143 326 -182q49 -12 101 -16zM174 435q-132 23 -161 113q-23 74 30 150t142 93q19 4 37 4q-82 -1 -124 -81q-39 -76 -17 -163 q22 -85 93 -116zM0 0h1212v51h-1159h-2h-51v-51zM223 795h-1h1zM223 795h1h-1z" />
<glyph unicode="V" horiz-adv-x="2079" d="M1048 52q-79 0 -186 63l-110 65q-94 50 -176 48q-67 3 -114 -30l-67 -50q-110 -73 -343 -96q264 72 380 200q105 66 227 40q34 -8 37 -8q9 -4 89 -74q159 -138 263 -158zM1047 -3q264 -134 380 -375q101 -119 214 -79l50 19q9 9 83 130q131 214 219 278q26 19 50 27 q-79 0 -186 -63l-110 -65q-94 -50 -176 -48q-67 -3 -114 30l-67 50q-110 73 -343 96zM1047 -3q264 -72 380 -200q105 -66 227 -40q34 8 37 8q9 5 89 74q108 94 190 133q-40 -27 -84 -81l-130 -175q-88 -109 -163 -110q-6 0 -13 1q-65 -2 -112 53q-6 8 -60 85 q-75 107 -171 168q-81 51 -190 84zM1055 51h-1055v-51h48q264 -72 380 -200q105 -66 227 -40q34 8 37 8q9 4 89 74q159 138 263 158q-79 0 -186 -63l-110 -65q-94 -50 -176 -48q-67 -3 -114 30l-67 50q-110 73 -343 96h996h1076v51h-79l6 -2q-10 0 -20 2h-9q-69 9 -157 61 l-110 65q-94 50 -176 48q-67 3 -114 -30l-67 -50q-105 -70 -324 -94h-12q259 72 373 198q105 66 227 40q34 -8 37 -8q9 -5 89 -74q107 -93 190 -133q-40 27 -84 81q-10 12 -94 131q-84 116 -144 149q-33 19 -67 20q-63 5 -111 -53q-9 -11 -65 -94q-79 -117 -168 -176 q-78 -51 -183 -81h-3zM1055 51q261 134 376 373q101 119 214 79l50 -19q9 -9 83 -130q130 -213 219 -278q23 -17 44 -25h-3q4 -1 9 -2q-14 0 -29 2h-948q-9 -1 -19 -2z" />
<glyph unicode="W" horiz-adv-x="1000" d="M0 0v51h1000v-51h-1000z" />
<glyph unicode="X" horiz-adv-x="1000" d="M0 0v51h1000v-51h-1000z" />
<glyph unicode="Y" horiz-adv-x="1268" d="M1250 -72l-43 -26q-16 -6 -70 -10q-47 -5 -165 83l-33 25h339v51h-407l-77 58q-203 144 -333 143q-109 -1 -188 -94q138 126 411 -63q24 -16 59 -44h-690q130 19 218 149q84 126 92 294q7 158 -58 244q-33 44 -80 57q145 -21 193 -151q22 -61 19 -131q18 65 57 133 q88 151 214 158q168 10 366 -243q-241 163 -357 176q-94 10 -163 -70q-42 -50 -122 -203q-7 -45 -24 -93q-54 -152 -173 -243q-85 -65 -182 -77h-2h-51v-51h807l95 -78q99 -82 124 -87q81 -11 106 -2q12 4 23 5q56 32 86 73q8 11 9 17zM174 435q-132 23 -161 113 q-23 74 30 150t142 93q19 4 37 4q-82 -1 -124 -81q-39 -76 -17 -163q22 -85 93 -116zM223 795h-1h1zM223 795h1h-1z" />
<glyph unicode="Z" d="M1301 -54l-43 -26q-16 -6 -70 -10q-47 -5 -160 85l-6 5h298v51h-362l-105 84q-190 146 -316 147q-66 1 -122 -34l-3 -2l-2 -1l-15 -11q-23 -19 -45 -44q135 124 389 -62q34 -25 94 -77h-833v-51h891l58 -51q102 -89 128 -96q81 -11 106 -2q12 4 23 5q56 32 86 73 q8 11 9 17zM48 54q255 81 249 208q-2 69 -74 132l-7 6q-103 69 -204 104q-11 4 -12 8l85 -14q70 -16 175 -58q80 -67 100 -147q29 -121 -116 -188q-76 -35 -196 -51zM1084 639v1v-1zM1084 639q-34 -169 -132 -267q-77 -76 -184 -89q-241 9 -292 -3q-26 -7 -61 -32l-5 -3 l-15 -11q-19 -13 -35 -23l35 49q73 90 149 72q97 2 262 11q10 1 18 1q100 46 208 205q47 70 52 90z" />
<glyph unicode="[" horiz-adv-x="1000" d="M0 0v51h1000v-51h-1000z" />
<glyph unicode="\" horiz-adv-x="979" d="M723 360q0 -49 42 -74q21 -13 45 -13q49 0 74 42q13 21 13 45q0 49 -42 74q-21 13 -45 13q-49 0 -74 -42q-13 -21 -13 -45zM78 357q0 -49 42 -74q21 -13 45 -13q49 0 74 42q13 21 13 45q0 49 -42 74q-21 13 -45 13q-49 0 -74 -42q-13 -21 -13 -45zM417 -300q0 -49 42 -74 q21 -13 45 -13q49 0 74 42q13 21 13 45q0 49 -42 74q-21 13 -45 13q-49 0 -74 -42q-13 -21 -13 -45zM0 0v51h1000v-51h-1000z" />
<glyph unicode="]" horiz-adv-x="1000" d="M0 0v51h1000v-51h-1000z" />
<glyph unicode="^" horiz-adv-x="1000" d="M0 0v51h1000v-51h-1000z" />
<glyph unicode="_" horiz-adv-x="1000" d="M0 0v51h1000v-51h-1000z" />
<glyph unicode="`" horiz-adv-x="813" d="M512 404q0 47 -31.5 79.5t-75.5 32.5q-45 0 -76.5 -32.5t-31.5 -79.5q0 -21 7 -40l110 53l-52 -115q21 -10 43 -10q44 0 75.5 32.5t31.5 79.5zM547 404q0 -62 -42 -105t-100 -43q-31 0 -59 13l-15 -35q-163 29 -238 170q75 140 237 169q-48 -22 -76.5 -68t-28.5 -101 q0 -34 11 -66l36 12q-10 27 -10 54q0 62 42 105t101 43q58 0 100 -43t42 -105zM716 404q-76 -141 -239 -170q49 22 78 68t29 102q0 55 -28.5 101t-76.5 68q162 -29 237 -169zM789 404q-58 111 -161 170q-99 56 -223 56t-223 -56q-103 -59 -162 -170q59 -112 162 -171 q99 -56 223 -56t223 56q103 59 161 171z" />
<glyph unicode="a" d="M144 90l-3 -3zM1301 -54l-43 -26q-16 -6 -70 -10q-70 -7 -182 34q-115 42 -158 51q-15 3 -31 5h503v51h-1320v-51h723q139 -53 274 -119q35 -17 80 -28q81 -11 106 -2q12 4 23 5q56 32 86 73q8 11 9 17zM1173 801q-25 -54 -110 -108q-81 -52 -116 -42q-5 1 -8 3 q-165 19 -235 -8q-31 -12 -67 -42l-74 -76l-35 -39q21 20 84 52q94 47 168 53q38 3 130 -19q45 -10 62 -8q149 19 201 234zM62 57q-19 -2 -38 -1q14 -9 38 1zM62 57q53 22 153 135l21 24l16 23q200 286 339 412q183 166 315 126q-79 -4 -164 -73q-35 -29 -105 -100 q-22 -18 -46 -44q19 20 -28 -32l-52 -55l-44 -45l-6 -9q-119 -159 -140 -185q-114 -138 -215 -168q-22 -6 -44 -9zM528 489l-6 -6q2 3 6 6z" />
<glyph unicode="b" horiz-adv-x="2079" d="M1048 52q-79 0 -186 63l-110 65q-94 50 -176 48q-67 3 -114 -30l-67 -50q-110 -73 -343 -96q264 72 380 200q105 66 227 40q34 -8 37 -8q9 -4 89 -74q159 -138 263 -158zM1047 -3q264 -134 380 -375q101 -119 214 -79l50 19q9 9 83 130q131 214 219 278q26 19 50 27 q-79 0 -186 -63l-110 -65q-94 -50 -176 -48q-67 -3 -114 30l-67 50q-110 73 -343 96zM1047 -3q264 -72 380 -200q105 -66 227 -40q34 8 37 8q9 5 89 74q108 94 190 133q-40 -27 -84 -81l-130 -175q-88 -109 -163 -110q-6 0 -13 1q-65 -2 -112 53q-6 8 -60 85 q-75 107 -171 168q-81 51 -190 84zM1055 51h-1055v-51h48q264 -72 380 -200q105 -66 227 -40q34 8 37 8q9 4 89 74q159 138 263 158q-79 0 -186 -63l-110 -65q-94 -50 -176 -48q-67 -3 -114 30l-67 50q-110 73 -343 96h996h1076v51h-79l6 -2q-10 0 -20 2h-9q-69 9 -157 61 l-110 65q-94 50 -176 48q-67 3 -114 -30l-67 -50q-105 -70 -324 -94h-12q259 72 373 198q105 66 227 40q34 -8 37 -8q9 -5 89 -74q107 -93 190 -133q-40 27 -84 81q-10 12 -94 131q-84 116 -144 149q-33 19 -67 20q-63 5 -111 -53q-9 -11 -65 -94q-79 -117 -168 -176 q-78 -51 -183 -81h-3zM1055 51q261 134 376 373q101 119 214 79l50 -19q9 -9 83 -130q130 -213 219 -278q23 -17 44 -25h-3q4 -1 9 -2q-14 0 -29 2h-948q-9 -1 -19 -2z" />
<glyph unicode="c" horiz-adv-x="1000" d="M0 0v51h1000v-51h-1000z" />
<glyph unicode="d" horiz-adv-x="1000" d="M0 0v51h1000v-51h-1000z" />
<glyph unicode="e" d="M1301 -54l-43 -26q-16 -6 -70 -10q-47 -5 -165 83l-9 7h306v51h-374l-101 76q-203 144 -333 143q-109 -1 -188 -94q138 126 411 -63q31 -22 82 -62h-817v-51h881l72 -60q97 -81 124 -87q81 -11 106 -2q12 4 23 5q56 32 86 73q8 11 9 17zM48 54q188 73 272 206 q22 35 67 138q42 95 86 135q26 22 59 39q177 45 293 37q176 -12 430 -146q11 -5 21 -11q-235 74 -337 89q-161 23 -342 -28q-3 0 -5 -1q-83 -22 -133 -106q-3 -5 -54 -107q-53 -106 -123 -159q-87 -66 -234 -86z" />
<glyph unicode="f" d="M418 194l-18 -18q3 5 11 12q-80 -67 -159 -99q-73 -30 -154 -38h-39q185 31 424 293l158 185q58 67 79 83q79 57 196 78q9 1 16 2q111 14 185 -16q37 -15 87 -48q-176 27 -243 18q-46 -5 -125 -34q-80 -39 -183 -159l-129 -154l-17 -16l-88 -88q22 18 70 47 q106 64 183 70q38 3 136 -19q49 -11 64 -9q234 17 321 84q57 44 71 100q-29 -61 -166 -90q-156 -33 -267 -23q-11 1 -16 5q-151 17 -210 -5q-35 -13 -81 -56l-2 -2q-52 -58 -103 -102l-3 -3zM0 0h1320v51h-1222q-31 -3 -62 -3q11 1 23 3h-59v-51z" />
<glyph unicode="g" horiz-adv-x="1000" d="M0 0v51h1000v-51h-1000z" />
<glyph unicode="h" horiz-adv-x="1000" d="M0 0v51h1000v-51h-1000z" />
<glyph unicode="i" horiz-adv-x="1268" d="M1250 -72l-43 -26q-16 -6 -70 -10q-47 -5 -165 83l-33 25h339v51h-407l-77 58q-203 144 -333 143q-109 -1 -188 -94q138 126 411 -63q24 -16 59 -44h-690q130 19 218 149q84 126 92 294q7 158 -58 244q-33 44 -80 57q145 -21 193 -151q22 -61 19 -131q18 65 57 133 q88 151 214 158q168 10 366 -243q-241 163 -357 176q-94 10 -163 -70q-42 -50 -122 -203q-7 -45 -24 -93q-54 -152 -173 -243q-85 -65 -182 -77h-2h-51v-51h807l95 -78q99 -82 124 -87q81 -11 106 -2q12 4 23 5q56 32 86 73q8 11 9 17zM174 435q-132 23 -161 113 q-23 74 30 150t142 93q19 4 37 4q-82 -1 -124 -81q-39 -76 -17 -163q22 -85 93 -116zM223 795h-1h1zM223 795h1h-1z" />
<glyph unicode="j" horiz-adv-x="1000" d="M0 0v51h1000v-51h-1000z" />
<glyph unicode="k" d="M227 110q106 49 187 134q54 57 145 189q56 81 93 127l-98 87q4 -26 2 -60q-9 -132 -99 -268q-93 -140 -230 -209zM0 0h1320v51h-1320v-51zM399 784q0 -1 -5 0q-20 2 -22 8q9 -1 27 -8zM399 784v1l-5 4l42 43l254 -224l24 36l-244 217l42 43l235 -207l53 99 q-12 -74 -27 -122l207 -182l-44 -44l-187 166q-6 -13 -9 -22q-2 -3 -11 -18l175 -154l-44 -44l-162 143l-33 -59q-100 -175 -208 -265q-167 -138 -409 -141q247 104 362 322q70 133 68 250q-1 27 -6 46z" />
<glyph unicode="l" d="M1301 -54l-43 -26q-16 -6 -70 -10q-70 -7 -182 34q-115 42 -158 51q-15 3 -31 5h503v51h-1320v-51h723q139 -53 274 -119q35 -17 80 -28q81 -11 106 -2q12 4 23 5q56 32 86 73q8 11 9 17zM1017 543q0 126 -63 168q-32 22 -123 39q-128 -13 -201 -120q-27 -40 -71 -142 q-16 -48 -43 -96l-3 -8l74 112q89 127 154 161q40 21 43 20q8 -1 23 1q74 -2 99 -13q39 -16 90 -90zM48 54q232 97 368 308q84 130 97 239q6 46 -6 62q-136 94 -229 -1q-29 -29 -82 -116l-7 -12q78 227 222 228q57 1 123 -36q59 -33 46 -144q-5 -47 -21 -94l-11 -26l-32 -70 q-20 -37 -47 -75q-126 -173 -314 -238q-53 -18 -107 -25z" />
<glyph unicode="m" horiz-adv-x="752" d="M706 111l-43 26q-16 6 -70 10q-70 7 -182 -34q-115 -42 -158 -51q-65 -13 -125 -5q139 53 274 119q35 17 80 28q81 11 106 2q12 -4 23 -5q56 -32 86 -73q8 -11 9 -17zM0 0l776 1v51l-776 -1v-51z" />
<glyph unicode="n" horiz-adv-x="752" d="M706 -54l-43 -26q-16 -6 -70 -10q-70 -7 -182 34q-115 42 -158 51q-17 3 -33 5l556 1v51l-776 -1v-51q320 -79 402 -119q35 -17 80 -28q81 -11 106 -2q12 4 23 5q56 32 86 73q8 11 9 17z" />
<glyph unicode="o" horiz-adv-x="1840" d="M664 -76q202 -68 306 76h202l16 36q0 -19 -2 -36h670v51h-38l6 -3q-17 1 -34 3h-789l6 13l5 11l-4 -4l5 7q30 73 46 192q1 4 1 6q9 47 47 124q18 37 21 56l-68 -63q-29 -32 -72 -113q-29 -145 -78 -229h-910v-51h60q51 0 103 -2l-20 2h731q-9 -10 -18 -18 q-77 -70 -192 -58zM1056 -240q-119 -30 -211 -3q-47 14 -101 43q-58 53 -290 126q-180 56 -291 72q202 -10 419 -56q156 -33 214 -66q249 -156 376 123v1h14q-14 -191 -130 -240zM48 54q254 24 438 151q33 23 50 39q9 118 -54 116q-42 -2 -87 -49q-26 -26 -27 -43 q2 73 57 118q24 18 46 23q72 44 190 60q162 23 254 -29q79 -45 73 -136q-7 -41 -28 -64q-61 -67 -296 -136q172 84 251 177l9 11q8 104 -133 133q-115 24 -265 -6q-20 -4 -35 -8q16 0 31 -7q65 -29 59 -158q0 -7 -1 -14q-119 -159 -532 -178zM1013 78q119 173 307 204 q16 2 112 10q77 -6 138 -55l102 -91q65 -53 146 -95h-28q-113 14 -205 81l-78 59q-41 26 -79 25q-210 0 -358 -94q-39 -25 -58 -47z" />
<glyph unicode="p" horiz-adv-x="1199" d="M51 51h-51v-51h821q0 12 1 24q1 -12 4 -24h386v51h-386q-1 -13 -4 -27l-8 27h-761q130 19 218 149q84 126 92 294q7 158 -58 244q-33 44 -80 57q145 -21 193 -151q20 -56 20 -119q26 60 71 119q133 172 315 145q76 -11 154 -57l-143 -6q-139 -14 -259 -104 q-63 -49 -131 -123q146 -29 254 -128q138 -126 129 -296q0 -12 -2 -24h-12q-45 137 -119 228q-86 109 -253 217l-7 -7q-5 -56 -27 -118q-54 -152 -173 -243q-85 -65 -182 -77h-2zM1199 -267q-125 -27 -240 51q-95 63 -127 157q-10 30 -11 59h5q25 -82 180 -168zM174 435 q-132 23 -161 113q-23 74 30 150t142 93q19 4 37 4q-82 -1 -124 -81q-39 -76 -17 -163q22 -85 93 -116zM223 795h-1h1zM223 795h1h-1z" />
<glyph unicode="q" horiz-adv-x="1000" d="M0 0v51h1000v-51h-1000z" />
<glyph unicode="r" d="M1301 -54l-43 -26q-16 -6 -70 -10q-47 -5 -165 83l-9 7h306v51h-374l-101 76q-203 144 -333 143q-109 -1 -188 -94q138 126 411 -63q31 -22 82 -62h-817v-51h881l72 -60q97 -81 124 -87q81 -11 106 -2q12 4 23 5q56 32 86 73q8 11 9 17zM48 54q188 73 272 206 q22 35 67 138q42 95 86 135q26 22 59 39q177 45 293 37q176 -12 430 -146q11 -5 21 -11q-235 74 -337 89q-161 23 -342 -28q-3 0 -5 -1q-83 -22 -133 -106q-3 -5 -54 -107q-53 -106 -123 -159q-87 -66 -234 -86z" />
<glyph unicode="s" horiz-adv-x="2079" d="M2047 -4q-84 -77 -192 -275l-102 -188q-80 -139 -148 -173q-151 -74 -324 -87q-18 -39 -43 -76q-87 -127 -258 -207q60 40 124 134q48 71 78 146q-79 1 -162 14l-35 6q-112 13 -216 71l-34 19q-66 56 -210 225q-142 166 -215 235q-135 126 -258 153q23 -3 46 -7 q92 -29 164 -66q52 -28 106 -71q130 -103 352 -344q118 -110 245 -125q112 -25 245 -20q22 93 16 191q-15 223 -182 435q53 1 126 -88q96 -118 134 -279q32 -135 8 -250q241 30 353 150q26 34 145 218q108 167 171 221q35 29 66 38zM1048 52q-79 0 -186 63l-110 65 q-94 50 -176 48q-67 3 -114 -30l-67 -50q-110 -73 -343 -96q249 68 367 186l13 14l8 5q114 102 280 283q118 110 245 125q144 32 323 14h2q22 -132 -11 -266q-43 -173 -162 -304q-35 -38 -63 -58h-1054v-51h48l50 -14q81 -18 164 -66q104 -52 166 -120q105 -66 227 -40 q34 8 37 8q9 4 89 74q159 138 263 158q-79 0 -186 -63l-110 -65q-94 -50 -176 -48q-67 -3 -114 30l-67 50q-110 73 -343 96h996h1076v51h-75q-83 76 -190 273l-102 188q-80 139 -148 173q-121 59 -256 79q-12 31 -26 61q-62 130 -141 191q-38 30 -67 29q106 -135 151 -272 q-118 8 -246 -12l-35 -6q-112 -13 -216 -71l-34 -19q-66 -56 -210 -225q-142 -166 -215 -235q-135 -126 -258 -153q153 17 316 144l51 42l21 19q102 60 219 35q34 -8 37 -8q9 -4 89 -74q159 -138 263 -158zM1047 -3q264 -134 380 -375q101 -119 214 -79l50 19q9 9 83 130 q131 214 219 278q26 19 50 27q-79 0 -186 -63l-110 -65q-94 -50 -176 -48q-67 -3 -114 30l-67 50q-110 73 -343 96zM1047 -3q264 -72 380 -200q105 -66 227 -40q34 8 37 8q9 5 89 74q108 94 190 133q-40 -27 -84 -81l-130 -175q-88 -109 -163 -110q-6 0 -13 1 q-65 -2 -112 53q-6 8 -60 85q-75 107 -171 168q-81 51 -190 84zM2041 51h-3q4 -1 9 -2q-10 0 -20 2h-9q-69 9 -157 61l-110 65q-94 50 -176 48q-67 3 -114 -30l-67 -50q-105 -70 -324 -94h-12q259 72 373 198q105 66 227 40q34 -8 37 -8q9 -5 89 -74q107 -93 190 -133 q-40 27 -84 81q-10 12 -94 131q-84 116 -144 149q-33 19 -67 20q-63 5 -111 -53q-9 -11 -65 -94q-79 -117 -168 -176q-78 -51 -183 -81h-3q118 56 195 132q109 110 135 262q18 108 -6 221q190 -37 286 -140q11 -14 30 -42q7 -7 38 -58l78 -119q88 -135 140 -190 q24 -25 46 -41q23 -17 44 -25zM2041 51l6 -2q-14 0 -29 2h-948q-9 -1 -19 -2l4 2q111 57 195 132q115 103 181 241q101 119 214 79l50 -19l38 -58l45 -72q98 -161 173 -237q17 -19 32 -31q30 -25 58 -35z" />
<glyph unicode="t" d="M1172 468q-24 -51 -166 -90q-117 -32 -175 -23q-11 1 -16 5q-165 19 -235 -8q-30 -11 -63 -39q-46 -50 -87 -89l-24 -26q22 20 85 53q105 55 181 61q38 3 136 -19q49 -11 64 -9q141 18 229 84q57 44 71 100zM1189 662q-28 -60 -104 -126q-76 -65 -105 -48q-175 20 -245 4 q-60 -14 -122 -71l-51 -56q22 15 66 37q95 47 168 53q38 3 130 -19q45 -10 62 -8q149 19 201 234zM1192 800q-36 -76 -49 -97q-89 -138 -283 -135q-90 9 -192 -89q-17 -15 -55 -58l-14 -13q-24 -23 -61 -64q7 9 24 21l-27 -31l-18 -21q-24 -19 -50 -47q21 22 -37 -42 q-59 -56 -109 -88q-108 -72 -230 -85h-33q147 26 330 222q36 39 168 195q99 117 141 138q13 6 23 6q39 1 217 29l23 3q74 10 122 53l86 83zM0 0h1320v51h-1229q-27 -3 -55 -3q11 1 22 3h-58v-51zM406 198l-8 -9q3 4 8 9z" />
<glyph unicode="u" horiz-adv-x="1207" d="M434 480l17 10l-15 10q0 -10 -2 -20zM1199 54q-256 -12 -405 94q-61 44 -147 146q-90 106 -132 145q-25 22 -50 41q-15 -5 -32 -9q-7 -48 -25 -100q-54 -152 -173 -243q-85 -65 -182 -77q130 19 218 149q84 126 92 294q7 158 -58 244q-33 44 -80 57q145 -21 193 -151 q24 -66 19 -143q10 -2 21 -6q85 57 105 72q195 148 91 228q67 1 89 -48q25 -54 -26 -122q-70 -91 -233 -140q60 -27 135 -93l153 -140q165 -143 326 -182q49 -12 101 -16zM174 435q-132 23 -161 113q-23 74 30 150t142 93q19 4 37 4q-82 -1 -124 -81q-39 -76 -17 -163 q22 -85 93 -116zM0 0h1212v51h-1159h-2h-51v-51zM223 795h-1h1zM223 795h1h-1z" />
<glyph unicode="v" horiz-adv-x="2079" d="M1048 52q-79 0 -186 63l-110 65q-94 50 -176 48q-67 3 -114 -30l-67 -50q-110 -73 -343 -96q264 72 380 200q105 66 227 40q34 -8 37 -8q9 -4 89 -74q159 -138 263 -158zM1047 -3q264 -134 380 -375q101 -119 214 -79l50 19q9 9 83 130q131 214 219 278q26 19 50 27 q-79 0 -186 -63l-110 -65q-94 -50 -176 -48q-67 -3 -114 30l-67 50q-110 73 -343 96zM1047 -3q264 -72 380 -200q105 -66 227 -40q34 8 37 8q9 5 89 74q108 94 190 133q-40 -27 -84 -81l-130 -175q-88 -109 -163 -110q-6 0 -13 1q-65 -2 -112 53q-6 8 -60 85 q-75 107 -171 168q-81 51 -190 84zM1055 51h-1055v-51h48q264 -72 380 -200q105 -66 227 -40q34 8 37 8q9 4 89 74q159 138 263 158q-79 0 -186 -63l-110 -65q-94 -50 -176 -48q-67 -3 -114 30l-67 50q-110 73 -343 96h996h1076v51h-79l6 -2q-10 0 -20 2h-9q-69 9 -157 61 l-110 65q-94 50 -176 48q-67 3 -114 -30l-67 -50q-105 -70 -324 -94h-12q259 72 373 198q105 66 227 40q34 -8 37 -8q9 -5 89 -74q107 -93 190 -133q-40 27 -84 81q-10 12 -94 131q-84 116 -144 149q-33 19 -67 20q-63 5 -111 -53q-9 -11 -65 -94q-79 -117 -168 -176 q-78 -51 -183 -81h-3zM1055 51q261 134 376 373q101 119 214 79l50 -19q9 -9 83 -130q130 -213 219 -278q23 -17 44 -25h-3q4 -1 9 -2q-14 0 -29 2h-948q-9 -1 -19 -2z" />
<glyph unicode="w" horiz-adv-x="1000" d="M0 0v51h1000v-51h-1000z" />
<glyph unicode="x" horiz-adv-x="1000" d="M0 0v51h1000v-51h-1000z" />
<glyph unicode="y" horiz-adv-x="1268" d="M1250 -72l-43 -26q-16 -6 -70 -10q-47 -5 -165 83l-33 25h339v51h-407l-77 58q-203 144 -333 143q-109 -1 -188 -94q138 126 411 -63q24 -16 59 -44h-690q130 19 218 149q84 126 92 294q7 158 -58 244q-33 44 -80 57q145 -21 193 -151q22 -61 19 -131q18 65 57 133 q88 151 214 158q168 10 366 -243q-241 163 -357 176q-94 10 -163 -70q-42 -50 -122 -203q-7 -45 -24 -93q-54 -152 -173 -243q-85 -65 -182 -77h-2h-51v-51h807l95 -78q99 -82 124 -87q81 -11 106 -2q12 4 23 5q56 32 86 73q8 11 9 17zM174 435q-132 23 -161 113 q-23 74 30 150t142 93q19 4 37 4q-82 -1 -124 -81q-39 -76 -17 -163q22 -85 93 -116zM223 795h-1h1zM223 795h1h-1z" />
<glyph unicode="z" d="M48 54q255 81 249 208q-2 69 -74 132l-7 6q-103 69 -204 104q-11 4 -12 8l85 -14q70 -16 175 -58q80 -67 100 -147q29 -121 -116 -188q-76 -35 -196 -51zM1301 -54l-43 -26q-16 -6 -70 -10q-47 -5 -160 85l-6 5h298v51h-362l-105 84q-191 146 -316 147q-69 1 -127 -37 l-15 -11q-23 -19 -45 -44q135 124 389 -62q33 -24 94 -77h-833v-51h891l58 -51q100 -89 128 -96q81 -11 106 -2q12 4 23 5q56 32 86 73q8 11 9 17zM410 245q-8 -6 -15 -11q-18 -13 -35 -23l35 49q73 90 149 72q97 2 262 11q10 1 18 1q100 46 208 205q47 70 52 90 q-34 -169 -132 -267q-77 -76 -184 -89q-241 9 -292 -3q-27 -7 -64 -34zM1084 639v1v-1z" />
<glyph unicode="{" horiz-adv-x="813" d="M516 25q0 47 -32 80t-76 33t-75.5 -32.5t-31.5 -80.5q0 -20 6 -39l110 53l-51 -116q20 -10 42 -10q44 0 76 33t32 79zM550 25q0 -62 -42 -104.5t-100 -42.5q-30 0 -59 13l-14 -36q-163 30 -238 170q75 140 236 170q-47 -23 -75.5 -68.5t-28.5 -101.5q0 -33 11 -65l36 12 q-10 26 -10 53q0 62 41.5 105t100.5 43t100.5 -43t41.5 -105zM720 25q-76 -141 -239 -170q48 23 77 68.5t29 101.5q0 55 -28.5 101t-75.5 69q162 -29 237 -170zM793 25q-58 112 -162 170q-99 57 -223 57t-222 -57q-104 -58 -162 -170q59 -111 162 -170q99 -56 222 -56 q125 0 223 56q103 59 162 170z" />
<glyph unicode="|" horiz-adv-x="795" d="M497 209q0 47 -31.5 79.5t-75.5 32.5q-45 0 -76.5 -32.5t-31.5 -79.5q0 -21 7 -40l110 53l-52 -115q21 -10 43 -10q44 0 75.5 32.5t31.5 79.5zM532 209q0 -62 -42 -105t-100 -43q-31 0 -59 13l-15 -35q-163 29 -238 170q75 140 237 169q-48 -22 -76.5 -68t-28.5 -101 q0 -34 11 -66l36 12q-10 27 -10 54q0 62 42 105t101 43q58 0 100 -43t42 -105zM701 209q-76 -141 -239 -170q49 22 78 68t29 102q0 55 -28.5 101t-76.5 68q162 -29 237 -169zM774 209q-58 111 -161 170q-99 56 -223 56t-223 -56q-103 -59 -162 -170q59 -112 162 -171 q99 -56 223 -56t223 56q103 59 161 171z" />
<glyph unicode="}" horiz-adv-x="805" d="M505 288q0 47 -31.5 79.5t-75.5 32.5q-45 0 -76.5 -32.5t-31.5 -79.5q0 -21 7 -39l110 53l-52 -116q21 -10 43 -10q44 0 75.5 32.5t31.5 79.5zM540 288q0 -62 -42 -105t-100 -43q-31 0 -59 14l-15 -36q-162 30 -238 170q75 140 237 170q-48 -23 -76.5 -69t-28.5 -101 q0 -34 12 -66l36 12q-10 27 -10 54q0 62 41.5 105t100.5 43t100.5 -43t41.5 -105zM709 288q-75 -141 -239 -170q49 22 78 68t29 102q0 55 -28.5 101t-76.5 69q162 -30 237 -170zM782 288q-58 111 -161 170q-99 56 -223 56t-222 -56q-104 -59 -163 -170q59 -112 162 -171 q99 -56 223 -56q125 0 223 57q103 58 161 170z" />
<glyph unicode="~" horiz-adv-x="2079" d="M2047 -4q-84 -77 -192 -275l-102 -188q-80 -139 -148 -173q-151 -74 -324 -87q-18 -39 -43 -76q-87 -127 -258 -207q60 40 124 134q48 71 78 146q-79 1 -162 14l-35 6q-112 13 -216 71l-34 19q-66 56 -210 225q-142 166 -215 235q-135 126 -258 153q23 -3 46 -7 q92 -29 164 -66q52 -28 106 -71q130 -103 352 -344q118 -110 245 -125q112 -25 245 -20q22 93 16 191q-15 223 -182 435q53 1 126 -88q96 -118 134 -279q32 -135 8 -250q241 30 353 150q26 34 145 218q108 167 171 221q35 29 66 38zM1048 52q-79 0 -186 63l-110 65 q-94 50 -176 48q-67 3 -114 -30l-67 -50q-110 -73 -343 -96q249 68 367 186l13 14l8 5q114 102 280 283q118 110 245 125q144 32 323 14h2q22 -132 -11 -266q-43 -173 -162 -304q-35 -38 -63 -58h-1054v-51h48l50 -14q81 -18 164 -66q104 -52 166 -120q105 -66 227 -40 q34 8 37 8q9 4 89 74q159 138 263 158q-79 0 -186 -63l-110 -65q-94 -50 -176 -48q-67 -3 -114 30l-67 50q-110 73 -343 96h996h1076v51h-75q-83 76 -190 273l-102 188q-80 139 -148 173q-121 59 -256 79q-12 31 -26 61q-62 130 -141 191q-38 30 -67 29q106 -135 151 -272 q-118 8 -246 -12l-35 -6q-112 -13 -216 -71l-34 -19q-66 -56 -210 -225q-142 -166 -215 -235q-135 -126 -258 -153q153 17 316 144l51 42l21 19q102 60 219 35q34 -8 37 -8q9 -4 89 -74q159 -138 263 -158zM1047 -3q264 -134 380 -375q101 -119 214 -79l50 19q9 9 83 130 q131 214 219 278q26 19 50 27q-79 0 -186 -63l-110 -65q-94 -50 -176 -48q-67 -3 -114 30l-67 50q-110 73 -343 96zM1047 -3q264 -72 380 -200q105 -66 227 -40q34 8 37 8q9 5 89 74q108 94 190 133q-40 -27 -84 -81l-130 -175q-88 -109 -163 -110q-6 0 -13 1 q-65 -2 -112 53q-6 8 -60 85q-75 107 -171 168q-81 51 -190 84zM2041 51h-3q4 -1 9 -2q-10 0 -20 2h-9q-69 9 -157 61l-110 65q-94 50 -176 48q-67 3 -114 -30l-67 -50q-105 -70 -324 -94h-12q259 72 373 198q105 66 227 40q34 -8 37 -8q9 -5 89 -74q107 -93 190 -133 q-40 27 -84 81q-10 12 -94 131q-84 116 -144 149q-33 19 -67 20q-63 5 -111 -53q-9 -11 -65 -94q-79 -117 -168 -176q-78 -51 -183 -81h-3q118 56 195 132q109 110 135 262q18 108 -6 221q190 -37 286 -140q11 -14 30 -42q7 -7 38 -58l78 -119q88 -135 140 -190 q24 -25 46 -41q23 -17 44 -25zM2041 51l6 -2q-14 0 -29 2h-948q-9 -1 -19 -2l4 2q111 57 195 132q115 103 181 241q101 119 214 79l50 -19l38 -58l45 -72q98 -161 173 -237q17 -19 32 -31q30 -25 58 -35z" />
<glyph horiz-adv-x="1000" />
<glyph unicode="&#xa1;" horiz-adv-x="1228" d="M655 1237v-1155h283l184 1159h82q0 -29 -196 -1241h-764q-56 0 -56 43q0 41 56 41h327v1069h-239q-56 0 -56 43q0 41 56 41h323z" />
<glyph unicode="&#xa2;" horiz-adv-x="1228" d="M172 180q0 -17 35 -52q33 -33 91 -71q57 -36 148 -63q93 -27 189 -27q199 0 331 127q130 128 130 324q0 201 -133 334q-134 131 -338 131q-190 0 -320 -113v27q0 57 -43 57q-41 0 -41 -57v-187q0 -55 41 -55q37 0 43 49q6 82 102 138q94 57 224 57q169 0 275 -106 t106 -273q0 -161 -107 -265t-274 -104q-225 0 -383 148q-22 20 -37 20t-28 -11q-11 -13 -11 -28z" />
<glyph unicode="&#xa3;" horiz-adv-x="1228" d="M688 0h-143l-344 770h-84q-56 0 -56 43q0 41 56 41h309q57 0 57 -41q0 -43 -57 -43h-133l307 -686h39l301 686h-139q-56 0 -56 43q0 41 56 41h311q55 0 55 -41q0 -43 -55 -43h-84z" />
<glyph unicode="&#xa4;" horiz-adv-x="350" d="M304 14q-14 -27 -46.5 -47t-63.5 -20q-24 -4 -46.5 4t-45.5 32.5t-39.5 64.5t-26 107t-6.5 152q0 24 -1 71t-1.5 83t1 75t8 65.5t17.5 36.5q32 17 73.5 20.5t54.5 7.5q18 6 64 6q35 0 52 -4q21 -4 21 -17q0 -6 -6 -10.5t-15 -4.5q-72 0 -149 -22q-28 4 -45.5 -27.5 t-22 -84t-4 -101t4.5 -93.5q0 -54 5.5 -105.5t18.5 -101.5t38 -80.5t59 -30.5q25 0 43.5 18t18.5 44v246h39v-284z" />
<glyph unicode="&#xa5;" horiz-adv-x="292" d="M262 97q0 -49 -28.5 -80t-72.5 -40q-26 -7 -57 -7q-54 0 -68 73q-6 32 -6 68l6 -7q2 -2 12 -18q40 -61 48 -61q38 -15 45 -15t53 20q19 20 19 54q0 13 -3.5 25t-8 20t-13 17t-13.5 14l-14 12q-9 7 -11 8q-10 8 -39.5 24.5t-38.5 32.5q-1 1 -9 13.5t-12 21.5t-8.5 32.5 t-4.5 54.5q0 16 -0.5 52.5t-0.5 59.5q0 15 -1 38t-1 32q0 28 7 47t28 37q21 30 102 20q4 -1 18 -2.5t21.5 -4t15.5 -14.5t9 -34l-6 -181q-29 -87 -42 -87l2 88q0 29 -1 86t-7 84t-15 25q-18 0 -30.5 -1t-25.5 -5t-20 -12.5t-7 -21.5q0 -40 2 -88t2 -58q0 -57 7 -95.5 t22.5 -58.5t23.5 -26t27 -16q24 -13 36.5 -20.5t15.5 -10.5t7.5 -10.5t8.5 -12.5q26 -34 26 -72z" />
<glyph unicode="&#xa6;" horiz-adv-x="0" d="M304 14q-14 -27 -46.5 -47t-63.5 -20q-21 0 -42.5 10t-44 36t-39 65t-27.5 103.5t-11 145.5q0 161 44 267q14 33 33 52.5t33 25.5q12 5 42 14q19 6 64 6q35 0 52 -4q21 -4 21 -17q0 -6 -6 -10.5t-15 -4.5q-41 0 -90.5 -6t-58.5 -16q-67 -71 -67 -306q0 -54 5.5 -105.5 t18.5 -101.5t38 -80.5t59 -30.5q25 0 43.5 18t18.5 44v246h39v-284z" />
<glyph unicode="&#xa7;" horiz-adv-x="0" d="M266 102q0 -49 -28.5 -80t-72.5 -40q-26 -7 -57 -7q-33 0 -59 7q-21 4 -21 17q0 6 6 10.5t15 4.5q20 0 43 3.5t54 9t52 8.5q19 20 19 54q0 13 -3.5 25t-8 20t-13 17t-13.5 13l-14 12q-9 8 -11 9q-10 8 -39.5 24.5t-38.5 32.5q-1 2 -5 8.5t-6 10.5t-5.5 13.5t-5 20 t-3 27.5t-1.5 38q0 16 -4.5 54.5t-4.5 61.5q0 15 -1 38t-1 32q0 28 7 47t28 37q83 25 115 25q4 0 7 -1q21 -4 21 -23q0 -8 -6 -14.5t-15 -6.5h-12h-13q-18 0 -30.5 -1t-25.5 -5t-20 -12.5t-7 -21.5q0 -40 2 -88t2 -58q0 -57 7 -95.5t22.5 -58.5t23.5 -26t27 -16 q24 -13 36.5 -20.5t15.5 -10.5t7.5 -10.5t8.5 -12.5q26 -34 26 -72z" />
<glyph unicode="&#xa8;" horiz-adv-x="350" d="M304 14q-14 -27 -46.5 -47t-63.5 -20q-21 0 -42.5 10t-44 36t-39 65t-27.5 103.5t-11 145.5q0 161 44 267q14 33 33 52.5t33 25.5q12 5 42 14q19 6 64 6q35 0 52 -4q21 -4 21 -17q0 -6 -6 -10.5t-15 -4.5q-41 0 -90.5 -6t-58.5 -16q-67 -71 -67 -306q0 -54 5.5 -105.5 t18.5 -101.5t38 -80.5t59 -30.5q25 0 43.5 18t18.5 44v246h39v-284z" />
<glyph unicode="&#xa9;" horiz-adv-x="296" d="M266 102q0 -49 -28.5 -80t-72.5 -40q-26 -7 -57 -7q-33 0 -59 7q-21 4 -21 17q0 6 6 10.5t15 4.5q20 0 43 3.5t54 9t52 8.5q19 20 19 54q0 13 -3.5 25t-8 20t-13 17t-13.5 13l-14 12q-9 8 -11 9q-10 8 -39.5 24.5t-38.5 32.5q-1 2 -5 8.5t-6 10.5t-5.5 13.5t-5 20 t-3 27.5t-1.5 38q0 16 -4.5 54.5t-4.5 61.5q0 15 -1 38t-1 32q0 28 7 47t28 37q83 25 115 25q4 0 7 -1q21 -4 21 -23q0 -8 -6 -14.5t-15 -6.5h-12h-13q-18 0 -30.5 -1t-25.5 -5t-20 -12.5t-7 -21.5q0 -40 2 -88t2 -58q0 -57 7 -95.5t22.5 -58.5t23.5 -26t27 -16 q24 -13 36.5 -20.5t15.5 -10.5t7.5 -10.5t8.5 -12.5q26 -34 26 -72z" />
<glyph unicode="&#xaa;" horiz-adv-x="350" d="M304 14q-14 -27 -46.5 -47t-63.5 -20q-21 0 -42.5 10t-44 36t-39 65t-27.5 103.5t-11 145.5q0 24 -1 71t-1.5 83t1 75t8 65.5t17.5 36.5q32 17 73.5 20.5t54.5 7.5q18 6 64 6q35 0 52 -4q21 -4 21 -17q0 -6 -6 -10.5t-15 -4.5q-72 0 -149 -22q-28 4 -45.5 -27.5t-22 -84 t-4 -101t4.5 -93.5q0 -54 5.5 -105.5t18.5 -101.5t38 -80.5t59 -30.5q25 0 43.5 18t18.5 44v246h39v-284z" />
<glyph unicode="&#xab;" horiz-adv-x="292" d="M262 97q0 -49 -28.5 -80t-72.5 -40q-26 -7 -57 -7q-54 0 -68 73q-6 32 -6 68l6 -7q2 -2 12 -18q40 -61 48 -61q38 -15 45 -15t53 20q19 20 19 54q0 13 -3.5 25t-8 20t-13 17t-13.5 14l-14 12q-9 7 -11 8q-10 8 -39.5 24.5t-38.5 32.5q-1 1 -9 13.5t-12 21.5t-8.5 32.5 t-4.5 54.5q0 16 -0.5 52.5t-0.5 59.5q0 15 -1 38t-1 32q0 28 7 47t28 37q21 30 102 20q4 -1 18 -2.5t21.5 -4t15.5 -14.5t9 -34l-6 -181q-29 -87 -42 -87l2 88q0 29 -1 86t-7 84t-15 25q-18 0 -30.5 -1t-25.5 -5t-20 -12.5t-7 -21.5q0 -40 2 -88t2 -58q0 -57 7 -95.5 t22.5 -58.5t23.5 -26t27 -16q24 -13 36.5 -20.5t15.5 -10.5t7.5 -10.5t8.5 -12.5q26 -34 26 -72z" />
<glyph unicode="&#xac;" horiz-adv-x="350" d="M304 14q-14 -27 -46.5 -47t-63.5 -20q-21 0 -42.5 10t-44 36t-39 65t-27.5 103.5t-11 145.5q0 161 44 267q14 33 33 52.5t33 25.5q12 5 42 14q19 6 64 6q35 0 52 -4q21 -4 21 -17q0 -6 -6 -10.5t-15 -4.5q-41 0 -90.5 -6t-58.5 -16q-67 -71 -67 -306q0 -54 5.5 -105.5 t18.5 -101.5t38 -80.5t59 -30.5q25 0 43.5 18t18.5 44v246h39v-284z" />
<glyph unicode="&#xad;" horiz-adv-x="296" d="M266 102q0 -49 -28.5 -80t-72.5 -40q-26 -7 -57 -7q-33 0 -59 7q-21 4 -21 17q0 6 6 10.5t15 4.5q20 0 43 3.5t54 9t52 8.5q19 20 19 54q0 13 -3.5 25t-8 20t-13 17t-13.5 13l-14 12q-9 8 -11 9q-10 8 -39.5 24.5t-38.5 32.5q-1 2 -5 8.5t-6 10.5t-5.5 13.5t-5 20 t-3 27.5t-1.5 38q0 16 -4.5 54.5t-4.5 61.5q0 15 -1 38t-1 32q0 28 7 47t28 37q83 25 115 25q4 0 7 -1q21 -4 21 -23q0 -8 -6 -14.5t-15 -6.5h-12h-13q-18 0 -30.5 -1t-25.5 -5t-20 -12.5t-7 -21.5q0 -40 2 -88t2 -58q0 -57 7 -95.5t22.5 -58.5t23.5 -26t27 -16 q24 -13 36.5 -20.5t15.5 -10.5t7.5 -10.5t8.5 -12.5q26 -34 26 -72z" />
<glyph unicode="&#xae;" horiz-adv-x="350" d="M304 14q-14 -27 -46.5 -47t-63.5 -20q-21 0 -42.5 10t-44 36t-39 65t-27.5 103.5t-11 145.5q0 24 -1 71t-1.5 83t1 75t8 65.5t17.5 36.5q32 17 73.5 20.5t54.5 7.5q18 6 64 6q35 0 52 -4q21 -4 21 -17q0 -6 -6 -10.5t-15 -4.5q-72 0 -149 -22q-28 4 -45.5 -27.5t-22 -84 t-4 -101t4.5 -93.5q0 -54 5.5 -105.5t18.5 -101.5t38 -80.5t59 -30.5q25 0 43.5 18t18.5 44v246h39v-284z" />
<glyph unicode="&#xaf;" horiz-adv-x="292" d="M262 97q0 -49 -28.5 -80t-72.5 -40q-26 -7 -57 -7q-54 0 -68 73q-6 32 -6 68l6 -7q2 -2 12 -18q40 -61 48 -61q38 -15 45 -15t53 20q19 20 19 54q0 13 -3.5 25t-8 20t-13 17t-13.5 14l-14 12q-9 7 -11 8q-10 8 -39.5 24.5t-38.5 32.5q-1 1 -9 13.5t-12 21.5t-8.5 32.5 t-4.5 54.5q0 16 -0.5 52.5t-0.5 59.5q0 15 -1 38t-1 32q0 28 7 47t28 37q21 30 102 20q4 -1 18 -2.5t21.5 -4t15.5 -14.5t9 -34l-6 -181q-29 -87 -42 -87l2 88q0 29 -1 86t-7 84t-15 25q-18 0 -30.5 -1t-25.5 -5t-20 -12.5t-7 -21.5q0 -40 2 -88t2 -58q0 -57 7 -95.5 t22.5 -58.5t23.5 -26t27 -16q24 -13 36.5 -20.5t15.5 -10.5t7.5 -10.5t8.5 -12.5q26 -34 26 -72z" />
<glyph unicode="&#xb0;" horiz-adv-x="350" d="M304 14q-14 -27 -46.5 -47t-63.5 -20q-21 0 -42.5 10t-44 36t-39 65t-27.5 103.5t-11 145.5q0 24 -1 71t-1.5 83t1 75t8 65.5t17.5 36.5q32 17 73.5 20.5t54.5 7.5q18 6 64 6q35 0 52 -4q21 -4 21 -17q0 -6 -6 -10.5t-15 -4.5q-72 0 -149 -22q-28 4 -45.5 -27.5t-22 -84 t-4 -101t4.5 -93.5q0 -54 5.5 -105.5t18.5 -101.5t38 -80.5t59 -30.5q25 0 43.5 18t18.5 44v246h39v-284z" />
<glyph unicode="&#xb1;" horiz-adv-x="292" d="M262 97q0 -49 -28.5 -80t-72.5 -40q-26 -7 -57 -7q-54 0 -68 73q-6 32 -6 68l6 -7q2 -2 12 -18q40 -61 48 -61q38 -15 45 -15t53 20q19 20 19 54q0 13 -3.5 25t-8 20t-13 17t-13.5 14l-14 12q-9 7 -11 8q-10 8 -39.5 24.5t-38.5 32.5q-1 1 -9 13.5t-12 21.5t-8.5 32.5 t-4.5 54.5q0 16 -0.5 52.5t-0.5 59.5q0 15 -1 38t-1 32q0 28 7 47t28 37q21 30 102 20q4 -1 18 -2.5t21.5 -4t15.5 -14.5t9 -34l-6 -181q-29 -87 -42 -87l2 88q0 29 -1 86t-7 84t-15 25q-18 0 -30.5 -1t-25.5 -5t-20 -12.5t-7 -21.5q0 -40 2 -88t2 -58q0 -57 7 -95.5 t22.5 -58.5t23.5 -26t27 -16q24 -13 36.5 -20.5t15.5 -10.5t7.5 -10.5t8.5 -12.5q26 -34 26 -72z" />
<glyph unicode="&#xb2;" horiz-adv-x="476" d="M172 383q2 0 4 -2q18 -8 20 -9l7 -4q5 -2 10 -5l14 -9q4 -3 11 -9q7 -7 9 -10q1 -1 1.5 -3t1.5 -5t2 -5q3 -6 4 -15q1 -6 1 -19q0 -10 -11 -38q-9 -23 -26 -47q-15 -21 -23 -18q-6 3 0 22q1 3 16 43q9 24 9 34v11q-6 12 -11 17q-8 8 -17 13q-7 4 -17 9q-2 1 -4.5 2 t-6.5 2l-8 3l-13 8q-8 5 -15 19v7q0 2 0.5 5.5t0.5 4.5q0 2 4 10q1 2 3.5 5t3.5 4l13 13q6 6 16 14q3 3 5.5 5t6.5 6l10 10l29 26l8 8l20 18l25 23q45 42 73 73q33 37 44 57q-35 -8 -74 -1t-68 24l-15 9q-11 6 -15 9q-2 1 -6 3.5t-6 3.5t-13 5q-6 2 -10 3q-6 1 -10 0l-3 -1 q-4 -1 -6 -2q-7 -5 -12 -13q-3 -5 -8 -17q-3 -8 -6 -19l-3 -12l6 2q1 1 4 2t4 2l4 2q18 0 30 -13q12 -14 12 -33t-12 -33q-12 -13 -30 -13h-4q-1 0 -7 2t-7 2q-16 6 -27 28q-12 23 -13 49q-2 28 10 55q12 29 38 47q16 13 34 16q17 3 37 -4q5 -2 36 -16q10 -4 38 -21 q19 -11 37 -18q16 -6 36 -8q17 -2 35 9q6 3 15 3t14 -6q5 -3 7 -11q2 -9 0 -12v-8q-3 -12 -9 -24q-2 -4 -5 -11.5t-5 -11.5q-5 -9 -16 -23l-9 -12l-7 -10q-8 -12 -19 -23q-6 -7 -11 -12l-9 -9l-23 -22l-22 -21q-2 -2 -4.5 -4t-7 -6t-11.5 -11l-22 -21q-54 -48 -82 -68z M170 119q16 0 26 -7q11 -8 16 -17q5 -8 8 -18q2 -6 2 -14q0 -27 -14 -38q-14 -15 -36 -15q-19 -4 -36 10q-16 13 -16 43q0 14 2 20q1 3 8 17q5 10 15 14q12 5 25 5z" />
<glyph unicode="&#xb3;" horiz-adv-x="473" d="M394 503q-1 -1 -2 -3.5t-3.5 -7t-4.5 -7.5l-98 -148l-104 -159l-10 7l39 96q12 26 62 162q38 104 49 124q17 30 32 42q21 16 46 0q25 -15 20 -53q-6 -21 -17 -42q-4 0 -9 -11zM84 30q-13 13 -13 39q0 25 13 38q16 18 32 18t33 -18q17 -14 17 -38q0 -27 -14 -36 q-14 -14 -32 -14q-4 0 -6.5 -0.5t-4.5 -0.5q-4 0 -10 3l-8 4q-2 2 -7 5zM166 602q0 -11 -4 -21l-19 -184l-20 -198h-10l-6 106q-5 25 -23 177q-13 95 -13 138q0 30 10 56q11 21 39 21t39 -35q7 -24 7 -42v-18z" />
<glyph unicode="&#xb4;" horiz-adv-x="0" d="M149 756q43 22 79 27q32 4 60 -12q54 -33 60 -83q1 -3 1 -10q0 -2 0.5 -4.5t0.5 -3.5v-8v-4l-1 -3q0 -4 -1 -8t-1 -6l-2 -8q-1 -4 -1 -8q-6 -26 -31 -36q-18 -7 -30 0q-8 5 -12 11q-5 8 -5 15q-3 13 0 25q4 15 13 32q13 30 13 47q-5 12 -35 31q-38 9 -69 -10 q-61 -30 -82 -89q-22 -61 -9 -114q5 -28 22 -68l19 -34l12 -21l8 -13q31 -43 56 -89q8 -6 11 -10q6 -8 7 -11q0 -1 1.5 -3.5t3 -6t2.5 -6.5q2 -4 3.5 -9t1.5 -6q13 -30 13 -52l-13 -10q-35 101 -134 167q-91 62 -104 135q-13 80 26 151q48 67 117 105zM755 646 q13 -72 -34 -151q-18 -32 -58 -65q-48 -39 -102 -71q-123 -66 -200 -167l-13 11q4 8 17 26l18 26q11 17 14 20q12 14 19 21q4 4 9 9.5t6 6.5q15 20 95 89q38 30 69 68q28 28 52 68q30 65 30 114q8 59 -43 89q-27 19 -65 10q-37 -18 -43 -31q-4 -10 -4 -16q0 -2 -0.5 -12 t-0.5 -19q0 -29 -8 -57q-14 -18 -26 -26q-18 -7 -30 0q-7 4 -13 15q-5 9 -5 21q0 29 18 63q28 60 90 83q65 31 135 -15q61 -40 73 -110zM313 10q-19 -8 -39 0q-4 2 -11 9q-8 8 -10 12l-9 15q-6 24 0 47q6 22 30 32q20 7 39 0q8 -4 13 -9q6 -6 9 -12q1 -2 9 -16q7 -24 0 -47 q-6 -20 -31 -31z" />
<glyph unicode="&#xb5;" horiz-adv-x="0" d="M149 25q43 -22 79 -27q32 -4 60 12q54 33 60 83q1 3 1 10q0 2 0.5 4.5t0.5 3.5v8v5l-1 2q0 4 -1 8t-1 7q0 1 -1 2q0 3 -1 5q-1 4 -1 8q-6 26 -31 36q-18 8 -30 0q-8 -5 -12 -11q-5 -8 -5 -14q-3 -13 0 -26q4 -15 13 -32q13 -30 13 -47q-6 -14 -35 -31q-38 -9 -69 10 q-61 30 -82 89q-23 60 -9 115q5 26 22 67l19 34l12 20l8 14q31 43 56 89q8 6 11 10q6 8 7 11q0 1 1.5 3.5t3 6t2.5 6.5q4 11 5 15q13 30 13 52l-13 10q-34 -97 -134 -166q-90 -62 -104 -136q-13 -80 26 -151q48 -68 117 -105zM755 135q13 72 -34 151q-19 34 -58 66 q-44 35 -102 70q-123 66 -200 167l-13 -10q4 -8 17 -26q4 -5 7 -10t6.5 -10t4.5 -7q8 -12 14 -19q18 -21 19 -22q4 -4 9 -9.5t6 -6.5q15 -20 95 -89q38 -30 69 -68q29 -30 52 -67q30 -65 30 -115q8 -59 -43 -89q-27 -19 -65 -10q-37 18 -43 31q-4 10 -4 16q0 2 -0.5 12 t-0.5 19q0 30 -8 58q-13 16 -26 25q-18 8 -30 0q-8 -5 -13 -14t-5 -22q0 -28 18 -63q28 -60 90 -83q65 -32 135 15q61 40 73 110zM313 771q-19 7 -39 0q-4 -2 -11 -9q-8 -8 -10 -12q-1 -2 -4 -7t-5 -8q-6 -23 0 -47q6 -20 30 -31q20 -7 39 0q8 4 13 9q7 7 9 11q1 2 9 16 q7 23 0 47q-6 20 -31 31z" />
<glyph unicode="&#xb6;" horiz-adv-x="576" d="M502 523q6 -13 2 -24q-5 -13 -14 -18q-8 -5 -22 -2q-13 3 -19 14q-44 68 -98 90l-53 -128l-81 -195l-16 4l20 112q1 3 3 11q2 6 3 15q1 4 2 15q2 8 3 19l3 20q3 17 4 24q1 13 3 24q0 2 1 11.5t2 16.5q1 8 3 18t2 11q0 6 1 12q2 12 2 13q-61 -16 -106 -93q-7 -11 -17 -14 q-13 -3 -23 2q-13 7 -16 18q-3 14 4 24q30 53 74 86q42 31 97 41q2 14 3 23q0 3 0.5 10t1.5 10q1 7 3 10q1 7 7 21q4 9 9 16l12 15q21 26 53 16q19 -3 28 -16t9 -33v-2q1 -2 1 -3t1 -3v-1v-6v-3l-1 -2q0 -3 -1 -6t-1 -6q0 -1 -2 -7q-1 -3 -1 -6q0 -2 -2 -10t-2 -9 q-3 -3 -4 -9q-1 -3 -4 -10q80 -38 126 -116zM131 83q-11 11 -13 18q-3 9 -3 24q0 26 16 41q13 11 20 14q12 5 21 5q11 0 21 -5q9 -4 20 -14q16 -15 16 -41q0 -28 -16 -38q-17 -15 -41 -15q-4 -2 -9 -1q-8 2 -9 2q-5 0 -8 2t-7 4z" />
<glyph unicode="&#xb7;" horiz-adv-x="416" d="M333 795q17 -17 17 -48t-17 -48t-44 -17q-21 0 -43 22q-17 11 -17 43t17 44q19 17 43 17q3 1 8 1h8q1 0 3.5 -0.5t3.5 -1.5l8 -4l6 -4q0 -1 3 -2t4 -2zM67 130q0 5 1 7l4 8q1 1 2 4l2 3l83 213l87 226l13 -5l-22 -130q-1 -9 -12 -81t-18 -132q-4 -25 -10 -77 q-2 -21 -8 -60q-1 -4 -1.5 -9.5t-1 -8t-1 -5.5t-0.5 -5q-7 -29 -31 -61q-14 -13 -27 -18q-14 -5 -33 1q-39 14 -39 56q0 37 4 57l2 2q1 1 1 2q1 1 1 3q1 2 1 3q1 3 3 7z" />
<glyph unicode="&#xb8;" horiz-adv-x="519" d="M431 634q16 0 25 -11t9 -24q0 -16 -10 -25q-12 -10 -24 -10h-135l-48 -126l-87 -226l-13 4l21 131l3 12q0 2 1.5 7.5t2.5 9.5q0 3 0.5 9t1.5 9q4 18 4 22q2 14 3 23l3 27q1 11 2.5 17.5t1.5 10.5q0 3 1.5 14.5t2.5 18.5q1 8 2.5 19t1.5 14v4h-117q-17 0 -26 11t-9 24 t11 24t24 11h126q2 29 7 56q6 30 6 35q13 38 30 61q22 29 57 17q36 -6 43 -56q0 -33 -8 -52q0 -3 -2 -11q0 -1 -1.5 -5t-1.5 -6q-3 -3 -4 -10t-4 -12l-5 -17h105zM74 8q-8 8 -13 20q-4 9 -4 28q0 31 17 48q21 21 43 21q21 0 44 -21q17 -19 17 -48q0 -33 -17 -44 q-17 -17 -43 -17q-13 -3 -24 1q-13 5 -20 12z" />
<glyph unicode="&#xb9;" horiz-adv-x="2009" d="M1836 473q9 5 34.5 -20t26.5 -35q1 -8 -19.5 -29.5t-28.5 -25.5q-10 -5 -37.5 19.5t-27.5 35.5q0 8 21 29.5t31 25.5zM1497 473q10 5 35.5 -20t27.5 -35q1 -8 -19.5 -29.5t-29.5 -25.5q-10 -5 -37 19.5t-27 35.5q0 8 20.5 29.5t29.5 25.5zM1160 473q9 5 35 -20t27 -35 q1 -8 -19.5 -29.5t-29.5 -25.5q-10 -5 -36.5 19.5t-26.5 35.5q0 8 20 29.5t30 25.5zM827 473q9 5 34.5 -20t26.5 -35q1 -8 -19.5 -29.5t-28.5 -25.5q-10 -5 -37.5 19.5t-27.5 35.5q0 8 21 29.5t31 25.5zM488 473q10 5 35.5 -20t27.5 -35q1 -8 -19.5 -29.5t-29.5 -25.5 q-10 -5 -37 19.5t-27 35.5q0 8 20.5 29.5t29.5 25.5zM151 473q9 5 35 -20t27 -35q1 -8 -19.5 -29.5t-29.5 -25.5q-10 -5 -36.5 19.5t-26.5 35.5q0 8 20 29.5t30 25.5z" />
<glyph unicode="&#xbf;" d="M418 194l-18 -18q3 5 11 12q-80 -67 -159 -99q-73 -30 -154 -38h-39q185 31 424 293l158 185q58 67 79 83q79 57 196 78q9 1 16 2q111 14 185 -16q37 -15 87 -48q-176 27 -243 18q-46 -5 -125 -34q-80 -39 -183 -159l-129 -154l-17 -16l-88 -88q22 18 70 47 q106 64 183 70q38 3 136 -19q49 -11 64 -9q141 18 229 84q57 44 71 100q-24 -51 -166 -90q-117 -32 -175 -23q-11 1 -16 5q-151 17 -210 -5q-35 -13 -81 -56l-2 -2q-52 -58 -103 -102l-3 -3zM0 0h1320v51h-1222q-31 -3 -62 -3q11 1 23 3h-59v-51z" />
<glyph unicode="&#xc6;" horiz-adv-x="1207" d="M434 480l17 10l-15 10q0 -10 -2 -20zM1199 54q-256 -12 -405 94q-61 44 -147 146q-90 106 -132 145q-25 22 -50 41q-15 -5 -32 -9q-7 -48 -25 -100q-54 -152 -173 -243q-85 -65 -182 -77q130 19 218 149q84 126 92 294q7 158 -58 244q-33 44 -80 57q145 -21 193 -151 q24 -66 19 -143q10 -2 21 -6q85 57 105 72q195 148 91 228q67 1 89 -48q25 -54 -26 -122q-70 -91 -233 -140q60 -27 135 -93l153 -140q165 -143 326 -182q49 -12 101 -16zM174 435q-132 23 -161 113q-23 74 30 150t142 93q19 4 37 4q-82 -1 -124 -81q-39 -76 -17 -163 q22 -85 93 -116zM0 0h1212v51h-1159h-2h-51v-51zM223 795h-1h1zM223 795h1h-1z" />
<glyph unicode="&#xc9;" d="M1301 -54l-43 -26q-16 -6 -70 -10q-47 -5 -160 85l-6 5h298v51h-362l-105 84q-191 146 -316 147q-107 2 -187 -92q135 124 389 -62q34 -25 94 -77h-833v-51h891l58 -51q102 -89 128 -96q81 -11 106 -2q12 4 23 5q56 32 86 73q8 11 9 17zM48 54q221 93 351 285 q88 130 96 244q5 65 -23 89q-113 92 -284 88l-168 -12q148 40 218 45q140 9 266 -61q59 -33 52 -145q-9 -132 -99 -268q-116 -174 -300 -239q-53 -18 -109 -26z" />
<glyph unicode="&#xcc;" horiz-adv-x="2079" d="M1048 52q-79 0 -186 63l-110 65q-94 50 -176 48q-67 3 -114 -30l-67 -50q-212 -95 -324 -124h-9q219 78 370 228q108 68 227 40q34 -8 37 -8q8 -3 89 -74q159 -138 263 -158zM1058 51h-3q261 134 376 373q101 119 214 79l50 -19q9 -9 83 -130q130 -213 219 -278 q23 -17 44 -25h-3q4 -1 9 -2q-10 0 -20 2h-9q-69 9 -157 61l-110 65q-94 50 -176 48q-67 3 -114 -30l-67 -50q-105 -70 -324 -94h-12zM1058 51q259 72 373 198q108 68 227 40q34 -8 37 -8q8 -4 89 -74q107 -93 190 -133q-40 27 -84 81q-10 12 -94 131q-82 113 -144 149 q-33 19 -67 20q-63 5 -111 -53q-9 -11 -65 -94q-79 -117 -168 -176q-78 -51 -183 -81zM1070 51q-9 -1 -19 -2l4 2l-984 -27l-25 -6l16 6l-62 -2l46 -4q244 -72 382 -218q108 -68 227 -40q34 8 37 8q8 3 89 74q159 138 263 158q-77 1 -186 -63l-110 -65q-94 -50 -176 -48 q-67 -3 -114 30l-67 50q-148 73 -345 114l998 -18h1076v51h-79l6 -2q-14 0 -29 2h-948zM1047 -3q264 -72 380 -200q105 -66 227 -40q34 8 37 8q8 4 89 74q108 94 190 133q-40 -27 -84 -81l-130 -175q-88 -109 -163 -110q-6 0 -13 1q-65 -2 -112 53q-6 8 -60 85 q-75 107 -171 168q-81 51 -190 84zM1047 -3q264 -134 380 -375q101 -119 214 -79l50 19q9 9 83 130q131 214 219 278q26 19 50 27q-79 0 -186 -63l-110 -65q-94 -50 -176 -48q-67 -3 -114 30l-67 50q-110 73 -343 96z" />
<glyph unicode="&#xcd;" d="M248 116q-124 -72 -248 -116v51l98 26q186 92 301 262q88 130 96 244q5 65 -23 89q-113 92 -284 88l-168 -12q148 40 218 45q140 9 266 -61q59 -33 52 -145q-9 -132 -99 -268q-92 -138 -228 -208zM1022 0l62 -56q45 -40 104 -34q54 4 70 10l43 26q-1 -6 -9 -17 q-30 -41 -86 -73q-11 -1 -23 -5q-25 -9 -106 2q-26 7 -128 96l-116 102q-60 52 -94 77q-254 186 -389 62q80 94 187 92q125 -1 316 -147z" />
<glyph unicode="&#xd3;" horiz-adv-x="1199" d="M51 51h-51v-51h821q0 12 1 24q1 -12 4 -24h386v51h-386q-1 -13 -4 -27l-8 27h-761q130 19 218 149q84 126 92 294q7 158 -58 244q-33 44 -80 57q145 -21 193 -151q20 -56 20 -119q26 60 71 119q133 172 315 145q76 -11 154 -57l-143 -6q-139 -14 -259 -104 q-63 -49 -131 -123q146 -29 254 -128q138 -126 129 -296q0 -12 -2 -24h-12q-45 137 -119 228q-86 109 -253 217l-7 -7q-5 -56 -27 -118q-54 -152 -173 -243q-85 -65 -182 -77h-2zM1199 -267q-125 -27 -240 51q-95 63 -127 157q-10 30 -11 59h5q25 -82 180 -168zM174 435 q-132 23 -161 113q-23 74 30 150t142 93q19 4 37 4q-82 -1 -124 -81q-39 -76 -17 -163q22 -85 93 -116zM223 795h-1h1zM223 795h1h-1z" />
<glyph unicode="&#xde;" d="M1172 468q-24 -51 -166 -90q-117 -32 -175 -23q-11 1 -16 5q-165 19 -235 -8q-30 -11 -63 -39q-46 -50 -87 -89l-24 -26q22 20 85 53q105 55 181 61q38 3 136 -19q49 -11 64 -9q141 18 229 84q57 44 71 100zM1189 662q-28 -60 -104 -126q-76 -65 -105 -48q-175 20 -245 4 q-60 -14 -122 -71l-51 -56q22 15 66 37q95 47 168 53q38 3 130 -19q45 -10 62 -8q149 19 201 234zM1192 800q-36 -76 -49 -97q-89 -138 -283 -135q-90 9 -192 -89q-17 -15 -55 -58l-14 -13q-24 -23 -61 -64q7 9 24 21l-27 -31l-18 -21q-24 -19 -50 -47q21 22 -37 -42 q-59 -56 -109 -88q-108 -72 -230 -85h-33q147 26 330 222q36 39 168 195q99 117 141 138q13 6 23 6q39 1 217 29l23 3q74 10 122 53l86 83zM0 0h1320v51h-1229q-27 -3 -55 -3q11 1 22 3h-58v-51zM406 198l-8 -9q3 4 8 9z" />
<glyph unicode="&#xe0;" d="M1172 468q-24 -51 -166 -90q-117 -32 -175 -23q-11 1 -16 5q-165 19 -235 -8q-30 -11 -63 -39q-46 -50 -87 -89l-24 -26q22 20 85 53q105 55 181 61q38 3 136 -19q49 -11 64 -9q141 18 229 84q57 44 71 100zM1189 662q-28 -60 -104 -126q-76 -65 -105 -48q-175 20 -245 4 q-60 -14 -122 -71l-51 -56q22 15 66 37q95 47 168 53q38 3 130 -19q45 -10 62 -8q149 19 201 234zM1192 800q-36 -76 -49 -97q-89 -138 -283 -135q-90 9 -192 -89q-17 -15 -55 -58l-14 -13q-24 -23 -61 -64q7 9 24 21l-27 -31l-18 -21q-24 -19 -50 -47q21 22 -37 -42 q-59 -56 -109 -88q-108 -72 -230 -85h-33q147 26 330 222q36 39 168 195q99 117 141 138q13 6 23 6q39 1 217 29l23 3q74 10 122 53l86 83zM56 36l564 -20l700 -16v51h-1229q-27 -3 -55 -3q11 1 22 3h-58zM406 198l-8 -9q3 4 8 9z" />
<glyph unicode="&#xe1;" d="M0 0l92 32l128 68l-220 -40v-60zM946 51l-101 76q-203 144 -333 143q-109 -1 -188 -94q141 129 411 -63q31 -22 82 -62l136 -111q100 -82 124 -87q81 -11 106 -2q12 4 23 5q56 32 86 73q8 11 9 17l-43 -26q-16 -6 -70 -10l-108 22zM44 72q206 72 276 188q22 36 67 138 q42 95 86 135q26 22 59 39q177 45 293 37q128 -9 430 -146q11 -5 21 -11q-300 95 -337 89q-186 -28 -342 -28q-3 0 -5 -1q-83 -22 -133 -106q-3 -5 -54 -107q-46 -91 -123 -159q-51 -45 -238 -68z" />
<glyph unicode="&#xe2;" d="M418 194l-18 -18q3 5 11 12q-80 -67 -159 -99q-73 -30 -154 -38h-39q185 31 424 293l158 185q58 67 79 83q79 57 196 78q9 1 16 2q111 14 185 -16q37 -15 87 -48q-176 27 -243 18q-46 -5 -125 -34q-80 -39 -183 -159l-129 -154l-17 -16l-88 -88q22 18 70 47 q106 64 183 70q38 3 136 -19q45 -10 64 -9q253 17 341 84q57 44 71 100q-27 -57 -166 -90q-150 -36 -287 -23q-11 1 -16 5q-151 17 -210 -5q-35 -13 -81 -56l-2 -2q-52 -58 -103 -102l-3 -3zM59 51h-59l40 -3q9 1 19 3zM98 51q-27 -3 -54 -3l480 -32l796 -16v51h-1222z M40 48h4h-8h4z" />
<glyph unicode="&#xe3;" horiz-adv-x="752" d="M90 46l34 -4l40 -9l60 -23q1 -2 31 -11q53 -17 156 -55q112 -41 182 -34q54 4 70 10l43 26q-1 -6 -9 -17q-30 -41 -86 -73q-11 -1 -23 -5q-25 -9 -106 2q-45 11 -80 28q-40 19 -141 49t-180 50t-81 20v51z" />
<glyph unicode="&#xe4;" d="M958 51l-105 84q-190 146 -316 147q-66 1 -122 -34l-3 -2l-2 -1l-15 -11q-23 -19 -45 -44q142 131 389 -62q133 -104 157 -133l53 -46q102 -90 128 -96q81 -11 106 -2q12 4 23 5q56 32 86 73q8 11 9 17l-43 -26q-16 -6 -70 -10q-65 -5 -136 50zM1084 639v1v-1zM1084 639 q-34 -169 -132 -267q-77 -76 -184 -89q-241 9 -292 -3q-26 -7 -61 -32l-5 -3l-15 -11q-19 -13 -35 -23l35 49q73 90 149 72q97 2 262 11q10 1 18 1q100 46 208 205q47 70 52 90zM143 78l-7 -2l-18 -3q-50 -10 -118 -22q151 40 225 93t72 118q-2 71 -74 132l-7 6 q-97 65 -204 104q-11 4 -12 8l85 -14q70 -16 175 -58q80 -67 100 -147q29 -120 -116 -188zM143 78l-25 -5l-118 -22v-51l244 105q-30 -12 -101 -27z" />
<glyph unicode="&#xe5;" horiz-adv-x="1268" d="M174 435q-132 23 -161 113q-23 74 30 150t142 93q19 4 36 4q-82 -1 -123 -81q-39 -76 -17 -163q22 -85 93 -116zM871 51l-77 58q-203 144 -333 143q-109 -1 -188 -94q134 122 411 -63q23 -16 59 -44l67 -54l92 -75q105 -87 124 -87q81 -11 106 -2q12 4 23 5q56 32 86 73 q8 11 9 17l-43 -26q-16 -6 -70 -10q-47 -5 -165 83zM221 795h1h-1zM222 795zM53 51h-2h-51v-51l104 16l72 32l47 36l50 74l-8 -5q-15 -13 -30 -25q-41 -31 -84 -50l-3 -2l-4 -1q-44 -18 -91 -24zM53 51q32 5 62 16zM144 75l-29 -8q90 35 156 133q84 126 92 294 q7 158 -58 244q-33 44 -80 57q145 -21 193 -151q22 -61 19 -131q18 65 57 133q88 151 214 158q168 10 366 -243q-241 163 -357 176q-96 10 -163 -70q-42 -50 -122 -203q-7 -45 -24 -93q-47 -132 -143 -218l-114 -75z" />
<glyph unicode="&#xe6;" horiz-adv-x="1207" d="M434 480l17 10l-15 10q0 -10 -2 -20zM1199 54q-256 -12 -405 94q-61 44 -147 146q-90 106 -132 145q-25 22 -50 41q-15 -5 -32 -9q-7 -48 -25 -100q-54 -152 -173 -243q-85 -65 -182 -77q130 19 218 149q84 126 92 294q7 158 -58 244q-33 44 -80 57q145 -21 193 -151 q24 -66 19 -143q10 -2 21 -6q85 57 105 72q195 148 91 228q67 1 89 -48q25 -54 -26 -122q-70 -91 -233 -140q60 -27 135 -93l153 -140q165 -143 326 -182q49 -12 101 -16zM174 435q-132 23 -161 113q-23 74 30 150t142 93q19 4 37 4q-82 -1 -124 -81q-39 -76 -17 -163 q22 -85 93 -116zM0 0h1212v51h-1159h-2h-51v-51zM223 795h-1h1zM223 795h1h-1z" />
<glyph unicode="&#xe9;" d="M1301 -54l-43 -26q-16 -6 -70 -10q-47 -5 -160 85l-6 5h298v51h-362l-105 84q-191 146 -316 147q-107 2 -187 -92q135 124 389 -62q34 -25 94 -77h-833v-51h891l58 -51q102 -89 128 -96q81 -11 106 -2q12 4 23 5q56 32 86 73q8 11 9 17zM48 54q221 93 351 285 q88 130 96 244q5 65 -23 89q-113 92 -284 88l-168 -12q148 40 218 45q140 9 266 -61q59 -33 52 -145q-9 -132 -99 -268q-116 -174 -300 -239q-53 -18 -109 -26z" />
<glyph unicode="&#xec;" d="M1172 468q-24 -51 -166 -90q-117 -32 -175 -23q-11 1 -16 5q-165 19 -235 -8q-30 -11 -63 -39q-46 -50 -87 -89l-24 -26q22 20 85 53q105 55 181 61q38 3 136 -19q49 -11 64 -9q141 18 229 84q57 44 71 100zM1189 662q-28 -60 -104 -126q-76 -65 -105 -48q-175 20 -245 4 q-60 -14 -122 -71l-51 -56q22 15 66 37q95 47 168 53q38 3 130 -19q45 -10 62 -8q149 19 201 234zM1192 800q-36 -76 -49 -97q-89 -138 -283 -135q-90 9 -192 -89q-17 -15 -55 -58l-14 -13q-24 -23 -61 -64q7 9 24 21l-27 -31l-18 -21q-24 -19 -50 -47q21 22 -37 -42 q-59 -56 -109 -88q-103 -68 -217 -84q2 0 4 -1h-17h-1q-27 -3 -54 -3q11 1 22 3h-58v-51q31 27 32 28q38 18 58 23h-32q147 26 330 222q36 39 168 195q99 117 141 138q13 6 23 6q39 1 217 29l23 3q74 10 122 53l86 83zM406 198l-8 -9q3 4 8 9z" />
<glyph unicode="&#xed;" horiz-adv-x="1207" d="M436 481l15 9l-13 9zM1199 54q-256 -12 -405 94q-61 44 -147 146q-90 106 -132 145q-25 22 -50 41q-14 -4 -30 -8q-7 -49 -27 -101q-99 -230 -179 -291q-77 -58 -164 -74h-6q121 23 206 146q88 130 98 342q7 158 -58 244q-33 44 -80 57q145 -21 193 -151q25 -69 20 -144 q10 -2 20 -5q85 57 105 72q195 148 91 228q67 1 89 -48q25 -54 -26 -122q-70 -91 -233 -140q60 -27 135 -93l153 -140q165 -143 326 -182q49 -12 101 -16zM174 435q-132 23 -161 113q-23 74 30 150t142 93q19 4 37 4q-82 -1 -124 -81q-39 -76 -17 -163q22 -85 93 -116zM0 0 h1212v51l-1147 -45q-32 -6 -65 -6zM0 0q31 0 59 6l-65 -3zM223 795h-1h1zM223 795h1h-1z" />
<glyph unicode="&#xf3;" horiz-adv-x="1199" d="M51 51h-51v-51h821q0 12 1 24q1 -12 4 -24h386v51h-386q-1 -13 -4 -27l-8 27h-761q130 19 218 149q84 126 92 294q7 158 -58 244q-33 44 -80 57q145 -21 193 -151q20 -56 20 -119q26 60 71 119q133 172 315 145q76 -11 154 -57l-143 -6q-139 -14 -259 -104 q-63 -49 -131 -123q146 -29 254 -128q138 -126 129 -296q0 -12 -2 -24h-12q-45 137 -119 228q-86 109 -253 217l-7 -7q-5 -56 -27 -118q-54 -152 -173 -243q-85 -65 -182 -77h-2zM1199 -267q-125 -27 -240 51q-95 63 -127 157q-10 30 -11 59h5q25 -82 180 -168zM174 435 q-132 23 -161 113q-23 74 30 150t142 93q19 4 37 4q-82 -1 -124 -81q-39 -76 -17 -163q22 -85 93 -116zM223 795h-1h1zM223 795h1h-1z" />
<glyph unicode="&#xfe;" d="M1172 468q-24 -51 -166 -90q-117 -32 -175 -23q-11 1 -16 5q-165 19 -235 -8q-30 -11 -63 -39q-46 -50 -87 -89l-24 -26q22 20 85 53q105 55 181 61q38 3 136 -19q49 -11 64 -9q141 18 229 84q57 44 71 100zM1189 662q-28 -60 -104 -126q-76 -65 -105 -48q-175 20 -245 4 q-60 -14 -122 -71l-51 -56q22 15 66 37q95 47 168 53q38 3 130 -19q45 -10 62 -8q149 19 201 234zM1192 800q-36 -76 -49 -97q-89 -138 -283 -135q-90 9 -192 -89q-17 -15 -55 -58l-14 -13q-24 -23 -61 -64q7 9 24 21l-27 -31l-18 -21q-24 -19 -50 -47q21 22 -37 -42 q-59 -56 -109 -88q-108 -72 -230 -85h-33q147 26 330 222q36 39 168 195q99 117 141 138q13 6 23 6q39 1 217 29l23 3q74 10 122 53l86 83zM0 0h1320v51h-1229q-27 -3 -55 -3q11 1 22 3h-58v-51zM406 198l-8 -9q3 4 8 9z" />
<glyph unicode="&#x14c;" horiz-adv-x="1840" d="M664 -76q202 -68 306 76h202l16 36q0 -19 -2 -36h670v51h-38l6 -3q-17 1 -34 3h-789l6 13l5 11l-4 -4l5 7q30 73 46 192q1 4 1 6q9 47 47 124q18 37 21 56l-68 -63q-29 -32 -72 -113q-29 -145 -78 -229h-910v-51h60q51 0 103 -2l-20 2h731q-9 -10 -18 -18 q-77 -70 -192 -58zM1056 -240q-119 -30 -211 -3q-47 14 -101 43q-58 53 -290 126q-180 56 -291 72q202 -10 419 -56q156 -33 214 -66q249 -156 376 123v1h14q-14 -191 -130 -240zM48 54q254 24 438 151q33 23 50 39q9 118 -54 116q-42 -2 -87 -49q-26 -26 -27 -43 q2 73 57 118q24 18 46 23q72 44 190 60q162 23 254 -29q79 -45 73 -136q-7 -41 -28 -64q-61 -67 -296 -136q172 84 251 177l9 11q8 104 -133 133q-115 24 -265 -6q-20 -4 -35 -8q16 0 31 -7q65 -29 59 -158q0 -7 -1 -14q-119 -159 -532 -178zM1013 78q119 173 307 204 q16 2 112 10q77 -6 138 -55l102 -91q65 -53 146 -95h-28q-113 14 -205 81l-78 59q-41 26 -79 25q-210 0 -358 -94q-39 -25 -58 -47z" />
<glyph unicode="&#x14d;" horiz-adv-x="1840" d="M664 -76q202 -68 306 76h202l16 36q0 -19 -2 -36h670v51h-38l6 -3q-17 1 -34 3h-789l6 13l5 11l-4 -4l5 7q30 73 46 192q1 4 1 6q9 47 47 124q18 37 21 56l-68 -63q-29 -32 -72 -113q-29 -145 -78 -229h-910v-51h60q51 0 103 -2l-20 2h731q-9 -10 -18 -18 q-77 -70 -192 -58zM1056 -240q-119 -30 -211 -3q-47 14 -101 43q-58 53 -290 126q-180 56 -291 72q202 -10 419 -56q156 -33 214 -66q249 -156 376 123v1h14q-14 -191 -130 -240zM48 54q254 24 438 151q33 23 50 39q9 118 -54 116q-42 -2 -87 -49q-26 -26 -27 -43 q2 73 57 118q24 18 46 23q72 44 190 60q162 23 254 -29q79 -45 73 -136q-7 -41 -28 -64q-61 -67 -296 -136q172 84 251 177l9 11q8 104 -133 133q-115 24 -265 -6q-20 -4 -35 -8q16 0 31 -7q65 -29 59 -158q0 -7 -1 -14q-119 -159 -532 -178zM1013 78q119 173 307 204 q16 2 112 10q77 -6 138 -55l102 -91q65 -53 146 -95h-28q-113 14 -205 81l-78 59q-41 26 -79 25q-210 0 -358 -94q-39 -25 -58 -47z" />
<glyph unicode="&#x152;" horiz-adv-x="1199" d="M51 51h-51v-51h821q0 12 1 24q1 -12 4 -24h386v51h-386q-1 -13 -4 -27l-8 27h-761q130 19 218 149q84 126 92 294q7 158 -58 244q-33 44 -80 57q145 -21 193 -151q20 -56 20 -119q26 60 71 119q133 172 315 145q76 -11 154 -57l-143 -6q-139 -14 -259 -104 q-63 -49 -131 -123q146 -29 254 -128q138 -126 129 -296q0 -12 -2 -24h-12q-45 137 -119 228q-86 109 -253 217l-7 -7q-5 -56 -27 -118q-54 -152 -173 -243q-85 -65 -182 -77h-2zM1199 -267q-125 -27 -240 51q-95 63 -127 157q-10 30 -11 59h5q25 -82 180 -168zM174 435 q-132 23 -161 113q-23 74 30 150t142 93q19 4 37 4q-82 -1 -124 -81q-39 -76 -17 -163q22 -85 93 -116zM223 795h-1h1zM223 795h1h-1z" />
<glyph unicode="&#x153;" horiz-adv-x="1199" d="M51 51h-51v-51h821q0 12 1 24q1 -12 4 -24h386v51h-386q-1 -13 -4 -27l-8 27h-761q130 19 218 149q84 126 92 294q7 158 -58 244q-33 44 -80 57q145 -21 193 -151q20 -56 20 -119q26 60 71 119q133 172 315 145q76 -11 154 -57l-143 -6q-139 -14 -259 -104 q-63 -49 -131 -123q146 -29 254 -128q138 -126 129 -296q0 -12 -2 -24h-12q-45 137 -119 228q-86 109 -253 217l-7 -7q-5 -56 -27 -118q-54 -152 -173 -243q-85 -65 -182 -77h-2zM1199 -267q-125 -27 -240 51q-95 63 -127 157q-10 30 -11 59h5q25 -82 180 -168zM174 435 q-132 23 -161 113q-23 74 30 150t142 93q19 4 37 4q-82 -1 -124 -81q-39 -76 -17 -163q22 -85 93 -116zM223 795h-1h1zM223 795h1h-1z" />
<glyph unicode="&#x190;" d="M1301 -54l-43 -26q-16 -6 -70 -10q-47 -5 -160 85l-6 5h298v51h-362l-105 84q-191 146 -316 147q-107 2 -187 -92q135 124 389 -62q34 -25 94 -77h-833v-51h891l58 -51q102 -89 128 -96q81 -11 106 -2q12 4 23 5q56 32 86 73q8 11 9 17zM48 54q221 93 351 285 q88 130 96 244q5 65 -23 89q-113 92 -284 88l-168 -12q148 40 218 45q140 9 266 -61q59 -33 52 -145q-9 -132 -99 -268q-116 -174 -300 -239q-53 -18 -109 -26z" />
<glyph unicode="&#x1a9;" horiz-adv-x="2079" d="M2047 -4q-84 -77 -192 -275l-102 -188q-80 -139 -148 -173q-151 -74 -324 -87q-18 -39 -43 -76q-87 -127 -258 -207q60 40 124 134q48 71 78 146q-79 1 -162 14l-35 6q-112 13 -216 71l-34 19q-66 56 -210 225q-142 166 -215 235q-135 126 -258 153q23 -3 46 -7 q92 -29 164 -66q52 -28 106 -71q130 -103 352 -344q118 -110 245 -125q112 -25 245 -20q22 93 16 191q-15 223 -182 435q53 1 126 -88q96 -118 134 -279q32 -135 8 -250q241 30 353 150q26 34 145 218q108 167 171 221q35 29 66 38zM1048 52q-79 0 -186 63l-110 65 q-94 50 -176 48q-67 3 -114 -30l-67 -50q-110 -73 -343 -96q249 68 367 186l13 14l8 5q114 102 280 283q118 110 245 125q144 32 323 14h2q22 -132 -11 -266q-43 -173 -162 -304q-35 -38 -63 -58h-1054v-51h48l50 -14q81 -18 164 -66q104 -52 166 -120q105 -66 227 -40 q34 8 37 8q9 4 89 74q159 138 263 158q-79 0 -186 -63l-110 -65q-94 -50 -176 -48q-67 -3 -114 30l-67 50q-110 73 -343 96h996h1076v51h-75q-83 76 -190 273l-102 188q-80 139 -148 173q-121 59 -256 79q-12 31 -26 61q-62 130 -141 191q-38 30 -67 29q106 -135 151 -272 q-118 8 -246 -12l-35 -6q-112 -13 -216 -71l-34 -19q-66 -56 -210 -225q-142 -166 -215 -235q-135 -126 -258 -153q153 17 316 144l51 42l21 19q102 60 219 35q34 -8 37 -8q9 -4 89 -74q159 -138 263 -158zM1047 -3q264 -134 380 -375q101 -119 214 -79l50 19q9 9 83 130 q131 214 219 278q26 19 50 27q-79 0 -186 -63l-110 -65q-94 -50 -176 -48q-67 -3 -114 30l-67 50q-110 73 -343 96zM1047 -3q264 -72 380 -200q105 -66 227 -40q34 8 37 8q9 5 89 74q108 94 190 133q-40 -27 -84 -81l-130 -175q-88 -109 -163 -110q-6 0 -13 1 q-65 -2 -112 53q-6 8 -60 85q-75 107 -171 168q-81 51 -190 84zM2041 51h-3q4 -1 9 -2q-10 0 -20 2h-9q-69 9 -157 61l-110 65q-94 50 -176 48q-67 3 -114 -30l-67 -50q-105 -70 -324 -94h-12q259 72 373 198q105 66 227 40q34 -8 37 -8q9 -5 89 -74q107 -93 190 -133 q-40 27 -84 81q-10 12 -94 131q-84 116 -144 149q-33 19 -67 20q-63 5 -111 -53q-9 -11 -65 -94q-79 -117 -168 -176q-78 -51 -183 -81h-3q118 56 195 132q109 110 135 262q18 108 -6 221q190 -37 286 -140q11 -14 30 -42q7 -7 38 -58l78 -119q88 -135 140 -190 q24 -25 46 -41q23 -17 44 -25zM2041 51l6 -2q-14 0 -29 2h-948q-9 -1 -19 -2l4 2q111 57 195 132q115 103 181 241q101 119 214 79l50 -19l38 -58l45 -72q98 -161 173 -237q17 -19 32 -31q30 -25 58 -35z" />
<glyph unicode="&#x1b7;" d="M1301 -54l-43 -26q-16 -6 -70 -10q-47 -5 -160 85l-6 5h298v51h-362l-105 84q-190 146 -316 147q-66 1 -122 -34l-3 -2l-2 -1l-15 -11q-23 -19 -45 -44q135 124 389 -62q34 -25 94 -77h-833v-51h891l58 -51q102 -89 128 -96q81 -11 106 -2q12 4 23 5q56 32 86 73 q8 11 9 17zM48 54q255 81 249 208q-2 69 -74 132l-7 6q-103 69 -204 104q-11 4 -12 8l85 -14q70 -16 175 -58q80 -67 100 -147q29 -121 -116 -188q-76 -35 -196 -51zM1084 639v1v-1zM1084 639q-34 -169 -132 -267q-77 -76 -184 -89q-241 9 -292 -3q-26 -7 -61 -32l-5 -3 l-15 -11q-19 -13 -35 -23l35 49q73 90 149 72q97 2 262 11q10 1 18 1q100 46 208 205q47 70 52 90z" />
<glyph unicode="&#x25b;" d="M1301 -54l-43 -26q-16 -6 -70 -10q-47 -5 -160 85l-6 5h298v51h-362l-105 84q-191 146 -316 147q-107 2 -187 -92q135 124 389 -62q34 -25 94 -77h-833v-51h891l58 -51q102 -89 128 -96q81 -11 106 -2q12 4 23 5q56 32 86 73q8 11 9 17zM48 54q221 93 351 285 q88 130 96 244q5 65 -23 89q-113 92 -284 88l-168 -12q148 40 218 45q140 9 266 -61q59 -33 52 -145q-9 -132 -99 -268q-116 -174 -300 -239q-53 -18 -109 -26z" />
<glyph unicode="&#x283;" horiz-adv-x="2079" d="M2047 -4q-84 -77 -192 -275l-102 -188q-80 -139 -148 -173q-151 -74 -324 -87q-18 -39 -43 -76q-87 -127 -258 -207q60 40 124 134q48 71 78 146q-79 1 -162 14l-35 6q-112 13 -216 71l-34 19q-66 56 -210 225q-142 166 -215 235q-135 126 -258 153q23 -3 46 -7 q92 -29 164 -66q52 -28 106 -71q130 -103 352 -344q118 -110 245 -125q112 -25 245 -20q22 93 16 191q-15 223 -182 435q53 1 126 -88q96 -118 134 -279q32 -135 8 -250q241 30 353 150q26 34 145 218q108 167 171 221q35 29 66 38zM1048 52q-79 0 -186 63l-110 65 q-94 50 -176 48q-67 3 -114 -30l-67 -50q-110 -73 -343 -96q249 68 367 186l13 14l8 5q114 102 280 283q118 110 245 125q144 32 323 14h2q22 -132 -11 -266q-43 -173 -162 -304q-35 -38 -63 -58h-1054v-51h48l50 -14q81 -18 164 -66q104 -52 166 -120q105 -66 227 -40 q34 8 37 8q9 4 89 74q159 138 263 158q-79 0 -186 -63l-110 -65q-94 -50 -176 -48q-67 -3 -114 30l-67 50q-110 73 -343 96h996h1076v51h-75q-83 76 -190 273l-102 188q-80 139 -148 173q-121 59 -256 79q-12 31 -26 61q-62 130 -141 191q-38 30 -67 29q106 -135 151 -272 q-118 8 -246 -12l-35 -6q-112 -13 -216 -71l-34 -19q-66 -56 -210 -225q-142 -166 -215 -235q-135 -126 -258 -153q153 17 316 144l51 42l21 19q102 60 219 35q34 -8 37 -8q9 -4 89 -74q159 -138 263 -158zM1047 -3q264 -134 380 -375q101 -119 214 -79l50 19q9 9 83 130 q131 214 219 278q26 19 50 27q-79 0 -186 -63l-110 -65q-94 -50 -176 -48q-67 -3 -114 30l-67 50q-110 73 -343 96zM1047 -3q264 -72 380 -200q105 -66 227 -40q34 8 37 8q9 5 89 74q108 94 190 133q-40 -27 -84 -81l-130 -175q-88 -109 -163 -110q-6 0 -13 1 q-65 -2 -112 53q-6 8 -60 85q-75 107 -171 168q-81 51 -190 84zM2041 51h-3q4 -1 9 -2q-10 0 -20 2h-9q-69 9 -157 61l-110 65q-94 50 -176 48q-67 3 -114 -30l-67 -50q-105 -70 -324 -94h-12q259 72 373 198q105 66 227 40q34 -8 37 -8q9 -5 89 -74q107 -93 190 -133 q-40 27 -84 81q-10 12 -94 131q-84 116 -144 149q-33 19 -67 20q-63 5 -111 -53q-9 -11 -65 -94q-79 -117 -168 -176q-78 -51 -183 -81h-3q118 56 195 132q109 110 135 262q18 108 -6 221q190 -37 286 -140q11 -14 30 -42q7 -7 38 -58l78 -119q88 -135 140 -190 q24 -25 46 -41q23 -17 44 -25zM2041 51l6 -2q-14 0 -29 2h-948q-9 -1 -19 -2l4 2q111 57 195 132q115 103 181 241q101 119 214 79l50 -19l38 -58l45 -72q98 -161 173 -237q17 -19 32 -31q30 -25 58 -35z" />
<glyph unicode="&#x292;" d="M1301 -54l-43 -26q-16 -6 -70 -10q-47 -5 -160 85l-6 5h298v51h-362l-105 84q-190 146 -316 147q-66 1 -122 -34l-3 -2l-2 -1l-15 -11q-23 -19 -45 -44q135 124 389 -62q34 -25 94 -77h-833v-51h891l58 -51q102 -89 128 -96q81 -11 106 -2q12 4 23 5q56 32 86 73 q8 11 9 17zM48 54q255 81 249 208q-2 69 -74 132l-7 6q-103 69 -204 104q-11 4 -12 8l85 -14q70 -16 175 -58q80 -67 100 -147q29 -121 -116 -188q-76 -35 -196 -51zM1084 639v1v-1zM1084 639q-34 -169 -132 -267q-77 -76 -184 -89q-241 9 -292 -3q-26 -7 -61 -32l-5 -3 l-15 -11q-19 -13 -35 -23l35 49q73 90 149 72q97 2 262 11q10 1 18 1q100 46 208 205q47 70 52 90z" />
<glyph unicode="&#x334;" horiz-adv-x="0" d="M-64 283q0 -53 -33 -94q-36 -42 -89 -42q-49 0 -121 57t-114 57q-68 0 -87 -64q-1 -5 -4 -15l-3 -14q-6 -21 -14 -21q-15 0 -15 28q0 54 35 95t88 41q49 0 121 -57t114 -57q46 0 68 29q13 16 24 55q8 30 17 30q13 0 13 -28z" />
<glyph unicode="&#x384;" horiz-adv-x="1445" d="M1175 696v1v2v1v2v1v2v1v2v1v2v1v2v1v2v1v2v1v2v1v2v1v2v1v1v2l-1 1v2v1v2v1v2v1v2v1v2v1v2v1v2v1v1v2v1v2l-1 1v2v1v2v1v2v1v2v1v1v2v1l-1 2v1v2v1v2v1v2v1v2v1l-1 1v2v1v2v1v2v1v2v1l-1 1v2v1v2v1v2v1l-1 2v1v2v1v1v2v1l-1 2v1v2v1v1v2v1l-1 2v1v2v1v2v1l-1 1v2v1v2v1 l-1 2v1v1v2v1l-1 2v1v2v1v1l-1 2v1v2v1v2l-1 1v1v2v1v2l-1 1v1v2v1l-1 2v1v2v1l-1 1v2v1v2l-1 1v1v2v1l-1 2v1v2v1l-1 1v2v1l-1 2v1v1v2l-1 1v2v1l-1 1v2v1v2l-1 1v1v2l-1 1v2v1l-1 1v2v1l-1 2v1v1l-1 2v1v1l-1 2v1v2l-1 1v1v2l-1 1v2v1l-1 1v2v1l-1 1v2l-1 1v2v1l-1 1v2v1 l-1 1v2l-1 1v2v1l-1 1v2l-1 1v1l-1 2v1v2l-1 1v1l-1 2v1l-1 1v2v1l-1 1v2l-1 1v2l-1 1v1l-1 2v1v1l-1 2v1l-1 1v2l-1 1v1l-1 2v1l-1 1v2l-1 1v1l-1 2v1l-1 1v2l-1 1v1l-1 2v1l-1 1l-1 2v1l-1 1v2l-1 1v1l-1 2v1l-1 1l-1 2v1l-1 1v2l-1 1v1l-1 2l-1 1v1l-1 2v1l-1 1l-1 2v1 l-1 1v1l-1 2l-1 1v1l-1 2l-1 1v1l-1 2v1l-1 1l-1 2v1l-1 1l-1 1v2l-1 1l-1 1v2l-1 1l-1 1v1l-1 2l-1 1l-1 1v2l-1 1l-1 1v1l-1 2l-1 1l-1 1v2l-1 1l-1 1l-1 1v2l-1 1l-1 1l-1 1v2l-1 1l-1 1l-1 1l-1 2v1l-1 1l-1 1l-1 2v1l-1 1l-1 1l-1 1l-1 2v1l-1 1l-1 1l-1 1l-1 1v2l-1 1 l-1 1l-1 1l-1 1v1l-1 2l-1 1l-1 1l-1 1v1l-1 1l-1 1l-1 1l-1 1l-1 2v1l-1 1l-1 1l-1 1l-1 1v1l-1 1l-1 1l-1 1l-1 1l-1 1v1l-1 1l-1 1l-1 1l-1 1l-1 1l-1 1v1l-1 1l-1 1l-1 1v1l-1 1h-1l-1 1v1l-1 1l-1 1l-1 1l-1 1l-1 1l-1 1v1l-1 1l-1 1l-1 1l-1 1l-1 1l-1 1l-1 1l-1 1v1 l-1 1l-1 1h-1l-1 1l-1 1l-1 1l-1 1l-1 1v1l-1 1l-1 1h-1l-1 1l-1 1l-1 1l-1 1l-1 1l-1 1l-1 1l-1 1l-1 1l-1 1l-1 1h-1v1h-1l-1 1l-1 1l-1 1l-1 1l-1 1l-1 1l-1 1h-1l-1 1l-1 1l-1 1l-1 1l-1 1h-1l-1 1l-1 1l-1 1l-1 1h-1v1h-1l-1 1l-1 1l-1 1h-1l-1 1l-1 1l-1 1l-1 1h-1 l-1 1l-1 1l-1 1h-1l-1 1l-1 1h-1v1h-1l-1 1l-1 1h-1l-1 1l-1 1h-1v1h-1l-1 1l-1 1h-1l-1 1l-1 1h-1l-1 1l-1 1h-1l-1 1l-1 1h-1l-1 1l-1 1h-1l-1 1h-1l-1 1l-1 1h-1l-1 1l-1 1h-1l-1 1h-1l-1 1l-1 1h-1l-1 1h-1l-1 1q-92 54 -193 54q-99 0 -190 -53q-262 -153 -262 -591v-1 v-2v-1v-2v-1v-2v-1v-2v-1v-2v-1v-2v-1v-2v-1v-2v-1v-2v-1v-2v-1v-2v-1v-1v-2v-1v-2l1 -1v-2v-1v-2v-1v-2v-1v-2v-1v-2v-1v-2v-1v-1v-2v-1v-2v-1v-2l1 -1v-2v-1v-2v-1v-2v-1v-2v-1v-1v-2v-1v-2l1 -1v-2v-1v-2v-1v-2v-1v-1v-2v-1v-2l1 -1v-2v-1v-2v-1v-2v-1v-1v-2l1 -1v-2v-1 v-2v-1v-2v-1v-1l1 -2v-1v-2v-1v-2v-1v-2v-1l1 -1v-2v-1v-2v-1v-2v-1l1 -2v-1v-1v-2v-1v-2l1 -1v-2v-1v-1v-2v-1l1 -2v-1v-2v-1v-1l1 -2v-1v-2v-1v-2v-1l1 -1v-2v-1v-2v-1l1 -2v-1v-1v-2l1 -1v-2v-1v-2v-1l1 -1v-2v-1v-2l1 -1v-1v-2v-1v-2l1 -1v-1v-2v-1l1 -2v-1v-2v-1l1 -1 v-2v-1v-2l1 -1v-1v-2l1 -1v-2v-1v-1l1 -2v-1v-2v-1l1 -1v-2v-1l1 -2v-1v-1v-2l1 -1v-2v-1l1 -1v-2v-1l1 -2v-1v-1l1 -2v-1v-1l1 -2v-1v-2l1 -1v-1v-2l1 -1v-2v-1l1 -1v-2v-1l1 -1v-2v-1l1 -2v-1v-1l1 -2v-1l1 -1v-2v-1l1 -2v-1v-1l1 -2v-1l1 -1v-2v-1l1 -2v-1l1 -1v-2v-1 l1 -1v-2l1 -1v-1v-2l1 -1v-1l1 -2v-1l1 -2v-1l1 -1v-2v-1l1 -1v-2l1 -1v-1l1 -2v-1l1 -1v-2l1 -1v-1v-2l1 -1v-1l1 -2v-1l1 -1v-2l1 -1v-1l1 -2v-1l1 -1v-2l1 -1v-1l1 -2v-1l1 -1v-2l1 -1l1 -1v-2l1 -1v-1l1 -2v-1l1 -1v-2l1 -1v-1l1 -2l1 -1v-1l1 -2v-1l1 -1v-2l1 -1l1 -1 v-2l1 -1v-1l1 -2l1 -1v-1l1 -1v-2l1 -1l1 -1v-2l1 -1l1 -1v-2l1 -1l1 -1v-1l1 -2v-1l1 -1l1 -2v-1l1 -1l1 -1v-2l1 -1l1 -1v-2l1 -1l1 -1l1 -1v-2l1 -1l1 -1v-2l1 -1l1 -1v-1l1 -2l1 -1l1 -1v-2l1 -1l1 -1l1 -1v-2l1 -1l1 -1l1 -1v-2l1 -1l1 -1l1 -1l1 -2v-1l1 -1l1 -1l1 -2 l1 -1v-1l1 -1l1 -2l1 -1l1 -1v-1l1 -1l1 -2l1 -1l1 -1v-1l1 -1l1 -2l1 -1l1 -1v-1l1 -1l1 -1l1 -1l1 -2l1 -1v-1l1 -1l1 -1l1 -1l1 -1l1 -1v-2l1 -1l1 -1l1 -1l1 -1l1 -1l1 -1v-1l1 -1l1 -1l1 -1l1 -1l1 -2l1 -1v-1l1 -1l1 -1l1 -1l1 -1l1 -1l1 -1v-1l1 -1l1 -1l1 -1l1 -1 l1 -1l1 -1l1 -1l1 -1l1 -1l1 -1v-1h1v-1l1 -1l1 -1l1 -1l1 -1l1 -1l1 -1l1 -1l1 -1l1 -1l1 -1l1 -1l1 -1l1 -1l1 -1l1 -1l1 -1l1 -1l1 -1l1 -1l1 -1l1 -1l1 -1l1 -1l1 -1l1 -1l1 -1l1 -1l1 -1h1v-1h1l1 -1l1 -1l1 -1l1 -1l1 -1l1 -1l1 -1l1 -1h1l1 -1l1 -1l1 -1l1 -1l1 -1h1 v-1h1l1 -1l1 -1l1 -1l1 -1h1l1 -1l1 -1l1 -1l1 -1h1l1 -1l1 -1l1 -1h1v-1h1l1 -1l1 -1l1 -1h1l1 -1l1 -1h1l1 -1l1 -1l1 -1h1l1 -1l1 -1l1 -1h1l1 -1l1 -1h1l1 -1l1 -1h1l1 -1l1 -1h1l1 -1l1 -1h1l1 -1l1 -1h1l1 -1l1 -1h1l1 -1l1 -1h1l1 -1h1l1 -1q91 -56 189 -56 q90 0 184 55q267 156 267 633zM1377 669q0 -285 -183 -494q-192 -218 -472 -218t-471 219l-1 1l-1 1v1h-1v1l-1 1l-1 1l-1 1l-1 1l-1 1v1h-1v1l-1 1l-1 1l-1 1l-1 1l-1 1v1l-1 1l-1 1l-1 1l-1 1v1h-1v1l-1 1l-1 1l-1 1v1h-1v1l-1 1l-1 1l-1 1v1h-1v1l-1 1l-1 1l-1 1v1h-1v1 l-1 1l-1 1v1h-1v1l-1 1l-1 1l-1 1v1l-1 1l-1 1l-1 1v1l-1 1l-1 1v1h-1v1l-1 1l-1 1v1l-1 1l-1 1l-1 1v1l-1 1l-1 1v1h-1v1l-1 1l-1 1v1l-1 1l-1 1v1l-1 1l-1 1v1l-1 1l-1 1v1l-1 1l-1 1v1h-1v1l-1 1v1l-1 1l-1 1v1l-1 1l-1 1v1l-1 1l-1 1v1l-1 1l-1 1v1l-1 1v1h-1v1l-1 1v1 l-1 1l-1 1v1l-1 1v1h-1v1l-1 1v1l-1 1v1h-1v1l-1 1v1l-1 1v1h-1v1l-1 1v1l-1 1v1l-1 1l-1 1v1l-1 1v1l-1 1v1l-1 1l-1 1v1l-1 1v1l-1 1v1l-1 1v1l-1 1v1h-1v1l-1 1v1l-1 1v1l-1 1v1l-1 1v1l-1 1v1l-1 1l-1 1v1v1l-1 1v1l-1 1v1l-1 1v1l-1 1v1l-1 1v1l-1 1v1l-1 1v1l-1 1v1 l-1 1v1l-1 1v1l-1 1v1l-1 1v1l-1 1v1v1l-1 1v1l-1 1v1l-1 1v1l-1 1v1v1h-1v1v1l-1 1v1l-1 1v1l-1 1v1v1l-1 1v1l-1 1v1v1l-1 1v1h-1v1v1l-1 1v1v1l-1 1v1l-1 1v1v1l-1 1v1v1l-1 1v1l-1 1v1l-1 1v1v1l-1 1v1v1l-1 1v1v1l-1 1v1v1l-1 1v1v1l-1 1v1l-1 1v1v1l-1 1v1v1l-1 1v1v1 l-1 1v1v1l-1 1v1l-1 1v1v1v1l-1 1v1v1l-1 1v1v1l-1 1v1v1v1l-1 1v1l-1 1v1v1v1l-1 1v1v1v1l-1 1v1v1l-1 1v1v1v1l-1 1v1v1l-1 1v1v1v1l-1 1v1v1v1l-1 1v1v1v1l-1 1v1v1v1l-1 1v1v1l-1 1v1v1v1v1l-1 1v1v1v1l-1 1v1v1v1v1l-1 1v1v1v1l-1 1v1v1v1l-1 1v1v1v1v1l-1 1v1v1v1v1v1 l-1 1v1v1v1v1l-1 1v1v1v1v1v1l-1 1v1v1v1l-1 1v1v1v1v1v1v1l-1 1v1v1v1v1v1l-1 1v1v1v1v1v1v1l-1 1v1v1v1v1v1v1l-1 1v1v1v1v1v1v1l-1 1v1v1v1v1v1v1v1l-1 1v1v1v1v1v1v1v1v1l-1 1v1v1v1v1v1v1v1v1v1v1l-1 1v1v1v1v1v1v1v1v1v1v1v1l-1 1v1v1v1v1v1v1v1v1v1v1v1v1l-1 1v1v1v1 v1v1v1v1v1v1v1v1v1v1v1v1v1v1v1v1v1v1l-1 1v1v1v1v1v1v1v1v1v1v1v1v1v1v1v1v1v1v1v1v10q0 285 182 498l1 1l1 1l1 1l1 1v1l1 1l1 1l1 1l1 1l1 1l1 1l1 1v1h1v1l1 1l1 1l1 1l1 1l1 1l1 1l1 1l1 1l1 1v1h1v1h1v1l1 1l1 1l1 1l1 1l1 1l1 1l1 1l1 1l1 1l1 1l1 1l1 1l1 1l1 1l1 1 l1 1l1 1l1 1l1 1l1 1l1 1l1 1l1 1l1 1l1 1l1 1l1 1l1 1l1 1l1 1l1 1l1 1l1 1l1 1h1v1h1v1h1l1 1l1 1l1 1l1 1l1 1l1 1l1 1l1 1l1 1h1v1h1l1 1l1 1l1 1l1 1l1 1l1 1h1v1h1l1 1l1 1l1 1l1 1l1 1h1v1h1l1 1l1 1l1 1l1 1h1l1 1l1 1l1 1l1 1h1l1 1l1 1l1 1l1 1h1l1 1l1 1l1 1h1v1 h1l1 1l1 1l1 1h1l1 1l1 1l1 1h1l1 1l1 1h1v1h1l1 1l1 1h1l1 1l1 1l1 1h1l1 1l1 1h1l1 1l1 1h1v1h1l1 1l1 1h1l1 1l1 1h1l1 1l1 1h1l1 1l1 1h1l1 1l1 1h1l1 1h1v1h1l1 1h1l1 1l1 1h1l1 1h1v1h1l1 1h1l1 1l1 1h1l1 1h1l1 1l1 1h1l1 1h1l1 1h1v1h1l1 1h1l1 1h1l1 1h1l1 1l1 1h1 l1 1h1l1 1h1l1 1h1l1 1h1l1 1h1v1h1l1 1h1l1 1h1l1 1h1l1 1h1l1 1h1l1 1h1l1 1h1l1 1h1l1 1h1h1v1h1h1l1 1h1l1 1h1l1 1h1l1 1h1l1 1h1h1v1h1h1l1 1h1l1 1h1l1 1h1h1l1 1h1l1 1h1l1 1h1h1l1 1h1l1 1h1h1l1 1h1l1 1h1h1l1 1h1h1l1 1h1l1 1h1h1l1 1h1h1l1 1h1l1 1h1h1l1 1h1h1 l1 1h1h1l1 1h1h1l1 1h1h1l1 1h1h1l1 1h1h1l1 1h1h1h1v1h1h1h1l1 1h1h1l1 1h1h1h1l1 1h1h1l1 1h1h1h1l1 1h1h1l1 1h1h1h1l1 1h1h1h1l1 1h1h1h1l1 1h1h1h1l1 1h1h1h1h1l1 1h1h1h1l1 1h1h1h1h1l1 1h1h1h1h1v1h1h1h1h1h1l1 1h1h1h1h1l1 1h1h1h1h1l1 1h1h1h1h1h1l1 1h1h1h1h1h1 l1 1h1h1h1h1h1h1l1 1h1h1h1h1h1h1l1 1h1h1h1h1h1h1h1h1v1h1h1h1h1h1h1h1h1h1l1 1h1h1h1h1h1h1h1h1h1l1 1h1h1h1h1h1h1h1h1h1h1h1h1l1 1h1h1h1h1h1h1h1h1h1h1h1h1h1h1h1h1h1h1l1 1h1h1h1h1h1h1h1h1h1h1h1h1h1h1h1h1h1h9h1h1h2h1h1h1h1h1h1h1h1h1h1h1h1h1h1h1h1h1h1h1h1h1h1 l1 -1h13h1h1h2h1l1 -1h2h1h1h2h1h1h2h1h1l2 -1h1h1h2h1h1h2l1 -1h1h2h1h1h2h1l1 -1h2h1h1h2h1l1 -1h2h1h1h2h1l1 -1h2h1h1h2l1 -1h1h2h1h1l2 -1h1h1h2l1 -1h1h2h1l1 -1h2h1h1l2 -1h1h1h2l1 -1h1h2h1l1 -1h2h1l1 -1h2h1l1 -1h2h1h1l1 -1h1h2l1 -1h1h1h2v-1h1h1h1l2 -1h1h1 l1 -1h2h1l1 -1h1h2v-1h1h1h1l2 -1h1l1 -1h1h2l1 -1h1h1l2 -1h1l1 -1h1h2v-1h1h1l1 -1h2l1 -1h1h1l2 -1h1l1 -1h1h2l1 -1h1l1 -1h1h2l1 -1h1l1 -1h1l2 -1h1l1 -1h1l1 -1h2h1v-1h1h1l1 -1h2l1 -1h1l1 -1h1l2 -1h1l1 -1h1l1 -1h2l1 -1h1l1 -1h1l1 -1h2l1 -1l1 -1h1l1 -1h1l2 -1 h1l1 -1h1l1 -1h1l2 -1h1v-1h1l1 -1h1l1 -1h2l1 -1l1 -1h1l1 -1h1l2 -1h1v-1h1l1 -1h1l1 -1h2l1 -1l1 -1h1l1 -1h1l1 -1l1 -1h2l1 -1l1 -1h1l1 -1l1 -1h1l2 -1h1v-1h1l1 -1h1l1 -1l1 -1h2l1 -1l1 -1l1 -1h1l1 -1l1 -1h1l2 -1l1 -1h1l1 -1l1 -1h1l1 -1l1 -1l2 -1h1l1 -1l1 -1 h1l1 -1l1 -1l1 -1h1l1 -1l2 -1h1l1 -1l1 -1l1 -1l1 -1h1l1 -1l1 -1l2 -1h1l1 -1l1 -1l1 -1l1 -1h1l1 -1l1 -1l1 -1l1 -1h2l1 -1l1 -1l1 -1l1 -1l1 -1h1l1 -1l1 -1l1 -1l1 -1h1l2 -1l1 -1l1 -1l1 -1l1 -1l1 -1h1l1 -1l1 -1l1 -1l1 -1l1 -1l1 -1h1l2 -1l1 -1l1 -1l1 -1l1 -1 l1 -1l1 -1h1l1 -1l1 -1l1 -1l1 -1l1 -1l1 -1l1 -1l1 -1l2 -1l1 -1l1 -1l1 -1l1 -1l1 -1l1 -1l1 -1l1 -1l1 -1h1l1 -1l1 -1l1 -1l1 -1l1 -1l1 -1l1 -1l1 -1l1 -1l1 -1l1 -1l1 -1l1 -1l1 -1l1 -1l1 -1l1 -1l1 -1l1 -1l1 -1l1 -1l1 -1l1 -1l1 -1l1 -1l1 -1l1 -1l1 -1l1 -1l1 -1 l1 -1l1 -1l1 -1l1 -1l1 -1l1 -1l1 -1v-1l1 -1h1v-1l1 -1l1 -1l1 -1l1 -1l1 -1l1 -1l1 -1l1 -1l1 -1v-1l1 -1l1 -1l1 -1l1 -1l1 -1l1 -1l1 -1l1 -1v-1l1 -1l1 -1l1 -1l1 -1l1 -1v-1h1v-1l1 -1l1 -1l1 -1l1 -1v-1l1 -1l1 -1l1 -1l1 -1l1 -1v-1h1v-1l1 -1l1 -1l1 -1l1 -1v-1 l1 -1l1 -1l1 -1v-1h1v-1l1 -1l1 -1l1 -1l1 -1v-1l1 -1l1 -1l1 -1v-1l1 -1l1 -1v-1l1 -1h1v-1l1 -1l1 -1v-1l1 -1l1 -1l1 -1v-1l1 -1l1 -1l1 -1l1 -1v-1l1 -1v-1l1 -1l1 -1l1 -1l1 -1v-1l1 -1v-1l1 -1l1 -1l1 -1v-1l1 -1l1 -1v-1l1 -1l1 -1v-1l1 -1l1 -1v-1l1 -1v-1h1l1 -1 v-1l1 -1v-1l1 -1l1 -1v-1l1 -1l1 -1v-1l1 -1l1 -1v-1l1 -1v-1l1 -1l1 -1l1 -1v-1l1 -1v-1l1 -1v-1l1 -1l1 -1l1 -1v-1l1 -1v-1l1 -1v-1l1 -1v-1h1v-1l1 -1v-1l1 -1l1 -1v-1l1 -1v-1l1 -1v-1h1v-1l1 -1v-1l1 -1v-1l1 -1v-1l1 -1v-1h1v-1l1 -1v-1l1 -1v-1l1 -1v-1l1 -1v-1 l1 -1l1 -1v-1l1 -1v-1l1 -1v-1l1 -1v-1l1 -1v-1h1v-1v-1l1 -1v-1l1 -1v-1l1 -1v-1l1 -1v-1h1v-1v-1l1 -1v-1l1 -1v-1l1 -1v-1l1 -1v-1v-1h1v-1l1 -1v-1l1 -1v-1v-1l1 -1v-1l1 -1v-1l1 -1v-1l1 -1v-1l1 -1v-1v-1l1 -1v-1l1 -1v-1l1 -1v-1l1 -1v-1v-1l1 -1v-1l1 -1v-1v-1l1 -1 v-1h1v-1v-1l1 -1v-1v-1l1 -1v-1l1 -1v-1v-1l1 -1v-1l1 -1v-1l1 -1v-1v-1l1 -1v-1v-1l1 -1v-1v-1l1 -1v-1v-1h1v-1v-1l1 -1v-1v-1l1 -1v-1v-1l1 -1v-1v-1l1 -1v-1v-1l1 -1v-1l1 -1v-1v-1l1 -1v-1v-1l1 -1v-1v-1l1 -1v-1v-1v-1l1 -1v-1l1 -1v-1v-1l1 -1v-1v-1v-1l1 -1v-1v-1 l1 -1v-1v-1v-1l1 -1v-1l1 -1v-1v-1v-1l1 -1v-1v-1v-1l1 -1v-1v-1v-1l1 -1v-1v-1l1 -1v-1v-1l1 -1v-1v-1v-1l1 -1v-1v-1v-1v-1l1 -1v-1v-1v-1l1 -1v-1v-1v-1l1 -1v-1v-1v-1l1 -1v-1v-1v-1l1 -1v-1v-1v-1v-1l1 -1v-1v-1v-1v-1l1 -1v-1v-1v-1l1 -1v-1v-1v-1v-1l1 -1v-1v-1v-1 v-1l1 -1v-1v-1v-1v-1l1 -1v-1v-1v-1v-1v-1l1 -1v-1v-1v-1v-1v-1h1v-1v-1v-1v-1v-1l1 -1v-1v-1v-1v-1v-1v-1l1 -1v-1v-1v-1v-1v-1l1 -1v-1v-1v-1v-1v-1v-1v-1l1 -1v-1v-1v-1v-1v-1v-1l1 -1v-1v-1v-1v-1v-1v-1v-1l1 -1v-1v-1v-1v-1v-1v-1v-1v-1l1 -1v-1v-1v-1v-1v-1v-1v-1v-1 v-1v-1l1 -1v-1v-1v-1v-1v-1q3 -39 3 -72z" />
<glyph unicode="&#x389;" horiz-adv-x="912" d="M780 1352q0 -90 -62 -153q-18 -18 -70 -61l-538 -440q-36 -15 -36 -48q0 -32 42 -48l590 -456q45 -34 54 -46q11 -15 16 -36q7 -25 4 -112h62q-6 213 -6 344q0 114 6 188h-62q2 -162 -56 -162q-33 0 -79 27q-70 41 -193 143l-244 204l436 374q27 10 40 10q93 0 96 -144 h62q-6 154 -6 224q0 99 6 192h-62z" />
<glyph unicode="&#x38a;" horiz-adv-x="924" d="M136 1352q0 -90 62 -153q18 -18 70 -61l538 -440q36 -15 36 -48q0 -32 -42 -48l-590 -456q-45 -34 -53 -45q-12 -15 -17 -37q-7 -25 -4 -112h-62q6 213 6 344q0 114 -6 188h62q-2 -162 56 -162q33 0 78 26q69 40 194 144l244 204l-436 374q-27 10 -40 10q-93 0 -96 -144 h-62q6 154 6 224q0 99 -6 192h62z" />
<glyph unicode="&#x38d;" horiz-adv-x="1096" d="M58 660q-6 7 -6 9zM58 660l451 -660q23 -33 31 -39q7 -4 16 -4q34 0 48 37l200 1158q33 87 117 117h1l1 1h1h1h1l1 1h1h1v1h1h1h1l1 1h1h1h1l1 1h1h1l1 1h1h1h1l1 1h1h1h1l1 1h1h1h1h1l1 1h1h1h1h1l1 1h1h1h1h1h1l1 1h1h1h1h1h1l1 1h1h1h1h1h1h1h1v1h1h1h1h1h1h1h1h1h1 l1 1h1h1h1h1h1h1h1h1h1h1h1h1h1l1 1h1h1h1h1h1h1h1h1h1h1h1h1h1h1h1h1h1v62q-93 -6 -192 -6q-69 0 -223 6v-62h2h2h2h2h2h2l2 -1h2h2h2h2h2h2l2 -1h2h2h2h2l2 -1h2h2l2 -1h2h2l2 -1h2h2l2 -1h2l2 -1h2h1l2 -1h2l2 -1h1l2 -1h2l1 -1h2l1 -1h2l1 -1h2l1 -1h2l1 -1l1 -1h2l1 -1 h1l2 -1l1 -1h1l1 -1h1l2 -1l1 -1h1l1 -1l1 -1h1l1 -1l1 -1h1l1 -1l1 -1h1l1 -1l1 -1l1 -1h1v-1l1 -1l1 -1h1l1 -1l1 -1v-1h1l1 -1v-1l1 -1h1l1 -1v-1l1 -1v-1h1l1 -1v-1l1 -1v-1h1v-1l1 -1v-1l1 -1v-1l1 -1l1 -1v-1l1 -1v-1l1 -1v-1l1 -1v-1v-1l1 -1v-1v-1l1 -1v-1v-1l1 -1 v-1v-1v-1l1 -1v-1v-1v-1v-1q2 -13 2 -19q0 -16 -9 -40l-151 -1019l-89 109q-118 134 -351 341q-71 63 -88 82z" />
<glyph unicode="&#x38e;" horiz-adv-x="855" d="M781 582q0 -41 -37 -41h-625q-39 0 -39 41t39 41h625q37 0 37 -41z" />
<glyph unicode="&#x38f;" horiz-adv-x="1124" d="M1012 643q6 -7 6 -9zM1012 643l-451 660q-23 33 -31 39q-7 4 -16 4q-34 0 -48 -37l-200 -1158q-33 -87 -117 -117h-1l-1 -1h-1h-1h-1l-1 -1h-1h-1l-1 -1h-1h-1l-1 -1h-1h-1h-1v-1h-1h-1h-1l-1 -1h-1h-1h-1l-1 -1h-1h-1h-1l-1 -1h-1h-1h-1h-1l-1 -1h-1h-1h-1h-1l-1 -1h-1 h-1h-1h-1h-1l-1 -1h-1h-1h-1h-1h-1l-1 -1h-1h-1h-1h-1h-1h-1l-1 -1h-1h-1h-1h-1h-1h-1h-1h-1h-1l-1 -1h-1h-1h-1h-1h-1h-1h-1h-1h-1h-1h-1h-1h-1l-1 -1h-1h-1h-1h-1h-1h-1h-1h-1h-1h-1h-1h-1h-1h-1h-1h-1h-1v-62q93 6 192 6q69 0 223 -6v62q-143 3 -143 97q0 16 9 40 l151 1019l89 -109q118 -134 351 -341q71 -63 88 -82z" />
<glyph unicode="&#x390;" horiz-adv-x="1156" d="M92 0q-1 -5 6 -6q24 -4 60 25q35 28 50 69l376 1048l380 -1048q23 -74 78 -90q25 -7 30 2l-438 1309q-12 37 -48 37t-47 -43z" />
<glyph unicode="&#x3a2;" horiz-adv-x="1335" d="M1267 854v-2v-1v-2v-1l-1 -1v-2v-1l-1 -1v-1l-1 -1v-1v-1q-7 -11 -28 -11q-27 0 -33 32v1v1l-1 1v1v1v1v1l-1 1v1v1v1v1l-1 1v1v1v1l-1 1v1v1v1v1h-1v1v1v1v1l-1 1v1v1v1v1h-1v1v1v1l-1 1v1v1v1l-1 1v1v1v1v1l-1 1v1v1v1l-1 1v1v1v1l-1 1v1v1v1l-1 1v1v1l-1 1v1v1v1v1h-1 v1v1v1v1l-1 1v1v1l-1 1v1v1v1l-1 1v1v1v1l-1 1v1v1l-1 1v1v1v1v1l-1 1v1v1l-1 1v1v1v1l-1 1v1v1l-1 1v1v1v1l-1 1v1v1v1l-1 1v1v1l-1 1v1v1v1l-1 1v1v1v1l-1 1v1v1l-1 1v1v1l-1 1v1v1v1l-1 1v1v1v1l-1 1v1v1v1l-1 1v1l-1 1v1v1v1l-1 1v1v1v1l-1 1v1v1l-1 1v1v1v1l-1 1v1v1 l-1 1v1v1v1l-1 1v1v1l-1 1v1v1l-1 1v1v1v1l-1 1v1v1l-1 1v1v1l-1 1v1v1v1l-1 1v1v1q-3 6 -5 12l-1 1l-1 2v1l-1 1v1l-1 2v1l-1 1v1l-1 1v2l-1 1l-1 1v1l-1 2v1l-1 1v1l-1 1l-1 2v1l-1 1v1l-1 1l-1 2v1l-1 1v1l-1 1l-1 2v1l-1 1v1l-1 1l-1 2v1l-1 1l-1 1v1l-1 2l-1 1v1l-1 1 l-1 1v2l-1 1l-1 1v1l-1 1l-1 1v2l-1 1l-1 1v1l-1 1l-1 1v2l-1 1l-1 1l-1 1v1l-1 1l-1 2v1l-1 1l-1 1l-1 1v1l-1 2l-1 1l-1 1v1l-1 1l-1 1l-1 2l-1 1v1l-1 1l-1 1l-1 1v1l-1 2l-1 1l-1 1l-1 1l-1 1v1l-1 1l-1 2l-1 1l-1 1v1l-1 1l-1 1l-1 1l-1 1l-1 2l-1 1v1l-1 1l-1 1l-1 1 l-1 1l-1 1l-1 2l-1 1l-1 1q-30 36 -66 66q-104 85 -234 85q-104 0 -207 -50h-1l-1 -1h-1l-1 -1h-1l-1 -1h-1l-1 -1h-1l-1 -1h-1l-1 -1h-1l-1 -1h-1l-1 -1h-1l-1 -1h-1v-1h-1l-1 -1h-1l-1 -1l-1 -1h-1l-1 -1h-1l-1 -1h-1l-1 -1h-1v-1h-1l-1 -1h-1h-1v-1l-1 -1h-1l-1 -1h-1 l-1 -1h-1l-1 -1l-1 -1h-1l-1 -1l-2 -1l-1 -1h-1l-1 -1l-1 -1h-1h-1v-1l-1 -1h-1l-1 -1l-1 -1h-1l-1 -1h-1l-1 -1l-1 -1l-1 -1h-1l-1 -1l-1 -1h-1l-1 -1h-1v-1h-1l-1 -1l-1 -1h-1v-1h-1l-1 -1l-1 -1l-1 -1h-1l-1 -1l-1 -1h-1l-1 -1l-1 -1l-1 -1l-1 -1h-1l-1 -1l-1 -1h-1v-1 h-1v-1h-1l-1 -1l-1 -1h-1v-1h-1v-1h-1l-1 -1l-1 -1h-1v-1l-1 -1h-1l-1 -1l-1 -1l-1 -1l-1 -1h-1v-1l-1 -1h-1l-1 -1v-1h-1l-1 -1l-1 -1l-1 -1l-1 -1h-1v-1l-1 -1h-1l-1 -1l-1 -1l-1 -1v-1h-1l-1 -1l-1 -1l-1 -1l-1 -1l-1 -1l-1 -1l-1 -1l-1 -1l-1 -1l-1 -1l-1 -1l-1 -1 l-1 -1l-1 -1l-1 -1l-1 -1l-1 -1l-1 -1l-1 -1v-1h-1l-1 -1v-1h-1l-1 -1v-1h-1v-1l-1 -1h-1v-1l-1 -1l-1 -1l-1 -1v-1h-1l-1 -1v-1h-1v-1l-1 -1h-1v-1l-1 -1l-1 -1v-1h-1v-1h-1v-1l-1 -1l-1 -1l-1 -1v-1h-1v-1l-1 -1h-1v-1l-1 -1v-1h-1v-1l-1 -1l-1 -1l-1 -1v-1l-1 -1l-1 -1 v-1h-1l-1 -1v-1l-1 -1l-1 -1v-1l-1 -1l-1 -1l-1 -1v-1h-1v-1l-1 -1v-1h-1v-1l-1 -1v-1h-1v-1l-1 -1v-1h-1v-1l-1 -1l-1 -1v-1l-1 -1l-1 -1v-1l-1 -1l-1 -1v-1l-1 -1l-1 -1v-1l-1 -1l-1 -1v-1l-1 -1l-1 -1v-1v-1h-1v-1l-1 -1v-1h-1v-1l-1 -1v-1l-1 -1l-1 -1v-1v-1h-1v-1 l-1 -1v-1h-1v-1l-1 -1v-1l-1 -1v-1l-1 -1v-1h-1v-1v-1h-1v-1v-1h-1v-1l-1 -1v-1l-1 -1v-1l-1 -1v-1l-1 -1v-1l-1 -1v-1l-1 -1l-1 -1v-1v-1h-1v-1l-1 -1v-1v-1h-1v-1l-1 -1v-1v-1h-1v-1v-1l-1 -1v-1h-1v-1v-1l-1 -1v-1l-1 -1v-1l-1 -1v-1l-1 -1v-1v-1l-1 -1l-1 -1v-1v-1 l-1 -1v-1l-1 -1v-1v-1l-1 -1v-1l-1 -1v-1v-1h-1v-1v-1l-1 -1v-1l-1 -1v-1l-1 -1v-1v-1h-1v-1v-1l-1 -1v-1v-1l-1 -1v-1v-1l-1 -1v-1l-1 -1v-1v-1l-1 -1v-1l-1 -1v-1v-1l-1 -1v-1v-1l-1 -1v-1v-1l-1 -1v-1l-1 -1v-1v-1v-1l-1 -1v-1l-1 -1v-1v-1v-1l-1 -1v-1l-1 -1v-1v-1v-1 l-1 -1v-1l-1 -1v-1v-1v-1l-1 -1v-1v-1l-1 -1v-1v-1v-1h-1v-1v-1l-1 -1v-1v-1v-1l-1 -1v-1v-1l-1 -1v-1v-1v-1h-1v-1v-1v-1v-1l-1 -1v-1v-1l-1 -1v-1v-1v-1l-1 -1v-1v-1l-1 -1v-1v-1v-1v-1l-1 -1v-1v-1l-1 -1v-1v-1v-1v-1l-1 -1v-1v-1v-1l-1 -1v-1v-1v-1l-1 -1v-1v-1v-1 l-1 -1v-1v-1v-1v-1l-1 -1v-1v-1v-1v-1l-1 -1v-1v-1v-1v-1l-1 -1v-1v-1v-1l-1 -1v-1v-1v-1v-1v-1h-1v-1v-1v-1v-1v-1l-1 -1v-1v-1v-1v-1l-1 -1v-1v-1v-1v-1v-1l-1 -1v-1v-1v-1v-1l-1 -1v-1v-1v-1v-1v-1v-1l-1 -1v-1v-1v-1v-1v-1l-1 -1v-1v-1v-1v-1v-1v-1l-1 -1v-1v-1v-1v-1 v-1l-1 -1v-1v-1v-1v-1v-1v-1v-1l-1 -1v-1v-1v-1v-1v-1v-1v-1l-1 -1v-1v-1v-1v-1v-1v-1v-1l-1 -1v-1v-1v-1v-1v-1v-1v-1v-1l-1 -1v-1v-1v-1v-1v-1v-1v-1v-1v-1l-1 -1v-1v-1v-1v-1v-1v-1v-1v-1v-1v-1l-1 -1v-1v-1v-1v-1v-1v-1v-1v-1v-1v-1v-1v-1l-1 -1v-1v-1v-1v-1v-1v-1v-1 v-1v-1v-1v-1v-1v-1l-1 -1v-1v-1v-1v-1v-1v-1v-1v-1v-1v-1v-1v-1v-1v-1v-1v-1v-1l-1 -1v-1v-1v-1v-1v-1v-1v-1v-1v-1v-1v-1v-1v-1v-1v-1v-1v-1v-1v-1v-1v-1v-1v-1v-1v-1l-1 -1v-1v-1v-1v-1v-1v-1v-1v-1v-1v-1v-1v-1v-1v-1v-1v-1v-1v-1v-1v-1v-1v-1v-1v-1v-1v-1v-1v-1v-9 q0 -476 322 -614q96 -41 185 -41h20h1l1 1h1h1h1h1h2h1h1h1h1h1h1h2h1v1h1h1h1h1h1h2h1h1h1l1 1h1h1h1h1h2h1l1 1h1h1h1h1h1h2l1 1h1h1h1h1h1l1 1h2h1h1h1l1 1h1h1h1h1l2 1h1h1h1l1 1h1h1h1h1l1 1h2h1h1l1 1h1h1h1l1 1h1h1h2l1 1h1h1l1 1h1h1h1l1 1h1h1l1 1h2h1h1l1 1h1l1 1 h1h1h1l1 1h1h1l1 1h2h1l1 1h1l1 1h1h1l1 1h1h1l1 1h1l1 1h1h2l1 1h1h1l1 1h1l1 1h1l1 1h1h1l1 1h1l1 1h1h1l2 1h1l1 1h1l1 1h1l1 1h1l1 1h1l1 1h1h1l1 1h1l1 1h1l1 1h1l1 1h2l1 1h1l1 1h1l1 1h1l1 1l1 1h1l1 1h1l1 1h1l1 1h1l1 1h1l1 1h1l1 1l1 1h1l1 1h1l1 1h1l1 1l1 1h2 l1 1h1l1 1l1 1h1l1 1h1l1 1l1 1h1l1 1h1l1 1l1 1h1v1h1l1 1l1 1h1l1 1h1l1 1l1 1h1l1 1l1 1l1 1h1l1 1l1 1h1l1 1l1 1h1l1 1l1 1h1l1 1l1 1l1 1l2 1q59 43 99 99l1 1v1l1 1l1 1v1h1l1 1v1l1 1l1 1v1l1 1v1l1 1l1 1v1h1v1l1 1l1 1v1l1 1v1l1 1l1 1v1l1 1v1l1 1v1h1l1 1v1l1 1 v1l1 1v1l1 1v1l1 1v1l1 1l1 1v1l1 1v1h1v1l1 1v1l1 1v1l1 1v1l1 1v1l1 1v1l1 1v1l1 1v1l1 1v1v1l1 1l1 1v1l1 1v1l1 1v1l1 1v1v1l1 1v1l1 1v1l1 1v1v1l1 1v1l1 1v1l1 1v1v1l1 1v1l1 1v1v1l1 1v1l1 1v1v1l1 1v1l1 1v1l1 1v1v1l1 1v1v1l1 1v1v1l1 1v1v1l1 1v1v1l1 1v1v1l1 2v1 l1 1v1v1v1h1v1v1v1h1v1v1v1h1v1v1v1v1h1v1v1v1h1v1v1v1v1h1v1v1v1v1l1 1v1v1v1l1 1v1v1v1l1 1v1v1v1l1 1v1v1v1l1 1v1v1v1v1l1 1v1v1v1v1l1 1v1v1v1v1l1 1v1v1v1l1 1v1v1v1v1v1l1 1v1v1v1v1v1l1 1v1v1v1v1v1l1 1v1v1v1v1l1 1v1v1v1v1v1v1l1 1v1v1v1v1v1l1 1v1v1v1v1v1v1l1 1 v1v1v1v1v1v1v1l1 1v1v1v1v1v1v1l1 1v1v1v1v1v1v1v1l1 1v1v1v1v1v1v1v1l1 1v1v1v2q4 33 23 33q24 0 24 -35v-1v-1v-1v-2v-1v-1v-1v-1v-1v-2v-1v-1v-1v-1v-1v-2q-1 -9 -1 -18v-2v-1l-1 -1v-1v-1v-1v-1v-2v-1v-1v-1v-1l-1 -1v-1v-2v-1v-1v-1v-1v-1l-1 -1v-2v-1v-1v-1v-1v-1 l-1 -1v-2v-1v-1v-1v-1l-1 -1v-1v-2v-1v-1l-1 -1v-1v-1v-1v-1v-2l-1 -1v-1v-1v-1l-1 -1v-1v-1v-2v-1l-1 -1v-1v-1v-1l-1 -1v-1v-2v-1l-1 -1v-1v-1v-1l-1 -1v-1v-2v-1l-1 -1v-1v-1v-1l-1 -1v-1v-2l-1 -1v-1v-1v-1l-1 -1v-1v-1l-1 -1v-2v-1l-1 -1v-1v-1l-1 -1v-1v-1l-1 -1v-2 v-1l-1 -1v-1v-1l-1 -1v-1v-1l-1 -1v-1l-1 -2v-1v-1l-1 -1v-1v-1l-1 -1v-1l-1 -1v-2v-1l-1 -1v-1l-1 -1v-1v-1l-1 -1v-1l-1 -1v-1l-1 -2v-1v-1l-1 -1v-1l-1 -1v-1l-1 -1v-1l-1 -1v-1l-1 -2v-1v-1l-1 -1v-1l-1 -1v-1l-1 -1v-1l-1 -1v-1l-1 -2v-1l-1 -1v-1l-1 -1v-1l-1 -1v-1 l-1 -1l-1 -1v-1l-1 -1v-1l-1 -2v-1l-1 -1v-1l-1 -1v-1l-1 -1l-1 -1v-1l-1 -1v-1l-1 -1v-1l-1 -1l-1 -2v-1l-1 -1v-1l-1 -1l-1 -1v-1l-1 -1l-1 -1v-1l-1 -1v-1l-1 -1l-1 -2v-1l-1 -1l-1 -1v-1l-1 -1l-1 -1v-1l-1 -1l-1 -1v-1l-1 -1l-1 -1v-1l-1 -1l-1 -1v-2l-1 -1l-1 -1v-1 l-1 -1l-1 -1l-1 -1v-1l-1 -1l-1 -1l-1 -1v-1l-1 -1l-1 -1v-1l-1 -1l-1 -1l-1 -1v-1l-1 -1l-1 -1l-1 -2l-1 -1v-1l-1 -1l-1 -1l-1 -1v-1l-1 -1l-1 -1l-1 -1l-1 -1l-1 -1v-1l-1 -1l-1 -1l-1 -1l-1 -1v-1l-1 -1l-1 -1l-1 -1l-1 -1l-1 -1l-1 -1v-1l-1 -2l-1 -1l-1 -1l-1 -1 l-1 -1l-1 -1l-1 -1v-1l-1 -1l-1 -1l-1 -1l-1 -1l-1 -1l-1 -1l-1 -1l-1 -1l-1 -1l-1 -1l-1 -1l-1 -1v-1l-1 -1l-1 -1l-1 -1l-1 -1l-1 -1l-1 -1l-1 -1l-1 -1l-1 -1l-1 -1l-1 -1l-1 -1l-1 -1l-1 -1l-1 -1l-1 -1l-1 -1l-1 -1l-1 -1l-1 -1l-1 -1l-1 -1l-1 -1l-1 -1 q-154 -148 -360 -148q-288 0 -488 215q-196 211 -196 501v1v1v1v2v1v1v1v1v1v2v1v1v1v1v1v1v2v1v1v1v1v1v1v2v1l1 1v1v1v1v1v2v1v1v1v1v1v2v1v1v1v1v1v1l1 2v1v1v1v1v1v1v1v2v1v1v1v1l1 1v1v2v1v1v1v1v1v1v2l1 1v1v1v1v1v1v1v2v1l1 1v1v1v1v1v2v1l1 1v1v1v1v1v1v2l1 1v1v1v1 v1v1v2l1 1v1v1v1v1v1l1 1v2v1v1v1v1l1 1v1v1v2v1l1 1v1v1v1v1v1l1 1v2v1v1v1l1 1v1v1v1l1 2v1v1v1v1l1 1v1v1v1l1 2v1v1v1v1l1 1v1v1v2l1 1v1v1v1l1 1v1v1v1l1 2v1v1v1l1 1v1v1l1 1v1v1v2l1 1v1v1l1 1v1v1v1l1 1v2v1l1 1v1v1v1l1 1v1v1l1 1v2v1l1 1v1v1l1 1v1v1l1 1v1v2l1 1 v1v1l1 1v1v1l1 1v1v1l1 2v1v1l1 1v1v1l1 1v1l1 1v1v2l1 1v1v1l1 1v1l1 1v1v1l1 1v1l1 1v2v1l1 1v1l1 1v1v1l1 1v1l1 1v2v1l1 1v1l1 1v1v1l1 1v1l1 1v1l1 1v2l1 1v1v1l1 1v1l1 1v1l1 1v1l1 1v1v1l1 2v1l1 1v1l1 1v1l1 1v1l1 1v1l1 1v1l1 2v1l1 1v1l1 1v1l1 1v1l1 1v1l1 1v1 l1 1v1l1 2v1l1 1v1l1 1v1l1 1l1 1v1l1 1v1l1 1v1l1 2v1l1 1v1l1 1l1 1v1l1 1v1l1 1v1l1 1l1 1v1l1 1v2l1 1v1l1 1l1 1v1l1 1v1l1 1l1 1v1l1 1v1l1 1l1 1v1l1 1v2l1 1l1 1v1l1 1l1 1v1l1 1v1l1 1l1 1v1l1 1l1 1v1l1 1l1 1v1l1 2l1 1v1l1 1l1 1v1l1 1l1 1v1l1 1l1 1v1l1 1l1 1 v1l1 1l1 1v1l1 1l1 1l1 1v2l1 1l1 1v1l1 1l1 1l1 1v1l1 1l1 1l1 1v1l1 1l1 1v1l1 1l1 1l1 1v1l1 1l1 1l1 1v1l1 1l1 1l1 1v2l1 1l1 1l1 1l1 1v1l1 1l1 1l1 1v1l1 1l1 1l1 1l1 1l1 1v1l1 1l1 1l1 1l1 1v1l1 1l1 1l1 1l1 1l1 1v1l1 1l1 1l1 1l1 1l1 1v1l1 1l1 1l1 1l1 1l1 1v1 l1 1l1 1l1 1l1 1l1 1l1 2l1 1v1l1 1l1 1l1 1l1 1l1 1l1 1l1 1l1 1v1l1 1l1 1l1 1l1 1l1 1l1 1l1 1l1 1l1 1q201 216 488 216q193 0 363 -169l99 144q17 25 31 25q22 0 22 -33v-503z" />
<glyph unicode="&#x3a3;" horiz-adv-x="1536" d="M1468 19q-28 0 -53 4h-2l-1 1h-2h-1l-2 1h-1h-2h-1l-2 1h-1h-2l-1 1h-1h-2l-1 1h-2l-1 1h-2h-1l-2 1h-1l-2 1h-1l-2 1h-1h-2v1h-1l-2 1h-1l-2 1q-83 29 -116 116l-440 1158q-14 37 -48 37l-11 -2h-1h-1l-2 -1h-1l-1 -1h-1l-1 -1h-1l-1 -1l-1 -1h-1l-1 -1l-1 -1l-1 -1h-1 v-1l-1 -1h-1l-1 -1v-1h-1l-1 -1v-1l-1 -1l-1 -1l-1 -1v-1l-1 -1v-1h-1v-1l-1 -1l-1 -1v-1l-1 -1v-1h-1v-1v-1l-1 -1v-1l-1 -1v-1l-1 -1v-1l-1 -1v-1v-1l-1 -1v-1l-1 -1v-1l-457 -1209q-22 -57 -81 -71q-27 -7 -113 -4v-62l23 1h23l21 1h19l19 1h17h15l15 1h15h14l13 1h11h12 h11h10h10h9l9 1h9h7h8h7h7h7h6h6h6h6h9h4h4h4h4h4h2h4h2h3h3h3h3h3h3q29 -1 55 -1h2l2 -1h2h2h2h2h2h2h2h2h2h2h2h2h1l1 -1h1h1h1h1h1h1h1h1h1h1h1h1h1h1h1h1h1h1h1h1l1 -1h1h1h1h1h1h1h1h1h1h1h1h1h1h1h1l1 -1h1h1h1h1h1h1h1h1h1h1h1h1h1l1 -1h1h1h1h1h2v62 q-162 -1 -162 56q0 30 176 485l212 546l361 -950q9 -24 9 -40v-1v-2v-1v-1v-1v-2v-1v-1l-1 -1v-1v-1v-2v-1v-1v-1l-1 -1v-1v-1v-1v-1l-1 -1v-1v-1v-1l-1 -1v-1v-1l-1 -1v-1v-1l-1 -1v-1l-1 -1v-1v-1l-1 -1v-1l-1 -1v-1l-1 -1v-1h-1v-1v-1l-1 -1l-1 -1v-1h-1v-1l-1 -1v-1h-1 v-1l-1 -1l-1 -1v-1h-1v-1h-1v-1l-1 -1l-1 -1h-1v-1l-1 -1l-1 -1h-1v-1h-1v-1h-1l-1 -1l-1 -1l-1 -1h-1v-1h-1l-1 -1l-1 -1h-1v-1h-1l-1 -1h-1l-1 -1l-1 -1h-1h-1v-1h-1l-1 -1h-1l-1 -1h-1v-1h-1h-1l-1 -1h-1l-1 -1h-1l-1 -1h-1h-1v-1h-1h-1l-1 -1h-1h-1l-1 -1h-1h-1v-1h-1 h-1h-1l-1 -1h-1h-1l-1 -1h-1h-1h-1l-1 -1h-1h-1h-1l-1 -1h-1h-1h-1l-1 -1h-1h-1h-1h-1l-1 -1h-1h-1h-1h-1l-1 -1h-1h-1h-1h-1h-1l-1 -1h-1h-1h-1h-1h-1h-1l-1 -1h-1h-1h-1h-1h-1h-1h-1h-1l-1 -1h-1h-1h-1h-1h-1h-1h-1h-1h-1h-1h-1h-1h-1l-1 -1h-1h-1h-1h-1h-1h-1h-1h-1h-1 h-1h-1h-1h-1v-62q154 6 223 6q99 0 192 -6v62z" />
<glyph unicode="&#x3a4;" horiz-adv-x="1160" d="M929 464q0 199 -60 297q-85 138 -225 138q-90 0 -179 -61q-98 -67 -98 -153v-442q0 -45 30 -89q89 -130 225 -130q154 0 243 138q64 99 64 302zM220 350v927q0 43 -11 70l-1 1v2l-1 1l-1 1v2l-1 1l-1 2l-1 1v1l-1 1l-1 2l-1 1v1l-1 1l-1 1l-1 1l-1 1l-1 1v1l-1 1l-1 1 l-1 1l-1 1l-1 1h-1l-1 1v1l-1 1h-1l-1 1l-1 1h-1l-1 1l-1 1h-1l-1 1h-1l-1 1h-1l-1 1h-1l-1 1q-25 12 -120 9v67l307 23v-678q121 139 295 139q191 0 324 -148l1 -1l1 -1v-1l1 -1h1l1 -1v-1l1 -1l1 -1l1 -1l1 -1v-1h1v-1l1 -1l1 -1l1 -1l1 -1v-1h1v-1l1 -1l1 -1l1 -1l1 -1 v-1l1 -1l1 -1l1 -1l1 -1v-1l1 -1l1 -1l1 -1v-1h1l1 -1v-1l1 -1l1 -1v-1l1 -1l1 -1v-1l1 -1h1v-1l1 -1l1 -1v-1l1 -1l1 -1v-1l1 -1l1 -1l1 -1v-1l1 -1v-1h1v-1l1 -1v-1h1v-1l1 -1v-1l1 -1l1 -1v-1h1v-1l1 -1l1 -1v-1l1 -1v-1l1 -1v-1h1l1 -1v-1l1 -1v-1l1 -1v-1l1 -1v-1h1v-1 l1 -1l1 -1v-1l1 -1v-1l1 -1v-1l1 -1l1 -1v-1l1 -1v-1l1 -1v-1l1 -1v-1l1 -1l1 -1v-1l1 -1v-1l1 -1v-1l1 -1v-1l1 -1v-1l1 -1v-1l1 -1v-1l1 -1v-1l1 -1v-1l1 -1v-1l1 -1v-1l1 -1v-1l1 -1v-1l1 -1v-1v-1l1 -1v-1h1v-1v-1l1 -1v-1l1 -1v-1v-1l1 -1v-1l1 -1v-1l1 -1v-1l1 -1v-1 v-1l1 -1v-1l1 -1v-1v-1l1 -1v-1v-1h1v-1v-1l1 -1v-1l1 -1v-1v-1l1 -1v-1v-1l1 -1v-1v-1h1v-1v-1l1 -1v-1v-1l1 -1v-1v-1v-1l1 -1v-1v-1l1 -1v-1v-1h1v-1v-1v-1l1 -1v-1v-1l1 -1v-1v-1v-1l1 -1v-1v-1l1 -1v-1v-1v-1h1v-1v-1v-1l1 -1v-1v-1v-1l1 -1v-1v-1v-1l1 -1v-1v-1v-1 l1 -1v-1v-1v-1h1v-1v-1v-1v-1l1 -1v-1v-1v-1v-1l1 -1v-1v-1v-1v-1l1 -1v-1v-1v-1v-1l1 -1v-1v-1v-1v-1l1 -1v-1v-1v-1v-1l1 -1v-1v-1v-1v-1v-1v-1l1 -1v-1v-1v-1v-1v-1l1 -1v-1v-1v-1v-1v-1v-1v-1l1 -1v-1v-1v-1v-1v-1v-1v-1l1 -1v-1v-1v-1v-1v-1v-1v-1v-1l1 -1v-1v-1v-1v-1 v-1v-1v-1v-1v-1v-1v-1l1 -1v-1v-1v-1v-1v-1v-1v-1v-1v-1v-1v-1v-1v-1v-1v-1v-1v-1l1 -1v-1v-1v-1v-1v-1v-1v-1v-1v-1v-1v-1v-1v-1v-1v-9v-1v-1v-1v-2v-1v-1v-1v-1v-1v-2v-1v-1v-1v-1v-1v-2v-1v-1v-1v-1l-1 -1v-1v-2v-1v-1v-1v-1v-1v-2v-1v-1v-1v-1v-1v-1l-1 -2v-1v-1v-1v-1 v-1v-2v-1v-1v-1l-1 -1v-1v-1v-2v-1v-1v-1v-1l-1 -1v-1v-2v-1v-1v-1v-1l-1 -1v-1v-1v-2v-1v-1l-1 -1v-1v-1v-1v-2v-1l-1 -1v-1v-1v-1v-1l-1 -1v-2v-1v-1v-1l-1 -1v-1v-1v-2v-1l-1 -1v-1v-1v-1l-1 -1v-1v-2v-1v-1l-1 -1v-1v-1v-1l-1 -1v-1v-2l-1 -1v-1v-1v-1l-1 -1v-1v-1v-2 l-1 -1v-1v-1l-1 -1v-1v-1l-1 -1v-1v-2v-1l-1 -1v-1v-1l-1 -1v-1v-1l-1 -1v-2v-1l-1 -1v-1v-1l-1 -1v-1l-1 -1v-1v-1l-1 -2v-1v-1l-1 -1v-1v-1l-1 -1v-1l-1 -1v-1v-2l-1 -1v-1l-1 -1v-1v-1l-1 -1v-1l-1 -1v-1l-1 -2v-1v-1l-1 -1v-1l-1 -1v-1l-1 -1v-1l-1 -1v-1v-1l-1 -2v-1 l-1 -1v-1l-1 -1v-1l-1 -1v-1l-1 -1v-1l-1 -1v-1l-1 -2v-1l-1 -1v-1l-1 -1v-1l-1 -1v-1l-1 -1v-1l-1 -1v-1l-1 -1v-2l-1 -1l-1 -1v-1l-1 -1v-1l-1 -1v-1l-1 -1l-1 -1v-1l-1 -1v-1l-1 -1v-2l-1 -1l-1 -1v-1l-1 -1v-1l-1 -1l-1 -1v-1l-1 -1l-1 -1v-1l-1 -1v-1l-1 -1l-1 -1v-1 l-1 -2l-1 -1v-1l-1 -1l-1 -1v-1l-1 -1l-1 -1v-1l-1 -1l-1 -1v-1l-1 -1l-1 -1v-1l-1 -1l-1 -1v-1l-1 -1l-1 -1l-1 -2v-1l-1 -1l-1 -1v-1l-1 -1l-1 -1l-1 -1v-1l-1 -1l-1 -1l-1 -1l-1 -1v-1l-1 -1l-1 -1l-1 -1v-1l-1 -1l-1 -1l-1 -1l-1 -1v-1l-1 -1l-1 -1l-1 -2l-1 -1v-1 l-1 -1l-1 -1l-1 -1l-1 -1v-1l-1 -1l-1 -1l-1 -1l-1 -1l-1 -1l-1 -1v-1h-1v-1l-1 -1l-1 -1l-1 -1l-1 -1l-1 -1l-1 -1l-1 -1v-1l-1 -1l-1 -1l-1 -1l-1 -1l-1 -1l-1 -1l-1 -1l-1 -1l-1 -1l-1 -1l-1 -1l-1 -1v-1l-1 -1l-1 -1l-1 -1l-1 -1l-2 -2q-139 -143 -337 -143 q-106 0 -211 55q-177 95 -198 296z" />
<glyph unicode="&#x3a5;" horiz-adv-x="1335" d="M83 854q0 -26 31 -26q27 0 33 32v1v1l1 1v1v1v1v1l1 1v1v1v1v1l1 1v1v1v1l1 1v1v1v1v1h1v1v1v1v1l1 1v1v1v1v1h1v1v1v1l1 1v1v1v1l1 1v1v1v1v1l1 1v1v1v1l1 1v1v1v1l1 1v1v1l1 1v1v1v1v1h1v1v1v1v1l1 1v1v1l1 1v1v1v1v1h1v1v1v1l1 1v1v1v1l1 1v1v1v1l1 1v1v1l1 1v1v1v1 l1 1v1v1v1l1 1v1v1v1l1 1v1v1l1 1v1v1v1l1 1v1v1l1 1v1v1v1l1 1v1v1v1h1v1v1v1l1 1v1v1v1l1 1v1v1l1 1v1v1v1l1 1v1v1l1 1v1v1v1l1 1v1v1l1 1v1v1v1l1 1v1v1l1 1v1v1v1l1 1v1v1l1 1v1v1l1 1v1v1v1l1 1v1v1l1 1v1v1v1l1 1v1v1l1 1v1v1l1 1v1v1v1l1 1v1v1q3 6 5 12l1 1l1 2v1 l1 1v1l1 2v1l1 1v1l1 1v2l1 1l1 1v1l1 2v1l1 1v1l1 1l1 2v1l1 1v1l1 1l1 2v1l1 1v1l1 1l1 2v1l1 1v1l1 1l1 2v1l1 1l1 1v1l1 2l1 1v1l1 1l1 1v2l1 1l1 1v1l1 1l1 1v2l1 1l1 1v1l1 1l1 2v1l1 1l1 1l1 1v1l1 2l1 1l1 1v1l1 1l1 1v1l1 2l1 1l1 1l1 1v1l1 1l1 2l1 1v1l1 1l1 1 l1 1l1 2v1l1 1l1 1l1 1l1 1v1l1 2l1 1l1 1l1 1l1 1v1l1 1l1 2l1 1l1 1l1 1l1 1l1 1v1l1 1l1 1l1 2l1 1l1 1l1 1q30 36 66 66q104 85 234 85q104 0 207 -50h1l1 -1h1l1 -1h1l1 -1h1l1 -1h1l1 -1h1l1 -1h1l1 -1h1l1 -1h1l1 -1h1v-1h1l1 -1h1l1 -1l1 -1h1l1 -1h1l1 -1h1l1 -1h1 v-1h1l1 -1h1h1v-1l1 -1h1l1 -1h1l1 -1h1l1 -1l1 -1h1l1 -1l2 -1l1 -1h1l1 -1l1 -1h1h1v-1l1 -1h1l1 -1l1 -1h1l1 -1h1l1 -1l1 -1l1 -1h1l1 -1l1 -1h1l1 -1l1 -1h1v-1h1l1 -1h1l1 -1l1 -1l1 -1h1v-1h1l1 -1l1 -1l2 -1l1 -1l1 -1l1 -1h1l1 -1l1 -1h1v-1h1v-1h1l1 -1l1 -1h1v-1 h1v-1l2 -1l1 -1h1v-1l1 -1h1l1 -1l1 -1l1 -1l1 -1h1v-1l1 -1h1l1 -1v-1h1l1 -1l1 -1l1 -1l1 -1h1v-1l1 -1h1l1 -1l1 -1l1 -1v-1h1l1 -1l1 -1l1 -1l1 -1l1 -1l1 -1l1 -1l1 -1l1 -1l1 -1l1 -1l1 -1l1 -1l1 -1l1 -1l1 -1l1 -1l1 -1l1 -1v-1h1l1 -1v-1h1l1 -1v-1h1v-1l1 -1h1v-1 l1 -1l1 -1l1 -1v-1h1l1 -1v-1h1v-1l1 -1h1v-1l1 -1v-1h1l1 -1v-1h1v-1l1 -1l1 -1l1 -1v-1h1v-1l1 -1h1v-1l1 -1v-1h1v-1l1 -1l1 -1l1 -1v-1h1v-1l1 -1v-1h1l1 -1v-1l1 -1l1 -1v-1l1 -1l1 -1v-1h1v-1l1 -1v-1h1l1 -1v-1l1 -1l1 -1v-1h1v-1l1 -1v-1h1v-1l1 -1v-1h1v-1l1 -1v-1 h1v-1l1 -1v-1h1v-1l1 -1v-1h1v-1v-1l1 -1l1 -1v-1l1 -1l1 -1v-1l1 -1l1 -1v-1l1 -1v-1l1 -1v-1l1 -1l1 -1v-1l1 -1v-1l1 -1v-1l1 -1l1 -1v-1l1 -1v-1l1 -1v-1h1v-1l1 -1v-1v-1h1v-1l1 -1v-1h1v-1v-1l1 -1v-1h1v-1v-1l1 -1l1 -1v-1v-1l1 -1l1 -1v-1v-1l1 -1l1 -1v-1v-1l1 -1 l1 -1v-1v-1l1 -1v-1l1 -1v-1l1 -1v-1l1 -1v-1v-1h1v-1l1 -1v-1v-1h1v-1v-1l1 -1v-1l1 -1v-1v-1l1 -1v-1h1v-1v-1l1 -1v-1v-1h1v-1v-1l1 -1v-1l1 -1v-1v-1l1 -1v-1l1 -1v-1v-1l1 -1v-1l1 -1v-1v-1l1 -1v-1v-1l1 -1v-1v-1l1 -1v-1l1 -1v-1v-1l1 -1v-1v-1l1 -1v-1v-1l1 -1v-1 l1 -1v-1v-1v-1l1 -1v-1l1 -1v-1v-1v-1h1v-1v-1l1 -1v-1v-1v-1h1v-1v-1v-1l1 -1v-1v-1h1v-1v-1v-1l1 -1v-1v-1l1 -1v-1v-1v-1l1 -1v-1v-1l1 -1v-1v-1v-1l1 -1v-1v-1l1 -1v-1v-1v-1l1 -1v-1v-1v-1l1 -1v-1v-1v-1l1 -1v-1v-1l1 -1v-1v-1v-1v-1l1 -1v-1v-1v-1l1 -1v-1v-1v-1 l1 -1v-1v-1v-1l1 -1v-1v-1v-1v-1h1v-1v-1v-1v-1l1 -1v-1v-1v-1v-1h1v-1v-1v-1v-1l1 -1v-1v-1v-1v-1l1 -1v-1v-1v-1v-1v-1l1 -1v-1v-1v-1l1 -1v-1v-1v-1v-1v-1l1 -1v-1v-1v-1v-1l1 -1v-1v-1v-1v-1v-1v-1l1 -1v-1v-1v-1v-1l1 -1v-1v-1v-1v-1v-1v-1l1 -1v-1v-1v-1v-1v-1l1 -1 v-1v-1v-1v-1v-1v-1v-1l1 -1v-1v-1v-1v-1v-1v-1l1 -1v-1v-1v-1v-1v-1v-1v-1l1 -1v-1v-1v-1v-1v-1v-1v-1l1 -1v-1v-1v-1v-1v-1v-1v-1v-1v-1h1v-1v-1v-1v-1v-1v-1v-1v-1v-1l1 -1v-1v-1v-1v-1v-1v-1v-1v-1v-1v-1l1 -1v-1v-1v-1v-1v-1v-1v-1v-1v-1v-1v-1l1 -1v-1v-1v-1v-1v-1v-1 v-1v-1v-1v-1v-1v-1v-1l1 -1v-1v-1v-1v-1v-1v-1v-1v-1v-1v-1v-1v-1v-1v-1v-1v-1v-1v-1l1 -1v-1v-1v-1v-1v-1v-1v-1v-1v-1v-1v-1v-1v-1v-1v-1v-1v-1v-1v-1v-1v-1v-1v-1v-1v-1l1 -1v-1v-1v-1v-1v-1v-1v-1v-1v-1v-1v-1v-1v-1v-1v-1v-1v-1v-1v-1v-1v-1v-1v-1v-1v-1v-1v-1v-10 q0 -476 -322 -614q-96 -41 -185 -41h-20h-1l-1 1h-1h-1h-1h-1h-2h-1h-1h-1h-1h-1h-1h-2h-1v1h-1h-1h-1h-1h-1h-2h-1h-1h-1l-1 1h-1h-1h-1h-1h-2h-1l-1 1h-1h-1h-1h-1h-1h-2l-1 1h-1h-1h-1h-1h-1l-1 1h-2h-1h-1h-1l-1 1h-1h-1h-1h-1l-2 1h-1h-1h-1l-1 1h-1h-1h-1h-1l-1 1h-2 h-1h-1l-1 1h-1h-1h-1l-1 1h-1h-1h-2l-1 1h-1h-1l-1 1h-1h-1h-1l-1 1h-1h-1l-1 1h-2h-1h-1l-1 1h-1l-1 1h-1h-1h-1l-1 1h-1h-1l-1 1h-2h-1l-1 1h-1l-1 1h-1h-1l-1 1h-1h-1l-1 1h-1l-1 1h-1h-2l-1 1h-1h-1l-1 1h-1l-1 1h-1l-1 1h-1h-1l-1 1h-1l-1 1h-1h-1l-2 1h-1l-1 1h-1 l-1 1h-1l-1 1h-1l-1 1h-1l-1 1h-1h-1l-1 1h-1l-1 1h-1l-1 1h-1l-1 1h-2l-1 1h-1l-1 1h-1l-1 1h-1l-1 1l-1 1h-1l-1 1h-1l-1 1h-1l-1 1h-1l-1 1h-1l-1 1h-1l-1 1l-1 1h-1l-1 1h-1l-1 1h-1l-1 1l-1 1h-2l-1 1h-1l-1 1l-1 1h-1l-1 1h-1l-1 1l-1 1h-1l-1 1h-1l-1 1l-1 1h-1v1h-1 l-1 1l-1 1h-1l-1 1h-1l-1 1l-1 1h-1l-1 1l-1 1l-1 1h-1l-1 1l-1 1h-1l-1 1l-1 1h-1l-1 1l-1 1h-1l-1 1l-1 1l-1 1l-2 1q-59 43 -99 99l-1 1l-1 1v1l-1 1l-1 1v1l-1 1l-1 1v1h-1v1l-1 1v1h-1v1l-1 1v1h-1v1l-1 1v1l-1 1l-1 1v1l-1 1l-1 1v1l-1 1v1l-1 1l-1 1v1l-1 1v1l-1 1 l-1 1v1l-1 1v1l-1 1l-1 1v1l-1 1v1l-1 1v1l-1 1v1l-1 1v1h-1v1l-1 1v1l-1 1v1l-1 1v1v1l-1 1l-1 1v1l-1 1v1l-1 1v1l-1 1v1l-1 1v1l-1 1v1v1l-1 1v1l-1 1v1l-1 1v1l-1 1v1v1l-1 1v1l-1 1v1v1l-1 1v1h-1v1v1l-1 1v1l-1 1v1v1l-1 1v1l-1 1v1v1l-1 1v1v1l-1 1v1l-1 1v1v1l-1 1 v1v1l-1 1v1v1l-1 1v1v1l-1 1v1v1l-1 2v1l-1 1v1v1v1h-1v1v1v1h-1v1v1v1h-1v1v1v1v1h-1v1v1v1h-1v1v1v1v1h-1v1v1v1v1l-1 1v1v1v1l-1 1v1v1v1l-1 1v1v1v1l-1 1v1v1v1l-1 1v1v1v1v1l-1 1v1v1v1v1l-1 1v1v1v1v1l-1 1v1v1v1l-1 1v1v1v1v1v1l-1 1v1v1v1v1v1l-1 1v1v1v1v1v1l-1 1 v1v1v1v1l-1 1v1v1v1v1v1v1l-1 1v1v1v1v1v1l-1 1v1v1v1v1v1v1l-1 1v1v1v1v1v1v1v1l-1 1v1v1v1v1v1v1l-1 1v1v1v1v1v1v1v1l-1 1v1v1v1v1v1v1v1l-1 1v1v1v2q-4 33 -23 33q-24 0 -24 -35v-1v-1v-1v-2v-1v-1v-1v-1v-1v-2v-1v-1v-1v-1v-1v-2q1 -9 1 -18v-2v-1l1 -1v-1v-1v-1v-1v-2 v-1v-1v-1v-1l1 -1v-1v-2v-1v-1v-1v-1v-1l1 -1v-2v-1v-1v-1v-1v-1l1 -1v-2v-1v-1v-1v-1l1 -1v-1v-2v-1v-1l1 -1v-1v-1v-1v-1v-2l1 -1v-1v-1v-1l1 -1v-1v-1v-2v-1l1 -1v-1v-1v-1l1 -1v-1v-2v-1l1 -1v-1v-1v-1l1 -1v-1v-2v-1l1 -1v-1v-1v-1l1 -1v-1v-2l1 -1v-1v-1v-1l1 -1v-1 v-1l1 -1v-2v-1l1 -1v-1v-1l1 -1v-1v-1l1 -1v-2v-1l1 -1v-1v-1l1 -1v-1v-1l1 -1v-2l1 -1v-1v-1l1 -1v-1v-1l1 -1v-1l1 -1v-2v-1l1 -1v-1l1 -1v-1v-1l1 -1v-1l1 -1v-1l1 -2v-1v-1l1 -1v-1l1 -1v-1l1 -1v-1l1 -1v-2l1 -1v-1l1 -1v-1v-1l1 -1v-1l1 -1v-1l1 -1v-1l1 -2v-1l1 -1 v-1l1 -1v-1l1 -1l1 -1v-1l1 -1v-1l1 -1v-2l1 -1v-1l1 -1v-1l1 -1l1 -1v-1l1 -1v-1l1 -1v-1l1 -2l1 -1v-1l1 -1v-1l1 -1l1 -1v-1l1 -1v-1l1 -1l1 -1v-1l1 -1l1 -2v-1l1 -1v-1l1 -1l1 -1v-1l1 -1l1 -1v-1l1 -1l1 -1v-1l1 -1l1 -1v-2l1 -1l1 -1l1 -1v-1l1 -1l1 -1v-1l1 -1l1 -1 l1 -1v-1l1 -1l1 -1v-1l1 -1l1 -1l1 -1v-2l1 -1l1 -1l1 -1v-1l1 -1l1 -1l1 -1l1 -1v-1l1 -1l1 -1l1 -1l1 -1v-1l1 -1l1 -1l1 -1l1 -1v-1l1 -1l1 -1l1 -2l1 -1l1 -1v-1l1 -1l1 -1l1 -1l1 -1l1 -1v-1l1 -1l1 -1l1 -1l1 -1l1 -1l1 -1l1 -1l1 -1l1 -1v-1l1 -1l1 -1l1 -1l1 -1 l1 -1l1 -1l1 -1l1 -1l1 -1l1 -1l1 -1l1 -1l1 -1l1 -1v-1l1 -1l1 -1l1 -1l1 -1l1 -1l1 -1l1 -1l1 -1l1 -1l1 -1l1 -1l1 -1l1 -1l1 -1l1 -1l1 -1l1 -1l2 -2q154 -148 360 -148h1h1h1h1h1h1h1h1h1h1h1h1h1h1h1h1h1h1h1h1h1h1h1h1h1h1h1l1 1h1h1h1h1h1h1h1h1h1h1h1h1h1h1h1h1h1 h1h1l1 1h1h1h1h1h1h1h1h1h1h1h1h1l1 1h1h1h1h1h1h1h1h1h1h1l1 1h1h1h1h1h1h2h1h1l2 1h1h1h2h1h1l2 1h1h1h2h1h1l2 1h1h1h2h1l1 1h2h1h1h2v1h1h1h2h1l1 1h2h1h1h2v1h1h1h2h1l1 1h2h1h1l2 1h1h1h1l1 1h1h1h1h1l1 1h1h1h1h1l1 1h1h1h1l1 1h1h1h1l1 1h1h2h1l1 1h1h2l1 1h1h1l2 1 h1h1l1 1h2h1l1 1h1h2l1 1h1h1l2 1h1h1l1 1h2h1l1 1h1h2v1h1h1l1 1h2h1l1 1h1l2 1h1h1l1 1h2l1 1h1h1l2 1h1l1 1h1h1l2 1h1l1 1h1l1 1h1h2v1h1h1l1 1h1l2 1h1l1 1h1h1l2 1h1l1 1h1l1 1h2l1 1h1l1 1h1l2 1h1l1 1h1l1 1h2l1 1h1l1 1h1l1 1h2l1 1h1l1 1h1l1 1h2l1 1h1l1 1h1l1 1 h2l1 1l1 1h1l1 1h1l1 1h2l1 1l1 1h1l1 1h1l2 1h1l1 1l1 1h1l1 1h1l2 1h1v1h1l1 1h1l1 1h1l2 1l1 1h1l1 1l1 1h1l1 1h2l1 1l1 1h1l1 1l1 1h1l1 1h1l2 1l1 1l1 1h1l1 1h1l1 1l1 1h2l1 1l1 1l1 1h1l1 1l1 1h1l1 1l2 1h1l1 1l1 1h1l1 1l1 1l1 1h1l1 1l1 1h2l1 1l1 1l1 1h1l1 1 l1 1l1 1h1l1 1l1 1h2l1 1l1 1l1 1l1 1h1l1 1l1 1l1 1h1l1 1l2 1l1 1h1l1 1l1 1l1 1l1 1l1 1h1l1 1l1 1l1 1l1 1h1l1 1l2 1l1 1l1 1h1l1 1l1 1l1 1l1 1l1 1l1 1h1l1 1l1 1l1 1l1 1l1 1h1l2 1l1 1l1 1l1 1l1 1l1 1l1 1l1 1l1 1h1l1 1l1 1l1 1l1 1l1 1l1 1l1 1l1 1l1 1h1l1 1 l1 1l2 1l1 1l1 1l1 1l1 1l1 1l1 1l1 1l1 1l1 1l1 1l1 1h1l1 1l1 1l1 1l1 1l1 1l1 1l1 1l1 1l1 1l1 1l1 1l1 1l1 1l1 1l1 1l1 1l1 1l1 1l1 1l1 1l1 1l1 1l1 1l1 1l1 1l1 1v1l1 1l1 1l1 1l1 1l1 1l1 1l1 1l1 1l1 1l1 1q196 211 196 501v1v1v1v2v1v1v1v1v1v2v1v1v1v1v1v1v2v1v1 v1v1v1v1v2v1l-1 1v1v1v1v1v2v1v1v1v1v1v2v1v1v1v1v1v1l-1 2v1v1v1v1v1v1v1v2v1v1v1v1l-1 1v1v2v1v1v1v1v1v1v2l-1 1v1v1v1v1v1v1v2v1l-1 1v1v1v1v1v2v1l-1 1v1v1v1v1v1v2l-1 1v1v1v1v1v1v2l-1 1v1v1v1v1v1l-1 1v2v1v1v1v1l-1 1v1v1v2v1l-1 1v1v1v1v1v1l-1 1v2v1v1v1l-1 1v1 v1v1l-1 2v1v1v1v1l-1 1v1v1v1l-1 2v1v1v1v1l-1 1v1v1v2l-1 1v1v1v1l-1 1v1v1v1l-1 2v1v1v1l-1 1v1v1l-1 1v1v1v2l-1 1v1v1l-1 1v1v1v1l-1 1v2v1l-1 1v1v1v1l-1 1v1v1l-1 1v2v1l-1 1v1v1l-1 1v1v1l-1 1v1v2l-1 1v1v1l-1 1v1v1l-1 1v1v1l-1 2v1v1l-1 1v1v1l-1 1v1l-1 1v1v1 l-1 2v1v1l-1 1v1l-1 1v1v1l-1 1v1l-1 1v2v1l-1 1v1v1l-1 1v1l-1 1v1l-1 1v1v2l-1 1v1l-1 1v1v1l-1 1v1l-1 1v1l-1 1v1v1l-1 2v1l-1 1v1l-1 1v1l-1 1v1l-1 1v1v1l-1 1v2l-1 1v1l-1 1v1l-1 1v1l-1 1v1l-1 1v1l-1 1v1l-1 1v2l-1 1v1l-1 1v1l-1 1v1l-1 1v1l-1 1v1l-1 1v1l-1 1v2 l-1 1v1l-1 1v1l-1 1v1l-1 1l-1 1v1l-1 1v1l-1 1v1l-1 2v1l-1 1v1l-1 1l-1 1v1l-1 1v1l-1 1v1l-1 1l-1 1v1l-1 1v1l-1 1l-1 2v1l-1 1v1l-1 1l-1 1v1l-1 1v1l-1 1l-1 1v1l-1 1v1l-1 1l-1 1v1l-1 2l-1 1v1l-1 1v1l-1 1l-1 1v1h-1v1l-1 1v1l-1 1l-1 1v1l-1 1l-1 1v1l-1 1l-1 1v2 l-1 1l-1 1v1l-1 1l-1 1v1l-1 1l-1 1l-1 1v1l-1 1l-1 1v1l-1 1l-1 1l-1 1v1l-1 1l-1 1v1l-1 1l-1 2l-1 1v1l-1 1l-1 1v1l-1 1l-1 1l-1 1v1h-1v1l-1 1l-1 1l-1 1v1l-1 1l-1 1l-1 1v1l-1 1l-1 1l-1 1v1l-1 1l-1 1l-1 1v1l-1 1l-1 2l-1 1l-1 1v1l-1 1l-1 1l-1 1l-1 1v1l-1 1 l-1 1l-1 1l-1 1l-1 1l-1 1v1l-1 1l-1 1l-1 1l-1 1l-1 1v1l-1 1l-1 1l-1 1l-1 1l-1 1v1l-1 1l-1 1l-1 1l-1 1l-1 1l-1 1v1l-1 1l-1 1l-1 1l-1 1l-1 1l-1 1l-1 1l-1 1v1l-1 1l-1 1l-1 1l-1 1l-1 1l-1 1l-1 1l-1 1l-1 1v1l-2 2q-201 216 -488 216q-193 0 -363 -169l-99 144 q-17 25 -31 25q-22 0 -22 -33v-503z" />
<glyph unicode="&#x3a6;" horiz-adv-x="1793" d="M1726 0q-75 6 -119 6h-334q-38 0 -113 -6v61h76q63 0 87 10q2 1 3 2h1l1 1h1l1 1h1l1 1h1l1 1l1 1h1l1 1h1l1 1v1h1l1 1l1 1l1 1l1 1l1 1l1 1v1h1l1 1v1l1 1l1 1v1l1 1l1 1v1l1 1v1h1v1l1 1v1v1h1v1v1l1 1v1v1h1v1v1l1 1v1v1v1l1 1v1v1l1 1v1v1v1v1l1 1v1v1v1v1v1v1v1 l1 1v1v10v1140h-2l-483 -1245q-14 -36 -36 -36t-39 43l-476 1222h-2v-1064q0 -141 203 -140v-61l-231 6h-1h-1h-1h-1h-1h-1h-1h-2h-2h-2h-4h-4l-6 -1h-9h-15l-23 -1l-46 -1l-99 -3h-10v61h2h2h2h2h2h2h2h2h2h2h2h2h2l2 1h2h2h2h2h2h2h2l2 1h2h2h2h2l2 1h2h2h2l2 1h2h2l2 1h2 h2h2l2 1h2l1 1h3h2l2 1h1l4 1h2l1 1h2l2 1h1l2 1h1l4 1l3 1h1l2 1h1l2 1l1 1h2l1 1h1l2 1h1l1 1h1l2 1h1l1 1l2 1h1l1 1h1l1 1h2l1 1l1 1h1l1 1l1 1h1l1 1l1 1h1l1 1h1l1 1l1 1h1l1 1l1 1h1l1 1l1 1h1l1 1l1 1l1 1l1 1l1 1h1l1 1l1 1v1h1l1 1l1 1v1h1l1 1v1l1 1h1l1 1v1l1 1 h1v1l1 1v1h1l1 1v1l1 1v1h1l1 1v1l1 1v1h1v1l1 1v1l1 1v1h1v1l1 1v1l1 1v1l1 1v1l1 1v1v1l1 1v1h1v1v1l1 1v1v1l1 1v1l1 1v1v1l1 1v1v1v1l1 1v1v1l1 1v1v1v1v1l1 1v1v1v1v1l1 1v1v1v1v1v1l1 1v1v1v1v1v1v1v1v1v1l1 1v1v1v1v1v9v1003q0 22 -6 38q-5 14 -23 23l-1 1h-1l-1 1 h-1l-1 1h-1l-1 1h-1h-1h-1v1h-1h-1l-1 1h-1h-1l-1 1h-1h-1l-1 1h-1h-1h-1v1h-1h-1h-1l-1 1h-1h-1h-1l-1 1h-1h-1h-1h-1l-1 1h-1h-1h-1h-1l-1 1h-1h-1h-1h-1h-1l-1 1h-1h-1h-1h-1h-1h-1l-1 1h-1h-1h-1h-1h-1h-1h-1l-1 1h-1h-1h-1h-1h-1h-1h-2h-4h-2h-1h-1h-1h-1h-1h-1h-1h-1 h-1h-1h-1h-1h-2h-1h-2h-2l-2 1h-2h-3l-3 -1h-4h-4h-5h-5h-6h-8h-9h-11h-14h-3v62h341q45 0 61 -42l428 -1102l430 1108q14 36 49 36h349v-62q-9 0 -27.5 1t-28.5 1q-125 0 -141 -41q-6 -15 -6 -45v-1058q0 -26 8 -43q17 -36 195 -35v-61z" />
<glyph unicode="&#x3a7;" horiz-adv-x="1272" d="M1183 1284q-204 1 -204 -145v-307q-6 -24 -26 -26q-20 0 -34 20l-575 378q-12 17 -19 25v-1018v-1v-2v-1v-1v-2v-1v-1v-2v-1v-1l1 -2v-1v-1v-1v-1v-2v-1v-1l1 -1v-1v-1v-2v-1l1 -1v-1v-1v-1v-1l1 -1v-1v-1v-1l1 -1v-1v-1v-1l1 -1v-1v-1l1 -1v-1v-1l1 -1v-1v-1l1 -1v-1v-1 l1 -1v-1v-1h1v-1l1 -1v-1v-1l1 -1l1 -1v-1v-1l1 -1v-1h1v-1l1 -1v-1l1 -1v-1l1 -1l1 -1v-1l1 -1l1 -1v-1h1v-1l1 -1l1 -1v-1h1v-1l1 -1l1 -1v-1h1l1 -1v-1h1v-1h1v-1l1 -1h1v-1h1v-1h1v-1l1 -1h1v-1h1v-1h1l1 -1l1 -1h1v-1h1l1 -1l1 -1l1 -1h1v-1h1l1 -1l1 -1h1v-1h1l1 -1h1 l1 -1h1v-1h1l1 -1h1l1 -1h1v-1h1h1v-1h1l1 -1h1l1 -1h1l1 -1h1l1 -1h1l1 -1h1h1l1 -1h1l1 -1h1h1v-1h1h1l1 -1h1h1l1 -1h1h1v-1h1h1h1l1 -1h1h1l1 -1h1h1l1 -1h1h1h1v-1h1h1h1l1 -1h1h1h1l1 -1h1h1h1l1 -1h1h1h1h1l1 -1h1h1h1h1l1 -1h1h1h1h1l1 -1h1h1h1h1h1l1 -1h1h1h1h1h1 h1l1 -1h1h1h1h1h1h1h1h1l1 -1h1h1h1h1h1h1h1h1h1l1 -1h1h1h1h1h1h1h1h1h1h1h1h1h1h1h1l1 -1h1h1h1h1h1h1h1h1h1h1h1h1h1h1h1h1h1h1h1h1h1h1h1h1h1h1v-61l-93 3l-46 1l-27 1h-16h-11h-8l-5 1h-3h-3h-3h-1h-3h-1h-11h-1h-1h-1h-1h-1h-1h-1h-2h-1h-2h-3h-3h-4l-6 -1h-8h-11h-17 l-28 -1l-48 -1l-89 -3v61h2h2h2h2h2h2h2h2h2h2h2h2h2l2 1h2h2h2h2h2h2h2l2 1h2h2h2h2l2 1h2h2h2l2 1h2h2l2 1h2h2h2l2 1h2l1 1h3h2l2 1h1l4 1h2l1 1h2l2 1h1l2 1h1l4 1l3 1h1l2 1h1l2 1l1 1h2l1 1h1l2 1h1l1 1h1l2 1h1l1 1l2 1h1l1 1h1l1 1h2l1 1l1 1h1l1 1l1 1h1l1 1l1 1h1 l1 1h1l1 1l1 1h1l1 1l1 1h1l1 1l1 1h1l1 1l1 1l1 1l1 1l1 1h1l1 1l1 1v1h1l1 1l1 1v1h1l1 1v1l1 1h1l1 1v1l1 1h1v1l1 1v1h1l1 1v1l1 1v1h1l1 1v1l1 1v1h1v1l1 1v1l1 1v1h1v1l1 1v1l1 1v1l1 1v1l1 1v1v1l1 1v1h1v1v1l1 1v1v1l1 1v1l1 1v1v1l1 1v1v1v1l1 1v1v1l1 1v1v1v1v1 l1 1v1v1v1v1l1 1v1v1v1v1v1l1 1v1v1v1v1v1v1v1v1v1l1 1v1v1v1v1v9v1022q0 29 -8 35q-3 2 -13 4t-19 4l-9 1h-2h-1h-1h-1l-2 1h-1h-1h-1h-1h-1h-1h-1h-1h-1h-1h-1h-1h-1l-1 1h-1h-1h-1h-1h-1h-1h-1h-1h-1h-1h-1h-1h-1h-1h-1h-1h-1h-1h-1h-1h-1h-1l-1 1h-1h-1h-1h-1h-1h-1h-1 h-2h-1h-2h-1h-2h-2h-2h-2h-2h-2h-2h-2h-2h-2h-2h-2h-2l-3 1h-3h-3h-3h-3h-3h-3h-3h-3h-4h-4h-4h-4h-4h-4h-5h-5h-9v62h342q30 0 48 -26l462 -337l4 165v1v2v1v1v2v1v1v2v1v1l-1 1v2v1v1v1v1v2v1l-1 1v1v1v1v1l-1 1v2v1v1v1l-1 1v1v1v1l-1 1v1v1v1l-1 1v1v1l-1 1v1v1l-1 1v1 l-1 1v1v1l-1 1v1v1l-1 1l-1 1v1v1l-1 1v1h-1v1v1l-1 1v1h-1v1l-1 1v1l-1 1v1l-1 1l-1 1v1l-1 1l-1 1v1h-1v1l-1 1l-1 1v1h-1v1l-1 1l-1 1v1h-1l-1 1l-1 1v1h-1v1h-1v1l-1 1h-1v1h-1v1h-1l-1 1l-1 1v1h-1l-1 1l-1 1h-1v1h-1v1h-1l-1 1l-1 1h-1v1h-1h-1v1h-1l-1 1l-1 1h-1v1 h-1h-1v1h-1l-1 1l-1 1h-1h-1v1h-1l-1 1h-1l-1 1h-1v1h-1h-1l-1 1h-1l-1 1h-1l-1 1h-1l-1 1h-1l-1 1h-1h-1l-1 1h-1h-1v1h-1h-1l-1 1h-1h-1l-1 1h-1h-1l-1 1h-1l-1 1h-1h-1h-1l-1 1h-1h-1l-1 1h-1h-1h-1l-1 1h-1h-1l-1 1h-1h-1h-1l-1 1h-1h-1h-1h-1l-1 1h-1h-1h-1l-1 1h-1h-1 h-1h-1l-1 1h-1h-1h-1h-1h-1l-1 1h-1h-1h-1h-1h-1l-1 1h-1h-1h-1h-1h-1h-1l-1 1h-1h-1h-1h-1h-1h-1h-1h-1l-1 1h-1h-1h-1h-1h-1h-1h-1h-1h-1h-1l-1 1h-1h-1h-1h-1h-1h-1h-1h-1h-1h-1h-1h-1h-1h-1h-1l-1 1h-1h-1h-1h-1h-1h-1h-1h-1h-1h-1h-1h-1h-1h-1h-9v62q205 -6 232 -6 q26 0 230 6v-62z" />
<glyph unicode="&#x3a8;" horiz-adv-x="1335" d="M976 1340l1 -486q0 -26 -31 -26q-27 0 -33 32q-4 21 -4 141q0 31 -1 55l3 159q-4 63 -47 89l-19 16q-15 8 -70 8q-104 0 -207 -50h-1l-1 -1h-1l-1 -1h-1l-1 -1h-1l-1 -1h-1l-1 -1h-1l-1 -1h-1l-1 -1h-1l-1 -1h-1l-1 -1h-1v-1h-1l-1 -1h-1l-1 -1l-1 -1h-1l-1 -1h-1l-1 -1 h-1l-1 -1h-1v-1h-1l-1 -1h-1h-1v-1l-1 -1h-1l-1 -1h-1l-1 -1h-1l-1 -1l-1 -1h-1l-1 -1l-2 -1l-1 -1h-1l-1 -1l-1 -1h-1h-1v-1l-1 -1h-1l-1 -1l-1 -1h-1l-1 -1h-1l-1 -1l-1 -1l-1 -1h-1l-1 -1l-1 -1h-1l-1 -1h-1v-1h-1l-1 -1l-1 -1h-1v-1h-1l-1 -1l-1 -1l-1 -1h-1l-1 -1 l-1 -1h-1l-1 -1l-1 -1l-1 -1l-1 -1h-1l-1 -1l-1 -1h-1v-1h-1v-1h-1l-1 -1l-1 -1h-1v-1h-1v-1h-1l-1 -1l-1 -1h-1v-1l-1 -1h-1l-1 -1l-1 -1l-1 -1l-1 -1h-1v-1l-1 -1h-1l-1 -1v-1h-1l-1 -1l-1 -1l-1 -1l-1 -1h-1v-1l-1 -1h-1l-1 -1l-1 -1l-1 -1v-1h-1l-1 -1l-1 -1l-1 -1 l-1 -1l-1 -1l-1 -1l-1 -1l-1 -1l-1 -1l-1 -1l-1 -1l-1 -1l-1 -1l-1 -1l-1 -1l-1 -1l-1 -1l-1 -1l-1 -1v-1h-1l-1 -1v-1h-1l-1 -1v-1h-1v-1l-1 -1h-1v-1l-1 -1l-1 -1l-1 -1v-1h-1l-1 -1v-1h-1v-1l-1 -1h-1v-1l-1 -1l-1 -1v-1h-1v-1h-1v-1l-1 -1l-1 -1l-1 -1v-1h-1v-1l-1 -1 h-1v-1l-1 -1v-1h-1v-1l-1 -1l-1 -1l-1 -1v-1l-1 -1l-1 -1v-1h-1l-1 -1v-1l-1 -1l-1 -1v-1l-1 -1l-1 -1l-1 -1v-1h-1v-1l-1 -1v-1h-1v-1l-1 -1v-1h-1v-1l-1 -1v-1h-1v-1l-1 -1l-1 -1v-1l-1 -1l-1 -1v-1l-1 -1l-1 -1v-1l-1 -1l-1 -1v-1l-1 -1l-1 -1v-1l-1 -1l-1 -1v-1v-1h-1 v-1l-1 -1v-1h-1v-1l-1 -1v-1l-1 -1l-1 -1v-1v-1h-1v-1l-1 -1v-1h-1v-1l-1 -1v-1l-1 -1v-1l-1 -1v-1h-1v-1v-1h-1v-1v-1h-1v-1l-1 -1v-1l-1 -1v-1l-1 -1v-1l-1 -1v-1l-1 -1v-1l-1 -1l-1 -1v-1v-1h-1v-1l-1 -1v-1v-1h-1v-1l-1 -1v-1v-1h-1v-1v-1l-1 -1v-1h-1v-1v-1l-1 -1v-1 l-1 -1v-1l-1 -1v-1l-1 -1v-1v-1l-1 -1l-1 -1v-1v-1l-1 -1v-1l-1 -1v-1v-1l-1 -1v-1l-1 -1v-1v-1h-1v-1v-1l-1 -1v-1l-1 -1v-1l-1 -1v-1v-1h-1v-1v-1l-1 -1v-1v-1l-1 -1v-1v-1l-1 -1v-1l-1 -1v-1v-1l-1 -1v-1l-1 -1v-1v-1l-1 -1v-1v-1l-1 -1v-1v-1l-1 -1v-1l-1 -1v-1v-1v-1 l-1 -1v-1l-1 -1v-1v-1v-1l-1 -1v-1l-1 -1v-1v-1v-1l-1 -1v-1l-1 -1v-1v-1v-1l-1 -1v-1v-1l-1 -1v-1v-1v-1h-1v-1v-1l-1 -1v-1v-1v-1l-1 -1v-1v-1l-1 -1v-1v-1v-1h-1v-1v-1v-1v-1l-1 -1v-1v-1l-1 -1v-1v-1v-1l-1 -1v-1v-1l-1 -1v-1v-1v-1v-1l-1 -1v-1v-1l-1 -1v-1v-1v-1v-1 l-1 -1v-1v-1v-1l-1 -1v-1v-1v-1l-1 -1v-1v-1v-1l-1 -1v-1v-1v-1v-1l-1 -1v-1v-1v-1v-1l-1 -1v-1v-1v-1v-1l-1 -1v-1v-1v-1l-1 -1v-1v-1v-1v-1v-1h-1v-1v-1v-1v-1v-1l-1 -1v-1v-1v-1v-1l-1 -1v-1v-1v-1v-1v-1l-1 -1v-1v-1v-1v-1l-1 -1v-1v-1v-1v-1v-1v-1l-1 -1v-1v-1v-1v-1 v-1l-1 -1v-1v-1v-1v-1v-1v-1l-1 -1v-1v-1v-1v-1v-1l-1 -1v-1v-1v-1v-1v-1v-1v-1l-1 -1v-1v-1v-1v-1v-1v-1v-1l-1 -1v-1v-1v-1v-1v-1v-1v-1l-1 -1v-1v-1v-1v-1v-1v-1v-1v-1l-1 -1v-1v-1v-1v-1v-1v-1v-1v-1v-1l-1 -1v-1v-1v-1v-1v-1v-1v-1v-1v-1v-1l-1 -1v-1v-1v-1v-1v-1v-1 v-1v-1v-1v-1v-1v-1l-1 -1v-1v-1v-1v-1v-1v-1v-1v-1v-1v-1v-1v-1v-1l-1 -1v-1v-1v-1v-1v-1v-1v-1v-1v-1v-1v-1v-1v-1v-1v-1v-1v-1l-1 -1v-1v-1v-1v-1v-1v-1v-1v-1v-1v-1v-1v-1v-1v-1v-1v-1v-1v-1v-1v-1v-1v-1v-1v-1v-1l-1 -1v-1v-1v-1v-1v-1v-1v-1v-1v-1v-1v-1v-1v-1v-1v-1 v-1v-1v-1v-1v-1v-1v-1v-1v-1v-1v-1v-1v-1v-9q0 -476 322 -614q96 -41 185 -41h20h1l1 1h1h1h1h1h2h1h1h1h1h1h1h2h1v1h1h1h1h1h1h2h1h1h1l1 1h1h1h1h1h2h1l1 1h1h1h1h1h1h2l1 1h1h1h1h1h1l1 1h2h1h1h1l1 1h1h1h1h1l2 1h1h1h1l1 1h1h1h1h1l1 1h2h1h1l1 1h1h1h1l1 1h1h1h2l1 1 h1h1l1 1h1h1h1l1 1h1h1l1 1h2h1h1l1 1h1l1 1h1h1h1l1 1h1h1l1 1h2h1l1 1h1l1 1h1h1l1 1h1h1l1 1h1l1 1h1h2l1 1h1h1l1 1h1l1 1h1l1 1h1h1l1 1h1l1 1h1h1l2 1h1l1 1h1l1 1h1l1 1h1l1 1h1l1 1h1h1l1 1h1l1 1h1l1 1h1l1 1h2l1 1h1l1 1h1l1 1h1l1 1l1 1h1l1 1h1l1 1h1l1 1h1l1 1 h1l1 1h1l1 1l1 1h1l1 1h1l1 1h1l1 1l1 1h2l1 1h1l1 1l1 1h1l1 1h1l1 1l1 1h1l1 1h1l1 1l1 1h1v1h1l1 1l1 1h1l1 1h1l1 1l1 1h1l1 1l1 1l1 1h1l1 1l1 1h1l1 1l1 1h1l1 1l1 1h1l1 1l1 1l1 1l2 1q59 43 99 99l1 1v1l1 1l1 1v1h1l1 1v1l1 1l1 1v1l1 1v1l1 1l1 1v1h1v1l1 1l1 1v1 l1 1v1l1 1l1 1v1l1 1v1l1 1v1h1l1 1v1l1 1v1l1 1v1l1 1v1l1 1v1l1 1l1 1v1l1 1v1h1v1l1 1v1l1 1v1l1 1v1l1 1v1l1 1v1l1 1v1l1 1v1l1 1v1v1l1 1l1 1v1l1 1v1l1 1v1l1 1v1v1l1 1v1l1 1v1l1 1v1v1l1 1v1l1 1v1l1 1v1v1l1 1v1l1 1v1v1l1 1v1l1 1v1v1l1 1v1l1 1v1l1 1v1v1l1 1v1 v1l1 1v1v1l1 1v1v1l1 1v1v1l1 1v1v1l1 2v1l1 1v1v1v1h1v1v1v1h1v1v1v1h1v1v1v1v1h1v1v1v1h1v1v1v1v1h1v1v1v1v1l1 1v1v1v1l1 1v1v1v1l1 1v1v1v1l1 1v1v1v1l1 1v1v1v1v1l1 1v1v1v1v1l1 1v1v1v1v1l1 1v1v1v1l1 1v1v1v1v1v1l1 1v1v1v1v1v1l1 1v1v1v1v1v1l1 1v1v1v1v1l1 1v1v1v1 v1v1v1l1 1v1v1v1v1v1l1 1v1v1v1v1v1v1l1 1v1v1v1v1v1v1v1l1 1v1v1v1v1v1v1l1 1v1v1v1v1v1v1v1l1 1v1v1v1v1v1v1v1l1 1v1v1v2q4 33 23 33q24 0 24 -35v-1v-1v-1v-2v-1v-1v-1v-1v-1v-2v-1v-1v-1v-1v-1v-2q-1 -9 -1 -18v-2v-1l-1 -1v-1v-1v-1v-1v-2v-1v-1v-1v-1l-1 -1v-1v-2v-1 v-1v-1v-1v-1l-1 -1v-2v-1v-1v-1v-1v-1l-1 -1v-2v-1v-1v-1v-1l-1 -1v-1v-2v-1v-1l-1 -1v-1v-1v-1v-1v-2l-1 -1v-1v-1v-1l-1 -1v-1v-1v-2v-1l-1 -1v-1v-1v-1l-1 -1v-1v-2v-1l-1 -1v-1v-1v-1l-1 -1v-1v-2v-1l-1 -1v-1v-1v-1l-1 -1v-1v-2l-1 -1v-1v-1v-1l-1 -1v-1v-1l-1 -1v-2 v-1l-1 -1v-1v-1l-1 -1v-1v-1l-1 -1v-2v-1l-1 -1v-1v-1l-1 -1v-1v-1l-1 -1v-1l-1 -2v-1v-1l-1 -1v-1v-1l-1 -1v-1l-1 -1v-2v-1l-1 -1v-1l-1 -1v-1v-1l-1 -1v-1l-1 -1v-1l-1 -2v-1v-1l-1 -1v-1l-1 -1v-1l-1 -1v-1l-1 -1v-1l-1 -2v-1v-1l-1 -1v-1l-1 -1v-1l-1 -1v-1l-1 -1v-1 l-1 -2v-1l-1 -1v-1l-1 -1v-1l-1 -1v-1l-1 -1l-1 -1v-1l-1 -1v-1l-1 -2v-1l-1 -1v-1l-1 -1v-1l-1 -1l-1 -1v-1l-1 -1v-1l-1 -1v-1l-1 -1l-1 -2v-1l-1 -1v-1l-1 -1l-1 -1v-1l-1 -1l-1 -1v-1l-1 -1v-1l-1 -1l-1 -2v-1l-1 -1l-1 -1v-1l-1 -1l-1 -1v-1l-1 -1l-1 -1v-1l-1 -1 l-1 -1v-1l-1 -1l-1 -1v-2l-1 -1l-1 -1v-1l-1 -1l-1 -1l-1 -1v-1l-1 -1l-1 -1l-1 -1v-1l-1 -1l-1 -1v-1l-1 -1l-1 -1l-1 -1v-1l-1 -1l-1 -1l-1 -2l-1 -1v-1l-1 -1l-1 -1l-1 -1v-1l-1 -1l-1 -1l-1 -1l-1 -1l-1 -1v-1l-1 -1l-1 -1l-1 -1l-1 -1v-1l-1 -1l-1 -1l-1 -1l-1 -1 l-1 -1l-1 -1v-1l-1 -2l-1 -1l-1 -1l-1 -1l-1 -1l-1 -1l-1 -1v-1l-1 -1l-1 -1l-1 -1l-1 -1l-1 -1l-1 -1l-1 -1l-1 -1l-1 -1l-1 -1l-1 -1l-1 -1v-1l-1 -1l-1 -1l-1 -1l-1 -1l-1 -1l-1 -1l-1 -1l-1 -1l-1 -1l-1 -1l-1 -1l-1 -1l-1 -1l-1 -1l-1 -1l-1 -1l-1 -1l-1 -1l-1 -1 l-1 -1l-1 -1l-1 -1l-1 -1l-1 -1q-154 -148 -360 -148q-288 0 -488 215q-196 211 -196 501v1v1v1v2v1v1v1v1v1v2v1v1v1v1v1v1v2v1v1v1v1v1v1v2v1l1 1v1v1v1v1v2v1v1v1v1v1v2v1v1v1v1v1v1l1 2v1v1v1v1v1v1v1v2v1v1v1v1l1 1v1v2v1v1v1v1v1v1v2l1 1v1v1v1v1v1v1v2v1l1 1v1v1v1v1 v2v1l1 1v1v1v1v1v1v2l1 1v1v1v1v1v1v2l1 1v1v1v1v1v1l1 1v2v1v1v1v1l1 1v1v1v2v1l1 1v1v1v1v1v1l1 1v2v1v1v1l1 1v1v1v1l1 2v1v1v1v1l1 1v1v1v1l1 2v1v1v1v1l1 1v1v1v2l1 1v1v1v1l1 1v1v1v1l1 2v1v1v1l1 1v1v1l1 1v1v1v2l1 1v1v1l1 1v1v1v1l1 1v2v1l1 1v1v1v1l1 1v1v1l1 1v2 v1l1 1v1v1l1 1v1v1l1 1v1v2l1 1v1v1l1 1v1v1l1 1v1v1l1 2v1v1l1 1v1v1l1 1v1l1 1v1v2l1 1v1v1l1 1v1l1 1v1v1l1 1v1l1 1v2v1l1 1v1l1 1v1v1l1 1v1l1 1v2v1l1 1v1l1 1v1v1l1 1v1l1 1v1l1 1v2l1 1v1v1l1 1v1l1 1v1l1 1v1l1 1v1v1l1 2v1l1 1v1l1 1v1l1 1v1l1 1v1l1 1v1l1 2v1 l1 1v1l1 1v1l1 1v1l1 1v1l1 1v1l1 1v1l1 2v1l1 1v1l1 1v1l1 1l1 1v1l1 1v1l1 1v1l1 2v1l1 1v1l1 1l1 1v1l1 1v1l1 1v1l1 1l1 1v1l1 1v2l1 1v1l1 1l1 1v1l1 1v1l1 1l1 1v1l1 1v1l1 1l1 1v1l1 1v2l1 1l1 1v1l1 1l1 1v1l1 1v1l1 1l1 1v1l1 1l1 1v1l1 1l1 1v1l1 2l1 1v1l1 1l1 1 v1l1 1l1 1v1l1 1l1 1v1l1 1l1 1v1l1 1l1 1v1l1 1l1 1l1 1v2l1 1l1 1v1l1 1l1 1l1 1v1l1 1l1 1l1 1v1l1 1l1 1v1l1 1l1 1l1 1v1l1 1l1 1l1 1v1l1 1l1 1l1 1v2l1 1l1 1l1 1l1 1v1l1 1l1 1l1 1v1l1 1l1 1l1 1l1 1l1 1v1l1 1l1 1l1 1l1 1v1l1 1l1 1l1 1l1 1l1 1v1l1 1l1 1l1 1 l1 1l1 1v1l1 1l1 1l1 1l1 1l1 1v1l1 1l1 1l1 1l1 1l1 1l1 2l1 1v1l1 1l1 1l1 1l1 1l1 1l1 1l1 1l1 1v1l1 1l1 1l1 1l1 1l1 1l1 1l1 1l1 1l1 1q201 216 488 216l80 1l28 -3z" />
<glyph unicode="&#x3a9;" horiz-adv-x="1335" d="M83 854q0 -26 31 -26q27 0 33 32v1v1l1 1v1v1v1v1l1 1v1v1v1v1l1 1v1v1v1l1 1v1v1v1v1h1v1v1v1v1l1 1v1v1v1v1h1v1v1v1l1 1v1v1v1l1 1v1v1v1v1l1 1v1v1v1l1 1v1v1v1l1 1v1v1l1 1v1v1v1v1h1v1v1v1v1l1 1v1v1l1 1v1v1v1v1h1v1v1v1l1 1v1v1v1l1 1v1v1v1l1 1v1v1l1 1v1v1v1 l1 1v1v1v1l1 1v1v1v1l1 1v1v1l1 1v1v1v1l1 1v1v1l1 1v1v1v1l1 1v1v1v1h1v1v1v1l1 1v1v1v1l1 1v1v1l1 1v1v1v1l1 1v1v1l1 1v1v1v1l1 1v1v1l1 1v1v1v1l1 1v1v1l1 1v1v1v1l1 1v1v1l1 1v1v1l1 1v1v1v1l1 1v1v1l1 1v1v1v1l1 1v1v1l1 1v1v1l1 1v1v1v1l1 1v1v1q3 6 5 12l1 1l1 2v1 l1 1v1l1 2v1l1 1v1l1 1v2l1 1l1 1v1l1 2v1l1 1v1l1 1l1 2v1l1 1v1l1 1l1 2v1l1 1v1l1 1l1 2v1l1 1v1l1 1l1 2v1l1 1l1 1v1l1 2l1 1v1l1 1l1 1v2l1 1l1 1v1l1 1l1 1v2l1 1l1 1v1l1 1l1 2v1l1 1l1 1l1 1v1l1 2l1 1l1 1v1l1 1l1 1v1l1 2l1 1l1 1l1 1v1l1 1l1 2l1 1v1l1 1l1 1 l1 1l1 2v1l1 1l1 1l1 1l1 1v1l1 2l1 1l1 1l1 1l1 1v1l1 1l1 2l1 1l1 1l1 1l1 1l1 1v1l1 1l1 1l1 2l1 1l1 1l1 1q30 36 66 66q104 85 234 85q104 0 207 -50h1l1 -1h1l1 -1h1l1 -1h1l1 -1h1l1 -1h1l1 -1h1l1 -1h1l1 -1h1l1 -1h1v-1h1l1 -1h1l1 -1l1 -1h1l1 -1h1l1 -1h1l1 -1h1 v-1h1l1 -1h1h1v-1l1 -1h1l1 -1h1l1 -1h1l1 -1l1 -1h1l1 -1l2 -1l1 -1h1l1 -1l1 -1h1h1v-1l1 -1h1l1 -1l1 -1h1l1 -1h1l1 -1l1 -1l1 -1h1l1 -1l1 -1h1l1 -1l1 -1h1v-1h1l1 -1h1l1 -1l1 -1l1 -1h1v-1h1l1 -1l1 -1l2 -1l1 -1l1 -1l1 -1h1l1 -1l1 -1h1v-1h1v-1h1l1 -1l1 -1h1v-1 h1v-1l2 -1l1 -1h1v-1l1 -1h1l1 -1l1 -1l1 -1l1 -1h1v-1l1 -1h1l1 -1v-1h1l1 -1l1 -1l1 -1l1 -1h1v-1l1 -1h1l1 -1l1 -1l1 -1v-1h1l1 -1l1 -1l1 -1l1 -1l1 -1l1 -1l1 -1l1 -1l1 -1l1 -1l1 -1l1 -1l1 -1l1 -1l1 -1l1 -1l1 -1l1 -1l1 -1v-1h1l1 -1v-1h1l1 -1v-1h1v-1l1 -1h1v-1 l1 -1l1 -1l1 -1v-1h1l1 -1v-1h1v-1l1 -1h1v-1l1 -1v-1h1l1 -1v-1h1v-1l1 -1l1 -1l1 -1v-1h1v-1l1 -1h1v-1l1 -1v-1h1v-1l1 -1l1 -1l1 -1v-1h1v-1l1 -1v-1h1l1 -1v-1l1 -1l1 -1v-1l1 -1l1 -1v-1h1v-1l1 -1v-1h1l1 -1v-1l1 -1l1 -1v-1h1v-1l1 -1v-1h1v-1l1 -1v-1h1v-1l1 -1v-1 h1v-1l1 -1v-1h1v-1l1 -1v-1h1v-1v-1l1 -1l1 -1v-1l1 -1l1 -1v-1l1 -1l1 -1v-1l1 -1v-1l1 -1v-1l1 -1l1 -1v-1l1 -1v-1l1 -1v-1l1 -1l1 -1v-1l1 -1v-1l1 -1v-1h1v-1l1 -1v-1v-1h1v-1l1 -1v-1h1v-1v-1l1 -1v-1h1v-1v-1l1 -1l1 -1v-1v-1l1 -1l1 -1v-1v-1l1 -1l1 -1v-1v-1l1 -1 l1 -1v-1v-1l1 -1v-1l1 -1v-1l1 -1v-1l1 -1v-1v-1h1v-1l1 -1v-1v-1h1v-1v-1l1 -1v-1l1 -1v-1v-1l1 -1v-1h1v-1v-1l1 -1v-1v-1h1v-1v-1l1 -1v-1l1 -1v-1v-1l1 -1v-1l1 -1v-1v-1l1 -1v-1l1 -1v-1v-1l1 -1v-1v-1l1 -1v-1v-1l1 -1v-1l1 -1v-1v-1l1 -1v-1v-1l1 -1v-1v-1l1 -1v-1 l1 -1v-1v-1v-1l1 -1v-1l1 -1v-1v-1v-1h1v-1v-1l1 -1v-1v-1v-1h1v-1v-1v-1l1 -1v-1v-1h1v-1v-1v-1l1 -1v-1v-1l1 -1v-1v-1v-1l1 -1v-1v-1l1 -1v-1v-1v-1l1 -1v-1v-1l1 -1v-1v-1v-1l1 -1v-1v-1v-1l1 -1v-1v-1v-1l1 -1v-1v-1l1 -1v-1v-1v-1v-1l1 -1v-1v-1v-1l1 -1v-1v-1v-1 l1 -1v-1v-1v-1l1 -1v-1v-1v-1v-1h1v-1v-1v-1v-1l1 -1v-1v-1v-1v-1h1v-1v-1v-1v-1l1 -1v-1v-1v-1v-1l1 -1v-1v-1v-1v-1v-1l1 -1v-1v-1v-1l1 -1v-1v-1v-1v-1v-1l1 -1v-1v-1v-1v-1l1 -1v-1v-1v-1v-1v-1v-1l1 -1v-1v-1v-1v-1l1 -1v-1v-1v-1v-1v-1v-1l1 -1v-1v-1v-1v-1v-1l1 -1 v-1v-1v-1v-1v-1v-1v-1l1 -1v-1v-1v-1v-1v-1v-1l1 -1v-1v-1v-1v-1v-1v-1v-1l1 -1v-1v-1v-1v-1v-1v-1v-1l1 -1v-1v-1v-1v-1v-1v-1v-1v-1v-1h1v-1v-1v-1v-1v-1v-1v-1v-1v-1l1 -1v-1v-1v-1v-1v-1v-1v-1v-1v-1v-1l1 -1v-1v-1v-1v-1v-1v-1v-1v-1v-1v-1v-1l1 -1v-1v-1v-1v-1v-1v-1 v-1v-1v-1v-1v-1v-1v-1l1 -1v-1v-1v-1v-1v-1v-1v-1v-1v-1v-1v-1v-1v-1v-1v-1v-1v-1v-1l1 -1v-1v-1v-1v-1v-1v-1v-1v-1v-1v-1v-1v-1v-1v-1v-1v-1v-1v-1v-1v-1v-1v-1v-1v-1v-1l1 -1v-1v-1v-1v-1v-1v-1v-1v-1v-1v-1v-1v-1v-1v-1v-1v-1v-1v-1v-1v-1v-1v-1v-1v-1v-1v-1v-1v-10 q0 -476 -322 -614q-96 -41 -185 -41h-20h-1l-1 1h-1h-1h-1h-1h-2h-1h-1h-1h-1h-1h-1h-2h-1v1h-1h-1h-1h-1h-1h-2h-1h-1h-1l-1 1h-1h-1h-1h-1h-2h-1l-1 1h-1h-1h-1h-1h-1h-2l-1 1h-1h-1h-1h-1h-1l-1 1h-2h-1h-1h-1l-1 1h-1h-1h-1h-1l-2 1h-1h-1h-1l-1 1h-1h-1h-1h-1l-1 1h-2 h-1h-1l-1 1h-1h-1h-1l-1 1h-1h-1h-2l-1 1h-1h-1l-1 1h-1h-1h-1l-1 1h-1h-1l-1 1h-2h-1h-1l-1 1h-1l-1 1h-1h-1h-1l-1 1h-1h-1l-1 1h-2h-1l-1 1h-1l-1 1h-1h-1l-1 1h-1h-1l-1 1h-1l-1 1h-1h-2l-1 1h-1h-1l-1 1h-1l-1 1h-1l-1 1h-1h-1l-1 1h-1l-1 1h-1h-1l-2 1h-1l-1 1h-1 l-1 1h-1l-1 1h-1l-1 1h-1l-1 1h-1h-1l-1 1h-1l-1 1h-1l-1 1h-1l-1 1h-2l-1 1h-1l-1 1h-1l-1 1h-1l-1 1l-1 1h-1l-1 1h-1l-1 1h-1l-1 1h-1l-1 1h-1l-1 1h-1l-1 1l-1 1h-1l-1 1h-1l-1 1h-1l-1 1l-1 1h-2l-1 1h-1l-1 1l-1 1h-1l-1 1h-1l-1 1l-1 1h-1l-1 1h-1l-1 1l-1 1h-1v1h-1 l-1 1l-1 1h-1l-1 1h-1l-1 1l-1 1h-1l-1 1l-1 1l-1 1h-1l-1 1l-1 1h-1l-1 1l-1 1h-1l-1 1l-1 1h-1l-1 1l-1 1l-1 1l-2 1q-59 43 -99 99l-1 1l-1 1v1l-1 1l-1 1v1l-1 1l-1 1v1h-1v1l-1 1v1h-1v1l-1 1v1h-1v1l-1 1v1l-1 1l-1 1v1l-1 1l-1 1v1l-1 1v1l-1 1l-1 1v1l-1 1v1l-1 1 l-1 1v1l-1 1v1l-1 1l-1 1v1l-1 1v1l-1 1v1l-1 1v1l-1 1v1h-1v1l-1 1v1l-1 1v1l-1 1v1v1l-1 1l-1 1v1l-1 1v1l-1 1v1l-1 1v1l-1 1v1l-1 1v1v1l-1 1v1l-1 1v1l-1 1v1l-1 1v1v1l-1 1v1l-1 1v1v1l-1 1v1h-1v1v1l-1 1v1l-1 1v1v1l-1 1v1l-1 1v1v1l-1 1v1v1l-1 1v1l-1 1v1v1l-1 1 v1v1l-1 1v1v1l-1 1v1v1l-1 1v1v1l-1 2v1l-1 1v1v1v1h-1v1v1v1h-1v1v1v1h-1v1v1v1v1h-1v1v1v1h-1v1v1v1v1h-1v1v1v1v1l-1 1v1v1v1l-1 1v1v1v1l-1 1v1v1v1l-1 1v1v1v1l-1 1v1v1v1v1l-1 1v1v1v1v1l-1 1v1v1v1v1l-1 1v1v1v1l-1 1v1v1v1v1v1l-1 1v1v1v1v1v1l-1 1v1v1v1v1v1l-1 1 v1v1v1v1l-1 1v1v1v1v1v1v1l-1 1v1v1v1v1v1l-1 1v1v1v1v1v1v1l-1 1v1v1v1v1v1v1v1l-1 1v1v1v1v1v1v1l-1 1v1v1v1v1v1v1v1l-1 1v1v1v1v1v1v1v1l-1 1v1v1v2q-4 33 -23 33q-24 0 -24 -35v-1v-1v-1v-2v-1v-1v-1v-1v-1v-2v-1v-1v-1v-1v-1v-2q1 -9 1 -18v-2v-1l1 -1v-1v-1v-1v-1v-2 v-1v-1v-1v-1l1 -1v-1v-2v-1v-1v-1v-1v-1l1 -1v-2v-1v-1v-1v-1v-1l1 -1v-2v-1v-1v-1v-1l1 -1v-1v-2v-1v-1l1 -1v-1v-1v-1v-1v-2l1 -1v-1v-1v-1l1 -1v-1v-1v-2v-1l1 -1v-1v-1v-1l1 -1v-1v-2v-1l1 -1v-1v-1v-1l1 -1v-1v-2v-1l1 -1v-1v-1v-1l1 -1v-1v-2l1 -1v-1v-1v-1l1 -1v-1 v-1l1 -1v-2v-1l1 -1v-1v-1l1 -1v-1v-1l1 -1v-2v-1l1 -1v-1v-1l1 -1v-1v-1l1 -1v-2l1 -1v-1v-1l1 -1v-1v-1l1 -1v-1l1 -1v-2v-1l1 -1v-1l1 -1v-1v-1l1 -1v-1l1 -1v-1l1 -2v-1v-1l1 -1v-1l1 -1v-1l1 -1v-1l1 -1v-2l1 -1v-1l1 -1v-1v-1l1 -1v-1l1 -1v-1l1 -1v-1l1 -2v-1l1 -1 v-1l1 -1v-1l1 -1l1 -1v-1l1 -1v-1l1 -1v-2l1 -1v-1l1 -1v-1l1 -1l1 -1v-1l1 -1v-1l1 -1v-1l1 -2l1 -1v-1l1 -1v-1l1 -1l1 -1v-1l1 -1v-1l1 -1l1 -1v-1l1 -1l1 -2v-1l1 -1v-1l1 -1l1 -1v-1l1 -1l1 -1v-1l1 -1l1 -1v-1l1 -1l1 -1v-2l1 -1l1 -1l1 -1v-1l1 -1l1 -1v-1l1 -1l1 -1 l1 -1v-1l1 -1l1 -1v-1l1 -1l1 -1l1 -1v-2l1 -1l1 -1l1 -1v-1l1 -1l1 -1l1 -1l1 -1v-1l1 -1l1 -1l1 -1l1 -1v-1l1 -1l1 -1l1 -1l1 -1v-1l1 -1l1 -1l1 -2l1 -1l1 -1v-1l1 -1l1 -1l1 -1l1 -1l1 -1v-1l1 -1l1 -1l1 -1l1 -1l1 -1l1 -1l1 -1l1 -1l1 -1v-1l1 -1l1 -1l1 -1l1 -1 l1 -1l1 -1l1 -1l1 -1l1 -1l1 -1l1 -1l1 -1l1 -1l1 -1v-1l1 -1l1 -1l1 -1l1 -1l1 -1l1 -1l1 -1l1 -1l1 -1l1 -1l1 -1l1 -1l1 -1l1 -1l1 -1l1 -1l1 -1l2 -2q154 -148 360 -148h1h1h1h1h1h1h1h1h1h1h1h1h1h1h1h1h1h1h1h1h1h1h1h1h1h1h1l1 1h1h1h1h1h1h1h1h1h1h1h1h1h1h1h1h1h1 h1h1l1 1h1h1h1h1h1h1h1h1h1h1h1h1l1 1h1h1h1h1h1h1h1h1h1h1l1 1h1h1h1h1h1h2h1h1l2 1h1h1h2h1h1l2 1h1h1h2h1h1l2 1h1h1h2h1l1 1h2h1h1h2v1h1h1h2h1l1 1h2h1h1h2v1h1h1h2h1l1 1h2h1h1l2 1h1h1h1l1 1h1h1h1h1l1 1h1h1h1h1l1 1h1h1h1l1 1h1h1h1l1 1h1h2h1l1 1h1h2l1 1h1h1l2 1 h1h1l1 1h2h1l1 1h1h2l1 1h1h1l2 1h1h1l1 1h2h1l1 1h1h2v1h1h1l1 1h2h1l1 1h1l2 1h1h1l1 1h2l1 1h1h1l2 1h1l1 1h1h1l2 1h1l1 1h1l1 1h1h2v1h1h1l1 1h1l2 1h1l1 1h1h1l2 1h1l1 1h1l1 1h2l1 1h1l1 1h1l2 1h1l1 1h1l1 1h2l1 1h1l1 1h1l1 1h2l1 1h1l1 1h1l1 1h2l1 1h1l1 1h1l1 1 h2l1 1l1 1h1l1 1h1l1 1h2l1 1l1 1h1l1 1h1l2 1h1l1 1l1 1h1l1 1h1l2 1h1v1h1l1 1h1l1 1h1l2 1l1 1h1l1 1l1 1h1l1 1h2l1 1l1 1h1l1 1l1 1h1l1 1h1l2 1l1 1l1 1h1l1 1h1l1 1l1 1h2l1 1l1 1l1 1h1l1 1l1 1h1l1 1l2 1h1l1 1l1 1h1l1 1l1 1l1 1h1l1 1l1 1h2l1 1l1 1l1 1h1l1 1 l1 1l1 1h1l1 1l1 1h2l1 1l1 1l1 1l1 1h1l1 1l1 1l1 1h1l1 1l2 1l1 1h1l1 1l1 1l1 1l1 1l1 1h1l1 1l1 1l1 1l1 1h1l1 1l2 1l1 1l1 1h1l1 1l1 1l1 1l1 1l1 1l1 1h1l1 1l1 1l1 1l1 1l1 1h1l2 1l1 1l1 1l1 1l1 1l1 1l1 1l1 1l1 1h1l1 1l1 1l1 1l1 1l1 1l1 1l1 1l1 1l1 1h1l1 1 l1 1l2 1l1 1l1 1l1 1l1 1l1 1l1 1l1 1l1 1l1 1l1 1l1 1h1l1 1l1 1l1 1l1 1l1 1l1 1l1 1l1 1l1 1l1 1l1 1l1 1l1 1l1 1l1 1l1 1l1 1l1 1l1 1l1 1l1 1l1 1l1 1l1 1l1 1l1 1v1l1 1l1 1l1 1l1 1l1 1l1 1l1 1l1 1l1 1l1 1q196 211 196 501v1v1v1v2v1v1v1v1v1v2v1v1v1v1v1v1v2v1v1 v1v1v1v1v2v1l-1 1v1v1v1v1v2v1v1v1v1v1v2v1v1v1v1v1v1l-1 2v1v1v1v1v1v1v1v2v1v1v1v1l-1 1v1v2v1v1v1v1v1v1v2l-1 1v1v1v1v1v1v1v2v1l-1 1v1v1v1v1v2v1l-1 1v1v1v1v1v1v2l-1 1v1v1v1v1v1v2l-1 1v1v1v1v1v1l-1 1v2v1v1v1v1l-1 1v1v1v2v1l-1 1v1v1v1v1v1l-1 1v2v1v1v1l-1 1v1 v1v1l-1 2v1v1v1v1l-1 1v1v1v1l-1 2v1v1v1v1l-1 1v1v1v2l-1 1v1v1v1l-1 1v1v1v1l-1 2v1v1v1l-1 1v1v1l-1 1v1v1v2l-1 1v1v1l-1 1v1v1v1l-1 1v2v1l-1 1v1v1v1l-1 1v1v1l-1 1v2v1l-1 1v1v1l-1 1v1v1l-1 1v1v2l-1 1v1v1l-1 1v1v1l-1 1v1v1l-1 2v1v1l-1 1v1v1l-1 1v1l-1 1v1v1 l-1 2v1v1l-1 1v1l-1 1v1v1l-1 1v1l-1 1v2v1l-1 1v1v1l-1 1v1l-1 1v1l-1 1v1v2l-1 1v1l-1 1v1v1l-1 1v1l-1 1v1l-1 1v1v1l-1 2v1l-1 1v1l-1 1v1l-1 1v1l-1 1v1v1l-1 1v2l-1 1v1l-1 1v1l-1 1v1l-1 1v1l-1 1v1l-1 1v1l-1 1v2l-1 1v1l-1 1v1l-1 1v1l-1 1v1l-1 1v1l-1 1v1l-1 1v2 l-1 1v1l-1 1v1l-1 1v1l-1 1l-1 1v1l-1 1v1l-1 1v1l-1 2v1l-1 1v1l-1 1l-1 1v1l-1 1v1l-1 1v1l-1 1l-1 1v1l-1 1v1l-1 1l-1 2v1l-1 1v1l-1 1l-1 1v1l-1 1v1l-1 1l-1 1v1l-1 1v1l-1 1l-1 1v1l-1 2l-1 1v1l-1 1v1l-1 1l-1 1v1h-1v1l-1 1v1l-1 1l-1 1v1l-1 1l-1 1v1l-1 1l-1 1v2 l-1 1l-1 1v1l-1 1l-1 1v1l-1 1l-1 1l-1 1v1l-1 1l-1 1v1l-1 1l-1 1l-1 1v1l-1 1l-1 1v1l-1 1l-1 2l-1 1v1l-1 1l-1 1v1l-1 1l-1 1l-1 1v1h-1v1l-1 1l-1 1l-1 1v1l-1 1l-1 1l-1 1v1l-1 1l-1 1l-1 1v1l-1 1l-1 1l-1 1v1l-1 1l-1 2l-1 1l-1 1v1l-1 1l-1 1l-1 1l-1 1v1l-1 1 l-1 1l-1 1l-1 1l-1 1l-1 1v1l-1 1l-1 1l-1 1l-1 1l-1 1v1l-1 1l-1 1l-1 1l-1 1l-1 1v1l-1 1l-1 1l-1 1l-1 1l-1 1l-1 1v1l-1 1l-1 1l-1 1l-1 1l-1 1l-1 1l-1 1l-1 1v1l-1 1l-1 1l-1 1l-1 1l-1 1l-1 1l-1 1l-1 1l-1 1v1l-2 2q-201 216 -488 216q-193 0 -363 -169l-99 144 q-17 25 -31 25q-22 0 -22 -33v-503z" />
<glyph unicode="&#x3aa;" horiz-adv-x="1631" d="M1564 0q-71 6 -113 6h-361q-36 0 -107 -6v61q9 0 29 -1h28h2h2h2h2h2h2h2h2h2h2h2h2h2l2 1h2h2h2h2h2h2h2h2l2 1h2h2h2h2l2 1h2h2h2h1l2 1h2h1h2l2 1h1h2h2l1 1h2h2l1 1h2h2l1 1h2h1l2 1h2l1 1h2l1 1h2l1 1h2l1 1h2l1 1h2l1 1l2 1h1l2 1l1 1l2 1h1l2 1q10 7 15 16 q8 16 8 45v964l-734 -1008l1 -1q4 -9 28.5 -17.5t47.5 -12.5l22 -5h1h1h1h1h1h1h1h1h1h1h1h1h2h1h2h2h2h3h3h3h4h5h5h7h8h10h12h16h2v-61h-2h-2l-2 1h-2h-2h-2h-2h-2h-2l-2 1h-2h-2h-2h-2h-2l-2 1h-2h-1h-1h-1h-1h-1h-1h-1h-1h-1h-1h-1h-1l-1 1h-1h-1h-1h-1q-27 1 -49 2h-1 h-1h-1h-1h-1h-10h-358q-37 0 -108 -6v61q9 0 28 -1h28h2h2h2h2h2h2h2h2h2h2h2h2h2l2 1h2h2h2h2h2h2h2h2l2 1h2h2h2h2h2l2 1h2h2h2l1 1h2h2h1h2l2 1h1h2h2l1 1h2h2l1 1h2h2l1 1h2l1 1h2h2l1 1h2l1 1h2l1 1h2l1 1h2l2 1h1l2 1l1 1h1l2 1l1 1l2 1h1l2 1q11 7 15 16q7 14 7 45 v1064q0 31 -7 45q-2 4 -6 8l-1 1h-1v1h-1v1h-1l-1 1h-1v1h-1l-1 1h-1l-1 1h-1v1h-1h-1v1h-1l-1 1h-1h-1v1h-1h-1h-1v1h-1h-1l-1 1h-1h-1v1h-1h-1h-1l-1 1h-1h-1l-1 1h-1h-1h-1l-1 1h-1h-1h-1h-1v1h-1h-1h-1h-1l-1 1h-1h-1h-1h-1l-1 1h-1h-1h-1h-1h-1l-1 1h-1h-1h-1h-1h-1h-1 l-1 1h-1h-1h-1h-1h-1h-1h-1l-1 1h-1h-1h-1h-1h-1h-1h-1h-1h-1v1h-1h-1h-1h-1h-1h-1h-1h-1h-1h-1h-1h-1l-1 1h-1h-1h-1h-1h-1h-1h-1h-1h-1h-1h-1h-1h-1h-1h-1h-1h-1h-1h-1l-1 1h-1h-1h-1h-1h-1h-1h-1h-1h-1h-1h-1h-1h-1h-1h-1h-1h-1h-1h-1h-1h-1h-9h-46v62q70 -6 112 -6h354 q45 0 115 6v-62q-9 0 -27.5 1t-27.5 1q-123 0 -142 -36q-8 -16 -8 -45v-967l734 1009v1h-1v1v1h-1v1v1h-1v1h-1v1l-1 1l-1 1l-1 1l-1 1l-1 1l-1 1h-1v1h-1l-1 1h-1v1h-1l-1 1h-1l-1 1h-1v1h-1h-1v1h-1h-1v1h-1h-1v1h-1h-1l-1 1h-1h-1l-1 1h-1h-1l-1 1h-1h-1l-1 1h-1h-1h-1v1 h-1h-1h-1l-1 1h-1h-1h-1h-1v1h-1h-1h-1h-1l-1 1h-1h-1h-1h-1l-1 1h-1h-1h-1h-1h-1l-1 1h-1h-1h-1h-1h-1h-1l-1 1h-1h-1h-1h-1h-1h-1h-1v1h-1h-1h-1h-1h-1h-1h-1h-1h-1l-1 1h-1h-1h-1h-1h-1h-1h-1h-1h-1h-1h-1l-1 1h-1h-1h-1h-1h-1q-8 0 -17 1h-1h-1h-1h-1h-1h-1h-1h-1h-1h-1 h-1h-1h-1h-1h-1h-1h-1h-1h-9h-46v62q70 -6 112 -6h356q43 0 113 6v-62q-9 0 -27.5 1t-28.5 1h-2h-2h-2h-2h-2h-2h-2h-2h-2h-2h-2h-2h-2l-2 -1h-2h-2h-2h-2h-2h-2h-2h-2l-2 -1h-2h-2h-2h-2h-2l-2 -1h-2h-2h-2h-2l-1 -1h-2h-2h-1l-2 -1h-2h-1h-2l-2 -1h-1h-2l-2 -1h-1h-2 l-2 -1h-1h-2l-1 -1h-2l-2 -1h-1l-2 -1h-1l-2 -1h-1l-2 -1h-1l-2 -1h-1l-2 -1l-1 -1h-2l-1 -1l-2 -1h-1l-2 -1l-1 -1q-11 -7 -16 -16q-8 -16 -8 -45v-1064q0 -29 8 -45v-1h1v-1l1 -1v-1h1v-1h1v-1h1v-1h1v-1h1v-1h1l1 -1h1v-1h1v-1h1h1v-1h1l1 -1h1l1 -1h1h1v-1h1h1v-1h1h1 l1 -1h1h1v-1h1h1l1 -1h1h1l1 -1h1h1h1v-1h1h1h1l1 -1h1h1h1l1 -1h1h1h1l1 -1h1h1h2l1 -1h1h1h1h1l1 -1h1h1h1h1h1l1 -1h1h1h1h1h1h1v-1h1h1h1h1h1h1h1l1 -1h1h1h1h1h1h1h1l1 -1h1h1h1h1h1h1h1h1h1l1 -1h1h1h1h1h1h1h1h1h1h1h1l1 -1h1h1h1h1h1h1h1h1h1h1h1h1h1h1h1l1 -1h1h1 h1h1h1h1h1h1h1h1h1h1h1h1h1h1h1h1h1h1h1h1h1h1l1 -1h1h1h1h1h1h1h1h1h1h1h1h1h1h1h1h1h1h1h1h1h1h1h1h1h1h1h1h1h1h1h1h1h1h1h1h1h1h1h1h1h1h1h1h1h1h1h1h1v-61z" />
<glyph unicode="&#x3ab;" horiz-adv-x="1631" d="M1564 0q-71 6 -113 6h-361q-36 0 -107 -6v61q9 0 29 -1h28h2h2h2h2h2h2h2h2h2h2h2h2h2l2 1h2h2h2h2h2h2h2h2l2 1h2h2h2h2l2 1h2h2h2h1l2 1h2h1h2l2 1h1h2h2l1 1h2h2l1 1h2h2l1 1h2h1l2 1h2l1 1h2l1 1h2l1 1h2l1 1h2l1 1h2l1 1l2 1h1l2 1l1 1l2 1h1l2 1q10 7 15 16 q8 16 8 45v964l-734 -1008l1 -1q4 -9 28.5 -17.5t47.5 -12.5l22 -5h1h1h1h1h1h1h1h1h1h1h1h1h2h1h2h2h2h3h3h3h4h5h5h7h8h10h12h16h2v-61h-2h-2l-2 1h-2h-2h-2h-2h-2h-2l-2 1h-2h-2h-2h-2h-2l-2 1h-2h-1h-1h-1h-1h-1h-1h-1h-1h-1h-1h-1h-1l-1 1h-1h-1h-1h-1q-27 1 -49 2h-1 h-1h-1h-1h-1h-10h-358q-37 0 -108 -6v61q9 0 28 -1h28h2h2h2h2h2h2h2h2h2h2h2h2h2l2 1h2h2h2h2h2h2h2h2l2 1h2h2h2h2h2l2 1h2h2h2l1 1h2h2h1h2l2 1h1h2h2l1 1h2h2l1 1h2h2l1 1h2l1 1h2h2l1 1h2l1 1h2l1 1h2l1 1h2l2 1h1l2 1l1 1h1l2 1l1 1l2 1h1l2 1q11 7 15 16q7 14 7 45 v1064q0 31 -7 45q-2 4 -6 8l-1 1h-1v1h-1v1h-1l-1 1h-1v1h-1l-1 1h-1l-1 1h-1v1h-1h-1v1h-1l-1 1h-1h-1v1h-1h-1h-1v1h-1h-1l-1 1h-1h-1v1h-1h-1h-1l-1 1h-1h-1l-1 1h-1h-1h-1l-1 1h-1h-1h-1h-1v1h-1h-1h-1h-1l-1 1h-1h-1h-1h-1l-1 1h-1h-1h-1h-1h-1l-1 1h-1h-1h-1h-1h-1h-1 l-1 1h-1h-1h-1h-1h-1h-1h-1l-1 1h-1h-1h-1h-1h-1h-1h-1h-1h-1v1h-1h-1h-1h-1h-1h-1h-1h-1h-1h-1h-1h-1l-1 1h-1h-1h-1h-1h-1h-1h-1h-1h-1h-1h-1h-1h-1h-1h-1h-1h-1h-1h-1l-1 1h-1h-1h-1h-1h-1h-1h-1h-1h-1h-1h-1h-1h-1h-1h-1h-1h-1h-1h-1h-1h-1h-9h-46v62q70 -6 112 -6h354 q45 0 115 6v-62q-9 0 -27.5 1t-27.5 1q-123 0 -142 -36q-8 -16 -8 -45v-967l734 1009v1h-1v1v1h-1v1v1h-1v1h-1v1l-1 1l-1 1l-1 1l-1 1l-1 1l-1 1h-1v1h-1l-1 1h-1v1h-1l-1 1h-1l-1 1h-1v1h-1h-1v1h-1h-1v1h-1h-1v1h-1h-1l-1 1h-1h-1l-1 1h-1h-1l-1 1h-1h-1l-1 1h-1h-1h-1v1 h-1h-1h-1l-1 1h-1h-1h-1h-1v1h-1h-1h-1h-1l-1 1h-1h-1h-1h-1l-1 1h-1h-1h-1h-1h-1l-1 1h-1h-1h-1h-1h-1h-1l-1 1h-1h-1h-1h-1h-1h-1h-1v1h-1h-1h-1h-1h-1h-1h-1h-1h-1l-1 1h-1h-1h-1h-1h-1h-1h-1h-1h-1h-1h-1l-1 1h-1h-1h-1h-1h-1q-8 0 -17 1h-1h-1h-1h-1h-1h-1h-1h-1h-1h-1 h-1h-1h-1h-1h-1h-1h-1h-1h-9h-46v62q70 -6 112 -6h356q43 0 113 6v-62q-9 0 -27.5 1t-28.5 1h-2h-2h-2h-2h-2h-2h-2h-2h-2h-2h-2h-2h-2l-2 -1h-2h-2h-2h-2h-2h-2h-2h-2l-2 -1h-2h-2h-2h-2h-2l-2 -1h-2h-2h-2h-2l-1 -1h-2h-2h-1l-2 -1h-2h-1h-2l-2 -1h-1h-2l-2 -1h-1h-2 l-2 -1h-1h-2l-1 -1h-2l-2 -1h-1l-2 -1h-1l-2 -1h-1l-2 -1h-1l-2 -1h-1l-2 -1l-1 -1h-2l-1 -1l-2 -1h-1l-2 -1l-1 -1q-11 -7 -16 -16q-8 -16 -8 -45v-1064q0 -29 8 -45v-1h1v-1l1 -1v-1h1v-1h1v-1h1v-1h1v-1h1v-1h1l1 -1h1v-1h1v-1h1h1v-1h1l1 -1h1l1 -1h1h1v-1h1h1v-1h1h1 l1 -1h1h1v-1h1h1l1 -1h1h1l1 -1h1h1h1v-1h1h1h1l1 -1h1h1h1l1 -1h1h1h1l1 -1h1h1h2l1 -1h1h1h1h1l1 -1h1h1h1h1h1l1 -1h1h1h1h1h1h1v-1h1h1h1h1h1h1h1l1 -1h1h1h1h1h1h1h1l1 -1h1h1h1h1h1h1h1h1h1l1 -1h1h1h1h1h1h1h1h1h1h1h1l1 -1h1h1h1h1h1h1h1h1h1h1h1h1h1h1h1l1 -1h1h1 h1h1h1h1h1h1h1h1h1h1h1h1h1h1h1h1h1h1h1h1h1h1l1 -1h1h1h1h1h1h1h1h1h1h1h1h1h1h1h1h1h1h1h1h1h1h1h1h1h1h1h1h1h1h1h1h1h1h1h1h1h1h1h1h1h1h1h1h1h1h1h1h1v-61z" />
<glyph unicode="&#x3ac;" horiz-adv-x="1272" d="M1183 62q-204 -1 -204 145v301q-5 25 -26 27q-21 0 -30 -10q-2 -2 -4 -5l-575 -378q-12 -17 -19 -25v1028v1v2v1v1v2v1v1v2v1v1l1 2v1v1v1v1v2v1v1l1 1v1v1v2v1l1 1v1v1v1v1l1 1v1v1v1l1 1v1v1v1l1 1v1v1l1 1v1v1l1 1v1v1l1 1v1v1l1 1v1v1h1v1l1 1v1v1l1 1l1 1v1v1l1 1v1 h1v1l1 1v1l1 1v1l1 1l1 1v1l1 1l1 1v1h1v1l1 1l1 1v1h1v1l1 1l1 1v1h1l1 1v1h1v1h1v1l1 1l1 1h1v1h1v1l1 1h1v1h1v1h1l1 1l1 1h1v1h1v1h1l1 1l1 1h1v1h1l1 1l1 1h1v1h1h1v1h1l1 1l1 1h1h1v1h1l1 1l1 1h1h1v1h1h1v1h1l1 1h1l1 1h1h1v1h1h1l1 1h1l1 1h1h1v1h1h1l1 1h1l1 1h1h1 l1 1h1h1l1 1h1l1 1h1h1h1l1 1h1h1l1 1h1h1h1v1h1h1h1l1 1h1h1h1l1 1h1h1h1l1 1h1h1h1h1l1 1h1h1h1h1l1 1h1h1h1h1l1 1h1h1h1h1h1l1 1h1h1h1h1h1h1l1 1h1h1h1h1h1h1h1h1l1 1h1h1h1h1h1h1h1h1h1l1 1h1h1h1h1h1h1h1h1h1h1h1h1h1h1h1l1 1h1h1h1h1h1h1h1h1h1h1h1h1h1h1h1h1h1h1h1 h1h1h1h1h1h1h1v61l-93 -3l-46 -1l-27 -1h-16h-11h-8l-5 -1h-3h-3h-3h-1h-3h-1h-12h-1h-1h-1h-1h-1h-1h-2h-1h-2h-3h-3h-4l-6 1h-8h-11h-17l-28 1l-48 1l-89 3v-61h2h2h2h2h2h2h2h2h2h2h2h2h2l2 -1h2h2h2h2h2h2h2l2 -1h2h2h2h2l2 -1h2h2h2l2 -1h2h2l2 -1h2h2h2l2 -1h2h1l2 -1 h1h2l1 -1h2l2 -1h2h2l1 -1h2l2 -1h1l2 -1h1h2l1 -1h1h1l2 -1h1l2 -1h1l2 -1h1l1 -1l2 -1h1l1 -1h2l1 -1h1l2 -1h1l1 -1h1l2 -1l1 -1h1l1 -1h1l1 -1l2 -1h1l1 -1h1l1 -1l1 -1h1l1 -1l1 -1h1l1 -1l1 -1h1l1 -1l1 -1h1l1 -1l1 -1h1l1 -1l1 -1l1 -1l1 -1l1 -1h1l1 -1v-1h1l1 -1 l1 -1v-1h1l1 -1l1 -1v-1h1l1 -1v-1l1 -1h1v-1l1 -1l1 -1v-1h1l1 -1v-1l1 -1v-1h1v-1l1 -1l1 -1v-1h1v-1l1 -1v-1l1 -1l1 -1v-1l1 -1v-1l1 -1v-1l1 -1v-1l1 -1v-1v-1l1 -1l1 -1v-1v-1l1 -1v-1v-1l1 -1v-1l1 -1v-1v-1v-1l1 -1v-1v-1l1 -1v-1v-1l1 -1v-1v-1v-1v-1l1 -1v-1v-1 v-1v-1h1v-1v-1v-1v-1v-1v-1l1 -1v-1v-1v-1v-1v-1v-1v-1v-1v-1l1 -1v-1v-1v-1v-1v-9v-1032q0 -29 -8 -35q-3 -2 -15.5 -4.5t-23.5 -3.5l-11 -2h-1h-1h-1h-1h-1h-1h-1h-1h-1h-1h-1l-1 -1h-1h-1h-1h-1h-1h-1h-1h-1h-1h-1h-1h-1h-1h-1h-1h-1h-1h-1h-1h-1h-1h-1l-1 -1h-1h-1h-1 h-1h-1h-1h-1h-2h-1h-2h-1h-2h-2h-2h-2h-2h-2h-2h-2h-2h-2h-2h-2h-2l-3 -1h-3h-3h-3h-3h-3h-3h-3h-3h-4h-4h-4h-4h-4h-4h-5h-5h-9v-62h342q30 0 48 26l462 337l4 -165v-1v-2v-1v-1v-2v-1v-1v-2v-1v-1l-1 -1v-2v-1v-1v-1v-1v-2v-1l-1 -1v-1v-1v-1v-1l-1 -1v-2v-1v-1v-1l-1 -1 v-1v-1v-1l-1 -1v-1v-1v-1l-1 -1v-1v-1l-1 -1v-1v-1l-1 -1v-1l-1 -1v-1v-1l-1 -1v-1v-1l-1 -1l-1 -1v-1v-1l-1 -1v-1h-1v-1v-1l-1 -1v-1h-1v-1l-1 -1v-1l-1 -1v-1l-1 -1l-1 -1v-1l-1 -1l-1 -1v-1h-1v-1l-1 -1l-1 -1v-1h-1v-1l-1 -1l-1 -1v-1h-1l-1 -1l-1 -1v-1h-1v-1h-1v-1 l-1 -1h-1v-1h-1v-1h-1l-1 -1l-1 -1v-1h-1l-1 -1l-1 -1h-1v-1h-1l-1 -1l-1 -1l-1 -1h-1v-1h-1l-1 -1h-1l-1 -1l-1 -1h-1v-1h-1l-1 -1h-1l-1 -1h-1v-1h-1h-1v-1h-1l-1 -1h-1l-1 -1h-1v-1h-1h-1l-1 -1h-1l-1 -1h-1l-1 -1h-1l-1 -1h-1l-1 -1h-1h-1l-1 -1h-1h-1l-1 -1h-1l-1 -1 h-1h-1v-1h-1h-1h-1l-1 -1h-1h-1l-1 -1h-1h-1l-1 -1h-1h-1l-1 -1h-1h-1h-1l-1 -1h-1h-1l-1 -1h-1h-1h-1l-1 -1h-1h-1h-1h-1l-1 -1h-1h-1h-1l-1 -1h-1h-1h-1h-1l-1 -1h-1h-1h-1h-1h-1l-1 -1h-1h-1h-1h-1h-1l-1 -1h-1h-1h-1h-1h-1h-1l-1 -1h-1h-1h-1h-1h-1h-1h-1h-1l-1 -1h-1 h-1h-1h-1h-1h-1h-1h-1h-1h-1l-1 -1h-1h-1h-1h-1h-1h-1h-1h-1h-1h-1h-1h-1h-1h-1h-1l-1 -1h-1h-1h-1h-1h-1h-1h-1h-1h-1h-1h-1h-1h-1h-1h-9v-62q205 6 232 6q26 0 230 -6v62z" />
<glyph unicode="&#x3ad;" horiz-adv-x="1697" d="M864 0h-796v61q8 0 27 -1h26h2h2h2h2h2h2h2h2h2h2h2h2h2h2l2 1h2h2h2h2h2h2h2h2l2 1h2h2h2h2h2l2 1h2h2h2h2v1h2h1h2h2l1 1h2h2h1l2 1h2h1l2 1h2h1l2 1h2h1l2 1h1l2 1h2l1 1h2h1l2 1h1l2 1l1 1h2l1 1h2l1 1l2 1h1l2 1l1 1l2 1l1 1l1 1h2l1 1l1 1l1 1l1 1l1 1l1 1l1 1l1 1 v1l1 1l1 1v1l1 1q7 14 7 46v1064q0 32 -7 46q-17 34 -195 33v62q71 -6 126 -6h383q47 0 120 6v-62q-11 0 -33 1t-33 1q-156 0 -177 -36q-10 -17 -10 -48v-1062q0 -52 20 -67q15 -12 66 -12l5 4q126 0 176 62q18 22 34 63q24 51 29 129q7 109 16 171l10 180l50 -525l540 996 q10 31 10 39q0 53 -63 81q-48 22 -109 23v62q155 -6 234 -6q89 0 179 6v-62q-152 0 -195 -132z" />
<glyph unicode="&#x3ae;" horiz-adv-x="1216" d="M1149 901h-49q-24 212 -82 285l-1 1l-1 1v1h-1v1l-1 1l-1 1l-1 1l-1 1v1h-1v1l-1 1h-1v1l-1 1l-1 1l-1 1l-1 1l-1 1l-1 1l-1 1l-1 1h-1v1l-1 1l-1 1h-1v1h-1v1l-1 1h-1v1h-1l-1 1l-1 1h-1v1h-1v1h-1v1h-1l-1 1l-1 1h-1v1h-1l-1 1l-1 1h-1v1h-1l-1 1l-1 1h-1v1h-1l-1 1h-1 l-1 1h-1v1h-1l-1 1l-1 1h-1l-1 1h-1l-1 1h-1v1h-1l-1 1h-1v1h-1h-1l-1 1l-1 1h-1l-1 1h-1l-1 1h-1l-1 1h-1l-1 1h-1l-1 1h-1l-1 1h-1l-1 1h-1l-1 1h-1l-1 1h-1h-1l-1 1h-1v1h-1h-1l-1 1h-1h-1l-1 1h-1l-1 1h-1h-1l-1 1h-1h-1v1h-1h-1l-1 1h-1h-1l-1 1h-1h-1l-1 1h-1h-1l-1 1 h-1h-1l-1 1h-1h-1l-1 1h-1h-1l-1 1h-1h-1h-1l-1 1h-1h-1l-1 1h-1h-1h-1l-1 1h-1h-1h-1l-1 1h-1h-1h-1v1h-1h-1h-1h-1l-1 1h-1h-1h-1l-1 1h-1h-1h-1h-1l-1 1h-1h-1h-1h-1v1h-1h-1h-1h-1h-1l-1 1h-1h-1h-1h-1l-1 1h-1h-1h-1h-1h-1l-1 1h-1h-1h-1h-1h-1h-1l-1 1h-1h-1h-1h-1h-1 h-1l-1 1h-1h-1h-1h-1h-1h-1l-1 1h-1h-1h-1h-1h-1h-1h-1h-1l-1 1h-1h-1h-1h-1h-1h-1h-1h-1h-1h-1l-1 1h-1h-1h-1h-1h-1h-1h-1h-1h-1h-1h-1h-1l-1 1h-1h-1h-1h-1h-1h-1h-1h-1h-1h-1h-1h-1h-1h-1h-1h-1h-1h-1h-1l-1 1h-1h-1h-1h-1h-1h-1h-1h-1h-1h-1h-1h-1h-1h-1h-1h-1h-1h-1 h-1h-9h-214q-51 0 -66 -12q-20 -14 -20 -67v-1065q0 -22 8 -39q18 -39 245 -37v-61q-74 6 -120 6h-382q-55 0 -127 -6v61q8 0 27 -1h27q124 0 141 38q7 15 7 48v1053q0 31 -7 47q-16 38 -195 35v62h1026z" />
<glyph unicode="&#x3af;" horiz-adv-x="1216" d="M1149 508l-55 -508h-1026v61q8 0 27 -1h26h2h2h2h2h2h2h2h2h2h2h2h2h2h2l2 1h2h2h2h2h2h2h2h2l2 1h2h2h2h2h2l2 1h2h2h2h2v1h2h1h2h2l1 1h2h2h1l2 1h2h1l2 1h2h1l2 1h2h1l2 1h1l2 1h2l1 1h2h1l2 1h1l2 1l1 1h2l1 1h2l1 1l2 1h1l2 1l1 1l2 1l1 1l1 1h2l1 1l1 1l1 1l1 1 l1 1l1 1l1 1l1 1v1l1 1l1 1v1l1 1q7 14 7 46v1064q0 32 -7 46q-17 34 -195 33v62q71 -6 126 -6h383q47 0 120 6v-62q-11 0 -33 1t-33 1q-156 0 -177 -36q-10 -17 -10 -48v-1062q0 -52 20 -67q15 -12 66 -12h173q212 0 303 123q70 96 94 324h49z" />
</font>
</defs>
</svg>
