<?xml version="1.0" standalone="no"?>
<!DOCTYPE svg PUBLIC "-//W3C//DTD SVG 1.1//EN" "http://www.w3.org/Graphics/SVG/1.1/DTD/svg11.dtd" >
<svg xmlns="http://www.w3.org/2000/svg">
<metadata></metadata>
<defs>
<font id="wreatheregular" horiz-adv-x="790" >
<font-face units-per-em="1000" ascent="800" descent="-200" />
<missing-glyph horiz-adv-x="242" />
<glyph horiz-adv-x="0" />
<glyph horiz-adv-x="0" />
<glyph d="M493 187h89v-9q-16 0 -20 -4q-7 -6 -7 -24v-49h77v49q0 19 -10 25q-3 2 -16 2v10h87v-9q-21 0 -25 -14q-1 -4 -1.5 -10t0 -13.5t0.5 -10.5v-70q0 -3 -0.5 -12t-0.5 -16t2 -12q3 -8 9 -10t16 -2v-10h-87v9q13 0 17 3q9 6 9 26v48h-77v-50q0 -18 8 -24q3 -2 19 -2v-10h-89 v9q21 0 25 13q1 4 1.5 10t0 13.5t-0.5 10.5v72q0 3 1 12t0.5 16t-2.5 11q-3 8 -8.5 10t-16.5 2v10zM389 386q-24 -3 -38 -32q-22 -43 -2 -88q17 -40 52 -36q24 3 38 31q22 44 2 90q-7 17 -21 27t-31 8zM386 403q13 2 31 -1q34 -6 52 -35t17 -61.5t-21 -60t-54 -32.5 q-27 -4 -48 4q-31 11 -46.5 41.5t-10.5 64.5t27 57q19 18 53 23zM149 492q3 -37 32 -45q13 -5 30.5 0t18 21.5t-22.5 30.5q-6 4 -20.5 11.5t-24.5 14.5t-18 16q-19 25 -4 50t45 28q14 1 27 -3l7 -3q7 -3 10.5 -3t5 3.5t2.5 4.5t13 1v-66h-14q-5 36 -26 45q-14 7 -31 0.5 t-14 -24.5q2 -13 28 -29q5 -3 13 -7l12 -7q6 -3 13.5 -7.5t11.5 -8.5l9 -9q6 -6 7 -12l3 -13q1 -8 -3 -16q-6 -21 -26.5 -30.5t-43.5 -6.5q-3 0 -9 2l-10 4q-4 1 -9 1.5t-8 -1.5t-4 -7h-14v65h14z" />
<glyph d="M319 403h113h29l10 -1l5 -13l10 -37q-12 0 -13 1l-6 9q-8 16 -14 20q-4 3 -11 4t-17 0t-12 -1v-100q0 -4 -0.5 -14.5t-0.5 -18.5t2 -15q4 -14 25 -14v-10h-87v10q22 0 25 15q1 6 1.5 14.5t0 18.5t-0.5 15v99q-2 0 -12 1t-16 0q-7 -2 -12 -4q-7 -4 -14 -20q-5 -9 -6 -9 q-1 -1 -13 -1zM500 187h89v-9q-12 0 -15 -3q-6 -5 1 -17q1 -1 10.5 -16.5t12.5 -23.5h1q3 8 14 21t14 20q6 12 2 16q-2 1 -14 2v10h75v-9q-9 0 -17 -3t-14.5 -10t-10.5 -12t-11 -15.5t-10 -14.5q-1 -1 -5.5 -6.5t-7.5 -10t-3 -7.5q0 -4 3 -9.5t7.5 -12t5.5 -7.5l22 -37 q11 -19 19 -23q3 -1 18 -2v-10h-88v9q12 0 14 2q6 5 -1 18q-1 1 -10.5 16.5t-11.5 23.5h-2q-3 -9 -14.5 -24t-12.5 -16q-8 -12 -2 -18q2 -1 13 -1v-10h-74v9q9 0 16.5 3t14.5 10l11 12q4 5 11 16l10 14q1 2 5.5 7t7.5 9t3 8q0 2 -4 8l-12 20l-22 39q-10 18 -20 23 q-3 1 -18 1v10zM149 492q3 -37 32 -45q13 -5 30.5 0t18 21.5t-22.5 30.5q-6 4 -20.5 11.5t-24.5 14.5t-18 16q-19 25 -4 50t45 28q14 1 27 -3l7 -3q7 -3 10.5 -3t5 3.5t2.5 4.5t13 1v-66h-14q-5 36 -26 45q-14 7 -31 0.5t-14 -24.5q2 -13 28 -29q5 -3 13 -7l12 -7 q6 -3 13.5 -7.5t11.5 -8.5l9 -9q6 -6 7 -12l3 -13q1 -8 -3 -16q-6 -21 -26.5 -30.5t-43.5 -6.5q-3 0 -9 2l-10 4q-4 1 -9 1.5t-8 -1.5t-4 -7h-14v65h14z" />
<glyph d="M319 403h113h29l10 -1l5 -13l10 -37q-12 0 -13 1l-6 9q-8 16 -14 20q-4 3 -11 4t-17 0t-12 -1v-100q0 -4 -0.5 -14.5t-0.5 -18.5t2 -15q4 -14 25 -14v-10h-87v10q22 0 25 15q1 6 1.5 14.5t0 18.5t-0.5 15v99q-2 0 -12 1t-16 0q-7 -2 -12 -4q-7 -4 -14 -20q-5 -9 -6 -9 q-1 -1 -13 -1zM501 187h88v-9q-13 0 -15 -3q-4 -5 2 -17q1 -1 10 -16.5t12 -23.5h1q3 8 14 21.5t14 18.5q7 13 3 17q-1 1 -15 2v10h76v-9q-9 0 -17 -3t-15 -10t-10.5 -11.5t-10.5 -15.5l-10 -14q-1 -2 -6 -7.5t-8 -10t-3 -7.5q0 -4 3 -9.5t7.5 -12t5.5 -7.5l22 -37 q11 -19 19 -23q3 -1 18 -2v-10h-88v9q12 0 14 2q6 5 -1 18q-1 1 -10.5 16.5t-11.5 23.5h-2q-3 -9 -14.5 -24t-12.5 -16q-8 -12 -2 -18q2 -1 13 -1v-10h-74v9q9 0 16.5 3t14.5 10l11 12q4 5 11 16l10 14q1 2 5.5 7t7.5 9t3 7.5t-2.5 8.5t-7 11.5t-5.5 8.5l-23 39 q-10 18 -20 23q-3 1 -17 1v10zM111 618h118h29l12 -1l5 -14l11 -36q-13 0 -15 1l-5 10q-10 19 -17 21q-3 1 -25 1h-52v-68h41q16 0 22 9q3 4 2 17h14v-70h-14q0 13 -2 18q-6 9 -22 8h-41v-68h52q22 0 25 1q8 3 17 22l5 9q1 1 14 1l-11 -36l-5 -14l-11 -1h-30h-117v10 q20 0 25 13q2 5 2 11.5t-0.5 16t-0.5 12.5v71q0 2 0.5 10t0 13.5t-1.5 9.5q-3 8 -9 10.5t-16 2.5v10z" />
<glyph d="M517 187h112h29l11 -1l5 -13l10 -37q-12 0 -14 1l-5 10q-8 16 -15 20q-4 3 -10.5 3.5t-16.5 0t-12 -0.5v-100q0 -4 -1 -14.5t-0.5 -19t2.5 -14.5q4 -14 25 -14v-10h-88v9q22 0 26 16q1 6 1.5 14t0 18.5t-0.5 14.5v100q-2 0 -12 0.5t-17 0t-11 -3.5q-7 -4 -15 -20 q-5 -9 -5 -10q-1 -1 -13 -1zM389 386q-24 -3 -38 -32q-22 -43 -2 -88q17 -40 52 -36q24 3 38 31q22 44 2 90q-7 17 -21 27t-31 8zM386 403q13 2 31 -1q34 -6 52 -35t17 -61.5t-21 -60t-54 -32.5q-27 -4 -48 4q-31 11 -46.5 41.5t-10.5 64.5t27 57q19 18 53 23zM111 618h118 h29l12 -1l5 -14l11 -36q-13 0 -15 1l-5 10q-10 19 -17 21q-3 1 -25 1h-52v-68h41q16 0 22 9q3 4 2 17h14v-70h-14q0 13 -2 18q-6 9 -22 8h-41v-68h52q22 0 25 1q8 3 17 22l5 9q1 1 14 1l-11 -36l-5 -14l-11 -1h-30h-117v10q20 0 25 13q2 5 2 11.5t-0.5 16t-0.5 12.5v71 q0 2 0.5 10t0 13.5t-1.5 9.5q-3 8 -9 10.5t-16 2.5v10z" />
<glyph d="M606 20q-4 13 -18.5 17.5t-20.5 -9.5l-14 7q6 15 22.5 20t30.5 -3q3 -2 8.5 -7t8.5 -7q29 54 4 102q-12 23 -34 29.5t-41 -12.5q-17 -19 -22 -47.5t5 -52.5q17 -46 57 -42q3 0 14 5zM287 403h38l17 -1l11 -12l24 -29l78 -91v78q0 2 0.5 10.5t0 14t-2.5 9.5t-4 6.5t-6.5 3 t-6.5 0.5h-7v11h75v-10q-12 0 -15 -2q-4 -2 -7 -5.5t-3.5 -9t-1 -9.5t0 -10.5t0.5 -8.5v-135q-19 0 -21 1q-4 2 -8.5 7t-9.5 12t-7 9l-58 68l-10 10q-7 7 -12 13.5t-7 12.5h-1v-78q0 -2 -0.5 -10.5t0 -14t2.5 -9.5q4 -7 9 -9t15 -2v-10h-75v10q21 0 26 14q1 2 1 33v69 q0 3 0.5 11t0.5 14.5t-2 10.5q-9 18 -34 17v11zM693 2q-7 -15 -24 -19.5t-31 4.5q-2 1 -8.5 8t-10 7.5t-11.5 -2t-10 -2.5q-24 -3 -44 3q-27 9 -43.5 34t-17 52.5t11.5 54.5q18 34 57.5 44t72.5 -12q32 -22 38 -67q5 -34 -11 -65q-5 -9 -14 -19q-6 -7 -6 -9 q2 -12 16.5 -13.5t20.5 8.5zM111 618h118h29l12 -1l5 -14l11 -36q-13 0 -15 1l-5 10q-10 19 -17 21q-3 1 -25 1h-52v-68h41q16 0 22 9q3 4 2 17h14v-70h-14q0 13 -2 18q-6 9 -22 8h-41v-68h52q22 0 25 1q8 3 17 22l5 9q1 1 14 1l-11 -36l-5 -14l-11 -1h-30h-117v10 q20 0 25 13q2 5 2 11.5t-0.5 16t-0.5 12.5v71q0 2 0.5 10t0 13.5t-1.5 9.5q-3 8 -9 10.5t-16 2.5v10z" />
<glyph d="M469 254q5 -9 6 -9q0 -3 -12 -13q-21 -18 -46 -20q-36 -2 -63.5 19t-35 52.5t5.5 66.5q11 25 34 39.5t51 14.5q15 0 25 -4q1 -1 5 -2l7 -3q2 -1 5 -1q6 1 6 10h14v-65h-14q0 29 -27.5 41.5t-49.5 -5.5q-22 -17 -28 -48t6 -56q9 -21 25.5 -32.5t37.5 -8.5q18 3 32 12 q2 1 7.5 5.5t8.5 6.5zM491 187h89v-9q-15 0 -19 -4q-7 -6 -7 -24v-49l48 49q18 18 19 27h-15v10h76v-9q-15 0 -25 -6.5t-24 -20.5l-16 -17l-19 -20q-9 -8 -18 -15q10 -7 20.5 -17.5t23 -24.5t18.5 -20l6 -6l8 -7q2 -3 6 -6.5t8 -5.5t9 -3q2 -1 16 -1v-10h-89v9l14 1 q-4 9 -12 17.5t-20 19t-16 14.5l-2 3l-4 4l-4 4q-2 2 -4 2.5t-3 0.5q-2 -1 -2 -5.5t0.5 -10.5t0.5 -7q0 -2 -0.5 -8t-0.5 -10t1 -9t3.5 -8.5t6.5 -5.5q2 -1 16 -1v-10h-89v9q21 0 26 13q1 4 1.5 10t0 13.5t-0.5 10.5v72q0 3 0.5 12t0 16t-2.5 11q-3 8 -8.5 10t-16.5 2v10z M189 567l-24 -58h49l-23 58h-2zM89 438q12 0 20 6t11.5 12t9.5 20l41 98l13 33q4 11 7 11q4 3 8 1t6 -2t4.5 -4.5t3.5 -6t3 -7t3 -6.5l39 -94l13 -31q4 -9 2 -11q9 -18 34 -18v-11h-89v10q10 0 12 1q4 1 6 4t1 7.5t-2 7.5l-3 9l-3 6q0 1 -2 5.5t-3 7t-3.5 4.5t-5.5 2h-40 q-14 0 -15 -1q-1 0 -6 -12q-1 -1 -3.5 -6.5t-3.5 -8.5t-2.5 -8t-0.5 -9t4 -6q2 -2 16 -2v-11h-75v10z" />
<glyph d="M308 403h118h30l12 -1l4 -13l11 -37q-12 0 -14 1l-5 9q-10 19 -18 22q-3 1 -24 1h-52v-68h40q16 0 22 7q3 4 3 19h14v-70h-14q0 14 -3 18q-6 8 -22 8h-40v-69h52q22 0 24 2q8 3 18 21q5 9 5 10q1 1 14 1l-11 -37l-4 -13l-12 -1h-30h-118v10q21 0 26 14q1 4 1.5 9.5t0 13 t-0.5 10.5v70q0 3 0.5 12.5t0 16t-1.5 11.5q-3 8 -9 10t-17 2v11zM506 187h88v-9q-22 0 -26 -16q-1 -6 -1 -14.5t0.5 -18.5t0.5 -15v-99h52q22 0 24 1q8 3 18 22q5 9 5 10q1 1 13 1l-10 -37l-5 -13l-12 -1h-31h-116v9q21 0 26 14q1 4 1.5 10t0 13.5t-0.5 10.5v70q0 3 0.5 12 t0 16t-2.5 12q-3 8 -8.5 10t-16.5 2v10zM173 535q26 -3 34 -3q12 2 21 6q13 7 15 24t-8 27q-11 11 -37 11q-21 0 -24 -4q-1 -1 -1 -17v-44zM173 512v-45q0 -16 1 -17q3 -3 25 -3q30 0 42 10q12 11 9 28t-17 23q-8 4 -24 6q-9 1 -36 -2zM111 618q9 0 29.5 0.5t36 0.5t30.5 -2 q33 -3 43 -8q26 -13 27.5 -40t-21.5 -44q27 -11 28.5 -42t-24.5 -44q-12 -6 -46 -10q-15 -1 -32 -1.5t-39 0t-32 0.5v10q21 0 25 13q1 4 1.5 10t0 13.5t-0.5 9.5v73q0 3 0.5 12t0.5 15.5t-2 11.5q-3 8 -8.5 10t-16.5 2v10z" />
<glyph unicode="&#xa;" horiz-adv-x="0" />
<glyph horiz-adv-x="0" />
<glyph d="M396 295h117h31l12 -1l5 -13l9 -37h-14q-7 25 -21 32q-2 1 -23 1h-54v-69q3 0 15 -0.5t19.5 -0.5t16.5 3t12 9q2 3 2 17h14v-71h-14q0 13 -2 16q-3 6 -12 9t-16.5 3t-19.5 -0.5t-15 -0.5v-49q0 -19 9 -25q4 -3 17 -3v-9h-88v9q20 0 26 13q2 5 2 12t-0.5 16t-0.5 12v70 q0 2 0.5 10t0 13.5t-1.5 10.5q-5 13 -26 13v10zM221 510h117h30l12 -1l5 -14l11 -36h-15q-7 25 -22 32q-2 1 -22 1h-55v-68q3 0 15 -1t19.5 -1t16.5 3t12 9q2 3 2 17h14v-71h-14q0 13 -2 17q-3 6 -12 8.5t-16.5 3t-19.5 -0.5t-15 -1v-49q0 -19 9 -25q4 -3 17 -2v-10h-87v10 q20 0 25 13q2 5 2 11.5t-0.5 15.5t-0.5 12v71q0 2 0.5 10t0 13.5t-1.5 9.5q-5 13 -25 13v10z" />
<glyph d="M475 278q-24 -4 -37 -34q-20 -47 1 -89q19 -38 53 -32q19 3 33 27q13 21 13.5 47.5t-10.5 47.5q-19 39 -53 33zM469 295q21 3 42 -3q33 -9 49 -38t13.5 -60t-22.5 -57.5t-54 -31.5q-21 -3 -41 3q-33 9 -49 38t-13.5 60t22.5 57.5t53 31.5zM346 512h13v-66h-13 q-7 36 -24 43q-14 8 -32.5 2t-14.5 -25q1 -6 6.5 -12t7.5 -7.5t12 -7.5l23 -13q19 -11 27.5 -17.5t15.5 -19.5t3 -29q-6 -22 -26 -32t-44 -8q-3 0 -8.5 2t-10.5 3.5t-10 2.5t-8 -1t-4 -8h-14v66h14q1 -17 10 -30t25 -16q16 -4 31 2t14 22q0 8 -5.5 15t-10 10t-14.5 8 q-3 2 -10 6t-11 6.5t-11 6.5t-11 7.5t-9 8.5t-7.5 9.5t-4.5 10.5t-1.5 12.5t2.5 13.5q6 19 23.5 27t38.5 7q9 -1 23 -6q8 -3 11 -3q2 2 4 10z" />
<glyph d="M439 295h88v-10q-20 0 -25 -13q-2 -4 -2 -10t0.5 -13.5t0.5 -10.5v-70q0 -3 -0.5 -12t-0.5 -15.5t2 -12.5q5 -13 25 -13v-9h-88v9q20 0 25 13q2 5 2.5 11.5t0 15.5t-0.5 12v71q0 2 0.5 10.5t0 14t-2.5 10.5q-5 12 -25 12v10zM346 512h13v-66h-13q-7 36 -24 43 q-14 8 -32.5 2t-14.5 -25q1 -6 6.5 -12t7.5 -7.5t12 -7.5l23 -13q19 -11 27.5 -17.5t15.5 -19.5t3 -29q-6 -22 -26 -32t-44 -8q-3 0 -8.5 2t-10.5 3.5t-10 2.5t-8 -1t-4 -8h-14v66h14q1 -17 10 -30t25 -16q16 -4 31 2t14 22q0 8 -5.5 15t-10 10t-14.5 8q-3 2 -10 6t-11 6.5 t-11 6.5t-11 7.5t-9 8.5t-7.5 9.5t-4.5 10.5t-1.5 12.5t2.5 13.5q6 19 23.5 27t38.5 7q9 -1 23 -6q8 -3 11 -3q2 2 4 10z" />
<glyph d="M308 403h88v-10q-22 0 -26 -16q-1 -6 -1 -14t0.5 -18.5t0.5 -14.5v-100h52q22 0 24 2q8 3 18 21q5 9 5 10q1 1 14 1l-15 -51h-160v10q20 0 25 13q2 5 2.5 11.5t0 15.5t-0.5 12v71q0 2 0.5 10.5t0 13.5t-2.5 10q-3 8 -8.5 10t-16.5 2v11zM506 187h160l14 -51q-12 0 -13 1 l-5 10q-10 19 -18 22q-3 1 -24 1h-52v-69h40q16 0 22 9q3 4 3 18h14v-71h-14q0 13 -3 18q-6 9 -22 9h-40v-69h52q22 0 24 1q8 3 18 22q5 9 5 10q1 1 13 1l-15 -51h-159v9q20 0 25 13q2 5 2.5 12t0 16t-0.5 12v71q0 2 0.5 10t0 13.5t-2.5 10.5q-3 8 -8.5 10t-16.5 2v10z M170 600v-154h8h8h8q6 0 8.5 0.5t7 2t7.5 3.5l7 3q4 2 7 5q21 19 21 60q0 52 -28 72q-5 3 -9.5 5t-11.5 2.5t-10 1t-12.5 0t-10.5 -0.5zM107 618h78q45 0 64 -12q26 -16 34 -46t3 -64q-6 -39 -33 -55q-21 -13 -68 -13h-78v10q21 0 26 13q1 4 1.5 10t0 13.5t-0.5 9.5v73 q0 3 0.5 12t0 15.5t-2.5 11.5q-3 8 -8.5 10t-16.5 2v10z" />
<glyph d="M469 254q5 -9 6 -9q0 -3 -12 -13q-21 -18 -46 -20q-54 -4 -84.5 41t-9.5 94q11 25 33.5 40.5t49.5 16.5q16 0 27 -4q2 -1 5.5 -2.5t6.5 -2.5t6 -1q6 1 6 10h14v-65h-14q0 30 -27.5 42t-49.5 -6q-23 -18 -28 -50.5t8 -57.5q21 -43 61 -37q18 3 33 12q2 1 7 5.5t8 6.5z M548 138q29 0 42 29q0 1 2.5 9.5t4.5 10.5q1 1 18 1v-135q0 -2 -0.5 -10t-0.5 -13.5t2 -11.5t5 -8t17 -2v-10h-74v10q16 0 20 4q2 4 2.5 9t0 13.5t-0.5 9.5v79h-38v15zM170 600v-154h8h8h8q6 0 8.5 0.5t7 2t7.5 3.5l7 3q4 2 7 5q21 19 21 60q0 52 -28 72q-5 3 -9.5 5 t-11.5 2.5t-10 1t-12.5 0t-10.5 -0.5zM107 618h78q45 0 64 -12q26 -16 34 -46t3 -64q-6 -39 -33 -55q-21 -13 -68 -13h-78v10q21 0 26 13q1 4 1.5 10t0 13.5t-0.5 9.5v73q0 3 0.5 12t0 15.5t-2.5 11.5q-3 8 -8.5 10t-16.5 2v10z" />
<glyph d="M469 254q5 -9 6 -9q0 -3 -12 -13q-21 -18 -46 -20q-54 -4 -84.5 41t-9.5 94q11 25 33.5 40.5t49.5 16.5q16 0 27 -4q2 -1 5.5 -2.5t6.5 -2.5t6 -1q6 1 6 10h14v-65h-14q0 30 -27.5 42t-49.5 -6q-23 -18 -28 -50.5t8 -57.5q21 -43 61 -37q18 3 33 12q2 1 7 5.5t8 6.5z M534 131q3 34 26 49t50 5t34 -36q6 -23 -11 -52q-5 -8 -10.5 -15.5t-13.5 -17.5l-11 -13l-16 -15q-11 -12 -12 -14q4 0 17.5 -0.5t23 0t17.5 2.5q5 1 9.5 6t6.5 6q1 1 13 1l-14 -39h-114q0 5 2.5 10t5 7.5t8 7.5t7.5 7l9 9l10 10l9 10q7 7 10 11l8 11q5 7 7.5 12.5t4.5 12 t3 13.5q2 18 -7.5 33t-28.5 11q-14 -3 -23 -19q-1 -1 -2 -4t-2.5 -5t-2.5 -3q-2 -1 -13 -1zM170 600v-154h8h8h8q6 0 8.5 0.5t7 2t7.5 3.5l7 3q4 2 7 5q21 19 21 60q0 52 -28 72q-5 3 -9.5 5t-11.5 2.5t-10 1t-12.5 0t-10.5 -0.5zM107 618h78q45 0 64 -12q26 -16 34 -46 t3 -64q-6 -39 -33 -55q-21 -13 -68 -13h-78v10q21 0 26 13q1 4 1.5 10t0 13.5t-0.5 9.5v73q0 3 0.5 12t0 15.5t-2.5 11.5q-3 8 -8.5 10t-16.5 2v10z" />
<glyph d="M469 254q5 -9 6 -9q0 -3 -12 -13q-21 -18 -46 -20q-54 -4 -84.5 41t-9.5 94q11 25 33.5 40.5t49.5 16.5q16 0 27 -4q2 -1 5.5 -2.5t6.5 -2.5t6 -1q6 1 6 10h14v-65h-14q0 30 -27.5 42t-49.5 -6q-23 -18 -28 -50.5t8 -57.5q21 -43 61 -37q18 3 33 12q2 1 7 5.5t8 6.5z M553 146q-21 10 2 30q13 11 25 12q17 2 32.5 -4.5t23.5 -19.5q10 -15 5 -38.5t-24 -29.5v-2q22 -6 28.5 -31t-6.5 -43q-17 -25 -55 -22q-25 2 -38 18q-7 9 -6 13q1 1 10 7q3 -11 11 -17q7 -5 16 -7q19 -5 32 10t10.5 35.5t-20.5 26.5q-7 3 -30 3v12q18 0 27 5 q12 7 16.5 22.5t-1.5 28.5q-6 14 -20 16t-25 -8q-7 -7 -13 -17zM170 600v-154h8h8h8q6 0 8.5 0.5t7 2t7.5 3.5l7 3q4 2 7 5q21 19 21 60q0 52 -28 72q-5 3 -9.5 5t-11.5 2.5t-10 1t-12.5 0t-10.5 -0.5zM107 618h78q45 0 64 -12q26 -16 34 -46t3 -64q-6 -39 -33 -55 q-21 -13 -68 -13h-78v10q21 0 26 13q1 4 1.5 10t0 13.5t-0.5 9.5v73q0 3 0.5 12t0 15.5t-2.5 11.5q-3 8 -8.5 10t-16.5 2v10z" />
<glyph d="M607 154q-7 -13 -29 -41t-30 -45h60v60zM469 254q5 -9 6 -9q0 -3 -12 -13q-21 -18 -46 -20q-54 -4 -84.5 41t-9.5 94q11 25 33.5 40.5t49.5 16.5q16 0 27 -4q2 -1 5.5 -2.5t6.5 -2.5t6 -1q6 1 6 10h14v-65h-14q0 30 -27.5 42t-49.5 -6q-23 -18 -28 -50.5t8 -57.5 q21 -43 61 -37q18 3 33 12q2 1 7 5.5t8 6.5zM526 44v21q1 4 4.5 9.5t8.5 11.5t6 8l40 58l17 24q7 10 8 10q3 2 7.5 2.5t11.5 -0.5t8 -1v-118h23v-25h-23v-46h-29v46h-82zM170 600v-154h8h8h8q6 0 8.5 0.5t7 2t7.5 3.5l7 3q4 2 7 5q21 19 21 60q0 52 -28 72q-5 3 -9.5 5 t-11.5 2.5t-10 1t-12.5 0t-10.5 -0.5zM107 618h78q45 0 64 -12q26 -16 34 -46t3 -64q-6 -39 -33 -55q-21 -13 -68 -13h-78v10q21 0 26 13q1 4 1.5 10t0 13.5t-0.5 9.5v73q0 3 0.5 12t0 15.5t-2.5 11.5q-3 8 -8.5 10t-16.5 2v10z" />
<glyph d="M491 187h88v-9q-13 0 -17 -3q-9 -7 -9 -26v-48l49 49l4 4q4 4 5.5 6t4 5t3.5 6l2 6h-15v10h76v-9q-15 0 -25 -6.5t-24 -20.5l-16 -17l-19 -20q-9 -8 -18 -15q10 -7 20.5 -17.5t23 -24.5t18.5 -20l6 -6l8 -7q2 -3 6 -6.5t8 -5.5t9 -3q2 -1 16 -1v-10h-89v9q10 0 11 2 q2 3 -13 18l-32 32q-13 13 -15 17q-2 -2 -3 -6t-1.5 -6.5t0 -7.5t0.5 -7t-0.5 -8t0 -9.5t1.5 -9t3.5 -8.5t6.5 -5q2 -1 15 -1v-10h-88v9q21 0 26 14q1 4 1.5 10t0 13.5t-0.5 10.5v70q0 3 0.5 12t0 16t-2.5 12q-3 8 -8.5 10t-16.5 2v10zM387 352l-24 -58h49l-24 58h-1z M287 223q12 0 20 5.5t11.5 12t8.5 19.5l42 99l13 32q4 11 7 11q4 3 8 1.5t6 -1.5t4.5 -4.5t3.5 -6t3 -7t3 -7.5l39 -94l13 -31q4 -9 2 -10q9 -18 33 -19v-10h-88v10q10 0 13 1t4 3t1.5 4.5t0 5.5t-1.5 6t-2 5.5t-3 5.5l-2 4q0 1 -1.5 5.5t-2.5 6.5t-4 4.5t-6 2.5h-39 q-14 0 -16 -1q-1 0 -5 -12q-1 -1 -4 -6l-4 -10q-1 -3 -2 -7.5t0 -8.5t4 -7q2 -2 16 -2v-10h-75v10zM89 618h38l17 -1l11 -11l23 -28l80 -93v77q0 2 0.5 10.5t0 14.5t-3.5 10q-2 5 -6.5 7.5t-7.5 3t-10 0.5v10h75v-10q-11 0 -15 -1q-4 -2 -7 -5.5t-4 -9t-1 -8.5v-11v-9v-136 q-19 0 -20 1q-4 3 -9 8t-10 12l-7 10l-57 66l-10 11q-7 7 -12 13t-7 12h-1v-78q0 -3 -0.5 -9t-0.5 -9.5t1 -8.5t3 -8q5 -9 23 -9v-11h-74v10q21 0 25 15q1 3 1 33v68q0 3 0.5 11t0.5 14.5t-2 10.5q-9 18 -34 18v10z" />
<glyph d="M288 403h89v-10q-11 0 -14 -2q-7 -5 5 -23q1 -2 13.5 -20t17.5 -29h2q4 8 9.5 16.5t13.5 18.5l11 15q11 15 7 21q-1 2 -15 2v11h76v-10q-12 0 -23.5 -7t-16.5 -13t-15.5 -21.5t-12.5 -19.5q-2 -3 -7.5 -9.5t-9 -12t-5.5 -10.5q-1 -2 -1 -17q0 -3 -0.5 -14t-0.5 -18t3 -15 t9 -11q2 -1 16 -2v-10h-88v10q12 0 16 1q6 3 8.5 11t2.5 14.5t-0.5 18t-0.5 13.5q0 5 -2 10.5t-4 9t-6 9.5t-6 8l-32 50q-12 18 -21 23q-3 1 -18 1v11zM485 187h38l17 -1l11 -12l24 -28l78 -91v78q0 2 0.5 10.5t0 14t-2.5 9.5t-4.5 6t-6.5 3t-6 1h-7v10h75v-9q-23 0 -26 -15 q-2 -7 -2 -16t1 -20.5t1 -16.5v-112q-19 0 -21 1q-4 2 -8.5 7t-10 12t-6.5 9l-57 66l-11 11l-12 14q-5 6 -8 12h-1v-77q0 -2 -0.5 -10.5t0 -14t2.5 -9.5q4 -7 9 -9t16 -2v-10h-75v9q21 0 26 15q1 2 0 33v68q0 3 1 11.5t0.5 14.5t-1.5 10q-9 18 -34 18v10zM149 492 q3 -37 32 -45q13 -5 30.5 0t18 21.5t-22.5 30.5q-6 4 -20.5 11.5t-24.5 14.5t-18 16q-19 25 -4 50t45 28q14 1 27 -3l7 -3q7 -3 10.5 -3t5 3.5t2.5 4.5t13 1v-66h-14q-5 36 -26 45q-14 7 -31 0.5t-14 -24.5q2 -13 28 -29q5 -3 13 -7l12 -7q6 -3 13.5 -7.5t11.5 -8.5l9 -9 q6 -6 7 -12l3 -13q1 -8 -3 -16q-6 -21 -26.5 -30.5t-43.5 -6.5q-3 0 -9 2l-10 4q-4 1 -9 1.5t-8 -1.5t-4 -7h-14v65h14z" />
<glyph d="M569 167v-45q0 -16 1 -17q3 -3 23 -3q26 0 38 12q10 10 7.5 26.5t-15.5 22.5q-9 5 -21 7q-7 0 -33 -3zM569 19q27 -3 36 -3q16 2 23 6q14 7 17 24t-9 27t-42 11q-22 0 -24 -4q-1 -1 -1 -17v-44zM319 403h113h29l10 -1l5 -13l10 -37q-12 0 -13 1l-6 9q-8 16 -14 20 q-4 3 -11 4t-17 0t-12 -1v-100q0 -4 -0.5 -14.5t-0.5 -18.5t2 -15q4 -14 25 -14v-10h-87v10q22 0 25 15q1 6 1.5 14.5t0 18.5t-0.5 15v99q-2 0 -12 1t-16 0q-7 -2 -12 -4q-7 -4 -14 -20q-5 -9 -6 -9q-1 -1 -13 -1zM506 187h78q41 0 58 -6q20 -8 28 -27t-1 -40q-4 -8 -18 -20 q17 -5 25 -22t2.5 -35.5t-20.5 -26.5q-14 -8 -49 -11q-15 -1 -32 -1.5t-39 0t-32 0.5v10q21 0 26 12q2 4 2 10t-0.5 13.5t-0.5 10.5v73q0 3 0.5 11.5t0 15.5t-1.5 11q-5 12 -26 13v9zM111 618h118h29l12 -1l5 -14l11 -36q-13 0 -15 1l-5 10q-10 19 -17 21q-3 1 -25 1h-52 v-68h41q16 0 22 9q3 4 2 17h14v-70h-14q0 13 -2 18q-6 9 -22 8h-41v-68h52q22 0 25 1q8 3 17 22l5 9q1 1 14 1l-11 -36l-5 -14l-11 -1h-30h-117v10q20 0 25 13q2 5 2 11.5t-0.5 16t-0.5 12.5v71q0 2 0.5 10t0 13.5t-1.5 9.5q-3 8 -9 10.5t-16 2.5v10z" />
<glyph d="M485 187h38h16l11 -11l22 -26l81 -95v78q0 2 0.5 10.5t0 14t-2.5 9.5t-4.5 6t-6.5 3t-6 1h-7v10h75v-9q-23 0 -26 -15q-2 -7 -2 -16t1 -20.5t1 -16.5v-112q-19 0 -21 1q-4 2 -8.5 7t-10 12t-6.5 9l-57 66l-11 11l-12 14q-5 6 -8 12h-1v-77q0 -2 -0.5 -10.5t0 -14 t2.5 -9.5q4 -7 9 -9t16 -2v-10h-75v9q21 0 26 15q1 2 0 33v68q0 3 1 11.5t0.5 14.5t-1.5 10q-9 18 -34 18v10zM388 353l-25 -59h49l-15 38zM287 223q12 0 20.5 6t12 12.5t8.5 19.5l43 101l12 29q4 10 6 11q4 2 7 2t5 -1t4 -2.5t3.5 -5t2.5 -5.5t2.5 -5.5t2.5 -5.5l41 -98 l12 -29q4 -9 2 -11q9 -11 15 -14.5t18 -3.5v-10h-88v10q11 0 14 1q3 2 4.5 5t0.5 7t-2 7t-3.5 8t-2.5 6t-2 5.5t-3 7t-3.5 5t-5.5 2.5h-39q-14 0 -16 -1.5t-6 -11.5q-1 -2 -3 -7l-3 -9q-2 -3 -3.5 -7.5t-0.5 -8.5t4 -6q2 -2 16 -3v-10h-75v10zM272 470q5 -9 5 -10 q0 -3 -12 -13q-21 -18 -45 -20q-35 -2 -63 19t-36 52t5 66q11 25 33.5 40t49.5 15q17 0 27 -3l5 -2q3 -2 6.5 -3.5t5.5 -0.5q6 1 6 9h14v-64h-14q0 29 -26.5 41t-49.5 -5q-23 -18 -28.5 -50.5t7.5 -57.5q21 -43 61 -38q18 3 33 13q2 1 7.5 5.5t8.5 6.5z" />
<glyph d="M359 295h43q16 0 17 -1t7 -13q2 -5 7 -15l7 -14q35 -76 49 -101l50 105l13 27l6 11l14 1h37v-10q-21 0 -25 -12q-2 -4 -2 -10t0.5 -13.5t0.5 -10.5v-74q0 -3 -1 -11.5t-0.5 -15.5t2.5 -11q5 -11 25 -12v-9h-89v9q19 0 24 10q2 4 3 8.5t0.5 12.5t-0.5 9v69h-1 q-1 -5 -15 -31q-22 -43 -28 -58l-5 -11l-5 -10q-4 -7 -6 -8q-15 -2 -18.5 2t-6.5 10l-6 15q-4 8 -5 11l-13 23l-14 28q-6 13 -9 25h-1v-67q0 -2 -0.5 -7t-0.5 -8t1 -7t3 -7q5 -9 23 -9v-9h-75v9q21 0 25 13q2 4 2 9.5t-0.5 13t-0.5 10.5v74q0 3 1 11t0.5 14.5t-2.5 10.5 q-7 14 -31 14v10zM221 510h117h30l12 -1l5 -14l11 -36h-15q-7 25 -22 32q-2 1 -22 1h-55v-68q3 0 15 -1t19.5 -1t16.5 3t12 9q2 3 2 17h14v-71h-14q0 13 -2 17q-3 6 -12 8.5t-16.5 3t-19.5 -0.5t-15 -1v-68h55q21 0 22 1q14 7 22 32h14l-11 -37l-5 -13l-12 -1h-29h-117v10 q20 0 25 13q2 5 2 11.5t-0.5 15.5t-0.5 12v71q0 2 0.5 10t0 13.5t-1.5 9.5q-5 13 -25 13v10z" />
<glyph d="M569 104q26 -3 33 -2q12 2 21 6q13 7 15.5 23.5t-8.5 26.5q-11 11 -37 11q-21 0 -23 -3q-1 -1 -1 -17v-45zM569 81v-45q0 -16 1 -17q2 -3 25 -3q30 0 42 11q11 11 8 28t-17 23q-9 4 -24 6q-9 0 -35 -3zM292 403h89v-10q-21 0 -26 -13q-2 -5 -2 -12t0.5 -15.5t0.5 -12.5 v-21v-18q0 -4 1 -18t4 -21l7 -15q5 -9 13 -12.5t19 -4.5q12 0 18 3q10 4 17 11t10.5 14.5t5.5 19.5t2 19t-0.5 21t-0.5 19q0 2 0.5 12.5t0.5 17t-2.5 14t-8.5 10.5q-3 1 -16 1v11h75v-10q-13 0 -16 -2q-6 -3 -9 -11.5t-3 -16t1 -19t1 -14.5v-18v-20q0 -4 -1.5 -16.5 t-4.5 -18.5t-8.5 -14.5t-12.5 -15.5q-7 -6 -19 -10q-11 -4 -24 -4q-29 0 -51.5 13t-30.5 40q-3 10 -3 52v49q0 17 -8 23q-3 2 -18 2v11zM506 187q9 0 30 0.5t36.5 0.5t29.5 -1q33 -3 43 -8q26 -13 28 -40.5t-22 -44.5q26 -11 29 -41t-23 -44q-21 -11 -68 -11h-83v9 q21 0 26 13q1 4 1.5 10t0 13.5t-0.5 10.5v72q0 3 0.5 12t0 16t-2.5 11q-3 8 -8.5 10t-16.5 2v10zM149 492q3 -37 32 -45q13 -5 30.5 0t18 21.5t-22.5 30.5q-6 4 -20.5 11.5t-24.5 14.5t-18 16q-19 25 -4 50t45 28q14 1 27 -3l7 -3q7 -3 10.5 -3t5 3.5t2.5 4.5t13 1v-66h-14 q-5 36 -26 45q-14 7 -31 0.5t-14 -24.5q2 -13 28 -29q5 -3 13 -7l12 -7q6 -3 13.5 -7.5t11.5 -8.5l9 -9q6 -6 7 -12l3 -13q1 -8 -3 -16q-6 -21 -26.5 -30.5t-43.5 -6.5q-3 0 -9 2l-10 4q-4 1 -9 1.5t-8 -1.5t-4 -7h-14v65h14z" />
<glyph d="M347 277q3 -37 32 -45q13 -5 30.5 0t18 21.5t-22.5 30.5q-6 4 -20.5 11.5t-25 14.5t-17.5 15q-20 25 -4 50.5t45 28.5q13 1 28 -4l7 -3q7 -3 10 -3t4.5 4t2.5 5t12 1v-66h-13q-5 36 -26 44q-14 7 -31 1t-15 -24q2 -13 29 -29q5 -3 12.5 -7t12.5 -7l12 -8q8 -4 12.5 -8 t9.5 -10t6.5 -11.5t3 -13t-2.5 -15.5q-6 -21 -26.5 -30.5t-43.5 -6.5q-2 0 -14 4t-18.5 3.5t-7.5 -8.5h-14v65h14zM655 189h14v-64h-14q0 26 -23.5 39t-46.5 1t-32 -39.5t-2 -55.5t26 -44q25 -20 59 -6q12 5 21 11q8 7 9 7t8 -8v-1q-25 -25 -48 -30q-12 -3 -29 -1 q-27 3 -47 19.5t-29.5 38.5t-7 48.5t18.5 47.5q15 20 39 29.5t50 6.5q5 -1 13.5 -4.5t11.5 -4.5q4 -1 6.5 2t2.5 8zM111 618h118h29l12 -1l5 -14l11 -36q-13 0 -15 1l-5 10q-10 19 -17 21q-3 1 -25 1h-52v-68h41q16 0 22 9q3 4 2 17h14v-70h-14q0 13 -2 18q-6 9 -22 8h-41 v-68h52q22 0 25 1q8 3 17 22l5 9q1 1 14 1l-11 -36l-5 -14l-11 -1h-30h-117v10q20 0 25 13q2 5 2 11.5t-0.5 16t-0.5 12.5v71q0 2 0.5 10t0 13.5t-1.5 9.5q-3 8 -9 10.5t-16 2.5v10z" />
<glyph d="M522 296h13v-66h-13q-7 36 -25 44q-14 8 -32 2t-15 -25q1 -6 6.5 -12t8 -7.5t11.5 -7.5q5 -3 24 -13.5t27.5 -17t15.5 -20t3 -29.5q-6 -22 -26 -32t-45 -7q-3 0 -8.5 2t-10.5 3.5t-10 2t-8 -1.5t-3 -7h-14v66h14q1 -17 10 -30t24 -17q16 -4 31.5 2t14.5 23t-31 33 q-3 2 -11.5 7t-12.5 7t-12 7.5t-11.5 9t-8.5 10t-6.5 12t-1.5 12.5t2 15q6 19 23.5 27.5t38.5 6.5q9 -1 23 -5q8 -3 10 -3q3 1 5 9zM221 510h117h30l12 -1l5 -14l11 -36h-15q-7 25 -22 32q-2 1 -22 1h-55v-68q3 0 15 -1t19.5 -1t16.5 3t12 9q2 3 2 17h14v-71h-14q0 13 -2 17 q-3 6 -12 8.5t-16.5 3t-19.5 -0.5t-15 -1v-49q0 -19 9 -25q4 -3 17 -2v-10h-87v10q20 0 25 13q2 4 2 9.5t-0.5 13.5t-0.5 10v71q0 3 0.5 12t0.5 15.5t-2 11.5q-5 13 -25 13v10z" />
<glyph d="M522 296h13v-66h-13q-7 36 -25 44q-14 8 -32 2t-15 -25q1 -6 6.5 -12t8 -7.5t11.5 -7.5q5 -3 24 -13.5t27.5 -16.5t15.5 -19.5t3 -29.5q-5 -23 -25.5 -32.5t-45.5 -7.5q-3 0 -8.5 2t-10.5 3.5t-10 2t-8 -1.5t-3 -7h-14v66h14q1 -17 9.5 -30t23.5 -16q17 -4 32.5 1.5 t14.5 22.5q0 8 -5.5 14.5t-10.5 9.5t-14 9q-3 2 -11 6l-11 6q-4 2 -11 6.5t-10.5 8t-8.5 8t-7.5 9.5t-4.5 10.5t-1.5 12t2.5 13.5q6 19 23.5 27.5t38.5 6.5q9 -1 23 -6q8 -3 10 -2q3 1 5 9zM270 490v-45q0 -16 1 -17q3 -3 23 -3q26 0 38 11q10 10 8 26t-14 23q-9 5 -21 7 q-8 1 -11.5 0.5t-11.5 -1.5t-12 -1zM208 510h80q47 0 67 -13q16 -10 19.5 -30t-7 -37.5t-30.5 -18.5l31 -53q12 -21 20 -25q4 -2 19 -2v-10h-89v10q14 0 16 2q4 6 -4 20q-3 6 -10 18t-10 18q-9 16 -11 17q-3 2 -8 2t-12.5 -0.5t-8.5 -0.5v-49q0 -19 9 -25q4 -3 17 -2v-10 h-88v10q20 0 25 13q2 4 2.5 9.5t0 13.5t-0.5 10v71q0 3 0.5 12t0 15.5t-2.5 11.5q-5 13 -25 13v10z" />
<glyph d="M522 296h13v-66h-13q-7 36 -25 44q-14 8 -32 2t-15 -25q1 -6 6.5 -12t8 -7.5t11.5 -7.5q5 -3 24 -13.5t27.5 -16.5t15.5 -19.5t3 -29.5q-5 -23 -25.5 -32.5t-45.5 -7.5q-3 0 -8.5 2t-10.5 3.5t-10 2t-8 -1.5t-3 -7h-14v66h14q1 -17 9.5 -30t23.5 -16q17 -4 32.5 1.5 t14.5 22.5q0 8 -5.5 14.5t-10.5 9.5t-14 9q-3 2 -11 6l-11 6q-4 2 -11 6.5t-10.5 8t-8.5 8t-7.5 9.5t-4.5 10.5t-1.5 12t2.5 13.5q6 19 23.5 27.5t38.5 6.5q9 -1 23 -6q8 -3 10 -2q3 1 5 9zM204 510h89v-10q-21 0 -26 -12q-2 -5 -2 -12t0.5 -16.5t0.5 -12.5v-17v-21 q0 -7 1 -20t5 -20l8 -15q4 -9 13 -12.5t20 -3.5t20 5q11 6 17.5 14.5t9 21.5t3 21t0 25.5t-0.5 22.5q0 2 0.5 12.5t0.5 16.5t-3 13t-9 9q-2 1 -15 1v10h75v-10q-13 0 -15 -1q-6 -3 -9 -11t-3 -15t0.5 -18.5t0.5 -13.5q0 -4 0.5 -18.5t0 -20.5t-2 -18t-4 -19t-8 -15.5 t-13.5 -14.5q-9 -7 -17 -10q-12 -5 -24 -5q-31 0 -53.5 13t-30.5 42q-3 11 -3 48v50q0 19 -9 25q-3 2 -17 2v10z" />
<glyph unicode=" "  horiz-adv-x="242" />
<glyph unicode="&#x09;" horiz-adv-x="242" />
<glyph unicode="&#xa0;" horiz-adv-x="242" />
<glyph unicode="!" horiz-adv-x="187" d="M120 58q19 -9 18 -11q-8 -8 -24 -29q-24 -31 -26 -36l-30 38l-24 25q28 15 44 54q5 -1 22.5 -20t19.5 -21zM63 474q50 31 95 35q-1 -52 -20.5 -149t-23.5 -129q0 -4 -1 -17t-1.5 -22.5t-3.5 -20.5t-8.5 -17t-14.5 -7q0 37 1.5 109t1.5 108v20v20q0 5 -1 16.5t-4 18.5 t-8 15.5t-12 16.5v3z" />
<glyph unicode="&#x22;" horiz-adv-x="260" d="M219 483q0 -12 -1 -22l-13 -99q-1 -13 -5 -35q0 -3 -11 -3q-12 2 -13 3q-2 21 -2 30l-18 117v9q0 29 32 29q31 0 31 -29zM108 483l-21 -156q0 -3 -12 -3q-11 1 -12 3q-3 28 -13 82q-10 53 -8 74q0 29 33 29t33 -29z" />
<glyph unicode="#" horiz-adv-x="633" d="M185 226h227l41 200h-163l-61 -4l-15 -48zM238 678h40q-17 -124 -48 -208h167l60 7l14 45l23 112l13 40l38 4l-44 -208h108v-44h-115l-41 -200h156v-45h-167l-28 -149l-15 -51l-39 -4l41 204h-163l-61 -6l-14 -46l-22 -107l-14 -41l-38 -4l41 204h-104v45h115l40 200 h-155v44h167z" />
<glyph unicode="$" horiz-adv-x="465" d="M218 363l8 208q-54 -3 -86 -39.5t-10 -86.5q20 -44 88 -82zM241 274v-252q38 3 73 24t51 55t-3 77q-28 57 -121 96zM218 637h27v-44q40 0 81.5 -13.5t62.5 -39.5q10 -12 -12.5 -42t-39.5 -32q-1 78 -92 105v-152q0 -5 -1.5 -20.5t-0.5 -27t4 -19.5q4 -8 12.5 -14t24 -14 t16.5 -9q57 -32 88 -71q32 -42 28.5 -85t-27.5 -78t-66 -58q-41 -23 -85 -24v-70h-20v70q-11 1 -23 4l-21 5q-10 3 -21 10t-18 10.5t-18.5 13.5t-16.5 14t-17 16l-15 16q-3 3 -15.5 17t-15.5 17v3l52 71h4q7 -11 9 -35t3 -32q12 -41 42.5 -68.5t70.5 -34.5v174q0 6 1.5 23.5 t1 31t-3.5 22.5q-3 7 -8.5 11.5t-17.5 11.5l-12 6q-54 30 -77 57q-30 36 -33 76.5t16 72.5t55 55t78 26v44z" />
<glyph unicode="%" horiz-adv-x="731" d="M538 257q-52 -12 -66 -82q-14 -67 18 -125q32 -61 90 -48q29 7 45.5 32.5t18 57.5t-4 64t-16.5 55q-14 26 -36 39t-49 7zM542 275q83 14 126 -54q38 -58 22 -129q-16 -75 -80 -100q-14 -6 -30 -9q-86 -14 -130 54q-38 58 -22 129q16 75 80 100q16 6 34 9zM162 560 q-30 -6 -46.5 -31.5t-19.5 -57t2 -63t15 -53.5q14 -28 37 -43t51 -8q28 6 44 31.5t18.5 57t-2.5 62.5t-15 54q-12 27 -34.5 42t-49.5 9zM162 578q82 14 126 -52q38 -57 23 -130q-15 -76 -79 -103q-14 -5 -28 -8q-85 -15 -129 52q-38 57 -25 127q14 76 80 105q14 6 32 9z M155 -40q9 25 26 52t40 59t33 48q112 177 194 323q6 12 22 46.5t31 60t32 38.5q5 4 12 5.5t17.5 3t14.5 1.5q-52 -97 -161 -272l-138 -224q-5 -8 -16 -30.5t-21 -40t-23 -36t-29.5 -28t-33.5 -6.5z" />
<glyph unicode="&#x26;" horiz-adv-x="565" d="M164 302q-93 -38 -92 -120q0 -68 30 -100q42 -45 100 -45q26 0 52.5 14t39.5 28l32 36q-43 95 -71 126.5t-91 60.5zM160 500q-22 0 -43 -17t-21 -42q0 -14 6 -26.5t19 -23.5t21.5 -16.5t28 -16.5t22.5 -13q54 34 54 62q0 39 -24.5 66t-62.5 27zM193 545q106 -37 99 -129 q-14 -37 -80 -81q58 -22 90 -61t57 -98q24 38 50 101t34 101q3 13 -5 21q-10 10 -31 18q-7 2 -3 8q3 8 8 6q19 -8 61 -16q35 -6 54 -5q7 0 6 -6q0 -9 -6 -9q-16 0 -25 -4q-18 -6 -30 -37q-56 -130 -99 -204q24 -61 50.5 -91t50.5 -30q36 0 66 67q5 9 13 5q9 -4 8 -10 q-16 -36 -39 -64q-13 -14 -37.5 -22.5t-42.5 -8.5q-31 0 -58.5 26.5t-45.5 68.5q-4 -4 -22 -25.5t-33 -35t-47 -26.5t-71 -13q-70 0 -110 46t-40 106.5t35.5 105t90.5 67.5q-74 40 -74 106q0 18 6 33t13 24.5t23 20.5t24.5 16t30 15t29.5 14z" />
<glyph unicode="'" horiz-adv-x="144" d="M106 483l-21 -156q0 -3 -12 -3q-11 1 -12 3q-1 7 -2 17t-1 13l-16 117v9q0 29 32 29t32 -29z" />
<glyph unicode="(" horiz-adv-x="231" d="M224 -113q0 -3 -8 -8l-5 -3q-8 0 -15 8q-68 60 -101 126q-42 86 -40 193q0 88 48 193q33 71 93 129q6 6 15 5q8 0 10 -5q3 -3 3 -5q0 -5 -8 -12q-114 -118 -112 -305q0 -182 114 -303q6 -5 6 -13z" />
<glyph unicode=")" horiz-adv-x="222" d="M176 203q0 -92 -46 -193q-31 -70 -93 -126q-7 -7 -15 -8q-9 0 -12 8q-2 2 -1 3q0 6 4 13q113 116 116 303q0 182 -116 304q-5 5 -4 13q0 3 7 7q3 3 6 3q9 0 15 -5q65 -60 97 -129q42 -85 42 -193z" />
<glyph unicode="*" horiz-adv-x="336" d="M152 505q-21 -5 -33 -20.5t-11 -34t8.5 -35t26 -25t38.5 -2.5q22 5 33.5 20.5t10.5 33.5t-8.5 34.5t-25 25.5t-39.5 3zM160 619h19l25 -104l111 27q1 -14 -9 -27t-22 -21.5t-23 -21t-11 -26t11 -26t23 -21.5t22 -21t9 -26q-5 1 -43 14t-56 8q-5 -2 -9.5 -4.5t-7 -8.5 t-5.5 -11t-5 -13l-3 -13q-2 -6 -3.5 -15.5t-2 -13t-1 -12t-0.5 -9.5h-19q0 3 -3.5 23.5t-6 32t-9.5 25.5t-16 18q-17 9 -60 -6t-46 -15q-2 13 8 25.5t23 21.5t23.5 21.5t10.5 26t-11 26t-23.5 21t-22.5 20.5q-10 14 -8 28q6 -1 45.5 -16t57.5 -8q9 3 14.5 11.5t9.5 21.5 t6.5 23.5t4.5 25.5t3 19z" />
<glyph unicode="+" horiz-adv-x="351" d="M315 129h-116v-129h-41v129h-116v33h116v118h41v-118h116v-33z" />
<glyph unicode="," horiz-adv-x="186" d="M29 -96l8 -11zM88 109q5 -1 9 -3.5t5 -4.5l6 -7l7 -6q3 -4 11 -9t14 -10t8 -12t-4.5 -20t-6.5 -15q-23 -95 -100 -129l-8 18q31 18 48.5 41.5t3.5 50.5q-4 7 -19 22.5t-18 29.5q28 15 44 54z" />
<glyph unicode="-" horiz-adv-x="284" d="M245 208q5 0 6 -17q0 -22 -6 -22h-205q-4 0 -6 19q0 20 6 20h205z" />
<glyph unicode="." horiz-adv-x="186" d="M130 68q19 -9 18 -11q-8 -8 -24 -29q-24 -31 -26 -36l-30 38l-24 25q28 15 44 54q5 -1 22.5 -20t19.5 -21z" />
<glyph unicode="/" horiz-adv-x="245" d="M37 -3q0 -2 -5 -2t-17 5q-5 2 -8 4.5t-4.5 3.5t-0.5 2v2l212 498q0 1 2 2q5 0 17 -2q15 -7 15 -14v-1z" />
<glyph unicode="0" horiz-adv-x="411" d="M177 303q-32 -7 -53.5 -27t-29.5 -47.5t-7 -59t14 -61t30.5 -52.5t45 -34.5t58.5 -6.5q67 11 84 83q17 68 -19 134q-37 70 -101 73q-11 0 -22 -2zM183 324q40 7 77 -5t62.5 -35.5t40.5 -56t16.5 -67t-14.5 -69.5t-49 -61q-37 -29 -92 -37q-39 -6 -75.5 6.5t-61.5 37 t-39.5 58t-15 67.5t16.5 68.5t50 59.5q38 26 84 34z" />
<glyph unicode="1" horiz-adv-x="264" d="M66 -1v-4h140q-17 8 -41 9t-56 -2t-43 -3zM48 326l162 22l3 -18q-14 -9 -24 -22t-16 -29.5t-9.5 -30.5t-5 -35.5t-1.5 -34.5t0.5 -36.5t0.5 -32.5q0 -3 -0.5 -15t0 -19t1.5 -17.5t3.5 -18t8.5 -13.5q11 -14 60 -16v-15h-191v15q19 2 32.5 9.5t21.5 21.5t12 28.5t5 35 t1 35.5t-1 36.5t-1 32.5q0 3 0.5 19.5t0.5 26t-3 22t-8 18.5q-2 3 -5.5 5.5t-8 3.5t-8 1.5t-9.5 1t-9 0.5h-9h-7z" />
<glyph unicode="2" horiz-adv-x="391" d="M73 274q-8 23 26 49q27 21 65 27t71 -5q41 -12 56 -48t-6 -73q-18 -32 -46 -61.5t-67.5 -61.5t-57.5 -50l113 -5l85 2l44 54l15 -7q-2 -4 -9 -19t-10 -22.5t-10.5 -21t-14 -22t-14 -17t-16.5 -12.5q-6 7 -13 11t-16.5 5.5t-15.5 2t-18.5 0t-17.5 -0.5h-191 q6 11 17.5 21.5t27.5 22.5t22 16q1 1 14.5 13t16 14t14.5 13t16 15t15 14t15 15.5t12 15.5t12.5 17.5t9.5 17t9 18.5q16 42 -4 81t-68 32q-15 -3 -30.5 -11.5t-23 -15.5t-23.5 -24h-4z" />
<glyph unicode="3" horiz-adv-x="294" d="M44 290q33 29 66 40q51 17 92.5 -8.5t35.5 -79.5q-4 -30 -29.5 -60.5t-54.5 -42.5v-7q45 -20 72.5 -60.5t26.5 -89t-34 -85.5q-32 -38 -77.5 -60t-108.5 -40l-4 15q9 5 31 16l36 17q14 7 33.5 19.5t32 23t24 26.5t14.5 31.5t-0.5 35t-16.5 41.5q-14 23 -33 38 q-33 28 -54 30q-8 0 -15.5 -2t-12.5 -4t-11.5 -0.5t-12.5 7.5q6 3 29.5 16t32.5 19l26 19q17 12 28.5 24.5t20.5 27.5q18 30 8.5 62.5t-42.5 46.5q-17 8 -35.5 0t-36 -16.5t-31.5 -3.5v4z" />
<glyph unicode="4" horiz-adv-x="440" d="M243 245l-111 -128l-55 -70l173 -4q0 14 3.5 61.5t2 82t-12.5 58.5zM305 370l15 -3l-15 -328q13 4 36.5 6t38 9t28.5 26l14 -4l-38 -77h-83l4 -114v-37l-74 -58l-11 7v4q11 16 18 34.5t9.5 42.5t3 39.5t0 45t-0.5 40.5q-19 0 -55.5 1t-65.5 1t-56 -3q-3 0 -12.5 -2 t-18 -3.5t-16.5 -0.5t-11 6q-4 8 11 26l58 67l56 65l62 70l51 65q30 39 52 75z" />
<glyph unicode="5" horiz-adv-x="303" d="M77 322l147 6l59 39l-46 -89l-68 -2l-77 -5q-1 -7 -5 -26t-5 -29.5t3 -25.5q5 -8 15.5 -13.5t29 -9.5t20.5 -5q71 -24 98 -71q27 -50 13 -99t-52 -88t-88.5 -64.5t-95.5 -27.5v19q64 12 109 46.5t63 92.5q13 44 -3 83.5t-54.5 59t-84.5 7.5z" />
<glyph unicode="6" horiz-adv-x="391" d="M133 242q-1 12 7.5 22.5t16.5 16.5t23 12q45 22 87.5 8.5t69.5 -56.5q18 -31 21.5 -67t-6.5 -67.5t-30 -59.5t-49 -43.5t-62.5 -18.5t-71.5 15q-50 24 -74.5 78t-24.5 115q0 71 36.5 143t98.5 122.5t133 62.5l4 -12q-45 -27 -80.5 -55.5t-67 -65.5t-49 -81.5t-19.5 -94.5 q-2 -32 7.5 -68.5t27.5 -69t49.5 -50.5t69.5 -8q34 8 51.5 33t15.5 56.5t-13.5 63.5t-33.5 58t-46 35q-10 4 -20 4.5t-19.5 -3t-16.5 -7t-17.5 -9.5t-17.5 -9z" />
<glyph unicode="7" horiz-adv-x="411" d="M62 348l40 -17l104 -1l187 4q-1 -16 -13 -37.5t-30 -46t-24 -34.5l-65 -121h141l-10 -24h-144l-60 -112q-4 -8 -14.5 -34.5t-21 -45t-22.5 -27.5q-5 -3 -13 -4t-18.5 -1.5t-13.5 -1.5l-4 4l91 158l36 64h-139l10 24h143l101 179q-166 22 -246 -2q-11 -3 -26.5 -19.5 t-28.5 -18.5z" />
<glyph unicode="8" horiz-adv-x="391" d="M165 511q-37 -7 -50 -29.5t-5.5 -49.5t23.5 -53t36 -42q2 -1 8.5 -6.5t11.5 -8.5l11 -8q7 -5 13 -6.5t11 -0.5q22 6 36 30t15 47q3 52 -28.5 94.5t-81.5 32.5zM180 253q-65 -19 -77 -87q-10 -61 27 -111q42 -58 108 -43q2 1 5 2q33 9 46.5 37t8.5 60t-20.5 62.5 t-34.5 47.5q-2 2 -8 6.5t-8 6.5t-8.5 6.5t-9.5 5.5l-9 6q-7 3 -10 2t-10 -1zM169 271q-53 36 -70 59q-24 32 -26 70q-1 39 13 69q30 66 103 67q62 0 105 -43q51 -52 22 -116q-4 -8 -8 -14q-7 -10 -16.5 -21t-14.5 -16t-20.5 -18.5t-17.5 -14.5q48 -28 82 -73q27 -39 31 -74 q3 -26 -8 -59q-24 -71 -105 -89q-73 -17 -136 20q-69 39 -60 111q2 15 9 32q9 26 33 51q31 35 84 59z" />
<glyph unicode="9" horiz-adv-x="411" d="M290 55q-31 -33 -55 -45q-56 -26 -113 5t-75 90q-14 46 -1.5 94.5t46.5 81.5q40 39 88.5 44.5t88.5 -16.5t69.5 -64t34.5 -92q8 -67 -12 -127.5t-61 -106t-95 -78.5t-117 -51l-7 14q52 27 87.5 52.5t70 59.5t54 78t26.5 97q4 32 -5 73t-30 77.5t-52.5 53t-73.5 -1.5 q-63 -28 -64 -104q-2 -67 41 -116q49 -55 111 -28q17 7 33 21h4l7 -8v-3z" />
<glyph unicode=":" horiz-adv-x="178" d="M130 304q19 -9 18 -11q-8 -8 -24 -29q-24 -31 -26 -36l-30 38l-24 25q28 15 44 54q5 -1 22.5 -20t19.5 -21zM130 68q19 -9 18 -11q-8 -8 -24 -29q-24 -31 -26 -36l-30 38l-24 25q28 15 44 54q5 -1 22.5 -20t19.5 -21z" />
<glyph unicode=";" horiz-adv-x="187" d="M130 309q19 -9 18 -11q-8 -8 -24 -29q-24 -31 -26 -36l-30 38l-24 25q28 15 44 54q5 -1 22.5 -20t19.5 -21zM29 -96l8 -11zM88 109q5 -1 9 -3.5t5 -4.5l6 -7l7 -6q3 -4 11 -9t14 -10t8 -12t-4.5 -20t-6.5 -15q-23 -95 -100 -129l-8 18q31 18 48.5 41.5t3.5 50.5 q-4 7 -19 22.5t-18 29.5q28 15 44 54z" />
<glyph unicode="&#x3c;" horiz-adv-x="351" d="M317 0l-277 130v32l277 130v-41l-227 -104v-1l227 -106v-40z" />
<glyph unicode="=" horiz-adv-x="351" d="M315 206h-273v35h273v-35zM315 114h-273v34h273v-34z" />
<glyph unicode="&#x3e;" horiz-adv-x="351" d="M315 130l-275 -130v40l224 106v1l-224 104v41l275 -130v-32z" />
<glyph unicode="?" horiz-adv-x="264" d="M150 58q19 -9 18 -11q-8 -8 -24 -29q-24 -31 -26 -36l-30 38l-24 25q28 15 44 54q5 -1 22.5 -20t19.5 -21zM121 143q-18 3 -18.5 46.5t11.5 58.5q7 9 31 15t28 8q44 22 31 96q-11 63 -105 79q-4 1 -16.5 2t-21.5 3.5t-15 7.5q-10 9 -4 48t16 47q7 -17 17.5 -27 t19.5 -13.5t26.5 -8.5t28.5 -10q47 -21 69 -66q19 -40 12.5 -92.5t-35.5 -87.5q-9 -13 -24 -26t-24.5 -20.5t-17 -23t-9.5 -36.5z" />
<glyph unicode="@" horiz-adv-x="536" d="M407 33q3 -7 1 -7q-59 -38 -136 -38q-98 0 -164 54q-74 59 -76 166q0 118 84 197q81 75 196 75q97 0 156 -58q55 -49 53 -127q0 -71 -48 -119q-49 -49 -136 -51q-31 0 -38 7q-2 3 -4 14q0 8 16 55q-1 3 1 5l-3 2q-63 -84 -104 -83q-31 0 -33 44q0 55 44 114q43 67 96 68 q15 0 35 -15l7 20q2 8 15 5q17 2 17 -5l-51 -171q-3 -13 -3 -23q0 -16 15 -15q60 0 101 40q43 42 43 105q0 73 -53 119q-50 44 -126 43q-110 0 -172 -74q-60 -72 -61 -172q0 -74 46 -130q57 -66 167 -65q49 0 110 25q2 2 5 -5zM339 312q0 21 -33 21q-37 0 -69 -61 q-26 -58 -26 -95q0 -24 14 -23q16 0 58 45q14 17 23 26q15 22 26 60z" />
<glyph unicode="A" horiz-adv-x="600" d="M285 471l-94 -233q25 -3 60 -4t65 -0.5t63 -0.5q-50 134 -94 238zM309.5 592q8.5 0 10.5 -9q19 -63 94.5 -259.5t100.5 -251.5q17 -35 27.5 -45.5t33.5 -12.5q7 -1 6.5 -8.5t-3.5 -7.5h-66q-60 0 -105 -4q-8 -1 -9 5q-2 9 4 10h5q5 1 9.5 2t11 3.5t9.5 7t6 11.5t0 16 q-9 44 -54 153q-146 6 -212 4q-23 -49 -51 -125q-11 -35 -1 -46t65 -26q4 -1 2 -9q-1 -5 -2 -7t-4 -1q-30 5 -87 7q-40 2 -73 -1q-9 -1 -8 7q0 9 5 9q23 4 37.5 19t30.5 52q23 48 108.5 254t97.5 243q3 10 11.5 10z" />
<glyph unicode="B" horiz-adv-x="479" d="M169 302q-13 0 -13 -10q-2 -181 0 -222q1 -31 8 -36q19 -14 66 -14q70 0 114 33.5t44 94.5q0 55 -30.5 95.5t-86.5 52.5q-37 7 -102 6zM200 565q-20 0 -27.5 -5t-10.5 -21q-3 -13 -5.5 -99t-0.5 -120q46 0 73 5q43 7 71.5 35.5t28.5 79.5q0 55 -35 90t-94 35zM32 585 q38 -7 89 -6q22 0 57.5 3.5t57.5 3.5q64 0 116 -38t52 -102q0 -47 -34.5 -81.5t-97.5 -44.5q77 -9 132.5 -52t55.5 -112q0 -44 -18.5 -77t-51.5 -50.5t-68.5 -25t-75.5 -7.5l-122 3q-52 1 -91 -5q-8 -1 -9 9q-1 9 4 8q57 2 62 61q4 60 5 216.5t-1 200.5q-2 47 -15 61.5 t-50 18.5q-6 1 -5 9.5t8 6.5z" />
<glyph unicode="C" horiz-adv-x="555" d="M348 606q59 0 138 -28q19 -7 35 -5q12 3 15 3q9 0 5 -8q-18 -41 -24 -102q-1 -8 -6 -8q-11 0 -10 16q3 27 -6.5 42t-34.5 30q-20 12 -57.5 23.5t-69.5 11.5q-47 0 -65 -5q-60 -18 -104 -66q-37 -42 -53 -91t-16 -124q0 -66 17 -109q32 -81 100 -128t137 -47 q64 0 111.5 33.5t59.5 81.5q2 8 10 5q9 -1 7 -9q-4 -14 -15 -49t-15 -56q-119 -27 -175 -27q-130 0 -221.5 85.5t-91.5 211.5q0 74 19 125.5t61 97.5q57 59 157 84q46 12 92 12z" />
<glyph unicode="D" horiz-adv-x="664" d="M296 578q-71 0 -118 -19q-6 -2 -7 -18q-7 -69 -9.5 -254t2.5 -238q1 -10 11 -13q64 -21 120 -21q84 0 140 29t93 89q42 67 42 169q0 106 -71 184q-43 46 -98 69t-105 23zM293 595q150 0 251.5 -79t101.5 -222q0 -63 -22.5 -115.5t-57 -85.5t-79.5 -56.5t-88 -33t-84 -9.5 q-40 0 -91.5 3t-79.5 3q-68 0 -112 -3q-8 0 -8 6q-3 10 10 10q28 0 41.5 8.5t16.5 40.5q5 49 7 223t-4 246q-3 26 -16 33t-41 9q-7 0 -7 8q0 6 2 8.5t6 1.5q16 -2 73 -2q10 0 79.5 3t101.5 3z" />
<glyph unicode="E" horiz-adv-x="534" d="M416 209q-5 39 -12 54q-9 14 -23 17q-61 9 -139 9q-57 0 -72 -1q-9 0 -9 -6q0 -194 7 -237q1 -7 7 -8q31 -14 127 -14q97 0 150 37q32 23 53 75q1 4 4.5 4t5.5 -2q5 -5 4 -7q-38 -118 -44 -130q0 -5 -7 -4q-19 4 -211 4h-141q-31 0 -84 -7q-7 -1 -8.5 7t2.5 9q33 6 49 14 q8 5 9 20q11 86 13.5 227.5t-5.5 259.5q-1 25 -22 35q-12 6 -29 9q-8 2 -8 7.5t6 5.5q378 -3 417 3q4 1 16 1q9 0 5 -8q-4 -12 -15 -105q-2 -10 -7 -10q-10 0 -8.5 9.5t1.5 17.5q1 39 -18 49q-45 23 -145 23q-57 0 -106 -10q-7 -2 -8 -7q-4 -26 -10 -227q0 -11 6 -12h82 q86 0 135 7q11 1 18 13q12 26 17 42q1 4 8.5 4t5.5 -5q-11 -82 -2 -160q2 -9 -6.5 -9t-8.5 6z" />
<glyph unicode="F" horiz-adv-x="491" d="M30 586q3 0 30.5 -1t79 -2t111.5 -1q19 0 61 -0.5t60 -0.5t43.5 2.5t42.5 7.5q5 2 8 0.5t2 -7.5q-8 -30 -8 -106q0 -11 -6 -11q-12 0 -13 9q0 50 -23 62q-44 20 -141 20q-80 0 -98 -3q-6 -1 -6 -9q-6 -62 -8 -226q0 -5 4 -5q97 -7 202 3q9 1 14 2.5t10.5 13.5t6.5 34 q0 7 9 6q10 0 10 -8q-2 -14 -2 -140q0 -11 -9 -11q-11 0 -11 10q5 48 -27 53q-38 6 -199 14q-6 0 -6 -3q-2 -31 -3 -211q0 -21 8 -34t24 -18.5t27 -7.5t32 -3q12 0 9 -15q-1 -6 -3.5 -8t-6.5 -1q-50 9 -129 9q-49 0 -85 -3q-9 0 -10 8q-1 9 3 10q34 6 44.5 15.5t14.5 43.5 q9 92 9 231.5t-8 219.5q-3 25 -14.5 34.5t-48.5 10.5q-7 0 -6 7q-1 9 6 9z" />
<glyph unicode="G" horiz-adv-x="624" d="M359 592q31 0 54.5 -4t51 -12t30.5 -9q13 -2 18 1q6 4 14 16q2 4 7 3.5t4 -5.5q-2 -15 3.5 -61.5t12.5 -65.5q1 -4 -1.5 -6.5t-5.5 -2.5q-8 0 -9 6q-18 46 -66.5 80t-131.5 34q-57 0 -95 -17q-69 -31 -110.5 -96.5t-41.5 -153.5q0 -109 79.5 -196t191.5 -87q70 0 126 35 q13 9 14 28q4 68 -3 146q-2 26 -20 35t-83 8q-7 0 -7 9t8 9q34 -2 79 -1q70 0 118 5q9 2 10 -8q0 -7 -6 -9q-17 -4 -22.5 -14t-6.5 -33q-2 -147 -2 -158q0 -17 17 -32q3 -3 3 -7t-4 -5q-25 -4 -72.5 -13t-85.5 -14.5t-72 -5.5q-143 0 -239 82.5t-96 224.5q0 65 31.5 125 t78 95t108.5 54.5t121 19.5z" />
<glyph unicode="H" horiz-adv-x="727" d="M37 591q22 0 60 -2.5t50 -2.5q55 0 83 3q4 1 5 -1.5t1 -6.5q0 -7 -5 -7q-54 -8 -61 -20q-2 -2 -2 -5q-4 -29 -5 -65.5t-2 -92.5t-1 -74h416q0 14 0.5 54t-0.5 78t-5 77q-3 28 -17 38t-47 15q-4 1 -4 7q2 9 7 9l40 -3q40 -3 64 -3q19 0 81 5q5 0 6.5 -7.5t-3.5 -8.5 q-52 -6 -53 -50q-9 -352 -1 -466q1 -16 4 -25.5t13 -14t15.5 -5.5t23.5 -3q6 -1 5 -11q0 -4 -2 -7t-6 -2q-38 7 -84 7q-36 0 -98 -9q-5 -1 -6 0t-2 8q-2 11 3 12q20 4 27.5 6t17 7.5t12.5 15t4 25.5q7 145 4 219l-415 2q-1 -37 0 -81q1 -45 2 -96q1 -52 1 -53 q0 -22 16.5 -32.5t47.5 -15.5q7 -1 5 -12q-2 -7 -9 -6q-38 9 -93 9q-47 0 -97 -7q-9 -1 -9 6q-2 9 4 10q34 5 46 13t14 35q9 138 8 270.5t-5 203.5q-2 26 -14 34t-43 9q-6 0 -6 8q2 9 9 9z" />
<glyph unicode="I" horiz-adv-x="311" d="M36 593q43 -5 123 -5q66 0 121 6q9 1 9 -7q0 -11 -6 -11h-11q-9 0 -11 -0.5t-10.5 -1t-10.5 -1.5l-10 -3q-6 -3 -9 -6l-7 -6q-5 -4 -7 -9t-4.5 -12.5t-3.5 -15.5q-7 -55 -7.5 -209t3.5 -246q2 -43 27 -49q19 -5 57 -5q6 0 6 -8q0 -7 -9 -7q-10 -1 -56.5 1t-58.5 2 q-90 0 -127 -4q-11 -2 -11 7q0 11 6 11q47 2 60 7q32 11 35 54q7 96 6 238.5t-7 202.5q-4 36 -19.5 46t-56.5 14q-8 1 -11 1q-8 1 -8 6q0 10 8 10z" />
<glyph unicode="J" horiz-adv-x="321" d="M215 522q-3 -37 -4 -126.5t-1.5 -222t-2.5 -231.5q-64 -87 -108 -122q-9 -7 -30 -15.5t-38 -8.5q-10 0 -18 8.5t-11 16.5q-1 6 6 10q17 10 45 22q3 1 7 0q2 -1 9 -5t14 -4q9 0 22 13t20 37q11 41 15 106q8 129 7.5 294t-8.5 227q-2 16 -8.5 27t-11 16t-20.5 8.5t-21 4 t-30 2.5q-8 0 -7 7q0 9 6 9q61 -7 132 -7q62 0 112 4q9 1 10 -7q0 -11 -8 -11q-11 2 -24.5 0.5t-24.5 -5.5t-19 -15.5t-10 -31.5z" />
<glyph unicode="K" horiz-adv-x="594" d="M154 287q202 196 219 215q23 26 23 40q0 9 -13 15.5t-33 6.5q-5 0 -5 8q0 9 4 8q2 0 39 -1t44 -1q26 0 45.5 1t28 2.5t9.5 1.5q7 0 7 -7q0 -9 -7 -10q-17 2 -60 -31q-36 -27 -78 -64l-97 -88l-76 -71l300 -253q51 -43 71 -50q8 -2 4 -10q-1 -6 -7 -6q-2 0 -7.5 2 t-17.5 3.5t-28 1.5q-71 0 -111 -7q-5 0 -4 9q0 8 3 7q30 4 35.5 10.5t-10.5 21.5l-96 83l-104 86l-78 64q0 -122 5 -214q1 -23 14.5 -31.5t55.5 -17.5q5 -1 4 -9q0 -6 -7 -6q-2 0 -17 1l-39 3q-24 1 -46 1q-70 2 -92 -2q-9 -2 -9 6q0 10 6 10q29 2 41 11.5t14 39.5 q19 250 5 445q-2 32 -10 41.5t-44 14.5q-7 1 -7 8q0 8 7 7q45 -3 94 -3q28 0 52 1.5t36 3.5l14 2q5 0 4.5 -6.5t-4.5 -7.5q-19 -2 -25.5 -3.5t-18.5 -6t-17.5 -15t-5.5 -27.5q-7 -102 -10 -233z" />
<glyph unicode="L" horiz-adv-x="518" d="M37 584q1 0 13.5 -1t36.5 -2.5t49 -1.5q29 0 52.5 1.5t34.5 3t12 1.5q8 0 8 -9q0 -7 -1 -8.5t-6 -2.5q-39 -4 -52.5 -12t-15.5 -32q-15 -192 -9 -449q1 -24 12 -33.5t45 -10.5q67 -3 109 1q85 8 117.5 29t43.5 58q2 7 10 5q9 -3 7 -11q-25 -98 -40 -123q-21 7 -100 10 q-173 3 -231 3h-101q-8 0 -7 9q0 7 1 8.5t6 2.5q38 6 48 15.5t11 42.5q9 311 4 434q-1 20 -4 30.5t-13 15.5t-15 6l-25 2q-7 0 -6 11q1 7 6 7z" />
<glyph unicode="M" horiz-adv-x="839" d="M33 584q1 0 20 -1l46 -3q27 -1 47 -1q18 0 28.5 0.5t15.5 0.5h5q9 0 10 -4q8 -34 35 -90q27 -57 195 -368l95 180l104 196q35 68 39 79q2 8 8 7q1 0 9 -0.5t22 -0.5h33h28q14 0 23 0.5t11 0.5q5 0 5 -8.5t-6 -8.5q-43 4 -58.5 -9t-20.5 -60q-4 -43 -3 -86q5 -178 10 -303 q2 -52 18.5 -67.5t60.5 -19.5q4 0 4 -9.5t-7 -9.5q-2 0 -15 0.5t-35.5 1.5t-43.5 1q-96 0 -137 -7q-9 -2 -10 5q-1 10 4 11q50 9 71.5 31t21.5 73q-2 249 -4 367q-78 -130 -152 -279t-90 -199q-1 -5 -7 -4.5t-7 5.5q-17 54 -56 135t-98 192l-81 156q-12 -96 -20 -384 q-1 -53 17 -72.5t67 -20.5q8 0 8 -9t-8 -9q-3 0 -18 1.5t-38.5 2.5t-44.5 1q-43 0 -104 -5q-3 -1 -4 0t-1 2t-1 5q-1 10 3 10q44 1 65.5 24t25.5 71q2 23 11.5 184t8.5 175q-1 32 -6.5 52t-22 30t-29 13t-41.5 7q-5 1 -7 1q-7 1 -6 9q-1 8 7 8z" />
<glyph unicode="N" horiz-adv-x="743" d="M29 593q46 -7 68 -7q9 0 51 4q8 -13 38 -46t86 -88l102 -98l126 -120l116 -111q1 19 3 78.5t2.5 80t1 64t-1.5 79t-6 76.5q-3 38 -18.5 53.5t-66.5 20.5q-6 1 -5 7q0 8 7 8t51.5 -4.5t70.5 -4.5q20 0 33.5 0.5t19.5 1.5l7 1q7 0 6 -8q0 -9 -7 -8q-27 -1 -41.5 -16.5 t-16.5 -56.5q-9 -180 -8 -415q0 -54 4 -82q1 -12 -8 -12q-7 0 -13 11q-9 22 -40.5 58.5t-86.5 90.5l-107 102l-130 120l-128 120q-5 -294 -1 -407q1 -32 14 -45q22 -22 88 -31q8 -1 8 -10q0 -8 -9 -8q-66 7 -110 7q-51 0 -83 -6q-9 -1 -10 6q-2 10 6 11q41 4 50 16t10 63 q0 29 3 142t2.5 142t-3.5 136q-15 60 -73 67q-7 1 -7 9.5t6 8.5z" />
<glyph unicode="O" horiz-adv-x="661" d="M305 571q-47 0 -107 -30q-49 -26 -79.5 -82t-30.5 -115q0 -135 77 -232q33 -43 87 -70t112 -27q81 0 136 53q36 35 55.5 85t19.5 96q0 117 -62 209q-33 49 -87 81t-121 32zM332 599q125 0 218.5 -87.5t93.5 -222.5q0 -125 -89 -214t-207 -89q-80 0 -140.5 23.5 t-109.5 80.5q-35 40 -57 95t-22 104q0 96 55.5 173t140.5 111q64 26 117 26z" />
<glyph unicode="P" horiz-adv-x="497" d="M239 573q-40 0 -69 -7q-3 -14 -5.5 -152.5t-0.5 -168.5q28 -6 70 -6q80 0 127 44.5t47 109.5q0 85 -49.5 132.5t-119.5 47.5zM31 596h15q13 0 32.5 -1t39.5 -1q26 0 63 2.5t48 2.5q69 0 126 -27q57 -26 92 -70.5t35 -107.5q0 -66 -69.5 -122t-170.5 -56q-45 0 -78 6 q0 -35 1.5 -95.5t1.5 -68.5q1 -30 16 -34q13 -4 38.5 -8t28.5 -5q8 -2 4 -10q-2 -9 -8 -7q-53 7 -110 7q-66 0 -91 -7q-9 -3 -11 5q-3 10 4 11q38 9 48 17q9 7 10.5 13t2.5 25q7 365 -7 479q-1 10 -9 16q-17 15 -53 19q-7 1 -6 10q-1 7 7 7z" />
<glyph unicode="Q" horiz-adv-x="689" d="M325 568q-97 0 -161 -66.5t-64 -166.5q0 -81 33.5 -153.5t98.5 -119.5t147 -47q77 0 133 55q74 71 74 196q0 99 -60 188q-29 43 -85 78.5t-116 35.5zM445 7h1q53 -42 127 -75.5t125 -33.5q24 0 41 5q4 1 6 -5q1 -1 1 -2q3 -9 -3 -9q-70 -17 -125 -17q-53 0 -136.5 36 t-134.5 84q-76 0 -130.5 22.5t-103.5 76.5q-35 40 -57 94t-22 106q0 126 95 216.5t219 90.5q120 0 213.5 -86.5t93.5 -221.5q0 -97 -58.5 -173.5t-151.5 -107.5z" />
<glyph unicode="R" horiz-adv-x="638" d="M237 572q-49 0 -66 -17q-6 -6 -6 -11q-9 -129 -7 -240q40 -6 83 -5q32 0 57 5q33 9 62.5 37t29.5 80q0 45 -26.5 86.5t-67.5 56.5q-19 8 -59 8zM34 583q2 0 27.5 -2t50.5 -2q26 0 73.5 6.5t74.5 6.5q95 0 148.5 -49.5t53.5 -107.5q0 -34 -14 -61.5t-36.5 -44.5t-41 -26 t-36.5 -14q121 -182 184 -246q25 -25 55.5 -40.5t54.5 -15.5q8 0 7 -8q0 -9 -26 -9q-83 0 -166 71q-74 63 -186 238q-36 -4 -99 6q-1 -100 5 -242q0 -9 6.5 -15t13 -8.5t21 -6.5t22 -6.5t5.5 -11.5q-3 -7 -8 -5q-45 10 -86 10q-38 0 -100 -10q-5 -1 -10 3q-2 1 -1 7t4 7 q58 8 59 49q12 306 1 471q-1 25 -14.5 31t-45.5 7q-5 0 -6 3.5t1 7.5q4 7 9 7z" />
<glyph unicode="S" horiz-adv-x="444" d="M239 587q49 0 104 -14q38 -10 54 6q3 3 8 3q6 0 4 -7l-8 -60q0 -13 8 -58q1 -6 -5.5 -7t-7.5 4q-9 51 -43 78q-50 38 -111 38q-59 0 -95.5 -30.5t-36.5 -78.5q0 -17 4 -32t9.5 -24.5t14.5 -18.5t15 -13l15 -10q8 -6 10 -7q12 -9 72.5 -31.5t77.5 -32.5q97 -54 97 -151 q0 -68 -56.5 -109.5t-126.5 -41.5q-51 0 -90.5 6t-60 11.5t-23.5 5.5q-8 0 -8 -13q0 -6 -8 -4h-4q-4 1 -4.5 2t-0.5 5q1 10 0 23q0 26 -24 118q-1 7 5 8q9 3 10 -1q18 -65 44 -87q20 -17 69.5 -33t103.5 -16t84.5 28.5t30.5 73.5q0 37 -13 60t-44 45q-20 14 -82 38.5 t-86 39.5q-88 51 -88 126q0 66 52.5 113.5t133.5 47.5z" />
<glyph unicode="T" horiz-adv-x="634" d="M60 596q3 0 10.5 -7.5t18.5 -8.5q48 -3 224 -2h75q40 0 72.5 0.5t59.5 0.5h42h17q7 0 14.5 1.5t13 3.5t6.5 2q9 0 5 -8q-5 -9 -12 -31q-4 -13 -11 -56q-1 -11 -14 -10q-9 3 -8 10l7 34q-20 20 -84 24t-138 -1q-10 -352 -5 -464q0 -9 1 -17t2 -14.5t5 -11t5.5 -8t8 -5.5 t8.5 -3.5t12 -3t12.5 -2t16 -1.5t17.5 -2q10 -2 5 -13q-4 -9 -10 -10q-5 0 -39 5t-60 6q-51 1 -141 -13q-9 -1 -12 6q-6 10 5 12q54 10 77 22q8 3 10 11.5t3 39.5q13 424 -4 464q-51 8 -141 3q-46 -2 -73 -15q-11 -6 -15.5 -13t-12.5 -28q-3 -10 -10 -7q-9 5 -7 10 q33 72 37 92q2 8 7 8z" />
<glyph unicode="U" horiz-adv-x="677" d="M26 589q1 0 13.5 -1t34.5 -2t48 -1q25 0 51 1t43 2t18 1q5 0 5.5 -1t1.5 -6q2 -9 -8 -9q-44 0 -60.5 -12t-19.5 -48q-6 -71 -4 -316q0 -72 22 -107q46 -75 170 -75q66 0 113.5 19.5t66.5 44.5q28 40 38 136q17 189 -3 325q-2 16 -15 23q-11 7 -49 7q-11 0 -12 9 q0 5 1.5 7.5t5.5 1.5q30 -4 80 -4q20 0 40 0.5t32 1t13 0.5q9 0 8 -7.5t-9 -7.5q-30 1 -42.5 -6.5t-12.5 -33.5q-2 -220 -11 -317q-10 -105 -43 -151q-25 -34 -80.5 -55t-124.5 -21q-78 0 -122 14t-82 50q-28 26 -38 54q-12 36 -9 90q8 250 -3 331q-4 37 -19 41q-11 3 -37 5 q-9 0 -8.5 8.5t7.5 8.5z" />
<glyph unicode="V" horiz-adv-x="689" d="M18 588q2 0 22 -2t61 -2q91 0 111 3q4 1 4 -1l3 -7q2 -9 -5 -9q-53 -2 -53 -16q0 -10 10 -34q44 -108 197 -425l90 187l46 101l49 115q10 26 10 44q0 11 -14 20t-34 10q-6 0 -5 9q1 6 2.5 9t4.5 2q45 -6 104 -6q47 0 51 1q3 1 4 -1t1 -7q0 -9 -3 -8q-50 -9 -79 -68 q-179 -365 -206 -425q-15 -35 -33 -93h-12q-27 66 -127.5 273.5t-113.5 232.5q-27 53 -40 65.5t-45 12.5q-7 0 -7 9q0 10 7 10z" />
<glyph unicode="W" horiz-adv-x="920" d="M16 591q39 0 75 -2.5t39 -2.5q22 0 47.5 2t41.5 4t17 2q8 0 10 -7q2 -9 -3 -9q-27 -3 -48.5 -12.5t-21.5 -24.5q0 -13 7 -36q18 -57 68 -195t77 -199l132 304q-23 69 -57 127q-12 20 -21.5 27t-29.5 7q-7 0 -7 7q0 9 5 9q1 0 15.5 -1t39 -1.5t50.5 -0.5q20 0 44 1l42 3 q16 1 17 1q5 0 5 -7q0 -9 -5 -9q-28 -1 -48.5 -10t-20.5 -26q0 -7 5 -23q99 -296 149 -408q32 72 75 194.5t54 169.5q10 45 10 50q0 25 -26 39.5t-60 14.5q-6 0 -6 8q0 9 7 9q2 0 38.5 -2t71.5 -2q30 0 54 1l34 1q11 1 12 1q7 0 6.5 -8t-6.5 -8q-22 0 -49 -17 q-9 -6 -23.5 -32t-23.5 -48l-70 -190l-74 -200q-28 -80 -36 -111h-22q0 9 -22 77l-66 189q-44 122 -48 132q-97 -204 -161 -398h-15q-146 421 -181 507q-22 54 -38.5 68.5t-59.5 19.5q-4 0 -4 6q0 9 5 9z" />
<glyph unicode="X" horiz-adv-x="630" d="M27 594q1 0 15 -1t38 -2.5t50 -1.5h40q17 0 27.5 0.5t17.5 1t11 0.5h5q5 0 4 -7q0 -8 -4 -7q-44 2 -45 -16q0 -8 4 -15q15 -28 57 -91t84 -117q43 53 65 86t52 87q8 14 8 33q0 15 -18 24.5t-45 10.5q-6 0 -4 7q1 5 2 7t5 1q53 -8 95 -8h39q21 0 35.5 0.5t16.5 0.5 q7 0 7 -7q0 -8 -8 -7q-19 2 -30 -2.5t-26 -18.5q-25 -23 -181 -231l183 -244q3 -4 9.5 -12t9.5 -12t9 -11l9 -10q4 -4 9 -7.5t9 -5.5t9 -3t21 -3q8 -1 7 -11q0 -8 -7 -8q-1 0 -12 1.5t-32.5 3t-47.5 1.5q-70 0 -110 -6q-8 -1 -8 7q-2 10 4 10q52 4 52 26q0 14 -15 38l-38 58 l-51 74l-47 66q-68 -87 -132 -185q-15 -23 -15 -35q0 -21 19 -32t39 -12q9 0 8 -9q-1 -4 -2.5 -6t-4.5 -1q-26 7 -87 7q-72 0 -113 -6q-4 -1 -5.5 1.5t-1.5 7.5q0 9 5 8q44 0 85 41q21 20 57 65l78 99l56 73q-107 151 -181 240q-43 51 -83 51q-5 0 -5.5 1t-0.5 5q-1 8 4 8z " />
<glyph unicode="Y" horiz-adv-x="619" d="M18 594q2 0 21 -1l47 -3q27 -1 50 -1q21 0 42 0.5t33.5 1.5t14.5 1q7 0 7 -8q0 -9 -5 -8q-54 1 -54 -21q0 -12 8 -27q58 -85 160 -221q91 134 124 192q19 31 19 42t-16.5 23t-47.5 14q-9 0 -6 11q4 8 7 7q45 -10 107 -10q20 0 37.5 1t26.5 2.5t10 1.5q8 0 6 -8 q-1 -7 -7 -7q-54 -8 -91 -60q-96 -135 -155 -235q0 -206 2 -229q1 -15 5.5 -20.5t15.5 -9.5q6 -2 28 -6.5t26 -5.5q6 -2 5 -9q-1 -6 -2 -8t-4 -1q-32 8 -113 8q-54 0 -102 -9q-4 -1 -5.5 0.5t-1.5 6.5q0 9 5 11q31 4 40 6q10 4 15.5 6.5t11.5 12t6 24.5q4 87 0 210 q-21 40 -85.5 129.5t-105.5 136.5q-23 26 -39 34t-39 8q-8 0 -8 8q0 10 7 10z" />
<glyph unicode="Z" horiz-adv-x="594" d="M54 593q0 7 6 6q5 0 6 -3q4 -9 8 -10q16 -10 37 -11q72 -3 435 -3q4 0 9.5 1.5t6.5 1.5q6 0 6 -7q0 -2 -1.5 -4t-2.5 -4l-3 -2l-115 -146l-74 -92h172l-15 -38h-187l-64 -79l-145 -173q122 -9 223 -4q92 5 144 25.5t77 63.5q3 6 8 3q9 -5 6 -11q-11 -19 -31 -59 q-6 -12 -14.5 -33.5t-11.5 -26.5q-2 -7 -6 -7q-6 0 -10 13q-83 6 -490 6q-5 0 -5.5 4t2.5 6q105 111 230 264l7 8h-164l14 38h181q99 124 167 222q-54 5 -154 6t-126 -2q-64 -5 -91 -17.5t-57 -58.5q-5 -7 -8 -3q-8 8 -6 12q34 81 36 114z" />
<glyph unicode="[" horiz-adv-x="248" d="M231 -124h-123q-9 0 -9 10v637q0 8 7 7h125q5 0 4.5 -14t-4.5 -14h-77q-8 0 -7 -7v-580q0 -10 6 -10h78q5 0 5 -14.5t-5 -14.5z" />
<glyph unicode="\" horiz-adv-x="245" d="M246 9v-1q-2 -4 -9 -8q-14 -7 -21 -8q-5 0 -4 5l-210 498l-2 1q0 7 12 14q13 5 19 2q5 0 7 -2z" />
<glyph unicode="]" horiz-adv-x="253" d="M158 -114q0 -9 -10 -10h-130q-8 0 -8 14.5t6 14.5h88q4 0 5 8v582q0 4 -1.5 6t-4.5 1h-77q-9 0 -9 14t8 14h125q8 0 8 -7v-637z" />
<glyph unicode="^" horiz-adv-x="378" d="M74 371l16 34q9 19 16 31l20 34l19 32q9 15 13 20.5t14 11.5t24 4q8 -1 13.5 -6t8.5 -9t7 -13t6 -12l23 -38l27 -50q11 -20 20 -39q-22 1 -42 17.5t-43.5 46t-29.5 36.5q-17 -31 -50.5 -65t-61.5 -35z" />
<glyph unicode="_" horiz-adv-x="351" d="M356 -89h-356v36h356v-36z" />
<glyph unicode="`" horiz-adv-x="192" d="M159 374q2 -4 2 -7q0 -13 -13 -13q-10 0 -14 10l-57 93q-2 2 -2 5q0 9 14 16q9 3 15 3q9 0 10 -6z" />
<glyph unicode="a" horiz-adv-x="344" d="M230 316q11 -10 21 -26q10 -19 12 -44q2 -38 1 -57q0 -12 -2.5 -44.5t-2.5 -49.5q0 -26 1 -39q0 -8 3 -16q2 -8 9 -14q7 -7 13 -8h6q1 0 7 3l20 6h2q2 0 3 -1l2 -1v-1q1 -1 1 -2v-4v-3l-2 -2q-2 -2 -3 -2l-68 -24q-4 -2 -5 -2h-4q-1 0 -3 2q-6 3 -10 7q-9 9 -12 14 q-5 8 -8 24q-33 -20 -43 -24q-23 -11 -47.5 -17t-45.5 -5q-9 0 -15 3q-9 4 -14 7q-6 6 -8 13q-2 5 -4 14q-3 15 -3 32q0 16 5 35q2 6 5 12q2 3 4 5q1 1 2.5 2t2.5 2q29 16 65 26q31 9 73 15l22 3l2 52q2 26 0 39q-3 21 -15 36q-7 8 -20 17q-19 13 -30 15q-14 2 -28 -3 q-11 -5 -19 -13q-6 -7 -5 -17q0 -10 1 -16l-47 -21l-2 8q-2 11 -2 16q0 8 5 16q5 9 21 18q21 13 41.5 21.5t50.5 14.5l19 3q6 0 19 -6q19 -10 29 -19zM96 19q9 -7 24 -7q12 0 26 3q13 4 30 11q21 9 33 21q-2 30 -2 45q0 27 1 40q-8 2 -10 2q-10 1 -34 -1q-30 -5 -34 -6 q-22 -7 -35 -19q-9 -9 -14 -29q-4 -15 -1 -32q1 -8 6 -15q6 -11 10 -13z" />
<glyph unicode="b" horiz-adv-x="425" d="M156 312q59 27 101 25q32 -2 61 -17q26 -15 47 -41q20 -24 29 -52q18 -55 -6 -113q-19 -43 -58 -72q-60 -46 -131 -51q-26 -2 -51 5q-42 12 -50 13q-20 0 -34 -12q-2 -2 -3 -2t-1 -1q-1 0 -1 0.5t-1 0.5l-1 1q-1 0 -1 1v2v2q0 1 2 6.5t3 9.5q8 31 8 74q0 12 0.5 36.5 t0.5 36.5l2 122q2 153 -6 245q0 2 -0.5 5t-0.5 4q0 4 -2 9q-1 5 -5 6q-2 2 -4 2h-5l-24 -1h-4q-2 0 -2 1t-0.5 1t-0.5 1v2l1 1q2 2 4 2q21 8 50 24q27 14 52 32l10 -1q-6 -27 -8 -53q-3 -32 -5 -96q-2 -45 -2 -69q-1 -32 -1 -97v-3q0 -3 1 -4l1 -1l1 -1h1q0 1 1 1h2 q16 9 30 16zM272 293q-35 20 -78 15q-34 -4 -66 -23l-4 -1q-1 0 -1 -1l-2 -1q-2 -2 -2 -4v-2l-1 -2l-3 -197v-8q0 -3 2 -7q3 -6 10 -11q41 -32 88 -36q46 -5 83 22q22 16 34 40q11 21 14 50q5 54 -19 103q-21 43 -55 63z" />
<glyph unicode="c" horiz-adv-x="341" d="M26 164q5 53 32 95q28 43 72 68q25 15 56 21q29 6 59 0q14 -3 42 -14q15 -6 22 -10q1 -1 2 -1t2 -1t2 -1.5t1 -1.5q1 -1 1 -5q0 -2 -2 -4l-12 -18q-2 -3 -5 -7q-5 -6 -7 -5q-3 -1 -8 -1l-9 3l-35 14q-45 17 -71 16q-18 0 -36 -8q-16 -7 -28 -21q-15 -19 -21 -39 q-16 -56 2 -113q20 -60 72 -88q60 -31 123 -5q12 5 22 11l2 2h3h1l2 -1l2 -2q1 -1 1 -2v-3q0 -2 -1 -2l-2 -2q-7 -5 -20 -13q-34 -21 -61 -26q-59 -14 -119 12q-28 12 -48 32q-23 25 -32 62q-7 30 -4 58z" />
<glyph unicode="d" horiz-adv-x="440" d="M89 283q30 25 68 40q36 16 72 15q12 -1 32 -4q6 -1 17 -4l18 -5q1 0 2.5 -0.5t2.5 -0.5q3 0 4.5 2t1.5 4q0 1 0.5 2.5t0.5 2.5q3 68 2 122q-2 51 -4 76q0 9 -1 12q-1 6 -3 11q-3 6 -10 7h-6q-4 0 -5 -1l-12 -2q-8 -2 -10.5 -2t-4.5 1q-3 1 -3.5 3.5t0 4.5t3.5 5q2 1 10 4 q14 6 42 19q30 15 56 31q1 1 3 1h2l1 -1h2q1 0 2 -1q3 -3 3 -5l1 -1v-2v-1l-1 -2q-10 -76 -13 -140q-2 -45 -3.5 -97.5t-3 -115.5t-1.5 -97q-2 -45 0 -83q1 -19 7 -56q0 -1 0.5 -3t0.5 -3q0 -2 2 -6q1 -3 5 -3h2h2l39 12h4h3q2 0 3 -1q2 -2 2 -3v-4q0 -2 -1 -3q-1 0 -1 -1 l-2 -1q-1 -1 -4 0l-96 -33q-2 -1 -5 -1t-5 2t-3 4t-1 6l-3 24q-2 25 -1 36l-27 -14q-44 -23 -79 -30q-45 -9 -84 6q-43 17 -67 60q-31 55 -16 121q13 55 60 93zM163 307q-22 -7 -38 -17q-33 -21 -47 -49q-12 -26 -9 -59q1 -26 12 -56q10 -29 31 -50q37 -40 87 -43 q37 -2 69 12q16 7 34 19q-2 26 0 52q2 59 2 89v55v9q0 6 -1 9q-1 4 -4 7q-2 2 -9 4l-34 10q-38 9 -46 10q-27 3 -47 -2z" />
<glyph unicode="e" horiz-adv-x="338" d="M48 247q26 47 78 72q32 15 65 12q41 -4 75 -35q18 -16 31 -39q4 -6 5 -6l6 -6q1 -1 2.5 -2t2.5 -1q3 -1 4 -4v-3q0 -2 -1 -2l-2 -2h-3l-61 -13l-172 -34q-3 -39 9 -73q9 -24 25 -45q15 -19 39 -31q27 -13 59 -11q24 1 58 15q25 11 36 19l6 -8q-24 -18 -52 -33 q-38 -20 -82 -23q-45 -3 -82 20q-37 24 -55 68q-15 37 -13 86q3 46 22 79zM211 294q-29 21 -58 20q-22 0 -39 -15q-15 -13 -21 -31q-5 -12 -10 -33q-3 -12 -5 -37l144 31q2 0 5 1t5 1l9 3q3 1 4 4q2 4 2 5v5q0 1 -2 4q-12 26 -34 42z" />
<glyph unicode="f" horiz-adv-x="282" d="M93 455q7 39 23 67q18 28 64 61q44 32 73 39q26 6 55 1q26 -5 44 -13q4 -1 6 -4q4 -4 5 -7q2 -6 1 -8l-4 -8l-6 -9q-1 -2 -4.5 -6t-6.5 -5h-7q-2 0 -8 2q-19 7 -57 18q-12 4 -27 6q-16 2 -28 -1q-16 -4 -32 -19q-12 -12 -20 -30q-13 -29 -20 -93q-6 -47 -6 -94v-19h118h4 q1 0 3 -2t2 -3t0.5 -2t0.5 -2v-9q0 -1 -1 -3l-2 -2q-1 -1 -3 -1h-3l-118 2q0 -78 -1 -116q-2 -82 5 -148q1 -3 1 -8.5t1 -8.5q0 -4 1 -5l2 -5q1 -1 5 -3q2 -1 6 -1t10.5 -0.5t9.5 -0.5q5 0 13 -1t13 -1q3 0 9 -2l2 -2q1 -1 1 -4t-1 -4l-2 -3q-1 -1 -4 -1h-5q-44 3 -89 3 q-48 0 -86 -4h-3q-2 0 -2 1q-2 2 -2 3v3v3q0 2 1 3l2 2h3l14 2q10 2 19 6q9 5 15 14q3 6 4 19q1 7 1 20t0.5 39.5t0.5 39.5v154q-15 5 -38 5h-20v21h59l1 35q2 52 8 89z" />
<glyph unicode="g" horiz-adv-x="403" d="M41 175q-4 39 14 76t49 62q24 20 55 28q59 17 109 -14q5 -4 13 -7q2 -1 6.5 -0.5t6.5 0.5q12 3 39 5q18 1 39 -2q4 0 5 -1t2 -1.5t2 -0.5q1 -1 1 -5v-4q0 -9 -3 -15q-3 -8 -7 -12l-1 -2q-1 -1 -2 -1h-3q-1 0 -3 1q-15 4 -23 4q-19 3 -35 3q13 -30 19 -59q5 -25 2 -46 q-3 -24 -14 -45q-9 -17 -31 -36q-24 -20 -82 -46l-29 -13q-14 -6 -23 -12q-21 -13 -24 -15q-1 -1 -3 -2.5t-3 -2.5t-3 -6q-1 -4 0 -8t5 -7q6 -6 13 -9q26 -11 84 -9q60 2 85 -5q27 -9 43 -23q20 -19 26 -41q7 -27 -6 -58q-10 -25 -35 -46q-49 -43 -124 -62q-39 -9 -69 -8 q-38 2 -66 18q-25 14 -36 34q-13 23 -12 47q2 26 14 47q9 16 33 38q10 9 35 25l-21 18q-9 9 -17 22q-6 11 -7 17q0 1 -0.5 2.5t-0.5 2.5t0.5 2.5t0.5 2.5q-1 2 1 3q1 1 5 3q23 13 27 14l33 15l25 12q-10 3 -29 12q-33 16 -54 45t-26 65zM124 310q-19 -13 -32 -39 q-11 -23 -12 -49q0 -51 37 -92q36 -41 87 -52q19 6 34 17q26 20 35 52q6 25 3 49q-3 28 -13 56q-11 32 -30 50q-24 23 -53 23q-32 2 -56 -15zM91 -88q-17 -12 -28 -26q-12 -16 -13 -36q-1 -23 14 -43q11 -15 38 -27q43 -20 92 -15q54 5 99 31q15 9 27 22q10 11 13 30 q2 14 -3 35q-6 17 -12.5 25.5t-19.5 13.5q-8 3 -23 4q-24 1 -47 0q-40 -2 -67 2q-12 1 -31 5q-22 -10 -39 -21z" />
<glyph unicode="h" horiz-adv-x="455" d="M173 308q37 17 69 25q42 10 69 1q17 -6 29 -18q14 -14 21 -29q9 -20 12 -46q0 -1 3 -47q1 -29 1 -87q0 -21 -2 -61q0 -7 1 -9l1 -3q1 -4 2 -6q3 -4 8 -5q6 -2 9 -2l34 -6h3l3 -3q2 -2 2 -3v-3q0 -2 -1 -3q0 -1 -1 -1l-1 -2q-2 -2 -4 -2h-3q-43 2 -66 2q-39 0 -78 -3h-2 q-2 0 -3 1t-1 3v2v2v1l1 2q0 1 2 1h1h1l17 5q6 2 7.5 3t5.5 5q1 1 3 6.5t2 7.5q9 56 5 112q-2 52 -4 78q-1 18 -9 35q-8 18 -23 27q-12 8 -25 11q-5 1 -28 1q-32 -2 -54 -8q-27 -7 -47 -18q-4 -100 -3 -149v-66v-7v-7q0 -8 3 -13q3 -7 10 -9q7 -4 13 -5l28 -5q2 0 6 -2l2 -2 v-2q0 -2 -1 -3l-2 -2h-1q-1 -1 -2 -1h-3q-25 1 -74 1q-26 0 -78 -2h-3q-1 0 -1 2l-1 1v1v2v3q0 1 0.5 0.5t0.5 0.5t2 1q1 0 1 0.5t1 0.5l16 5q4 1 12 5q6 3 8 8q4 8 5 11.5t1 11.5q4 75 7 226q2 76 2 226v24q0 15 -4 26q-1 5 -4 7q-5 5 -8 6t-8 1q-4 0 -10 -2l-15 -5h-2h-2 h-3q-1 0 -2 1t-1 4v3l3 3l5 3l43 18q31 12 42 20q9 5 20 15q0 1 1 1t2 0.5t4 0.5t6 -1q2 -1 4 -5v-4v-1l-1 -2q-7 -18 -8 -46q-6 -85 -8 -128q-2 -51 -4 -157q17 11 41 21z" />
<glyph unicode="i" horiz-adv-x="220" d="M151 539q16 -7 15 -8q-7 -7 -20 -23q-19 -25 -21 -29l-24 30l-19 20q22 12 35 43q4 -1 18.5 -16t15.5 -17zM81 317q26 15 47 33q1 0 1 1l1 1q1 1 3 1h3l2 -2q3 -1 3 -5q0 -1 -0.5 -3.5t-0.5 -3.5q-4 -25 -8 -71q-3 -38 -2 -115q0 -45 2 -91q0 -11 3 -21q3 -11 10 -19 q6 -6 8 -7q4 -1 11 -1l26 1h8q1 0 2 -2q3 -3 3 -4l-1 -1v-2l-1 -1q-1 -1 -1 -2q-2 -2 -3 -2h-4q-54 0 -81 -1q-29 -1 -83 -5h-3l-1 2q-1 1 -1 2v3v3q0 1 1 2l1 2h3l28 3q2 0 5.5 2t4.5 4q2 4 2 6q0 1 0.5 2.5t0.5 2.5q4 46 6 94q2 61 -3 123q0 5 -2 14t-7 13q-7 7 -13 7 q-8 0 -14 -3l-3 -1h-1q-1 -1 -2 -1h-4q-2 0 -1 3v3v4v3l1 2q2 2 3 2l4 1q20 9 47 24z" />
<glyph unicode="j" horiz-adv-x="226" d="M161 539q16 -7 15 -8q-7 -7 -20 -23q-19 -25 -21 -29l-24 30l-19 20q22 12 35 43q4 -1 18.5 -16t15.5 -17zM106 317q29 19 46 35q1 1 2 1t3 1h1q1 -1 2 -1t2 -1l2 -3q2 -2 2 -3v-3q0 -1 -0.5 -2t-0.5 -2q-9 -22 -9 -54q-1 -26 -1 -81t-1 -81q-2 -163 -2 -244 q0 -14 -3 -21q-1 -3 -11 -18q-18 -25 -34 -40q-9 -9 -27 -24q-26 -21 -28 -23q-10 -13 -13 -29q0 -2 -1 -3q-2 -2 -3 -2h-3q-1 0 -3 1q-1 1 -2 1l-2 2q-1 1 -1 2v1l-1 2q1 9 6 25q6 16 19 35q4 6 12 17t12 16q16 24 23 48q6 21 7 53q5 82 5 147q0 61 -5 139q-2 23 -4 32 q-2 11 -3 15q-3 8 -8 13q-6 6 -14 7q-6 1 -15 -1l-10 -2h-1q-1 -1 -1.5 -1t-1.5 0.5t-2 0.5l-2 2q-2 2 -2 3t1 3q0 1 2 3l5 2q33 14 63 32z" />
<glyph unicode="k" horiz-adv-x="436" d="M79 321q0 98 -2 198q0 12 -1 18q-2 9 -6 16q-6 9 -14 10h-9q-3 0 -8 -1l-10 -3q-1 0 -3 -1h-2q-1 0 -3 2q-1 1 -1 2v2q0 1 2 3q1 1 4 3l20 9l29 14q33 16 56 33q2 2 5 2h2q1 0 2 -1q3 -3 3 -5v-5q-11 -97 -13 -212l-3 -188q0 -4 1 -5l2 -5q2 -1 7 -1q2 0 6 2q26 15 47 31 q19 14 43 38q4 4 9 11t5 14q0 9 -6 13q-1 1 -7 4q-1 1 -3 1h-3l-9 2l-1 1h-1q-1 0 -1 1q-2 2 -2 5v1q1 1 1 2t0.5 2t2.5 1h2q47 -2 71 -2q57 0 85 1h3q2 0 2 -2q0 -1 0.5 -1t0.5 -1v-1l-1 -2v-3l-2 -2l-2 -2h-3q-28 -3 -54 -14q-16 -7 -48 -29l-79 -56l-2 -1l-2 -1 q-2 -2 -2 -3v-4l1 -2q1 -2 2 -2l97 -96l90 -83q6 -6 10 -7q8 -4 11 -5l13 -3q1 0 2 -0.5t2 -0.5l2 -2l2 -2v-3q0 -2 -1 -3l-3 -3q-1 -1 -3 -1h-4q-30 3 -60 3q-37 1 -84 -2h-3q-2 0 -2 2v2v1l-1 1v3q0 1 0.5 0.5t0.5 0.5q0 2 1 2h3l18 3q3 0 6 2q1 0 3 2q1 0 1 1t1 2t1 3 q0 3 -1 3q-2 4 -5 7l-61 65l-80 81q-3 3 -5 3q-4 2 -6 1q-3 -2 -5 -4q-1 -2 0 -6q-1 -39 0 -77l2 -61q0 -5 1 -7l2 -2l1 -2q1 -2 5 -4q1 -1 3 -2l3 -1l12 -3q2 -1 7.5 -2t7.5 -1h3l2 -2q2 -2 2 -4v-2q0 -2 -1 -3t-2 -1h-3q-21 1 -62 1q-28 0 -85 -4h-2q-1 0 -2 1l-2 2v3 q0 4 1 4.5t2 0.5h1l1 1l22 6q3 1 11 5q6 3 9 8q2 4 4 12q1 4 1 11q5 135 5 269z" />
<glyph unicode="l" horiz-adv-x="236" d="M95 596q41 21 54 30q1 1 4 1h3q1 0 2 -1q2 -2 2 -5q0 -1 -0.5 -2.5t-0.5 -2.5q-10 -42 -11 -104q0 -17 -0.5 -52.5t-0.5 -53.5q-2 -163 0 -242q0 -34 1 -101q0 -11 1 -16.5t7 -15.5q4 -7 13 -10q9 -4 16 -5l28 -5h3l1 -2q1 -1 1 -2v-3v-3l-2 -2l-1 -1h-3q-55 2 -82 2 q-54 0 -98 -4h-3q-2 0 -3 1l-1 2q-1 1 -1 3q0 4 1 5l1 2h1h2l11 4q17 6 28 15q10 9 17 26q6 16 6 31v32q2 147 2 220v142q0 27 -4 49l-3 12q-2 4 -8 9q-4 4 -10 6q-4 1 -12 1h-11h-2q-1 0 -1 0.5t-1 0.5q-3 1 -4 4q-1 1 -1 2v4q0 1 2 3q1 1 3 1z" />
<glyph unicode="m" horiz-adv-x="687" d="M189 300q28 14 47 20q38 12 61 10q26 -3 44 -19q17 -15 24 -34q43 24 86 36q33 9 62 9q19 0 36 -5.5t30 -20.5q14 -17 18 -43q5 -25 5 -58q0 -43 -1 -64q-2 -33 0 -65l3 -34q0 -4 1 -6q2 -4 3 -4l5 -3q2 -1 5 -1l44 -3h4q1 0 2 -2q1 -1 1 -3q0 -1 0.5 -1.5t0.5 -1.5 t-1 -3q0 -1 -1 -2l-2 -2h-3h-79q-56 0 -83 -1h-2q-1 0 -3 2q-1 1 -1 2v1l-1 2q0 2 2 3l2 2h2l12 2q8 2 13 4q7 3 10 9q3 4 5 12q1 2 1 6.5t1 6.5q6 47 6 72q2 64 -6 101q-6 21 -12 30q-10 17 -22 25q-13 9 -32 11q-13 3 -32 -1q-37 -6 -76 -23q4 -15 4 -48v-38v-24v-24 q1 -32 1 -95q0 -3 2 -11q1 -6 6 -8q5 -4 10 -5q2 0 5.5 -1t5.5 -1l17 -2h3l1 -1h1q2 0 1 -2v-3q0 -1 -0.5 -1t-0.5 -1t-1 -1q-1 -1 -5 -1h-68q-26 0 -82 -2h-2q-1 0 -2 1l-2 2l-1 1v2q0 2 3 5l2 1h2l11 2q10 2 16 5q9 5 14 11q5 7 7 16q2 11 2 17q2 47 2 71q0 21 -2 61 q-2 36 -7 54q-4 11 -11 23q-7 10 -19 18q-20 11 -48 9q-20 -2 -46 -12q-17 -7 -49 -24v-208q0 -2 0.5 -5.5t0.5 -5.5q0 -6 3 -12q2 -4 7 -7q5 -4 11 -5l29 -7q1 0 5 -1l1 -1q2 0 2 -1v-3v-3l-2 -2q-1 -1 -3 -1h-3l-157 2h-3q-1 0 -2 1l-1 2v3v2l2 1q1 0 2.5 1t2.5 1 q14 6 28 16q10 9 17 21q5 9 6 26q4 41 3 81l-3 76q-2 25 -12 37q-8 9 -18.5 13.5t-21.5 3.5h-3h-3q-2 0 -2.5 0.5t-0.5 2.5v3l2 2q4 2 5 2q23 6 48 16q26 11 43 24q2 2 3 2h1h2q2 0 5 -1q3 0 4 -1l2 -2q2 -2 2 -3v-4l-1 -51q27 15 50 25z" />
<glyph unicode="n" horiz-adv-x="446" d="M176 292q37 18 59 25q51 14 85 1q26 -9 39 -33q7 -9 10 -24q1 -4 1.5 -8t1 -9.5t0.5 -8.5q2 -34 3 -102q1 -45 0 -90v-7q0 -3 2 -7q2 -3 5 -4l6 -3l33 -13l3 -1q3 -1 3.5 -2t0.5 -4v-3q0 -2 -1 -3q-1 -2 -3 -2h-7q-31 6 -63 6q-45 0 -83 -8q-1 0 -2.5 -0.5t-2.5 -0.5 q-3 0 -4 1q-1 0 -1 1t-1 2t-1 3q0 1 2 3q0 1 1 1l1 2q1 1 3 1l25 9q8 3 12 7q6 4 9 10q4 7 5 13q1 3 1 7t1 7q5 43 4 76q0 38 -3 76q-2 21 -5 30q-7 16 -16.5 25.5t-25.5 16.5q-9 4 -29 5q-38 1 -75 -13q-17 -7 -35 -17l-3 -187v-19q0 -12 2 -18q3 -9 11 -15q6 -5 17 -7 l27 -5h1l2 -1l2 -2l2 -2v-3v-1q-1 -1 -1 -2q0 -2 -2 -2h-3h-3q-10 2 -31 4q-29 3 -89 1l-37 -1h-3q-1 0 -2 2q-1 1 -1 4v3q1 2 2.5 3.5t3.5 1.5l8 2q11 4 17 7q9 5 14 11q4 5 8 16q3 9 2 18q3 41 3 82q0 35 -1 52q-2 30 -4 46q-4 15 -8 21q-4 5 -8 7q-5 4 -10 5l-21 7h-2 l-1 2q-1 0 0 1v2l1 1q1 1 2 1q32 11 48 18q40 18 44 20q2 2 4 2q4 0 5 -1q2 -2 1 -4q0 -1 0.5 -2.5t0.5 -2.5l1 -54q20 13 43 24z" />
<glyph unicode="o" horiz-adv-x="411" d="M133 331q48 21 96 17q50 -5 90 -34q49 -37 63 -96q15 -60 -9 -114q-19 -47 -61 -77q-57 -39 -130 -28q-66 10 -110 57q-46 48 -48 113q0 54 30 98q29 41 79 64zM193 328q-28 0 -50 -12q-24 -13 -39 -34q-26 -35 -26 -86q0 -48 20 -89q18 -41 51 -66q37 -29 78 -27 q26 1 49 18q18 12 30 32q25 40 27 86q1 53 -28 103q-22 35 -46 52q-32 23 -66 23z" />
<glyph unicode="p" horiz-adv-x="446" d="M203 321q49 20 89 14q25 -5 45 -17q20 -13 35 -31q23 -26 34 -50q12 -26 15 -58q1 -53 -35 -103q-23 -30 -53 -49q-29 -19 -74 -28q-25 -6 -47 -5q-21 1 -47 8q-15 4 -22 7l-3 -236q0 -9 1 -13q2 -11 4 -14q2 -5 10 -9t13 -4l35 -2h4q2 0 3 -1l3 -3v-4q0 -2 -1 -3l-1 -1 q-1 -1 -2 -1q-1 -1 -3 -1h-4q-34 3 -77 1q-38 -1 -83 -7h-3q-1 0 -2 1t-1 2v2v2v1q1 1 1 2t2 1q1 0 1 0.5t1 0.5l10 2q9 2 13 4q5 3 10 8q6 8 6 12q2 8 3 13q4 17 6 53q5 146 4 250q0 60 -4 179q0 14 -2 21q-3 10 -10.5 17.5t-18.5 7.5q-7 0 -20 -5l-9 -4q-1 0 -3 -1h-2 q-3 0 -5 2q-1 1 -1 3v2l2 2q1 0 1 1l2 1q28 17 33 19q38 19 46 25l25 19h1q1 1 2 1q1 1 2 1t3 -2l1 -1v-1l3 -32q1 -9 1 -28q41 20 63 29zM300 280q-16 13 -35 20q-22 8 -41 6q-24 -1 -67 -20l-14 -6l-1 -233q29 -12 59 -21q34 -9 62 -8q43 3 72 31q20 19 29 49q8 24 4 58 q-9 77 -68 124z" />
<glyph unicode="q" horiz-adv-x="399" d="M94 289q33 27 76 43q50 17 99 8q24 -4 48 -16q1 -1 2 -1t2 -1q4 -2 5 -2q4 0 6 1q1 0 2 1l2 2q11 9 12 10q6 6 13 17l11 -5q-5 -11 -8 -21q-4 -10 -8 -35q-4 -19 -3 -41q0 -33 0.5 -100.5t0.5 -101.5v-286q0 -9 1 -13q3 -7 9 -12q5 -3 15 -4q6 -1 17 -1h11h4q2 0 3 -1 l3 -3q1 -1 1 -3t-2 -4l-1 -1q-1 -1 -2 -1q-2 -1 -7 -1q-47 0 -70 -1q-29 -1 -88 -4h-3q-1 0 -3 1q-1 0 -3 2q-1 1 -1 2.5t1 2.5l2 2q4 2 6 2l20 4q6 1 17 6q8 4 12 14q4 8 4 18v18l3 243q-28 -16 -62 -26q-54 -15 -95 -5q-36 8 -61 29q-26 21 -42 52q-26 51 -14 109 q13 60 65 103zM209 317q-42 2 -73 -20q-27 -19 -41 -48q-13 -28 -16 -63q-2 -35 7 -65t30 -57q39 -46 97 -49q50 -3 90 28q1 24 -1 142q0 10 -0.5 30t-1.5 31q0 15 -1 22q-2 9 -3 11q-3 6 -7 9q-8 7 -17 12q-29 15 -63 17z" />
<glyph unicode="r" horiz-adv-x="305" d="M233 286q-7 7 -19 9q-8 1 -21 -3q-21 -7 -46 -25q-8 -6 -10 -10l-3 -6v-7q-1 -32 -1 -97q0 -56 3 -112q0 -6 1 -8l1 -2q1 -3 2 -4q2 -2 5.5 -4t6.5 -2q17 -2 27 -2q21 -1 41 0h3q2 0 3 -1q2 -2 2 -3h1v-2q0 -3 -1 -4l-1 -1q0 -2 -1 -2q-2 -2 -4 -2h-4l-181 -3h-2 q-1 0 -3 1q-2 0 -2 2v2v3l2 2q1 1 2 1q2 1 3 1l20 5l5 3q3 2 5 5l3 6q1 2 1 6q7 51 8 102q2 62 -5 124q0 5 -2 10.5t-7 8.5q-2 2 -7 4q-3 1 -9 1q-13 0 -19 -1h-4q-1 0 -1 0.5t-1 0.5q-2 0 -2 1v2v2q0 2 2 2q1 0 1 0.5t1 0.5q34 19 51 30q13 8 47 31q1 1 4 1q2 0 2 -1 q2 -2 2 -3v-1q1 -1 1 -2l-1 -68l107 64l4 3q1 1 3 1h4q3 0 3 -1l16 -12q11 -9 13 -10q6 -7 7 -13q2 -9 -3 -18q-3 -6 -12 -13t-23 -11q-1 0 -2 -0.5t-2 -0.5h-4l-3 2q-1 1 -1 4q-1 9 -6 14z" />
<glyph unicode="s" horiz-adv-x="279" d="M61 289q17 18 45 30q22 9 43 11q14 2 44 0q10 -1 36 -5l10 -64v-2v-3q0 -1 -1 -2t-3 -1h-2q-1 0 -1.5 1t-1.5 2t-1 2q-7 13 -25 29q-23 18 -48 24q-19 4 -31 0q-15 -5 -26 -15q-14 -14 -14 -36q0 -16 15 -33q9 -10 30 -21q8 -4 23.5 -9.5t23.5 -9.5q21 -9 41 -25 q17 -14 27.5 -29.5t13.5 -37.5q5 -26 -9 -50q-1 -2 -3 -3.5t-3 -3.5q-3 -4 -7 -7q-25 -22 -53 -31q-46 -15 -97 -7q-28 5 -47 14q-1 13 -5 35q-6 25 -10 37v2l-1 2v3q0 2 1 3q2 2 3 2h3q1 0 3 -2q4 -4 5 -6q13 -21 15 -23q15 -21 34 -33.5t43 -15.5q26 -3 48 5 q10 4 19.5 13.5t12.5 19.5q5 17 -1 32t-17 29q-18 20 -53 37l-28 12q-20 9 -31 15q-15 9 -25 21t-15 28q-5 19 1 36q5 15 19 30z" />
<glyph unicode="t" horiz-adv-x="289" d="M120 206q0 -72 2 -108q2 -26 9 -39q9 -18 31 -26q19 -7 41 -2q10 2 39 12l10 4q1 0 4 1t4 2q1 0 2.5 0.5t2.5 0.5h1l1 -1q2 0 1 -2q0 -1 0.5 -1t0.5 -1t-1 -3t-2 -3t-4 -2.5t-4 -2.5q-42 -24 -76 -34q-26 -7 -44 -6q-24 2 -41 14t-24 34q-5 14 -5 43l4 217h-44q-3 0 -3 1 l-1 1q-1 1 -1 2v2l1 1l2 3q20 9 36 20q33 23 60 61l4 4q1 1 2 1h2q1 0 2 -1t1 -2t1 -3v-2l-10 -64l128 3h3l2 -2l2 -2v-3v-12v-3q0 -1 -2 -3q-1 -1 -2 -1h-1q-1 -1 -2 -1h-128q-4 -64 -4 -97z" />
<glyph unicode="u" horiz-adv-x="449" d="M130 239q-2 -26 -2 -76t5 -74q4 -15 8 -23q7 -12 15 -19q17 -14 43 -14q23 -1 54 10q25 9 57 28q2 44 4 129q0 11 0.5 34t0.5 34q0 10 -2 16q-3 8 -9 11q-5 4 -14 6h-16h-7h-3h-1l-2 1h-1l-1 1v1v2l1 4l1 1v1q0 1 1 2t2 1t1 0.5t1 0.5q18 3 52 10q22 5 53 13l1 1h1l2 -1 q1 -1 1 -2v-3v-4q-1 -26 -5 -90.5t-5 -99.5q-2 -34 1 -61q2 -25 5 -46q0 -1 0.5 -2t0.5 -2q0 -2 2 -3.5t4 -1.5q1 0 2 0.5t2 0.5l40 8h2q1 0 2 -1l2 -2v-1l1 -1l1 -1v-1q0 -1 -0.5 -1t-0.5 -1q0 -2 -1 -2l-1 -1h-2l-47 -15l-47 -15q-1 0 -2 -0.5t-2 -0.5h-4l-3 2q-2 2 -1 4 l-6 29q-2 12 -4 29q-17 -10 -53 -28q-53 -25 -82 -28q-17 -3 -34 0q-19 3 -32 12q-16 11 -27 35q-8 19 -9 43q-2 27 0 83q1 27 1 82q0 10 -1 15q-2 9 -7 15q-7 7 -12 7q-9 2 -16 0l-9 -1h-2q-1 0 -1 1q-1 0 -1 1v1l-1 1l-1 1v2q0 1 0.5 1t0.5 1t1 2l1 1q30 10 57 21 q21 9 45 22h1h1q2 0 4 -2h1l1 -1q1 0 1 -1l1 -1v-1v-1l-3 -31q1 0 -5 -67z" />
<glyph unicode="v" horiz-adv-x="370" d="M107 171q-16 41 -52 120q-4 8 -7 10.5t-10 6.5l-15 6l-2 1l-2 1q-3 3 -3 4v1q0 1 2 3q1 1 2 1h3q23 -1 67 -1q26 0 74 4h3q1 0 1 -0.5t1 -0.5q2 0 2 -2l1 -1v-1q0 -1 -2 -3l-2 -1q-2 -1 -4 -1l-25 -5q-1 -1 -4 -2t-4 -1q-4 -1 -6 -6q-2 -3 -2 -7q0 -6 1 -9q9 -43 23 -85 q12 -38 31 -87l21 -52l20 44q37 76 46 100q10 31 17 60q2 11 2 17q0 9 -4 16q-4 8 -12 11q-5 3 -16 5l-10 2h-2l-2 1q-2 2 -2 4v3l3 3q1 1 3 1h3q29 -3 61 -3q21 0 43 3h4l1 -1q1 -1 0 -2v-2v-1l-2 -3l-3 -2q-18 -11 -28 -24q-7 -9 -16 -32l-24 -58l-48 -104 q-17 -37 -36 -86l-12 -29v-1q-1 -1 -1 -2t-0.5 -1t-0.5 -1q1 -2 -1 -2l-1 -1h-2h-3h-1l-1 1q-2 0 -2 2q0 1 -0.5 1t-0.5 1t-1 3l-10 34q-26 81 -53 150z" />
<glyph unicode="w" horiz-adv-x="571" d="M35 323q20 1 60 1q27 0 60 5q1 0 3 0.5t3 0.5q2 0 3 -1l2 -3v-3q0 -2 -1 -2.5t-2 -0.5h-1q-1 -1 -2 -1l-8 -1q-1 0 -5.5 -1t-6.5 -2q-9 -5 -11 -7q-4 -4 -4 -12.5t1 -11.5q6 -26 21 -80q16 -58 43 -130l89 187l-11 23q-9 15 -14 19q-4 4 -9 7l-12 3l-6 1q-4 0 -6 1 q-3 1 -3 5h1v2q0 1 2 3q1 1 2 1h4q28 -1 56 0q46 2 84 7h5q1 0 2 -1t1 -2v-3q0 -2 -1 -3t-2 -1q-1 -1 -2 -1l-13 -3q-8 -2 -13 -4q-8 -3 -12.5 -7t-6.5 -11v-7q0 -5 1 -6q15 -53 27 -89l39 -118l42 84l26 59q5 11 18 48q4 9 5 16q2 11 1 16q-2 9 -9 13q-3 3 -6 4q-2 1 -5 1 t-4 1l-10 1l-1 1h-1q-1 0 -2 1q-2 2 -2 3v2v1q1 1 1 2q0 2 1 3t3 1h3q34 -4 51 -4q32 0 47 2h2h2q2 0 2 -2q0 -1 0.5 -1t0.5 -1t-0.5 -1t-0.5 -1t-1 -2l-3 -3l-6 -3q-13 -9 -18 -16q-7 -9 -12 -21l-91 -185l-30 -63q-12 -25 -18 -42v-2l-1 -1v-1q0 -2 -2 -2h-2h-6h-1h-2 l-1 1v1l-1 1v2v2q-21 81 -45 158q-19 57 -30 85l-76 -158l-41 -89q0 -2 -1 -3t-2 -1q-2 -1 -4 -1h-3q-1 0 -2 1l-2 2v3q-1 22 -9 50l-38 122l-30 85q-10 29 -20 44q-9 11 -12 13t-9 4t-9 2l-7 1h-3q-2 0 -2 2v2l-1 1v1v1q1 1 1 2t1 1.5t3 0.5h1l2 1q2 0 6 0.5t6 0.5z" />
<glyph unicode="x" horiz-adv-x="395" d="M234 322v3q0 1 2 3q1 1 2 1h3q19 -2 57 -2q30 0 58 3h3q3 0 4 -1q2 -2 2 -3v-3q0 -1 -2 -3q0 -1 -1 0l-1 -2q-1 0 -3.5 -1t-3.5 -1q-12 -4 -24 -14q-8 -6 -19 -18l-40 -45l-51 -58l43 -75l39 -69q4 -7 12 -13q7 -5 16 -7l27 -5h2q2 0 3 -1q2 -2 2 -4.5t-1 -3.5 q0 -1 -1 -2t-1 -2t-2 -2l-2 -1h-2h-1q-18 2 -56 4q-41 2 -82 -3h-2l-1 1h-1q-1 0 -1 1t-0.5 1t-0.5 1v2v3q0 1 1 1t1 0.5t1 0.5l22 4q2 0 4 2l2 2q1 1 2 1v5q0 3 -1 4q-13 33 -32 69q-8 15 -25 43q-12 -12 -35 -39q-16 -20 -36 -49q-1 -2 -3 -5t-3 -5q-2 -4 -2 -13 q0 -5 6 -10q3 -3 11 -5l17 -3l1 -1h2q1 0 2 -1q2 -2 2 -5l-1 -1v-2q0 -1 -1 -2t-3 -1h-3q-19 2 -56 2q-25 0 -50 -3h-3q-1 0 -3 2q-1 1 -1 3v3v3v1l1 1q0 2 1 1h1q1 1 2 1l3 1q2 1 7.5 3t7.5 3q3 1 7 5q1 1 3 2.5t3 2.5l113 131q-16 31 -37 66q-21 32 -28 44q-17 23 -26 30 q-8 8 -17 10q-7 2 -20 4l-9 1h-2h-2q-2 0 -2 2v2v3v2q0 2 1 2t3 1h2h75q21 0 67 2h2l2 -2q1 -1 1 -2v-1q1 -1 1 -2q-1 0 -1 -1t-0.5 -1t-0.5 -1q0 -2 -1 -2h-2l-12 -1q-2 0 -5 -2q-2 -1 -4 -5q-1 -3 0 -5q1 -1 1 -3.5t1 -3.5l17 -37l31 -61l53 63q11 15 15 27q1 3 1 9 q0 5 -2 7q-3 5 -7 6q-2 1 -3.5 2t-3.5 1l-23 4h-1q-1 1 -2 1t-2 1t-1 2v2z" />
<glyph unicode="y" horiz-adv-x="400" d="M96 326q34 0 67 3h2q1 0 1 -0.5t1 -0.5q2 0 2 -1l1 -1v-2v-1l-1 -2q0 -1 -2 -1q-4 -2 -4 -1l-11 -2q-4 0 -7 -2l-6 -3q-4 -4 -5 -6q-2 -4 -2 -7q-1 -13 4 -33l23 -85q19 -67 42 -140q38 60 66 123q12 27 33 84l5 17q3 9 3 17t-6 17q-5 6 -15 10q-6 3 -17 7q-6 2 -19 4h-2 l-2 2q0 1 -0.5 2t-0.5 2t2 3l3 3l1 1h2q1 0 1 -0.5t1 -0.5q24 -5 55 -7q39 -2 67 2h3h3q2 0 2 -2v-1q1 -1 1 -2t-1 -2l-2 -2q-1 -1 -2 -1q-2 -1 -3 -1t-3 -1t-3 -1t-2.5 -1t-2.5 -1q-2 -1 -9 -8q-13 -14 -22 -35l-123 -245q-38 -75 -67 -152q-29 -74 -48 -148v-4q0 -3 -1 -4 l-3 -2h-1h-2q-9 1 -27 1q-27 0 -41 -1h-3l-1 1h-2q-1 0 -1 1l-1 2v2q0 1 2 3q1 1 2 1q2 1 3 1q28 12 47 38q13 17 29 53l70 155q-34 127 -67 222l-23 60q-9 23 -19 42q-7 11 -9 13t-7 4q-1 0 -3.5 1t-3.5 2l-12 3q-3 0 -5 2h-1v1l-1 2l1 1v1q0 2 2 2h2h3q23 -1 70 -1z" />
<glyph unicode="z" horiz-adv-x="397" d="M117 23q10 0 61 -1t61 0q32 2 48 5q24 6 43 22q22 18 29 46q0 3 1 3t1 1t1 2q2 2 4 2q3 0 4 -1q1 0 1 -1l1 -1q1 -1 1 -4q0 -5 -1 -7l-8 -37q-6 -23 -14 -46q0 -1 -2 -3q0 -1 -1 -2l-1 -1q-2 -2 -3 -2h-4q-32 2 -92 4q-100 3 -211 -5h-3q-1 0 -3 1q-1 0 -2 1t-1 3 q0 3 1 5t3 3q61 64 126 144l10 12h-118l13 27h126q43 57 84 118q-48 2 -74 1q-60 -2 -103 -7q-11 -2 -17 -3q-9 -3 -17 -9q-15 -10 -23 -25l-4 -7l-1 -2q-1 -2 -2 -2q-2 -2 -3 -2q-4 0 -4 1q-3 3 -3 4t0.5 2.5t0.5 2.5q0 3 2 4q8 13 11 27q6 15 8 33q0 2 1 3l3 3q1 1 3 1 q1 0 3 -1q13 -2 42 -4q53 -4 130 -2q49 1 131 5h2h2q1 0 1 -1l1 -1v-1q0 -3 -1 -4l-1 -1q-1 -1 -1 -2l-58 -72l-51 -59h101l-15 -27h-109l-16 -19q-49 -58 -94 -124z" />
<glyph unicode="{" horiz-adv-x="268" d="M248 -112q-78 0 -100.5 8.5t-35.5 32.5t-13 63v155q0 60 -73 61q-2 0 -3.5 5.5t3.5 5.5q73 0 73 61v116q0 55 15 82q14 26 43 33q26 7 91 7q5 0 4.5 -8.5t-4.5 -8.5q-56 0 -78 -18q-23 -18 -23 -64v-86q0 -58 -4 -74q-4 -12 -16 -26q-11 -13 -37 -17v-2q25 -3 36 -17 q14 -17 17 -31q5 -19 4 -66v-95q0 -60 22 -80t79 -20q5 0 5 -8.5t-5 -8.5z" />
<glyph unicode="|" horiz-adv-x="182" d="M124 -116h-45v612h45v-612z" />
<glyph unicode="}" horiz-adv-x="282" d="M249 208q-37 0 -55.5 -15t-17.5 -46v-155q0 -45 -17 -70q-18 -26 -48 -29q-35 -5 -84 -5q-6 0 -5.5 8.5t5.5 8.5q58 0 80 20t22 80v95q0 48 4.5 67t15.5 30q12 11 36 17v2q-26 7 -38 19q-11 12 -15 26q-4 12 -3 72v86q0 45 -25 64q-24 18 -77 18q-6 0 -5.5 8.5t5.5 8.5 q58 0 89 -5.5t47 -34.5q13 -26 13 -82v-116q0 -60 73 -61q3 0 3 -5.5t-3 -5.5z" />
<glyph unicode="~" horiz-adv-x="231" d="M225 177q0 -12 -26 -33q-30 -22 -46 -23q-15 0 -49 11q-35 13 -46 14q-22 0 -42 -25h-1q-3 0 -6 4v4v1q35 52 73 52q13 0 48 -13q25 -10 41 -10q19 0 45 24l2 2q2 0 7 -6v-2z" />
<glyph horiz-adv-x="0" />
<glyph d="M565 170v-155h8h9q2 0 7.5 0.5t8.5 0.5l7 2q5 1 8 2.5t6.5 3.5t7.5 5q21 19 21 61q0 52 -28 71q-5 3 -10 5t-12 3t-10 1h-12h-11zM503 187h77q45 0 64 -11q26 -16 34.5 -46.5t2.5 -64.5q-6 -39 -32 -55q-21 -13 -69 -12h-77v9q21 0 25 13q1 4 1.5 10t0 13.5t-0.5 10.5v72 q0 3 0.5 12t0.5 16t-2 11q-3 8 -8.5 10t-16.5 2v10zM388 353l-25 -59h49l-15 38zM287 223q13 0 17 2t7.5 5t6.5 8l4 8q1 3 3.5 9.5t3.5 8.5l40 96l14 31q4 10 6 11q4 3 8.5 1.5t6.5 -2t4 -4.5l3 -6q1 -2 3 -7t3 -7l40 -95l12 -30q4 -9 2 -10q9 -18 33 -19v-10h-88v10h12 q4 1 6 4t1 8t-2 8t-3.5 8.5t-2.5 6.5t-2 5.5t-3 6.5t-3.5 4.5t-5.5 2.5h-39q-14 0 -16 -1q-1 -1 -6 -12q-1 -1 -3.5 -6.5t-3.5 -9t-2.5 -8t-0.5 -8.5t4 -6q2 -2 16 -3v-10h-75v10zM176 535q26 -3 33 -3q11 1 20 6q14 7 17 23.5t-9 27.5q-11 11 -37 11q-21 0 -23 -4 q-1 -1 -1 -17v-44zM114 618q84 0 97 -1q34 -2 49 -11q21 -13 21.5 -40.5t-20.5 -40.5q-7 -4 -15 -6.5t-18 -3.5t-17 -1h-19h-16v-49q0 -19 9 -25q3 -2 17 -1v-11h-88v10q20 0 25 13q2 5 2.5 11.5t0 16t-0.5 12.5v71q0 2 0.5 10t0 13.5t-2.5 9.5q-3 8 -8.5 10.5t-16.5 2.5v10 z" />
<glyph d="M572 104q26 -3 34 -3q10 1 20 6q13 6 16 23t-8 27q-11 12 -37 12q-21 0 -24 -3q-1 -1 -1 -17v-45zM510 187h96q35 -2 51 -12q21 -13 20.5 -41t-21.5 -40q-9 -5 -21 -7.5t-19 -3t-24.5 0t-19.5 0.5v-50q0 -18 9 -24q3 -2 18 -2v-10h-89v9q21 0 25 13q2 4 2 10t-0.5 13.5 t-0.5 10.5v73q0 3 0.5 11.5t0.5 15.5t-2 11q-3 8 -8.5 10t-16.5 2v10zM388 386q-23 -4 -37 -31q-22 -43 -2 -89q8 -18 21.5 -28.5t31.5 -7.5q23 4 37 31q23 45 2 91q-19 39 -53 34zM385 403q15 2 32 -2q33 -8 51 -36.5t17 -60t-20.5 -59t-53.5 -32.5q-26 -4 -48 4 q-31 11 -46.5 41.5t-10.5 64.5t27 57q19 19 52 23zM98 618h87v-10q-13 0 -17 -3q-9 -7 -9 -26v-47h77v50q0 18 -9 24q-3 2 -18 2v10h89v-10q-21 0 -26 -13q-1 -4 -1 -9.5t0.5 -13t0.5 -10.5v-72q0 -3 -1 -12.5t-0.5 -16t2.5 -11.5q3 -8 8.5 -9.5t16.5 -1.5v-11h-89v10 q14 0 19 4q7 6 8 24v48h-77v-49q0 -19 10 -25q3 -2 16 -1v-11h-87v10q20 0 25 13q2 5 2 11.5t-0.5 16t-0.5 12.5v71q0 2 0.5 10t0 13.5t-1.5 9.5q-3 8 -9 10.5t-16 2.5v10z" />
<glyph d="M493 187h88v-9q-13 0 -18 -3q-9 -7 -8 -26v-48h76v49q0 18 -8 25q-3 2 -18 2v10h88v-9q-21 0 -25 -13q-1 -4 -1.5 -10t0 -13.5t0.5 -10.5v-72q0 -3 -0.5 -12t-0.5 -16t2 -11q3 -8 9 -10t16 -2v-10h-88v9q15 0 19 4q7 6 7 24v49h-76v-50q0 -19 9 -24q3 -2 17 -2v-10h-88v9 q21 0 25 14q1 4 1.5 10t0 13.5t-0.5 10.5v70q0 3 1 12t0.5 16t-2.5 12q-3 8 -8.5 10t-16.5 2v10zM374 319q26 -3 33 -2q11 1 20 6q14 7 17 23.5t-9 27.5q-11 11 -37 10q-21 0 -24 -3q-1 -1 0 -17v-45zM312 403q84 0 97 -1q34 -2 49 -12q21 -13 21.5 -40t-20.5 -40 q-7 -4 -15.5 -7t-18 -3.5t-16.5 -1t-19 0t-16 0.5v-49q0 -19 9 -25q3 -2 17 -2v-10h-88v10q20 0 25 13q2 5 2.5 11.5t-0.5 15.5t-1 12v71q0 2 0.5 10.5t0.5 13.5t-2 10q-3 8 -8.5 10t-16.5 2v11zM172 535q26 -3 34 -3q11 1 21 6q13 7 15.5 23.5t-7.5 27.5q-11 11 -38 11 q-21 0 -24 -4q-1 -1 -1 -17v-44zM172 512v-45q0 -16 1 -17q3 -3 25 -3q31 0 42.5 10t9 27.5t-16.5 23.5q-8 4 -24 6h-12q-4 0 -12.5 -1t-12.5 -1zM111 618q9 0 29.5 0.5t36 0.5t30.5 -2q33 -3 43 -8q26 -12 27 -40t-21 -44q27 -13 28 -43.5t-26 -43.5q-11 -6 -45 -9 q-15 -1 -32 -1.5t-38.5 0t-31.5 0.5v10q21 0 25 14q1 4 1.5 9.5t0 13.5t-0.5 10v71q0 3 0.5 12t0.5 15.5t-2 11.5q-3 8 -9 10.5t-16 2.5v10z" />
<glyph d="M493 187h88v-9q-13 0 -18 -3q-9 -7 -8 -26v-48h76v49q0 18 -8 25q-3 2 -18 2v10h88v-9q-21 0 -25 -13q-1 -4 -1.5 -10t0 -13.5t0.5 -10.5v-72q0 -3 -0.5 -12t-0.5 -16t2 -11q3 -8 9 -10t16 -2v-10h-88v9q15 0 19 4q7 6 7 24v49h-76v-50q0 -19 9 -24q3 -2 17 -2v-10h-88v9 q21 0 25 14q1 4 1.5 10t0 13.5t-0.5 10.5v70q0 3 1 12t0.5 16t-2.5 12q-3 8 -8.5 10t-16.5 2v10zM370 319q26 -3 33 -2q11 1 22 6q13 7 15.5 23.5t-8.5 26.5q-11 11 -37 11q-21 0 -24 -3q-1 -1 -1 -17v-45zM370 296v-44q0 -16 1 -17q3 -3 25 -4q31 0 42 10t8.5 27.5 t-15.5 24.5q-8 4 -24 6h-12q-4 0 -12.5 -1.5t-12.5 -1.5zM308 403q9 0 30 0.5t36.5 0t29.5 -1.5q33 -3 44 -8q26 -12 27 -40t-21 -44q27 -13 28 -43.5t-26 -43.5q-11 -6 -46 -9q-15 -1 -31.5 -1.5t-38.5 0t-32 0.5v10q21 0 26 14q1 4 1.5 9.5t0 13t-0.5 10.5v70 q0 3 0.5 12.5t0 16t-1.5 11.5q-3 8 -9 10t-17 2v11zM89 618h38l17 -1l11 -11l23 -28l80 -93v77q0 2 0.5 10.5t0 14.5t-3.5 10q-2 5 -6.5 7.5t-7.5 3t-10 0.5v10h75v-10q-11 0 -15 -1q-4 -2 -7 -5.5t-4 -9t-1 -8.5v-11v-9v-136q-19 0 -20 1q-4 3 -9 8t-10 12l-7 10l-57 66 l-10 11q-7 7 -12 13t-7 12h-1v-78q0 -3 -0.5 -9t-0.5 -9.5t1 -8.5t3 -8q5 -9 23 -9v-11h-74v10q21 0 25 15q1 3 1 33v68q0 3 0.5 11t0.5 14.5t-2 10.5q-9 18 -34 18v10z" />
<glyph d="M565 170v-155h8h9q2 0 7.5 0.5t8.5 0.5l7 2q5 1 8 2.5t6.5 3.5t7.5 5q21 19 21 61q0 52 -28 71q-5 3 -10 5t-12 3t-10 1h-12h-11zM287 403h38l17 -1l10 -12l24 -27l79 -93v78q0 2 0.5 8.5t0.5 10t-1 8.5t-3 8q-5 9 -23 9v11h75v-10q-11 0 -15 -2t-7 -5.5t-4 -8.5t-1 -9 v-10v-9v-136q-19 0 -20 1q-4 2 -8.5 7t-9.5 12t-7 9l-58 68l-10 10q-7 7 -12 13.5t-7 12.5h-1v-79q0 -3 -0.5 -8.5t-0.5 -9.5t1 -8.5t3 -8.5q5 -9 23 -9v-10h-75v10q21 0 26 14q1 3 1 34v68q0 3 0.5 11t0.5 14.5t-2 10.5q-9 18 -34 17v11zM503 187h77q45 0 64 -11 q26 -16 34.5 -46.5t2.5 -64.5q-6 -39 -32 -55q-21 -13 -69 -12h-77v9q21 0 25 13q1 4 1.5 10t0 13.5t-0.5 10.5v72q0 3 0.5 12t0.5 16t-2 11q-3 8 -8.5 10t-16.5 2v10zM154 618h88v-10q-21 0 -26 -14q-1 -4 -1.5 -9.5t0 -13t0.5 -10.5v-71q0 -3 -0.5 -12t0 -15.5t2.5 -11.5 q3 -8 8.5 -10t16.5 -2v-11h-88v10q20 0 25 13q2 5 2 11.5t-0.5 16t-0.5 12.5v71q0 2 0.5 10t0 13.5t-1.5 9.5q-3 8 -9 10.5t-16 2.5v10z" />
<glyph unicode="&#x85;" d="M308 398h160l15 -51q-12 0 -14 1q-1 0 -6 10q-9 18 -17 21q-3 1 -24 2h-52v-69h40q18 0 23 11q1 3 1 16h15v-71h-15q0 13 -1 16q-5 11 -23 11h-40v-69h52q21 0 24 2q8 3 17 21q5 9 6 10t14 0l-15 -51h-160v10q21 0 25 13q2 4 2 10t-0.5 13.5t-0.5 10.5v73q0 3 0.5 11.5 t0.5 15.5t-2 11q-3 8 -8.5 10t-16.5 2v10zM505 187h89v-9q-22 0 -26 -14q-2 -6 -2 -14.5t1 -19t1 -14.5v-101h52q21 0 24 2q8 3 17 21q5 9 6 10t13 1l-14 -51h-161v9q21 0 26 13q2 4 2 10t-0.5 13.5t-0.5 10.5v73q0 3 0.5 11.5t0 15.5t-1.5 11q-3 8 -9 10t-17 2v10zM89 618 h38l17 -1l11 -11l23 -28l80 -93v77q0 2 0.5 10.5t0 14.5t-3.5 10q-2 5 -6.5 7.5t-7.5 3t-10 0.5v10h75v-10q-11 0 -15 -1q-4 -2 -7 -5.5t-4 -9t-1 -8.5v-11v-9v-136q-19 0 -20 1q-4 3 -9 8t-10 12l-7 10l-57 66l-10 11q-7 7 -12 13t-7 12h-1v-78q0 -3 -0.5 -9t-0.5 -9.5 t1 -8.5t3 -8q5 -9 23 -9v-11h-74v10q21 0 25 15q1 3 1 33v68q0 3 0.5 11t0.5 14.5t-2 10.5q-9 18 -34 18v10z" />
<glyph d="M585 137l-24 -59h49l-15 38zM347 277q3 -37 32 -45q13 -5 30.5 0t18 21.5t-22.5 30.5q-6 4 -20.5 11.5t-25 14.5t-17.5 15q-19 25 -4 50.5t44 27.5q13 1 28 -3l7 -2q7 -3 10 -3.5t5 3.5t3 5t12 1v-66h-13q-5 36 -26 44q-14 7 -31 1t-15 -24q2 -13 29 -29q5 -3 12.5 -7 t12.5 -7l12 -8q8 -4 12.5 -8t9.5 -10t6.5 -11.5t3 -13t-2.5 -15.5q-6 -21 -26.5 -30.5t-43.5 -6.5q-3 0 -8.5 2t-10.5 3.5t-9.5 2t-7.5 -1.5t-4 -7h-14v65h14zM484 7q13 0 18 2q4 2 7.5 5t6 8t4 8.5t4 10t3.5 8.5l40 95l13 32q4 10 7 11q4 3 8 1t6 -2t4.5 -4t3.5 -6t3 -7 t2 -7l40 -95l13 -30q4 -9 2 -10q9 -18 33 -19v-10h-89v9q10 0 13 1q4 1 6 4t1 8t-2 8t-3 8l-3 6q0 1 -2 6t-3 7t-3.5 4.5t-5.5 2.5h-40q-14 0 -15 -2q-1 -1 -6 -11q-1 -1 -4 -7l-4 -8q-1 -4 -2 -8.5t0 -8.5t4 -7q2 -2 16 -2v-10h-76v9zM149 492q3 -37 32 -45q13 -5 30.5 0 t18 21.5t-22.5 30.5q-6 4 -20.5 11.5t-24.5 14.5t-18 16q-19 25 -4 50t45 28q14 1 27 -3l7 -3q7 -3 10.5 -3t5 3.5t2.5 4.5t13 1v-66h-14q-5 36 -26 45q-14 7 -31 0.5t-14 -24.5q2 -13 28 -29q5 -3 13 -7l12 -7q6 -3 13.5 -7.5t11.5 -8.5l9 -9q6 -6 7 -12l3 -13q1 -8 -3 -16 q-6 -21 -26.5 -30.5t-43.5 -6.5q-3 0 -9 2l-10 4q-4 1 -9 1.5t-8 -1.5t-4 -7h-14v65h14z" />
<glyph d="M585 137l-24 -59h49l-15 38zM347 277q3 -38 34 -46q17 -4 32 2t14 23q-1 16 -30 32q-3 2 -10 6t-11 6.5t-11 6.5t-11 7.5t-9 8.5t-7.5 9.5t-4.5 10.5t-1.5 12.5t2.5 12.5q6 18 23.5 27.5t37.5 7.5q12 -1 24 -6q9 -4 11 -2q2 1 4 9h13v-66h-13q-5 36 -25 44q-14 7 -31.5 1 t-15.5 -24q2 -13 29 -29q5 -3 12.5 -7t12.5 -7l12 -8q8 -4 12.5 -8t9.5 -10t6.5 -11.5t3 -13t-2.5 -15.5q-6 -21 -26.5 -30.5t-43.5 -6.5q-2 0 -14 4t-18.5 3.5t-7.5 -8.5h-14v65h14zM485 7q12 0 20.5 6.5t11.5 12.5t9 20l42 101l12 29q4 10 6 11q4 2 7 2t5.5 -1.5t4.5 -3 t3 -4.5l3 -5q1 -2 2.5 -6t2.5 -5l41 -99l12 -28q4 -9 2 -11q9 -11 15 -14.5t18 -3.5v-10h-89v9q11 0 15 2q3 2 4.5 4.5t0.5 7t-2 7.5t-3 8l-3 5q0 1 -2 6l-3 7q-1 3 -3.5 5.5t-5.5 2.5h-40q-14 0 -15.5 -1.5t-5.5 -11.5l-4 -7q-2 -5 -3 -8l-3 -9q-1 -5 0 -8.5t4 -6.5 q2 -2 16 -2v-10h-75v9zM111 618h118h29l12 -1l5 -14l11 -36q-13 0 -15 1l-5 10q-10 19 -17 21q-3 1 -25 1h-52v-68h41q16 0 22 9q3 4 2 17h14v-70h-14q0 13 -2 18q-6 9 -22 8h-41v-68h52q22 0 25 1q8 3 17 22l5 9q1 1 14 1l-11 -36l-5 -14l-11 -1h-30h-117v10q20 0 25 13 q2 5 2 11.5t-0.5 16t-0.5 12.5v71q0 2 0.5 10t0 13.5t-1.5 9.5q-3 8 -9 10.5t-16 2.5v10z" />
<glyph d="M305 352l10 37l5 13l10 1h29h113l14 -51q-12 0 -13 1l-6 9q-8 15 -14 20q-4 3 -10.5 4t-17 0t-12.5 -1v-103q0 -4 -0.5 -14t-0.5 -18t2 -14t6.5 -9t8 -3.5t10.5 -0.5v-10h-88v10q22 0 25 14q2 6 2 14t-0.5 18t-0.5 14v102q-2 0 -11.5 1t-16 0t-11.5 -3q-7 -5 -15 -21 q-5 -10 -5 -9q-2 -1 -13 -1zM545 63q7 -36 25 -44q16 -8 36.5 -2t18.5 26q-1 5 -3.5 9.5t-8.5 9t-7.5 6t-9.5 5.5q-4 2 -11.5 6.5t-12.5 7t-12 7.5t-11 8.5t-9.5 9.5t-6.5 11t-3 12.5t1 14.5q5 20 23 29.5t40 8.5q3 0 8.5 -1.5t10 -3.5t9 -2.5t7.5 1.5t3 7h14v-66h-14 q-2 36 -28 45q-13 6 -29.5 0.5t-14.5 -22.5q1 -14 28 -30l14 -8l16 -8l14 -10q9 -6 13 -11t9 -13t4 -15t-3 -18q-7 -20 -27 -29t-42 -6q-7 1 -25 6q-10 3 -12 2q-3 -1 -4 -8h-13v65h13zM98 618h87v-10q-13 0 -17 -3q-9 -7 -9 -26v-47h77v50q0 18 -9 24q-3 2 -18 2v10h89v-10 q-21 0 -26 -13q-1 -4 -1 -9.5t0.5 -13t0.5 -10.5v-72q0 -3 -1 -12.5t-0.5 -16t2.5 -11.5q3 -8 8.5 -9.5t16.5 -1.5v-11h-89v10q14 0 19 4q7 6 8 24v48h-77v-49q0 -19 10 -25q3 -2 16 -1v-11h-87v10q20 0 25 13q2 5 2 11.5t-0.5 16t-0.5 12.5v71q0 2 0.5 10t0 13.5t-1.5 9.5 q-3 8 -9 10.5t-16 2.5v10z" />
<glyph d="M305 352l10 37l5 13l10 1h29h113l14 -51q-12 0 -13 1l-6 9q-8 15 -14 20q-4 3 -10.5 4t-17 0t-12.5 -1v-103q0 -4 -0.5 -14t-0.5 -18t2 -14t6.5 -9t8 -3.5t10.5 -0.5v-10h-88v10q22 0 25 14q2 6 2 14t-0.5 18t-0.5 14v102q-2 0 -11.5 1t-16 0t-11.5 -3q-7 -5 -15 -21 q-5 -10 -5 -9q-2 -1 -13 -1zM562 187h88v-9q-11 0 -15 -2q-6 -2 -8.5 -9t-3 -12t0 -16t0.5 -12q0 -7 0.5 -28.5t0 -36.5t-2.5 -28q-5 -29 -30 -36q-6 -2 -21 0q-13 1 -24 9t-11 20q0 9 8.5 13t15.5 -2q4 -3 6 -11t5 -11q10 -11 15 -2q3 5 3.5 11t0 16.5t-0.5 11.5v76 q0 3 0.5 11t0 14t-1.5 11q-3 8 -9 10q-7 2 -17 2v10zM98 618h87v-10q-13 0 -17 -3q-9 -7 -9 -26v-47h77v50q0 18 -9 24q-3 2 -18 2v10h89v-10q-21 0 -26 -13q-1 -4 -1 -9.5t0.5 -13t0.5 -10.5v-72q0 -3 -1 -12.5t-0.5 -16t2.5 -11.5q3 -8 8.5 -9.5t16.5 -1.5v-11h-89v10 q14 0 19 4q7 6 8 24v48h-77v-49q0 -19 10 -25q3 -2 16 -1v-11h-87v10q20 0 25 13q2 5 2 11.5t-0.5 16t-0.5 12.5v71q0 2 0.5 10t0 13.5t-1.5 9.5q-3 8 -9 10.5t-16 2.5v10z" />
<glyph d="M305 352l10 36l6 14l9 1h22h86h23l10 -1l5 -14l11 -36q-13 0 -14 1l-6 9q-8 16 -14 20q-4 3 -11 4t-17 0t-12 -1v-100q0 -4 -0.5 -14.5t-0.5 -18.5t2 -15q4 -14 25 -14v-10h-87v10q22 0 25 15q2 7 2 15t-0.5 18.5t-0.5 15.5v98q-2 0 -12 1t-16 0q-7 -2 -12 -4 q-7 -4 -14 -20q-5 -9 -6 -9q-1 -1 -13 -1zM632 189h13v-66h-13q-7 37 -26 44q-13 7 -31.5 1.5t-15.5 -23.5q2 -13 27 -29q5 -3 14 -7.5t15 -8t14.5 -9t13 -10t9.5 -12t5 -14.5t-1 -18q-6 -22 -26.5 -32t-43.5 -7q-10 1 -26 6q-9 3 -12 2q-3 -2 -3 -8h-14v65h14q2 -39 32 -46 q17 -4 33 1t15 23q0 8 -6 14.5t-10.5 9.5t-13.5 8q-3 2 -10.5 6t-11.5 7l-11 6q-7 5 -10.5 8t-8.5 8t-7.5 10t-4.5 10.5t-1.5 12t2.5 13.5q6 19 23.5 27.5t38.5 6.5q9 -1 23 -6q8 -3 10 -2q3 1 5 9zM89 618h89v-10q-19 0 -20 -11q0 -5 2 -11t6 -14l5 -10q25 -61 35 -82 q5 10 33 83q1 2 5 9.5t6 13.5t1 11q-1 11 -18 11h-2v10h76v-10q-12 0 -16.5 -1.5t-8 -4.5t-6.5 -8t-4.5 -8.5t-4 -10t-3.5 -8.5l-40 -96l-13 -31q-4 -10 -7 -12q-4 -3 -8 -1t-6 2.5t-4.5 4.5t-3.5 6t-3 7t-2 7l-40 95l-13 29q-4 9 -2 11q-9 19 -33 19v10z" />
<glyph d="M565 170v-155h8h9q2 0 7.5 0.5t8.5 0.5l7 2q5 1 8 2.5t6.5 3.5t7.5 5q21 19 21 61q0 52 -28 71q-5 3 -10 5t-12 3t-10 1h-12h-11zM308 403h88v-10q-22 0 -25 -14q-2 -6 -2 -14t0.5 -18.5t0.5 -14.5v-102h52q21 0 24 2q8 3 18 22q4 9 5 9q1 1 14 1l-15 -51h-160v10 q21 0 25 14q1 4 1.5 9.5t0 12.5t-0.5 10v70q0 3 0.5 12.5t0.5 16.5t-2 12q-3 8 -8.5 10t-16.5 2v11zM503 187h77q45 0 64 -11q26 -16 34.5 -46.5t2.5 -64.5q-6 -39 -32 -55q-21 -13 -69 -12h-77v9q21 0 25 13q1 4 1.5 10t0 13.5t-0.5 10.5v72q0 3 0.5 12t0.5 16t-2 11 q-3 8 -8.5 10t-16.5 2v10zM176 535q26 -3 33 -3q11 1 20 6q14 7 17 23.5t-9 27.5q-11 11 -37 11q-21 0 -23 -4q-1 -1 -1 -17v-44zM114 618q84 0 97 -1q34 -2 49 -11q21 -13 21.5 -40.5t-20.5 -40.5q-7 -4 -15 -6.5t-18 -3.5t-17 -1h-19h-16v-49q0 -19 9 -25q3 -2 17 -1v-11 h-88v10q20 0 25 13q2 5 2.5 11.5t0 16t-0.5 12.5v71q0 2 0.5 10t0 13.5t-2.5 9.5q-3 8 -8.5 10.5t-16.5 2.5v10z" />
<glyph d="M308 403h88v-10q-22 0 -25 -14q-2 -6 -2 -14t0.5 -18.5t0.5 -14.5v-102h52q21 0 24 2q8 3 18 22q4 9 5 9q1 1 14 1l-15 -51h-160v10q21 0 25 14q1 4 1.5 9.5t0 12.5t-0.5 10v70q0 3 0.5 12.5t0.5 16.5t-2 12q-3 8 -8.5 10t-16.5 2v11zM490 189h88v-10q-12 0 -16 -1 q-6 -3 -8.5 -10t-2.5 -12t0.5 -15.5t0.5 -12.5v-21v-19q0 -4 1 -19t4 -21t8 -15t13.5 -13t20.5 -4q11 0 21 6q11 6 17 14.5t8.5 21.5t3 21t0 25t-0.5 22q0 2 0.5 12.5t0.5 16.5t-3 13t-9 10q-2 1 -16 1v10h76v-10q-13 0 -17 -2q-6 -3 -8.5 -11.5t-2.5 -15.5t1 -18.5t1 -14.5 v-19v-20q0 -5 -1.5 -17t-4.5 -18.5t-8.5 -15t-14.5 -14.5q-9 -7 -17 -10q-11 -4 -25 -4q-30 0 -52 13.5t-29 41.5q-3 10 -3 51v48q0 18 -9 24q-3 2 -17 2v10zM176 535q26 -3 33 -3q11 1 20 6q14 7 17 23.5t-9 27.5q-11 11 -37 11q-21 0 -23 -4q-1 -1 -1 -17v-44zM114 618 q84 0 97 -1q34 -2 49 -11q21 -13 21.5 -40.5t-20.5 -40.5q-7 -4 -15 -6.5t-18 -3.5t-17 -1h-19h-16v-49q0 -19 9 -25q3 -2 17 -1v-11h-88v10q20 0 25 13q2 5 2.5 11.5t0 16t-0.5 12.5v71q0 2 0.5 10t0 13.5t-2.5 9.5q-3 8 -8.5 10.5t-16.5 2.5v10z" />
<glyph d="M439 295h89v-10q-21 0 -25 -12q-2 -4 -2 -10t0.5 -13.5t0.5 -10.5v-74q0 -3 -0.5 -11.5t-0.5 -15.5t2 -11q5 -11 25 -12v-9h-89v9q21 0 26 13q2 4 2 9.5t-0.5 13t-0.5 10.5v73q0 3 0.5 12t0.5 15.5t-2 11.5q-5 12 -26 12v10zM270 490v-45q0 -16 1 -17q3 -3 23 -3 q26 0 38 11q10 10 8 26t-14 23q-9 5 -21 7q-8 1 -11.5 0.5t-11.5 -1.5t-12 -1zM208 510h80q47 0 67 -13q16 -10 19.5 -30t-7 -37.5t-30.5 -18.5l31 -53q12 -21 20 -25q4 -2 19 -2v-10h-89v10q14 0 16 2q4 6 -4 20q-3 6 -10 18t-10 18q-9 16 -11 17q-3 2 -8 2t-12.5 -0.5 t-8.5 -0.5v-49q0 -19 9 -25q4 -3 17 -2v-10h-88v10q20 0 25 13q2 5 2.5 11.5t0 15.5t-0.5 12v71q0 2 0.5 10t0 13.5t-2.5 9.5q-5 13 -25 13v10z" />
<glyph d="M347 277q3 -37 32 -45q13 -5 30.5 0t18 21.5t-22.5 30.5q-6 4 -20.5 11.5t-25 14.5t-17.5 15q-19 25 -4 50.5t44 27.5q13 1 28 -3l7 -2q7 -3 10 -3.5t5 3.5t3 5t12 1v-66h-13q-5 36 -26 44q-14 7 -31 1t-15 -24q2 -13 29 -29q5 -3 12.5 -7t12.5 -7l12 -8q8 -4 12.5 -8 t9.5 -10t6.5 -11.5t3 -13t-2.5 -15.5q-6 -21 -26.5 -30.5t-43.5 -6.5q-3 0 -8.5 2t-10.5 3.5t-9.5 2t-7.5 -1.5t-4 -7h-14v65h14zM534 131q3 34 27 50q23 15 49.5 4.5t33.5 -36.5q2 -7 2 -13.5t-2 -13.5t-4 -12.5t-6 -12.5l-8 -11q-3 -5 -9 -12.5t-9 -10t-10 -10t-8 -9.5 l-20 -22q4 0 17.5 -0.5t23 0t17.5 2.5q4 1 9 6t7 6q1 1 13 1l-14 -39h-114q0 5 2.5 10t5 8t8 7.5t7.5 6.5l10 10q9 9 12 12.5t11 11.5t11 13.5t8 13t7 15t2 15.5q1 17 -8 31.5t-26 11.5q-16 -3 -24 -18q0 -1 -3 -6.5t-5 -7.5q-2 -1 -13 -1zM149 492q3 -37 32 -45 q13 -5 30.5 0t18 21.5t-22.5 30.5q-6 4 -20.5 11.5t-24.5 14.5t-18 16q-19 25 -4 50t45 28q14 1 27 -3l7 -3q7 -3 10.5 -3t5 3.5t2.5 4.5t13 1v-66h-14q-5 36 -26 45q-14 7 -31 0.5t-14 -24.5q2 -13 28 -29q5 -3 13 -7l12 -7q6 -3 13.5 -7.5t11.5 -8.5l9 -9q6 -6 7 -12 l3 -13q1 -8 -3 -16q-6 -21 -26.5 -30.5t-43.5 -6.5q-3 0 -9 2l-10 4q-4 1 -9 1.5t-8 -1.5t-4 -7h-14v65h14z" />
<glyph d="M347 277q3 -37 32 -45q13 -5 30.5 0t18 21.5t-22.5 30.5q-6 4 -20.5 11.5t-25 14.5t-17.5 15q-19 25 -4 50.5t44 27.5q13 1 28 -3l7 -2q7 -3 10 -3.5t5 3.5t3 5t12 1v-66h-13q-5 36 -26 44q-14 7 -31 1t-15 -24q2 -13 29 -29q5 -3 12.5 -7t12.5 -7l12 -8q8 -4 12.5 -8 t9.5 -10t6.5 -11.5t3 -13t-2.5 -15.5q-6 -21 -26.5 -30.5t-43.5 -6.5q-3 0 -8.5 2t-10.5 3.5t-9.5 2t-7.5 -1.5t-4 -7h-14v65h14zM552 146q-9 6 -10 11q0 3 7 12q13 17 33 20q32 5 51 -21.5t2 -54.5q-6 -10 -19 -18q23 -7 29.5 -31t-6.5 -43q-18 -26 -53.5 -23t-47.5 32 l12 6q4 -11 11 -16q6 -5 15 -8q19 -5 31 7.5t12 32.5q0 10 -5 19.5t-14 12.5q-7 3 -31 3v12q19 0 29 7q11 7 14.5 21t-1.5 26q-5 14 -18.5 17.5t-24.5 -5.5q-7 -5 -16 -19zM149 492q3 -37 32 -45q13 -5 30.5 0t18 21.5t-22.5 30.5q-6 4 -20.5 11.5t-24.5 14.5t-18 16 q-19 25 -4 50t45 28q14 1 27 -3l7 -3q7 -3 10.5 -3t5 3.5t2.5 4.5t13 1v-66h-14q-5 36 -26 45q-14 7 -31 0.5t-14 -24.5q2 -13 28 -29q5 -3 13 -7l12 -7q6 -3 13.5 -7.5t11.5 -8.5l9 -9q6 -6 7 -12l3 -13q1 -8 -3 -16q-6 -21 -26.5 -30.5t-43.5 -6.5q-3 0 -9 2l-10 4 q-4 1 -9 1.5t-8 -1.5t-4 -7h-14v65h14z" />
<glyph d="M468 255q1 -1 2 -3l4 -4q1 -2 0 -3q0 -3 -11 -13q-23 -19 -46 -20q-37 -2 -64 17t-35.5 54t5.5 65q11 25 32.5 39.5t48.5 16.5q17 1 28 -3l6 -3q4 -2 7 -3t6 -1q5 1 6 10h14v-65h-14q0 23 -19 37t-41 8q-21 -6 -35 -31t-11 -54.5t22 -51.5q18 -20 48.5 -17t46.5 25z M632 189h13v-66h-13q-7 37 -26 44q-13 7 -31.5 1.5t-15.5 -23.5q2 -13 27 -29q5 -3 14 -7.5t15 -8t14.5 -9t13 -10t9.5 -12t5 -14.5t-1 -18q-6 -22 -26.5 -32t-43.5 -7q-10 1 -26 6q-9 3 -12 2q-3 -2 -3 -8h-14v65h14q2 -39 32 -46q17 -4 33 1t15 23q0 8 -6 14.5t-10.5 9.5 t-13.5 8q-3 2 -10.5 6t-11.5 7l-11 6q-7 5 -10.5 8t-8.5 8t-7.5 10t-4.5 10.5t-1.5 12t2.5 13.5q6 19 23.5 27.5t38.5 6.5q9 -1 23 -6q8 -3 10 -2q3 1 5 9zM170 600v-154h8h8h8q6 0 8.5 0.5t7 2t7.5 3.5l7 3q4 2 7 5q21 19 21 60q0 52 -28 72q-5 3 -9.5 5t-11.5 2.5t-10 1 t-12.5 0t-10.5 -0.5zM107 618h78q45 0 64 -12q26 -16 34 -46t3 -64q-6 -39 -33 -55q-21 -13 -68 -13h-78v10q21 0 26 13q1 4 1.5 10t0 13.5t-0.5 9.5v73q0 3 0.5 12t0 15.5t-2.5 11.5q-3 8 -8.5 10t-16.5 2v10z" />
<glyph d="M292 404h89v-10q-12 0 -16 -2q-6 -3 -8.5 -9.5t-3 -12t0 -15.5t0.5 -12v-21v-20q0 -4 1 -18.5t4 -20.5l8 -15q5 -10 13.5 -13.5t20.5 -4.5q11 0 21 6q11 6 17 15t8.5 22t3 20.5t0 25t-0.5 21.5q0 2 0.5 12.5t0.5 16.5t-3 13.5t-9 9.5q-2 1 -15 1v11h75v-10q-13 0 -16 -2 q-6 -3 -8.5 -11t-3 -15t0.5 -18t1 -14v-19v-20q0 -6 -1.5 -18t-4 -19t-8 -15.5t-13.5 -14.5q-9 -7 -17 -10q-12 -5 -24 -5q-31 0 -53.5 13t-30.5 41q-3 11 -3 48v51q0 19 -8 25q-3 2 -18 2v11zM597 189h18v-136q0 -2 -0.5 -10t-0.5 -13.5t2 -11.5t5 -8t17 -2v-10h-74v10 q16 0 20 4q2 4 2.5 9t0 13.5t-0.5 9.5v79h-38v15q38 0 49 51zM176 535q26 -3 33 -3q11 1 20 6q14 7 17 23.5t-9 27.5q-11 11 -37 11q-21 0 -23 -4q-1 -1 -1 -17v-44zM114 618q84 0 97 -1q34 -2 49 -11q21 -13 21.5 -40.5t-20.5 -40.5q-7 -4 -15 -6.5t-18 -3.5t-17 -1h-19 h-16v-49q0 -19 9 -25q3 -2 17 -1v-11h-88v10q20 0 25 13q2 5 2.5 11.5t0 16t-0.5 12.5v71q0 2 0.5 10t0 13.5t-2.5 9.5q-3 8 -8.5 10.5t-16.5 2.5v10z" />
<glyph d="M292 403h89v-10q-21 0 -26 -12q-2 -5 -2 -12t0.5 -16t0.5 -12q0 -6 -0.5 -19.5t-0.5 -21.5t1.5 -19t4.5 -20q5 -13 15.5 -21.5t23.5 -9.5q11 0 18 3q10 4 17 11t10.5 14.5t5.5 19.5t2 19.5t-0.5 21.5t-0.5 19q0 2 0.5 13t0.5 17t-3 13.5t-9 10.5q-3 1 -15 1v10h75v-10 q-13 0 -16 -1q-6 -3 -8.5 -11.5t-3 -16t0.5 -19.5t1 -15v-18v-20q0 -4 -1.5 -16.5t-4.5 -18.5t-8.5 -14.5t-12.5 -15.5q-7 -6 -19 -10q-11 -4 -24 -4q-29 0 -51.5 13t-30.5 40q-3 11 -3 53v48q0 19 -10 24q-3 2 -16 2v10zM534 131q3 34 27 50q23 15 49.5 4.5t33.5 -36.5 q6 -23 -11 -52q-5 -8 -10.5 -15.5t-13.5 -17.5l-11 -13l-16 -15q-11 -12 -12 -14q4 0 17.5 -0.5t23 0t17.5 2.5q4 1 9 6t7 6q1 1 13 1l-14 -39h-114q0 5 2.5 10t5 8t8 7.5t7.5 6.5l10 10q10 9 12.5 12t10.5 11.5t11 14t8 13.5t7 15t2 15q1 17 -8 31.5t-26 11.5 q-16 -3 -26 -20q0 -1 -2 -6t-4 -6t-13 -1zM176 535q26 -3 33 -3q11 1 20 6q14 7 17 23.5t-9 27.5q-11 11 -37 11q-21 0 -23 -4q-1 -1 -1 -17v-44zM114 618q84 0 97 -1q34 -2 49 -11q21 -13 21.5 -40.5t-20.5 -40.5q-7 -4 -15 -6.5t-18 -3.5t-17 -1h-19h-16v-49q0 -19 9 -25 q3 -2 17 -1v-11h-88v10q20 0 25 13q2 5 2.5 11.5t0 16t-0.5 12.5v71q0 2 0.5 10t0 13.5t-2.5 9.5q-3 8 -8.5 10.5t-16.5 2.5v10z" />
<glyph d="M305 352l10 37l5 13l10 1h29h113l14 -51q-12 0 -14 1q-1 0 -5 9q-8 16 -15 21q-4 3 -11 3.5t-16.5 -0.5t-11.5 -1v-103q0 -4 -0.5 -14t-0.5 -18t2 -14t6.5 -9t8 -3.5t10.5 -0.5v-10h-88v10q22 0 25 14q2 6 2 14t-0.5 18t-0.5 14v102q-2 0 -11.5 1t-16 0t-11.5 -3 q-7 -5 -15 -21q-5 -10 -5 -9q-2 -1 -13 -1zM632 189h13v-66h-13q-7 36 -25 44q-14 8 -32 1.5t-15 -25.5q1 -6 6.5 -11.5t8 -7.5t11.5 -8l14 -8l16 -8q6 -3 14 -8.5t12.5 -10.5t9.5 -12.5t5 -14.5t-2 -18q-6 -21 -26.5 -31t-43.5 -7q-10 1 -25 6q-9 3 -11 2q-3 -2 -4 -8h-14 v65h14q1 -17 9.5 -30t24.5 -17t31.5 2t14.5 23q0 8 -6 14.5t-10.5 9.5t-13.5 8q-3 2 -10.5 6t-11.5 7l-11 6q-7 5 -10.5 8t-8.5 8t-7.5 10t-4.5 10.5t-1.5 12t2.5 13.5q6 19 23.5 27.5t38.5 6.5q9 -1 23 -6q8 -3 10 -2q3 1 5 9zM149 492q3 -37 32 -45q13 -5 30.5 0t18 21.5 t-22.5 30.5q-6 4 -20.5 11.5t-24.5 14.5t-18 16q-19 25 -4 50t45 28q14 1 27 -3l7 -3q7 -3 10.5 -3t5 3.5t2.5 4.5t13 1v-66h-14q-5 36 -26 45q-14 7 -31 0.5t-14 -24.5q2 -13 28 -29q5 -3 13 -7l12 -7q6 -3 13.5 -7.5t11.5 -8.5l9 -9q6 -6 7 -12l3 -13q1 -8 -3 -16 q-6 -21 -26.5 -30.5t-43.5 -6.5q-3 0 -9 2l-10 4q-4 1 -9 1.5t-8 -1.5t-4 -7h-14v65h14z" />
<glyph d="M468 255q1 -1 2 -3l4 -4q1 -2 0 -3q0 -3 -11 -13q-23 -19 -46 -20q-33 -1 -57 13q-30 18 -41 54.5t4 68.5q11 25 32.5 39.5t48.5 16.5q17 1 28 -3l6 -3q4 -2 7 -3t6 -1q5 1 6 10h14v-65h-14q0 24 -20 38t-42 6q-20 -7 -34 -32q-13 -25 -9.5 -54.5t22.5 -50.5 q18 -19 48 -16t46 25zM493 187h88v-9q-13 0 -17 -3q-10 -6 -9 -25v-49h76v50q0 18 -9 24q-3 2 -17 2v10h88v-9q-21 0 -25 -13q-2 -4 -2 -10t0.5 -13.5t0.5 -10.5v-73q0 -3 -0.5 -12t-0.5 -15.5t2 -10.5q3 -8 9 -10t16 -2v-10h-88v9q14 0 19 4q7 6 7 24v49h-76v-50 q0 -19 9 -24q2 -2 17 -2v-10h-88v9q20 0 25 13q2 5 2.5 12t-0.5 16t-1 12v71q0 2 0.5 10t0.5 13.5t-2 10.5q-3 8 -8.5 10t-16.5 2v10zM271 470q1 -1 2.5 -3t2.5 -4t1 -3q0 -3 -12 -13q-23 -19 -46 -20q-33 -1 -56 13q-30 18 -41.5 54.5t3.5 69.5q11 25 32.5 39.5t49.5 15.5 q17 1 28 -3q2 -1 5 -2l8 -4q3 -1 5 0q5 1 6 9h14v-64h-14q0 24 -20 37.5t-42 6.5q-20 -7 -34 -33q-13 -25 -9.5 -54.5t22.5 -49.5q18 -19 48 -16t46 24h1z" />
<glyph d="M329 295h88v-10q-12 0 -14 -1t-3.5 -3.5t-1.5 -4.5v-6q0 -3 1.5 -6t2.5 -5.5t2 -5.5t2 -4l26 -63q12 -29 12 -32h1q2 10 13 31.5t13 33.5q0 3 -8 24q-1 2 -5 11l-5 12q-2 5 -6.5 10t-9.5 8q-3 1 -17 1v10h89v-10q-12 0 -13 -1q-4 -2 -5.5 -5t-0.5 -7.5t2 -8t3.5 -9 t3.5 -6.5l25 -63q11 -28 12 -31h1q1 5 14 34l25 60q0 1 1 3.5t2 4t2 4.5t1.5 5t0.5 5v4q0 2 -1 4t-2.5 3.5t-3.5 2.5t-14 1v10h76v-10q-13 0 -16 -1q-4 -2 -7.5 -4.5t-6.5 -7.5t-4.5 -8t-4 -9.5t-2.5 -8.5l-41 -97l-13 -31q-5 -11 -6 -11q-2 -1 -8.5 -1.5t-9 0.5t-6.5 13 l-15 34q-15 36 -15 39h-1q-1 -4 -15 -37l-15 -36q-5 -12 -7 -13q-5 -4 -9.5 -2t-7 3t-5.5 6t-4 8.5t-3.5 9t-3.5 7.5q-3 7 -22 55.5t-31 72.5h2q-11 18 -32 19v10zM182 510h44l17 -1l6 -12l13 -27l50 -103l51 104l13 28l6 10l14 1h36v-10q-20 0 -25 -13q-2 -4 -2 -9.5 t0.5 -13.5t0.5 -10v-71q0 -3 -0.5 -12t-0.5 -15.5t2 -11.5q5 -13 25 -13v-10h-87v10q18 0 23 9q3 5 3 32v69h-1q-2 -5 -16 -34l-22 -47q0 -1 -7 -16t-11 -21q-3 -4 -19 -2q-3 1 -6 6t-6 12.5t-3 8.5l-27 56q-13 27 -15 32h-1v-68q0 -25 6 -32q5 -5 21 -5v-10h-75v10 q21 0 25 14q1 5 1.5 10.5t0 13t-0.5 10.5v70q0 3 1 11.5t0.5 15t-2.5 10.5q-7 14 -32 14v10z" />
<glyph d="M585 137l-24 -59h49l-15 38zM484 7q13 0 18 2q4 2 7.5 5t6 8t4 8.5t4 10t3.5 8.5l40 95l13 32q4 10 7 11q4 3 8 1t6 -2t4.5 -4t3.5 -6t3 -7t2 -7l40 -95l13 -30q4 -9 2 -10q9 -18 33 -19v-10h-89v9q10 0 13 1q4 1 6 4t1 8t-2 8t-3 8l-3 6q0 1 -2 6t-3 7t-3.5 4.5 t-5.5 2.5h-40q-14 0 -15 -2q-1 -1 -6 -11q-1 -1 -4 -7l-4 -8q-1 -4 -2 -8.5t0 -8.5t4 -7q2 -2 16 -2v-10h-76v9zM374 315q26 -3 33 -3q11 1 21 6q13 7 16 24t-8 27q-11 11 -38 11q-21 0 -24 -3q-1 -1 0 -17v-45zM312 398q84 0 97 -1q35 -2 50 -11q20 -13 20 -40.5t-20 -39.5 q-7 -4 -15.5 -7t-18 -4t-16.5 -1t-19 0.5t-16 0.5v-50q0 -19 9 -24q3 -2 17 -2v-11h-88v10q21 0 25 14q1 4 1.5 10t0 13.5t-0.5 10.5v70q0 3 1 12t0.5 15.5t-2.5 11.5q-3 8 -8.5 10.5t-16.5 2.5v10zM149 492q3 -37 32 -45q13 -5 30.5 0t18 21.5t-22.5 30.5q-6 4 -20.5 11.5 t-24.5 14.5t-18 16q-19 25 -4 50t45 28q14 1 27 -3l7 -3q7 -3 10.5 -3t5 3.5t2.5 4.5t13 1v-66h-14q-5 36 -26 45q-14 7 -31 0.5t-14 -24.5q2 -13 28 -29q5 -3 13 -7l12 -7q6 -3 13.5 -7.5t11.5 -8.5l9 -9q6 -6 7 -12l3 -13q1 -8 -3 -16q-6 -21 -26.5 -30.5t-43.5 -6.5 q-3 0 -9 2l-10 4q-4 1 -9 1.5t-8 -1.5t-4 -7h-14v65h14z" />
<glyph d="M585 137l-24 -59h49l-15 38zM485 7q12 0 20.5 6.5t11.5 12.5t9 20l42 101l12 29q4 10 6 11q4 2 7 2t5.5 -1.5t4.5 -3t3 -4.5l3 -5q1 -2 2.5 -6t2.5 -5l41 -99l12 -28q4 -9 2 -11q9 -11 15 -14.5t18 -3.5v-10h-89v9q11 0 15 2q3 2 4.5 4.5t0.5 7t-2 7.5t-3 8l-3 5 q0 1 -2 6l-3 7q-1 3 -3.5 5.5t-5.5 2.5h-40q-14 0 -15.5 -1.5t-5.5 -11.5l-4 -7q-2 -5 -3 -8.5t-2.5 -8t-0.5 -8.5t4 -7q2 -2 16 -2v-10h-75v9zM374 315q26 -3 33 -3q11 1 21 6q13 7 16 24t-8 27q-11 11 -38 11q-21 0 -24 -3q-1 -1 0 -17v-45zM312 398q84 0 97 -1 q35 -2 50 -11q20 -13 20 -40.5t-20 -39.5q-7 -4 -15.5 -7t-18 -4t-16.5 -1t-19 0.5t-16 0.5v-50q0 -19 9 -24q3 -2 17 -2v-11h-88v10q21 0 25 14q1 4 1.5 10t0 13.5t-0.5 10.5v70q0 3 1 12t0.5 15.5t-2.5 11.5q-3 8 -8.5 10.5t-16.5 2.5v10zM111 618h118h29l12 -1l5 -14 l11 -36q-13 0 -15 1l-5 10q-10 19 -17 21q-3 1 -25 1h-52v-68h41q16 0 22 9q3 4 2 17h14v-70h-14q0 13 -2 18q-6 9 -22 8h-41v-68h52q22 0 25 1q8 3 17 22l5 9q1 1 14 1l-11 -36l-5 -14l-11 -1h-30h-117v10q20 0 25 13q2 5 2 11.5t-0.5 16t-0.5 12.5v71q0 2 0.5 10t0 13.5 t-1.5 9.5q-3 8 -9 10.5t-16 2.5v10z" />
<glyph d="M545 62q3 -37 32 -46q13 -5 30 0.5t17.5 21.5t-21.5 30q-6 4 -21 12t-25 14.5t-17 15.5q-19 25 -4 50t44 28q13 1 27 -3l7 -3q8 -3 11 -3t5 4t3 4q1 1 12 1v-66h-13q-5 36 -26 45q-14 7 -31.5 1t-14.5 -25q2 -13 29 -29q5 -3 13 -7l12 -7q5 -2 12.5 -7t11.5 -8.5 t9.5 -9.5t6.5 -11l2 -14q2 -8 -1 -16q-11 -40 -71 -36q-3 0 -8.5 1.5t-10 3t-9.5 2.5t-8 -1t-3 -7h-14v65h14zM389 381q-24 -3 -38 -31q-22 -43 -2 -89q7 -17 20.5 -27.5t31.5 -8.5q24 3 38 32q22 44 2 89q-7 17 -21 27t-31 8zM386 399q13 2 31 -2q34 -6 52 -35t17 -61 t-21 -60t-54 -32q-27 -4 -48 4q-31 11 -46.5 41.5t-10.5 64.5t27 56q19 19 53 24zM149 492q3 -37 32 -45q13 -5 30.5 0t18 21.5t-22.5 30.5q-6 4 -20.5 11.5t-24.5 14.5t-18 16q-19 25 -4 50t45 28q14 1 27 -3l7 -3q7 -3 10.5 -3t5 3.5t2.5 4.5t13 1v-66h-14q-5 36 -26 45 q-14 7 -31 0.5t-14 -24.5q2 -13 28 -29q5 -3 13 -7l12 -7q6 -3 13.5 -7.5t11.5 -8.5l9 -9q6 -6 7 -12l3 -13q1 -8 -3 -16q-6 -21 -26.5 -30.5t-43.5 -6.5q-3 0 -9 2l-10 4q-4 1 -9 1.5t-8 -1.5t-4 -7h-14v65h14z" />
<glyph d="M338 127q5 -9 5 -10q0 -3 -12 -13q-21 -18 -45 -19q-35 -2 -63 18.5t-36 51.5t4 66q11 25 34 40t50 15q17 0 26 -3q2 -1 5.5 -2.5t7 -2.5t5.5 -1q6 1 6 9h14v-64h-14q0 29 -27 41.5t-49 -5.5q-23 -18 -28.5 -50.5t7.5 -57.5q21 -43 61 -37q18 3 33 12q2 1 7.5 5.5 t8.5 6.5zM483 275h89v-9q-21 0 -25 -14q-1 -4 -1.5 -9.5t0 -13t0.5 -10.5v-72q0 -3 -0.5 -12t-0.5 -16t2 -12q3 -8 8.5 -9.5t16.5 -1.5v-11h-89v10q21 0 26 13q1 4 1.5 10t0 13.5t-0.5 10.5v72q0 3 0.5 12t0 15.5t-2.5 11.5q-3 8 -8.5 10t-16.5 2v10zM620 430q-12 0 -14 -1 q-10 -3 -12.5 -15t0 -23.5t-0.5 -21.5q-2 -5 -23 -13q-26 -11 -55.5 -6.5t-49.5 23.5q-30 28 -29 74t33 72q33 27 77 20q4 -1 11.5 -4t11.5 -4t6 1.5t2 7.5h15v-64h-15q0 31 -28 42t-51 -9q-19 -16 -25 -44t3.5 -55t32.5 -39q4 -2 8.5 -3t7.5 -1.5t8.5 0t7.5 0.5t9 1t8 1 q0 3 1 14.5t0.5 18.5t-3 15t-8.5 11q-3 2 -16 2v10h88v-10zM216 413q3 -37 32 -45q13 -5 30.5 0t18 21.5t-22.5 30.5q-6 4 -20.5 11.5t-24.5 14.5t-18 16q-19 25 -4 50t44 28q13 1 28 -3l7 -3q7 -3 10 -3.5t5 3.5t3 5t12 1v-66h-13q-5 36 -26 45q-14 7 -31 0.5t-15 -24.5 q2 -13 29 -29q5 -3 12.5 -7t12.5 -7l13 -8q7 -4 11.5 -8t9.5 -10t6.5 -11t3 -13t-2.5 -16q-6 -21 -26.5 -30.5t-43.5 -6.5q-3 0 -8 2l-10 3q-5 2 -10 2.5t-8 -1.5t-4 -7h-14v65h14z" />
<glyph d="M468 255q1 -1 2 -3l4 -4q1 -2 0 -3q0 -3 -11 -13q-23 -19 -46 -20q-33 -1 -57 13q-30 18 -41 54.5t4 68.5q11 25 32.5 39.5t48.5 16.5q17 1 28 -3l6 -3q4 -2 7 -3t6 -1q5 1 6 10h14v-65h-14q0 24 -20 38t-42 6q-20 -7 -34 -32q-13 -25 -9.5 -54.5t22.5 -50.5 q18 -19 48 -16t46 25zM549 187h88v-9q-21 0 -25 -14q-1 -4 -1.5 -10t0 -13.5t0.5 -10.5v-71q0 -3 -0.5 -12t-0.5 -15.5t2 -11.5q3 -8 8.5 -10t16.5 -2v-10h-88v9q21 0 26 14q1 4 1.5 10t0 13.5t-0.5 10.5v70q0 3 0.5 12t0 16t-2.5 12q-3 8 -8.5 10t-16.5 2v10zM149 492 q3 -37 32 -45q13 -5 30.5 0t18 21.5t-22.5 30.5q-6 4 -20.5 11.5t-24.5 14.5t-18 16q-19 25 -4 50t45 28q14 1 27 -3l7 -3q7 -3 10.5 -3t5 3.5t2.5 4.5t13 1v-66h-14q-5 36 -26 45q-14 7 -31 0.5t-14 -24.5q2 -13 28 -29q5 -3 13 -7l12 -7q6 -3 13.5 -7.5t11.5 -8.5l9 -9 q6 -6 7 -12l3 -13q1 -8 -3 -16q-6 -21 -26.5 -30.5t-43.5 -6.5q-3 0 -9 2l-10 4q-4 1 -9 1.5t-8 -1.5t-4 -7h-14v65h14z" />
<glyph d="M347 277q7 -35 26 -43q16 -9 36.5 -2.5t17.5 27.5q-1 7 -7 13.5t-10 9t-14 7.5q-3 2 -9 5l-9 6l-10 6q-6 3 -9.5 5.5t-8.5 7t-8 7.5l-5 8q-3 5 -4 10t-1 11t2 12q5 19 22.5 28.5t38.5 7.5q11 -1 22 -5q10 -4 13 -3t4 9h14v-66h-14q0 16 -7.5 28.5t-21.5 16.5 q-15 5 -30 -0.5t-13 -21.5q1 -7 6.5 -13.5t9 -9t12.5 -7.5q5 -3 21.5 -12t24.5 -14.5t16 -17t8 -25.5q0 -7 -4 -16q-7 -20 -27 -28t-42 -5q-3 0 -14 4t-17.5 3.5t-8.5 -8.5h-13v65h13zM549 187h89v-9q-21 0 -25 -13q-1 -4 -1.5 -10t0 -13.5t0.5 -10.5v-72q0 -3 -1 -12 t-0.5 -16t2.5 -11q3 -8 8.5 -10t16.5 -2v-10h-89v9q21 0 26 13q2 4 2 10t-0.5 13.5t-0.5 10.5v73q0 3 0.5 11.5t0 15.5t-2.5 11q-3 8 -8.5 10t-16.5 2v10zM271 470q1 -1 2.5 -3t2.5 -4t1 -3q0 -3 -12 -13q-23 -19 -46 -20q-33 -1 -56 13q-30 18 -41.5 54.5t3.5 69.5 q11 25 32.5 39.5t49.5 15.5q17 1 28 -3q2 -1 5 -2l8 -4q3 -1 5 0q5 1 6 9h14v-64h-14q0 24 -20 37.5t-42 6.5q-20 -7 -34 -33q-13 -25 -9.5 -54.5t22.5 -49.5q18 -19 48 -16t46 24h1z" />
<glyph d="M392 244l11 36l5 14l11 1h29h112l14 -51q-12 0 -14 1q-5 3 -9.5 14.5t-9.5 15.5q-4 3 -11 3.5t-17 -0.5t-12 -1v-102q0 -4 -0.5 -14.5t-0.5 -18t2 -14.5q4 -13 25 -13v-9h-88v9q22 0 25 13q2 6 2 14t-0.5 18.5t-0.5 14.5v102q-2 0 -12 1t-17 0t-11 -3q-5 -4 -10 -15.5 t-10 -14.5q-1 -1 -13 -1zM346 512h13v-66h-13q-7 36 -24 43q-14 8 -32.5 2t-14.5 -25q1 -6 6.5 -12t7.5 -7.5t12 -7.5l23 -13q19 -11 27.5 -17.5t15.5 -19.5t3 -29q-6 -22 -26 -32t-44 -8q-3 0 -8.5 2t-10.5 3.5t-10 2.5t-8 -1t-4 -8h-14v66h14q1 -17 10 -30t25 -16 q16 -4 31 2t14 22q0 8 -5.5 15t-10 10t-14.5 8q-3 2 -10 6t-11 6.5t-11 6.5t-11 7.5t-9 8.5t-7.5 9.5t-4.5 10.5t-1.5 12.5t2.5 13.5q6 19 23.5 27t38.5 7q9 -1 23 -6q8 -3 11 -3q2 2 4 10z" />
<glyph d="M347 277q2 -38 34 -46q16 -4 30.5 1t15.5 20q1 17 -21 31q-6 4 -20.5 11.5t-25 14t-17.5 15.5q-20 25 -5.5 51t44.5 28q14 1 28 -3q16 -6 17 -6q3 0 5 4t3 5t12 1v-66h-13q-5 37 -29 45q-15 5 -30.5 -0.5t-13.5 -21.5q2 -14 28 -30l14 -8l15 -9q7 -3 15.5 -8.5 t12.5 -10.5t9 -12.5t4 -14.5t-2 -18q-6 -21 -26.5 -30.5t-43.5 -6.5q-3 0 -8.5 2t-10.5 3.5t-9.5 2t-7.5 -1.5t-4 -7h-14v65h14zM666 40q1 -1 2.5 -3t2.5 -4t1 -4q0 -3 -11 -12q-22 -18 -43 -19q-34 -2 -56 9q-32 17 -44.5 55t3.5 71q11 25 32.5 39.5t48.5 15.5q17 1 28 -3 q2 -1 6 -2.5t7 -2.5t6 -1q5 1 6 9h14v-64h-14q0 23 -19 37t-41 8q-21 -6 -35 -31t-11 -55t22 -51q18 -20 48.5 -17t45.5 25h1zM192 601q-24 -3 -38 -31q-22 -43 -2 -89q7 -17 20.5 -27.5t30.5 -8.5q24 3 38 32q22 44 2 89q-7 17 -20.5 27t-30.5 8zM188 619q13 2 31 -2 q34 -6 52 -35t17 -61t-21 -60t-53 -33q-27 -4 -49 4q-31 11 -46 41.5t-10.5 64.5t27.5 57q18 19 52 24z" />
<glyph d="M359 295h43l17 -1l6 -12l13 -27l50 -104l51 105l13 27l6 11l14 1h36v-10q-20 0 -25 -13q-2 -4 -2 -10t0.5 -13.5t0.5 -10.5v-70q0 -3 -0.5 -12t-0.5 -15.5t2 -12.5q5 -13 25 -13v-9h-88v9q18 0 24 9q2 3 2.5 7.5t0.5 8.5v8v8v69h-1q-1 -5 -18 -38l-28 -59q-1 -2 -3 -5.5 t-3 -5.5l-2 -5q-2 -3 -4 -4t-4.5 -2t-5.5 -1t-7 1q-3 1 -6 6t-5.5 12.5t-3.5 9.5q-5 10 -13 27.5t-12 25.5q-16 32 -17 37h-1v-67q0 -27 3 -32q5 -10 23 -10v-9h-74v9q21 0 25 13q2 4 2 9.5t-0.5 13t-0.5 10.5v74q0 3 1 11t0.5 14.5t-2.5 10.5q-7 14 -31 14v10zM286 490v-45 q0 -16 1 -17q3 -3 23 -3q26 0 38 11q10 10 8 26t-14 23q-9 5 -21 7q-8 1 -12 0l-11 -1q-8 -1 -12 -1zM224 510h80q47 0 67 -13q21 -13 20.5 -40t-21.5 -40q-9 -5 -21 -7.5t-19 -3t-24 0t-20 0.5v-49q0 -19 8 -25q4 -3 18 -2v-10h-88v10q20 0 25 13q2 5 2.5 11.5t-0.5 15.5 t-1 12v71q0 2 0.5 10t0.5 13.5t-2 9.5q-5 13 -25 13v10z" />
<glyph d="M666 40q1 -1 2.5 -3t2.5 -4t1 -4q0 -3 -11 -12q-22 -18 -43 -19q-34 -2 -56 9q-32 17 -44.5 55t3.5 71q11 25 32.5 39.5t48.5 15.5q17 1 28 -3q2 -1 6 -2.5t7 -2.5t6 -1q5 1 6 9h14v-64h-14q0 23 -19 37t-41 8q-21 -6 -35 -31t-11 -55t22 -51q18 -20 48.5 -17t45.5 25h1z M374 319q26 -3 33 -2q11 1 20 6q14 7 17 23.5t-9 27.5q-11 11 -37 10q-21 0 -24 -3q-1 -1 0 -17v-45zM312 403q84 0 97 -1q34 -2 49 -12q21 -13 21.5 -40t-20.5 -40q-7 -4 -15.5 -7t-18 -3.5t-16.5 -1t-19 0t-16 0.5v-49q0 -19 9 -25q3 -2 17 -2v-10h-88v10q20 0 25 13 q2 5 2.5 11.5t-0.5 15.5t-1 12v71q0 2 0.5 10.5t0.5 13.5t-2 10q-3 8 -8.5 10t-16.5 2v11zM189 567l-24 -58h49l-23 58h-2zM89 438q12 0 20 6t11.5 12t9.5 20l41 98l13 33q4 11 7 11q4 3 8 1t6 -2t4.5 -4.5t3.5 -6t3 -7t3 -6.5l39 -94l13 -31q4 -9 2 -11q9 -18 34 -18v-11 h-89v10q10 0 12 1q4 1 6 4t1 7.5t-2 7.5l-3 9l-3 6q0 1 -2 5.5t-3 7t-3.5 4.5t-5.5 2h-40q-14 0 -15 -1q-1 0 -6 -12q-1 -1 -3.5 -6.5t-3.5 -8.5t-2.5 -8t-0.5 -9t4 -6q2 -2 16 -2v-11h-75v10z" />
<glyph unicode="&#xa1;" horiz-adv-x="197" d="M135 328q19 -9 18 -11q-8 -8 -24 -29q-24 -31 -26 -36l-30 38l-24 25q28 15 44 54q5 -1 23 -20t19 -21zM89 200q9 -2 13.5 -9t6 -18t1 -20t-1.5 -21.5t-1 -17.5q0 -22 -1.5 -66t-2 -70t6 -62.5t20.5 -64.5l-101 -37l36 208z" />
<glyph unicode="&#xa2;" horiz-adv-x="346" d="M155 198l73 246q-23 6 -53 3.5t-48 -19.5q-28 -25 -34 -73.5t11 -94.5t51 -62zM267 585l22 -8l-29 -90q2 -1 12.5 -2.5t17 -3t15.5 -4.5t15 -7.5t8 -8.5q6 -11 -5.5 -27t-22.5 -18q-5 -1 -10.5 0t-11.5 4l-12 5q-4 2 -11.5 6.5t-8.5 5.5l-76 -254q32 -9 56.5 -10 t43.5 3.5t56 17.5q0 -6 -2.5 -11.5t-5 -9t-9.5 -8t-9 -5.5t-11 -6q-56 -30 -134 -13l-36 -131l-22 4l40 133q-47 9 -72 48t-25 90q0 36 16 76t42.5 72t65 49.5t78.5 7.5z" />
<glyph unicode="&#xa3;" horiz-adv-x="453" d="M25 -8l11 -7zM32 310l4 -4zM134 306v12q-1 37 0 58.5t7.5 53.5t18.5 54q36 63 106 88.5t135 -2.5q3 -1 16.5 -2t17.5 -4q12 -14 -52 -59q-23 28 -55.5 41t-65 2t-48.5 -47q-7 -16 -12 -34t-6.5 -41t-1.5 -38t0.5 -41.5t0.5 -36.5h13q127 0 186 15q-1 -9 -3.5 -15.5 t-8.5 -9t-10 -3.5t-14 -2t-15 -2q-39 -5 -152 -4v-23v-24v-21q0 -16 -1 -23l-4 -21q-3 -13 -6.5 -23.5t-9.5 -20.5q-8 -18 -30 -45l-28 -34q23 0 103.5 -10.5t120.5 -2.5q13 3 27.5 18t28 25.5t27.5 5.5q-38 -81 -80 -98q-9 -3 -20 -3t-19 1l-21 4q-13 3 -19 4q-57 9 -112 8 q-10 0 -57 -11t-66 -3q11 16 45.5 52t47.5 60q9 18 14.5 44.5t6 41.5t-0.5 51.5t-1 43.5h-112q5 8 13.5 13t22.5 7t25 2t26.5 -0.5t21.5 -0.5z" />
<glyph unicode="&#xa4;" horiz-adv-x="663" d="M307 486q-37 -6 -68 -27q-36 -23 -55 -58.5t-20.5 -72t12.5 -73t39 -63t62.5 -40t80.5 -7.5q35 6 62.5 22t43.5 38.5t26 50.5t8.5 56.5t-9 56.5t-24 51t-39 40t-53.5 24.5t-66 1.5zM137 541l62 -52l54 26l94 15l79 -22l40 -19l58 52h3l30 -32q-2 -1 -10 -6l-11 -9 l-11 -10q-7 -6 -11 -10.5t-8 -10t-5 -10.5q-1 -7 5 -17l14 -22q8 -13 10 -17q19 -43 15 -101q-2 -41 -24 -80q-1 -3 -7.5 -11t-10 -14.5t-2.5 -11.5q4 -20 56 -57l-30 -32h-3q-3 3 -15.5 17.5t-23 23.5t-19.5 11q-6 1 -12 -2t-14 -8.5t-10 -6.5q-32 -18 -68 -23 q-56 -8 -106 13q-5 2 -16.5 9.5t-22.5 12.5t-18 5q-9 -2 -19.5 -11t-23.5 -24t-15 -17h-4l-29 32q1 1 8 6l10 6l10 8q6 5 10 9l8 9q4 5 6.5 9.5t3.5 8.5q1 6 -4.5 16t-13 21t-9.5 15q-21 47 -18 105q4 42 25 79q1 3 7.5 11t10 15t2.5 12q-2 8 -12 19t-25 22.5t-19 15.5v3z " />
<glyph unicode="&#xa5;" horiz-adv-x="616" d="M108 581v-4h76zM441 581v-4h105zM18 581h217v-18q-1 0 -10 -0.5t-12.5 -1t-10.5 -2t-11 -4.5t-6 -7q-3 -6 0.5 -16.5t8 -18.5t12.5 -19.5t10 -13.5q19 -32 59 -92.5t57 -88.5q13 26 28 52l39 63q23 38 30 51q1 1 10 15t12.5 20.5t7 17.5t2.5 19q-2 9 -8 15.5t-16.5 9 t-17 3t-18.5 1.5q4 14 19 15t28 -3q12 -4 70.5 -0.5t70.5 3.5v-18q-43 -2 -72.5 -26t-57.5 -68q-23 -36 -59.5 -106t-52.5 -97h199v-25h-199v-79h199v-25h-199q0 -6 -1 -25.5t-1.5 -31.5t3.5 -27t11 -23q8 -7 35.5 -14t31.5 -21l-223 -3v14q13 0 24 3t18.5 6t13.5 11l10 13 q4 5 6.5 17t3.5 18t2 20.5t1 19.5v23h-191v25h191v79h-191v25h187q-54 114 -148 228q-19 23 -31 35.5t-33.5 24t-44.5 12.5z" />
<glyph unicode="&#xa6;" horiz-adv-x="491" d="M224 162h43v-326h-43v326zM224 624h43v-325h-43v325z" />
<glyph unicode="&#xa7;" horiz-adv-x="405" d="M278 14q20 15 29 38.5t8 47t-11 47.5q-14 41 -42 80t-69.5 86t-58.5 69q-33 -16 -43.5 -57t4.5 -72q16 -40 48 -81.5t74 -86.5t61 -71zM220 619q16 1 37.5 1t38.5 -11t13 -32q-3 -12 -9.5 -18t-16.5 -6t-18 2t-19 6q-24 7 -40.5 9.5t-35 -5t-30.5 -28.5q-10 -16 -9 -32 q0 -11 4 -22t13 -24.5t13 -19t17.5 -22t14.5 -16.5l41 -47l44 -52q17 -20 36.5 -50t30.5 -58q29 -75 -6 -140q-3 -5 -22 -27.5t-19 -34.5q0 -13 11.5 -41t12.5 -42q1 -58 -46.5 -109t-105.5 -56q-18 -2 -43 1.5t-47 17.5q-22 13 -16 33q6 22 25.5 27.5t37.5 -6.5 q105 -63 138 19q8 20 10 40q0 25 -12 52.5t-25.5 44.5t-34.5 41q-7 7 -38.5 41.5t-44.5 50.5t-32.5 44.5t-29.5 54.5q-29 73 12 141q4 6 14.5 17.5t18 22t7.5 18.5q-1 10 -8.5 31.5t-7.5 33.5q0 54 37 98t89 52z" />
<glyph unicode="&#xa8;" horiz-adv-x="308" d="M251 469q16 -7 15 -8q-7 -7 -20 -23q-19 -25 -21 -29l-24 30l-19 20q22 12 35 43q4 -1 18.5 -16t15.5 -17zM111 469q16 -7 15 -8q-7 -7 -20 -23q-19 -25 -21 -29l-24 30l-19 20q22 12 35 43q4 -1 18.5 -16t15.5 -17z" />
<glyph unicode="&#xa9;" horiz-adv-x="772" d="M579 211q-29 -45 -75 -71q-64 -38 -146 -28.5t-136 62.5q-65 65 -62.5 162t70.5 160q40 36 93 52q63 19 126 8q7 -2 29.5 -9t33.5 -8q10 0 24 10.5t24 10.5l8 -137q-13 1 -21.5 11.5t-16.5 27.5t-15 23q-47 53 -118 53q-51 -1 -88 -31t-53.5 -74t-16 -95t18 -94.5 t55.5 -73t88 -29.5q41 -1 82 16q48 20 74 65zM352 655q-86 -11 -148 -56q-54 -37 -87 -89.5t-43 -109t0 -115.5t38 -109.5t76 -90t108 -58.5q59 -19 123 -12q84 9 145 51q55 36 90 90.5t46 112.5t1 118t-38.5 111.5t-79.5 91.5t-116 56q-61 17 -115 9zM352 684q54 8 119 -8 q70 -17 125.5 -58.5t87.5 -96.5t44.5 -121.5t2.5 -129.5t-46 -122.5t-95 -99.5q-72 -50 -171 -62q-51 -7 -115 7q-68 15 -123 55.5t-87 94.5t-46 118.5t-6 126.5t41 121.5t88 102.5q74 58 181 72z" />
<glyph unicode="&#xaa;" horiz-adv-x="222" d="M141 465q-31 0 -40 -2q-16 -4 -21 -6q-34 -18 -16 -41q16 -18 43 -15q19 3 28 22q5 10 6 42zM32 530q1 28 27.5 47t58.5 17.5t48 -24.5q14 -19 14 -49.5t-5 -52.5t5 -50q2 -4 4 -6l5 -4q2 -1 5 -1h6q2 0 6 1.5t6 2t6.5 2t5.5 1.5q-6 -17 -23 -26.5t-35.5 -6t-24.5 22.5 q-5 -2 -17 -7.5t-18 -7.5l-18 -7q-13 -4 -18.5 -3.5t-18.5 0.5q-22 5 -28.5 31.5t8.5 42.5q25 27 110 34q0 4 0.5 18t0.5 20.5t-3.5 16t-9.5 17.5q-14 16 -34.5 12.5t-18.5 -26.5z" />
<glyph unicode="&#xab;" horiz-adv-x="423" d="M389 349l2 -1zM394 -5q-5 1 -8.5 2t-6.5 2.5t-7 4t-6 4.5l-6 6l-6 6q-1 1 -5 6t-5 5l-89 99q-1 1 -12.5 11.5t-17 18.5t-3.5 17q3 14 18 31t37 36.5t27 25.5q3 4 17.5 21.5t23.5 27t23 19t26 8.5l-63 -123l-24 -54l24 -51zM206 -5q-6 1 -10.5 3t-9.5 5l-7 5q-3 2 -8 7.5 t-7 7.5t-7 8.5t-7 7.5q-30 35 -82 87q-1 2 -7 8l-10 8q-4 4 -8.5 9.5t-7 11t-2.5 10.5q0 4 2.5 8.5t5 7t7.5 7t6 6.5q43 44 60 64q4 4 14 17.5t18 22.5l19 20q11 11 21.5 16t19.5 4l-64 -126l-23 -51l27 -58z" />
<glyph unicode="&#xac;" horiz-adv-x="616" d="M47 397h520v-279h-43v235h-477v44z" />
<glyph unicode="&#xad;" horiz-adv-x="289" d="M32 198h224v-51h-224v51z" />
<glyph unicode="&#xae;" horiz-adv-x="752" d="M300 335q43 0 72 7q36 10 53.5 41t9 66t-40.5 54q-11 6 -28 10.5t-35.5 3.5t-27.5 -11q-4 -5 -4.5 -13t0.5 -20.5t1 -14.5v-123zM188 537q19 0 66 3t78 3.5t69.5 -6t64.5 -21.5q36 -21 47 -52t-1 -59.5t-39.5 -52.5t-60.5 -31l46 -64q31 -43 46 -66q1 -1 5 -7.5t5 -8.5 l6 -7l6 -8q1 -2 5.5 -6t6.5 -6t6.5 -5t8.5 -4.5t8.5 -3t9.5 -2.5v-15q-5 0 -28.5 -1.5t-39.5 -0.5t-26 8q-18 13 -36 36.5t-38.5 55.5t-28.5 43l-11 15q-8 10 -10 13t-9 10t-12 9.5t-13.5 5t-18.5 2.5q0 -11 -1.5 -34t-2.5 -40t1 -38.5t8 -35t19.5 -23.5t33.5 -10v-15h-178 v15q15 0 25 5t15 11.5t7.5 18t3 20.5t0.5 25v227v5q0 14 -0.5 21.5t-2 18.5t-6.5 17t-13 11t-21 7v17zM343 637q-83 -11 -144 -53q-53 -36 -85.5 -87.5t-42 -106.5t0 -112.5t37 -106.5t74 -88t106.5 -57q57 -18 119 -11q81 9 141 50q54 35 88 87.5t44.5 109t0.5 115.5 t-37.5 109t-77 88.5t-112.5 54.5q-59 15 -112 8zM343 666q53 7 116 -7q68 -17 122 -57.5t85 -94.5t43.5 -118t2.5 -125.5t-45 -119.5t-93 -98q-70 -49 -166 -60q-50 -6 -112 8q-67 15 -120 54t-84.5 91t-45 115t-5.5 123.5t40 118.5q31 58 85 100q72 56 177 70z" />
<glyph unicode="&#xaf;" horiz-adv-x="308" d="M29 484h253v-33h-253v33z" />
<glyph unicode="&#xb0;" horiz-adv-x="405" d="M181 550q-28 -5 -48 -21t-28 -37.5t-9.5 -45.5t7.5 -46.5t24 -40t39 -25.5t52 -2q28 5 49 21t29 37t9.5 45.5t-7.5 46.5t-24 40t-40 26t-53 2zM179 591q38 8 71.5 -3t54 -35t33.5 -55t11 -64t-13 -62.5t-39 -51.5t-67 -29q-40 -7 -74 4t-55 34t-34 54t-11 64.5t13.5 63 t40 51.5t69.5 29z" />
<glyph unicode="&#xb1;" horiz-adv-x="616" d="M51 43h516v-44h-516v44zM286 624h42v-216h239v-44h-239v-213h-42v213h-239v44h239v216z" />
<glyph unicode="&#xb2;" horiz-adv-x="289" d="M40 534q49 38 83 42q49 6 85.5 -21t22.5 -75q-6 -24 -26 -49.5t-38 -41.5t-50 -41.5t-41 -33.5q11 0 32.5 -1t34 -1.5t31 1t31 7t26 15.5t22.5 26l22 -11l-56 -81l-49 9l-155 -4l-4 4q6 11 15 20t23 20.5t19 16.5q67 63 96 105q41 60 -1 92q-30 22 -69 8q-6 -2 -15 -7.5 t-14.5 -8.5t-12.5 -1t-12 11z" />
<glyph unicode="&#xb3;" horiz-adv-x="289" d="M51 545l15 9l16 9q8 4 15 7q18 6 42.5 6t46 -7t32.5 -24.5t3 -43.5q-4 -12 -19.5 -30t-17.5 -20q29 -13 44 -30q29 -31 22.5 -59.5t-31 -49.5t-59 -31.5t-63.5 -4.5q-22 4 -44 14.5t-24 26.5q0 6 3.5 14t10 16.5t8.5 13.5l21 -11q-6 -26 33 -45q23 -10 52 -3t42.5 26.5 t-1.5 49.5q-6 13 -19.5 24.5t-26.5 17.5q-9 3 -15.5 1.5t-13 0.5t-11.5 11q56 31 63 65q6 25 -6 37.5t-32 12.5t-39.5 -6t-32.5 -15h-4z" />
<glyph unicode="&#xb4;" horiz-adv-x="256" d="M73 374q-2 -4 -2 -7q0 -13 13 -13q10 0 14 10l57 93q2 2 2 5q0 9 -14 16q-9 3 -15 3q-9 0 -10 -6z" />
<glyph unicode="&#xb5;" horiz-adv-x="468" d="M51 346h61v-184v-17v-21q0 -6 1.5 -17.5t4.5 -19.5t8 -16q19 -29 55.5 -30.5t70 17.5t48.5 46q5 9 5.5 21t-1 29.5t-1.5 22.5v169h62v-242q2 -68 33 -73q14 -3 22.5 5t12 20t11.5 22q6 11 18 12q-5 -60 -33 -86q-31 -25 -58 -20.5t-46 30t-22 57.5q-26 -26 -44.5 -41 t-48 -28.5t-58.5 -12.5q-29 0 -50.5 14t-25.5 40h-4q0 -89 6 -120q0 -3 8.5 -36t6.5 -51q-3 -24 -24.5 -32.5t-37.5 11.5q-8 12 -8 33.5t5 40.5l11 43q6 24 7 35q6 56 7 116t-0.5 146t-1.5 117z" />
<glyph unicode="&#xb6;" horiz-adv-x="443" d="M250 -55l6 477q-20 -5 -34.5 -16t-22 -28.5t-10.5 -32.5t-6 -39q-4 -23 -5 -52t-1 -48v-56v-49v-13v-12q0 -4 0.5 -13t1 -14t0.5 -12.5t1 -12.5l4 -12q1 -6 4 -12t5 -11q14 -26 57 -44zM362 -84q-1 -6 -4 -11t-7.5 -7t-8.5 -2.5t-11 0t-12 1.5t-12 3.5t-11 2.5 q-106 23 -161 89q-33 42 -59.5 93t-28.5 95q-3 58 43 132t98 108q82 53 253 60l-9 -24l-45 -6l-105 -17l-7 -340l-4 -159z" />
<glyph unicode="&#xb7;" horiz-adv-x="163" d="M117 291q19 -9 18 -11q-8 -8 -24 -29q-24 -31 -26 -36l-30 38l-24 25q28 15 44 54q5 -1 23 -20t19 -21z" />
<glyph unicode="&#xb8;" horiz-adv-x="308" d="M116 -73l3 -4zM119 -73q34 82 76 83l-25 -43q30 -13 48 -35.5t15.5 -50t-30.5 -49.5q-43 -36 -127 -36v23q63 0 93 27q17 14 17.5 32t-17.5 32q-6 5 -14.5 7.5t-19.5 5t-16 4.5z" />
<glyph unicode="&#xb9;" horiz-adv-x="289" d="M59 278l1 -1zM83 278v-4h105zM61 566q50 0 113 9q14 5 27.5 3.5t18.5 -15.5q-18 0 -30 -10t-18 -25.5t-8 -38.5t-1 -41t2 -41t1 -32v-13v-16q0 -7 0.5 -15.5t3 -15t6.5 -11.5q11 -12 52 -12v-18q-17 0 -60 2t-67 2q-3 0 -13 -1.5t-14.5 -1t-9 4t-7.5 12.5q18 0 30.5 6 t19 18t10 25t4.5 31t0.5 32.5t-1.5 33t-1 27.5q0 3 1.5 23t0 32.5t-7.5 19.5q-3 4 -7 6.5t-8 3.5t-10 1.5t-8 0.5h-10h-9v14z" />
<glyph unicode="&#xba;" horiz-adv-x="289" d="M119 572q-27 -6 -40 -28t-10.5 -48.5t13 -51t33 -38t48.5 -7.5q28 6 41.5 28.5t12 48.5t-12.5 50.5t-34.5 38t-50.5 7.5zM127 590q70 11 109 -42q32 -46 16 -98q-18 -56 -86 -66q-31 -5 -62.5 4t-50.5 31q-28 35 -25 71t31.5 65t67.5 35z" />
<glyph unicode="&#xbb;" horiz-adv-x="423" d="M216 350q9 -3 19 -9.5t14.5 -10.5t16.5 -16q12 -13 12 -15l116 -126v-4l-116 -123l-62 -51l65 123l24 52l-27 57zM29 350q9 -3 18.5 -9.5t14.5 -10.5t16 -16.5t12 -14.5l116 -126v-4q-63 -64 -114 -123q-2 -3 -10 -12l-12 -14q-4 -4 -11.5 -10.5t-14.5 -10t-15 -4.5 l64 127l23 51l-24 50z" />
<glyph unicode="&#xbc;" horiz-adv-x="636" d="M477 230l-98 -115h98v115zM57 566l153 15l3 -15q-17 -5 -28 -17t-16 -26t-7.5 -35.5t-2 -37t2 -38.5t1.5 -34q0 -2 -0.5 -16.5t-0.5 -22.5t2.5 -18.5t7.5 -16.5q11 -12 52 -12v-18h-167l-2 18q17 0 28.5 6t18 18t10.5 25t4.5 31.5t0.5 32t-0.5 33t-0.5 27.5q0 3 1 23 t0 32.5t-8 19.5q-3 4 -7 6.5t-7 3.5t-9.5 1.5t-9.5 0.5h-10h-9v14zM213 566l3 -3zM328 90q4 8 9.5 16.5t10.5 14t14 13.5l13 13q77 88 93 109q3 3 13 17t14.5 18.5t14.5 10.5t21 8l-4 -195l70 11q-6 -20 -15 -28.5t-22 -8t-33 0.5v-14v-14q0 -4 1 -12.5t4 -13.5l5 -10 q3 -5 9 -8t14 -4v-15l-134 -4v19q15 0 25 4t15 9.5t7.5 17t3 20.5t0.5 25h-149zM116 -37l96 163l181 328l57 112l28 47l42 11q-35 -67 -133.5 -239.5t-146.5 -269.5q-5 -8 -16 -34t-20 -43t-22.5 -36.5t-30 -29.5t-35.5 -9z" />
<glyph unicode="&#xbd;" horiz-adv-x="636" d="M61 566q54 0 116 10q12 3 24 2.5t15 -12.5q-17 -5 -28 -17t-16.5 -25.5t-7 -34t-1 -36t1.5 -38t1 -33.5v-18v-23q0 -8 2.5 -19.5t7.5 -17.5q11 -12 52 -12v-18q-53 6 -127 4q-3 0 -13 -1.5t-14.5 -1t-9 4t-7.5 12.5h19q6 0 15 4t14 10q6 8 8.5 18t2.5 24.5t1 19.5 q10 88 -1 181l-55 3v14zM216 566l4 -3zM383 256q49 37 83 42q49 7 85.5 -20.5t22.5 -75.5q-8 -31 -33 -59.5t-65.5 -62t-52.5 -45.5q11 0 31.5 -1t33.5 -1t31 2t30 6.5t25 15t23 25.5l21 -11q-2 -3 -13.5 -25t-21 -35.5t-20.5 -18.5q-8 -4 -26.5 1.5t-23.5 5.5 q-14 0 -50.5 -2.5t-65 -2.5t-46.5 9v3q14 14 50 46t60.5 57.5t42.5 52.5q43 61 2 91q-30 22 -68 9q-6 -2 -16 -8l-14 -8q-6 -3 -12.5 -1.5t-12.5 11.5zM116 -37l97 167l180 324l57 112l28 47l42 11l-134 -243q-97 -171 -145 -266q-5 -8 -15.5 -34t-19.5 -43.5t-23 -37 t-31 -29t-36 -8.5z" />
<glyph unicode="&#xbe;" horiz-adv-x="636" d="M477 230l-98 -115h98v115zM47 545l25 13l22 10q14 6 24.5 7.5t23.5 1.5q14 1 28 -3q26 -6 41 -26.5t5 -46.5q-3 -8 -8.5 -17t-14 -18t-13.5 -15q27 -10 46 -29q29 -31 21.5 -60t-32 -50t-59 -31.5t-62.5 -4.5q-23 4 -44.5 14.5t-24.5 26.5q-1 6 2.5 14t11 18t8.5 12 l21 -11q-6 -26 33 -45q24 -10 53 -3t42 26.5t-1 49.5q-7 13 -20.5 24.5t-26.5 17.5q-9 3 -15.5 1.5t-13 0.5t-11.5 11q56 31 63 65q6 25 -5.5 37.5t-31.5 12.5t-40 -6t-33 -15h-4zM328 90q4 8 9.5 16.5t10.5 14t14 13.5l13 13q77 88 93 109q3 3 13 17t14.5 18.5t14.5 10.5 t21 8l-4 -195l70 11q-6 -20 -15 -28.5t-22 -8t-33 0.5v-14v-14q0 -4 1 -12.5t4 -13.5l5 -10q3 -5 9 -8t14 -4v-15l-134 -4v19q15 0 25 4t15 9.5t7.5 17t3 20.5t0.5 25h-149zM116 -37l96 163l181 328l57 112l28 47l42 11q-35 -67 -133.5 -239.5t-146.5 -269.5q-5 -8 -16 -34 t-20 -43t-22.5 -36.5t-30 -29.5t-35.5 -9z" />
<glyph unicode="&#xbf;" horiz-adv-x="259" d="M185 328q19 -9 18 -11q-8 -8 -24 -29q-24 -31 -26 -36l-30 38l-24 25q28 15 44 54q5 -1 23 -20t19 -21zM144 209q14 -10 14 -51t-10 -56q-8 -12 -40.5 -19.5t-42.5 -25.5q-23 -43 0 -87t69 -58q6 -1 25 -2.5t33.5 -4.5t22.5 -10q5 -5 5.5 -17.5t-1.5 -25.5t-4 -28t-2 -20 q-11 2 -23 19t-24 21q-7 3 -24 7t-29 8q-12 3 -22 11q-33 23 -48 62.5t-10.5 81t24.5 76.5q10 16 35 34t33 28q8 9 13 31t6 26z" />
<glyph unicode="&#xc6;" horiz-adv-x="930" d="M256 244l219 -4q0 18 1 78t0.5 90t-5.5 76.5t-15 82.5q-13 -7 -23 -20t-23 -37.5t-15 -27.5q-14 -23 -47 -72.5t-56.5 -89t-35.5 -76.5zM364 608l508 -8q-2 -105 -33 -115q0 5 1.5 16.5t1.5 20t-4 16.5q-5 11 -15 19.5t-25.5 13t-28 7t-34 2.5t-31.5 -0.5t-31 -2.5 t-23 -2q-6 -1 -22 -1t-26.5 -0.5t-23.5 -4t-19 -9.5q-6 -5 -9.5 -13.5t-4 -17.5t-0.5 -19v-17q-3 -82 -3 -167q86 -4 170 -4q3 0 18 -0.5t21.5 0t16.5 2.5q11 2 18 8q15 10 23 53h18v-174h-18q-3 51 -22 68q-20 17 -78 17h-167q0 -137 3 -186q1 -10 0 -21t1 -24t7 -20 q10 -17 70 -17q8 0 47 -1t54 -0.5t43 5t49 15.5q35 17 52 41q4 6 10.5 20.5t13.5 23t17 12.5q-5 -117 -40 -141q-4 -3 -9.5 -4t-9.5 -0.5t-12.5 2t-10.5 1.5q-9 1 -81 1q-64 0 -181 -5.5t-160 -6.5q2 13 25.5 26t29.5 27q8 17 11.5 41.5t4 38.5t0 47.5t-0.5 39.5 q-28 0 -83.5 2t-83.5 2h-14h-16q-6 0 -15 -0.5t-16.5 -3t-11.5 -6.5q-9 -7 -16.5 -17.5t-17 -29t-11.5 -21.5q-3 -6 -10 -19l-12 -19q-4 -7 -9.5 -19t-6 -20t1.5 -16.5t10 -15.5t21 -12q12 -5 31 -6v-15h-208v19q24 4 45 15.5t40.5 33t31 36t29.5 42.5q4 5 6 6 q158 229 263 428l-59 14v19z" />
<glyph unicode="&#xc7;" horiz-adv-x="555" d="M253 -86l3 -4zM256 -86q34 82 76 83l-25 -43q30 -13 48 -35.5t15.5 -50t-30.5 -49.5q-43 -36 -127 -36v23q63 0 93 27q17 14 17.5 32t-17.5 32q-6 5 -14.5 7.5t-19.5 5t-16 4.5zM348 606q59 0 138 -28q19 -7 35 -5q12 3 15 3q9 0 5 -8q-18 -41 -24 -102q-1 -8 -6 -8 q-11 0 -10 16q3 27 -6.5 42t-34.5 30q-20 12 -57.5 23.5t-69.5 11.5q-47 0 -65 -5q-60 -18 -104 -66q-37 -42 -53 -91t-16 -124q0 -66 17 -109q32 -81 100 -128t137 -47q64 0 111.5 33.5t59.5 81.5q2 8 10 5q9 -1 7 -9q-4 -14 -15 -49t-15 -56q-119 -27 -175 -27 q-130 0 -221.5 85.5t-91.5 211.5q0 74 19 125.5t61 97.5q57 59 157 84q46 12 92 12z" />
<glyph unicode="&#xd0;" horiz-adv-x="683" d="M152 314h167v-25h-167q0 -28 2 -85.5t2 -85.5q0 -3 -1.5 -20t-0.5 -29.5t6 -18.5q21 -28 136 -28q123 0 195.5 82.5t72.5 206.5q0 111 -81.5 190.5t-192.5 79.5h-44q-15 0 -41.5 -6t-37.5 -18t-11 -72q0 -24 -2 -82t-2 -89zM97 3v-4h141q-17 8 -41.5 8.5t-57 -2 t-42.5 -2.5zM22 589q42 0 134.5 9t162.5 5.5t130 -26.5q64 -26 110.5 -75t66 -108.5t17 -120.5t-36 -119t-94.5 -96q-33 -22 -71.5 -35t-74 -16t-76 -4.5t-78.5 0.5q-35 1 -101 -1.5t-96 -2.5v19q42 0 56 19q6 7 9 18t4 18.5t1.5 23t0.5 17.5q4 48 3 175h-70v25h70v44v50 q0 16 -1.5 41.5t-2.5 47.5q-5 38 -17 56t-46 18v18z" />
<glyph unicode="&#xd7;" horiz-adv-x="463" d="M78 372q18 -12 36.5 -29.5t40.5 -42t32 -33.5q3 -3 12.5 -14t17 -18.5t14.5 -8.5q3 -1 9 1.5t11 6.5t8.5 8t9.5 9t6 8q11 11 36.5 33.5t43 42t30.5 37.5l26 -21v-4l-114 -111q-1 -1 -12.5 -11t-17.5 -17t-6 -12.5t5.5 -12.5t10.5 -12t14.5 -12t10.5 -9l34 -32 q19 -16 42 -40q22 -25 33 -36v-1l-27 -23l-149 152h-4q-17 -25 -42 -50t-59.5 -55.5t-47.5 -46.5h-4l-21 23v1l112 114l34 39l-29 35l-87 84l-26 33z" />
<glyph unicode="&#xd8;" horiz-adv-x="684" d="M163 133q18 8 37.5 26.5t42 43.5t32.5 35l140 137q6 6 24 21l27 24q9 8 21.5 22t22.5 27q-12 8 -37.5 28t-39.5 29t-37.5 19t-48.5 14q-39 5 -83 -8q-56 -15 -93 -50t-50 -79.5t-11.5 -96t16 -100.5t37.5 -92zM527 448q-22 -11 -45 -33.5t-48 -51t-40 -41.5 q-25 -21 -50 -45l-58 -60l-47 -48q-1 -1 -17 -14.5t-23.5 -24t-7.5 -19.5q1 -4 3.5 -8t5.5 -7.5t8 -7.5l7 -6q3 -3 9.5 -7.5t9.5 -6t9 -5.5t7 -5q55 -34 116.5 -37t117.5 31q50 31 74 80.5t23.5 105t-15 109t-39.5 101.5zM633 599l21 -18v-4l-87 -79v-4q56 -42 73.5 -117.5 t-0.5 -150t-60 -125.5q-52 -64 -130 -92.5t-161 -16.5q-45 6 -86.5 25t-65.5 51h-3l-79 -83h-4q-25 31 68 97v4q-36 30 -63 105q-30 87 -5.5 175.5t93.5 148.5q40 33 94.5 53.5t110.5 24t110.5 -17t89.5 -63.5h4z" />
<glyph unicode="&#xde;" horiz-adv-x="491" d="M155 141q8 -1 31 -3.5t34 -3.5t28.5 0t33.5 5q48 12 77.5 51.5t34 86t-15.5 91.5q-22 46 -64 70q-46 26 -111 24q-36 -2 -44 -13q-6 -8 -8 -23t-1 -40l2 -25q0 -37 1.5 -110.5t1.5 -109.5zM18 581h206v-18q-37 -4 -52.5 -24t-16.5 -59q68 12 141.5 -5.5t118.5 -63.5 q37 -38 46 -85t-7.5 -86.5t-53.5 -71.5q-38 -32 -86 -44q-77 -20 -159 -9q0 -53 18 -76.5t69 -24.5v-19h-210v15q10 2 18.5 5.5t14.5 7.5t11 11l7 10q3 4 5.5 13.5t3 13.5t1.5 15.5t1 15.5v17v18q0 18 -7 307q0 3 -0.5 16.5t-0.5 17t-1 16t-2.5 16t-3.5 13.5t-6 13.5t-9 10 t-11.5 9t-14.5 4.5q-10 2 -20 3v18z" />
<glyph unicode="&#xdf;" horiz-adv-x="453" d="M21 314q4 16 18 16.5t29 0.5t20 11q6 14 6 49.5t1 41.5q5 40 17.5 73.5t33 62.5t54 42.5t75.5 8.5q39 -6 68.5 -29.5t43 -56t10 -70.5t-24.5 -71l-10 -11q-5 -6 -9 -10t-11.5 -8.5t-11 -7t-13 -6t-12.5 -5t-14 -5.5t-13 -5q49 -11 85 -48t49 -82.5t0.5 -96t-51.5 -85.5 q-13 -11 -40.5 -23.5t-55 -12t-29.5 26.5q-2 18 9.5 23t28 -0.5t33 -8.5t25.5 2q25 20 29 60t-5 76t-25 64q-27 53 -71 75q-6 4 -24.5 8t-27.5 11t-9 22q87 0 120 47q17 23 20.5 56t-4.5 63.5t-28.5 54.5t-50.5 31q-24 5 -43.5 -3.5t-31 -27t-18 -38t-9.5 -42.5 q-27 -173 -10 -430q2 -16 10.5 -24.5t18 -11t19 -9t11.5 -17.5l-185 4v15q43 4 56 16q3 4 5 8t3.5 7.5t2.5 9.5t1 9t0.5 9.5t0.5 8.5q4 44 4 123q0 4 0.5 21t0.5 28t-3 23.5t-9 20.5q-6 7 -15.5 10t-23.5 4t-20 2z" />
<glyph unicode="&#xe0;" horiz-adv-x="344" d="M193 428q2 -4 2 -7q0 -13 -13 -13q-10 0 -14 10l-57 93q-2 2 -2 5q0 9 14 16q9 3 15 3q9 0 10 -6zM230 316q11 -10 21 -26q10 -19 12 -44q2 -38 1 -57q0 -12 -2.5 -44.5t-2.5 -49.5q0 -26 1 -39q0 -8 3 -16q2 -8 9 -14q7 -7 13 -8h6q1 0 7 3l20 6h2q2 0 3 -1l2 -1v-1 q1 -1 1 -2v-4v-3l-2 -2q-2 -2 -3 -2l-68 -24q-4 -2 -5 -2h-4q-1 0 -3 2q-6 3 -10 7q-9 9 -12 14q-5 8 -8 24q-33 -20 -43 -24q-23 -11 -47.5 -17t-45.5 -5q-9 0 -15 3q-9 4 -14 7q-6 6 -8 13q-2 5 -4 14q-3 15 -3 32q0 16 5 35q2 6 5 12q2 3 4 5q1 1 2.5 2t2.5 2 q29 16 65 26q31 9 73 15l22 3l2 52q2 26 0 39q-3 21 -15 36q-7 8 -20 17q-19 13 -30 15q-14 2 -28 -3q-11 -5 -19 -13q-6 -7 -5 -17q0 -10 1 -16l-47 -21l-2 8q-2 11 -2 16q0 8 5 16q5 9 21 18q21 13 41.5 21.5t50.5 14.5l19 3q6 0 19 -6q19 -10 29 -19zM96 19q9 -7 24 -7 q12 0 26 3q13 4 30 11q21 9 33 21q-2 30 -2 45q0 27 1 40q-8 2 -10 2q-10 1 -34 -1q-30 -5 -34 -6q-22 -7 -35 -19q-9 -9 -14 -29q-4 -15 -1 -32q1 -8 6 -15q6 -11 10 -13z" />
<glyph unicode="&#xe1;" horiz-adv-x="344" d="M143 428q-2 -4 -2 -7q0 -13 13 -13q10 0 14 10l57 93q2 2 2 5q0 9 -14 16q-9 3 -15 3q-9 0 -10 -6zM230 316q11 -10 21 -26q10 -19 12 -44q2 -38 1 -57q0 -12 -2.5 -44.5t-2.5 -49.5q0 -26 1 -39q0 -8 3 -16q2 -8 9 -14q7 -7 13 -8h6q1 0 7 3l20 6h2q2 0 3 -1l2 -1v-1 q1 -1 1 -2v-4v-3l-2 -2q-2 -2 -3 -2l-68 -24q-4 -2 -5 -2h-4q-1 0 -3 2q-6 3 -10 7q-9 9 -12 14q-5 8 -8 24q-33 -20 -43 -24q-23 -11 -47.5 -17t-45.5 -5q-9 0 -15 3q-9 4 -14 7q-6 6 -8 13q-2 5 -4 14q-3 15 -3 32q0 16 5 35q2 6 5 12q2 3 4 5q1 1 2.5 2t2.5 2 q29 16 65 26q31 9 73 15l22 3l2 52q2 26 0 39q-3 21 -15 36q-7 8 -20 17q-19 13 -30 15q-14 2 -28 -3q-11 -5 -19 -13q-6 -7 -5 -17q0 -10 1 -16l-47 -21l-2 8q-2 11 -2 16q0 8 5 16q5 9 21 18q21 13 41.5 21.5t50.5 14.5l19 3q6 0 19 -6q19 -10 29 -19zM96 19q9 -7 24 -7 q12 0 26 3q13 4 30 11q21 9 33 21q-2 30 -2 45q0 27 1 40q-8 2 -10 2q-10 1 -34 -1q-30 -5 -34 -6q-22 -7 -35 -19q-9 -9 -14 -29q-4 -15 -1 -32q1 -8 6 -15q6 -11 10 -13z" />
<glyph unicode="&#xe2;" horiz-adv-x="344" d="M69 408l16 34q9 19 17 31l19 34q12 22 18 32l13 20q4 6 14.5 12t24.5 4q7 -1 12.5 -6t8.5 -9t7.5 -13t6.5 -12l22 -38l27 -50q11 -20 20 -39q-21 1 -41 17.5t-44 45.5l-30 37q-16 -31 -49.5 -65t-61.5 -35zM230 316q11 -10 21 -26q10 -19 12 -44q2 -38 1 -57 q0 -12 -2.5 -44.5t-2.5 -49.5q0 -26 1 -39q0 -8 3 -16q2 -8 9 -14q7 -7 13 -8h6q1 0 7 3l20 6h2q2 0 3 -1l2 -1v-1q1 -1 1 -2v-4v-3l-2 -2q-2 -2 -3 -2l-68 -24q-4 -2 -5 -2h-4q-1 0 -3 2q-6 3 -10 7q-9 9 -12 14q-5 8 -8 24q-33 -20 -43 -24q-23 -11 -47.5 -17t-45.5 -5 q-9 0 -15 3q-9 4 -14 7q-6 6 -8 13q-2 5 -4 14q-3 15 -3 32q0 16 5 35q2 6 5 12q2 3 4 5q1 1 2.5 2t2.5 2q29 16 65 26q31 9 73 15l22 3l2 52q2 26 0 39q-3 21 -15 36q-7 8 -20 17q-19 13 -30 15q-14 2 -28 -3q-11 -5 -19 -13q-6 -7 -5 -17q0 -10 1 -16l-47 -21l-2 8 q-2 11 -2 16q0 8 5 16q5 9 21 18q21 13 41.5 21.5t50.5 14.5l19 3q6 0 19 -6q19 -10 29 -19zM96 19q9 -7 24 -7q12 0 26 3q13 4 30 11q21 9 33 21q-2 30 -2 45q0 27 1 40q-8 2 -10 2q-10 1 -34 -1q-30 -5 -34 -6q-22 -7 -35 -19q-9 -9 -14 -29q-4 -15 -1 -32q1 -8 6 -15 q6 -11 10 -13z" />
<glyph unicode="&#xe3;" horiz-adv-x="344" d="M51 408q1 23 9 45q9 23 21.5 34.5t25.5 13t31 -3.5t31 -12l32 -16l29 -14q24 -10 41.5 5t21.5 41h19q-1 -26 -9 -44q-9 -22 -21.5 -33.5t-26 -13.5t-32 2.5t-31.5 10.5l-33 16q-19 9 -30 13q-23 10 -40 -4.5t-19 -39.5h-19zM230 316q11 -10 21 -26q10 -19 12 -44 q2 -38 1 -57q0 -12 -2.5 -44.5t-2.5 -49.5q0 -26 1 -39q0 -8 3 -16q2 -8 9 -14q7 -7 13 -8h6q1 0 7 3l20 6h2q2 0 3 -1l2 -1v-1q1 -1 1 -2v-4v-3l-2 -2q-2 -2 -3 -2l-68 -24q-4 -2 -5 -2h-4q-1 0 -3 2q-6 3 -10 7q-9 9 -12 14q-5 8 -8 24q-33 -20 -43 -24q-23 -11 -47.5 -17 t-45.5 -5q-9 0 -15 3q-9 4 -14 7q-6 6 -8 13q-2 5 -4 14q-3 15 -3 32q0 16 5 35q2 6 5 12q2 3 4 5q1 1 2.5 2t2.5 2q29 16 65 26q31 9 73 15l22 3l2 52q2 26 0 39q-3 21 -15 36q-7 8 -20 17q-19 13 -30 15q-14 2 -28 -3q-11 -5 -19 -13q-6 -7 -5 -17q0 -10 1 -16l-47 -21 l-2 8q-2 11 -2 16q0 8 5 16q5 9 21 18q21 13 41.5 21.5t50.5 14.5l19 3q6 0 19 -6q19 -10 29 -19zM96 19q9 -7 24 -7q12 0 26 3q13 4 30 11q21 9 33 21q-2 30 -2 45q0 27 1 40q-8 2 -10 2q-10 1 -34 -1q-30 -5 -34 -6q-22 -7 -35 -19q-9 -9 -14 -29q-4 -15 -1 -32 q1 -8 6 -15q6 -11 10 -13z" />
<glyph unicode="&#xe4;" horiz-adv-x="344" d="M279 468q16 -7 15 -8q-7 -7 -20 -23q-19 -25 -21 -29l-24 30l-19 20q22 12 35 43q4 -1 18.5 -16t15.5 -17zM139 468q16 -7 15 -8q-7 -7 -20 -23q-19 -25 -21 -29l-24 30l-19 20q22 12 35 43q4 -1 18.5 -16t15.5 -17zM230 316q11 -10 21 -26q10 -19 12 -44q2 -38 1 -57 q0 -12 -2.5 -44.5t-2.5 -49.5q0 -26 1 -39q0 -8 3 -16q2 -8 9 -14q7 -7 13 -8h6q1 0 7 3l20 6h2q2 0 3 -1l2 -1v-1q1 -1 1 -2v-4v-3l-2 -2q-2 -2 -3 -2l-68 -24q-4 -2 -5 -2h-4q-1 0 -3 2q-6 3 -10 7q-9 9 -12 14q-5 8 -8 24q-33 -20 -43 -24q-23 -11 -47.5 -17t-45.5 -5 q-9 0 -15 3q-9 4 -14 7q-6 6 -8 13q-2 5 -4 14q-3 15 -3 32q0 16 5 35q2 6 5 12q2 3 4 5q1 1 2.5 2t2.5 2q29 16 65 26q31 9 73 15l22 3l2 52q2 26 0 39q-3 21 -15 36q-7 8 -20 17q-19 13 -30 15q-14 2 -28 -3q-11 -5 -19 -13q-6 -7 -5 -17q0 -10 1 -16l-47 -21l-2 8 q-2 11 -2 16q0 8 5 16q5 9 21 18q21 13 41.5 21.5t50.5 14.5l19 3q6 0 19 -6q19 -10 29 -19zM96 19q9 -7 24 -7q12 0 26 3q13 4 30 11q21 9 33 21q-2 30 -2 45q0 27 1 40q-8 2 -10 2q-10 1 -34 -1q-30 -5 -34 -6q-22 -7 -35 -19q-9 -9 -14 -29q-4 -15 -1 -32q1 -8 6 -15 q6 -11 10 -13z" />
<glyph unicode="&#xe5;" horiz-adv-x="344" d="M162.5 534.5q-29.5 -7.5 -35 -35.5t12.5 -50q19 -23 49 -15q29 8 35 36t-13 50t-48.5 14.5zM159 556.5q26 6.5 47.5 -4.5t30.5 -31t9.5 -42.5t-14 -41.5t-40.5 -25t-47.5 5t-30.5 31.5t-9.5 42t14 40.5t40.5 25.5zM230 316q11 -10 21 -26q10 -19 12 -44q2 -38 1 -57 q0 -12 -2.5 -44.5t-2.5 -49.5q0 -26 1 -39q0 -8 3 -16q2 -8 9 -14q7 -7 13 -8h6q1 0 7 3l20 6h2q2 0 3 -1l2 -1v-1q1 -1 1 -2v-4v-3l-2 -2q-2 -2 -3 -2l-68 -24q-4 -2 -5 -2h-4q-1 0 -3 2q-6 3 -10 7q-9 9 -12 14q-5 8 -8 24q-33 -20 -43 -24q-23 -11 -47.5 -17t-45.5 -5 q-9 0 -15 3q-9 4 -14 7q-6 6 -8 13q-2 5 -4 14q-3 15 -3 32q0 16 5 35q2 6 5 12q2 3 4 5q1 1 2.5 2t2.5 2q29 16 65 26q31 9 73 15l22 3l2 52q2 26 0 39q-3 21 -15 36q-7 8 -20 17q-19 13 -30 15q-14 2 -28 -3q-11 -5 -19 -13q-6 -7 -5 -17q0 -10 1 -16l-47 -21l-2 8 q-2 11 -2 16q0 8 5 16q5 9 21 18q21 13 41.5 21.5t50.5 14.5l19 3q6 0 19 -6q19 -10 29 -19zM96 19q9 -7 24 -7q12 0 26 3q13 4 30 11q21 9 33 21q-2 30 -2 45q0 27 1 40q-8 2 -10 2q-10 1 -34 -1q-30 -5 -34 -6q-22 -7 -35 -19q-9 -9 -14 -29q-4 -15 -1 -32q1 -8 6 -15 q6 -11 10 -13z" />
<glyph unicode="&#xe6;" horiz-adv-x="510" d="M271 191q32 8 112 25q2 0 10 1t13.5 2t11.5 4t8 6q14 21 -17.5 51t-54.5 35q-25 6 -42.5 -5t-25.5 -33t-11.5 -43t-3.5 -43zM220 141h-15h-17q-5 0 -15.5 -0.5t-16.5 -2t-15 -3.5t-16 -5t-13 -8q-20 -14 -24.5 -40.5t14.5 -44.5q10 -8 23 -9.5t29.5 5t24.5 10t24 13.5 q1 1 6.5 3.5t8.5 4.5l6 5q4 3 4 7q3 10 -2.5 34t-5.5 31zM57 238q-4 31 21 59.5t61.5 41.5t66.5 5q9 -3 28.5 -20t29.5 -18q12 0 36 18.5t36 20.5q54 9 102.5 -32.5t56.5 -96.5q-55 -7 -156 -29q-3 -1 -18.5 -4t-25 -5.5t-16.5 -8.5q-11 -7 -3 -39q13 -57 63 -87 q21 -11 41.5 -12t36.5 5t38 19q24 11 26 1q3 -21 -66 -49q-23 -9 -48 -12t-49.5 0.5t-44.5 18.5t-31 40q-13 -6 -48 -25.5t-61.5 -27.5t-52.5 -5q-24 3 -37.5 25.5t-12 50.5t18.5 45q11 12 37.5 21.5t40 12.5t43.5 9q2 1 13 2.5t16 2.5t10.5 6.5t6.5 11.5q5 29 -0.5 60.5 t-24.5 46.5q-18 15 -38.5 18t-33 -10t-7.5 -39z" />
<glyph unicode="&#xe7;" horiz-adv-x="341" d="M150 -81l3 -4zM153 -81q34 82 76 83l-25 -43q30 -13 48 -35.5t15.5 -50t-30.5 -49.5q-43 -36 -127 -36v23q63 0 93 27q17 14 17.5 32t-17.5 32q-6 5 -14.5 7.5t-19.5 5t-16 4.5zM26 164q5 53 32 95q28 43 72 68q25 15 56 21q29 6 59 0q14 -3 42 -14q15 -6 22 -10 q1 -1 2 -1t2 -1t2 -1.5t1 -1.5q1 -1 1 -5q0 -2 -2 -4l-12 -18q-2 -3 -5 -7q-5 -6 -7 -5q-3 -1 -8 -1l-9 3l-35 14q-45 17 -71 16q-18 0 -36 -8q-16 -7 -28 -21q-15 -19 -21 -39q-16 -56 2 -113q20 -60 72 -88q60 -31 123 -5q12 5 22 11l2 2h3h1l2 -1l2 -2q1 -1 1 -2v-3 q0 -2 -1 -2l-2 -2q-7 -5 -20 -13q-34 -21 -61 -26q-59 -14 -119 12q-28 12 -48 32q-23 25 -32 62q-7 30 -4 58z" />
<glyph unicode="&#xe8;" horiz-adv-x="338" d="M191 428q2 -4 2 -7q0 -13 -13 -13q-10 0 -14 10l-57 93q-2 2 -2 5q0 9 14 16q9 3 15 3q9 0 10 -6zM48 247q26 47 78 72q32 15 65 12q41 -4 75 -35q18 -16 31 -39q4 -6 5 -6l6 -6q1 -1 2.5 -2t2.5 -1q3 -1 4 -4v-3q0 -2 -1 -2l-2 -2h-3l-61 -13l-172 -34q-3 -39 9 -73 q9 -24 25 -45q15 -19 39 -31q27 -13 59 -11q24 1 58 15q25 11 36 19l6 -8q-24 -18 -52 -33q-38 -20 -82 -23q-45 -3 -82 20q-37 24 -55 68q-15 37 -13 86q3 46 22 79zM211 294q-29 21 -58 20q-22 0 -39 -15q-15 -13 -21 -31q-5 -12 -10 -33q-3 -12 -5 -37l144 31q2 0 5 1 t5 1l9 3q3 1 4 4q2 4 2 5v5q0 1 -2 4q-12 26 -34 42z" />
<glyph unicode="&#xe9;" horiz-adv-x="338" d="M169 428q-2 -4 -2 -7q0 -13 13 -13q10 0 14 10l57 93q2 2 2 5q0 9 -14 16q-9 3 -15 3q-9 0 -10 -6zM48 247q26 47 78 72q32 15 65 12q41 -4 75 -35q18 -16 31 -39q4 -6 5 -6l6 -6q1 -1 2.5 -2t2.5 -1q3 -1 4 -4v-3q0 -2 -1 -2l-2 -2h-3l-61 -13l-172 -34q-3 -39 9 -73 q9 -24 25 -45q15 -19 39 -31q27 -13 59 -11q24 1 58 15q25 11 36 19l6 -8q-24 -18 -52 -33q-38 -20 -82 -23q-45 -3 -82 20q-37 24 -55 68q-15 37 -13 86q3 46 22 79zM211 294q-29 21 -58 20q-22 0 -39 -15q-15 -13 -21 -31q-5 -12 -10 -33q-3 -12 -5 -37l144 31q2 0 5 1 t5 1l9 3q3 1 4 4q2 4 2 5v5q0 1 -2 4q-12 26 -34 42z" />
<glyph unicode="&#xea;" horiz-adv-x="338" d="M67 408l16 34q9 19 17 31l19 34q12 22 18 32l13 20q4 6 14.5 12t24.5 4q7 -1 12.5 -6t8.5 -9t7.5 -13t6.5 -12l22 -38l27 -50q11 -20 20 -39q-21 1 -41 17.5t-44 45.5l-30 37q-16 -31 -49.5 -65t-61.5 -35zM48 247q26 47 78 72q32 15 65 12q41 -4 75 -35q18 -16 31 -39 q4 -6 5 -6l6 -6q1 -1 2.5 -2t2.5 -1q3 -1 4 -4v-3q0 -2 -1 -2l-2 -2h-3l-61 -13l-172 -34q-3 -39 9 -73q9 -24 25 -45q15 -19 39 -31q27 -13 59 -11q24 1 58 15q25 11 36 19l6 -8q-24 -18 -52 -33q-38 -20 -82 -23q-45 -3 -82 20q-37 24 -55 68q-15 37 -13 86q3 46 22 79z M211 294q-29 21 -58 20q-22 0 -39 -15q-15 -13 -21 -31q-5 -12 -10 -33q-3 -12 -5 -37l144 31q2 0 5 1t5 1l9 3q3 1 4 4q2 4 2 5v5q0 1 -2 4q-12 26 -34 42z" />
<glyph unicode="&#xeb;" horiz-adv-x="338" d="M277 468q16 -7 15 -8q-7 -7 -20 -23q-19 -25 -21 -29l-24 30l-19 20q22 12 35 43q4 -1 18.5 -16t15.5 -17zM137 468q16 -7 15 -8q-7 -7 -20 -23q-19 -25 -21 -29l-24 30l-19 20q22 12 35 43q4 -1 18.5 -16t15.5 -17zM48 247q26 47 78 72q32 15 65 12q41 -4 75 -35 q18 -16 31 -39q4 -6 5 -6l6 -6q1 -1 2.5 -2t2.5 -1q3 -1 4 -4v-3q0 -2 -1 -2l-2 -2h-3l-61 -13l-172 -34q-3 -39 9 -73q9 -24 25 -45q15 -19 39 -31q27 -13 59 -11q24 1 58 15q25 11 36 19l6 -8q-24 -18 -52 -33q-38 -20 -82 -23q-45 -3 -82 20q-37 24 -55 68q-15 37 -13 86 q3 46 22 79zM211 294q-29 21 -58 20q-22 0 -39 -15q-15 -13 -21 -31q-5 -12 -10 -33q-3 -12 -5 -37l144 31q2 0 5 1t5 1l9 3q3 1 4 4q2 4 2 5v5q0 1 -2 4q-12 26 -34 42z" />
<glyph unicode="&#xec;" horiz-adv-x="220" d="M145 433q2 -4 2 -7q0 -13 -13 -13q-10 0 -14 10l-57 93q-2 2 -2 5q0 9 14 16q9 3 15 3q9 0 10 -6zM81 317q26 15 47 33q1 0 1 1l1 1q1 1 3 1h3l2 -2q3 -1 3 -5q0 -1 -0.5 -3.5t-0.5 -3.5q-4 -25 -8 -71q-3 -38 -2 -115q0 -45 2 -91q0 -11 3 -21q3 -11 10 -19q6 -6 8 -7 q4 -1 11 -1l26 1h8q1 0 2 -2q3 -3 3 -4l-1 -1v-2l-1 -1q-1 -1 -1 -2q-2 -2 -3 -2h-4q-54 0 -81 -1q-29 -1 -83 -5h-3l-1 2q-1 1 -1 2v3v3q0 1 1 2l1 2h3l28 3q2 0 5.5 2t4.5 4q2 4 2 6q0 1 0.5 2.5t0.5 2.5q4 46 6 94q2 61 -3 123q0 5 -2 14t-7 13q-7 7 -13 7q-8 0 -14 -3 l-3 -1h-1q-1 -1 -2 -1h-4q-2 0 -1 3v3v4v3l1 2q2 2 3 2l4 1q20 9 47 24z" />
<glyph unicode="&#xed;" horiz-adv-x="220" d="M91 435q-2 -4 -2 -7q0 -13 13 -13q10 0 14 10l57 93q2 2 2 5q0 9 -14 16q-9 3 -15 3q-9 0 -10 -6zM81 317q26 15 47 33q1 0 1 1l1 1q1 1 3 1h3l2 -2q3 -1 3 -5q0 -1 -0.5 -3.5t-0.5 -3.5q-4 -25 -8 -71q-3 -38 -2 -115q0 -45 2 -91q0 -11 3 -21q3 -11 10 -19q6 -6 8 -7 q4 -1 11 -1l26 1h8q1 0 2 -2q3 -3 3 -4l-1 -1v-2l-1 -1q-1 -1 -1 -2q-2 -2 -3 -2h-4q-54 0 -81 -1q-29 -1 -83 -5h-3l-1 2q-1 1 -1 2v3v3q0 1 1 2l1 2h3l28 3q2 0 5.5 2t4.5 4q2 4 2 6q0 1 0.5 2.5t0.5 2.5q4 46 6 94q2 61 -3 123q0 5 -2 14t-7 13q-7 7 -13 7q-8 0 -14 -3 l-3 -1h-1q-1 -1 -2 -1h-4q-2 0 -1 3v3v4v3l1 2q2 2 3 2l4 1q20 9 47 24z" />
<glyph unicode="&#xee;" horiz-adv-x="220" d="M-7 413l16 34q9 19 17 31l19 34q12 22 18 32l13 20q4 6 14.5 12t24.5 4q7 -1 12.5 -6t8.5 -9t7.5 -13t6.5 -12l22 -38l27 -50q11 -20 20 -39q-21 1 -41 17.5t-44 45.5l-30 37q-16 -31 -49.5 -65t-61.5 -35zM81 317q26 15 47 33q1 0 1 1l1 1q1 1 3 1h3l2 -2q3 -1 3 -5 q0 -1 -0.5 -3.5t-0.5 -3.5q-4 -25 -8 -71q-3 -38 -2 -115q0 -45 2 -91q0 -11 3 -21q3 -11 10 -19q6 -6 8 -7q4 -1 11 -1l26 1h8q1 0 2 -2q3 -3 3 -4l-1 -1v-2l-1 -1q-1 -1 -1 -2q-2 -2 -3 -2h-4q-54 0 -81 -1q-29 -1 -83 -5h-3l-1 2q-1 1 -1 2v3v3q0 1 1 2l1 2h3l28 3 q2 0 5.5 2t4.5 4q2 4 2 6q0 1 0.5 2.5t0.5 2.5q4 46 6 94q2 61 -3 123q0 5 -2 14t-7 13q-7 7 -13 7q-8 0 -14 -3l-3 -1h-1q-1 -1 -2 -1h-4q-2 0 -1 3v3v4v3l1 2q2 2 3 2l4 1q20 9 47 24z" />
<glyph unicode="&#xef;" horiz-adv-x="220" d="M195 476q16 -7 15 -8q-7 -7 -20 -23q-19 -25 -21 -29l-24 30l-19 20q22 12 35 43q4 -1 18.5 -16t15.5 -17zM55 476q16 -7 15 -8q-7 -7 -20 -23q-19 -25 -21 -29l-24 30l-19 20q22 12 35 43q4 -1 18.5 -16t15.5 -17zM81 317q26 15 47 33q1 0 1 1l1 1q1 1 3 1h3l2 -2 q3 -1 3 -5q0 -1 -0.5 -3.5t-0.5 -3.5q-4 -25 -8 -71q-3 -38 -2 -115q0 -45 2 -91q0 -11 3 -21q3 -11 10 -19q6 -6 8 -7q4 -1 11 -1l26 1h8q1 0 2 -2q3 -3 3 -4l-1 -1v-2l-1 -1q-1 -1 -1 -2q-2 -2 -3 -2h-4q-54 0 -81 -1q-29 -1 -83 -5h-3l-1 2q-1 1 -1 2v3v3q0 1 1 2l1 2h3 l28 3q2 0 5.5 2t4.5 4q2 4 2 6q0 1 0.5 2.5t0.5 2.5q4 46 6 94q2 61 -3 123q0 5 -2 14t-7 13q-7 7 -13 7q-8 0 -14 -3l-3 -1h-1q-1 -1 -2 -1h-4q-2 0 -1 3v3v4v3l1 2q2 2 3 2l4 1q20 9 47 24z" />
<glyph unicode="&#xf0;" horiz-adv-x="471" d="M199 323q-31 -6 -52.5 -27.5t-29 -51t-7 -63.5t13.5 -66t31 -56.5t45.5 -37t59.5 -5.5q33 6 56 28t30.5 51.5t7.5 63t-13 65.5t-32 56.5t-48 36.5t-62 6zM108 613q18 11 38.5 4t34.5 -19t33 -25.5t36 -15.5q6 -1 10.5 1.5t14.5 8.5t11 6q2 2 36.5 22t53.5 29l11 -21 l-120 -69q75 -74 117.5 -171.5t33.5 -193.5q-5 -53 -33 -94.5t-68 -62.5t-90.5 -19.5t-96.5 30.5q-37 24 -55.5 60t-19.5 73.5t13 74.5t39.5 64.5t64 42t81.5 7.5q40 -7 83 -43q-6 73 -65 163q-1 1 -3.5 6t-4.5 8l-5 8l-6 8q-3 3 -6.5 6t-7 4.5t-7.5 1.5q-15 1 -36 -11 t-45.5 -29.5t-33.5 -22.5l-11 21l111 65q-41 52 -108 80v3z" />
<glyph unicode="&#xf1;" horiz-adv-x="446" d="M95 408q1 23 9 45q9 23 21.5 34.5t25.5 13t31 -3.5t31 -12l32 -16l29 -14q24 -10 41.5 5t21.5 41h19q-1 -26 -9 -44q-9 -22 -21.5 -33.5t-26 -13.5t-32 2.5t-31.5 10.5l-33 16q-19 9 -30 13q-23 10 -40 -4.5t-19 -39.5h-19zM176 292q37 18 59 25q51 14 85 1q26 -9 39 -33 q7 -9 10 -24q1 -4 1.5 -8t1 -9.5t0.5 -8.5q2 -34 3 -102q1 -45 0 -90v-7q0 -3 2 -7q2 -3 5 -4l6 -3l33 -13l3 -1q3 -1 3.5 -2t0.5 -4v-3q0 -2 -1 -3q-1 -2 -3 -2h-7q-31 6 -63 6q-45 0 -83 -8q-1 0 -2.5 -0.5t-2.5 -0.5q-3 0 -4 1q-1 0 -1 1t-1 2t-1 3q0 1 2 3q0 1 1 1l1 2 q1 1 3 1l25 9q8 3 12 7q6 4 9 10q4 7 5 13q1 3 1 7t1 7q5 43 4 76q0 38 -3 76q-2 21 -5 30q-7 16 -16.5 25.5t-25.5 16.5q-9 4 -29 5q-38 1 -75 -13q-17 -7 -35 -17l-3 -187v-19q0 -12 2 -18q3 -9 11 -15q6 -5 17 -7l27 -5h1l2 -1l2 -2l2 -2v-3v-1q-1 -1 -1 -2q0 -2 -2 -2 h-3h-3q-10 2 -31 4q-29 3 -89 1l-37 -1h-3q-1 0 -2 2q-1 1 -1 4v3q1 2 2.5 3.5t3.5 1.5l8 2q11 4 17 7q9 5 14 11q4 5 8 16q3 9 2 18q3 41 3 82q0 35 -1 52q-2 30 -4 46q-4 15 -8 21q-4 5 -8 7q-5 4 -10 5l-21 7h-2l-1 2q-1 0 0 1v2l1 1q1 1 2 1q32 11 48 18q40 18 44 20 q2 2 4 2q4 0 5 -1q2 -2 1 -4q0 -1 0.5 -2.5t0.5 -2.5l1 -54q20 13 43 24z" />
<glyph unicode="&#xf2;" horiz-adv-x="411" d="M225 429q2 -4 2 -7q0 -13 -13 -13q-10 0 -14 10l-57 93q-2 2 -2 5q0 9 14 16q9 3 15 3q9 0 10 -6zM133 331q48 21 96 17q50 -5 90 -34q49 -37 63 -96q15 -60 -9 -114q-19 -47 -61 -77q-57 -39 -130 -28q-66 10 -110 57q-46 48 -48 113q0 54 30 98q29 41 79 64zM193 328 q-28 0 -50 -12q-24 -13 -39 -34q-26 -35 -26 -86q0 -48 20 -89q18 -41 51 -66q37 -29 78 -27q26 1 49 18q18 12 30 32q25 40 27 86q1 53 -28 103q-22 35 -46 52q-32 23 -66 23z" />
<glyph unicode="&#xf3;" horiz-adv-x="411" d="M203 429q-2 -4 -2 -7q0 -13 13 -13q10 0 14 10l57 93q2 2 2 5q0 9 -14 16q-9 3 -15 3q-9 0 -10 -6zM133 331q48 21 96 17q50 -5 90 -34q49 -37 63 -96q15 -60 -9 -114q-19 -47 -61 -77q-57 -39 -130 -28q-66 10 -110 57q-46 48 -48 113q0 54 30 98q29 41 79 64zM193 328 q-28 0 -50 -12q-24 -13 -39 -34q-26 -35 -26 -86q0 -48 20 -89q18 -41 51 -66q37 -29 78 -27q26 1 49 18q18 12 30 32q25 40 27 86q1 53 -28 103q-22 35 -46 52q-32 23 -66 23z" />
<glyph unicode="&#xf4;" horiz-adv-x="411" d="M101 409l16 34q9 19 17 31l19 34q12 22 18 32l13 20q4 6 14.5 12t24.5 4q7 -1 12.5 -6t8.5 -9t7.5 -13t6.5 -12l22 -38l27 -50q11 -20 20 -39q-21 1 -41 17.5t-44 45.5l-30 37q-16 -31 -49.5 -65t-61.5 -35zM133 331q48 21 96 17q50 -5 90 -34q49 -37 63 -96 q15 -60 -9 -114q-19 -47 -61 -77q-57 -39 -130 -28q-66 10 -110 57q-46 48 -48 113q0 54 30 98q29 41 79 64zM193 328q-28 0 -50 -12q-24 -13 -39 -34q-26 -35 -26 -86q0 -48 20 -89q18 -41 51 -66q37 -29 78 -27q26 1 49 18q18 12 30 32q25 40 27 86q1 53 -28 103 q-22 35 -46 52q-32 23 -66 23z" />
<glyph unicode="&#xf5;" horiz-adv-x="411" d="M83 409q1 23 9 45q9 23 21.5 34.5t25.5 13t31 -3.5t31 -12l32 -16l29 -14q24 -10 41.5 5t21.5 41h19q-1 -26 -9 -44q-9 -22 -21.5 -33.5t-26 -13.5t-32 2.5t-31.5 10.5l-33 16q-19 9 -30 13q-23 10 -40 -4.5t-19 -39.5h-19zM133 331q48 21 96 17q50 -5 90 -34 q49 -37 63 -96q15 -60 -9 -114q-19 -47 -61 -77q-57 -39 -130 -28q-66 10 -110 57q-46 48 -48 113q0 54 30 98q29 41 79 64zM193 328q-28 0 -50 -12q-24 -13 -39 -34q-26 -35 -26 -86q0 -48 20 -89q18 -41 51 -66q37 -29 78 -27q26 1 49 18q18 12 30 32q25 40 27 86 q1 53 -28 103q-22 35 -46 52q-32 23 -66 23z" />
<glyph unicode="&#xf6;" horiz-adv-x="411" d="M311 469q16 -7 15 -8q-7 -7 -20 -23q-19 -25 -21 -29l-24 30l-19 20q22 12 35 43q4 -1 18.5 -16t15.5 -17zM171 469q16 -7 15 -8q-7 -7 -20 -23q-19 -25 -21 -29l-24 30l-19 20q22 12 35 43q4 -1 18.5 -16t15.5 -17zM133 331q48 21 96 17q50 -5 90 -34q49 -37 63 -96 q15 -60 -9 -114q-19 -47 -61 -77q-57 -39 -130 -28q-66 10 -110 57q-46 48 -48 113q0 54 30 98q29 41 79 64zM193 328q-28 0 -50 -12q-24 -13 -39 -34q-26 -35 -26 -86q0 -48 20 -89q18 -41 51 -66q37 -29 78 -27q26 1 49 18q18 12 30 32q25 40 27 86q1 53 -28 103 q-22 35 -46 52q-32 23 -66 23z" />
<glyph unicode="&#xf7;" horiz-adv-x="465" d="M227.5 66q13.5 4 21.5 -5t6 -21.5t-14.5 -16.5t-21.5 5.5t-7 21.5t15.5 16zM227.5 367.5q13.5 4.5 21.5 -5t6 -22.5t-14.5 -17t-21.5 6t-7 22t15.5 16.5zM38 210h391v-33h-391v33z" />
<glyph unicode="&#xf8;" horiz-adv-x="433" d="M116 93q11 5 22 13.5t18 15t19 19.5t16 17l80 80q1 1 7 6.5t9 8t5.5 7.5t2.5 10q0 15 -31 35q-29 18 -62 19t-61 -20q-77 -59 -25 -211zM314 249q-11 -5 -22 -13t-18.5 -15t-19 -19.5t-15.5 -18.5l-80 -76q-2 -1 -7.5 -6t-8 -8t-6 -8t-3.5 -10q-2 -11 21 -32t53.5 -24.5 t58.5 9.5q40 18 56 59t11.5 81.5t-20.5 80.5zM36 3l11 -11zM36 6q2 2 12 11t15.5 16t7.5 13t0 11t-7.5 12.5t-6.5 9.5q-15 26 -19 62q-6 41 6 81t40 69q33 35 84 48t99 1q7 -1 33 -15t36 -12q7 1 15.5 7t17.5 14.5t14 11.5l11 -18l-43 -36v-3q39 -35 46.5 -84.5t-11.5 -92.5 t-57.5 -76t-86.5 -40q-45 -6 -98 13q-3 1 -22 11.5t-28 9.5q-7 -1 -15 -7.5t-17.5 -17.5t-10.5 -13h-4l-11 11v3z" />
<glyph unicode="&#xf9;" horiz-adv-x="449" d="M242 430q2 -4 2 -7q0 -13 -13 -13q-10 0 -14 10l-57 93q-2 2 -2 5q0 9 14 16q9 3 15 3q9 0 10 -6zM130 239q-2 -26 -2 -76t5 -74q4 -15 8 -23q7 -12 15 -19q17 -14 43 -14q23 -1 54 10q25 9 57 28q2 44 4 129q0 11 0.5 34t0.5 34q0 10 -2 16q-3 8 -9 11q-5 4 -14 6h-16 h-7h-3h-1l-2 1h-1l-1 1v1v2l1 4l1 1v1q0 1 1 2t2 1t1 0.5t1 0.5q18 3 52 10q22 5 53 13l1 1h1l2 -1q1 -1 1 -2v-3v-4q-1 -26 -5 -90.5t-5 -99.5q-2 -34 1 -61q2 -25 5 -46q0 -1 0.5 -2t0.5 -2q0 -2 2 -3.5t4 -1.5q1 0 2 0.5t2 0.5l40 8h2q1 0 2 -1l2 -2v-1l1 -1l1 -1v-1 q0 -1 -0.5 -1t-0.5 -1q0 -2 -1 -2l-1 -1h-2l-47 -15l-47 -15q-1 0 -2 -0.5t-2 -0.5h-4l-3 2q-2 2 -1 4l-6 29q-2 12 -4 29q-17 -10 -53 -28q-53 -25 -82 -28q-17 -3 -34 0q-19 3 -32 12q-16 11 -27 35q-8 19 -9 43q-2 27 0 83q1 27 1 82q0 10 -1 15q-2 9 -7 15q-7 7 -12 7 q-9 2 -16 0l-9 -1h-2q-1 0 -1 1q-1 0 -1 1v1l-1 1l-1 1v2q0 1 0.5 1t0.5 1t1 2l1 1q30 10 57 21q21 9 45 22h1h1q2 0 4 -2h1l1 -1q1 0 1 -1l1 -1v-1v-1l-3 -31q1 0 -5 -67z" />
<glyph unicode="&#xfa;" horiz-adv-x="449" d="M178 424q-2 -4 -2 -7q0 -13 13 -13q10 0 14 10l57 93q2 2 2 5q0 9 -14 16q-9 3 -15 3q-9 0 -10 -6zM130 239q-2 -26 -2 -76t5 -74q4 -15 8 -23q7 -12 15 -19q17 -14 43 -14q23 -1 54 10q25 9 57 28q2 44 4 129q0 11 0.5 34t0.5 34q0 10 -2 16q-3 8 -9 11q-5 4 -14 6h-16 h-7h-3h-1l-2 1h-1l-1 1v1v2l1 4l1 1v1q0 1 1 2t2 1t1 0.5t1 0.5q18 3 52 10q22 5 53 13l1 1h1l2 -1q1 -1 1 -2v-3v-4q-1 -26 -5 -90.5t-5 -99.5q-2 -34 1 -61q2 -25 5 -46q0 -1 0.5 -2t0.5 -2q0 -2 2 -3.5t4 -1.5q1 0 2 0.5t2 0.5l40 8h2q1 0 2 -1l2 -2v-1l1 -1l1 -1v-1 q0 -1 -0.5 -1t-0.5 -1q0 -2 -1 -2l-1 -1h-2l-47 -15l-47 -15q-1 0 -2 -0.5t-2 -0.5h-4l-3 2q-2 2 -1 4l-6 29q-2 12 -4 29q-17 -10 -53 -28q-53 -25 -82 -28q-17 -3 -34 0q-19 3 -32 12q-16 11 -27 35q-8 19 -9 43q-2 27 0 83q1 27 1 82q0 10 -1 15q-2 9 -7 15q-7 7 -12 7 q-9 2 -16 0l-9 -1h-2q-1 0 -1 1q-1 0 -1 1v1l-1 1l-1 1v2q0 1 0.5 1t0.5 1t1 2l1 1q30 10 57 21q21 9 45 22h1h1q2 0 4 -2h1l1 -1q1 0 1 -1l1 -1v-1v-1l-3 -31q1 0 -5 -67z" />
<glyph unicode="&#xfb;" horiz-adv-x="449" d="M102 410l16 34q9 19 17 31l19 34q12 22 18 32l13 20q4 6 14.5 12t24.5 4q7 -1 12.5 -6t8.5 -9t7.5 -13t6.5 -12l22 -38l27 -50q11 -20 20 -39q-21 1 -41 17.5t-44 45.5l-30 37q-16 -31 -49.5 -65t-61.5 -35zM130 239q-2 -26 -2 -76t5 -74q4 -15 8 -23q7 -12 15 -19 q17 -14 43 -14q23 -1 54 10q25 9 57 28q2 44 4 129q0 11 0.5 34t0.5 34q0 10 -2 16q-3 8 -9 11q-5 4 -14 6h-16h-7h-3h-1l-2 1h-1l-1 1v1v2l1 4l1 1v1q0 1 1 2t2 1t1 0.5t1 0.5q18 3 52 10q22 5 53 13l1 1h1l2 -1q1 -1 1 -2v-3v-4q-1 -26 -5 -90.5t-5 -99.5q-2 -34 1 -61 q2 -25 5 -46q0 -1 0.5 -2t0.5 -2q0 -2 2 -3.5t4 -1.5q1 0 2 0.5t2 0.5l40 8h2q1 0 2 -1l2 -2v-1l1 -1l1 -1v-1q0 -1 -0.5 -1t-0.5 -1q0 -2 -1 -2l-1 -1h-2l-47 -15l-47 -15q-1 0 -2 -0.5t-2 -0.5h-4l-3 2q-2 2 -1 4l-6 29q-2 12 -4 29q-17 -10 -53 -28q-53 -25 -82 -28 q-17 -3 -34 0q-19 3 -32 12q-16 11 -27 35q-8 19 -9 43q-2 27 0 83q1 27 1 82q0 10 -1 15q-2 9 -7 15q-7 7 -12 7q-9 2 -16 0l-9 -1h-2q-1 0 -1 1q-1 0 -1 1v1l-1 1l-1 1v2q0 1 0.5 1t0.5 1t1 2l1 1q30 10 57 21q21 9 45 22h1h1q2 0 4 -2h1l1 -1q1 0 1 -1l1 -1v-1v-1l-3 -31 q1 0 -5 -67z" />
<glyph unicode="&#xfc;" horiz-adv-x="449" d="M305 463q16 -7 15 -8q-7 -7 -20 -23q-19 -25 -21 -29l-24 30l-19 20q22 12 35 43q4 -1 18.5 -16t15.5 -17zM165 463q16 -7 15 -8q-7 -7 -20 -23q-19 -25 -21 -29l-24 30l-19 20q22 12 35 43q4 -1 18.5 -16t15.5 -17zM130 239q-2 -26 -2 -76t5 -74q4 -15 8 -23 q7 -12 15 -19q17 -14 43 -14q23 -1 54 10q25 9 57 28q2 44 4 129q0 11 0.5 34t0.5 34q0 10 -2 16q-3 8 -9 11q-5 4 -14 6h-16h-7h-3h-1l-2 1h-1l-1 1v1v2l1 4l1 1v1q0 1 1 2t2 1t1 0.5t1 0.5q18 3 52 10q22 5 53 13l1 1h1l2 -1q1 -1 1 -2v-3v-4q-1 -26 -5 -90.5t-5 -99.5 q-2 -34 1 -61q2 -25 5 -46q0 -1 0.5 -2t0.5 -2q0 -2 2 -3.5t4 -1.5q1 0 2 0.5t2 0.5l40 8h2q1 0 2 -1l2 -2v-1l1 -1l1 -1v-1q0 -1 -0.5 -1t-0.5 -1q0 -2 -1 -2l-1 -1h-2l-47 -15l-47 -15q-1 0 -2 -0.5t-2 -0.5h-4l-3 2q-2 2 -1 4l-6 29q-2 12 -4 29q-17 -10 -53 -28 q-53 -25 -82 -28q-17 -3 -34 0q-19 3 -32 12q-16 11 -27 35q-8 19 -9 43q-2 27 0 83q1 27 1 82q0 10 -1 15q-2 9 -7 15q-7 7 -12 7q-9 2 -16 0l-9 -1h-2q-1 0 -1 1q-1 0 -1 1v1l-1 1l-1 1v2q0 1 0.5 1t0.5 1t1 2l1 1q30 10 57 21q21 9 45 22h1h1q2 0 4 -2h1l1 -1q1 0 1 -1 l1 -1v-1v-1l-3 -31q1 0 -5 -67z" />
<glyph unicode="&#xfd;" horiz-adv-x="400" d="M192 426q-2 -4 -2 -7q0 -13 13 -13q10 0 14 10l57 93q2 2 2 5q0 9 -14 16q-9 3 -15 3q-9 0 -10 -6zM96 326q34 0 67 3h2q1 0 1 -0.5t1 -0.5q2 0 2 -1l1 -1v-2v-1l-1 -2q0 -1 -2 -1q-4 -2 -4 -1l-11 -2q-4 0 -7 -2l-6 -3q-4 -4 -5 -6q-2 -4 -2 -7q-1 -13 4 -33l23 -85 q19 -67 42 -140q38 60 66 123q12 27 33 84l5 17q3 9 3 17t-6 17q-5 6 -15 10q-6 3 -17 7q-6 2 -19 4h-2l-2 2q0 1 -0.5 2t-0.5 2t2 3l3 3l1 1h2q1 0 1 -0.5t1 -0.5q24 -5 55 -7q39 -2 67 2h3h3q2 0 2 -2v-1q1 -1 1 -2t-1 -2l-2 -2q-1 -1 -2 -1q-2 -1 -3 -1t-3 -1t-3 -1 t-2.5 -1t-2.5 -1q-2 -1 -9 -8q-13 -14 -22 -35l-123 -245q-38 -75 -67 -152q-29 -74 -48 -148v-4q0 -3 -1 -4l-3 -2h-1h-2q-9 1 -27 1q-27 0 -41 -1h-3l-1 1h-2q-1 0 -1 1l-1 2v2q0 1 2 3q1 1 2 1q2 1 3 1q28 12 47 38q13 17 29 53l70 155q-34 127 -67 222l-23 60 q-9 23 -19 42q-7 11 -9 13t-7 4q-1 0 -3.5 1t-3.5 2l-12 3q-3 0 -5 2h-1v1l-1 2l1 1v1q0 2 2 2h2h3q23 -1 70 -1z" />
<glyph unicode="&#xfe;" horiz-adv-x="443" d="M137 285v-155q0 -6 -1 -22t-0.5 -28t3.5 -22q2 -7 8 -11t19 -8l14 -4q91 -32 145 20q27 27 32.5 66t-7.5 75.5t-40 67.5t-60 42q-12 6 -29.5 3.5t-28.5 -6t-27.5 -10t-27.5 -8.5zM18 549l37 26l104 46q-8 -29 -13 -60t-7 -68t-2.5 -60t0 -69t0.5 -62q15 5 47 18.5 t56.5 19t48.5 0.5q42 -9 71.5 -38.5t41.5 -67.5t7.5 -80.5t-28.5 -74.5q-41 -55 -106.5 -71t-137.5 -2v-162q0 -3 -0.5 -15.5t0 -18.5t3 -15.5t6.5 -14.5q5 -6 14 -9t14.5 -4t19.5 -2t16 -1v-17l-181 -4v15q25 4 37.5 23.5t13.5 44.5v54q1 28 1 47q5 34 5.5 73t-1.5 88.5 t-2 73.5q0 25 2 76t1.5 91t-4.5 75q-1 22 -1.5 47t-2.5 47t-17 36.5t-43 14.5z" />
<glyph unicode="&#xff;" horiz-adv-x="400" d="M350 468q16 -7 15 -8q-7 -7 -20 -23q-19 -25 -21 -29l-24 30l-19 20q22 12 35 43q4 -1 18.5 -16t15.5 -17zM210 468q16 -7 15 -8q-7 -7 -20 -23q-19 -25 -21 -29l-24 30l-19 20q22 12 35 43q4 -1 18.5 -16t15.5 -17zM96 326q34 0 67 3h2q1 0 1 -0.5t1 -0.5q2 0 2 -1l1 -1 v-2v-1l-1 -2q0 -1 -2 -1q-4 -2 -4 -1l-11 -2q-4 0 -7 -2l-6 -3q-4 -4 -5 -6q-2 -4 -2 -7q-1 -13 4 -33l23 -85q19 -67 42 -140q38 60 66 123q12 27 33 84l5 17q3 9 3 17t-6 17q-5 6 -15 10q-6 3 -17 7q-6 2 -19 4h-2l-2 2q0 1 -0.5 2t-0.5 2t2 3l3 3l1 1h2q1 0 1 -0.5 t1 -0.5q24 -5 55 -7q39 -2 67 2h3h3q2 0 2 -2v-1q1 -1 1 -2t-1 -2l-2 -2q-1 -1 -2 -1q-2 -1 -3 -1t-3 -1t-3 -1t-2.5 -1t-2.5 -1q-2 -1 -9 -8q-13 -14 -22 -35l-123 -245q-38 -75 -67 -152q-29 -74 -48 -148v-4q0 -3 -1 -4l-3 -2h-1h-2q-9 1 -27 1q-27 0 -41 -1h-3l-1 1h-2 q-1 0 -1 1l-1 2v2q0 1 2 3q1 1 2 1q2 1 3 1q28 12 47 38q13 17 29 53l70 155q-34 127 -67 222l-23 60q-9 23 -19 42q-7 11 -9 13t-7 4q-1 0 -3.5 1t-3.5 2l-12 3q-3 0 -5 2h-1v1l-1 2l1 1v1q0 2 2 2h2h3q23 -1 70 -1z" />
<glyph unicode="&#x101;" horiz-adv-x="344" d="M51 441h261v-33h-261v33zM230 316q11 -10 21 -26q10 -19 12 -44q2 -38 1 -57q0 -12 -2.5 -44.5t-2.5 -49.5q0 -26 1 -39q0 -8 3 -16q2 -8 9 -14q7 -7 13 -8h6q1 0 7 3l20 6h2q2 0 3 -1l2 -1v-1q1 -1 1 -2v-4v-3l-2 -2q-2 -2 -3 -2l-68 -24q-4 -2 -5 -2h-4q-1 0 -3 2 q-6 3 -10 7q-9 9 -12 14q-5 8 -8 24q-33 -20 -43 -24q-23 -11 -47.5 -17t-45.5 -5q-9 0 -15 3q-9 4 -14 7q-6 6 -8 13q-2 5 -4 14q-3 15 -3 32q0 16 5 35q2 6 5 12q2 3 4 5q1 1 2.5 2t2.5 2q29 16 65 26q31 9 73 15l22 3l2 52q2 26 0 39q-3 21 -15 36q-7 8 -20 17 q-19 13 -30 15q-14 2 -28 -3q-11 -5 -19 -13q-6 -7 -5 -17q0 -10 1 -16l-47 -21l-2 8q-2 11 -2 16q0 8 5 16q5 9 21 18q21 13 41.5 21.5t50.5 14.5l19 3q6 0 19 -6q19 -10 29 -19zM96 19q9 -7 24 -7q12 0 26 3q13 4 30 11q21 9 33 21q-2 30 -2 45q0 27 1 40q-8 2 -10 2 q-10 1 -34 -1q-30 -5 -34 -6q-22 -7 -35 -19q-9 -9 -14 -29q-4 -15 -1 -32q1 -8 6 -15q6 -11 10 -13z" />
<glyph unicode="&#x103;" horiz-adv-x="344" d="M74 534q11 -1 17.5 -7.5t11.5 -19t10 -18.5q26 -29 68.5 -29t68.5 29q5 6 10 18.5t11.5 19t17.5 7.5q-3 -65 -38 -98q-39 -36 -88.5 -25.5t-73.5 56.5q-14 29 -15 67zM230 316q11 -10 21 -26q10 -19 12 -44q2 -38 1 -57q0 -12 -2.5 -44.5t-2.5 -49.5q0 -26 1 -39 q0 -8 3 -16q2 -8 9 -14q7 -7 13 -8h6q1 0 7 3l20 6h2q2 0 3 -1l2 -1v-1q1 -1 1 -2v-4v-3l-2 -2q-2 -2 -3 -2l-68 -24q-4 -2 -5 -2h-4q-1 0 -3 2q-6 3 -10 7q-9 9 -12 14q-5 8 -8 24q-33 -20 -43 -24q-23 -11 -47.5 -17t-45.5 -5q-9 0 -15 3q-9 4 -14 7q-6 6 -8 13 q-2 5 -4 14q-3 15 -3 32q0 16 5 35q2 6 5 12q2 3 4 5q1 1 2.5 2t2.5 2q29 16 65 26q31 9 73 15l22 3l2 52q2 26 0 39q-3 21 -15 36q-7 8 -20 17q-19 13 -30 15q-14 2 -28 -3q-11 -5 -19 -13q-6 -7 -5 -17q0 -10 1 -16l-47 -21l-2 8q-2 11 -2 16q0 8 5 16q5 9 21 18 q21 13 41.5 21.5t50.5 14.5l19 3q6 0 19 -6q19 -10 29 -19zM96 19q9 -7 24 -7q12 0 26 3q13 4 30 11q21 9 33 21q-2 30 -2 45q0 27 1 40q-8 2 -10 2q-10 1 -34 -1q-30 -5 -34 -6q-22 -7 -35 -19q-9 -9 -14 -29q-4 -15 -1 -32q1 -8 6 -15q6 -11 10 -13z" />
<glyph unicode="&#x104;" horiz-adv-x="600" d="M253 -194q-32 -17 -60 -19q-35 -1 -60 15t-34 41t-4.5 55.5t24.5 55.5q16 22 31 33.5t37 11.5q-4 -6 -17.5 -23t-20 -29t-9.5 -26q-11 -52 22 -81.5t84 -18.5zM285 471l-94 -233q25 -3 60 -4t65 -0.5t63 -0.5q-50 134 -94 238zM309.5 592q8.5 0 10.5 -9 q19 -63 94.5 -259.5t100.5 -251.5q17 -35 27.5 -45.5t33.5 -12.5q7 -1 6.5 -8.5t-3.5 -7.5h-66q-60 0 -105 -4q-8 -1 -9 5q-2 9 4 10h5q5 1 9.5 2t11 3.5t9.5 7t6 11.5t0 16q-9 44 -54 153q-146 6 -212 4q-23 -49 -51 -125q-11 -35 -1 -46t65 -26q4 -1 2 -9q-1 -5 -2 -7 t-4 -1q-30 5 -87 7q-40 2 -73 -1q-9 -1 -8 7q0 9 5 9q23 4 37.5 19t30.5 52q23 48 108.5 254t97.5 243q3 10 11.5 10z" />
<glyph unicode="&#x105;" horiz-adv-x="344" d="M312 -201q-32 -17 -60 -19q-35 -1 -60 15t-34 41t-4.5 55.5t24.5 55.5q16 22 31 33.5t37 11.5q-4 -6 -17.5 -23t-20 -29t-9.5 -26q-11 -52 22 -81.5t84 -18.5zM230 316q11 -10 21 -26q10 -19 12 -44q2 -38 1 -57q0 -12 -2.5 -44.5t-2.5 -49.5q0 -26 1 -39q0 -8 3 -16 q2 -8 9 -14q7 -7 13 -8h6q1 0 7 3l20 6h2q2 0 3 -1l2 -1v-1q1 -1 1 -2v-4v-3l-2 -2q-2 -2 -3 -2l-68 -24q-4 -2 -5 -2h-4q-1 0 -3 2q-6 3 -10 7q-9 9 -12 14q-5 8 -8 24q-33 -20 -43 -24q-23 -11 -47.5 -17t-45.5 -5q-9 0 -15 3q-9 4 -14 7q-6 6 -8 13q-2 5 -4 14 q-3 15 -3 32q0 16 5 35q2 6 5 12q2 3 4 5q1 1 2.5 2t2.5 2q29 16 65 26q31 9 73 15l22 3l2 52q2 26 0 39q-3 21 -15 36q-7 8 -20 17q-19 13 -30 15q-14 2 -28 -3q-11 -5 -19 -13q-6 -7 -5 -17q0 -10 1 -16l-47 -21l-2 8q-2 11 -2 16q0 8 5 16q5 9 21 18q21 13 41.5 21.5 t50.5 14.5l19 3q6 0 19 -6q19 -10 29 -19zM96 19q9 -7 24 -7q12 0 26 3q13 4 30 11q21 9 33 21q-2 30 -2 45q0 27 1 40q-8 2 -10 2q-10 1 -34 -1q-30 -5 -34 -6q-22 -7 -35 -19q-9 -9 -14 -29q-4 -15 -1 -32q1 -8 6 -15q6 -11 10 -13z" />
<glyph unicode="&#x107;" horiz-adv-x="341" d="M204 431q-2 -4 -2 -7q0 -13 13 -13q10 0 14 10l57 93q2 2 2 5q0 9 -14 16q-9 3 -15 3q-9 0 -10 -6zM26 164q5 53 32 95q28 43 72 68q25 15 56 21q29 6 59 0q14 -3 42 -14q15 -6 22 -10q1 -1 2 -1t2 -1t2 -1.5t1 -1.5q1 -1 1 -5q0 -2 -2 -4l-12 -18q-2 -3 -5 -7 q-5 -6 -7 -5q-3 -1 -8 -1l-9 3l-35 14q-45 17 -71 16q-18 0 -36 -8q-16 -7 -28 -21q-15 -19 -21 -39q-16 -56 2 -113q20 -60 72 -88q60 -31 123 -5q12 5 22 11l2 2h3h1l2 -1l2 -2q1 -1 1 -2v-3q0 -2 -1 -2l-2 -2q-7 -5 -20 -13q-34 -21 -61 -26q-59 -14 -119 12 q-28 12 -48 32q-23 25 -32 62q-7 30 -4 58z" />
<glyph unicode="&#x109;" horiz-adv-x="341" d="M102 411l16 34q9 19 17 31l19 34q12 22 18 32l13 20q4 6 14.5 12t24.5 4q7 -1 12.5 -6t8.5 -9t7.5 -13t6.5 -12l22 -38l27 -50q11 -20 20 -39q-21 1 -41 17.5t-44 45.5l-30 37q-16 -31 -49.5 -65t-61.5 -35zM26 164q5 53 32 95q28 43 72 68q25 15 56 21q29 6 59 0 q14 -3 42 -14q15 -6 22 -10q1 -1 2 -1t2 -1t2 -1.5t1 -1.5q1 -1 1 -5q0 -2 -2 -4l-12 -18q-2 -3 -5 -7q-5 -6 -7 -5q-3 -1 -8 -1l-9 3l-35 14q-45 17 -71 16q-18 0 -36 -8q-16 -7 -28 -21q-15 -19 -21 -39q-16 -56 2 -113q20 -60 72 -88q60 -31 123 -5q12 5 22 11l2 2h3h1 l2 -1l2 -2q1 -1 1 -2v-3q0 -2 -1 -2l-2 -2q-7 -5 -20 -13q-34 -21 -61 -26q-59 -14 -119 12q-28 12 -48 32q-23 25 -32 62q-7 30 -4 58z" />
<glyph unicode="&#x10b;" horiz-adv-x="341" d="M201.5 479q19.5 8 34.5 -5t13 -32.5t-21 -27.5q-20 -8 -34.5 5.5t-13 32.5t21 27zM26 164q5 53 32 95q28 43 72 68q25 15 56 21q29 6 59 0q14 -3 42 -14q15 -6 22 -10q1 -1 2 -1t2 -1t2 -1.5t1 -1.5q1 -1 1 -5q0 -2 -2 -4l-12 -18q-2 -3 -5 -7q-5 -6 -7 -5q-3 -1 -8 -1 l-9 3l-35 14q-45 17 -71 16q-18 0 -36 -8q-16 -7 -28 -21q-15 -19 -21 -39q-16 -56 2 -113q20 -60 72 -88q60 -31 123 -5q12 5 22 11l2 2h3h1l2 -1l2 -2q1 -1 1 -2v-3q0 -2 -1 -2l-2 -2q-7 -5 -20 -13q-34 -21 -61 -26q-59 -14 -119 12q-28 12 -48 32q-23 25 -32 62 q-7 30 -4 58z" />
<glyph unicode="&#x10d;" horiz-adv-x="341" d="M102 579q21 -1 41 -18t43 -46.5t31 -36.5q13 20 21.5 31t25 30t33 29t31.5 11q-7 -16 -16.5 -34.5t-17 -31t-19 -34t-17.5 -31.5q-9 -15 -13.5 -21t-14.5 -12t-24 -4q-7 1 -13 6.5t-8.5 9t-7.5 13t-7 12.5q-4 8 -21.5 38t-28 49.5t-18.5 39.5zM26 164q5 53 32 95 q28 43 72 68q25 15 56 21q29 6 59 0q14 -3 42 -14q15 -6 22 -10q1 -1 2 -1t2 -1t2 -1.5t1 -1.5q1 -1 1 -5q0 -2 -2 -4l-12 -18q-2 -3 -5 -7q-5 -6 -7 -5q-3 -1 -8 -1l-9 3l-35 14q-45 17 -71 16q-18 0 -36 -8q-16 -7 -28 -21q-15 -19 -21 -39q-16 -56 2 -113q20 -60 72 -88 q60 -31 123 -5q12 5 22 11l2 2h3h1l2 -1l2 -2q1 -1 1 -2v-3q0 -2 -1 -2l-2 -2q-7 -5 -20 -13q-34 -21 -61 -26q-59 -14 -119 12q-28 12 -48 32q-23 25 -32 62q-7 30 -4 58z" />
<glyph unicode="&#x10f;" horiz-adv-x="440" d="M404 422l8 -11zM463 627q5 -1 9 -3.5t5 -4.5l6 -7l7 -6q3 -4 11 -9t14 -10t8 -12t-4.5 -20t-6.5 -15q-23 -95 -100 -129l-8 18q31 18 48.5 41.5t3.5 50.5q-4 7 -19 22.5t-18 29.5q28 15 44 54zM89 283q30 25 68 40q36 16 72 15q12 -1 32 -4q6 -1 17 -4l18 -5 q1 0 2.5 -0.5t2.5 -0.5q3 0 4.5 2t1.5 4q0 1 0.5 2.5t0.5 2.5q3 68 2 122q-2 51 -4 76q0 9 -1 12q-1 6 -3 11q-3 6 -10 7h-6q-4 0 -5 -1l-12 -2q-8 -2 -10.5 -2t-4.5 1q-3 1 -3.5 3.5t0 4.5t3.5 5q2 1 10 4q14 6 42 19q30 15 56 31q1 1 3 1h2l1 -1h2q1 0 2 -1q3 -3 3 -5 l1 -1v-2v-1l-1 -2q-10 -76 -13 -140q-2 -45 -3.5 -97.5t-3 -115.5t-1.5 -97q-2 -45 0 -83q1 -19 7 -56q0 -1 0.5 -3t0.5 -3q0 -2 2 -6q1 -3 5 -3h2h2l39 12h4h3q2 0 3 -1q2 -2 2 -3v-4q0 -2 -1 -3q-1 0 -1 -1l-2 -1q-1 -1 -4 0l-96 -33q-2 -1 -5 -1t-5 2t-3 4t-1 6l-3 24 q-2 25 -1 36l-27 -14q-44 -23 -79 -30q-45 -9 -84 6q-43 17 -67 60q-31 55 -16 121q13 55 60 93zM163 307q-22 -7 -38 -17q-33 -21 -47 -49q-12 -26 -9 -59q1 -26 12 -56q10 -29 31 -50q37 -40 87 -43q37 -2 69 12q16 7 34 19q-2 26 0 52q2 59 2 89v55v9q0 6 -1 9q-1 4 -4 7 q-2 2 -9 4l-34 10q-38 9 -46 10q-27 3 -47 -2z" />
<glyph unicode="&#x110;" horiz-adv-x="683" d="M152 314h167v-25h-167q0 -28 2 -85.5t2 -85.5q0 -3 -1.5 -20t-0.5 -29.5t6 -18.5q21 -28 136 -28q123 0 195.5 82.5t72.5 206.5q0 111 -81.5 190.5t-192.5 79.5h-44q-15 0 -41.5 -6t-37.5 -18t-11 -72q0 -24 -2 -82t-2 -89zM97 3v-4h141q-17 8 -41.5 8.5t-57 -2 t-42.5 -2.5zM22 589q42 0 134.5 9t162.5 5.5t130 -26.5q64 -26 110.5 -75t66 -108.5t17 -120.5t-36 -119t-94.5 -96q-33 -22 -71.5 -35t-74 -16t-76 -4.5t-78.5 0.5q-35 1 -101 -1.5t-96 -2.5v19q42 0 56 19q6 7 9 18t4 18.5t1.5 23t0.5 17.5q4 48 3 175h-70v25h70v44v50 q0 16 -1.5 41.5t-2.5 47.5q-5 38 -17 56t-46 18v18z" />
<glyph unicode="&#x111;" horiz-adv-x="440" d="M317 483h123v-24h-123h-98v24h98zM89 283q30 25 68 40q36 16 72 15q12 -1 32 -4q6 -1 17 -4l18 -5q1 0 2.5 -0.5t2.5 -0.5q3 0 4.5 2t1.5 4q0 1 0.5 2.5t0.5 2.5q3 68 2 122q-2 51 -4 76q0 9 -1 12q-1 6 -3 11q-3 6 -10 7h-6q-4 0 -5 -1l-12 -2q-8 -2 -10.5 -2t-4.5 1 q-3 1 -3.5 3.5t0 4.5t3.5 5q2 1 10 4q14 6 42 19q30 15 56 31q1 1 3 1h2l1 -1h2q1 0 2 -1q3 -3 3 -5l1 -1v-2v-1l-1 -2q-10 -76 -13 -140q-2 -45 -3.5 -97.5t-3 -115.5t-1.5 -97q-2 -45 0 -83q1 -19 7 -56q0 -1 0.5 -3t0.5 -3q0 -2 2 -6q1 -3 5 -3h2h2l39 12h4h3q2 0 3 -1 q2 -2 2 -3v-4q0 -2 -1 -3q-1 0 -1 -1l-2 -1q-1 -1 -4 0l-96 -33q-2 -1 -5 -1t-5 2t-3 4t-1 6l-3 24q-2 25 -1 36l-27 -14q-44 -23 -79 -30q-45 -9 -84 6q-43 17 -67 60q-31 55 -16 121q13 55 60 93zM163 307q-22 -7 -38 -17q-33 -21 -47 -49q-12 -26 -9 -59q1 -26 12 -56 q10 -29 31 -50q37 -40 87 -43q37 -2 69 12q16 7 34 19q-2 26 0 52q2 59 2 89v55v9q0 6 -1 9q-1 4 -4 7q-2 2 -9 4l-34 10q-38 9 -46 10q-27 3 -47 -2z" />
<glyph unicode="&#x113;" horiz-adv-x="338" d="M50 441h261v-33h-261v33zM48 247q26 47 78 72q32 15 65 12q41 -4 75 -35q18 -16 31 -39q4 -6 5 -6l6 -6q1 -1 2.5 -2t2.5 -1q3 -1 4 -4v-3q0 -2 -1 -2l-2 -2h-3l-61 -13l-172 -34q-3 -39 9 -73q9 -24 25 -45q15 -19 39 -31q27 -13 59 -11q24 1 58 15q25 11 36 19l6 -8 q-24 -18 -52 -33q-38 -20 -82 -23q-45 -3 -82 20q-37 24 -55 68q-15 37 -13 86q3 46 22 79zM211 294q-29 21 -58 20q-22 0 -39 -15q-15 -13 -21 -31q-5 -12 -10 -33q-3 -12 -5 -37l144 31q2 0 5 1t5 1l9 3q3 1 4 4q2 4 2 5v5q0 1 -2 4q-12 26 -34 42z" />
<glyph unicode="&#x115;" horiz-adv-x="338" d="M73 534q11 -1 17.5 -7.5t11.5 -19t10 -18.5q26 -29 68.5 -29t68.5 29q5 6 10 18.5t11.5 19t17.5 7.5q-3 -65 -38 -98q-39 -36 -88.5 -25.5t-73.5 56.5q-14 29 -15 67zM48 247q26 47 78 72q32 15 65 12q41 -4 75 -35q18 -16 31 -39q4 -6 5 -6l6 -6q1 -1 2.5 -2t2.5 -1 q3 -1 4 -4v-3q0 -2 -1 -2l-2 -2h-3l-61 -13l-172 -34q-3 -39 9 -73q9 -24 25 -45q15 -19 39 -31q27 -13 59 -11q24 1 58 15q25 11 36 19l6 -8q-24 -18 -52 -33q-38 -20 -82 -23q-45 -3 -82 20q-37 24 -55 68q-15 37 -13 86q3 46 22 79zM211 294q-29 21 -58 20q-22 0 -39 -15 q-15 -13 -21 -31q-5 -12 -10 -33q-3 -12 -5 -37l144 31q2 0 5 1t5 1l9 3q3 1 4 4q2 4 2 5v5q0 1 -2 4q-12 26 -34 42z" />
<glyph unicode="&#x117;" horiz-adv-x="338" d="M166.5 476q19.5 8 34.5 -5t13 -32.5t-21 -27.5q-20 -8 -34.5 5.5t-13 32.5t21 27zM48 247q26 47 78 72q32 15 65 12q41 -4 75 -35q18 -16 31 -39q4 -6 5 -6l6 -6q1 -1 2.5 -2t2.5 -1q3 -1 4 -4v-3q0 -2 -1 -2l-2 -2h-3l-61 -13l-172 -34q-3 -39 9 -73q9 -24 25 -45 q15 -19 39 -31q27 -13 59 -11q24 1 58 15q25 11 36 19l6 -8q-24 -18 -52 -33q-38 -20 -82 -23q-45 -3 -82 20q-37 24 -55 68q-15 37 -13 86q3 46 22 79zM211 294q-29 21 -58 20q-22 0 -39 -15q-15 -13 -21 -31q-5 -12 -10 -33q-3 -12 -5 -37l144 31q2 0 5 1t5 1l9 3q3 1 4 4 q2 4 2 5v5q0 1 -2 4q-12 26 -34 42z" />
<glyph unicode="&#x118;" horiz-adv-x="534" d="M98 -193q-32 -17 -60 -19q-35 -1 -60 15t-34 41t-4.5 55.5t24.5 55.5q16 22 31 33.5t37 11.5q-4 -6 -17.5 -23t-20 -29t-9.5 -26q-11 -52 22 -81.5t84 -18.5zM416 209q-5 39 -12 54q-9 14 -23 17q-61 9 -139 9q-57 0 -72 -1q-9 0 -9 -6q0 -194 7 -237q1 -7 7 -8 q31 -14 127 -14q97 0 150 37q32 23 53 75q1 4 4.5 4t5.5 -2q5 -5 4 -7q-38 -118 -44 -130q0 -5 -7 -4q-19 4 -211 4h-141q-31 0 -84 -7q-7 -1 -8.5 7t2.5 9q33 6 49 14q8 5 9 20q11 86 13.5 227.5t-5.5 259.5q-1 25 -22 35q-12 6 -29 9q-8 2 -8 7.5t6 5.5q378 -3 417 3 q4 1 16 1q9 0 5 -8q-4 -12 -15 -105q-2 -10 -7 -10q-10 0 -8.5 9.5t1.5 17.5q1 39 -18 49q-45 23 -145 23q-57 0 -106 -10q-7 -2 -8 -7q-4 -26 -10 -227q0 -11 6 -12h82q86 0 135 7q11 1 18 13q12 26 17 42q1 4 8.5 4t5.5 -5q-11 -82 -2 -160q2 -9 -6.5 -9t-8.5 6z" />
<glyph unicode="&#x119;" horiz-adv-x="338" d="M242 -192q-32 -17 -60 -19q-35 -1 -60 15t-34 41t-4.5 55.5t24.5 55.5q16 22 31 33.5t37 11.5q-4 -6 -17.5 -23t-20 -29t-9.5 -26q-11 -52 22 -81.5t84 -18.5zM48 247q26 47 78 72q32 15 65 12q41 -4 75 -35q18 -16 31 -39q4 -6 5 -6l6 -6q1 -1 2.5 -2t2.5 -1q3 -1 4 -4 v-3q0 -2 -1 -2l-2 -2h-3l-61 -13l-172 -34q-3 -39 9 -73q9 -24 25 -45q15 -19 39 -31q27 -13 59 -11q24 1 58 15q25 11 36 19l6 -8q-24 -18 -52 -33q-38 -20 -82 -23q-45 -3 -82 20q-37 24 -55 68q-15 37 -13 86q3 46 22 79zM211 294q-29 21 -58 20q-22 0 -39 -15 q-15 -13 -21 -31q-5 -12 -10 -33q-3 -12 -5 -37l144 31q2 0 5 1t5 1l9 3q3 1 4 4q2 4 2 5v5q0 1 -2 4q-12 26 -34 42z" />
<glyph unicode="&#x11b;" horiz-adv-x="338" d="M67 577q21 -1 41 -18t43 -46.5t31 -36.5q13 20 21.5 31t25 30t33 29t31.5 11q-7 -16 -16.5 -34.5t-17 -31t-19 -34t-17.5 -31.5q-9 -15 -13.5 -21t-14.5 -12t-24 -4q-7 1 -13 6.5t-8.5 9t-7.5 13t-7 12.5q-4 8 -21.5 38t-28 49.5t-18.5 39.5zM48 247q26 47 78 72 q32 15 65 12q41 -4 75 -35q18 -16 31 -39q4 -6 5 -6l6 -6q1 -1 2.5 -2t2.5 -1q3 -1 4 -4v-3q0 -2 -1 -2l-2 -2h-3l-61 -13l-172 -34q-3 -39 9 -73q9 -24 25 -45q15 -19 39 -31q27 -13 59 -11q24 1 58 15q25 11 36 19l6 -8q-24 -18 -52 -33q-38 -20 -82 -23q-45 -3 -82 20 q-37 24 -55 68q-15 37 -13 86q3 46 22 79zM211 294q-29 21 -58 20q-22 0 -39 -15q-15 -13 -21 -31q-5 -12 -10 -33q-3 -12 -5 -37l144 31q2 0 5 1t5 1l9 3q3 1 4 4q2 4 2 5v5q0 1 -2 4q-12 26 -34 42z" />
<glyph unicode="&#x11d;" horiz-adv-x="403" d="M87 408l16 34q9 19 17 31l19 34q12 22 18 32l13 20q4 6 14.5 12t24.5 4q7 -1 12.5 -6t8.5 -9t7.5 -13t6.5 -12l22 -38l27 -50q11 -20 20 -39q-21 1 -41 17.5t-44 45.5l-30 37q-16 -31 -49.5 -65t-61.5 -35zM41 175q-4 39 14 76t49 62q24 20 55 28q59 17 109 -14 q5 -4 13 -7q2 -1 6.5 -0.5t6.5 0.5q12 3 39 5q18 1 39 -2q4 0 5 -1t2 -1.5t2 -0.5q1 -1 1 -5v-4q0 -9 -3 -15q-3 -8 -7 -12l-1 -2q-1 -1 -2 -1h-3q-1 0 -3 1q-15 4 -23 4q-19 3 -35 3q13 -30 19 -59q5 -25 2 -46q-3 -24 -14 -45q-9 -17 -31 -36q-24 -20 -82 -46l-29 -13 q-14 -6 -23 -12q-21 -13 -24 -15q-1 -1 -3 -2.5t-3 -2.5t-3 -6q-1 -4 0 -8t5 -7q6 -6 13 -9q26 -11 84 -9q60 2 85 -5q27 -9 43 -23q20 -19 26 -41q7 -27 -6 -58q-10 -25 -35 -46q-49 -43 -124 -62q-39 -9 -69 -8q-38 2 -66 18q-25 14 -36 34q-13 23 -12 47q2 26 14 47 q9 16 33 38q10 9 35 25l-21 18q-9 9 -17 22q-6 11 -7 17q0 1 -0.5 2.5t-0.5 2.5t0.5 2.5t0.5 2.5q-1 2 1 3q1 1 5 3q23 13 27 14l33 15l25 12q-10 3 -29 12q-33 16 -54 45t-26 65zM124 310q-19 -13 -32 -39q-11 -23 -12 -49q0 -51 37 -92q36 -41 87 -52q19 6 34 17 q26 20 35 52q6 25 3 49q-3 28 -13 56q-11 32 -30 50q-24 23 -53 23q-32 2 -56 -15zM91 -88q-17 -12 -28 -26q-12 -16 -13 -36q-1 -23 14 -43q11 -15 38 -27q43 -20 92 -15q54 5 99 31q15 9 27 22q10 11 13 30q2 14 -3 35q-6 17 -12.5 25.5t-19.5 13.5q-8 3 -23 4 q-24 1 -47 0q-40 -2 -67 2q-12 1 -31 5q-22 -10 -39 -21z" />
<glyph unicode="&#x11f;" horiz-adv-x="403" d="M92 534q11 -1 17.5 -7.5t11.5 -19t10 -18.5q26 -29 68.5 -29t68.5 29q5 6 10 18.5t11.5 19t17.5 7.5q-3 -65 -38 -98q-39 -36 -88.5 -25.5t-73.5 56.5q-14 29 -15 67zM41 175q-4 39 14 76t49 62q24 20 55 28q59 17 109 -14q5 -4 13 -7q2 -1 6.5 -0.5t6.5 0.5q12 3 39 5 q18 1 39 -2q4 0 5 -1t2 -1.5t2 -0.5q1 -1 1 -5v-4q0 -9 -3 -15q-3 -8 -7 -12l-1 -2q-1 -1 -2 -1h-3q-1 0 -3 1q-15 4 -23 4q-19 3 -35 3q13 -30 19 -59q5 -25 2 -46q-3 -24 -14 -45q-9 -17 -31 -36q-24 -20 -82 -46l-29 -13q-14 -6 -23 -12q-21 -13 -24 -15q-1 -1 -3 -2.5 t-3 -2.5t-3 -6q-1 -4 0 -8t5 -7q6 -6 13 -9q26 -11 84 -9q60 2 85 -5q27 -9 43 -23q20 -19 26 -41q7 -27 -6 -58q-10 -25 -35 -46q-49 -43 -124 -62q-39 -9 -69 -8q-38 2 -66 18q-25 14 -36 34q-13 23 -12 47q2 26 14 47q9 16 33 38q10 9 35 25l-21 18q-9 9 -17 22 q-6 11 -7 17q0 1 -0.5 2.5t-0.5 2.5t0.5 2.5t0.5 2.5q-1 2 1 3q1 1 5 3q23 13 27 14l33 15l25 12q-10 3 -29 12q-33 16 -54 45t-26 65zM124 310q-19 -13 -32 -39q-11 -23 -12 -49q0 -51 37 -92q36 -41 87 -52q19 6 34 17q26 20 35 52q6 25 3 49q-3 28 -13 56q-11 32 -30 50 q-24 23 -53 23q-32 2 -56 -15zM91 -88q-17 -12 -28 -26q-12 -16 -13 -36q-1 -23 14 -43q11 -15 38 -27q43 -20 92 -15q54 5 99 31q15 9 27 22q10 11 13 30q2 14 -3 35q-6 17 -12.5 25.5t-19.5 13.5q-8 3 -23 4q-24 1 -47 0q-40 -2 -67 2q-12 1 -31 5q-22 -10 -39 -21z" />
<glyph unicode="&#x121;" horiz-adv-x="403" d="M186.5 476q19.5 8 34.5 -5t13 -32.5t-21 -27.5q-20 -8 -34.5 5.5t-13 32.5t21 27zM41 175q-4 39 14 76t49 62q24 20 55 28q59 17 109 -14q5 -4 13 -7q2 -1 6.5 -0.5t6.5 0.5q12 3 39 5q18 1 39 -2q4 0 5 -1t2 -1.5t2 -0.5q1 -1 1 -5v-4q0 -9 -3 -15q-3 -8 -7 -12l-1 -2 q-1 -1 -2 -1h-3q-1 0 -3 1q-15 4 -23 4q-19 3 -35 3q13 -30 19 -59q5 -25 2 -46q-3 -24 -14 -45q-9 -17 -31 -36q-24 -20 -82 -46l-29 -13q-14 -6 -23 -12q-21 -13 -24 -15q-1 -1 -3 -2.5t-3 -2.5t-3 -6q-1 -4 0 -8t5 -7q6 -6 13 -9q26 -11 84 -9q60 2 85 -5q27 -9 43 -23 q20 -19 26 -41q7 -27 -6 -58q-10 -25 -35 -46q-49 -43 -124 -62q-39 -9 -69 -8q-38 2 -66 18q-25 14 -36 34q-13 23 -12 47q2 26 14 47q9 16 33 38q10 9 35 25l-21 18q-9 9 -17 22q-6 11 -7 17q0 1 -0.5 2.5t-0.5 2.5t0.5 2.5t0.5 2.5q-1 2 1 3q1 1 5 3q23 13 27 14l33 15 l25 12q-10 3 -29 12q-33 16 -54 45t-26 65zM124 310q-19 -13 -32 -39q-11 -23 -12 -49q0 -51 37 -92q36 -41 87 -52q19 6 34 17q26 20 35 52q6 25 3 49q-3 28 -13 56q-11 32 -30 50q-24 23 -53 23q-32 2 -56 -15zM91 -88q-17 -12 -28 -26q-12 -16 -13 -36q-1 -23 14 -43 q11 -15 38 -27q43 -20 92 -15q54 5 99 31q15 9 27 22q10 11 13 30q2 14 -3 35q-6 17 -12.5 25.5t-19.5 13.5q-8 3 -23 4q-24 1 -47 0q-40 -2 -67 2q-12 1 -31 5q-22 -10 -39 -21z" />
<glyph unicode="&#x122;" horiz-adv-x="624" d="M295 -274l8 -11zM354 -69q5 -1 9 -3.5t5 -4.5l6 -7l7 -6q3 -4 11 -9t14 -10t8 -12t-4.5 -20t-6.5 -15q-23 -95 -100 -129l-8 18q31 18 48.5 41.5t3.5 50.5q-4 7 -19 22.5t-18 29.5q28 15 44 54zM359 592q31 0 54.5 -4t51 -12t30.5 -9q13 -2 18 1q6 4 14 16q2 4 7 3.5 t4 -5.5q-2 -15 3.5 -61.5t12.5 -65.5q1 -4 -1.5 -6.5t-5.5 -2.5q-8 0 -9 6q-18 46 -66.5 80t-131.5 34q-57 0 -95 -17q-69 -31 -110.5 -96.5t-41.5 -153.5q0 -109 79.5 -196t191.5 -87q70 0 126 35q13 9 14 28q4 68 -3 146q-2 26 -20 35t-83 8q-7 0 -7 9t8 9q34 -2 79 -1 q70 0 118 5q9 2 10 -8q0 -7 -6 -9q-17 -4 -22.5 -14t-6.5 -33q-2 -147 -2 -158q0 -17 17 -32q3 -3 3 -7t-4 -5q-25 -4 -72.5 -13t-85.5 -14.5t-72 -5.5q-143 0 -239 82.5t-96 224.5q0 65 31.5 125t78 95t108.5 54.5t121 19.5z" />
<glyph unicode="&#x123;" horiz-adv-x="403" d="M134 392l8 -11zM193 597q5 -1 9 -3.5t5 -4.5l6 -7l7 -6q3 -4 11 -9t14 -10t8 -12t-4.5 -20t-6.5 -15q-23 -95 -100 -129l-8 18q31 18 48.5 41.5t3.5 50.5q-4 7 -19 22.5t-18 29.5q28 15 44 54zM41 175q-4 39 14 76t49 62q24 20 55 28q59 17 109 -14q5 -4 13 -7 q2 -1 6.5 -0.5t6.5 0.5q12 3 39 5q18 1 39 -2q4 0 5 -1t2 -1.5t2 -0.5q1 -1 1 -5v-4q0 -9 -3 -15q-3 -8 -7 -12l-1 -2q-1 -1 -2 -1h-3q-1 0 -3 1q-15 4 -23 4q-19 3 -35 3q13 -30 19 -59q5 -25 2 -46q-3 -24 -14 -45q-9 -17 -31 -36q-24 -20 -82 -46l-29 -13q-14 -6 -23 -12 q-21 -13 -24 -15q-1 -1 -3 -2.5t-3 -2.5t-3 -6q-1 -4 0 -8t5 -7q6 -6 13 -9q26 -11 84 -9q60 2 85 -5q27 -9 43 -23q20 -19 26 -41q7 -27 -6 -58q-10 -25 -35 -46q-49 -43 -124 -62q-39 -9 -69 -8q-38 2 -66 18q-25 14 -36 34q-13 23 -12 47q2 26 14 47q9 16 33 38 q10 9 35 25l-21 18q-9 9 -17 22q-6 11 -7 17q0 1 -0.5 2.5t-0.5 2.5t0.5 2.5t0.5 2.5q-1 2 1 3q1 1 5 3q23 13 27 14l33 15l25 12q-10 3 -29 12q-33 16 -54 45t-26 65zM124 310q-19 -13 -32 -39q-11 -23 -12 -49q0 -51 37 -92q36 -41 87 -52q19 6 34 17q26 20 35 52 q6 25 3 49q-3 28 -13 56q-11 32 -30 50q-24 23 -53 23q-32 2 -56 -15zM91 -88q-17 -12 -28 -26q-12 -16 -13 -36q-1 -23 14 -43q11 -15 38 -27q43 -20 92 -15q54 5 99 31q15 9 27 22q10 11 13 30q2 14 -3 35q-6 17 -12.5 25.5t-19.5 13.5q-8 3 -23 4q-24 1 -47 0 q-40 -2 -67 2q-12 1 -31 5q-22 -10 -39 -21z" />
<glyph unicode="&#x126;" horiz-adv-x="727" d="M327 486h377v-28h-377h-300v28h300zM37 591q22 0 60 -2.5t50 -2.5q55 0 83 3q4 1 5 -1.5t1 -6.5q0 -7 -5 -7q-54 -8 -61 -20q-2 -2 -2 -5q-4 -29 -5 -65.5t-2 -92.5t-1 -74h416q0 14 0.5 54t-0.5 78t-5 77q-3 28 -17 38t-47 15q-4 1 -4 7q2 9 7 9l40 -3q40 -3 64 -3 q19 0 81 5q5 0 6.5 -7.5t-3.5 -8.5q-52 -6 -53 -50q-9 -352 -1 -466q1 -16 4 -25.5t13 -14t15.5 -5.5t23.5 -3q6 -1 5 -11q0 -4 -2 -7t-6 -2q-38 7 -84 7q-36 0 -98 -9q-5 -1 -6 0t-2 8q-2 11 3 12q20 4 27.5 6t17 7.5t12.5 15t4 25.5q7 145 4 219l-415 2q-1 -37 0 -81 q1 -45 2 -96q1 -52 1 -53q0 -22 16.5 -32.5t47.5 -15.5q7 -1 5 -12q-2 -7 -9 -6q-38 9 -93 9q-47 0 -97 -7q-9 -1 -9 6q-2 9 4 10q34 5 46 13t14 35q9 138 8 270.5t-5 203.5q-2 26 -14 34t-43 9q-6 0 -6 8q2 9 9 9z" />
<glyph unicode="&#x127;" horiz-adv-x="455" d="M97 483h123v-24h-123h-98v24h98zM173 308q37 17 69 25q42 10 69 1q17 -6 29 -18q14 -14 21 -29q9 -20 12 -46q0 -1 3 -47q1 -29 1 -87q0 -21 -2 -61q0 -7 1 -9l1 -3q1 -4 2 -6q3 -4 8 -5q6 -2 9 -2l34 -6h3l3 -3q2 -2 2 -3v-3q0 -2 -1 -3q0 -1 -1 -1l-1 -2q-2 -2 -4 -2 h-3q-43 2 -66 2q-39 0 -78 -3h-2q-2 0 -3 1t-1 3v2v2v1l1 2q0 1 2 1h1h1l17 5q6 2 7.5 3t5.5 5q1 1 3 6.5t2 7.5q9 56 5 112q-2 52 -4 78q-1 18 -9 35q-8 18 -23 27q-12 8 -25 11q-5 1 -28 1q-32 -2 -54 -8q-27 -7 -47 -18q-4 -100 -3 -149v-66v-7v-7q0 -8 3 -13q3 -7 10 -9 q7 -4 13 -5l28 -5q2 0 6 -2l2 -2v-2q0 -2 -1 -3l-2 -2h-1q-1 -1 -2 -1h-3q-25 1 -74 1q-26 0 -78 -2h-3q-1 0 -1 2l-1 1v1v2v3q0 1 0.5 0.5t0.5 0.5t2 1q1 0 1 0.5t1 0.5l16 5q4 1 12 5q6 3 8 8q4 8 5 11.5t1 11.5q4 75 7 226q2 76 2 226v24q0 15 -4 26q-1 5 -4 7q-5 5 -8 6 t-8 1q-4 0 -10 -2l-15 -5h-2h-2h-3q-1 0 -2 1t-1 4v3l3 3l5 3l43 18q31 12 42 20q9 5 20 15q0 1 1 1t2 0.5t4 0.5t6 -1q2 -1 4 -5v-4v-1l-1 -2q-7 -18 -8 -46q-6 -85 -8 -128q-2 -51 -4 -157q17 11 41 21z" />
<glyph unicode="&#x129;" horiz-adv-x="220" d="M-35 413q1 23 9 45q9 23 21.5 34.5t25.5 13t31 -3.5t31 -12l32 -16l29 -14q24 -10 41.5 5t21.5 41h19q-1 -26 -9 -44q-9 -22 -21.5 -33.5t-26 -13.5t-32 2.5t-31.5 10.5l-33 16q-19 9 -30 13q-23 10 -40 -4.5t-19 -39.5h-19zM81 317q26 15 47 33q1 0 1 1l1 1q1 1 3 1h3 l2 -2q3 -1 3 -5q0 -1 -0.5 -3.5t-0.5 -3.5q-4 -25 -8 -71q-3 -38 -2 -115q0 -45 2 -91q0 -11 3 -21q3 -11 10 -19q6 -6 8 -7q4 -1 11 -1l26 1h8q1 0 2 -2q3 -3 3 -4l-1 -1v-2l-1 -1q-1 -1 -1 -2q-2 -2 -3 -2h-4q-54 0 -81 -1q-29 -1 -83 -5h-3l-1 2q-1 1 -1 2v3v3q0 1 1 2 l1 2h3l28 3q2 0 5.5 2t4.5 4q2 4 2 6q0 1 0.5 2.5t0.5 2.5q4 46 6 94q2 61 -3 123q0 5 -2 14t-7 13q-7 7 -13 7q-8 0 -14 -3l-3 -1h-1q-1 -1 -2 -1h-4q-2 0 -1 3v3v4v3l1 2q2 2 3 2l4 1q20 9 47 24z" />
<glyph unicode="&#x12b;" horiz-adv-x="220" d="M-36 446h261v-33h-261v33zM81 317q26 15 47 33q1 0 1 1l1 1q1 1 3 1h3l2 -2q3 -1 3 -5q0 -1 -0.5 -3.5t-0.5 -3.5q-4 -25 -8 -71q-3 -38 -2 -115q0 -45 2 -91q0 -11 3 -21q3 -11 10 -19q6 -6 8 -7q4 -1 11 -1l26 1h8q1 0 2 -2q3 -3 3 -4l-1 -1v-2l-1 -1q-1 -1 -1 -2 q-2 -2 -3 -2h-4q-54 0 -81 -1q-29 -1 -83 -5h-3l-1 2q-1 1 -1 2v3v3q0 1 1 2l1 2h3l28 3q2 0 5.5 2t4.5 4q2 4 2 6q0 1 0.5 2.5t0.5 2.5q4 46 6 94q2 61 -3 123q0 5 -2 14t-7 13q-7 7 -13 7q-8 0 -14 -3l-3 -1h-1q-1 -1 -2 -1h-4q-2 0 -1 3v3v4v3l1 2q2 2 3 2l4 1 q20 9 47 24z" />
<glyph unicode="&#x12d;" horiz-adv-x="220" d="M27 539q11 -1 17.5 -7.5t11.5 -19t10 -18.5q26 -29 68.5 -29t68.5 29q5 6 10 18.5t11.5 19t17.5 7.5q-3 -65 -38 -98q-39 -36 -88.5 -25.5t-73.5 56.5q-14 29 -15 67zM81 317q26 15 47 33q1 0 1 1l1 1q1 1 3 1h3l2 -2q3 -1 3 -5q0 -1 -0.5 -3.5t-0.5 -3.5q-4 -25 -8 -71 q-3 -38 -2 -115q0 -45 2 -91q0 -11 3 -21q3 -11 10 -19q6 -6 8 -7q4 -1 11 -1l26 1h8q1 0 2 -2q3 -3 3 -4l-1 -1v-2l-1 -1q-1 -1 -1 -2q-2 -2 -3 -2h-4q-54 0 -81 -1q-29 -1 -83 -5h-3l-1 2q-1 1 -1 2v3v3q0 1 1 2l1 2h3l28 3q2 0 5.5 2t4.5 4q2 4 2 6q0 1 0.5 2.5t0.5 2.5 q4 46 6 94q2 61 -3 123q0 5 -2 14t-7 13q-7 7 -13 7q-8 0 -14 -3l-3 -1h-1q-1 -1 -2 -1h-4q-2 0 -1 3v3v4v3l1 2q2 2 3 2l4 1q20 9 47 24z" />
<glyph unicode="&#x12e;" horiz-adv-x="311" d="M100 -190q-32 -17 -60 -19q-35 -1 -60 15t-34 41t-4.5 55.5t24.5 55.5q16 22 31 33.5t37 11.5q-4 -6 -17.5 -23t-20 -29t-9.5 -26q-11 -52 22 -81.5t84 -18.5zM36 593q43 -5 123 -5q66 0 121 6q9 1 9 -7q0 -11 -6 -11h-11q-9 0 -11 -0.5t-10.5 -1t-10.5 -1.5l-10 -3 q-6 -3 -9 -6l-7 -6q-5 -4 -7 -9t-4.5 -12.5t-3.5 -15.5q-7 -55 -7.5 -209t3.5 -246q2 -43 27 -49q19 -5 57 -5q6 0 6 -8q0 -7 -9 -7q-10 -1 -56.5 1t-58.5 2q-90 0 -127 -4q-11 -2 -11 7q0 11 6 11q47 2 60 7q32 11 35 54q7 96 6 238.5t-7 202.5q-4 36 -19.5 46t-56.5 14 q-8 1 -11 1q-8 1 -8 6q0 10 8 10z" />
<glyph unicode="&#x12f;" horiz-adv-x="220" d="M93 -191q-32 -17 -60 -19q-35 -1 -60 15t-34 41t-4.5 55.5t24.5 55.5q16 22 31 33.5t37 11.5q-4 -6 -17.5 -23t-20 -29t-9.5 -26q-11 -52 22 -81.5t84 -18.5zM151 539q16 -7 15 -8q-7 -7 -20 -23q-19 -25 -21 -29l-24 30l-19 20q22 12 35 43q4 -1 18.5 -16t15.5 -17z M81 317q26 15 47 33q1 0 1 1l1 1q1 1 3 1h3l2 -2q3 -1 3 -5q0 -1 -0.5 -3.5t-0.5 -3.5q-4 -25 -8 -71q-3 -38 -2 -115q0 -45 2 -91q0 -11 3 -21q3 -11 10 -19q6 -6 8 -7q4 -1 11 -1l26 1h8q1 0 2 -2q3 -3 3 -4l-1 -1v-2l-1 -1q-1 -1 -1 -2q-2 -2 -3 -2h-4q-54 0 -81 -1 q-29 -1 -83 -5h-3l-1 2q-1 1 -1 2v3v3q0 1 1 2l1 2h3l28 3q2 0 5.5 2t4.5 4q2 4 2 6q0 1 0.5 2.5t0.5 2.5q4 46 6 94q2 61 -3 123q0 5 -2 14t-7 13q-7 7 -13 7q-8 0 -14 -3l-3 -1h-1q-1 -1 -2 -1h-4q-2 0 -1 3v3v4v3l1 2q2 2 3 2l4 1q20 9 47 24z" />
<glyph unicode="&#x131;" horiz-adv-x="220" d="M81 317q26 15 47 33q1 0 1 1l1 1q1 1 3 1h3l2 -2q3 -1 3 -5q0 -1 -0.5 -3.5t-0.5 -3.5q-4 -25 -8 -71q-3 -38 -2 -115q0 -45 2 -91q0 -11 3 -21q3 -11 10 -19q6 -6 8 -7q4 -1 11 -1l26 1h8q1 0 2 -2q3 -3 3 -4l-1 -1v-2l-1 -1q-1 -1 -1 -2q-2 -2 -3 -2h-4q-54 0 -81 -1 q-29 -1 -83 -5h-3l-1 2q-1 1 -1 2v3v3q0 1 1 2l1 2h3l28 3q2 0 5.5 2t4.5 4q2 4 2 6q0 1 0.5 2.5t0.5 2.5q4 46 6 94q2 61 -3 123q0 5 -2 14t-7 13q-7 7 -13 7q-8 0 -14 -3l-3 -1h-1q-1 -1 -2 -1h-4q-2 0 -1 3v3v4v3l1 2q2 2 3 2l4 1q20 9 47 24z" />
<glyph unicode="&#x132;" horiz-adv-x="568" d="M456 522q-3 -37 -4 -126.5t-1.5 -222t-2.5 -231.5q-64 -87 -108 -122q-9 -7 -30 -15.5t-38 -8.5q-10 0 -18 8.5t-11 16.5q-1 6 6 10q17 10 45 22q3 1 7 0q2 -1 9 -5t14 -4q9 0 22 13t20 37q11 41 15 106q8 129 7.5 294t-8.5 227q-2 16 -8.5 27t-11 16t-20.5 8.5t-21 4 t-30 2.5q-8 0 -7 7q0 9 6 9q61 -7 132 -7q62 0 112 4q9 1 10 -7q0 -11 -8 -11q-11 2 -24.5 0.5t-24.5 -5.5t-19 -15.5t-10 -31.5zM36 593q43 -5 123 -5q66 0 121 6q9 1 9 -7q0 -11 -6 -11h-11q-9 0 -11 -0.5t-10.5 -1t-10.5 -1.5l-10 -3q-6 -3 -9 -6l-7 -6q-5 -4 -7 -9 t-4.5 -12.5t-3.5 -15.5q-7 -55 -7.5 -209t3.5 -246q2 -43 27 -49q19 -5 57 -5q6 0 6 -8q0 -7 -9 -7q-10 -1 -56.5 1t-58.5 2q-90 0 -127 -4q-11 -2 -11 7q0 11 6 11q47 2 60 7q32 11 35 54q7 96 6 238.5t-7 202.5q-4 36 -19.5 46t-56.5 14q-8 1 -11 1q-8 1 -8 6q0 10 8 10z " />
<glyph unicode="&#x133;" horiz-adv-x="446" d="M151 539q16 -7 15 -8q-7 -7 -20 -23q-19 -25 -21 -29l-24 30l-19 20q22 12 35 43q4 -1 18.5 -16t15.5 -17zM281 539q16 -7 15 -8q-7 -7 -20 -23q-19 -25 -21 -29l-24 30l-19 20q22 12 35 43q4 -1 18.5 -16t15.5 -17zM136 306q-16 -16 -14 -160q0 -16 4.5 -43t5.5 -41 q0 -11 3 -21q3 -11 10 -19q6 -6 8 -7q4 -1 11 -1l26 1h8q1 0 2 -2q3 -3 3 -4l-1 -1v-2l-1 -1q-1 -1 -1 -2q-2 -2 -3 -2h-4q-54 0 -81 -1q-29 -1 -83 -5h-3l-1 2q-1 1 -1 2v3v3q0 1 1 2l1 2h3l28 3q2 0 5.5 2t4.5 4q2 4 2 6q0 1 0.5 2.5t0.5 2.5q4 46 6 94q2 61 -3 123 q0 5 -2 14t-7 13q-7 7 -13 7q-8 0 -14 -3l-3 -1h-1q-1 -1 -2 -1h-4q-2 0 -1 3v3v4v3l1 2q2 2 3 2l4 1q6 3 24.5 24.5t27.5 26.5q39 -6 108 -3t78 11q1 1 2 1t3 1h1q1 -1 2 -1t2 -1l2 -3q2 -2 2 -3v-3q0 -1 -0.5 -2t-0.5 -2q-9 -22 -9 -54q-1 -26 -1 -81t-1 -81 q-2 -163 -2 -244q0 -14 -3 -21q-1 -3 -11 -18q-18 -25 -34 -40q-9 -9 -27 -24q-26 -21 -28 -23q-10 -13 -13 -29q0 -2 -1 -3q-2 -2 -3 -2h-3q-1 0 -3 1q-1 1 -2 1l-2 2q-1 1 -1 2v1l-1 2q1 9 6 25q6 16 19 35q4 6 12 17t12 16q16 24 23 48q6 21 7 53q1 15 5.5 68.5t4.5 78.5 v139q-2 23 -4 32q-1 4 -2 24t-1 21q-3 8 -8 13q-3 3 -21.5 15t-22.5 12q0 -1 -17 -8.5t-17 -10.5z" />
<glyph unicode="&#x135;" horiz-adv-x="226" d="M15 414l16 34q9 19 17 31l19 34q12 22 18 32l13 20q4 6 14.5 12t24.5 4q7 -1 12.5 -6t8.5 -9t7.5 -13t6.5 -12l22 -38l27 -50q11 -20 20 -39q-21 1 -41 17.5t-44 45.5l-30 37q-16 -31 -49.5 -65t-61.5 -35zM106 317q29 19 46 35q1 1 2 1t3 1h1q1 -1 2 -1t2 -1l2 -3 q2 -2 2 -3v-3q0 -1 -0.5 -2t-0.5 -2q-9 -22 -9 -54q-1 -26 -1 -81t-1 -81q-2 -163 -2 -244q0 -14 -3 -21q-1 -3 -11 -18q-18 -25 -34 -40q-9 -9 -27 -24q-26 -21 -28 -23q-10 -13 -13 -29q0 -2 -1 -3q-2 -2 -3 -2h-3q-1 0 -3 1q-1 1 -2 1l-2 2q-1 1 -1 2v1l-1 2q1 9 6 25 q6 16 19 35q4 6 12 17t12 16q16 24 23 48q6 21 7 53q5 82 5 147q0 61 -5 139q-2 23 -4 32q-2 11 -3 15q-3 8 -8 13q-6 6 -14 7q-6 1 -15 -1l-10 -2h-1q-1 -1 -1.5 -1t-1.5 0.5t-2 0.5l-2 2q-2 2 -2 3t1 3q0 1 2 3l5 2q33 14 63 32z" />
<glyph unicode="&#x136;" horiz-adv-x="594" d="M230 -264l8 -11zM289 -59q5 -1 9 -3.5t5 -4.5l6 -7l7 -6q3 -4 11 -9t14 -10t8 -12t-4.5 -20t-6.5 -15q-23 -95 -100 -129l-8 18q31 18 48.5 41.5t3.5 50.5q-4 7 -19 22.5t-18 29.5q28 15 44 54zM154 287q202 196 219 215q23 26 23 40q0 9 -13 15.5t-33 6.5q-5 0 -5 8 q0 9 4 8q2 0 39 -1t44 -1q26 0 45.5 1t28 2.5t9.5 1.5q7 0 7 -7q0 -9 -7 -10q-17 2 -60 -31q-36 -27 -78 -64l-97 -88l-76 -71l300 -253q51 -43 71 -50q8 -2 4 -10q-1 -6 -7 -6q-2 0 -7.5 2t-17.5 3.5t-28 1.5q-71 0 -111 -7q-5 0 -4 9q0 8 3 7q30 4 35.5 10.5t-10.5 21.5 l-96 83l-104 86l-78 64q0 -122 5 -214q1 -23 14.5 -31.5t55.5 -17.5q5 -1 4 -9q0 -6 -7 -6q-2 0 -17 1l-39 3q-24 1 -46 1q-70 2 -92 -2q-9 -2 -9 6q0 10 6 10q29 2 41 11.5t14 39.5q19 250 5 445q-2 32 -10 41.5t-44 14.5q-7 1 -7 8q0 8 7 7q45 -3 94 -3q28 0 52 1.5 t36 3.5l14 2q5 0 4.5 -6.5t-4.5 -7.5q-19 -2 -25.5 -3.5t-18.5 -6t-17.5 -15t-5.5 -27.5q-7 -102 -10 -233z" />
<glyph unicode="&#x137;" horiz-adv-x="436" d="M146 -267l8 -11zM205 -62q5 -1 9 -3.5t5 -4.5l6 -7l7 -6q3 -4 11 -9t14 -10t8 -12t-4.5 -20t-6.5 -15q-23 -95 -100 -129l-8 18q31 18 48.5 41.5t3.5 50.5q-4 7 -19 22.5t-18 29.5q28 15 44 54zM79 321q0 98 -2 198q0 12 -1 18q-2 9 -6 16q-6 9 -14 10h-9q-3 0 -8 -1 l-10 -3q-1 0 -3 -1h-2q-1 0 -3 2q-1 1 -1 2v2q0 1 2 3q1 1 4 3l20 9l29 14q33 16 56 33q2 2 5 2h2q1 0 2 -1q3 -3 3 -5v-5q-11 -97 -13 -212l-3 -188q0 -4 1 -5l2 -5q2 -1 7 -1q2 0 6 2q26 15 47 31q19 14 43 38q4 4 9 11t5 14q0 9 -6 13q-1 1 -7 4q-1 1 -3 1h-3l-9 2l-1 1 h-1q-1 0 -1 1q-2 2 -2 5v1q1 1 1 2t0.5 2t2.5 1h2q47 -2 71 -2q57 0 85 1h3q2 0 2 -2q0 -1 0.5 -1t0.5 -1v-1l-1 -2v-3l-2 -2l-2 -2h-3q-28 -3 -54 -14q-16 -7 -48 -29l-79 -56l-2 -1l-2 -1q-2 -2 -2 -3v-4l1 -2q1 -2 2 -2l97 -96l90 -83q6 -6 10 -7q8 -4 11 -5l13 -3 q1 0 2 -0.5t2 -0.5l2 -2l2 -2v-3q0 -2 -1 -3l-3 -3q-1 -1 -3 -1h-4q-30 3 -60 3q-37 1 -84 -2h-3q-2 0 -2 2v2v1l-1 1v3l1 1q0 2 1 2h3l18 3q3 0 6 2q1 0 3 2q1 0 1 1t1 2t1 3q0 3 -1 3q-2 4 -5 7l-61 65l-80 81q-3 3 -5 3q-4 2 -6 1q-3 -2 -5 -4q-1 -2 0 -6q-1 -39 0 -77 l2 -61q0 -5 1 -7l2 -2l1 -2q1 -2 5 -4q1 -1 3 -2l3 -1l12 -3q2 -1 7.5 -2t7.5 -1h3l2 -2q2 -2 2 -4v-2q0 -2 -1 -3t-2 -1h-3q-21 1 -62 1q-28 0 -85 -4h-2q-1 0 -2 1l-2 2v3q0 4 1 4.5t2 0.5h1l1 1l22 6q3 1 11 5q6 3 9 8q2 4 4 12q1 4 1 11q5 135 5 269z" />
<glyph unicode="&#x138;" horiz-adv-x="437" d="M57 360h140q-6 -10 -22 -17.5t-22 -14.5q-8 -13 -11 -33t-3 -36.5t1 -41t1 -33.5l100 98l112 81q-1 -2 5 0q26 11 39 0q6 -6 -2 -21t-12 -15q-31 1 -102 -50t-96 -86q29 -14 60 -38.5t67 -59t53 -48.5q6 -6 21.5 -14.5t27 -17t14.5 -18.5h-15q-18 7 -39.5 8t-51 -1.5 t-40.5 -2.5v-4h-11l25 25l-37 42l-118 98q0 -10 -1 -31t-1 -34.5t2.5 -31t8.5 -29.5q6 -10 25 -19.5t22 -19.5h-23q-17 7 -41 8q-25 1 -57.5 -1.5t-43.5 -2.5v10q28 2 39 17t13 42q10 132 0 225q-2 24 -13 36.5t-35 15.5v15h15h6zM174 -5l-142 4v-4h143h-1z" />
<glyph unicode="&#x13b;" horiz-adv-x="518" d="M203 -278l8 -11zM262 -73q5 -1 9 -3.5t5 -4.5l6 -7l7 -6q3 -4 11 -9t14 -10t8 -12t-4.5 -20t-6.5 -15q-23 -95 -100 -129l-8 18q31 18 48.5 41.5t3.5 50.5q-4 7 -19 22.5t-18 29.5q28 15 44 54zM37 584q1 0 13.5 -1t36.5 -2.5t49 -1.5q29 0 52.5 1.5t34.5 3t12 1.5 q8 0 8 -9q0 -7 -1 -8.5t-6 -2.5q-39 -4 -52.5 -12t-15.5 -32q-15 -192 -9 -449q1 -24 12 -33.5t45 -10.5q67 -3 109 1q85 8 117.5 29t43.5 58q2 7 10 5q9 -3 7 -11q-25 -98 -40 -123q-21 7 -100 10q-173 3 -231 3h-101q-8 0 -7 9q0 7 1 8.5t6 2.5q38 6 48 15.5t11 42.5 q9 311 4 434q-1 20 -4 30.5t-13 15.5t-15 6l-25 2q-7 0 -6 11q1 7 6 7z" />
<glyph unicode="&#x13c;" horiz-adv-x="236" d="M49 -269l8 -11zM108 -64q5 -1 9 -3.5t5 -4.5l6 -7l7 -6q3 -4 11 -9t14 -10t8 -12t-4.5 -20t-6.5 -15q-23 -95 -100 -129l-8 18q31 18 48.5 41.5t3.5 50.5q-4 7 -19 22.5t-18 29.5q28 15 44 54zM95 596q41 21 54 30q1 1 4 1h3q1 0 2 -1q2 -2 2 -5q0 -1 -0.5 -2.5 t-0.5 -2.5q-10 -42 -11 -104q0 -17 -0.5 -52.5t-0.5 -53.5q-2 -163 0 -242q0 -34 1 -101q0 -11 1 -16.5t7 -15.5q4 -7 13 -10q9 -4 16 -5l28 -5h3l1 -2q1 -1 1 -2v-3v-3l-2 -2l-1 -1h-3q-55 2 -82 2q-54 0 -98 -4h-3q-2 0 -3 1l-1 2q-1 1 -1 3q0 4 1 5l1 2h1h2l11 4 q17 6 28 15q10 9 17 26q6 16 6 31v32q2 147 2 220v142q0 27 -4 49l-3 12q-2 4 -8 9q-4 4 -10 6q-4 1 -12 1h-11h-2q-1 0 -1 0.5t-1 0.5q-3 1 -4 4q-1 1 -1 2v4q0 1 2 3q1 1 3 1z" />
<glyph unicode="&#x13d;" horiz-adv-x="518" d="M433 394l8 -11zM492 599q5 -1 9 -3.5t5 -4.5l6 -7l7 -6q3 -4 11 -9t14 -10t8 -12t-4.5 -20t-6.5 -15q-23 -95 -100 -129l-8 18q31 18 48.5 41.5t3.5 50.5q-4 7 -19 22.5t-18 29.5q28 15 44 54zM37 584q1 0 13.5 -1t36.5 -2.5t49 -1.5q29 0 52.5 1.5t34.5 3t12 1.5 q8 0 8 -9q0 -7 -1 -8.5t-6 -2.5q-39 -4 -52.5 -12t-15.5 -32q-15 -192 -9 -449q1 -24 12 -33.5t45 -10.5q67 -3 109 1q85 8 117.5 29t43.5 58q2 7 10 5q9 -3 7 -11q-25 -98 -40 -123q-21 7 -100 10q-173 3 -231 3h-101q-8 0 -7 9q0 7 1 8.5t6 2.5q38 6 48 15.5t11 42.5 q9 311 4 434q-1 20 -4 30.5t-13 15.5t-15 6l-25 2q-7 0 -6 11q1 7 6 7z" />
<glyph unicode="&#x13e;" horiz-adv-x="236" d="M186 424l8 -11zM245 629q5 -1 9 -3.5t5 -4.5l6 -7l7 -6q3 -4 11 -9t14 -10t8 -12t-4.5 -20t-6.5 -15q-23 -95 -100 -129l-8 18q31 18 48.5 41.5t3.5 50.5q-4 7 -19 22.5t-18 29.5q28 15 44 54zM95 596q41 21 54 30q1 1 4 1h3q1 0 2 -1q2 -2 2 -5q0 -1 -0.5 -2.5 t-0.5 -2.5q-10 -42 -11 -104q0 -17 -0.5 -52.5t-0.5 -53.5q-2 -163 0 -242q0 -34 1 -101q0 -11 1 -16.5t7 -15.5q4 -7 13 -10q9 -4 16 -5l28 -5h3l1 -2q1 -1 1 -2v-3v-3l-2 -2l-1 -1h-3q-55 2 -82 2q-54 0 -98 -4h-3q-2 0 -3 1l-1 2q-1 1 -1 3q0 4 1 5l1 2h1h2l11 4 q17 6 28 15q10 9 17 26q6 16 6 31v32q2 147 2 220v142q0 27 -4 49l-3 12q-2 4 -8 9q-4 4 -10 6q-4 1 -12 1h-11h-2q-1 0 -1 0.5t-1 0.5q-3 1 -4 4q-1 1 -1 2v4q0 1 2 3q1 1 3 1z" />
<glyph unicode="&#x13f;" horiz-adv-x="518" d="M348 311q19 -9 18 -11q-8 -8 -24 -29q-24 -31 -26 -36l-30 38l-24 25q28 15 44 54q5 -1 23 -20t19 -21zM37 584q1 0 13.5 -1t36.5 -2.5t49 -1.5q29 0 52.5 1.5t34.5 3t12 1.5q8 0 8 -9q0 -7 -1 -8.5t-6 -2.5q-39 -4 -52.5 -12t-15.5 -32q-15 -192 -9 -449q1 -24 12 -33.5 t45 -10.5q67 -3 109 1q85 8 117.5 29t43.5 58q2 7 10 5q9 -3 7 -11q-25 -98 -40 -123q-21 7 -100 10q-173 3 -231 3h-101q-8 0 -7 9q0 7 1 8.5t6 2.5q38 6 48 15.5t11 42.5q9 311 4 434q-1 20 -4 30.5t-13 15.5t-15 6l-25 2q-7 0 -6 11q1 7 6 7z" />
<glyph unicode="&#x140;" horiz-adv-x="331" d="M273 291q19 -9 18 -11q-8 -8 -24 -29q-24 -31 -26 -36l-30 38l-24 25q28 15 44 54q5 -1 23 -20t19 -21zM95 596q41 21 54 30q1 1 4 1h3q1 0 2 -1q2 -2 2 -5q0 -1 -0.5 -2.5t-0.5 -2.5q-10 -42 -11 -104q0 -17 -0.5 -52.5t-0.5 -53.5q-2 -163 0 -242q0 -34 1 -101 q0 -11 1 -16.5t7 -15.5q4 -7 13 -10q9 -4 16 -5l28 -5h3l1 -2q1 -1 1 -2v-3v-3l-2 -2l-1 -1h-3q-55 2 -82 2q-54 0 -98 -4h-3q-2 0 -3 1l-1 2q-1 1 -1 3q0 4 1 5l1 2h1h2l11 4q17 6 28 15q10 9 17 26q6 16 6 31v32q2 147 2 220v142q0 27 -4 49l-3 12q-2 4 -8 9q-4 4 -10 6 q-4 1 -12 1h-11h-2q-1 0 -1 0.5t-1 0.5q-3 1 -4 4q-1 1 -1 2v4q0 1 2 3q1 1 3 1z" />
<glyph unicode="&#x141;" horiz-adv-x="534" d="M41 178l4 -4zM115 597v-4h115zM45 597h211v-16q-18 -2 -25.5 -3t-19.5 -7t-20 -15q-6 -9 -8 -19t-2 -24q-1 -14 -1 -20q-3 -23 -4 -51.5t-1.5 -44.5t0 -54.5t0.5 -46.5l174 130q0 -25 -20.5 -49.5t-47 -40t-57.5 -35.5t-44 -36q-5 -5 -7.5 -13t-2.5 -13.5t0.5 -17 t0.5 -14.5q0 -10 -1.5 -45t-0.5 -58.5t6 -44.5q3 -10 9.5 -17t13 -10.5t19.5 -5t19.5 -1.5t21 0.5t17.5 0.5q26 0 43 0.5t45 2.5t47.5 9t40.5 17t35 27t18 40l16 -4l-34 -127q-66 9 -136 11t-172.5 -0.5t-136.5 -2.5v15q22 5 36 18.5t21 28.5t10 38.5t2.5 40.5t-2 43.5 t-1.5 38.5l-62 -44q0 17 7.5 29t17 18.5t20.5 17.5t15 23q4 10 4.5 24t-1 33t-1.5 25q0 12 2 40l3 50q2 22 -0.5 50t-8.5 47t-21 32t-37 14v16z" />
<glyph unicode="&#x142;" horiz-adv-x="228" d="M26 563l3 -3zM29 563l34 28l104 46l-23 -285l72 52q0 -19 -8.5 -32.5t-19 -19t-23 -16.5t-18.5 -25q-4 -9 -4.5 -20.5t0.5 -26.5t1 -20v-144q0 -48 11 -64q15 -22 67 -26v-15h-211v15q21 5 36.5 17.5t24 33t13 41.5t5.5 49t1 47.5t-1 47.5t-1 39l-67 -52q0 19 7 31t16 18 t21 16.5t20 23.5q10 19 11.5 56.5t-0.5 59t-7 59.5q-1 4 -1.5 13t-1 14t-2.5 11.5t-6 12.5q-6 8 -15.5 11.5t-15.5 3.5h-19z" />
<glyph unicode="&#x144;" horiz-adv-x="446" d="M215 428q-2 -4 -2 -7q0 -13 13 -13q10 0 14 10l57 93q2 2 2 5q0 9 -14 16q-9 3 -15 3q-9 0 -10 -6zM176 292q37 18 59 25q51 14 85 1q26 -9 39 -33q7 -9 10 -24q1 -4 1.5 -8t1 -9.5t0.5 -8.5q2 -34 3 -102q1 -45 0 -90v-7q0 -3 2 -7q2 -3 5 -4l6 -3l33 -13l3 -1 q3 -1 3.5 -2t0.5 -4v-3q0 -2 -1 -3q-1 -2 -3 -2h-7q-31 6 -63 6q-45 0 -83 -8q-1 0 -2.5 -0.5t-2.5 -0.5q-3 0 -4 1q-1 0 -1 1t-1 2t-1 3q0 1 2 3q0 1 1 1l1 2q1 1 3 1l25 9q8 3 12 7q6 4 9 10q4 7 5 13q1 3 1 7t1 7q5 43 4 76q0 38 -3 76q-2 21 -5 30q-7 16 -16.5 25.5 t-25.5 16.5q-9 4 -29 5q-38 1 -75 -13q-17 -7 -35 -17l-3 -187v-19q0 -12 2 -18q3 -9 11 -15q6 -5 17 -7l27 -5h1l2 -1l2 -2l2 -2v-3v-1q-1 -1 -1 -2q0 -2 -2 -2h-3h-3q-10 2 -31 4q-29 3 -89 1l-37 -1h-3q-1 0 -2 2q-1 1 -1 4v3q1 2 2.5 3.5t3.5 1.5l8 2q11 4 17 7 q9 5 14 11q4 5 8 16q3 9 2 18q3 41 3 82q0 35 -1 52q-2 30 -4 46q-4 15 -8 21q-4 5 -8 7q-5 4 -10 5l-21 7h-2l-1 2q-1 0 0 1v2l1 1q1 1 2 1q32 11 48 18q40 18 44 20q2 2 4 2q4 0 5 -1q2 -2 1 -4q0 -1 0.5 -2.5t0.5 -2.5l1 -54q20 13 43 24z" />
<glyph unicode="&#x145;" horiz-adv-x="743" d="M303 -275l8 -11zM362 -70q5 -1 9 -3.5t5 -4.5l6 -7l7 -6q3 -4 11 -9t14 -10t8 -12t-4.5 -20t-6.5 -15q-23 -95 -100 -129l-8 18q31 18 48.5 41.5t3.5 50.5q-4 7 -19 22.5t-18 29.5q28 15 44 54zM29 593q46 -7 68 -7q9 0 51 4q8 -13 38 -46t86 -88l102 -98l126 -120 l116 -111q1 19 3 78.5t2.5 80t1 64t-1.5 79t-6 76.5q-3 38 -18.5 53.5t-66.5 20.5q-6 1 -5 7q0 8 7 8t51.5 -4.5t70.5 -4.5q20 0 33.5 0.5t19.5 1.5l7 1q7 0 6 -8q0 -9 -7 -8q-27 -1 -41.5 -16.5t-16.5 -56.5q-9 -180 -8 -415q0 -54 4 -82q1 -12 -8 -12q-7 0 -13 11 q-9 22 -40.5 58.5t-86.5 90.5l-107 102l-130 120l-128 120q-5 -294 -1 -407q1 -32 14 -45q22 -22 88 -31q8 -1 8 -10q0 -8 -9 -8q-66 7 -110 7q-51 0 -83 -6q-9 -1 -10 6q-2 10 6 11q41 4 50 16t10 63q0 29 3 142t2.5 142t-3.5 136q-15 60 -73 67q-7 1 -7 9.5t6 8.5z" />
<glyph unicode="&#x146;" horiz-adv-x="446" d="M154 -274l8 -11zM213 -69q5 -1 9 -3.5t5 -4.5l6 -7l7 -6q3 -4 11 -9t14 -10t8 -12t-4.5 -20t-6.5 -15q-23 -95 -100 -129l-8 18q31 18 48.5 41.5t3.5 50.5q-4 7 -19 22.5t-18 29.5q28 15 44 54zM176 292q37 18 59 25q51 14 85 1q26 -9 39 -33q7 -9 10 -24q1 -4 1.5 -8 t1 -9.5t0.5 -8.5q2 -34 3 -102q1 -45 0 -90v-7q0 -3 2 -7q2 -3 5 -4l6 -3l33 -13l3 -1q3 -1 3.5 -2t0.5 -4v-3q0 -2 -1 -3q-1 -2 -3 -2h-7q-31 6 -63 6q-45 0 -83 -8q-1 0 -2.5 -0.5t-2.5 -0.5q-3 0 -4 1q-1 0 -1 1t-1 2t-1 3q0 1 2 3q0 1 1 1l1 2q1 1 3 1l25 9q8 3 12 7 q6 4 9 10q4 7 5 13q1 3 1 7t1 7q5 43 4 76q0 38 -3 76q-2 21 -5 30q-7 16 -16.5 25.5t-25.5 16.5q-9 4 -29 5q-38 1 -75 -13q-17 -7 -35 -17l-3 -187v-19q0 -12 2 -18q3 -9 11 -15q6 -5 17 -7l27 -5h1l2 -1l2 -2l2 -2v-3v-1q-1 -1 -1 -2q0 -2 -2 -2h-3h-3q-10 2 -31 4 q-29 3 -89 1l-37 -1h-3q-1 0 -2 2q-1 1 -1 4v3q1 2 2.5 3.5t3.5 1.5l8 2q11 4 17 7q9 5 14 11q4 5 8 16q3 9 2 18q3 41 3 82q0 35 -1 52q-2 30 -4 46q-4 15 -8 21q-4 5 -8 7q-5 4 -10 5l-21 7h-2l-1 2q-1 0 0 1v2l1 1q1 1 2 1q32 11 48 18q40 18 44 20q2 2 4 2q4 0 5 -1 q2 -2 1 -4q0 -1 0.5 -2.5t0.5 -2.5l1 -54q20 13 43 24z" />
<glyph unicode="&#x148;" horiz-adv-x="446" d="M112 576q21 -1 41 -18t43 -46.5t31 -36.5q13 20 21.5 31t25 30t33 29t31.5 11q-7 -16 -16.5 -34.5t-17 -31t-19 -34t-17.5 -31.5q-9 -15 -13.5 -21t-14.5 -12t-24 -4q-7 1 -13 6.5t-8.5 9t-7.5 13t-7 12.5q-4 8 -21.5 38t-28 49.5t-18.5 39.5zM176 292q37 18 59 25 q51 14 85 1q26 -9 39 -33q7 -9 10 -24q1 -4 1.5 -8t1 -9.5t0.5 -8.5q2 -34 3 -102q1 -45 0 -90v-7q0 -3 2 -7q2 -3 5 -4l6 -3l33 -13l3 -1q3 -1 3.5 -2t0.5 -4v-3q0 -2 -1 -3q-1 -2 -3 -2h-7q-31 6 -63 6q-45 0 -83 -8q-1 0 -2.5 -0.5t-2.5 -0.5q-3 0 -4 1q-1 0 -1 1t-1 2 t-1 3q0 1 2 3q0 1 1 1l1 2q1 1 3 1l25 9q8 3 12 7q6 4 9 10q4 7 5 13q1 3 1 7t1 7q5 43 4 76q0 38 -3 76q-2 21 -5 30q-7 16 -16.5 25.5t-25.5 16.5q-9 4 -29 5q-38 1 -75 -13q-17 -7 -35 -17l-3 -187v-19q0 -12 2 -18q3 -9 11 -15q6 -5 17 -7l27 -5h1l2 -1l2 -2l2 -2v-3v-1 q-1 -1 -1 -2q0 -2 -2 -2h-3h-3q-10 2 -31 4q-29 3 -89 1l-37 -1h-3q-1 0 -2 2q-1 1 -1 4v3q1 2 2.5 3.5t3.5 1.5l8 2q11 4 17 7q9 5 14 11q4 5 8 16q3 9 2 18q3 41 3 82q0 35 -1 52q-2 30 -4 46q-4 15 -8 21q-4 5 -8 7q-5 4 -10 5l-21 7h-2l-1 2q-1 0 0 1v2l1 1q1 1 2 1 q32 11 48 18q40 18 44 20q2 2 4 2q4 0 5 -1q2 -2 1 -4q0 -1 0.5 -2.5t0.5 -2.5l1 -54q20 13 43 24z" />
<glyph unicode="&#x149;" horiz-adv-x="446" d="M-44 353l7 -10zM-44 357q80 46 56 93q-2 4 -17.5 18.5t-14.5 25.5q0 6 3 10t9 9.5t8 6.5q2 2 10 16t14 17q9 5 29 -16.5t21 -31.5q7 -28 -14 -71q-20 -44 -44 -64q-10 -9 -15 -12t-15 -8t-17 -3.5t-13 10.5zM176 292q37 18 59 25q51 14 85 1q26 -9 39 -33q7 -9 10 -24 q1 -4 1.5 -8t1 -9.5t0.5 -8.5q2 -34 3 -102q1 -45 0 -90v-7q0 -3 2 -7q2 -3 5 -4l6 -3l33 -13l3 -1q3 -1 3.5 -2t0.5 -4v-3q0 -2 -1 -3q-1 -2 -3 -2h-7q-31 6 -63 6q-45 0 -83 -8q-1 0 -2.5 -0.5t-2.5 -0.5q-3 0 -4 1q-1 0 -1 1t-1 2t-1 3q0 1 2 3q0 1 1 1l1 2q1 1 3 1l25 9 q8 3 12 7q6 4 9 10q4 7 5 13q1 3 1 7t1 7q5 43 4 76q0 38 -3 76q-2 21 -5 30q-7 16 -16.5 25.5t-25.5 16.5q-9 4 -29 5q-38 1 -75 -13q-17 -7 -35 -17l-3 -187v-19q0 -12 2 -18q3 -9 11 -15q6 -5 17 -7l27 -5h1l2 -1l2 -2l2 -2v-3v-1q-1 -1 -1 -2q0 -2 -2 -2h-3h-3 q-10 2 -31 4q-29 3 -89 1l-37 -1h-3q-1 0 -2 2q-1 1 -1 4v3q1 2 2.5 3.5t3.5 1.5l8 2q11 4 17 7q9 5 14 11q4 5 8 16q3 9 2 18q3 41 3 82q0 35 -1 52q-2 30 -4 46q-4 15 -8 21q-4 5 -8 7q-5 4 -10 5l-21 7h-2l-1 2q-1 0 0 1v2l1 1q1 1 2 1q32 11 48 18q40 18 44 20q2 2 4 2 q4 0 5 -1q2 -2 1 -4q0 -1 0.5 -2.5t0.5 -2.5l1 -54q20 13 43 24z" />
<glyph unicode="&#x14a;" horiz-adv-x="434" d="M303 -84q27 2 46.5 13.5t29 24.5t15 28.5t6.5 22.5t1 10l4 32q1 45 0 89q0 16 -0.5 96t-1 151t-1.5 81q0 3 -0.5 8.5t-1 9.5t-1.5 8q-4 15 -11 24q-14 23 -42 32q-37 13 -93 -1q-24 -7 -64 -24q-25 -11 -46 -24l-1 53q0 1 -0.5 2.5t-0.5 2.5q1 2 -2 4q-1 1 -5 1 q-2 0 -4 -2l-48 -20q-17 -7 -52 -17q-1 0 -2 -1l-1 -1v-2q-1 -1 0 -1l1 -2h2l23 -7q5 -1 10 -5q5 -2 9 -7q5 -6 9 -21q2 -16 4 -46q1 -17 1 -278q0 -40 -3 -81q1 -9 -2 -18q-4 -11 -9 -16q-5 -6 -15 -11q-7 -3 -18 -7l-9 -2q-2 0 -4 -1.5t-3 -3.5v-3q0 -3 1 -4q2 -2 3 -2h3 l40 1q65 2 97 -1q22 -2 33 -4h3h4q2 0 2 2q0 1 1 2v1v3l-2 2l-2 2l-3 1h-1l-29 5q-12 2 -18 7q-9 6 -12 15q-2 6 -2 18v19l3 412q19 10 38 17q40 14 81 13q22 -1 32 -5q17 -7 27.5 -16.5t17.5 -25.5q3 -9 6 -30q3 -38 3 -302q0 -6 2 -26t2 -32t-1 -31q1 -21 -5 -58 q0 -1 -4 -9t-11 -16.5t-15 -13t-18 4.5t-20 32q-12 1 -21 -2t-13 -7.5t-6 -9t-2 -7.5l-1 -3q-1 -4 67 -43z" />
<glyph unicode="&#x14b;" horiz-adv-x="446" d="M281 -89q24 3 42.5 14t27 24t13.5 28.5t6 23t1 10.5l4 32q1 45 0 90q-1 68 -3 102q0 3 -0.5 8.5t-1 9.5t-1.5 8q-3 15 -10 24q-13 24 -39 33q-34 13 -85 -1q-22 -7 -59 -25q-23 -11 -43 -24l-1 54q0 1 -0.5 2.5t-0.5 2.5q1 2 -1 4q-1 1 -5 1q-2 0 -4 -2q-4 -2 -44 -20 q-16 -7 -48 -18q-1 0 -2 -1l-1 -1v-2q-1 -1 0 -1l1 -2h2l21 -7q5 -1 10 -5q4 -2 8 -7q4 -6 8 -21q2 -16 4 -46q1 -17 1 -52q0 -41 -3 -82q1 -9 -2 -18q-4 -11 -8 -16q-5 -6 -14 -11q-6 -3 -17 -7l-8 -2q-2 0 -3.5 -1.5t-2.5 -3.5v-3q0 -3 1 -4q1 -2 2 -2h3l37 1q60 2 89 -1 q21 -2 31 -4h3h3q2 0 2 2q0 1 1 2v1v3l-2 2l-2 2l-2 1h-1l-27 5q-11 2 -17 7q-8 6 -11 15q-2 6 -2 18v19l3 187q18 10 35 17q37 14 75 13q20 -1 29 -5q16 -7 25.5 -16.5t16.5 -25.5q3 -9 5 -30q3 -38 3 -76q0 -7 1.5 -27t2 -32t-0.5 -31q1 -21 -5 -58q0 -1 -3.5 -9t-10 -17 t-14 -13t-17 4.5t-17.5 32.5q-12 0 -20 -3t-12 -7t-5.5 -8.5t-1.5 -7.5l-1 -4q0 -3 9.5 -15t25 -22.5t27.5 -5.5z" />
<glyph unicode="&#x14d;" horiz-adv-x="411" d="M83 442h261v-33h-261v33zM133 331q48 21 96 17q50 -5 90 -34q49 -37 63 -96q15 -60 -9 -114q-19 -47 -61 -77q-57 -39 -130 -28q-66 10 -110 57q-46 48 -48 113q0 54 30 98q29 41 79 64zM193 328q-28 0 -50 -12q-24 -13 -39 -34q-26 -35 -26 -86q0 -48 20 -89 q18 -41 51 -66q37 -29 78 -27q26 1 49 18q18 12 30 32q25 40 27 86q1 53 -28 103q-22 35 -46 52q-32 23 -66 23z" />
<glyph unicode="&#x14f;" horiz-adv-x="411" d="M106 535q11 -1 17.5 -7.5t11.5 -19t10 -18.5q26 -29 68.5 -29t68.5 29q5 6 10 18.5t11.5 19t17.5 7.5q-3 -65 -38 -98q-39 -36 -88.5 -25.5t-73.5 56.5q-14 29 -15 67zM133 331q48 21 96 17q50 -5 90 -34q49 -37 63 -96q15 -60 -9 -114q-19 -47 -61 -77q-57 -39 -130 -28 q-66 10 -110 57q-46 48 -48 113q0 54 30 98q29 41 79 64zM193 328q-28 0 -50 -12q-24 -13 -39 -34q-26 -35 -26 -86q0 -48 20 -89q18 -41 51 -66q37 -29 78 -27q26 1 49 18q18 12 30 32q25 40 27 86q1 53 -28 103q-22 35 -46 52q-32 23 -66 23z" />
<glyph unicode="&#x151;" horiz-adv-x="411" d="M185 429q2 -4 2 -7q0 -13 -13 -13q-10 0 -14 10l-57 93q-2 2 -2 5q0 9 14 16q9 3 15 3q9 0 10 -6zM265 429q2 -4 2 -7q0 -13 -13 -13q-10 0 -14 10l-57 93q-2 2 -2 5q0 9 14 16q9 3 15 3q9 0 10 -6zM133 331q48 21 96 17q50 -5 90 -34q49 -37 63 -96q15 -60 -9 -114 q-19 -47 -61 -77q-57 -39 -130 -28q-66 10 -110 57q-46 48 -48 113q0 54 30 98q29 41 79 64zM193 328q-28 0 -50 -12q-24 -13 -39 -34q-26 -35 -26 -86q0 -48 20 -89q18 -41 51 -66q37 -29 78 -27q26 1 49 18q18 12 30 32q25 40 27 86q1 53 -28 103q-22 35 -46 52 q-32 23 -66 23z" />
<glyph unicode="&#x152;" horiz-adv-x="930" d="M308 580q-58 -8 -104 -33q-57 -31 -84 -90.5t-27 -130.5q0 -66 25 -126t67.5 -103t103.5 -64t127 -10l8 1q8 1 12 2t11.5 2t12 3t8.5 5t7 6q4 6 6 15t2 22v17q8 67 7 141q0 25 0.5 71t0.5 83.5t-2 72.5v16q0 13 -1 19.5t-2.5 18t-4.5 19t-9 14.5q-14 16 -46.5 24 t-62.5 7.5t-55 -2.5zM913 137q-10 -115 -40 -138q-6 -4 -17 -5.5t-20.5 -0.5t-23.5 3t-18 3q-26 2 -55.5 2t-66.5 -1t-56 -1q-17 0 -51 1t-61 1t-51 -2l-44 -3l-45 -4q-13 -1 -40.5 -1.5t-43.5 2.5t-39 8t-42 14.5t-39 22.5q-50 33 -82 82.5t-43 102.5t-4 109t31.5 104 t68 87.5t99.5 59.5q28 10 62.5 14.5t57 5t65 -1t60.5 -1.5h401l-19 -118l-18 3q22 79 -70 90q-25 3 -53 3.5t-49 -1t-53 -3.5t-50 -3l-7 -257q17 0 67.5 -3.5t89 -1.5t65.5 12q10 4 16 13t8.5 18t8.5 16.5t15 9.5v-175h-15q0 26 -9 44.5t-26.5 28t-37.5 14.5t-46.5 5 t-47.5 -0.5t-48 -3t-40 -2.5q-10 -84 -1 -185q1 -4 1 -21t2 -27.5t8 -17.5t15.5 -9.5t26 -3.5t18.5 -1q118 -16 189 14q36 15 58 50q3 4 9 18.5t13 21.5t17 9z" />
<glyph unicode="&#x153;" horiz-adv-x="653" d="M189 335q-33 -6 -55.5 -28t-30.5 -53t-7.5 -66t14 -68t32 -58.5t47 -38.5t60.5 -7q39 7 63 36t31 67t-0.5 79t-27 74.5t-53 51.5t-73.5 11zM408 203q13 1 29.5 4t28.5 6l30 7q18 5 27 7q2 0 10 1.5t12 2.5t9.5 4t6.5 7q10 20 -7.5 43.5t-44.5 36.5t-45 10 q-56 -11 -56 -129zM368 63q-53 -53 -101 -66q-46 -11 -89 1t-73.5 39.5t-49 66t-20 78.5t18.5 79.5t61 66.5q38 24 89 30q48 6 92 -11q47 -18 82 -66q23 43 73.5 63.5t93.5 -1.5q21 -10 35.5 -28t29.5 -45l9 -14q7 -11 11 -18.5t5 -15.5q-128 -25 -152 -29q-6 -1 -21.5 -3 t-26.5 -5t-18 -8q-6 -4 -7.5 -10.5t-1.5 -11.5t1.5 -14.5t1.5 -11.5q5 -39 34.5 -65t70.5 -34q23 -4 57.5 15t53.5 18q-4 -12 -16 -23t-18.5 -14t-24.5 -13q-36 -18 -74.5 -20.5t-73.5 15t-52 55.5z" />
<glyph unicode="&#x155;" horiz-adv-x="305" d="M145 432q-2 -4 -2 -7q0 -13 13 -13q10 0 14 10l57 93q2 2 2 5q0 9 -14 16q-9 3 -15 3q-9 0 -10 -6zM233 286q-7 7 -19 9q-8 1 -21 -3q-21 -7 -46 -25q-8 -6 -10 -10l-3 -6v-7q-1 -32 -1 -97q0 -56 3 -112q0 -6 1 -8l1 -2q1 -3 2 -4q2 -2 5.5 -4t6.5 -2q17 -2 27 -2 q21 -1 41 0h3q2 0 3 -1q2 -2 2 -3h1v-2q0 -3 -1 -4l-1 -1q0 -2 -1 -2q-2 -2 -4 -2h-4l-181 -3h-2q-1 0 -3 1q-2 0 -2 2v2v3l2 2q1 1 2 1q2 1 3 1l20 5l5 3q3 2 5 5l3 6q1 2 1 6q7 51 8 102q2 62 -5 124q0 5 -2 10.5t-7 8.5q-2 2 -7 4q-3 1 -9 1q-13 0 -19 -1h-4q-1 0 -1 0.5 t-1 0.5q-2 0 -2 1v2v2q0 2 2 2q1 0 1 0.5t1 0.5q34 19 51 30q13 8 47 31q1 1 4 1q2 0 2 -1q2 -2 2 -3v-1q1 -1 1 -2l-1 -68l107 64l4 3q1 1 3 1h4q3 0 3 -1l16 -12q11 -9 13 -10q6 -7 7 -13q2 -9 -3 -18q-3 -6 -12 -13t-23 -11q-1 0 -2 -0.5t-2 -0.5h-4l-3 2q-1 1 -1 4 q-1 9 -6 14z" />
<glyph unicode="&#x156;" horiz-adv-x="638" d="M283 -291l8 -11zM342 -86q5 -1 9 -3.5t5 -4.5l6 -7l7 -6q3 -4 11 -9t14 -10t8 -12t-4.5 -20t-6.5 -15q-23 -95 -100 -129l-8 18q31 18 48.5 41.5t3.5 50.5q-4 7 -19 22.5t-18 29.5q28 15 44 54zM237 572q-49 0 -66 -17q-6 -6 -6 -11q-9 -129 -7 -240q40 -6 83 -5 q32 0 57 5q33 9 62.5 37t29.5 80q0 45 -26.5 86.5t-67.5 56.5q-19 8 -59 8zM34 583q2 0 27.5 -2t50.5 -2q26 0 73.5 6.5t74.5 6.5q95 0 148.5 -49.5t53.5 -107.5q0 -34 -14 -61.5t-36.5 -44.5t-41 -26t-36.5 -14q121 -182 184 -246q25 -25 55.5 -40.5t54.5 -15.5q8 0 7 -8 q0 -9 -26 -9q-83 0 -166 71q-74 63 -186 238q-36 -4 -99 6q-1 -100 5 -242q0 -9 6.5 -15t13 -8.5t21 -6.5t22 -6.5t5.5 -11.5q-3 -7 -8 -5q-45 10 -86 10q-38 0 -100 -10q-5 -1 -10 3q-2 1 -1 7t4 7q58 8 59 49q12 306 1 471q-1 25 -14.5 31t-45.5 7q-5 0 -6 3.5t1 7.5 q4 7 9 7z" />
<glyph unicode="&#x157;" horiz-adv-x="305" d="M39 -272l8 -11zM98 -67q5 -1 9 -3.5t5 -4.5l6 -7l7 -6q3 -4 11 -9t14 -10t8 -12t-4.5 -20t-6.5 -15q-23 -95 -100 -129l-8 18q31 18 48.5 41.5t3.5 50.5q-4 7 -19 22.5t-18 29.5q28 15 44 54zM233 286q-7 7 -19 9q-8 1 -21 -3q-21 -7 -46 -25q-8 -6 -10 -10l-3 -6v-7 q-1 -32 -1 -97q0 -56 3 -112q0 -6 1 -8l1 -2q1 -3 2 -4q2 -2 5.5 -4t6.5 -2q17 -2 27 -2q21 -1 41 0h3q2 0 3 -1q2 -2 2 -3h1v-2q0 -3 -1 -4l-1 -1q0 -2 -1 -2q-2 -2 -4 -2h-4l-181 -3h-2q-1 0 -3 1q-2 0 -2 2v2v3l2 2q1 1 2 1q2 1 3 1l20 5l5 3q3 2 5 5l3 6q1 2 1 6 q7 51 8 102q2 62 -5 124q0 5 -2 10.5t-7 8.5q-2 2 -7 4q-3 1 -9 1q-13 0 -19 -1h-4q-1 0 -1 0.5t-1 0.5q-2 0 -2 1v2v2q0 2 2 2q1 0 1 0.5t1 0.5q34 19 51 30q13 8 47 31q1 1 4 1q2 0 2 -1q2 -2 2 -3v-1q1 -1 1 -2l-1 -68l107 64l4 3q1 1 3 1h4q3 0 3 -1l16 -12 q11 -9 13 -10q6 -7 7 -13q2 -9 -3 -18q-3 -6 -12 -13t-23 -11q-1 0 -2 -0.5t-2 -0.5h-4l-3 2q-1 1 -1 4q-1 9 -6 14z" />
<glyph unicode="&#x159;" horiz-adv-x="305" d="M43 580q21 -1 41 -18t43 -46.5t31 -36.5q13 20 21.5 31t25 30t33 29t31.5 11q-7 -16 -16.5 -34.5t-17 -31t-19 -34t-17.5 -31.5q-9 -15 -13.5 -21t-14.5 -12t-24 -4q-7 1 -13 6.5t-8.5 9t-7.5 13t-7 12.5q-4 8 -21.5 38t-28 49.5t-18.5 39.5zM233 286q-7 7 -19 9 q-8 1 -21 -3q-21 -7 -46 -25q-8 -6 -10 -10l-3 -6v-7q-1 -32 -1 -97q0 -56 3 -112q0 -6 1 -8l1 -2q1 -3 2 -4q2 -2 5.5 -4t6.5 -2q17 -2 27 -2q21 -1 41 0h3q2 0 3 -1q2 -2 2 -3h1v-2q0 -3 -1 -4l-1 -1q0 -1 -0.5 -1.5l-0.5 -0.5q-2 -2 -4 -2h-4l-181 -3h-2q-1 0 -3 1 q-2 0 -2 2v2v3l2 2q1 1 2 1q2 1 3 1l20 5l5 3q3 2 5 5l3 6q1 2 1 6q7 51 8 102q2 62 -5 124q0 5 -2 10.5t-7 8.5q-2 2 -7 4q-3 1 -9 1q-13 0 -19 -1h-4q-1 0 -1 0.5t-1 0.5q-2 0 -2 1v2v2q0 2 2 2q1 0 1 0.5t1 0.5q34 19 51 30q13 8 47 31q1 1 4 1q2 0 2 -1q2 -2 2 -3v-1 q1 -1 1 -2l-1 -68l107 64l4 3q1 1 3 1h4q3 0 3 -1l16 -12q11 -9 13 -10q6 -7 7 -13q2 -9 -3 -18q-3 -6 -12 -13t-23 -11q-1 0 -2 -0.5t-2 -0.5h-4l-3 2q-1 1 -1 4q-1 9 -6 14z" />
<glyph unicode="&#x15b;" horiz-adv-x="279" d="M156 428q-2 -4 -2 -7q0 -13 13 -13q10 0 14 10l57 93q2 2 2 5q0 9 -14 16q-9 3 -15 3q-9 0 -10 -6zM61 289q17 18 45 30q22 9 43 11q14 2 44 0q10 -1 36 -5l10 -64v-2v-3q0 -1 -1 -2t-3 -1h-2q-1 0 -1.5 1t-1.5 2t-1 2q-7 13 -25 29q-23 18 -48 24q-19 4 -31 0 q-15 -5 -26 -15q-14 -14 -14 -36q0 -16 15 -33q9 -10 30 -21q8 -4 23.5 -9.5t23.5 -9.5q21 -9 41 -25q17 -14 27.5 -29.5t13.5 -37.5q5 -26 -9 -50q-1 -2 -3 -3.5t-3 -3.5q-3 -4 -7 -7q-25 -22 -53 -31q-46 -15 -97 -7q-28 5 -47 14q-1 13 -5 35q-6 25 -10 37v2l-1 2v3 q0 2 1 3q2 2 3 2h3q1 0 3 -2q4 -4 5 -6q13 -21 15 -23q15 -21 34 -33.5t43 -15.5q26 -3 48 5q10 4 19.5 13.5t12.5 19.5q5 17 -1 32t-17 29q-18 20 -53 37l-28 12q-20 9 -31 15q-15 9 -25 21t-15 28q-5 19 1 36q5 15 19 30z" />
<glyph unicode="&#x15d;" horiz-adv-x="279" d="M54 408l16 34q9 19 17 31l19 34q12 22 18 32l13 20q4 6 14.5 12t24.5 4q7 -1 12.5 -6t8.5 -9t7.5 -13t6.5 -12l22 -38l27 -50q11 -20 20 -39q-21 1 -41 17.5t-44 45.5l-30 37q-16 -31 -49.5 -65t-61.5 -35zM61 289q17 18 45 30q22 9 43 11q14 2 44 0q10 -1 36 -5l10 -64 v-2v-3q0 -1 -1 -2t-3 -1h-2q-1 0 -1.5 1t-1.5 2t-1 2q-7 13 -25 29q-23 18 -48 24q-19 4 -31 0q-15 -5 -26 -15q-14 -14 -14 -36q0 -16 15 -33q9 -10 30 -21q8 -4 23.5 -9.5t23.5 -9.5q21 -9 41 -25q17 -14 27.5 -29.5t13.5 -37.5q5 -26 -9 -50q-1 -2 -3 -3.5t-3 -3.5 q-3 -4 -7 -7q-25 -22 -53 -31q-46 -15 -97 -7q-28 5 -47 14q-1 13 -5 35q-6 25 -10 37v2l-1 2v3q0 2 1 3q2 2 3 2h3q1 0 3 -2q4 -4 5 -6q13 -21 15 -23q15 -21 34 -33.5t43 -15.5q26 -3 48 5q10 4 19.5 13.5t12.5 19.5q5 17 -1 32t-17 29q-18 20 -53 37l-28 12q-20 9 -31 15 q-15 9 -25 21t-15 28q-5 19 1 36q5 15 19 30z" />
<glyph unicode="&#x15e;" horiz-adv-x="444" d="M163 -86l3 -4zM166 -86q34 82 76 83l-25 -43q30 -13 48 -35.5t15.5 -50t-30.5 -49.5q-43 -36 -127 -36v23q63 0 93 27q17 14 17.5 32t-17.5 32q-6 5 -14.5 7.5t-19.5 5t-16 4.5zM239 587q49 0 104 -14q38 -10 54 6q3 3 8 3q6 0 4 -7l-8 -60q0 -13 8 -58q1 -6 -5.5 -7 t-7.5 4q-9 51 -43 78q-50 38 -111 38q-59 0 -95.5 -30.5t-36.5 -78.5q0 -17 4 -32t9.5 -24.5t14.5 -18.5t15 -13l15 -10q8 -6 10 -7q12 -9 72.5 -31.5t77.5 -32.5q97 -54 97 -151q0 -68 -56.5 -109.5t-126.5 -41.5q-51 0 -90.5 6t-60 11.5t-23.5 5.5q-8 0 -8 -13q0 -6 -8 -4 h-4q-4 1 -4.5 2t-0.5 5q1 10 0 23q0 26 -24 118q-1 7 5 8q9 3 10 -1q18 -65 44 -87q20 -17 69.5 -33t103.5 -16t84.5 28.5t30.5 73.5q0 37 -13 60t-44 45q-20 14 -82 38.5t-86 39.5q-88 51 -88 126q0 66 52.5 113.5t133.5 47.5z" />
<glyph unicode="&#x15f;" horiz-adv-x="279" d="M8 -86l3 -4zM11 -86q34 82 76 83l-25 -43q30 -13 48 -35.5t15.5 -50t-30.5 -49.5q-43 -36 -127 -36v23q63 0 93 27q17 14 17.5 32t-17.5 32q-6 5 -14.5 7.5t-19.5 5t-16 4.5zM61 289q17 18 45 30q22 9 43 11q14 2 44 0q10 -1 36 -5l10 -64v-2v-3q0 -1 -1 -2t-3 -1h-2 q-1 0 -1.5 1t-1.5 2t-1 2q-7 13 -25 29q-23 18 -48 24q-19 4 -31 0q-15 -5 -26 -15q-14 -14 -14 -36q0 -16 15 -33q9 -10 30 -21q8 -4 23.5 -9.5t23.5 -9.5q21 -9 41 -25q17 -14 27.5 -29.5t13.5 -37.5q5 -26 -9 -50q-1 -2 -3 -3.5t-3 -3.5q-3 -4 -7 -7q-25 -22 -53 -31 q-46 -15 -97 -7q-28 5 -47 14q-1 13 -5 35q-6 25 -10 37v2l-1 2v3q0 2 1 3q2 2 3 2h3q1 0 3 -2q4 -4 5 -6q13 -21 15 -23q15 -21 34 -33.5t43 -15.5q26 -3 48 5q10 4 19.5 13.5t12.5 19.5q5 17 -1 32t-17 29q-18 20 -53 37l-28 12q-20 9 -31 15q-15 9 -25 21t-15 28 q-5 19 1 36q5 15 19 30z" />
<glyph unicode="&#x161;" horiz-adv-x="279" d="M54 576q21 -1 41 -18t43 -46.5t31 -36.5q13 20 21.5 31t25 30t33 29t31.5 11q-7 -16 -16.5 -34.5t-17 -31t-19 -34t-17.5 -31.5q-9 -15 -13.5 -21t-14.5 -12t-24 -4q-7 1 -13 6.5t-8.5 9t-7.5 13t-7 12.5q-4 8 -21.5 38t-28 49.5t-18.5 39.5zM61 289q17 18 45 30 q22 9 43 11q14 2 44 0q10 -1 36 -5l10 -64v-2v-3q0 -1 -1 -2t-3 -1h-2q-1 0 -1.5 1t-1.5 2t-1 2q-7 13 -25 29q-23 18 -48 24q-19 4 -31 0q-15 -5 -26 -15q-14 -14 -14 -36q0 -16 15 -33q9 -10 30 -21q8 -4 23.5 -9.5t23.5 -9.5q21 -9 41 -25q17 -14 27.5 -29.5t13.5 -37.5 q5 -26 -9 -50q-1 -2 -3 -3.5t-3 -3.5q-3 -4 -7 -7q-25 -22 -53 -31q-46 -15 -97 -7q-28 5 -47 14q-1 13 -5 35q-6 25 -10 37v2l-1 2v3q0 2 1 3q2 2 3 2h3q1 0 3 -2q4 -4 5 -6q13 -21 15 -23q15 -21 34 -33.5t43 -15.5q26 -3 48 5q10 4 19.5 13.5t12.5 19.5q5 17 -1 32 t-17 29q-18 20 -53 37l-28 12q-20 9 -31 15q-15 9 -25 21t-15 28q-5 19 1 36q5 15 19 30z" />
<glyph unicode="&#x162;" horiz-adv-x="634" d="M117 -85l3 -4zM120 -85q34 82 76 83l-25 -43q30 -13 48 -35.5t15.5 -50t-30.5 -49.5q-43 -36 -127 -36v23q63 0 93 27q17 14 17.5 32t-17.5 32q-6 5 -14.5 7.5t-19.5 5t-16 4.5zM60 596q3 0 10.5 -7.5t18.5 -8.5q48 -3 224 -2h75q40 0 72.5 0.5t59.5 0.5h42h17 q7 0 14.5 1.5t13 3.5t6.5 2q9 0 5 -8q-5 -9 -12 -31q-4 -13 -11 -56q-1 -11 -14 -10q-9 3 -8 10l7 34q-20 20 -84 24t-138 -1q-10 -352 -5 -464q0 -9 1 -17t2 -14.5t5 -11t5.5 -8t8 -5.5t8.5 -3.5t12 -3t12.5 -2t16 -1.5t17.5 -2q10 -2 5 -13q-4 -9 -10 -10q-5 0 -39 5 t-60 6q-51 1 -141 -13q-9 -1 -12 6q-6 10 5 12q54 10 77 22q8 3 10 11.5t3 39.5q13 424 -4 464q-51 8 -141 3q-46 -2 -73 -15q-11 -6 -15.5 -13t-12.5 -28q-3 -10 -10 -7q-9 5 -7 10q33 72 37 92q2 8 7 8z" />
<glyph unicode="&#x163;" horiz-adv-x="289" d="M59 -81l3 -4zM62 -81q34 82 76 83l-25 -43q30 -13 48 -35.5t15.5 -50t-30.5 -49.5q-43 -36 -127 -36v23q63 0 93 27q17 14 17.5 32t-17.5 32q-6 5 -14.5 7.5t-19.5 5t-16 4.5zM120 206q0 -72 2 -108q2 -26 9 -39q9 -18 31 -26q19 -7 41 -2q10 2 39 12l10 4q1 0 4 1t4 2 q1 0 2.5 0.5t2.5 0.5h1l1 -1q2 0 1 -2q0 -1 0.5 -1t0.5 -1t-1 -3t-2 -3t-4 -2.5t-4 -2.5q-42 -24 -76 -34q-26 -7 -44 -6q-24 2 -41 14t-24 34q-5 14 -5 43l4 217h-44q-3 0 -3 1l-1 1q-1 1 -1 2v2l1 1l2 3q20 9 36 20q33 23 60 61l4 4q1 1 2 1h2q1 0 2 -1t1 -2t1 -3v-2 l-10 -64l128 3h3l2 -2l2 -2v-3v-12v-3q0 -1 -2 -3q-1 -1 -2 -1h-1q-1 -1 -2 -1h-128q-4 -64 -4 -97z" />
<glyph unicode="&#x165;" horiz-adv-x="289" d="M220 194l8 -11zM279 399q5 -1 9 -3.5t5 -4.5l6 -7l7 -6q3 -4 11 -9t14 -10t8 -12t-4.5 -20t-6.5 -15q-23 -95 -100 -129l-8 18q31 18 48.5 41.5t3.5 50.5q-4 7 -19 22.5t-18 29.5q28 15 44 54zM120 206q0 -72 2 -108q2 -26 9 -39q9 -18 31 -26q19 -7 41 -2q10 2 39 12 l10 4q1 0 4 1t4 2q1 0 2.5 0.5t2.5 0.5h1l1 -1q2 0 1 -2q0 -1 0.5 -1t0.5 -1t-1 -3t-2 -3t-4 -2.5t-4 -2.5q-42 -24 -76 -34q-26 -7 -44 -6q-24 2 -41 14t-24 34q-5 14 -5 43l4 217h-44q-3 0 -3 1l-1 1q-1 1 -1 2v2l1 1l2 3q20 9 36 20q33 23 60 61l4 4q1 1 2 1h2q1 0 2 -1 t1 -2t1 -3v-2l-10 -64l128 3h3l2 -2l2 -2v-3v-12v-3q0 -1 -2 -3q-1 -1 -2 -1h-1q-1 -1 -2 -1h-128q-4 -64 -4 -97z" />
</font>
</defs>
</svg>
